%TF.GenerationSoftware,KiCad,Pcbnew,7.0.9*%
%TF.CreationDate,2023-12-21T12:59:23+09:00*%
%TF.ProjectId,STM32F405_dev_board,53544d33-3246-4343-9035-5f6465765f62,1.0.0*%
%TF.SameCoordinates,Original*%
%TF.FileFunction,Legend,Bot*%
%TF.FilePolarity,Positive*%
%FSLAX46Y46*%
G04 Gerber Fmt 4.6, Leading zero omitted, Abs format (unit mm)*
G04 Created by KiCad (PCBNEW 7.0.9) date 2023-12-21 12:59:23*
%MOMM*%
%LPD*%
G01*
G04 APERTURE LIST*
%ADD10C,0.150000*%
%ADD11C,0.254000*%
%ADD12C,0.200000*%
%ADD13C,0.120000*%
G04 APERTURE END LIST*
D10*
X151428220Y-59559819D02*
X151428220Y-58559819D01*
X150999649Y-59559819D02*
X150999649Y-59036009D01*
X150999649Y-59036009D02*
X151047268Y-58940771D01*
X151047268Y-58940771D02*
X151142506Y-58893152D01*
X151142506Y-58893152D02*
X151285363Y-58893152D01*
X151285363Y-58893152D02*
X151380601Y-58940771D01*
X151380601Y-58940771D02*
X151428220Y-58988390D01*
X150666315Y-58893152D02*
X150285363Y-58893152D01*
X150523458Y-58559819D02*
X150523458Y-59416961D01*
X150523458Y-59416961D02*
X150475839Y-59512200D01*
X150475839Y-59512200D02*
X150380601Y-59559819D01*
X150380601Y-59559819D02*
X150285363Y-59559819D01*
X150094886Y-58893152D02*
X149713934Y-58893152D01*
X149952029Y-58559819D02*
X149952029Y-59416961D01*
X149952029Y-59416961D02*
X149904410Y-59512200D01*
X149904410Y-59512200D02*
X149809172Y-59559819D01*
X149809172Y-59559819D02*
X149713934Y-59559819D01*
X149380600Y-58893152D02*
X149380600Y-59893152D01*
X149380600Y-58940771D02*
X149285362Y-58893152D01*
X149285362Y-58893152D02*
X149094886Y-58893152D01*
X149094886Y-58893152D02*
X148999648Y-58940771D01*
X148999648Y-58940771D02*
X148952029Y-58988390D01*
X148952029Y-58988390D02*
X148904410Y-59083628D01*
X148904410Y-59083628D02*
X148904410Y-59369342D01*
X148904410Y-59369342D02*
X148952029Y-59464580D01*
X148952029Y-59464580D02*
X148999648Y-59512200D01*
X148999648Y-59512200D02*
X149094886Y-59559819D01*
X149094886Y-59559819D02*
X149285362Y-59559819D01*
X149285362Y-59559819D02*
X149380600Y-59512200D01*
X148523457Y-59512200D02*
X148428219Y-59559819D01*
X148428219Y-59559819D02*
X148237743Y-59559819D01*
X148237743Y-59559819D02*
X148142505Y-59512200D01*
X148142505Y-59512200D02*
X148094886Y-59416961D01*
X148094886Y-59416961D02*
X148094886Y-59369342D01*
X148094886Y-59369342D02*
X148142505Y-59274104D01*
X148142505Y-59274104D02*
X148237743Y-59226485D01*
X148237743Y-59226485D02*
X148380600Y-59226485D01*
X148380600Y-59226485D02*
X148475838Y-59178866D01*
X148475838Y-59178866D02*
X148523457Y-59083628D01*
X148523457Y-59083628D02*
X148523457Y-59036009D01*
X148523457Y-59036009D02*
X148475838Y-58940771D01*
X148475838Y-58940771D02*
X148380600Y-58893152D01*
X148380600Y-58893152D02*
X148237743Y-58893152D01*
X148237743Y-58893152D02*
X148142505Y-58940771D01*
X147666314Y-59464580D02*
X147618695Y-59512200D01*
X147618695Y-59512200D02*
X147666314Y-59559819D01*
X147666314Y-59559819D02*
X147713933Y-59512200D01*
X147713933Y-59512200D02*
X147666314Y-59464580D01*
X147666314Y-59464580D02*
X147666314Y-59559819D01*
X147666314Y-58940771D02*
X147618695Y-58988390D01*
X147618695Y-58988390D02*
X147666314Y-59036009D01*
X147666314Y-59036009D02*
X147713933Y-58988390D01*
X147713933Y-58988390D02*
X147666314Y-58940771D01*
X147666314Y-58940771D02*
X147666314Y-59036009D01*
X146475839Y-58512200D02*
X147332981Y-59797914D01*
X145428220Y-58512200D02*
X146285362Y-59797914D01*
X145094886Y-58893152D02*
X145094886Y-59750295D01*
X145094886Y-59750295D02*
X145142505Y-59845533D01*
X145142505Y-59845533D02*
X145237743Y-59893152D01*
X145237743Y-59893152D02*
X145285362Y-59893152D01*
X145094886Y-58559819D02*
X145142505Y-58607438D01*
X145142505Y-58607438D02*
X145094886Y-58655057D01*
X145094886Y-58655057D02*
X145047267Y-58607438D01*
X145047267Y-58607438D02*
X145094886Y-58559819D01*
X145094886Y-58559819D02*
X145094886Y-58655057D01*
X144618696Y-59559819D02*
X144618696Y-58559819D01*
X144190125Y-59559819D02*
X144190125Y-59036009D01*
X144190125Y-59036009D02*
X144237744Y-58940771D01*
X144237744Y-58940771D02*
X144332982Y-58893152D01*
X144332982Y-58893152D02*
X144475839Y-58893152D01*
X144475839Y-58893152D02*
X144571077Y-58940771D01*
X144571077Y-58940771D02*
X144618696Y-58988390D01*
X143761553Y-59512200D02*
X143666315Y-59559819D01*
X143666315Y-59559819D02*
X143475839Y-59559819D01*
X143475839Y-59559819D02*
X143380601Y-59512200D01*
X143380601Y-59512200D02*
X143332982Y-59416961D01*
X143332982Y-59416961D02*
X143332982Y-59369342D01*
X143332982Y-59369342D02*
X143380601Y-59274104D01*
X143380601Y-59274104D02*
X143475839Y-59226485D01*
X143475839Y-59226485D02*
X143618696Y-59226485D01*
X143618696Y-59226485D02*
X143713934Y-59178866D01*
X143713934Y-59178866D02*
X143761553Y-59083628D01*
X143761553Y-59083628D02*
X143761553Y-59036009D01*
X143761553Y-59036009D02*
X143713934Y-58940771D01*
X143713934Y-58940771D02*
X143618696Y-58893152D01*
X143618696Y-58893152D02*
X143475839Y-58893152D01*
X143475839Y-58893152D02*
X143380601Y-58940771D01*
X142761553Y-59559819D02*
X142856791Y-59512200D01*
X142856791Y-59512200D02*
X142904410Y-59464580D01*
X142904410Y-59464580D02*
X142952029Y-59369342D01*
X142952029Y-59369342D02*
X142952029Y-59083628D01*
X142952029Y-59083628D02*
X142904410Y-58988390D01*
X142904410Y-58988390D02*
X142856791Y-58940771D01*
X142856791Y-58940771D02*
X142761553Y-58893152D01*
X142761553Y-58893152D02*
X142618696Y-58893152D01*
X142618696Y-58893152D02*
X142523458Y-58940771D01*
X142523458Y-58940771D02*
X142475839Y-58988390D01*
X142475839Y-58988390D02*
X142428220Y-59083628D01*
X142428220Y-59083628D02*
X142428220Y-59369342D01*
X142428220Y-59369342D02*
X142475839Y-59464580D01*
X142475839Y-59464580D02*
X142523458Y-59512200D01*
X142523458Y-59512200D02*
X142618696Y-59559819D01*
X142618696Y-59559819D02*
X142761553Y-59559819D01*
X141999648Y-58893152D02*
X141999648Y-59559819D01*
X141999648Y-58988390D02*
X141952029Y-58940771D01*
X141952029Y-58940771D02*
X141856791Y-58893152D01*
X141856791Y-58893152D02*
X141713934Y-58893152D01*
X141713934Y-58893152D02*
X141618696Y-58940771D01*
X141618696Y-58940771D02*
X141571077Y-59036009D01*
X141571077Y-59036009D02*
X141571077Y-59559819D01*
X141094886Y-59464580D02*
X141047267Y-59512200D01*
X141047267Y-59512200D02*
X141094886Y-59559819D01*
X141094886Y-59559819D02*
X141142505Y-59512200D01*
X141142505Y-59512200D02*
X141094886Y-59464580D01*
X141094886Y-59464580D02*
X141094886Y-59559819D01*
X140190125Y-59559819D02*
X140190125Y-58559819D01*
X140190125Y-59512200D02*
X140285363Y-59559819D01*
X140285363Y-59559819D02*
X140475839Y-59559819D01*
X140475839Y-59559819D02*
X140571077Y-59512200D01*
X140571077Y-59512200D02*
X140618696Y-59464580D01*
X140618696Y-59464580D02*
X140666315Y-59369342D01*
X140666315Y-59369342D02*
X140666315Y-59083628D01*
X140666315Y-59083628D02*
X140618696Y-58988390D01*
X140618696Y-58988390D02*
X140571077Y-58940771D01*
X140571077Y-58940771D02*
X140475839Y-58893152D01*
X140475839Y-58893152D02*
X140285363Y-58893152D01*
X140285363Y-58893152D02*
X140190125Y-58940771D01*
X139332982Y-59512200D02*
X139428220Y-59559819D01*
X139428220Y-59559819D02*
X139618696Y-59559819D01*
X139618696Y-59559819D02*
X139713934Y-59512200D01*
X139713934Y-59512200D02*
X139761553Y-59416961D01*
X139761553Y-59416961D02*
X139761553Y-59036009D01*
X139761553Y-59036009D02*
X139713934Y-58940771D01*
X139713934Y-58940771D02*
X139618696Y-58893152D01*
X139618696Y-58893152D02*
X139428220Y-58893152D01*
X139428220Y-58893152D02*
X139332982Y-58940771D01*
X139332982Y-58940771D02*
X139285363Y-59036009D01*
X139285363Y-59036009D02*
X139285363Y-59131247D01*
X139285363Y-59131247D02*
X139761553Y-59226485D01*
X138952029Y-58893152D02*
X138713934Y-59559819D01*
X138713934Y-59559819D02*
X138475839Y-58893152D01*
D11*
X154277568Y-123137237D02*
X153007568Y-123137237D01*
X154156615Y-124467714D02*
X154217092Y-124407238D01*
X154217092Y-124407238D02*
X154277568Y-124225809D01*
X154277568Y-124225809D02*
X154277568Y-124104857D01*
X154277568Y-124104857D02*
X154217092Y-123923428D01*
X154217092Y-123923428D02*
X154096139Y-123802476D01*
X154096139Y-123802476D02*
X153975187Y-123741999D01*
X153975187Y-123741999D02*
X153733282Y-123681523D01*
X153733282Y-123681523D02*
X153551853Y-123681523D01*
X153551853Y-123681523D02*
X153309949Y-123741999D01*
X153309949Y-123741999D02*
X153188996Y-123802476D01*
X153188996Y-123802476D02*
X153068044Y-123923428D01*
X153068044Y-123923428D02*
X153007568Y-124104857D01*
X153007568Y-124104857D02*
X153007568Y-124225809D01*
X153007568Y-124225809D02*
X153068044Y-124407238D01*
X153068044Y-124407238D02*
X153128520Y-124467714D01*
X153128520Y-124951523D02*
X153068044Y-125011999D01*
X153068044Y-125011999D02*
X153007568Y-125132952D01*
X153007568Y-125132952D02*
X153007568Y-125435333D01*
X153007568Y-125435333D02*
X153068044Y-125556285D01*
X153068044Y-125556285D02*
X153128520Y-125616761D01*
X153128520Y-125616761D02*
X153249472Y-125677238D01*
X153249472Y-125677238D02*
X153370425Y-125677238D01*
X153370425Y-125677238D02*
X153551853Y-125616761D01*
X153551853Y-125616761D02*
X154277568Y-124891047D01*
X154277568Y-124891047D02*
X154277568Y-125677238D01*
D10*
X154312857Y-108563580D02*
X154360476Y-108611200D01*
X154360476Y-108611200D02*
X154503333Y-108658819D01*
X154503333Y-108658819D02*
X154598571Y-108658819D01*
X154598571Y-108658819D02*
X154741428Y-108611200D01*
X154741428Y-108611200D02*
X154836666Y-108515961D01*
X154836666Y-108515961D02*
X154884285Y-108420723D01*
X154884285Y-108420723D02*
X154931904Y-108230247D01*
X154931904Y-108230247D02*
X154931904Y-108087390D01*
X154931904Y-108087390D02*
X154884285Y-107896914D01*
X154884285Y-107896914D02*
X154836666Y-107801676D01*
X154836666Y-107801676D02*
X154741428Y-107706438D01*
X154741428Y-107706438D02*
X154598571Y-107658819D01*
X154598571Y-107658819D02*
X154503333Y-107658819D01*
X154503333Y-107658819D02*
X154360476Y-107706438D01*
X154360476Y-107706438D02*
X154312857Y-107754057D01*
X153360476Y-108658819D02*
X153931904Y-108658819D01*
X153646190Y-108658819D02*
X153646190Y-107658819D01*
X153646190Y-107658819D02*
X153741428Y-107801676D01*
X153741428Y-107801676D02*
X153836666Y-107896914D01*
X153836666Y-107896914D02*
X153931904Y-107944533D01*
X152979523Y-107754057D02*
X152931904Y-107706438D01*
X152931904Y-107706438D02*
X152836666Y-107658819D01*
X152836666Y-107658819D02*
X152598571Y-107658819D01*
X152598571Y-107658819D02*
X152503333Y-107706438D01*
X152503333Y-107706438D02*
X152455714Y-107754057D01*
X152455714Y-107754057D02*
X152408095Y-107849295D01*
X152408095Y-107849295D02*
X152408095Y-107944533D01*
X152408095Y-107944533D02*
X152455714Y-108087390D01*
X152455714Y-108087390D02*
X153027142Y-108658819D01*
X153027142Y-108658819D02*
X152408095Y-108658819D01*
X156376666Y-133869580D02*
X156424285Y-133917200D01*
X156424285Y-133917200D02*
X156567142Y-133964819D01*
X156567142Y-133964819D02*
X156662380Y-133964819D01*
X156662380Y-133964819D02*
X156805237Y-133917200D01*
X156805237Y-133917200D02*
X156900475Y-133821961D01*
X156900475Y-133821961D02*
X156948094Y-133726723D01*
X156948094Y-133726723D02*
X156995713Y-133536247D01*
X156995713Y-133536247D02*
X156995713Y-133393390D01*
X156995713Y-133393390D02*
X156948094Y-133202914D01*
X156948094Y-133202914D02*
X156900475Y-133107676D01*
X156900475Y-133107676D02*
X156805237Y-133012438D01*
X156805237Y-133012438D02*
X156662380Y-132964819D01*
X156662380Y-132964819D02*
X156567142Y-132964819D01*
X156567142Y-132964819D02*
X156424285Y-133012438D01*
X156424285Y-133012438D02*
X156376666Y-133060057D01*
X155471904Y-132964819D02*
X155948094Y-132964819D01*
X155948094Y-132964819D02*
X155995713Y-133441009D01*
X155995713Y-133441009D02*
X155948094Y-133393390D01*
X155948094Y-133393390D02*
X155852856Y-133345771D01*
X155852856Y-133345771D02*
X155614761Y-133345771D01*
X155614761Y-133345771D02*
X155519523Y-133393390D01*
X155519523Y-133393390D02*
X155471904Y-133441009D01*
X155471904Y-133441009D02*
X155424285Y-133536247D01*
X155424285Y-133536247D02*
X155424285Y-133774342D01*
X155424285Y-133774342D02*
X155471904Y-133869580D01*
X155471904Y-133869580D02*
X155519523Y-133917200D01*
X155519523Y-133917200D02*
X155614761Y-133964819D01*
X155614761Y-133964819D02*
X155852856Y-133964819D01*
X155852856Y-133964819D02*
X155948094Y-133917200D01*
X155948094Y-133917200D02*
X155995713Y-133869580D01*
X153455666Y-115769580D02*
X153503285Y-115817200D01*
X153503285Y-115817200D02*
X153646142Y-115864819D01*
X153646142Y-115864819D02*
X153741380Y-115864819D01*
X153741380Y-115864819D02*
X153884237Y-115817200D01*
X153884237Y-115817200D02*
X153979475Y-115721961D01*
X153979475Y-115721961D02*
X154027094Y-115626723D01*
X154027094Y-115626723D02*
X154074713Y-115436247D01*
X154074713Y-115436247D02*
X154074713Y-115293390D01*
X154074713Y-115293390D02*
X154027094Y-115102914D01*
X154027094Y-115102914D02*
X153979475Y-115007676D01*
X153979475Y-115007676D02*
X153884237Y-114912438D01*
X153884237Y-114912438D02*
X153741380Y-114864819D01*
X153741380Y-114864819D02*
X153646142Y-114864819D01*
X153646142Y-114864819D02*
X153503285Y-114912438D01*
X153503285Y-114912438D02*
X153455666Y-114960057D01*
X152503285Y-115864819D02*
X153074713Y-115864819D01*
X152788999Y-115864819D02*
X152788999Y-114864819D01*
X152788999Y-114864819D02*
X152884237Y-115007676D01*
X152884237Y-115007676D02*
X152979475Y-115102914D01*
X152979475Y-115102914D02*
X153074713Y-115150533D01*
X151606190Y-106078628D02*
X151606190Y-106554819D01*
X151939523Y-105554819D02*
X151606190Y-106078628D01*
X151606190Y-106078628D02*
X151272857Y-105554819D01*
X150987142Y-105650057D02*
X150939523Y-105602438D01*
X150939523Y-105602438D02*
X150844285Y-105554819D01*
X150844285Y-105554819D02*
X150606190Y-105554819D01*
X150606190Y-105554819D02*
X150510952Y-105602438D01*
X150510952Y-105602438D02*
X150463333Y-105650057D01*
X150463333Y-105650057D02*
X150415714Y-105745295D01*
X150415714Y-105745295D02*
X150415714Y-105840533D01*
X150415714Y-105840533D02*
X150463333Y-105983390D01*
X150463333Y-105983390D02*
X151034761Y-106554819D01*
X151034761Y-106554819D02*
X150415714Y-106554819D01*
X154312857Y-95449580D02*
X154360476Y-95497200D01*
X154360476Y-95497200D02*
X154503333Y-95544819D01*
X154503333Y-95544819D02*
X154598571Y-95544819D01*
X154598571Y-95544819D02*
X154741428Y-95497200D01*
X154741428Y-95497200D02*
X154836666Y-95401961D01*
X154836666Y-95401961D02*
X154884285Y-95306723D01*
X154884285Y-95306723D02*
X154931904Y-95116247D01*
X154931904Y-95116247D02*
X154931904Y-94973390D01*
X154931904Y-94973390D02*
X154884285Y-94782914D01*
X154884285Y-94782914D02*
X154836666Y-94687676D01*
X154836666Y-94687676D02*
X154741428Y-94592438D01*
X154741428Y-94592438D02*
X154598571Y-94544819D01*
X154598571Y-94544819D02*
X154503333Y-94544819D01*
X154503333Y-94544819D02*
X154360476Y-94592438D01*
X154360476Y-94592438D02*
X154312857Y-94640057D01*
X153360476Y-95544819D02*
X153931904Y-95544819D01*
X153646190Y-95544819D02*
X153646190Y-94544819D01*
X153646190Y-94544819D02*
X153741428Y-94687676D01*
X153741428Y-94687676D02*
X153836666Y-94782914D01*
X153836666Y-94782914D02*
X153931904Y-94830533D01*
X152408095Y-95544819D02*
X152979523Y-95544819D01*
X152693809Y-95544819D02*
X152693809Y-94544819D01*
X152693809Y-94544819D02*
X152789047Y-94687676D01*
X152789047Y-94687676D02*
X152884285Y-94782914D01*
X152884285Y-94782914D02*
X152979523Y-94830533D01*
D12*
%TO.C,IC2*%
X148603250Y-122077000D02*
X148603250Y-126677000D01*
X148603250Y-126677000D02*
X158803250Y-126677000D01*
X158803250Y-126677000D02*
X158803250Y-122077000D01*
X158803250Y-122077000D02*
X148603250Y-122077000D01*
X148903250Y-120002000D02*
X148903250Y-121727000D01*
D13*
%TO.C,C12*%
X153816267Y-107190000D02*
X153523733Y-107190000D01*
X153816267Y-106170000D02*
X153523733Y-106170000D01*
%TO.C,C5*%
X156063733Y-131570000D02*
X156356267Y-131570000D01*
X156063733Y-132590000D02*
X156356267Y-132590000D01*
%TO.C,C1*%
X153435267Y-117350000D02*
X153142733Y-117350000D01*
X153435267Y-116330000D02*
X153142733Y-116330000D01*
%TO.C,Y2*%
X146930000Y-99800000D02*
X146930000Y-101100000D01*
X146930000Y-99800000D02*
X147400000Y-99800000D01*
X146930000Y-102100000D02*
X146930000Y-103400000D01*
X146930000Y-103400000D02*
X147400000Y-103400000D01*
X149230000Y-103400000D02*
X153030000Y-103400000D01*
X153030000Y-99800000D02*
X149230000Y-99800000D01*
X154860000Y-103400000D02*
X155330000Y-103400000D01*
X155330000Y-99800000D02*
X154860000Y-99800000D01*
X155330000Y-103400000D02*
X155330000Y-99800000D01*
X146930000Y-102100000D02*
G75*
G03*
X146930000Y-101100000I0J500000D01*
G01*
%TO.C,C11*%
X153816267Y-97030000D02*
X153523733Y-97030000D01*
X153816267Y-96010000D02*
X153523733Y-96010000D01*
%TD*%
M02*
