%TF.GenerationSoftware,KiCad,Pcbnew,7.0.9*%
%TF.CreationDate,2023-12-16T19:18:54+09:00*%
%TF.ProjectId,STM32F405_dev_board,53544d33-3246-4343-9035-5f6465765f62,1.0.0*%
%TF.SameCoordinates,Original*%
%TF.FileFunction,Drillmap*%
%TF.FilePolarity,Positive*%
%FSLAX45Y45*%
G04 Gerber Fmt 4.5, Leading zero omitted, Abs format (unit mm)*
G04 Created by KiCad (PCBNEW 7.0.9) date 2023-12-16 19:18:54*
%MOMM*%
%LPD*%
G01*
G04 APERTURE LIST*
%ADD10C,0.100000*%
%ADD11C,0.200000*%
%ADD12C,0.171000*%
%ADD13C,0.220000*%
G04 APERTURE END LIST*
D10*
X16510000Y-5973000D02*
G75*
G03*
X16310000Y-5773000I-200000J0D01*
G01*
X12773000Y-5773000D02*
G75*
G03*
X12573000Y-5973000I0J-200000D01*
G01*
X16310000Y-14155000D02*
X12773000Y-14155000D01*
X16510000Y-5973000D02*
X16510000Y-13955000D01*
X12573000Y-13955000D02*
G75*
G03*
X12773000Y-14155000I200000J0D01*
G01*
X16310000Y-14155000D02*
G75*
G03*
X16510000Y-13955000I0J200000D01*
G01*
X12573000Y-13955000D02*
X12573000Y-5973000D01*
X12773000Y-5773000D02*
X16310000Y-5773000D01*
D11*
D10*
X13188000Y-12430950D02*
X13228000Y-12470950D01*
X13228000Y-12430950D02*
X13188000Y-12470950D01*
X13264200Y-12235500D02*
X13304200Y-12275500D01*
X13304200Y-12235500D02*
X13264200Y-12275500D01*
X13315000Y-10140000D02*
X13355000Y-10180000D01*
X13355000Y-10140000D02*
X13315000Y-10180000D01*
X13375960Y-11961180D02*
X13415960Y-12001180D01*
X13415960Y-11961180D02*
X13375960Y-12001180D01*
X13414550Y-10267000D02*
X13454550Y-10307000D01*
X13454550Y-10267000D02*
X13414550Y-10307000D01*
X13552270Y-9775730D02*
X13592270Y-9815730D01*
X13592270Y-9775730D02*
X13552270Y-9815730D01*
X13696000Y-8674000D02*
X13736000Y-8714000D01*
X13736000Y-8674000D02*
X13696000Y-8714000D01*
X13696000Y-11214000D02*
X13736000Y-11254000D01*
X13736000Y-11214000D02*
X13696000Y-11254000D01*
X13726480Y-10368600D02*
X13766480Y-10408600D01*
X13766480Y-10368600D02*
X13726480Y-10408600D01*
X13823000Y-8362000D02*
X13863000Y-8402000D01*
X13863000Y-8362000D02*
X13823000Y-8402000D01*
X13823000Y-10706000D02*
X13863000Y-10746000D01*
X13863000Y-10706000D02*
X13823000Y-10746000D01*
X13901027Y-10643535D02*
X13941027Y-10683535D01*
X13941027Y-10643535D02*
X13901027Y-10683535D01*
X13950000Y-7658000D02*
X13990000Y-7698000D01*
X13990000Y-7658000D02*
X13950000Y-7698000D01*
X13950000Y-8362000D02*
X13990000Y-8402000D01*
X13990000Y-8362000D02*
X13950000Y-8402000D01*
X13950000Y-9124000D02*
X13990000Y-9164000D01*
X13990000Y-9124000D02*
X13950000Y-9164000D01*
X14077000Y-10071000D02*
X14117000Y-10111000D01*
X14117000Y-10071000D02*
X14077000Y-10111000D01*
X14200500Y-11727500D02*
X14240500Y-11767500D01*
X14240500Y-11727500D02*
X14200500Y-11767500D01*
X14201837Y-11336201D02*
X14241837Y-11376201D01*
X14241837Y-11336201D02*
X14201837Y-11376201D01*
X14204000Y-8235000D02*
X14244000Y-8275000D01*
X14244000Y-8235000D02*
X14204000Y-8275000D01*
X14204000Y-9759000D02*
X14244000Y-9799000D01*
X14244000Y-9759000D02*
X14204000Y-9799000D01*
X14204000Y-10198000D02*
X14244000Y-10238000D01*
X14244000Y-10198000D02*
X14204000Y-10238000D01*
X14204000Y-11087000D02*
X14244000Y-11127000D01*
X14244000Y-11087000D02*
X14204000Y-11127000D01*
X14204000Y-12299000D02*
X14244000Y-12339000D01*
X14244000Y-12299000D02*
X14204000Y-12339000D01*
X14204000Y-13124500D02*
X14244000Y-13164500D01*
X14244000Y-13124500D02*
X14204000Y-13164500D01*
X14331000Y-8420000D02*
X14371000Y-8460000D01*
X14371000Y-8420000D02*
X14331000Y-8460000D01*
X14331000Y-10325000D02*
X14371000Y-10365000D01*
X14371000Y-10325000D02*
X14331000Y-10365000D01*
X14331000Y-10960000D02*
X14371000Y-11000000D01*
X14371000Y-10960000D02*
X14331000Y-11000000D01*
X14331000Y-11727500D02*
X14371000Y-11767500D01*
X14371000Y-11727500D02*
X14331000Y-11767500D01*
X14331000Y-12172000D02*
X14371000Y-12212000D01*
X14371000Y-12172000D02*
X14331000Y-12212000D01*
X14331000Y-13175300D02*
X14371000Y-13215300D01*
X14371000Y-13175300D02*
X14331000Y-13215300D01*
X14402120Y-11542080D02*
X14442120Y-11582080D01*
X14442120Y-11542080D02*
X14402120Y-11582080D01*
X14432600Y-12375200D02*
X14472600Y-12415200D01*
X14472600Y-12375200D02*
X14432600Y-12415200D01*
X14434605Y-7966596D02*
X14474605Y-8006596D01*
X14474605Y-7966596D02*
X14434605Y-8006596D01*
X14458000Y-10013000D02*
X14498000Y-10053000D01*
X14498000Y-10013000D02*
X14458000Y-10053000D01*
X14458000Y-10325000D02*
X14498000Y-10365000D01*
X14498000Y-10325000D02*
X14458000Y-10365000D01*
X14458000Y-12172000D02*
X14498000Y-12212000D01*
X14498000Y-12172000D02*
X14458000Y-12212000D01*
X14472950Y-12072050D02*
X14512950Y-12112050D01*
X14512950Y-12072050D02*
X14472950Y-12112050D01*
X14508800Y-12476800D02*
X14548800Y-12516800D01*
X14548800Y-12476800D02*
X14508800Y-12516800D01*
X14560501Y-12298115D02*
X14600501Y-12338115D01*
X14600501Y-12298115D02*
X14560501Y-12338115D01*
X14585000Y-10325000D02*
X14625000Y-10365000D01*
X14625000Y-10325000D02*
X14585000Y-10365000D01*
X14684256Y-12193265D02*
X14724256Y-12233265D01*
X14724256Y-12193265D02*
X14684256Y-12233265D01*
X14699765Y-12311235D02*
X14739765Y-12351235D01*
X14739765Y-12311235D02*
X14699765Y-12351235D01*
X14712000Y-8166000D02*
X14752000Y-8206000D01*
X14752000Y-8166000D02*
X14712000Y-8206000D01*
X14712000Y-9505000D02*
X14752000Y-9545000D01*
X14752000Y-9505000D02*
X14712000Y-9545000D01*
X14712000Y-11283000D02*
X14752000Y-11323000D01*
X14752000Y-11283000D02*
X14712000Y-11323000D01*
X14839000Y-9378000D02*
X14879000Y-9418000D01*
X14879000Y-9378000D02*
X14839000Y-9418000D01*
X14839000Y-11283000D02*
X14879000Y-11323000D01*
X14879000Y-11283000D02*
X14839000Y-11323000D01*
X14839000Y-11410000D02*
X14879000Y-11450000D01*
X14879000Y-11410000D02*
X14839000Y-11450000D01*
X14839000Y-13149900D02*
X14879000Y-13189900D01*
X14879000Y-13149900D02*
X14839000Y-13189900D01*
X14966000Y-10140000D02*
X15006000Y-10180000D01*
X15006000Y-10140000D02*
X14966000Y-10180000D01*
X14966000Y-10579000D02*
X15006000Y-10619000D01*
X15006000Y-10579000D02*
X14966000Y-10619000D01*
X15001560Y-11905300D02*
X15041560Y-11945300D01*
X15041560Y-11905300D02*
X15001560Y-11945300D01*
X15004100Y-13188000D02*
X15044100Y-13228000D01*
X15044100Y-13188000D02*
X15004100Y-13228000D01*
X15052360Y-10734360D02*
X15092360Y-10774360D01*
X15092360Y-10734360D02*
X15052360Y-10774360D01*
X15093000Y-10579000D02*
X15133000Y-10619000D01*
X15133000Y-10579000D02*
X15093000Y-10619000D01*
X15105700Y-11879900D02*
X15145700Y-11919900D01*
X15145700Y-11879900D02*
X15105700Y-11919900D01*
X15165450Y-9378000D02*
X15205450Y-9418000D01*
X15205450Y-9378000D02*
X15165450Y-9418000D01*
X15220000Y-9251000D02*
X15260000Y-9291000D01*
X15260000Y-9251000D02*
X15220000Y-9291000D01*
X15223407Y-10475322D02*
X15263407Y-10515322D01*
X15263407Y-10475322D02*
X15223407Y-10515322D01*
X15347000Y-13188000D02*
X15387000Y-13228000D01*
X15387000Y-13188000D02*
X15347000Y-13228000D01*
X15390912Y-10939511D02*
X15430912Y-10979511D01*
X15430912Y-10939511D02*
X15390912Y-10979511D01*
X15473570Y-12958970D02*
X15513570Y-12998970D01*
X15513570Y-12958970D02*
X15473570Y-12998970D01*
X15474000Y-8547000D02*
X15514000Y-8587000D01*
X15514000Y-8547000D02*
X15474000Y-8587000D01*
X15474000Y-11849000D02*
X15514000Y-11889000D01*
X15514000Y-11849000D02*
X15474000Y-11889000D01*
X15601000Y-11849000D02*
X15641000Y-11889000D01*
X15641000Y-11849000D02*
X15601000Y-11889000D01*
X15601000Y-12484000D02*
X15641000Y-12524000D01*
X15641000Y-12484000D02*
X15601000Y-12524000D01*
X15728000Y-9632000D02*
X15768000Y-9672000D01*
X15768000Y-9632000D02*
X15728000Y-9672000D01*
X15728000Y-9759000D02*
X15768000Y-9799000D01*
X15768000Y-9759000D02*
X15728000Y-9799000D01*
X15766100Y-13340400D02*
X15806100Y-13380400D01*
X15806100Y-13340400D02*
X15766100Y-13380400D01*
X15782550Y-12984800D02*
X15822550Y-13024800D01*
X15822550Y-12984800D02*
X15782550Y-13024800D01*
X13756000Y-12382500D02*
G75*
G03*
X13756000Y-12382500I-40000J0D01*
G01*
X13756000Y-12636500D02*
G75*
G03*
X13756000Y-12636500I-40000J0D01*
G01*
X13756000Y-12890500D02*
G75*
G03*
X13756000Y-12890500I-40000J0D01*
G01*
X14010000Y-12382500D02*
G75*
G03*
X14010000Y-12382500I-40000J0D01*
G01*
X14010000Y-12636500D02*
G75*
G03*
X14010000Y-12636500I-40000J0D01*
G01*
X14010000Y-12890500D02*
G75*
G03*
X14010000Y-12890500I-40000J0D01*
G01*
X14407000Y-8948000D02*
G75*
G03*
X14407000Y-8948000I-40000J0D01*
G01*
X14895000Y-8948000D02*
G75*
G03*
X14895000Y-8948000I-40000J0D01*
G01*
X12954000Y-8009000D02*
X12954000Y-8109000D01*
X12904000Y-8059000D02*
X13004000Y-8059000D01*
X12954000Y-8263000D02*
X12954000Y-8363000D01*
X12904000Y-8313000D02*
X13004000Y-8313000D01*
X12954000Y-8517000D02*
X12954000Y-8617000D01*
X12904000Y-8567000D02*
X13004000Y-8567000D01*
X12954000Y-8771000D02*
X12954000Y-8871000D01*
X12904000Y-8821000D02*
X13004000Y-8821000D01*
X12954000Y-9025000D02*
X12954000Y-9125000D01*
X12904000Y-9075000D02*
X13004000Y-9075000D01*
X12954000Y-9279000D02*
X12954000Y-9379000D01*
X12904000Y-9329000D02*
X13004000Y-9329000D01*
X12954000Y-9533000D02*
X12954000Y-9633000D01*
X12904000Y-9583000D02*
X13004000Y-9583000D01*
X12954000Y-9787000D02*
X12954000Y-9887000D01*
X12904000Y-9837000D02*
X13004000Y-9837000D01*
X12954000Y-10041000D02*
X12954000Y-10141000D01*
X12904000Y-10091000D02*
X13004000Y-10091000D01*
X12954000Y-10295000D02*
X12954000Y-10395000D01*
X12904000Y-10345000D02*
X13004000Y-10345000D01*
X12954000Y-10549000D02*
X12954000Y-10649000D01*
X12904000Y-10599000D02*
X13004000Y-10599000D01*
X12954000Y-10803000D02*
X12954000Y-10903000D01*
X12904000Y-10853000D02*
X13004000Y-10853000D01*
X12954000Y-11057000D02*
X12954000Y-11157000D01*
X12904000Y-11107000D02*
X13004000Y-11107000D01*
X12954000Y-11311000D02*
X12954000Y-11411000D01*
X12904000Y-11361000D02*
X13004000Y-11361000D01*
X12954000Y-11565000D02*
X12954000Y-11665000D01*
X12904000Y-11615000D02*
X13004000Y-11615000D01*
X12954000Y-11819000D02*
X12954000Y-11919000D01*
X12904000Y-11869000D02*
X13004000Y-11869000D01*
X12954000Y-12073000D02*
X12954000Y-12173000D01*
X12904000Y-12123000D02*
X13004000Y-12123000D01*
X12954000Y-12327000D02*
X12954000Y-12427000D01*
X12904000Y-12377000D02*
X13004000Y-12377000D01*
X12954000Y-12581000D02*
X12954000Y-12681000D01*
X12904000Y-12631000D02*
X13004000Y-12631000D01*
X12954000Y-12835000D02*
X12954000Y-12935000D01*
X12904000Y-12885000D02*
X13004000Y-12885000D01*
X13398500Y-6617500D02*
X13398500Y-6717500D01*
X13348500Y-6667500D02*
X13448500Y-6667500D01*
X13398500Y-6871500D02*
X13398500Y-6971500D01*
X13348500Y-6921500D02*
X13448500Y-6921500D01*
X13652500Y-6617500D02*
X13652500Y-6717500D01*
X13602500Y-6667500D02*
X13702500Y-6667500D01*
X13652500Y-6871500D02*
X13652500Y-6971500D01*
X13602500Y-6921500D02*
X13702500Y-6921500D01*
X13906500Y-6617500D02*
X13906500Y-6717500D01*
X13856500Y-6667500D02*
X13956500Y-6667500D01*
X13906500Y-6871500D02*
X13906500Y-6971500D01*
X13856500Y-6921500D02*
X13956500Y-6921500D01*
X14160500Y-6617500D02*
X14160500Y-6717500D01*
X14110500Y-6667500D02*
X14210500Y-6667500D01*
X14160500Y-6871500D02*
X14160500Y-6971500D01*
X14110500Y-6921500D02*
X14210500Y-6921500D01*
X14414500Y-6617500D02*
X14414500Y-6717500D01*
X14364500Y-6667500D02*
X14464500Y-6667500D01*
X14414500Y-6871500D02*
X14414500Y-6971500D01*
X14364500Y-6921500D02*
X14464500Y-6921500D01*
X14668500Y-6617500D02*
X14668500Y-6717500D01*
X14618500Y-6667500D02*
X14718500Y-6667500D01*
X14668500Y-6871500D02*
X14668500Y-6971500D01*
X14618500Y-6921500D02*
X14718500Y-6921500D01*
X14922500Y-6617500D02*
X14922500Y-6717500D01*
X14872500Y-6667500D02*
X14972500Y-6667500D01*
X14922500Y-6871500D02*
X14922500Y-6971500D01*
X14872500Y-6921500D02*
X14972500Y-6921500D01*
X15176500Y-6617500D02*
X15176500Y-6717500D01*
X15126500Y-6667500D02*
X15226500Y-6667500D01*
X15176500Y-6871500D02*
X15176500Y-6971500D01*
X15126500Y-6921500D02*
X15226500Y-6921500D01*
X15430500Y-6617500D02*
X15430500Y-6717500D01*
X15380500Y-6667500D02*
X15480500Y-6667500D01*
X15430500Y-6871500D02*
X15430500Y-6971500D01*
X15380500Y-6921500D02*
X15480500Y-6921500D01*
X15684500Y-6617500D02*
X15684500Y-6717500D01*
X15634500Y-6667500D02*
X15734500Y-6667500D01*
X15684500Y-6871500D02*
X15684500Y-6971500D01*
X15634500Y-6921500D02*
X15734500Y-6921500D01*
X16129000Y-8009000D02*
X16129000Y-8109000D01*
X16079000Y-8059000D02*
X16179000Y-8059000D01*
X16129000Y-8263000D02*
X16129000Y-8363000D01*
X16079000Y-8313000D02*
X16179000Y-8313000D01*
X16129000Y-8517000D02*
X16129000Y-8617000D01*
X16079000Y-8567000D02*
X16179000Y-8567000D01*
X16129000Y-8771000D02*
X16129000Y-8871000D01*
X16079000Y-8821000D02*
X16179000Y-8821000D01*
X16129000Y-9025000D02*
X16129000Y-9125000D01*
X16079000Y-9075000D02*
X16179000Y-9075000D01*
X16129000Y-9279000D02*
X16129000Y-9379000D01*
X16079000Y-9329000D02*
X16179000Y-9329000D01*
X16129000Y-9533000D02*
X16129000Y-9633000D01*
X16079000Y-9583000D02*
X16179000Y-9583000D01*
X16129000Y-9787000D02*
X16129000Y-9887000D01*
X16079000Y-9837000D02*
X16179000Y-9837000D01*
X16129000Y-10041000D02*
X16129000Y-10141000D01*
X16079000Y-10091000D02*
X16179000Y-10091000D01*
X16129000Y-10295000D02*
X16129000Y-10395000D01*
X16079000Y-10345000D02*
X16179000Y-10345000D01*
X16129000Y-10549000D02*
X16129000Y-10649000D01*
X16079000Y-10599000D02*
X16179000Y-10599000D01*
X16129000Y-10803000D02*
X16129000Y-10903000D01*
X16079000Y-10853000D02*
X16179000Y-10853000D01*
X16129000Y-11057000D02*
X16129000Y-11157000D01*
X16079000Y-11107000D02*
X16179000Y-11107000D01*
X16129000Y-11311000D02*
X16129000Y-11411000D01*
X16079000Y-11361000D02*
X16179000Y-11361000D01*
X16129000Y-11565000D02*
X16129000Y-11665000D01*
X16079000Y-11615000D02*
X16179000Y-11615000D01*
X16129000Y-11819000D02*
X16129000Y-11919000D01*
X16079000Y-11869000D02*
X16179000Y-11869000D01*
X16129000Y-12073000D02*
X16129000Y-12173000D01*
X16079000Y-12123000D02*
X16179000Y-12123000D01*
X16129000Y-12327000D02*
X16129000Y-12427000D01*
X16079000Y-12377000D02*
X16179000Y-12377000D01*
X16129000Y-12581000D02*
X16129000Y-12681000D01*
X16079000Y-12631000D02*
X16179000Y-12631000D01*
X16129000Y-12835000D02*
X16129000Y-12935000D01*
X16079000Y-12885000D02*
X16179000Y-12885000D01*
D12*
X14175258Y-13466158D02*
X14175258Y-13345242D01*
X14054342Y-13345242D01*
X14054342Y-13466158D01*
X14175258Y-13466158D01*
X14175258Y-13916158D02*
X14175258Y-13795242D01*
X14054342Y-13795242D01*
X14054342Y-13916158D01*
X14175258Y-13916158D01*
X15097258Y-13466158D02*
X15097258Y-13345242D01*
X14976342Y-13345242D01*
X14976342Y-13466158D01*
X15097258Y-13466158D01*
X15097258Y-13916158D02*
X15097258Y-13795242D01*
X14976342Y-13795242D01*
X14976342Y-13916158D01*
X15097258Y-13916158D01*
D13*
X12827000Y-6137000D02*
X12937000Y-6027000D01*
X12827000Y-5917000D01*
X12717000Y-6027000D01*
X12827000Y-6137000D01*
X12828591Y-14015335D02*
X12938591Y-13905335D01*
X12828591Y-13795335D01*
X12718591Y-13905335D01*
X12828591Y-14015335D01*
X16256000Y-6137000D02*
X16366000Y-6027000D01*
X16256000Y-5917000D01*
X16146000Y-6027000D01*
X16256000Y-6137000D01*
X16256000Y-14011000D02*
X16366000Y-13901000D01*
X16256000Y-13791000D01*
X16146000Y-13901000D01*
X16256000Y-14011000D01*
D11*
X12828777Y-14471484D02*
X12828777Y-14271484D01*
X12828777Y-14271484D02*
X12876396Y-14271484D01*
X12876396Y-14271484D02*
X12904967Y-14281008D01*
X12904967Y-14281008D02*
X12924015Y-14300055D01*
X12924015Y-14300055D02*
X12933539Y-14319103D01*
X12933539Y-14319103D02*
X12943062Y-14357198D01*
X12943062Y-14357198D02*
X12943062Y-14385769D01*
X12943062Y-14385769D02*
X12933539Y-14423865D01*
X12933539Y-14423865D02*
X12924015Y-14442912D01*
X12924015Y-14442912D02*
X12904967Y-14461960D01*
X12904967Y-14461960D02*
X12876396Y-14471484D01*
X12876396Y-14471484D02*
X12828777Y-14471484D01*
X13028777Y-14471484D02*
X13028777Y-14338150D01*
X13028777Y-14376246D02*
X13038301Y-14357198D01*
X13038301Y-14357198D02*
X13047824Y-14347674D01*
X13047824Y-14347674D02*
X13066872Y-14338150D01*
X13066872Y-14338150D02*
X13085920Y-14338150D01*
X13152586Y-14471484D02*
X13152586Y-14338150D01*
X13152586Y-14271484D02*
X13143062Y-14281008D01*
X13143062Y-14281008D02*
X13152586Y-14290531D01*
X13152586Y-14290531D02*
X13162110Y-14281008D01*
X13162110Y-14281008D02*
X13152586Y-14271484D01*
X13152586Y-14271484D02*
X13152586Y-14290531D01*
X13276396Y-14471484D02*
X13257348Y-14461960D01*
X13257348Y-14461960D02*
X13247824Y-14442912D01*
X13247824Y-14442912D02*
X13247824Y-14271484D01*
X13381158Y-14471484D02*
X13362110Y-14461960D01*
X13362110Y-14461960D02*
X13352586Y-14442912D01*
X13352586Y-14442912D02*
X13352586Y-14271484D01*
X13609729Y-14471484D02*
X13609729Y-14271484D01*
X13609729Y-14271484D02*
X13676396Y-14414341D01*
X13676396Y-14414341D02*
X13743062Y-14271484D01*
X13743062Y-14271484D02*
X13743062Y-14471484D01*
X13924015Y-14471484D02*
X13924015Y-14366722D01*
X13924015Y-14366722D02*
X13914491Y-14347674D01*
X13914491Y-14347674D02*
X13895443Y-14338150D01*
X13895443Y-14338150D02*
X13857348Y-14338150D01*
X13857348Y-14338150D02*
X13838301Y-14347674D01*
X13924015Y-14461960D02*
X13904967Y-14471484D01*
X13904967Y-14471484D02*
X13857348Y-14471484D01*
X13857348Y-14471484D02*
X13838301Y-14461960D01*
X13838301Y-14461960D02*
X13828777Y-14442912D01*
X13828777Y-14442912D02*
X13828777Y-14423865D01*
X13828777Y-14423865D02*
X13838301Y-14404817D01*
X13838301Y-14404817D02*
X13857348Y-14395293D01*
X13857348Y-14395293D02*
X13904967Y-14395293D01*
X13904967Y-14395293D02*
X13924015Y-14385769D01*
X14019253Y-14338150D02*
X14019253Y-14538150D01*
X14019253Y-14347674D02*
X14038301Y-14338150D01*
X14038301Y-14338150D02*
X14076396Y-14338150D01*
X14076396Y-14338150D02*
X14095443Y-14347674D01*
X14095443Y-14347674D02*
X14104967Y-14357198D01*
X14104967Y-14357198D02*
X14114491Y-14376246D01*
X14114491Y-14376246D02*
X14114491Y-14433388D01*
X14114491Y-14433388D02*
X14104967Y-14452436D01*
X14104967Y-14452436D02*
X14095443Y-14461960D01*
X14095443Y-14461960D02*
X14076396Y-14471484D01*
X14076396Y-14471484D02*
X14038301Y-14471484D01*
X14038301Y-14471484D02*
X14019253Y-14461960D01*
X14200205Y-14452436D02*
X14209729Y-14461960D01*
X14209729Y-14461960D02*
X14200205Y-14471484D01*
X14200205Y-14471484D02*
X14190682Y-14461960D01*
X14190682Y-14461960D02*
X14200205Y-14452436D01*
X14200205Y-14452436D02*
X14200205Y-14471484D01*
X14200205Y-14347674D02*
X14209729Y-14357198D01*
X14209729Y-14357198D02*
X14200205Y-14366722D01*
X14200205Y-14366722D02*
X14190682Y-14357198D01*
X14190682Y-14357198D02*
X14200205Y-14347674D01*
X14200205Y-14347674D02*
X14200205Y-14366722D01*
D10*
X12528000Y-14780000D02*
X12568000Y-14820000D01*
X12568000Y-14780000D02*
X12528000Y-14820000D01*
D11*
X12866872Y-14691484D02*
X12885920Y-14691484D01*
X12885920Y-14691484D02*
X12904967Y-14701008D01*
X12904967Y-14701008D02*
X12914491Y-14710531D01*
X12914491Y-14710531D02*
X12924015Y-14729579D01*
X12924015Y-14729579D02*
X12933539Y-14767674D01*
X12933539Y-14767674D02*
X12933539Y-14815293D01*
X12933539Y-14815293D02*
X12924015Y-14853388D01*
X12924015Y-14853388D02*
X12914491Y-14872436D01*
X12914491Y-14872436D02*
X12904967Y-14881960D01*
X12904967Y-14881960D02*
X12885920Y-14891484D01*
X12885920Y-14891484D02*
X12866872Y-14891484D01*
X12866872Y-14891484D02*
X12847824Y-14881960D01*
X12847824Y-14881960D02*
X12838301Y-14872436D01*
X12838301Y-14872436D02*
X12828777Y-14853388D01*
X12828777Y-14853388D02*
X12819253Y-14815293D01*
X12819253Y-14815293D02*
X12819253Y-14767674D01*
X12819253Y-14767674D02*
X12828777Y-14729579D01*
X12828777Y-14729579D02*
X12838301Y-14710531D01*
X12838301Y-14710531D02*
X12847824Y-14701008D01*
X12847824Y-14701008D02*
X12866872Y-14691484D01*
X13019253Y-14872436D02*
X13028777Y-14881960D01*
X13028777Y-14881960D02*
X13019253Y-14891484D01*
X13019253Y-14891484D02*
X13009729Y-14881960D01*
X13009729Y-14881960D02*
X13019253Y-14872436D01*
X13019253Y-14872436D02*
X13019253Y-14891484D01*
X13200205Y-14758150D02*
X13200205Y-14891484D01*
X13152586Y-14681960D02*
X13104967Y-14824817D01*
X13104967Y-14824817D02*
X13228777Y-14824817D01*
X13343062Y-14691484D02*
X13362110Y-14691484D01*
X13362110Y-14691484D02*
X13381158Y-14701008D01*
X13381158Y-14701008D02*
X13390682Y-14710531D01*
X13390682Y-14710531D02*
X13400205Y-14729579D01*
X13400205Y-14729579D02*
X13409729Y-14767674D01*
X13409729Y-14767674D02*
X13409729Y-14815293D01*
X13409729Y-14815293D02*
X13400205Y-14853388D01*
X13400205Y-14853388D02*
X13390682Y-14872436D01*
X13390682Y-14872436D02*
X13381158Y-14881960D01*
X13381158Y-14881960D02*
X13362110Y-14891484D01*
X13362110Y-14891484D02*
X13343062Y-14891484D01*
X13343062Y-14891484D02*
X13324015Y-14881960D01*
X13324015Y-14881960D02*
X13314491Y-14872436D01*
X13314491Y-14872436D02*
X13304967Y-14853388D01*
X13304967Y-14853388D02*
X13295443Y-14815293D01*
X13295443Y-14815293D02*
X13295443Y-14767674D01*
X13295443Y-14767674D02*
X13304967Y-14729579D01*
X13304967Y-14729579D02*
X13314491Y-14710531D01*
X13314491Y-14710531D02*
X13324015Y-14701008D01*
X13324015Y-14701008D02*
X13343062Y-14691484D01*
X13533539Y-14691484D02*
X13552586Y-14691484D01*
X13552586Y-14691484D02*
X13571634Y-14701008D01*
X13571634Y-14701008D02*
X13581158Y-14710531D01*
X13581158Y-14710531D02*
X13590682Y-14729579D01*
X13590682Y-14729579D02*
X13600205Y-14767674D01*
X13600205Y-14767674D02*
X13600205Y-14815293D01*
X13600205Y-14815293D02*
X13590682Y-14853388D01*
X13590682Y-14853388D02*
X13581158Y-14872436D01*
X13581158Y-14872436D02*
X13571634Y-14881960D01*
X13571634Y-14881960D02*
X13552586Y-14891484D01*
X13552586Y-14891484D02*
X13533539Y-14891484D01*
X13533539Y-14891484D02*
X13514491Y-14881960D01*
X13514491Y-14881960D02*
X13504967Y-14872436D01*
X13504967Y-14872436D02*
X13495443Y-14853388D01*
X13495443Y-14853388D02*
X13485920Y-14815293D01*
X13485920Y-14815293D02*
X13485920Y-14767674D01*
X13485920Y-14767674D02*
X13495443Y-14729579D01*
X13495443Y-14729579D02*
X13504967Y-14710531D01*
X13504967Y-14710531D02*
X13514491Y-14701008D01*
X13514491Y-14701008D02*
X13533539Y-14691484D01*
X13685920Y-14891484D02*
X13685920Y-14758150D01*
X13685920Y-14777198D02*
X13695443Y-14767674D01*
X13695443Y-14767674D02*
X13714491Y-14758150D01*
X13714491Y-14758150D02*
X13743063Y-14758150D01*
X13743063Y-14758150D02*
X13762110Y-14767674D01*
X13762110Y-14767674D02*
X13771634Y-14786722D01*
X13771634Y-14786722D02*
X13771634Y-14891484D01*
X13771634Y-14786722D02*
X13781158Y-14767674D01*
X13781158Y-14767674D02*
X13800205Y-14758150D01*
X13800205Y-14758150D02*
X13828777Y-14758150D01*
X13828777Y-14758150D02*
X13847824Y-14767674D01*
X13847824Y-14767674D02*
X13857348Y-14786722D01*
X13857348Y-14786722D02*
X13857348Y-14891484D01*
X13952586Y-14891484D02*
X13952586Y-14758150D01*
X13952586Y-14777198D02*
X13962110Y-14767674D01*
X13962110Y-14767674D02*
X13981158Y-14758150D01*
X13981158Y-14758150D02*
X14009729Y-14758150D01*
X14009729Y-14758150D02*
X14028777Y-14767674D01*
X14028777Y-14767674D02*
X14038301Y-14786722D01*
X14038301Y-14786722D02*
X14038301Y-14891484D01*
X14038301Y-14786722D02*
X14047824Y-14767674D01*
X14047824Y-14767674D02*
X14066872Y-14758150D01*
X14066872Y-14758150D02*
X14095443Y-14758150D01*
X14095443Y-14758150D02*
X14114491Y-14767674D01*
X14114491Y-14767674D02*
X14124015Y-14786722D01*
X14124015Y-14786722D02*
X14124015Y-14891484D01*
X14514491Y-14681960D02*
X14343063Y-14939103D01*
X14771634Y-14691484D02*
X14790682Y-14691484D01*
X14790682Y-14691484D02*
X14809729Y-14701008D01*
X14809729Y-14701008D02*
X14819253Y-14710531D01*
X14819253Y-14710531D02*
X14828777Y-14729579D01*
X14828777Y-14729579D02*
X14838301Y-14767674D01*
X14838301Y-14767674D02*
X14838301Y-14815293D01*
X14838301Y-14815293D02*
X14828777Y-14853388D01*
X14828777Y-14853388D02*
X14819253Y-14872436D01*
X14819253Y-14872436D02*
X14809729Y-14881960D01*
X14809729Y-14881960D02*
X14790682Y-14891484D01*
X14790682Y-14891484D02*
X14771634Y-14891484D01*
X14771634Y-14891484D02*
X14752586Y-14881960D01*
X14752586Y-14881960D02*
X14743063Y-14872436D01*
X14743063Y-14872436D02*
X14733539Y-14853388D01*
X14733539Y-14853388D02*
X14724015Y-14815293D01*
X14724015Y-14815293D02*
X14724015Y-14767674D01*
X14724015Y-14767674D02*
X14733539Y-14729579D01*
X14733539Y-14729579D02*
X14743063Y-14710531D01*
X14743063Y-14710531D02*
X14752586Y-14701008D01*
X14752586Y-14701008D02*
X14771634Y-14691484D01*
X14924015Y-14872436D02*
X14933539Y-14881960D01*
X14933539Y-14881960D02*
X14924015Y-14891484D01*
X14924015Y-14891484D02*
X14914491Y-14881960D01*
X14914491Y-14881960D02*
X14924015Y-14872436D01*
X14924015Y-14872436D02*
X14924015Y-14891484D01*
X15057348Y-14691484D02*
X15076396Y-14691484D01*
X15076396Y-14691484D02*
X15095444Y-14701008D01*
X15095444Y-14701008D02*
X15104967Y-14710531D01*
X15104967Y-14710531D02*
X15114491Y-14729579D01*
X15114491Y-14729579D02*
X15124015Y-14767674D01*
X15124015Y-14767674D02*
X15124015Y-14815293D01*
X15124015Y-14815293D02*
X15114491Y-14853388D01*
X15114491Y-14853388D02*
X15104967Y-14872436D01*
X15104967Y-14872436D02*
X15095444Y-14881960D01*
X15095444Y-14881960D02*
X15076396Y-14891484D01*
X15076396Y-14891484D02*
X15057348Y-14891484D01*
X15057348Y-14891484D02*
X15038301Y-14881960D01*
X15038301Y-14881960D02*
X15028777Y-14872436D01*
X15028777Y-14872436D02*
X15019253Y-14853388D01*
X15019253Y-14853388D02*
X15009729Y-14815293D01*
X15009729Y-14815293D02*
X15009729Y-14767674D01*
X15009729Y-14767674D02*
X15019253Y-14729579D01*
X15019253Y-14729579D02*
X15028777Y-14710531D01*
X15028777Y-14710531D02*
X15038301Y-14701008D01*
X15038301Y-14701008D02*
X15057348Y-14691484D01*
X15314491Y-14891484D02*
X15200206Y-14891484D01*
X15257348Y-14891484D02*
X15257348Y-14691484D01*
X15257348Y-14691484D02*
X15238301Y-14720055D01*
X15238301Y-14720055D02*
X15219253Y-14739103D01*
X15219253Y-14739103D02*
X15200206Y-14748627D01*
X15495444Y-14691484D02*
X15400206Y-14691484D01*
X15400206Y-14691484D02*
X15390682Y-14786722D01*
X15390682Y-14786722D02*
X15400206Y-14777198D01*
X15400206Y-14777198D02*
X15419253Y-14767674D01*
X15419253Y-14767674D02*
X15466872Y-14767674D01*
X15466872Y-14767674D02*
X15485920Y-14777198D01*
X15485920Y-14777198D02*
X15495444Y-14786722D01*
X15495444Y-14786722D02*
X15504967Y-14805769D01*
X15504967Y-14805769D02*
X15504967Y-14853388D01*
X15504967Y-14853388D02*
X15495444Y-14872436D01*
X15495444Y-14872436D02*
X15485920Y-14881960D01*
X15485920Y-14881960D02*
X15466872Y-14891484D01*
X15466872Y-14891484D02*
X15419253Y-14891484D01*
X15419253Y-14891484D02*
X15400206Y-14881960D01*
X15400206Y-14881960D02*
X15390682Y-14872436D01*
X15571634Y-14691484D02*
X15704967Y-14691484D01*
X15704967Y-14691484D02*
X15619253Y-14891484D01*
X15771634Y-14691484D02*
X15771634Y-14729579D01*
X15847825Y-14691484D02*
X15847825Y-14729579D01*
X16143063Y-14967674D02*
X16133539Y-14958150D01*
X16133539Y-14958150D02*
X16114491Y-14929579D01*
X16114491Y-14929579D02*
X16104968Y-14910531D01*
X16104968Y-14910531D02*
X16095444Y-14881960D01*
X16095444Y-14881960D02*
X16085920Y-14834341D01*
X16085920Y-14834341D02*
X16085920Y-14796246D01*
X16085920Y-14796246D02*
X16095444Y-14748627D01*
X16095444Y-14748627D02*
X16104968Y-14720055D01*
X16104968Y-14720055D02*
X16114491Y-14701008D01*
X16114491Y-14701008D02*
X16133539Y-14672436D01*
X16133539Y-14672436D02*
X16143063Y-14662912D01*
X16200206Y-14691484D02*
X16333539Y-14691484D01*
X16333539Y-14691484D02*
X16247825Y-14891484D01*
X16447825Y-14691484D02*
X16466872Y-14691484D01*
X16466872Y-14691484D02*
X16485920Y-14701008D01*
X16485920Y-14701008D02*
X16495444Y-14710531D01*
X16495444Y-14710531D02*
X16504968Y-14729579D01*
X16504968Y-14729579D02*
X16514491Y-14767674D01*
X16514491Y-14767674D02*
X16514491Y-14815293D01*
X16514491Y-14815293D02*
X16504968Y-14853388D01*
X16504968Y-14853388D02*
X16495444Y-14872436D01*
X16495444Y-14872436D02*
X16485920Y-14881960D01*
X16485920Y-14881960D02*
X16466872Y-14891484D01*
X16466872Y-14891484D02*
X16447825Y-14891484D01*
X16447825Y-14891484D02*
X16428777Y-14881960D01*
X16428777Y-14881960D02*
X16419253Y-14872436D01*
X16419253Y-14872436D02*
X16409729Y-14853388D01*
X16409729Y-14853388D02*
X16400206Y-14815293D01*
X16400206Y-14815293D02*
X16400206Y-14767674D01*
X16400206Y-14767674D02*
X16409729Y-14729579D01*
X16409729Y-14729579D02*
X16419253Y-14710531D01*
X16419253Y-14710531D02*
X16428777Y-14701008D01*
X16428777Y-14701008D02*
X16447825Y-14691484D01*
X16752587Y-14891484D02*
X16752587Y-14691484D01*
X16838301Y-14891484D02*
X16838301Y-14786722D01*
X16838301Y-14786722D02*
X16828777Y-14767674D01*
X16828777Y-14767674D02*
X16809730Y-14758150D01*
X16809730Y-14758150D02*
X16781158Y-14758150D01*
X16781158Y-14758150D02*
X16762110Y-14767674D01*
X16762110Y-14767674D02*
X16752587Y-14777198D01*
X16962111Y-14891484D02*
X16943063Y-14881960D01*
X16943063Y-14881960D02*
X16933539Y-14872436D01*
X16933539Y-14872436D02*
X16924015Y-14853388D01*
X16924015Y-14853388D02*
X16924015Y-14796246D01*
X16924015Y-14796246D02*
X16933539Y-14777198D01*
X16933539Y-14777198D02*
X16943063Y-14767674D01*
X16943063Y-14767674D02*
X16962111Y-14758150D01*
X16962111Y-14758150D02*
X16990682Y-14758150D01*
X16990682Y-14758150D02*
X17009730Y-14767674D01*
X17009730Y-14767674D02*
X17019253Y-14777198D01*
X17019253Y-14777198D02*
X17028777Y-14796246D01*
X17028777Y-14796246D02*
X17028777Y-14853388D01*
X17028777Y-14853388D02*
X17019253Y-14872436D01*
X17019253Y-14872436D02*
X17009730Y-14881960D01*
X17009730Y-14881960D02*
X16990682Y-14891484D01*
X16990682Y-14891484D02*
X16962111Y-14891484D01*
X17143063Y-14891484D02*
X17124015Y-14881960D01*
X17124015Y-14881960D02*
X17114492Y-14862912D01*
X17114492Y-14862912D02*
X17114492Y-14691484D01*
X17295444Y-14881960D02*
X17276396Y-14891484D01*
X17276396Y-14891484D02*
X17238301Y-14891484D01*
X17238301Y-14891484D02*
X17219253Y-14881960D01*
X17219253Y-14881960D02*
X17209730Y-14862912D01*
X17209730Y-14862912D02*
X17209730Y-14786722D01*
X17209730Y-14786722D02*
X17219253Y-14767674D01*
X17219253Y-14767674D02*
X17238301Y-14758150D01*
X17238301Y-14758150D02*
X17276396Y-14758150D01*
X17276396Y-14758150D02*
X17295444Y-14767674D01*
X17295444Y-14767674D02*
X17304968Y-14786722D01*
X17304968Y-14786722D02*
X17304968Y-14805769D01*
X17304968Y-14805769D02*
X17209730Y-14824817D01*
X17381158Y-14881960D02*
X17400206Y-14891484D01*
X17400206Y-14891484D02*
X17438301Y-14891484D01*
X17438301Y-14891484D02*
X17457349Y-14881960D01*
X17457349Y-14881960D02*
X17466873Y-14862912D01*
X17466873Y-14862912D02*
X17466873Y-14853388D01*
X17466873Y-14853388D02*
X17457349Y-14834341D01*
X17457349Y-14834341D02*
X17438301Y-14824817D01*
X17438301Y-14824817D02*
X17409730Y-14824817D01*
X17409730Y-14824817D02*
X17390682Y-14815293D01*
X17390682Y-14815293D02*
X17381158Y-14796246D01*
X17381158Y-14796246D02*
X17381158Y-14786722D01*
X17381158Y-14786722D02*
X17390682Y-14767674D01*
X17390682Y-14767674D02*
X17409730Y-14758150D01*
X17409730Y-14758150D02*
X17438301Y-14758150D01*
X17438301Y-14758150D02*
X17457349Y-14767674D01*
X17533539Y-14967674D02*
X17543063Y-14958150D01*
X17543063Y-14958150D02*
X17562111Y-14929579D01*
X17562111Y-14929579D02*
X17571634Y-14910531D01*
X17571634Y-14910531D02*
X17581158Y-14881960D01*
X17581158Y-14881960D02*
X17590682Y-14834341D01*
X17590682Y-14834341D02*
X17590682Y-14796246D01*
X17590682Y-14796246D02*
X17581158Y-14748627D01*
X17581158Y-14748627D02*
X17571634Y-14720055D01*
X17571634Y-14720055D02*
X17562111Y-14701008D01*
X17562111Y-14701008D02*
X17543063Y-14672436D01*
X17543063Y-14672436D02*
X17533539Y-14662912D01*
D10*
X12568000Y-15064000D02*
G75*
G03*
X12568000Y-15064000I-40000J0D01*
G01*
D11*
X12866872Y-14955484D02*
X12885920Y-14955484D01*
X12885920Y-14955484D02*
X12904967Y-14965008D01*
X12904967Y-14965008D02*
X12914491Y-14974531D01*
X12914491Y-14974531D02*
X12924015Y-14993579D01*
X12924015Y-14993579D02*
X12933539Y-15031674D01*
X12933539Y-15031674D02*
X12933539Y-15079293D01*
X12933539Y-15079293D02*
X12924015Y-15117388D01*
X12924015Y-15117388D02*
X12914491Y-15136436D01*
X12914491Y-15136436D02*
X12904967Y-15145960D01*
X12904967Y-15145960D02*
X12885920Y-15155484D01*
X12885920Y-15155484D02*
X12866872Y-15155484D01*
X12866872Y-15155484D02*
X12847824Y-15145960D01*
X12847824Y-15145960D02*
X12838301Y-15136436D01*
X12838301Y-15136436D02*
X12828777Y-15117388D01*
X12828777Y-15117388D02*
X12819253Y-15079293D01*
X12819253Y-15079293D02*
X12819253Y-15031674D01*
X12819253Y-15031674D02*
X12828777Y-14993579D01*
X12828777Y-14993579D02*
X12838301Y-14974531D01*
X12838301Y-14974531D02*
X12847824Y-14965008D01*
X12847824Y-14965008D02*
X12866872Y-14955484D01*
X13019253Y-15136436D02*
X13028777Y-15145960D01*
X13028777Y-15145960D02*
X13019253Y-15155484D01*
X13019253Y-15155484D02*
X13009729Y-15145960D01*
X13009729Y-15145960D02*
X13019253Y-15136436D01*
X13019253Y-15136436D02*
X13019253Y-15155484D01*
X13143062Y-15041198D02*
X13124015Y-15031674D01*
X13124015Y-15031674D02*
X13114491Y-15022150D01*
X13114491Y-15022150D02*
X13104967Y-15003103D01*
X13104967Y-15003103D02*
X13104967Y-14993579D01*
X13104967Y-14993579D02*
X13114491Y-14974531D01*
X13114491Y-14974531D02*
X13124015Y-14965008D01*
X13124015Y-14965008D02*
X13143062Y-14955484D01*
X13143062Y-14955484D02*
X13181158Y-14955484D01*
X13181158Y-14955484D02*
X13200205Y-14965008D01*
X13200205Y-14965008D02*
X13209729Y-14974531D01*
X13209729Y-14974531D02*
X13219253Y-14993579D01*
X13219253Y-14993579D02*
X13219253Y-15003103D01*
X13219253Y-15003103D02*
X13209729Y-15022150D01*
X13209729Y-15022150D02*
X13200205Y-15031674D01*
X13200205Y-15031674D02*
X13181158Y-15041198D01*
X13181158Y-15041198D02*
X13143062Y-15041198D01*
X13143062Y-15041198D02*
X13124015Y-15050722D01*
X13124015Y-15050722D02*
X13114491Y-15060246D01*
X13114491Y-15060246D02*
X13104967Y-15079293D01*
X13104967Y-15079293D02*
X13104967Y-15117388D01*
X13104967Y-15117388D02*
X13114491Y-15136436D01*
X13114491Y-15136436D02*
X13124015Y-15145960D01*
X13124015Y-15145960D02*
X13143062Y-15155484D01*
X13143062Y-15155484D02*
X13181158Y-15155484D01*
X13181158Y-15155484D02*
X13200205Y-15145960D01*
X13200205Y-15145960D02*
X13209729Y-15136436D01*
X13209729Y-15136436D02*
X13219253Y-15117388D01*
X13219253Y-15117388D02*
X13219253Y-15079293D01*
X13219253Y-15079293D02*
X13209729Y-15060246D01*
X13209729Y-15060246D02*
X13200205Y-15050722D01*
X13200205Y-15050722D02*
X13181158Y-15041198D01*
X13343062Y-14955484D02*
X13362110Y-14955484D01*
X13362110Y-14955484D02*
X13381158Y-14965008D01*
X13381158Y-14965008D02*
X13390682Y-14974531D01*
X13390682Y-14974531D02*
X13400205Y-14993579D01*
X13400205Y-14993579D02*
X13409729Y-15031674D01*
X13409729Y-15031674D02*
X13409729Y-15079293D01*
X13409729Y-15079293D02*
X13400205Y-15117388D01*
X13400205Y-15117388D02*
X13390682Y-15136436D01*
X13390682Y-15136436D02*
X13381158Y-15145960D01*
X13381158Y-15145960D02*
X13362110Y-15155484D01*
X13362110Y-15155484D02*
X13343062Y-15155484D01*
X13343062Y-15155484D02*
X13324015Y-15145960D01*
X13324015Y-15145960D02*
X13314491Y-15136436D01*
X13314491Y-15136436D02*
X13304967Y-15117388D01*
X13304967Y-15117388D02*
X13295443Y-15079293D01*
X13295443Y-15079293D02*
X13295443Y-15031674D01*
X13295443Y-15031674D02*
X13304967Y-14993579D01*
X13304967Y-14993579D02*
X13314491Y-14974531D01*
X13314491Y-14974531D02*
X13324015Y-14965008D01*
X13324015Y-14965008D02*
X13343062Y-14955484D01*
X13533539Y-14955484D02*
X13552586Y-14955484D01*
X13552586Y-14955484D02*
X13571634Y-14965008D01*
X13571634Y-14965008D02*
X13581158Y-14974531D01*
X13581158Y-14974531D02*
X13590682Y-14993579D01*
X13590682Y-14993579D02*
X13600205Y-15031674D01*
X13600205Y-15031674D02*
X13600205Y-15079293D01*
X13600205Y-15079293D02*
X13590682Y-15117388D01*
X13590682Y-15117388D02*
X13581158Y-15136436D01*
X13581158Y-15136436D02*
X13571634Y-15145960D01*
X13571634Y-15145960D02*
X13552586Y-15155484D01*
X13552586Y-15155484D02*
X13533539Y-15155484D01*
X13533539Y-15155484D02*
X13514491Y-15145960D01*
X13514491Y-15145960D02*
X13504967Y-15136436D01*
X13504967Y-15136436D02*
X13495443Y-15117388D01*
X13495443Y-15117388D02*
X13485920Y-15079293D01*
X13485920Y-15079293D02*
X13485920Y-15031674D01*
X13485920Y-15031674D02*
X13495443Y-14993579D01*
X13495443Y-14993579D02*
X13504967Y-14974531D01*
X13504967Y-14974531D02*
X13514491Y-14965008D01*
X13514491Y-14965008D02*
X13533539Y-14955484D01*
X13685920Y-15155484D02*
X13685920Y-15022150D01*
X13685920Y-15041198D02*
X13695443Y-15031674D01*
X13695443Y-15031674D02*
X13714491Y-15022150D01*
X13714491Y-15022150D02*
X13743063Y-15022150D01*
X13743063Y-15022150D02*
X13762110Y-15031674D01*
X13762110Y-15031674D02*
X13771634Y-15050722D01*
X13771634Y-15050722D02*
X13771634Y-15155484D01*
X13771634Y-15050722D02*
X13781158Y-15031674D01*
X13781158Y-15031674D02*
X13800205Y-15022150D01*
X13800205Y-15022150D02*
X13828777Y-15022150D01*
X13828777Y-15022150D02*
X13847824Y-15031674D01*
X13847824Y-15031674D02*
X13857348Y-15050722D01*
X13857348Y-15050722D02*
X13857348Y-15155484D01*
X13952586Y-15155484D02*
X13952586Y-15022150D01*
X13952586Y-15041198D02*
X13962110Y-15031674D01*
X13962110Y-15031674D02*
X13981158Y-15022150D01*
X13981158Y-15022150D02*
X14009729Y-15022150D01*
X14009729Y-15022150D02*
X14028777Y-15031674D01*
X14028777Y-15031674D02*
X14038301Y-15050722D01*
X14038301Y-15050722D02*
X14038301Y-15155484D01*
X14038301Y-15050722D02*
X14047824Y-15031674D01*
X14047824Y-15031674D02*
X14066872Y-15022150D01*
X14066872Y-15022150D02*
X14095443Y-15022150D01*
X14095443Y-15022150D02*
X14114491Y-15031674D01*
X14114491Y-15031674D02*
X14124015Y-15050722D01*
X14124015Y-15050722D02*
X14124015Y-15155484D01*
X14514491Y-14945960D02*
X14343063Y-15203103D01*
X14771634Y-14955484D02*
X14790682Y-14955484D01*
X14790682Y-14955484D02*
X14809729Y-14965008D01*
X14809729Y-14965008D02*
X14819253Y-14974531D01*
X14819253Y-14974531D02*
X14828777Y-14993579D01*
X14828777Y-14993579D02*
X14838301Y-15031674D01*
X14838301Y-15031674D02*
X14838301Y-15079293D01*
X14838301Y-15079293D02*
X14828777Y-15117388D01*
X14828777Y-15117388D02*
X14819253Y-15136436D01*
X14819253Y-15136436D02*
X14809729Y-15145960D01*
X14809729Y-15145960D02*
X14790682Y-15155484D01*
X14790682Y-15155484D02*
X14771634Y-15155484D01*
X14771634Y-15155484D02*
X14752586Y-15145960D01*
X14752586Y-15145960D02*
X14743063Y-15136436D01*
X14743063Y-15136436D02*
X14733539Y-15117388D01*
X14733539Y-15117388D02*
X14724015Y-15079293D01*
X14724015Y-15079293D02*
X14724015Y-15031674D01*
X14724015Y-15031674D02*
X14733539Y-14993579D01*
X14733539Y-14993579D02*
X14743063Y-14974531D01*
X14743063Y-14974531D02*
X14752586Y-14965008D01*
X14752586Y-14965008D02*
X14771634Y-14955484D01*
X14924015Y-15136436D02*
X14933539Y-15145960D01*
X14933539Y-15145960D02*
X14924015Y-15155484D01*
X14924015Y-15155484D02*
X14914491Y-15145960D01*
X14914491Y-15145960D02*
X14924015Y-15136436D01*
X14924015Y-15136436D02*
X14924015Y-15155484D01*
X15057348Y-14955484D02*
X15076396Y-14955484D01*
X15076396Y-14955484D02*
X15095444Y-14965008D01*
X15095444Y-14965008D02*
X15104967Y-14974531D01*
X15104967Y-14974531D02*
X15114491Y-14993579D01*
X15114491Y-14993579D02*
X15124015Y-15031674D01*
X15124015Y-15031674D02*
X15124015Y-15079293D01*
X15124015Y-15079293D02*
X15114491Y-15117388D01*
X15114491Y-15117388D02*
X15104967Y-15136436D01*
X15104967Y-15136436D02*
X15095444Y-15145960D01*
X15095444Y-15145960D02*
X15076396Y-15155484D01*
X15076396Y-15155484D02*
X15057348Y-15155484D01*
X15057348Y-15155484D02*
X15038301Y-15145960D01*
X15038301Y-15145960D02*
X15028777Y-15136436D01*
X15028777Y-15136436D02*
X15019253Y-15117388D01*
X15019253Y-15117388D02*
X15009729Y-15079293D01*
X15009729Y-15079293D02*
X15009729Y-15031674D01*
X15009729Y-15031674D02*
X15019253Y-14993579D01*
X15019253Y-14993579D02*
X15028777Y-14974531D01*
X15028777Y-14974531D02*
X15038301Y-14965008D01*
X15038301Y-14965008D02*
X15057348Y-14955484D01*
X15190682Y-14955484D02*
X15314491Y-14955484D01*
X15314491Y-14955484D02*
X15247825Y-15031674D01*
X15247825Y-15031674D02*
X15276396Y-15031674D01*
X15276396Y-15031674D02*
X15295444Y-15041198D01*
X15295444Y-15041198D02*
X15304967Y-15050722D01*
X15304967Y-15050722D02*
X15314491Y-15069769D01*
X15314491Y-15069769D02*
X15314491Y-15117388D01*
X15314491Y-15117388D02*
X15304967Y-15136436D01*
X15304967Y-15136436D02*
X15295444Y-15145960D01*
X15295444Y-15145960D02*
X15276396Y-15155484D01*
X15276396Y-15155484D02*
X15219253Y-15155484D01*
X15219253Y-15155484D02*
X15200206Y-15145960D01*
X15200206Y-15145960D02*
X15190682Y-15136436D01*
X15504967Y-15155484D02*
X15390682Y-15155484D01*
X15447825Y-15155484D02*
X15447825Y-14955484D01*
X15447825Y-14955484D02*
X15428777Y-14984055D01*
X15428777Y-14984055D02*
X15409729Y-15003103D01*
X15409729Y-15003103D02*
X15390682Y-15012627D01*
X15685920Y-14955484D02*
X15590682Y-14955484D01*
X15590682Y-14955484D02*
X15581158Y-15050722D01*
X15581158Y-15050722D02*
X15590682Y-15041198D01*
X15590682Y-15041198D02*
X15609729Y-15031674D01*
X15609729Y-15031674D02*
X15657348Y-15031674D01*
X15657348Y-15031674D02*
X15676396Y-15041198D01*
X15676396Y-15041198D02*
X15685920Y-15050722D01*
X15685920Y-15050722D02*
X15695444Y-15069769D01*
X15695444Y-15069769D02*
X15695444Y-15117388D01*
X15695444Y-15117388D02*
X15685920Y-15136436D01*
X15685920Y-15136436D02*
X15676396Y-15145960D01*
X15676396Y-15145960D02*
X15657348Y-15155484D01*
X15657348Y-15155484D02*
X15609729Y-15155484D01*
X15609729Y-15155484D02*
X15590682Y-15145960D01*
X15590682Y-15145960D02*
X15581158Y-15136436D01*
X15771634Y-14955484D02*
X15771634Y-14993579D01*
X15847825Y-14955484D02*
X15847825Y-14993579D01*
X16143063Y-15231674D02*
X16133539Y-15222150D01*
X16133539Y-15222150D02*
X16114491Y-15193579D01*
X16114491Y-15193579D02*
X16104968Y-15174531D01*
X16104968Y-15174531D02*
X16095444Y-15145960D01*
X16095444Y-15145960D02*
X16085920Y-15098341D01*
X16085920Y-15098341D02*
X16085920Y-15060246D01*
X16085920Y-15060246D02*
X16095444Y-15012627D01*
X16095444Y-15012627D02*
X16104968Y-14984055D01*
X16104968Y-14984055D02*
X16114491Y-14965008D01*
X16114491Y-14965008D02*
X16133539Y-14936436D01*
X16133539Y-14936436D02*
X16143063Y-14926912D01*
X16247825Y-15041198D02*
X16228777Y-15031674D01*
X16228777Y-15031674D02*
X16219253Y-15022150D01*
X16219253Y-15022150D02*
X16209729Y-15003103D01*
X16209729Y-15003103D02*
X16209729Y-14993579D01*
X16209729Y-14993579D02*
X16219253Y-14974531D01*
X16219253Y-14974531D02*
X16228777Y-14965008D01*
X16228777Y-14965008D02*
X16247825Y-14955484D01*
X16247825Y-14955484D02*
X16285920Y-14955484D01*
X16285920Y-14955484D02*
X16304968Y-14965008D01*
X16304968Y-14965008D02*
X16314491Y-14974531D01*
X16314491Y-14974531D02*
X16324015Y-14993579D01*
X16324015Y-14993579D02*
X16324015Y-15003103D01*
X16324015Y-15003103D02*
X16314491Y-15022150D01*
X16314491Y-15022150D02*
X16304968Y-15031674D01*
X16304968Y-15031674D02*
X16285920Y-15041198D01*
X16285920Y-15041198D02*
X16247825Y-15041198D01*
X16247825Y-15041198D02*
X16228777Y-15050722D01*
X16228777Y-15050722D02*
X16219253Y-15060246D01*
X16219253Y-15060246D02*
X16209729Y-15079293D01*
X16209729Y-15079293D02*
X16209729Y-15117388D01*
X16209729Y-15117388D02*
X16219253Y-15136436D01*
X16219253Y-15136436D02*
X16228777Y-15145960D01*
X16228777Y-15145960D02*
X16247825Y-15155484D01*
X16247825Y-15155484D02*
X16285920Y-15155484D01*
X16285920Y-15155484D02*
X16304968Y-15145960D01*
X16304968Y-15145960D02*
X16314491Y-15136436D01*
X16314491Y-15136436D02*
X16324015Y-15117388D01*
X16324015Y-15117388D02*
X16324015Y-15079293D01*
X16324015Y-15079293D02*
X16314491Y-15060246D01*
X16314491Y-15060246D02*
X16304968Y-15050722D01*
X16304968Y-15050722D02*
X16285920Y-15041198D01*
X16562110Y-15155484D02*
X16562110Y-14955484D01*
X16647825Y-15155484D02*
X16647825Y-15050722D01*
X16647825Y-15050722D02*
X16638301Y-15031674D01*
X16638301Y-15031674D02*
X16619253Y-15022150D01*
X16619253Y-15022150D02*
X16590682Y-15022150D01*
X16590682Y-15022150D02*
X16571634Y-15031674D01*
X16571634Y-15031674D02*
X16562110Y-15041198D01*
X16771634Y-15155484D02*
X16752587Y-15145960D01*
X16752587Y-15145960D02*
X16743063Y-15136436D01*
X16743063Y-15136436D02*
X16733539Y-15117388D01*
X16733539Y-15117388D02*
X16733539Y-15060246D01*
X16733539Y-15060246D02*
X16743063Y-15041198D01*
X16743063Y-15041198D02*
X16752587Y-15031674D01*
X16752587Y-15031674D02*
X16771634Y-15022150D01*
X16771634Y-15022150D02*
X16800206Y-15022150D01*
X16800206Y-15022150D02*
X16819253Y-15031674D01*
X16819253Y-15031674D02*
X16828777Y-15041198D01*
X16828777Y-15041198D02*
X16838301Y-15060246D01*
X16838301Y-15060246D02*
X16838301Y-15117388D01*
X16838301Y-15117388D02*
X16828777Y-15136436D01*
X16828777Y-15136436D02*
X16819253Y-15145960D01*
X16819253Y-15145960D02*
X16800206Y-15155484D01*
X16800206Y-15155484D02*
X16771634Y-15155484D01*
X16952587Y-15155484D02*
X16933539Y-15145960D01*
X16933539Y-15145960D02*
X16924015Y-15126912D01*
X16924015Y-15126912D02*
X16924015Y-14955484D01*
X17104968Y-15145960D02*
X17085920Y-15155484D01*
X17085920Y-15155484D02*
X17047825Y-15155484D01*
X17047825Y-15155484D02*
X17028777Y-15145960D01*
X17028777Y-15145960D02*
X17019253Y-15126912D01*
X17019253Y-15126912D02*
X17019253Y-15050722D01*
X17019253Y-15050722D02*
X17028777Y-15031674D01*
X17028777Y-15031674D02*
X17047825Y-15022150D01*
X17047825Y-15022150D02*
X17085920Y-15022150D01*
X17085920Y-15022150D02*
X17104968Y-15031674D01*
X17104968Y-15031674D02*
X17114492Y-15050722D01*
X17114492Y-15050722D02*
X17114492Y-15069769D01*
X17114492Y-15069769D02*
X17019253Y-15088817D01*
X17190682Y-15145960D02*
X17209730Y-15155484D01*
X17209730Y-15155484D02*
X17247825Y-15155484D01*
X17247825Y-15155484D02*
X17266873Y-15145960D01*
X17266873Y-15145960D02*
X17276396Y-15126912D01*
X17276396Y-15126912D02*
X17276396Y-15117388D01*
X17276396Y-15117388D02*
X17266873Y-15098341D01*
X17266873Y-15098341D02*
X17247825Y-15088817D01*
X17247825Y-15088817D02*
X17219253Y-15088817D01*
X17219253Y-15088817D02*
X17200206Y-15079293D01*
X17200206Y-15079293D02*
X17190682Y-15060246D01*
X17190682Y-15060246D02*
X17190682Y-15050722D01*
X17190682Y-15050722D02*
X17200206Y-15031674D01*
X17200206Y-15031674D02*
X17219253Y-15022150D01*
X17219253Y-15022150D02*
X17247825Y-15022150D01*
X17247825Y-15022150D02*
X17266873Y-15031674D01*
X17343063Y-15231674D02*
X17352587Y-15222150D01*
X17352587Y-15222150D02*
X17371634Y-15193579D01*
X17371634Y-15193579D02*
X17381158Y-15174531D01*
X17381158Y-15174531D02*
X17390682Y-15145960D01*
X17390682Y-15145960D02*
X17400206Y-15098341D01*
X17400206Y-15098341D02*
X17400206Y-15060246D01*
X17400206Y-15060246D02*
X17390682Y-15012627D01*
X17390682Y-15012627D02*
X17381158Y-14984055D01*
X17381158Y-14984055D02*
X17371634Y-14965008D01*
X17371634Y-14965008D02*
X17352587Y-14936436D01*
X17352587Y-14936436D02*
X17343063Y-14926912D01*
D10*
X12518000Y-15278000D02*
X12518000Y-15378000D01*
X12468000Y-15328000D02*
X12568000Y-15328000D01*
D11*
X12933539Y-15419484D02*
X12819253Y-15419484D01*
X12876396Y-15419484D02*
X12876396Y-15219484D01*
X12876396Y-15219484D02*
X12857348Y-15248055D01*
X12857348Y-15248055D02*
X12838301Y-15267103D01*
X12838301Y-15267103D02*
X12819253Y-15276627D01*
X13019253Y-15400436D02*
X13028777Y-15409960D01*
X13028777Y-15409960D02*
X13019253Y-15419484D01*
X13019253Y-15419484D02*
X13009729Y-15409960D01*
X13009729Y-15409960D02*
X13019253Y-15400436D01*
X13019253Y-15400436D02*
X13019253Y-15419484D01*
X13152586Y-15219484D02*
X13171634Y-15219484D01*
X13171634Y-15219484D02*
X13190682Y-15229008D01*
X13190682Y-15229008D02*
X13200205Y-15238531D01*
X13200205Y-15238531D02*
X13209729Y-15257579D01*
X13209729Y-15257579D02*
X13219253Y-15295674D01*
X13219253Y-15295674D02*
X13219253Y-15343293D01*
X13219253Y-15343293D02*
X13209729Y-15381388D01*
X13209729Y-15381388D02*
X13200205Y-15400436D01*
X13200205Y-15400436D02*
X13190682Y-15409960D01*
X13190682Y-15409960D02*
X13171634Y-15419484D01*
X13171634Y-15419484D02*
X13152586Y-15419484D01*
X13152586Y-15419484D02*
X13133539Y-15409960D01*
X13133539Y-15409960D02*
X13124015Y-15400436D01*
X13124015Y-15400436D02*
X13114491Y-15381388D01*
X13114491Y-15381388D02*
X13104967Y-15343293D01*
X13104967Y-15343293D02*
X13104967Y-15295674D01*
X13104967Y-15295674D02*
X13114491Y-15257579D01*
X13114491Y-15257579D02*
X13124015Y-15238531D01*
X13124015Y-15238531D02*
X13133539Y-15229008D01*
X13133539Y-15229008D02*
X13152586Y-15219484D01*
X13343062Y-15219484D02*
X13362110Y-15219484D01*
X13362110Y-15219484D02*
X13381158Y-15229008D01*
X13381158Y-15229008D02*
X13390682Y-15238531D01*
X13390682Y-15238531D02*
X13400205Y-15257579D01*
X13400205Y-15257579D02*
X13409729Y-15295674D01*
X13409729Y-15295674D02*
X13409729Y-15343293D01*
X13409729Y-15343293D02*
X13400205Y-15381388D01*
X13400205Y-15381388D02*
X13390682Y-15400436D01*
X13390682Y-15400436D02*
X13381158Y-15409960D01*
X13381158Y-15409960D02*
X13362110Y-15419484D01*
X13362110Y-15419484D02*
X13343062Y-15419484D01*
X13343062Y-15419484D02*
X13324015Y-15409960D01*
X13324015Y-15409960D02*
X13314491Y-15400436D01*
X13314491Y-15400436D02*
X13304967Y-15381388D01*
X13304967Y-15381388D02*
X13295443Y-15343293D01*
X13295443Y-15343293D02*
X13295443Y-15295674D01*
X13295443Y-15295674D02*
X13304967Y-15257579D01*
X13304967Y-15257579D02*
X13314491Y-15238531D01*
X13314491Y-15238531D02*
X13324015Y-15229008D01*
X13324015Y-15229008D02*
X13343062Y-15219484D01*
X13533539Y-15219484D02*
X13552586Y-15219484D01*
X13552586Y-15219484D02*
X13571634Y-15229008D01*
X13571634Y-15229008D02*
X13581158Y-15238531D01*
X13581158Y-15238531D02*
X13590682Y-15257579D01*
X13590682Y-15257579D02*
X13600205Y-15295674D01*
X13600205Y-15295674D02*
X13600205Y-15343293D01*
X13600205Y-15343293D02*
X13590682Y-15381388D01*
X13590682Y-15381388D02*
X13581158Y-15400436D01*
X13581158Y-15400436D02*
X13571634Y-15409960D01*
X13571634Y-15409960D02*
X13552586Y-15419484D01*
X13552586Y-15419484D02*
X13533539Y-15419484D01*
X13533539Y-15419484D02*
X13514491Y-15409960D01*
X13514491Y-15409960D02*
X13504967Y-15400436D01*
X13504967Y-15400436D02*
X13495443Y-15381388D01*
X13495443Y-15381388D02*
X13485920Y-15343293D01*
X13485920Y-15343293D02*
X13485920Y-15295674D01*
X13485920Y-15295674D02*
X13495443Y-15257579D01*
X13495443Y-15257579D02*
X13504967Y-15238531D01*
X13504967Y-15238531D02*
X13514491Y-15229008D01*
X13514491Y-15229008D02*
X13533539Y-15219484D01*
X13685920Y-15419484D02*
X13685920Y-15286150D01*
X13685920Y-15305198D02*
X13695443Y-15295674D01*
X13695443Y-15295674D02*
X13714491Y-15286150D01*
X13714491Y-15286150D02*
X13743063Y-15286150D01*
X13743063Y-15286150D02*
X13762110Y-15295674D01*
X13762110Y-15295674D02*
X13771634Y-15314722D01*
X13771634Y-15314722D02*
X13771634Y-15419484D01*
X13771634Y-15314722D02*
X13781158Y-15295674D01*
X13781158Y-15295674D02*
X13800205Y-15286150D01*
X13800205Y-15286150D02*
X13828777Y-15286150D01*
X13828777Y-15286150D02*
X13847824Y-15295674D01*
X13847824Y-15295674D02*
X13857348Y-15314722D01*
X13857348Y-15314722D02*
X13857348Y-15419484D01*
X13952586Y-15419484D02*
X13952586Y-15286150D01*
X13952586Y-15305198D02*
X13962110Y-15295674D01*
X13962110Y-15295674D02*
X13981158Y-15286150D01*
X13981158Y-15286150D02*
X14009729Y-15286150D01*
X14009729Y-15286150D02*
X14028777Y-15295674D01*
X14028777Y-15295674D02*
X14038301Y-15314722D01*
X14038301Y-15314722D02*
X14038301Y-15419484D01*
X14038301Y-15314722D02*
X14047824Y-15295674D01*
X14047824Y-15295674D02*
X14066872Y-15286150D01*
X14066872Y-15286150D02*
X14095443Y-15286150D01*
X14095443Y-15286150D02*
X14114491Y-15295674D01*
X14114491Y-15295674D02*
X14124015Y-15314722D01*
X14124015Y-15314722D02*
X14124015Y-15419484D01*
X14514491Y-15209960D02*
X14343063Y-15467103D01*
X14771634Y-15219484D02*
X14790682Y-15219484D01*
X14790682Y-15219484D02*
X14809729Y-15229008D01*
X14809729Y-15229008D02*
X14819253Y-15238531D01*
X14819253Y-15238531D02*
X14828777Y-15257579D01*
X14828777Y-15257579D02*
X14838301Y-15295674D01*
X14838301Y-15295674D02*
X14838301Y-15343293D01*
X14838301Y-15343293D02*
X14828777Y-15381388D01*
X14828777Y-15381388D02*
X14819253Y-15400436D01*
X14819253Y-15400436D02*
X14809729Y-15409960D01*
X14809729Y-15409960D02*
X14790682Y-15419484D01*
X14790682Y-15419484D02*
X14771634Y-15419484D01*
X14771634Y-15419484D02*
X14752586Y-15409960D01*
X14752586Y-15409960D02*
X14743063Y-15400436D01*
X14743063Y-15400436D02*
X14733539Y-15381388D01*
X14733539Y-15381388D02*
X14724015Y-15343293D01*
X14724015Y-15343293D02*
X14724015Y-15295674D01*
X14724015Y-15295674D02*
X14733539Y-15257579D01*
X14733539Y-15257579D02*
X14743063Y-15238531D01*
X14743063Y-15238531D02*
X14752586Y-15229008D01*
X14752586Y-15229008D02*
X14771634Y-15219484D01*
X14924015Y-15400436D02*
X14933539Y-15409960D01*
X14933539Y-15409960D02*
X14924015Y-15419484D01*
X14924015Y-15419484D02*
X14914491Y-15409960D01*
X14914491Y-15409960D02*
X14924015Y-15400436D01*
X14924015Y-15400436D02*
X14924015Y-15419484D01*
X15057348Y-15219484D02*
X15076396Y-15219484D01*
X15076396Y-15219484D02*
X15095444Y-15229008D01*
X15095444Y-15229008D02*
X15104967Y-15238531D01*
X15104967Y-15238531D02*
X15114491Y-15257579D01*
X15114491Y-15257579D02*
X15124015Y-15295674D01*
X15124015Y-15295674D02*
X15124015Y-15343293D01*
X15124015Y-15343293D02*
X15114491Y-15381388D01*
X15114491Y-15381388D02*
X15104967Y-15400436D01*
X15104967Y-15400436D02*
X15095444Y-15409960D01*
X15095444Y-15409960D02*
X15076396Y-15419484D01*
X15076396Y-15419484D02*
X15057348Y-15419484D01*
X15057348Y-15419484D02*
X15038301Y-15409960D01*
X15038301Y-15409960D02*
X15028777Y-15400436D01*
X15028777Y-15400436D02*
X15019253Y-15381388D01*
X15019253Y-15381388D02*
X15009729Y-15343293D01*
X15009729Y-15343293D02*
X15009729Y-15295674D01*
X15009729Y-15295674D02*
X15019253Y-15257579D01*
X15019253Y-15257579D02*
X15028777Y-15238531D01*
X15028777Y-15238531D02*
X15038301Y-15229008D01*
X15038301Y-15229008D02*
X15057348Y-15219484D01*
X15190682Y-15219484D02*
X15314491Y-15219484D01*
X15314491Y-15219484D02*
X15247825Y-15295674D01*
X15247825Y-15295674D02*
X15276396Y-15295674D01*
X15276396Y-15295674D02*
X15295444Y-15305198D01*
X15295444Y-15305198D02*
X15304967Y-15314722D01*
X15304967Y-15314722D02*
X15314491Y-15333769D01*
X15314491Y-15333769D02*
X15314491Y-15381388D01*
X15314491Y-15381388D02*
X15304967Y-15400436D01*
X15304967Y-15400436D02*
X15295444Y-15409960D01*
X15295444Y-15409960D02*
X15276396Y-15419484D01*
X15276396Y-15419484D02*
X15219253Y-15419484D01*
X15219253Y-15419484D02*
X15200206Y-15409960D01*
X15200206Y-15409960D02*
X15190682Y-15400436D01*
X15409729Y-15419484D02*
X15447825Y-15419484D01*
X15447825Y-15419484D02*
X15466872Y-15409960D01*
X15466872Y-15409960D02*
X15476396Y-15400436D01*
X15476396Y-15400436D02*
X15495444Y-15371865D01*
X15495444Y-15371865D02*
X15504967Y-15333769D01*
X15504967Y-15333769D02*
X15504967Y-15257579D01*
X15504967Y-15257579D02*
X15495444Y-15238531D01*
X15495444Y-15238531D02*
X15485920Y-15229008D01*
X15485920Y-15229008D02*
X15466872Y-15219484D01*
X15466872Y-15219484D02*
X15428777Y-15219484D01*
X15428777Y-15219484D02*
X15409729Y-15229008D01*
X15409729Y-15229008D02*
X15400206Y-15238531D01*
X15400206Y-15238531D02*
X15390682Y-15257579D01*
X15390682Y-15257579D02*
X15390682Y-15305198D01*
X15390682Y-15305198D02*
X15400206Y-15324246D01*
X15400206Y-15324246D02*
X15409729Y-15333769D01*
X15409729Y-15333769D02*
X15428777Y-15343293D01*
X15428777Y-15343293D02*
X15466872Y-15343293D01*
X15466872Y-15343293D02*
X15485920Y-15333769D01*
X15485920Y-15333769D02*
X15495444Y-15324246D01*
X15495444Y-15324246D02*
X15504967Y-15305198D01*
X15676396Y-15286150D02*
X15676396Y-15419484D01*
X15628777Y-15209960D02*
X15581158Y-15352817D01*
X15581158Y-15352817D02*
X15704967Y-15352817D01*
X15771634Y-15219484D02*
X15771634Y-15257579D01*
X15847825Y-15219484D02*
X15847825Y-15257579D01*
X16143063Y-15495674D02*
X16133539Y-15486150D01*
X16133539Y-15486150D02*
X16114491Y-15457579D01*
X16114491Y-15457579D02*
X16104968Y-15438531D01*
X16104968Y-15438531D02*
X16095444Y-15409960D01*
X16095444Y-15409960D02*
X16085920Y-15362341D01*
X16085920Y-15362341D02*
X16085920Y-15324246D01*
X16085920Y-15324246D02*
X16095444Y-15276627D01*
X16095444Y-15276627D02*
X16104968Y-15248055D01*
X16104968Y-15248055D02*
X16114491Y-15229008D01*
X16114491Y-15229008D02*
X16133539Y-15200436D01*
X16133539Y-15200436D02*
X16143063Y-15190912D01*
X16304968Y-15219484D02*
X16266872Y-15219484D01*
X16266872Y-15219484D02*
X16247825Y-15229008D01*
X16247825Y-15229008D02*
X16238301Y-15238531D01*
X16238301Y-15238531D02*
X16219253Y-15267103D01*
X16219253Y-15267103D02*
X16209729Y-15305198D01*
X16209729Y-15305198D02*
X16209729Y-15381388D01*
X16209729Y-15381388D02*
X16219253Y-15400436D01*
X16219253Y-15400436D02*
X16228777Y-15409960D01*
X16228777Y-15409960D02*
X16247825Y-15419484D01*
X16247825Y-15419484D02*
X16285920Y-15419484D01*
X16285920Y-15419484D02*
X16304968Y-15409960D01*
X16304968Y-15409960D02*
X16314491Y-15400436D01*
X16314491Y-15400436D02*
X16324015Y-15381388D01*
X16324015Y-15381388D02*
X16324015Y-15333769D01*
X16324015Y-15333769D02*
X16314491Y-15314722D01*
X16314491Y-15314722D02*
X16304968Y-15305198D01*
X16304968Y-15305198D02*
X16285920Y-15295674D01*
X16285920Y-15295674D02*
X16247825Y-15295674D01*
X16247825Y-15295674D02*
X16228777Y-15305198D01*
X16228777Y-15305198D02*
X16219253Y-15314722D01*
X16219253Y-15314722D02*
X16209729Y-15333769D01*
X16447825Y-15219484D02*
X16466872Y-15219484D01*
X16466872Y-15219484D02*
X16485920Y-15229008D01*
X16485920Y-15229008D02*
X16495444Y-15238531D01*
X16495444Y-15238531D02*
X16504968Y-15257579D01*
X16504968Y-15257579D02*
X16514491Y-15295674D01*
X16514491Y-15295674D02*
X16514491Y-15343293D01*
X16514491Y-15343293D02*
X16504968Y-15381388D01*
X16504968Y-15381388D02*
X16495444Y-15400436D01*
X16495444Y-15400436D02*
X16485920Y-15409960D01*
X16485920Y-15409960D02*
X16466872Y-15419484D01*
X16466872Y-15419484D02*
X16447825Y-15419484D01*
X16447825Y-15419484D02*
X16428777Y-15409960D01*
X16428777Y-15409960D02*
X16419253Y-15400436D01*
X16419253Y-15400436D02*
X16409729Y-15381388D01*
X16409729Y-15381388D02*
X16400206Y-15343293D01*
X16400206Y-15343293D02*
X16400206Y-15295674D01*
X16400206Y-15295674D02*
X16409729Y-15257579D01*
X16409729Y-15257579D02*
X16419253Y-15238531D01*
X16419253Y-15238531D02*
X16428777Y-15229008D01*
X16428777Y-15229008D02*
X16447825Y-15219484D01*
X16752587Y-15419484D02*
X16752587Y-15219484D01*
X16838301Y-15419484D02*
X16838301Y-15314722D01*
X16838301Y-15314722D02*
X16828777Y-15295674D01*
X16828777Y-15295674D02*
X16809730Y-15286150D01*
X16809730Y-15286150D02*
X16781158Y-15286150D01*
X16781158Y-15286150D02*
X16762110Y-15295674D01*
X16762110Y-15295674D02*
X16752587Y-15305198D01*
X16962111Y-15419484D02*
X16943063Y-15409960D01*
X16943063Y-15409960D02*
X16933539Y-15400436D01*
X16933539Y-15400436D02*
X16924015Y-15381388D01*
X16924015Y-15381388D02*
X16924015Y-15324246D01*
X16924015Y-15324246D02*
X16933539Y-15305198D01*
X16933539Y-15305198D02*
X16943063Y-15295674D01*
X16943063Y-15295674D02*
X16962111Y-15286150D01*
X16962111Y-15286150D02*
X16990682Y-15286150D01*
X16990682Y-15286150D02*
X17009730Y-15295674D01*
X17009730Y-15295674D02*
X17019253Y-15305198D01*
X17019253Y-15305198D02*
X17028777Y-15324246D01*
X17028777Y-15324246D02*
X17028777Y-15381388D01*
X17028777Y-15381388D02*
X17019253Y-15400436D01*
X17019253Y-15400436D02*
X17009730Y-15409960D01*
X17009730Y-15409960D02*
X16990682Y-15419484D01*
X16990682Y-15419484D02*
X16962111Y-15419484D01*
X17143063Y-15419484D02*
X17124015Y-15409960D01*
X17124015Y-15409960D02*
X17114492Y-15390912D01*
X17114492Y-15390912D02*
X17114492Y-15219484D01*
X17295444Y-15409960D02*
X17276396Y-15419484D01*
X17276396Y-15419484D02*
X17238301Y-15419484D01*
X17238301Y-15419484D02*
X17219253Y-15409960D01*
X17219253Y-15409960D02*
X17209730Y-15390912D01*
X17209730Y-15390912D02*
X17209730Y-15314722D01*
X17209730Y-15314722D02*
X17219253Y-15295674D01*
X17219253Y-15295674D02*
X17238301Y-15286150D01*
X17238301Y-15286150D02*
X17276396Y-15286150D01*
X17276396Y-15286150D02*
X17295444Y-15295674D01*
X17295444Y-15295674D02*
X17304968Y-15314722D01*
X17304968Y-15314722D02*
X17304968Y-15333769D01*
X17304968Y-15333769D02*
X17209730Y-15352817D01*
X17381158Y-15409960D02*
X17400206Y-15419484D01*
X17400206Y-15419484D02*
X17438301Y-15419484D01*
X17438301Y-15419484D02*
X17457349Y-15409960D01*
X17457349Y-15409960D02*
X17466873Y-15390912D01*
X17466873Y-15390912D02*
X17466873Y-15381388D01*
X17466873Y-15381388D02*
X17457349Y-15362341D01*
X17457349Y-15362341D02*
X17438301Y-15352817D01*
X17438301Y-15352817D02*
X17409730Y-15352817D01*
X17409730Y-15352817D02*
X17390682Y-15343293D01*
X17390682Y-15343293D02*
X17381158Y-15324246D01*
X17381158Y-15324246D02*
X17381158Y-15314722D01*
X17381158Y-15314722D02*
X17390682Y-15295674D01*
X17390682Y-15295674D02*
X17409730Y-15286150D01*
X17409730Y-15286150D02*
X17438301Y-15286150D01*
X17438301Y-15286150D02*
X17457349Y-15295674D01*
X17533539Y-15495674D02*
X17543063Y-15486150D01*
X17543063Y-15486150D02*
X17562111Y-15457579D01*
X17562111Y-15457579D02*
X17571634Y-15438531D01*
X17571634Y-15438531D02*
X17581158Y-15409960D01*
X17581158Y-15409960D02*
X17590682Y-15362341D01*
X17590682Y-15362341D02*
X17590682Y-15324246D01*
X17590682Y-15324246D02*
X17581158Y-15276627D01*
X17581158Y-15276627D02*
X17571634Y-15248055D01*
X17571634Y-15248055D02*
X17562111Y-15229008D01*
X17562111Y-15229008D02*
X17543063Y-15200436D01*
X17543063Y-15200436D02*
X17533539Y-15190912D01*
D12*
X12542958Y-15652458D02*
X12542958Y-15531542D01*
X12422042Y-15531542D01*
X12422042Y-15652458D01*
X12542958Y-15652458D01*
D11*
X12933539Y-15683484D02*
X12819253Y-15683484D01*
X12876396Y-15683484D02*
X12876396Y-15483484D01*
X12876396Y-15483484D02*
X12857348Y-15512055D01*
X12857348Y-15512055D02*
X12838301Y-15531103D01*
X12838301Y-15531103D02*
X12819253Y-15540627D01*
X13019253Y-15664436D02*
X13028777Y-15673960D01*
X13028777Y-15673960D02*
X13019253Y-15683484D01*
X13019253Y-15683484D02*
X13009729Y-15673960D01*
X13009729Y-15673960D02*
X13019253Y-15664436D01*
X13019253Y-15664436D02*
X13019253Y-15683484D01*
X13095443Y-15483484D02*
X13228777Y-15483484D01*
X13228777Y-15483484D02*
X13143062Y-15683484D01*
X13409729Y-15683484D02*
X13295443Y-15683484D01*
X13352586Y-15683484D02*
X13352586Y-15483484D01*
X13352586Y-15483484D02*
X13333539Y-15512055D01*
X13333539Y-15512055D02*
X13314491Y-15531103D01*
X13314491Y-15531103D02*
X13295443Y-15540627D01*
X13533539Y-15483484D02*
X13552586Y-15483484D01*
X13552586Y-15483484D02*
X13571634Y-15493008D01*
X13571634Y-15493008D02*
X13581158Y-15502531D01*
X13581158Y-15502531D02*
X13590682Y-15521579D01*
X13590682Y-15521579D02*
X13600205Y-15559674D01*
X13600205Y-15559674D02*
X13600205Y-15607293D01*
X13600205Y-15607293D02*
X13590682Y-15645388D01*
X13590682Y-15645388D02*
X13581158Y-15664436D01*
X13581158Y-15664436D02*
X13571634Y-15673960D01*
X13571634Y-15673960D02*
X13552586Y-15683484D01*
X13552586Y-15683484D02*
X13533539Y-15683484D01*
X13533539Y-15683484D02*
X13514491Y-15673960D01*
X13514491Y-15673960D02*
X13504967Y-15664436D01*
X13504967Y-15664436D02*
X13495443Y-15645388D01*
X13495443Y-15645388D02*
X13485920Y-15607293D01*
X13485920Y-15607293D02*
X13485920Y-15559674D01*
X13485920Y-15559674D02*
X13495443Y-15521579D01*
X13495443Y-15521579D02*
X13504967Y-15502531D01*
X13504967Y-15502531D02*
X13514491Y-15493008D01*
X13514491Y-15493008D02*
X13533539Y-15483484D01*
X13685920Y-15683484D02*
X13685920Y-15550150D01*
X13685920Y-15569198D02*
X13695443Y-15559674D01*
X13695443Y-15559674D02*
X13714491Y-15550150D01*
X13714491Y-15550150D02*
X13743063Y-15550150D01*
X13743063Y-15550150D02*
X13762110Y-15559674D01*
X13762110Y-15559674D02*
X13771634Y-15578722D01*
X13771634Y-15578722D02*
X13771634Y-15683484D01*
X13771634Y-15578722D02*
X13781158Y-15559674D01*
X13781158Y-15559674D02*
X13800205Y-15550150D01*
X13800205Y-15550150D02*
X13828777Y-15550150D01*
X13828777Y-15550150D02*
X13847824Y-15559674D01*
X13847824Y-15559674D02*
X13857348Y-15578722D01*
X13857348Y-15578722D02*
X13857348Y-15683484D01*
X13952586Y-15683484D02*
X13952586Y-15550150D01*
X13952586Y-15569198D02*
X13962110Y-15559674D01*
X13962110Y-15559674D02*
X13981158Y-15550150D01*
X13981158Y-15550150D02*
X14009729Y-15550150D01*
X14009729Y-15550150D02*
X14028777Y-15559674D01*
X14028777Y-15559674D02*
X14038301Y-15578722D01*
X14038301Y-15578722D02*
X14038301Y-15683484D01*
X14038301Y-15578722D02*
X14047824Y-15559674D01*
X14047824Y-15559674D02*
X14066872Y-15550150D01*
X14066872Y-15550150D02*
X14095443Y-15550150D01*
X14095443Y-15550150D02*
X14114491Y-15559674D01*
X14114491Y-15559674D02*
X14124015Y-15578722D01*
X14124015Y-15578722D02*
X14124015Y-15683484D01*
X14514491Y-15473960D02*
X14343063Y-15731103D01*
X14771634Y-15483484D02*
X14790682Y-15483484D01*
X14790682Y-15483484D02*
X14809729Y-15493008D01*
X14809729Y-15493008D02*
X14819253Y-15502531D01*
X14819253Y-15502531D02*
X14828777Y-15521579D01*
X14828777Y-15521579D02*
X14838301Y-15559674D01*
X14838301Y-15559674D02*
X14838301Y-15607293D01*
X14838301Y-15607293D02*
X14828777Y-15645388D01*
X14828777Y-15645388D02*
X14819253Y-15664436D01*
X14819253Y-15664436D02*
X14809729Y-15673960D01*
X14809729Y-15673960D02*
X14790682Y-15683484D01*
X14790682Y-15683484D02*
X14771634Y-15683484D01*
X14771634Y-15683484D02*
X14752586Y-15673960D01*
X14752586Y-15673960D02*
X14743063Y-15664436D01*
X14743063Y-15664436D02*
X14733539Y-15645388D01*
X14733539Y-15645388D02*
X14724015Y-15607293D01*
X14724015Y-15607293D02*
X14724015Y-15559674D01*
X14724015Y-15559674D02*
X14733539Y-15521579D01*
X14733539Y-15521579D02*
X14743063Y-15502531D01*
X14743063Y-15502531D02*
X14752586Y-15493008D01*
X14752586Y-15493008D02*
X14771634Y-15483484D01*
X14924015Y-15664436D02*
X14933539Y-15673960D01*
X14933539Y-15673960D02*
X14924015Y-15683484D01*
X14924015Y-15683484D02*
X14914491Y-15673960D01*
X14914491Y-15673960D02*
X14924015Y-15664436D01*
X14924015Y-15664436D02*
X14924015Y-15683484D01*
X15057348Y-15483484D02*
X15076396Y-15483484D01*
X15076396Y-15483484D02*
X15095444Y-15493008D01*
X15095444Y-15493008D02*
X15104967Y-15502531D01*
X15104967Y-15502531D02*
X15114491Y-15521579D01*
X15114491Y-15521579D02*
X15124015Y-15559674D01*
X15124015Y-15559674D02*
X15124015Y-15607293D01*
X15124015Y-15607293D02*
X15114491Y-15645388D01*
X15114491Y-15645388D02*
X15104967Y-15664436D01*
X15104967Y-15664436D02*
X15095444Y-15673960D01*
X15095444Y-15673960D02*
X15076396Y-15683484D01*
X15076396Y-15683484D02*
X15057348Y-15683484D01*
X15057348Y-15683484D02*
X15038301Y-15673960D01*
X15038301Y-15673960D02*
X15028777Y-15664436D01*
X15028777Y-15664436D02*
X15019253Y-15645388D01*
X15019253Y-15645388D02*
X15009729Y-15607293D01*
X15009729Y-15607293D02*
X15009729Y-15559674D01*
X15009729Y-15559674D02*
X15019253Y-15521579D01*
X15019253Y-15521579D02*
X15028777Y-15502531D01*
X15028777Y-15502531D02*
X15038301Y-15493008D01*
X15038301Y-15493008D02*
X15057348Y-15483484D01*
X15295444Y-15483484D02*
X15257348Y-15483484D01*
X15257348Y-15483484D02*
X15238301Y-15493008D01*
X15238301Y-15493008D02*
X15228777Y-15502531D01*
X15228777Y-15502531D02*
X15209729Y-15531103D01*
X15209729Y-15531103D02*
X15200206Y-15569198D01*
X15200206Y-15569198D02*
X15200206Y-15645388D01*
X15200206Y-15645388D02*
X15209729Y-15664436D01*
X15209729Y-15664436D02*
X15219253Y-15673960D01*
X15219253Y-15673960D02*
X15238301Y-15683484D01*
X15238301Y-15683484D02*
X15276396Y-15683484D01*
X15276396Y-15683484D02*
X15295444Y-15673960D01*
X15295444Y-15673960D02*
X15304967Y-15664436D01*
X15304967Y-15664436D02*
X15314491Y-15645388D01*
X15314491Y-15645388D02*
X15314491Y-15597769D01*
X15314491Y-15597769D02*
X15304967Y-15578722D01*
X15304967Y-15578722D02*
X15295444Y-15569198D01*
X15295444Y-15569198D02*
X15276396Y-15559674D01*
X15276396Y-15559674D02*
X15238301Y-15559674D01*
X15238301Y-15559674D02*
X15219253Y-15569198D01*
X15219253Y-15569198D02*
X15209729Y-15578722D01*
X15209729Y-15578722D02*
X15200206Y-15597769D01*
X15381158Y-15483484D02*
X15514491Y-15483484D01*
X15514491Y-15483484D02*
X15428777Y-15683484D01*
X15571634Y-15483484D02*
X15695444Y-15483484D01*
X15695444Y-15483484D02*
X15628777Y-15559674D01*
X15628777Y-15559674D02*
X15657348Y-15559674D01*
X15657348Y-15559674D02*
X15676396Y-15569198D01*
X15676396Y-15569198D02*
X15685920Y-15578722D01*
X15685920Y-15578722D02*
X15695444Y-15597769D01*
X15695444Y-15597769D02*
X15695444Y-15645388D01*
X15695444Y-15645388D02*
X15685920Y-15664436D01*
X15685920Y-15664436D02*
X15676396Y-15673960D01*
X15676396Y-15673960D02*
X15657348Y-15683484D01*
X15657348Y-15683484D02*
X15600206Y-15683484D01*
X15600206Y-15683484D02*
X15581158Y-15673960D01*
X15581158Y-15673960D02*
X15571634Y-15664436D01*
X15771634Y-15483484D02*
X15771634Y-15521579D01*
X15847825Y-15483484D02*
X15847825Y-15521579D01*
X16143063Y-15759674D02*
X16133539Y-15750150D01*
X16133539Y-15750150D02*
X16114491Y-15721579D01*
X16114491Y-15721579D02*
X16104968Y-15702531D01*
X16104968Y-15702531D02*
X16095444Y-15673960D01*
X16095444Y-15673960D02*
X16085920Y-15626341D01*
X16085920Y-15626341D02*
X16085920Y-15588246D01*
X16085920Y-15588246D02*
X16095444Y-15540627D01*
X16095444Y-15540627D02*
X16104968Y-15512055D01*
X16104968Y-15512055D02*
X16114491Y-15493008D01*
X16114491Y-15493008D02*
X16133539Y-15464436D01*
X16133539Y-15464436D02*
X16143063Y-15454912D01*
X16304968Y-15550150D02*
X16304968Y-15683484D01*
X16257348Y-15473960D02*
X16209729Y-15616817D01*
X16209729Y-15616817D02*
X16333539Y-15616817D01*
X16562110Y-15683484D02*
X16562110Y-15483484D01*
X16647825Y-15683484D02*
X16647825Y-15578722D01*
X16647825Y-15578722D02*
X16638301Y-15559674D01*
X16638301Y-15559674D02*
X16619253Y-15550150D01*
X16619253Y-15550150D02*
X16590682Y-15550150D01*
X16590682Y-15550150D02*
X16571634Y-15559674D01*
X16571634Y-15559674D02*
X16562110Y-15569198D01*
X16771634Y-15683484D02*
X16752587Y-15673960D01*
X16752587Y-15673960D02*
X16743063Y-15664436D01*
X16743063Y-15664436D02*
X16733539Y-15645388D01*
X16733539Y-15645388D02*
X16733539Y-15588246D01*
X16733539Y-15588246D02*
X16743063Y-15569198D01*
X16743063Y-15569198D02*
X16752587Y-15559674D01*
X16752587Y-15559674D02*
X16771634Y-15550150D01*
X16771634Y-15550150D02*
X16800206Y-15550150D01*
X16800206Y-15550150D02*
X16819253Y-15559674D01*
X16819253Y-15559674D02*
X16828777Y-15569198D01*
X16828777Y-15569198D02*
X16838301Y-15588246D01*
X16838301Y-15588246D02*
X16838301Y-15645388D01*
X16838301Y-15645388D02*
X16828777Y-15664436D01*
X16828777Y-15664436D02*
X16819253Y-15673960D01*
X16819253Y-15673960D02*
X16800206Y-15683484D01*
X16800206Y-15683484D02*
X16771634Y-15683484D01*
X16952587Y-15683484D02*
X16933539Y-15673960D01*
X16933539Y-15673960D02*
X16924015Y-15654912D01*
X16924015Y-15654912D02*
X16924015Y-15483484D01*
X17104968Y-15673960D02*
X17085920Y-15683484D01*
X17085920Y-15683484D02*
X17047825Y-15683484D01*
X17047825Y-15683484D02*
X17028777Y-15673960D01*
X17028777Y-15673960D02*
X17019253Y-15654912D01*
X17019253Y-15654912D02*
X17019253Y-15578722D01*
X17019253Y-15578722D02*
X17028777Y-15559674D01*
X17028777Y-15559674D02*
X17047825Y-15550150D01*
X17047825Y-15550150D02*
X17085920Y-15550150D01*
X17085920Y-15550150D02*
X17104968Y-15559674D01*
X17104968Y-15559674D02*
X17114492Y-15578722D01*
X17114492Y-15578722D02*
X17114492Y-15597769D01*
X17114492Y-15597769D02*
X17019253Y-15616817D01*
X17190682Y-15673960D02*
X17209730Y-15683484D01*
X17209730Y-15683484D02*
X17247825Y-15683484D01*
X17247825Y-15683484D02*
X17266873Y-15673960D01*
X17266873Y-15673960D02*
X17276396Y-15654912D01*
X17276396Y-15654912D02*
X17276396Y-15645388D01*
X17276396Y-15645388D02*
X17266873Y-15626341D01*
X17266873Y-15626341D02*
X17247825Y-15616817D01*
X17247825Y-15616817D02*
X17219253Y-15616817D01*
X17219253Y-15616817D02*
X17200206Y-15607293D01*
X17200206Y-15607293D02*
X17190682Y-15588246D01*
X17190682Y-15588246D02*
X17190682Y-15578722D01*
X17190682Y-15578722D02*
X17200206Y-15559674D01*
X17200206Y-15559674D02*
X17219253Y-15550150D01*
X17219253Y-15550150D02*
X17247825Y-15550150D01*
X17247825Y-15550150D02*
X17266873Y-15559674D01*
X17343063Y-15759674D02*
X17352587Y-15750150D01*
X17352587Y-15750150D02*
X17371634Y-15721579D01*
X17371634Y-15721579D02*
X17381158Y-15702531D01*
X17381158Y-15702531D02*
X17390682Y-15673960D01*
X17390682Y-15673960D02*
X17400206Y-15626341D01*
X17400206Y-15626341D02*
X17400206Y-15588246D01*
X17400206Y-15588246D02*
X17390682Y-15540627D01*
X17390682Y-15540627D02*
X17381158Y-15512055D01*
X17381158Y-15512055D02*
X17371634Y-15493008D01*
X17371634Y-15493008D02*
X17352587Y-15464436D01*
X17352587Y-15464436D02*
X17343063Y-15454912D01*
X12468000Y-15983000D02*
X12568000Y-15883000D01*
X12468000Y-15783000D01*
X12368000Y-15883000D01*
X12468000Y-15983000D01*
X12819253Y-15793531D02*
X12828777Y-15784008D01*
X12828777Y-15784008D02*
X12847824Y-15774484D01*
X12847824Y-15774484D02*
X12895443Y-15774484D01*
X12895443Y-15774484D02*
X12914491Y-15784008D01*
X12914491Y-15784008D02*
X12924015Y-15793531D01*
X12924015Y-15793531D02*
X12933539Y-15812579D01*
X12933539Y-15812579D02*
X12933539Y-15831627D01*
X12933539Y-15831627D02*
X12924015Y-15860198D01*
X12924015Y-15860198D02*
X12809729Y-15974484D01*
X12809729Y-15974484D02*
X12933539Y-15974484D01*
X13019253Y-15955436D02*
X13028777Y-15964960D01*
X13028777Y-15964960D02*
X13019253Y-15974484D01*
X13019253Y-15974484D02*
X13009729Y-15964960D01*
X13009729Y-15964960D02*
X13019253Y-15955436D01*
X13019253Y-15955436D02*
X13019253Y-15974484D01*
X13104967Y-15793531D02*
X13114491Y-15784008D01*
X13114491Y-15784008D02*
X13133539Y-15774484D01*
X13133539Y-15774484D02*
X13181158Y-15774484D01*
X13181158Y-15774484D02*
X13200205Y-15784008D01*
X13200205Y-15784008D02*
X13209729Y-15793531D01*
X13209729Y-15793531D02*
X13219253Y-15812579D01*
X13219253Y-15812579D02*
X13219253Y-15831627D01*
X13219253Y-15831627D02*
X13209729Y-15860198D01*
X13209729Y-15860198D02*
X13095443Y-15974484D01*
X13095443Y-15974484D02*
X13219253Y-15974484D01*
X13343062Y-15774484D02*
X13362110Y-15774484D01*
X13362110Y-15774484D02*
X13381158Y-15784008D01*
X13381158Y-15784008D02*
X13390682Y-15793531D01*
X13390682Y-15793531D02*
X13400205Y-15812579D01*
X13400205Y-15812579D02*
X13409729Y-15850674D01*
X13409729Y-15850674D02*
X13409729Y-15898293D01*
X13409729Y-15898293D02*
X13400205Y-15936388D01*
X13400205Y-15936388D02*
X13390682Y-15955436D01*
X13390682Y-15955436D02*
X13381158Y-15964960D01*
X13381158Y-15964960D02*
X13362110Y-15974484D01*
X13362110Y-15974484D02*
X13343062Y-15974484D01*
X13343062Y-15974484D02*
X13324015Y-15964960D01*
X13324015Y-15964960D02*
X13314491Y-15955436D01*
X13314491Y-15955436D02*
X13304967Y-15936388D01*
X13304967Y-15936388D02*
X13295443Y-15898293D01*
X13295443Y-15898293D02*
X13295443Y-15850674D01*
X13295443Y-15850674D02*
X13304967Y-15812579D01*
X13304967Y-15812579D02*
X13314491Y-15793531D01*
X13314491Y-15793531D02*
X13324015Y-15784008D01*
X13324015Y-15784008D02*
X13343062Y-15774484D01*
X13533539Y-15774484D02*
X13552586Y-15774484D01*
X13552586Y-15774484D02*
X13571634Y-15784008D01*
X13571634Y-15784008D02*
X13581158Y-15793531D01*
X13581158Y-15793531D02*
X13590682Y-15812579D01*
X13590682Y-15812579D02*
X13600205Y-15850674D01*
X13600205Y-15850674D02*
X13600205Y-15898293D01*
X13600205Y-15898293D02*
X13590682Y-15936388D01*
X13590682Y-15936388D02*
X13581158Y-15955436D01*
X13581158Y-15955436D02*
X13571634Y-15964960D01*
X13571634Y-15964960D02*
X13552586Y-15974484D01*
X13552586Y-15974484D02*
X13533539Y-15974484D01*
X13533539Y-15974484D02*
X13514491Y-15964960D01*
X13514491Y-15964960D02*
X13504967Y-15955436D01*
X13504967Y-15955436D02*
X13495443Y-15936388D01*
X13495443Y-15936388D02*
X13485920Y-15898293D01*
X13485920Y-15898293D02*
X13485920Y-15850674D01*
X13485920Y-15850674D02*
X13495443Y-15812579D01*
X13495443Y-15812579D02*
X13504967Y-15793531D01*
X13504967Y-15793531D02*
X13514491Y-15784008D01*
X13514491Y-15784008D02*
X13533539Y-15774484D01*
X13685920Y-15974484D02*
X13685920Y-15841150D01*
X13685920Y-15860198D02*
X13695443Y-15850674D01*
X13695443Y-15850674D02*
X13714491Y-15841150D01*
X13714491Y-15841150D02*
X13743063Y-15841150D01*
X13743063Y-15841150D02*
X13762110Y-15850674D01*
X13762110Y-15850674D02*
X13771634Y-15869722D01*
X13771634Y-15869722D02*
X13771634Y-15974484D01*
X13771634Y-15869722D02*
X13781158Y-15850674D01*
X13781158Y-15850674D02*
X13800205Y-15841150D01*
X13800205Y-15841150D02*
X13828777Y-15841150D01*
X13828777Y-15841150D02*
X13847824Y-15850674D01*
X13847824Y-15850674D02*
X13857348Y-15869722D01*
X13857348Y-15869722D02*
X13857348Y-15974484D01*
X13952586Y-15974484D02*
X13952586Y-15841150D01*
X13952586Y-15860198D02*
X13962110Y-15850674D01*
X13962110Y-15850674D02*
X13981158Y-15841150D01*
X13981158Y-15841150D02*
X14009729Y-15841150D01*
X14009729Y-15841150D02*
X14028777Y-15850674D01*
X14028777Y-15850674D02*
X14038301Y-15869722D01*
X14038301Y-15869722D02*
X14038301Y-15974484D01*
X14038301Y-15869722D02*
X14047824Y-15850674D01*
X14047824Y-15850674D02*
X14066872Y-15841150D01*
X14066872Y-15841150D02*
X14095443Y-15841150D01*
X14095443Y-15841150D02*
X14114491Y-15850674D01*
X14114491Y-15850674D02*
X14124015Y-15869722D01*
X14124015Y-15869722D02*
X14124015Y-15974484D01*
X14514491Y-15764960D02*
X14343063Y-16022103D01*
X14771634Y-15774484D02*
X14790682Y-15774484D01*
X14790682Y-15774484D02*
X14809729Y-15784008D01*
X14809729Y-15784008D02*
X14819253Y-15793531D01*
X14819253Y-15793531D02*
X14828777Y-15812579D01*
X14828777Y-15812579D02*
X14838301Y-15850674D01*
X14838301Y-15850674D02*
X14838301Y-15898293D01*
X14838301Y-15898293D02*
X14828777Y-15936388D01*
X14828777Y-15936388D02*
X14819253Y-15955436D01*
X14819253Y-15955436D02*
X14809729Y-15964960D01*
X14809729Y-15964960D02*
X14790682Y-15974484D01*
X14790682Y-15974484D02*
X14771634Y-15974484D01*
X14771634Y-15974484D02*
X14752586Y-15964960D01*
X14752586Y-15964960D02*
X14743063Y-15955436D01*
X14743063Y-15955436D02*
X14733539Y-15936388D01*
X14733539Y-15936388D02*
X14724015Y-15898293D01*
X14724015Y-15898293D02*
X14724015Y-15850674D01*
X14724015Y-15850674D02*
X14733539Y-15812579D01*
X14733539Y-15812579D02*
X14743063Y-15793531D01*
X14743063Y-15793531D02*
X14752586Y-15784008D01*
X14752586Y-15784008D02*
X14771634Y-15774484D01*
X14924015Y-15955436D02*
X14933539Y-15964960D01*
X14933539Y-15964960D02*
X14924015Y-15974484D01*
X14924015Y-15974484D02*
X14914491Y-15964960D01*
X14914491Y-15964960D02*
X14924015Y-15955436D01*
X14924015Y-15955436D02*
X14924015Y-15974484D01*
X15057348Y-15774484D02*
X15076396Y-15774484D01*
X15076396Y-15774484D02*
X15095444Y-15784008D01*
X15095444Y-15784008D02*
X15104967Y-15793531D01*
X15104967Y-15793531D02*
X15114491Y-15812579D01*
X15114491Y-15812579D02*
X15124015Y-15850674D01*
X15124015Y-15850674D02*
X15124015Y-15898293D01*
X15124015Y-15898293D02*
X15114491Y-15936388D01*
X15114491Y-15936388D02*
X15104967Y-15955436D01*
X15104967Y-15955436D02*
X15095444Y-15964960D01*
X15095444Y-15964960D02*
X15076396Y-15974484D01*
X15076396Y-15974484D02*
X15057348Y-15974484D01*
X15057348Y-15974484D02*
X15038301Y-15964960D01*
X15038301Y-15964960D02*
X15028777Y-15955436D01*
X15028777Y-15955436D02*
X15019253Y-15936388D01*
X15019253Y-15936388D02*
X15009729Y-15898293D01*
X15009729Y-15898293D02*
X15009729Y-15850674D01*
X15009729Y-15850674D02*
X15019253Y-15812579D01*
X15019253Y-15812579D02*
X15028777Y-15793531D01*
X15028777Y-15793531D02*
X15038301Y-15784008D01*
X15038301Y-15784008D02*
X15057348Y-15774484D01*
X15238301Y-15860198D02*
X15219253Y-15850674D01*
X15219253Y-15850674D02*
X15209729Y-15841150D01*
X15209729Y-15841150D02*
X15200206Y-15822103D01*
X15200206Y-15822103D02*
X15200206Y-15812579D01*
X15200206Y-15812579D02*
X15209729Y-15793531D01*
X15209729Y-15793531D02*
X15219253Y-15784008D01*
X15219253Y-15784008D02*
X15238301Y-15774484D01*
X15238301Y-15774484D02*
X15276396Y-15774484D01*
X15276396Y-15774484D02*
X15295444Y-15784008D01*
X15295444Y-15784008D02*
X15304967Y-15793531D01*
X15304967Y-15793531D02*
X15314491Y-15812579D01*
X15314491Y-15812579D02*
X15314491Y-15822103D01*
X15314491Y-15822103D02*
X15304967Y-15841150D01*
X15304967Y-15841150D02*
X15295444Y-15850674D01*
X15295444Y-15850674D02*
X15276396Y-15860198D01*
X15276396Y-15860198D02*
X15238301Y-15860198D01*
X15238301Y-15860198D02*
X15219253Y-15869722D01*
X15219253Y-15869722D02*
X15209729Y-15879246D01*
X15209729Y-15879246D02*
X15200206Y-15898293D01*
X15200206Y-15898293D02*
X15200206Y-15936388D01*
X15200206Y-15936388D02*
X15209729Y-15955436D01*
X15209729Y-15955436D02*
X15219253Y-15964960D01*
X15219253Y-15964960D02*
X15238301Y-15974484D01*
X15238301Y-15974484D02*
X15276396Y-15974484D01*
X15276396Y-15974484D02*
X15295444Y-15964960D01*
X15295444Y-15964960D02*
X15304967Y-15955436D01*
X15304967Y-15955436D02*
X15314491Y-15936388D01*
X15314491Y-15936388D02*
X15314491Y-15898293D01*
X15314491Y-15898293D02*
X15304967Y-15879246D01*
X15304967Y-15879246D02*
X15295444Y-15869722D01*
X15295444Y-15869722D02*
X15276396Y-15860198D01*
X15485920Y-15774484D02*
X15447825Y-15774484D01*
X15447825Y-15774484D02*
X15428777Y-15784008D01*
X15428777Y-15784008D02*
X15419253Y-15793531D01*
X15419253Y-15793531D02*
X15400206Y-15822103D01*
X15400206Y-15822103D02*
X15390682Y-15860198D01*
X15390682Y-15860198D02*
X15390682Y-15936388D01*
X15390682Y-15936388D02*
X15400206Y-15955436D01*
X15400206Y-15955436D02*
X15409729Y-15964960D01*
X15409729Y-15964960D02*
X15428777Y-15974484D01*
X15428777Y-15974484D02*
X15466872Y-15974484D01*
X15466872Y-15974484D02*
X15485920Y-15964960D01*
X15485920Y-15964960D02*
X15495444Y-15955436D01*
X15495444Y-15955436D02*
X15504967Y-15936388D01*
X15504967Y-15936388D02*
X15504967Y-15888769D01*
X15504967Y-15888769D02*
X15495444Y-15869722D01*
X15495444Y-15869722D02*
X15485920Y-15860198D01*
X15485920Y-15860198D02*
X15466872Y-15850674D01*
X15466872Y-15850674D02*
X15428777Y-15850674D01*
X15428777Y-15850674D02*
X15409729Y-15860198D01*
X15409729Y-15860198D02*
X15400206Y-15869722D01*
X15400206Y-15869722D02*
X15390682Y-15888769D01*
X15676396Y-15774484D02*
X15638301Y-15774484D01*
X15638301Y-15774484D02*
X15619253Y-15784008D01*
X15619253Y-15784008D02*
X15609729Y-15793531D01*
X15609729Y-15793531D02*
X15590682Y-15822103D01*
X15590682Y-15822103D02*
X15581158Y-15860198D01*
X15581158Y-15860198D02*
X15581158Y-15936388D01*
X15581158Y-15936388D02*
X15590682Y-15955436D01*
X15590682Y-15955436D02*
X15600206Y-15964960D01*
X15600206Y-15964960D02*
X15619253Y-15974484D01*
X15619253Y-15974484D02*
X15657348Y-15974484D01*
X15657348Y-15974484D02*
X15676396Y-15964960D01*
X15676396Y-15964960D02*
X15685920Y-15955436D01*
X15685920Y-15955436D02*
X15695444Y-15936388D01*
X15695444Y-15936388D02*
X15695444Y-15888769D01*
X15695444Y-15888769D02*
X15685920Y-15869722D01*
X15685920Y-15869722D02*
X15676396Y-15860198D01*
X15676396Y-15860198D02*
X15657348Y-15850674D01*
X15657348Y-15850674D02*
X15619253Y-15850674D01*
X15619253Y-15850674D02*
X15600206Y-15860198D01*
X15600206Y-15860198D02*
X15590682Y-15869722D01*
X15590682Y-15869722D02*
X15581158Y-15888769D01*
X15771634Y-15774484D02*
X15771634Y-15812579D01*
X15847825Y-15774484D02*
X15847825Y-15812579D01*
X16143063Y-16050674D02*
X16133539Y-16041150D01*
X16133539Y-16041150D02*
X16114491Y-16012579D01*
X16114491Y-16012579D02*
X16104968Y-15993531D01*
X16104968Y-15993531D02*
X16095444Y-15964960D01*
X16095444Y-15964960D02*
X16085920Y-15917341D01*
X16085920Y-15917341D02*
X16085920Y-15879246D01*
X16085920Y-15879246D02*
X16095444Y-15831627D01*
X16095444Y-15831627D02*
X16104968Y-15803055D01*
X16104968Y-15803055D02*
X16114491Y-15784008D01*
X16114491Y-15784008D02*
X16133539Y-15755436D01*
X16133539Y-15755436D02*
X16143063Y-15745912D01*
X16304968Y-15841150D02*
X16304968Y-15974484D01*
X16257348Y-15764960D02*
X16209729Y-15907817D01*
X16209729Y-15907817D02*
X16333539Y-15907817D01*
X16562110Y-15974484D02*
X16562110Y-15774484D01*
X16647825Y-15974484D02*
X16647825Y-15869722D01*
X16647825Y-15869722D02*
X16638301Y-15850674D01*
X16638301Y-15850674D02*
X16619253Y-15841150D01*
X16619253Y-15841150D02*
X16590682Y-15841150D01*
X16590682Y-15841150D02*
X16571634Y-15850674D01*
X16571634Y-15850674D02*
X16562110Y-15860198D01*
X16771634Y-15974484D02*
X16752587Y-15964960D01*
X16752587Y-15964960D02*
X16743063Y-15955436D01*
X16743063Y-15955436D02*
X16733539Y-15936388D01*
X16733539Y-15936388D02*
X16733539Y-15879246D01*
X16733539Y-15879246D02*
X16743063Y-15860198D01*
X16743063Y-15860198D02*
X16752587Y-15850674D01*
X16752587Y-15850674D02*
X16771634Y-15841150D01*
X16771634Y-15841150D02*
X16800206Y-15841150D01*
X16800206Y-15841150D02*
X16819253Y-15850674D01*
X16819253Y-15850674D02*
X16828777Y-15860198D01*
X16828777Y-15860198D02*
X16838301Y-15879246D01*
X16838301Y-15879246D02*
X16838301Y-15936388D01*
X16838301Y-15936388D02*
X16828777Y-15955436D01*
X16828777Y-15955436D02*
X16819253Y-15964960D01*
X16819253Y-15964960D02*
X16800206Y-15974484D01*
X16800206Y-15974484D02*
X16771634Y-15974484D01*
X16952587Y-15974484D02*
X16933539Y-15964960D01*
X16933539Y-15964960D02*
X16924015Y-15945912D01*
X16924015Y-15945912D02*
X16924015Y-15774484D01*
X17104968Y-15964960D02*
X17085920Y-15974484D01*
X17085920Y-15974484D02*
X17047825Y-15974484D01*
X17047825Y-15974484D02*
X17028777Y-15964960D01*
X17028777Y-15964960D02*
X17019253Y-15945912D01*
X17019253Y-15945912D02*
X17019253Y-15869722D01*
X17019253Y-15869722D02*
X17028777Y-15850674D01*
X17028777Y-15850674D02*
X17047825Y-15841150D01*
X17047825Y-15841150D02*
X17085920Y-15841150D01*
X17085920Y-15841150D02*
X17104968Y-15850674D01*
X17104968Y-15850674D02*
X17114492Y-15869722D01*
X17114492Y-15869722D02*
X17114492Y-15888769D01*
X17114492Y-15888769D02*
X17019253Y-15907817D01*
X17190682Y-15964960D02*
X17209730Y-15974484D01*
X17209730Y-15974484D02*
X17247825Y-15974484D01*
X17247825Y-15974484D02*
X17266873Y-15964960D01*
X17266873Y-15964960D02*
X17276396Y-15945912D01*
X17276396Y-15945912D02*
X17276396Y-15936388D01*
X17276396Y-15936388D02*
X17266873Y-15917341D01*
X17266873Y-15917341D02*
X17247825Y-15907817D01*
X17247825Y-15907817D02*
X17219253Y-15907817D01*
X17219253Y-15907817D02*
X17200206Y-15898293D01*
X17200206Y-15898293D02*
X17190682Y-15879246D01*
X17190682Y-15879246D02*
X17190682Y-15869722D01*
X17190682Y-15869722D02*
X17200206Y-15850674D01*
X17200206Y-15850674D02*
X17219253Y-15841150D01*
X17219253Y-15841150D02*
X17247825Y-15841150D01*
X17247825Y-15841150D02*
X17266873Y-15850674D01*
X17343063Y-16050674D02*
X17352587Y-16041150D01*
X17352587Y-16041150D02*
X17371634Y-16012579D01*
X17371634Y-16012579D02*
X17381158Y-15993531D01*
X17381158Y-15993531D02*
X17390682Y-15964960D01*
X17390682Y-15964960D02*
X17400206Y-15917341D01*
X17400206Y-15917341D02*
X17400206Y-15879246D01*
X17400206Y-15879246D02*
X17390682Y-15831627D01*
X17390682Y-15831627D02*
X17381158Y-15803055D01*
X17381158Y-15803055D02*
X17371634Y-15784008D01*
X17371634Y-15784008D02*
X17352587Y-15755436D01*
X17352587Y-15755436D02*
X17343063Y-15745912D01*
M02*
