%TF.GenerationSoftware,KiCad,Pcbnew,7.0.9*%
%TF.CreationDate,2023-12-16T00:09:48+09:00*%
%TF.ProjectId,STM32F405_dev_board,53544d33-3246-4343-9035-5f6465765f62,1.0.0*%
%TF.SameCoordinates,Original*%
%TF.FileFunction,Legend,Top*%
%TF.FilePolarity,Positive*%
%FSLAX46Y46*%
G04 Gerber Fmt 4.6, Leading zero omitted, Abs format (unit mm)*
G04 Created by KiCad (PCBNEW 7.0.9) date 2023-12-16 00:09:48*
%MOMM*%
%LPD*%
G01*
G04 APERTURE LIST*
%ADD10C,0.150000*%
%ADD11C,0.254000*%
%ADD12C,0.200000*%
%ADD13C,0.100000*%
%ADD14C,0.120000*%
G04 APERTURE END LIST*
D10*
X155911779Y-114169819D02*
X155911779Y-113169819D01*
X155911779Y-113169819D02*
X156292731Y-113169819D01*
X156292731Y-113169819D02*
X156387969Y-113217438D01*
X156387969Y-113217438D02*
X156435588Y-113265057D01*
X156435588Y-113265057D02*
X156483207Y-113360295D01*
X156483207Y-113360295D02*
X156483207Y-113503152D01*
X156483207Y-113503152D02*
X156435588Y-113598390D01*
X156435588Y-113598390D02*
X156387969Y-113646009D01*
X156387969Y-113646009D02*
X156292731Y-113693628D01*
X156292731Y-113693628D02*
X155911779Y-113693628D01*
X157245112Y-113646009D02*
X157387969Y-113693628D01*
X157387969Y-113693628D02*
X157435588Y-113741247D01*
X157435588Y-113741247D02*
X157483207Y-113836485D01*
X157483207Y-113836485D02*
X157483207Y-113979342D01*
X157483207Y-113979342D02*
X157435588Y-114074580D01*
X157435588Y-114074580D02*
X157387969Y-114122200D01*
X157387969Y-114122200D02*
X157292731Y-114169819D01*
X157292731Y-114169819D02*
X156911779Y-114169819D01*
X156911779Y-114169819D02*
X156911779Y-113169819D01*
X156911779Y-113169819D02*
X157245112Y-113169819D01*
X157245112Y-113169819D02*
X157340350Y-113217438D01*
X157340350Y-113217438D02*
X157387969Y-113265057D01*
X157387969Y-113265057D02*
X157435588Y-113360295D01*
X157435588Y-113360295D02*
X157435588Y-113455533D01*
X157435588Y-113455533D02*
X157387969Y-113550771D01*
X157387969Y-113550771D02*
X157340350Y-113598390D01*
X157340350Y-113598390D02*
X157245112Y-113646009D01*
X157245112Y-113646009D02*
X156911779Y-113646009D01*
X158435588Y-114169819D02*
X157864160Y-114169819D01*
X158149874Y-114169819D02*
X158149874Y-113169819D01*
X158149874Y-113169819D02*
X158054636Y-113312676D01*
X158054636Y-113312676D02*
X157959398Y-113407914D01*
X157959398Y-113407914D02*
X157864160Y-113455533D01*
X159340350Y-113169819D02*
X158864160Y-113169819D01*
X158864160Y-113169819D02*
X158816541Y-113646009D01*
X158816541Y-113646009D02*
X158864160Y-113598390D01*
X158864160Y-113598390D02*
X158959398Y-113550771D01*
X158959398Y-113550771D02*
X159197493Y-113550771D01*
X159197493Y-113550771D02*
X159292731Y-113598390D01*
X159292731Y-113598390D02*
X159340350Y-113646009D01*
X159340350Y-113646009D02*
X159387969Y-113741247D01*
X159387969Y-113741247D02*
X159387969Y-113979342D01*
X159387969Y-113979342D02*
X159340350Y-114074580D01*
X159340350Y-114074580D02*
X159292731Y-114122200D01*
X159292731Y-114122200D02*
X159197493Y-114169819D01*
X159197493Y-114169819D02*
X158959398Y-114169819D01*
X158959398Y-114169819D02*
X158864160Y-114122200D01*
X158864160Y-114122200D02*
X158816541Y-114074580D01*
X131146779Y-119249819D02*
X131146779Y-118249819D01*
X131146779Y-118249819D02*
X131527731Y-118249819D01*
X131527731Y-118249819D02*
X131622969Y-118297438D01*
X131622969Y-118297438D02*
X131670588Y-118345057D01*
X131670588Y-118345057D02*
X131718207Y-118440295D01*
X131718207Y-118440295D02*
X131718207Y-118583152D01*
X131718207Y-118583152D02*
X131670588Y-118678390D01*
X131670588Y-118678390D02*
X131622969Y-118726009D01*
X131622969Y-118726009D02*
X131527731Y-118773628D01*
X131527731Y-118773628D02*
X131146779Y-118773628D01*
X132099160Y-118964104D02*
X132575350Y-118964104D01*
X132003922Y-119249819D02*
X132337255Y-118249819D01*
X132337255Y-118249819D02*
X132670588Y-119249819D01*
X132908684Y-118249819D02*
X133527731Y-118249819D01*
X133527731Y-118249819D02*
X133194398Y-118630771D01*
X133194398Y-118630771D02*
X133337255Y-118630771D01*
X133337255Y-118630771D02*
X133432493Y-118678390D01*
X133432493Y-118678390D02*
X133480112Y-118726009D01*
X133480112Y-118726009D02*
X133527731Y-118821247D01*
X133527731Y-118821247D02*
X133527731Y-119059342D01*
X133527731Y-119059342D02*
X133480112Y-119154580D01*
X133480112Y-119154580D02*
X133432493Y-119202200D01*
X133432493Y-119202200D02*
X133337255Y-119249819D01*
X133337255Y-119249819D02*
X133051541Y-119249819D01*
X133051541Y-119249819D02*
X132956303Y-119202200D01*
X132956303Y-119202200D02*
X132908684Y-119154580D01*
X155911779Y-129409819D02*
X155911779Y-128409819D01*
X155911779Y-128409819D02*
X156292731Y-128409819D01*
X156292731Y-128409819D02*
X156387969Y-128457438D01*
X156387969Y-128457438D02*
X156435588Y-128505057D01*
X156435588Y-128505057D02*
X156483207Y-128600295D01*
X156483207Y-128600295D02*
X156483207Y-128743152D01*
X156483207Y-128743152D02*
X156435588Y-128838390D01*
X156435588Y-128838390D02*
X156387969Y-128886009D01*
X156387969Y-128886009D02*
X156292731Y-128933628D01*
X156292731Y-128933628D02*
X155911779Y-128933628D01*
X157245112Y-128886009D02*
X157387969Y-128933628D01*
X157387969Y-128933628D02*
X157435588Y-128981247D01*
X157435588Y-128981247D02*
X157483207Y-129076485D01*
X157483207Y-129076485D02*
X157483207Y-129219342D01*
X157483207Y-129219342D02*
X157435588Y-129314580D01*
X157435588Y-129314580D02*
X157387969Y-129362200D01*
X157387969Y-129362200D02*
X157292731Y-129409819D01*
X157292731Y-129409819D02*
X156911779Y-129409819D01*
X156911779Y-129409819D02*
X156911779Y-128409819D01*
X156911779Y-128409819D02*
X157245112Y-128409819D01*
X157245112Y-128409819D02*
X157340350Y-128457438D01*
X157340350Y-128457438D02*
X157387969Y-128505057D01*
X157387969Y-128505057D02*
X157435588Y-128600295D01*
X157435588Y-128600295D02*
X157435588Y-128695533D01*
X157435588Y-128695533D02*
X157387969Y-128790771D01*
X157387969Y-128790771D02*
X157340350Y-128838390D01*
X157340350Y-128838390D02*
X157245112Y-128886009D01*
X157245112Y-128886009D02*
X156911779Y-128886009D01*
X158435588Y-129409819D02*
X157864160Y-129409819D01*
X158149874Y-129409819D02*
X158149874Y-128409819D01*
X158149874Y-128409819D02*
X158054636Y-128552676D01*
X158054636Y-128552676D02*
X157959398Y-128647914D01*
X157959398Y-128647914D02*
X157864160Y-128695533D01*
X131146779Y-104009819D02*
X131146779Y-103009819D01*
X131146779Y-103009819D02*
X131527731Y-103009819D01*
X131527731Y-103009819D02*
X131622969Y-103057438D01*
X131622969Y-103057438D02*
X131670588Y-103105057D01*
X131670588Y-103105057D02*
X131718207Y-103200295D01*
X131718207Y-103200295D02*
X131718207Y-103343152D01*
X131718207Y-103343152D02*
X131670588Y-103438390D01*
X131670588Y-103438390D02*
X131622969Y-103486009D01*
X131622969Y-103486009D02*
X131527731Y-103533628D01*
X131527731Y-103533628D02*
X131146779Y-103533628D01*
X132718207Y-103914580D02*
X132670588Y-103962200D01*
X132670588Y-103962200D02*
X132527731Y-104009819D01*
X132527731Y-104009819D02*
X132432493Y-104009819D01*
X132432493Y-104009819D02*
X132289636Y-103962200D01*
X132289636Y-103962200D02*
X132194398Y-103866961D01*
X132194398Y-103866961D02*
X132146779Y-103771723D01*
X132146779Y-103771723D02*
X132099160Y-103581247D01*
X132099160Y-103581247D02*
X132099160Y-103438390D01*
X132099160Y-103438390D02*
X132146779Y-103247914D01*
X132146779Y-103247914D02*
X132194398Y-103152676D01*
X132194398Y-103152676D02*
X132289636Y-103057438D01*
X132289636Y-103057438D02*
X132432493Y-103009819D01*
X132432493Y-103009819D02*
X132527731Y-103009819D01*
X132527731Y-103009819D02*
X132670588Y-103057438D01*
X132670588Y-103057438D02*
X132718207Y-103105057D01*
X133670588Y-104009819D02*
X133099160Y-104009819D01*
X133384874Y-104009819D02*
X133384874Y-103009819D01*
X133384874Y-103009819D02*
X133289636Y-103152676D01*
X133289636Y-103152676D02*
X133194398Y-103247914D01*
X133194398Y-103247914D02*
X133099160Y-103295533D01*
X155911779Y-116709819D02*
X155911779Y-115709819D01*
X155911779Y-115709819D02*
X156292731Y-115709819D01*
X156292731Y-115709819D02*
X156387969Y-115757438D01*
X156387969Y-115757438D02*
X156435588Y-115805057D01*
X156435588Y-115805057D02*
X156483207Y-115900295D01*
X156483207Y-115900295D02*
X156483207Y-116043152D01*
X156483207Y-116043152D02*
X156435588Y-116138390D01*
X156435588Y-116138390D02*
X156387969Y-116186009D01*
X156387969Y-116186009D02*
X156292731Y-116233628D01*
X156292731Y-116233628D02*
X155911779Y-116233628D01*
X157245112Y-116186009D02*
X157387969Y-116233628D01*
X157387969Y-116233628D02*
X157435588Y-116281247D01*
X157435588Y-116281247D02*
X157483207Y-116376485D01*
X157483207Y-116376485D02*
X157483207Y-116519342D01*
X157483207Y-116519342D02*
X157435588Y-116614580D01*
X157435588Y-116614580D02*
X157387969Y-116662200D01*
X157387969Y-116662200D02*
X157292731Y-116709819D01*
X157292731Y-116709819D02*
X156911779Y-116709819D01*
X156911779Y-116709819D02*
X156911779Y-115709819D01*
X156911779Y-115709819D02*
X157245112Y-115709819D01*
X157245112Y-115709819D02*
X157340350Y-115757438D01*
X157340350Y-115757438D02*
X157387969Y-115805057D01*
X157387969Y-115805057D02*
X157435588Y-115900295D01*
X157435588Y-115900295D02*
X157435588Y-115995533D01*
X157435588Y-115995533D02*
X157387969Y-116090771D01*
X157387969Y-116090771D02*
X157340350Y-116138390D01*
X157340350Y-116138390D02*
X157245112Y-116186009D01*
X157245112Y-116186009D02*
X156911779Y-116186009D01*
X158435588Y-116709819D02*
X157864160Y-116709819D01*
X158149874Y-116709819D02*
X158149874Y-115709819D01*
X158149874Y-115709819D02*
X158054636Y-115852676D01*
X158054636Y-115852676D02*
X157959398Y-115947914D01*
X157959398Y-115947914D02*
X157864160Y-115995533D01*
X159292731Y-116043152D02*
X159292731Y-116709819D01*
X159054636Y-115662200D02*
X158816541Y-116376485D01*
X158816541Y-116376485D02*
X159435588Y-116376485D01*
X155911779Y-93849819D02*
X155911779Y-92849819D01*
X155911779Y-92849819D02*
X156292731Y-92849819D01*
X156292731Y-92849819D02*
X156387969Y-92897438D01*
X156387969Y-92897438D02*
X156435588Y-92945057D01*
X156435588Y-92945057D02*
X156483207Y-93040295D01*
X156483207Y-93040295D02*
X156483207Y-93183152D01*
X156483207Y-93183152D02*
X156435588Y-93278390D01*
X156435588Y-93278390D02*
X156387969Y-93326009D01*
X156387969Y-93326009D02*
X156292731Y-93373628D01*
X156292731Y-93373628D02*
X155911779Y-93373628D01*
X157483207Y-93754580D02*
X157435588Y-93802200D01*
X157435588Y-93802200D02*
X157292731Y-93849819D01*
X157292731Y-93849819D02*
X157197493Y-93849819D01*
X157197493Y-93849819D02*
X157054636Y-93802200D01*
X157054636Y-93802200D02*
X156959398Y-93706961D01*
X156959398Y-93706961D02*
X156911779Y-93611723D01*
X156911779Y-93611723D02*
X156864160Y-93421247D01*
X156864160Y-93421247D02*
X156864160Y-93278390D01*
X156864160Y-93278390D02*
X156911779Y-93087914D01*
X156911779Y-93087914D02*
X156959398Y-92992676D01*
X156959398Y-92992676D02*
X157054636Y-92897438D01*
X157054636Y-92897438D02*
X157197493Y-92849819D01*
X157197493Y-92849819D02*
X157292731Y-92849819D01*
X157292731Y-92849819D02*
X157435588Y-92897438D01*
X157435588Y-92897438D02*
X157483207Y-92945057D01*
X158435588Y-93849819D02*
X157864160Y-93849819D01*
X158149874Y-93849819D02*
X158149874Y-92849819D01*
X158149874Y-92849819D02*
X158054636Y-92992676D01*
X158054636Y-92992676D02*
X157959398Y-93087914D01*
X157959398Y-93087914D02*
X157864160Y-93135533D01*
X159054636Y-92849819D02*
X159149874Y-92849819D01*
X159149874Y-92849819D02*
X159245112Y-92897438D01*
X159245112Y-92897438D02*
X159292731Y-92945057D01*
X159292731Y-92945057D02*
X159340350Y-93040295D01*
X159340350Y-93040295D02*
X159387969Y-93230771D01*
X159387969Y-93230771D02*
X159387969Y-93468866D01*
X159387969Y-93468866D02*
X159340350Y-93659342D01*
X159340350Y-93659342D02*
X159292731Y-93754580D01*
X159292731Y-93754580D02*
X159245112Y-93802200D01*
X159245112Y-93802200D02*
X159149874Y-93849819D01*
X159149874Y-93849819D02*
X159054636Y-93849819D01*
X159054636Y-93849819D02*
X158959398Y-93802200D01*
X158959398Y-93802200D02*
X158911779Y-93754580D01*
X158911779Y-93754580D02*
X158864160Y-93659342D01*
X158864160Y-93659342D02*
X158816541Y-93468866D01*
X158816541Y-93468866D02*
X158816541Y-93230771D01*
X158816541Y-93230771D02*
X158864160Y-93040295D01*
X158864160Y-93040295D02*
X158911779Y-92945057D01*
X158911779Y-92945057D02*
X158959398Y-92897438D01*
X158959398Y-92897438D02*
X159054636Y-92849819D01*
X131718207Y-121789819D02*
X131384874Y-121313628D01*
X131146779Y-121789819D02*
X131146779Y-120789819D01*
X131146779Y-120789819D02*
X131527731Y-120789819D01*
X131527731Y-120789819D02*
X131622969Y-120837438D01*
X131622969Y-120837438D02*
X131670588Y-120885057D01*
X131670588Y-120885057D02*
X131718207Y-120980295D01*
X131718207Y-120980295D02*
X131718207Y-121123152D01*
X131718207Y-121123152D02*
X131670588Y-121218390D01*
X131670588Y-121218390D02*
X131622969Y-121266009D01*
X131622969Y-121266009D02*
X131527731Y-121313628D01*
X131527731Y-121313628D02*
X131146779Y-121313628D01*
X132099160Y-121742200D02*
X132242017Y-121789819D01*
X132242017Y-121789819D02*
X132480112Y-121789819D01*
X132480112Y-121789819D02*
X132575350Y-121742200D01*
X132575350Y-121742200D02*
X132622969Y-121694580D01*
X132622969Y-121694580D02*
X132670588Y-121599342D01*
X132670588Y-121599342D02*
X132670588Y-121504104D01*
X132670588Y-121504104D02*
X132622969Y-121408866D01*
X132622969Y-121408866D02*
X132575350Y-121361247D01*
X132575350Y-121361247D02*
X132480112Y-121313628D01*
X132480112Y-121313628D02*
X132289636Y-121266009D01*
X132289636Y-121266009D02*
X132194398Y-121218390D01*
X132194398Y-121218390D02*
X132146779Y-121170771D01*
X132146779Y-121170771D02*
X132099160Y-121075533D01*
X132099160Y-121075533D02*
X132099160Y-120980295D01*
X132099160Y-120980295D02*
X132146779Y-120885057D01*
X132146779Y-120885057D02*
X132194398Y-120837438D01*
X132194398Y-120837438D02*
X132289636Y-120789819D01*
X132289636Y-120789819D02*
X132527731Y-120789819D01*
X132527731Y-120789819D02*
X132670588Y-120837438D01*
X132956303Y-120789819D02*
X133527731Y-120789819D01*
X133242017Y-121789819D02*
X133242017Y-120789819D01*
X131146779Y-109089819D02*
X131146779Y-108089819D01*
X131146779Y-108089819D02*
X131527731Y-108089819D01*
X131527731Y-108089819D02*
X131622969Y-108137438D01*
X131622969Y-108137438D02*
X131670588Y-108185057D01*
X131670588Y-108185057D02*
X131718207Y-108280295D01*
X131718207Y-108280295D02*
X131718207Y-108423152D01*
X131718207Y-108423152D02*
X131670588Y-108518390D01*
X131670588Y-108518390D02*
X131622969Y-108566009D01*
X131622969Y-108566009D02*
X131527731Y-108613628D01*
X131527731Y-108613628D02*
X131146779Y-108613628D01*
X132718207Y-108994580D02*
X132670588Y-109042200D01*
X132670588Y-109042200D02*
X132527731Y-109089819D01*
X132527731Y-109089819D02*
X132432493Y-109089819D01*
X132432493Y-109089819D02*
X132289636Y-109042200D01*
X132289636Y-109042200D02*
X132194398Y-108946961D01*
X132194398Y-108946961D02*
X132146779Y-108851723D01*
X132146779Y-108851723D02*
X132099160Y-108661247D01*
X132099160Y-108661247D02*
X132099160Y-108518390D01*
X132099160Y-108518390D02*
X132146779Y-108327914D01*
X132146779Y-108327914D02*
X132194398Y-108232676D01*
X132194398Y-108232676D02*
X132289636Y-108137438D01*
X132289636Y-108137438D02*
X132432493Y-108089819D01*
X132432493Y-108089819D02*
X132527731Y-108089819D01*
X132527731Y-108089819D02*
X132670588Y-108137438D01*
X132670588Y-108137438D02*
X132718207Y-108185057D01*
X133051541Y-108089819D02*
X133670588Y-108089819D01*
X133670588Y-108089819D02*
X133337255Y-108470771D01*
X133337255Y-108470771D02*
X133480112Y-108470771D01*
X133480112Y-108470771D02*
X133575350Y-108518390D01*
X133575350Y-108518390D02*
X133622969Y-108566009D01*
X133622969Y-108566009D02*
X133670588Y-108661247D01*
X133670588Y-108661247D02*
X133670588Y-108899342D01*
X133670588Y-108899342D02*
X133622969Y-108994580D01*
X133622969Y-108994580D02*
X133575350Y-109042200D01*
X133575350Y-109042200D02*
X133480112Y-109089819D01*
X133480112Y-109089819D02*
X133194398Y-109089819D01*
X133194398Y-109089819D02*
X133099160Y-109042200D01*
X133099160Y-109042200D02*
X133051541Y-108994580D01*
X155911779Y-119249819D02*
X155911779Y-118249819D01*
X155911779Y-118249819D02*
X156292731Y-118249819D01*
X156292731Y-118249819D02*
X156387969Y-118297438D01*
X156387969Y-118297438D02*
X156435588Y-118345057D01*
X156435588Y-118345057D02*
X156483207Y-118440295D01*
X156483207Y-118440295D02*
X156483207Y-118583152D01*
X156483207Y-118583152D02*
X156435588Y-118678390D01*
X156435588Y-118678390D02*
X156387969Y-118726009D01*
X156387969Y-118726009D02*
X156292731Y-118773628D01*
X156292731Y-118773628D02*
X155911779Y-118773628D01*
X157245112Y-118726009D02*
X157387969Y-118773628D01*
X157387969Y-118773628D02*
X157435588Y-118821247D01*
X157435588Y-118821247D02*
X157483207Y-118916485D01*
X157483207Y-118916485D02*
X157483207Y-119059342D01*
X157483207Y-119059342D02*
X157435588Y-119154580D01*
X157435588Y-119154580D02*
X157387969Y-119202200D01*
X157387969Y-119202200D02*
X157292731Y-119249819D01*
X157292731Y-119249819D02*
X156911779Y-119249819D01*
X156911779Y-119249819D02*
X156911779Y-118249819D01*
X156911779Y-118249819D02*
X157245112Y-118249819D01*
X157245112Y-118249819D02*
X157340350Y-118297438D01*
X157340350Y-118297438D02*
X157387969Y-118345057D01*
X157387969Y-118345057D02*
X157435588Y-118440295D01*
X157435588Y-118440295D02*
X157435588Y-118535533D01*
X157435588Y-118535533D02*
X157387969Y-118630771D01*
X157387969Y-118630771D02*
X157340350Y-118678390D01*
X157340350Y-118678390D02*
X157245112Y-118726009D01*
X157245112Y-118726009D02*
X156911779Y-118726009D01*
X158435588Y-119249819D02*
X157864160Y-119249819D01*
X158149874Y-119249819D02*
X158149874Y-118249819D01*
X158149874Y-118249819D02*
X158054636Y-118392676D01*
X158054636Y-118392676D02*
X157959398Y-118487914D01*
X157959398Y-118487914D02*
X157864160Y-118535533D01*
X158768922Y-118249819D02*
X159387969Y-118249819D01*
X159387969Y-118249819D02*
X159054636Y-118630771D01*
X159054636Y-118630771D02*
X159197493Y-118630771D01*
X159197493Y-118630771D02*
X159292731Y-118678390D01*
X159292731Y-118678390D02*
X159340350Y-118726009D01*
X159340350Y-118726009D02*
X159387969Y-118821247D01*
X159387969Y-118821247D02*
X159387969Y-119059342D01*
X159387969Y-119059342D02*
X159340350Y-119154580D01*
X159340350Y-119154580D02*
X159292731Y-119202200D01*
X159292731Y-119202200D02*
X159197493Y-119249819D01*
X159197493Y-119249819D02*
X158911779Y-119249819D01*
X158911779Y-119249819D02*
X158816541Y-119202200D01*
X158816541Y-119202200D02*
X158768922Y-119154580D01*
X131146779Y-83689819D02*
X131146779Y-82689819D01*
X131146779Y-82689819D02*
X131527731Y-82689819D01*
X131527731Y-82689819D02*
X131622969Y-82737438D01*
X131622969Y-82737438D02*
X131670588Y-82785057D01*
X131670588Y-82785057D02*
X131718207Y-82880295D01*
X131718207Y-82880295D02*
X131718207Y-83023152D01*
X131718207Y-83023152D02*
X131670588Y-83118390D01*
X131670588Y-83118390D02*
X131622969Y-83166009D01*
X131622969Y-83166009D02*
X131527731Y-83213628D01*
X131527731Y-83213628D02*
X131146779Y-83213628D01*
X132480112Y-83166009D02*
X132622969Y-83213628D01*
X132622969Y-83213628D02*
X132670588Y-83261247D01*
X132670588Y-83261247D02*
X132718207Y-83356485D01*
X132718207Y-83356485D02*
X132718207Y-83499342D01*
X132718207Y-83499342D02*
X132670588Y-83594580D01*
X132670588Y-83594580D02*
X132622969Y-83642200D01*
X132622969Y-83642200D02*
X132527731Y-83689819D01*
X132527731Y-83689819D02*
X132146779Y-83689819D01*
X132146779Y-83689819D02*
X132146779Y-82689819D01*
X132146779Y-82689819D02*
X132480112Y-82689819D01*
X132480112Y-82689819D02*
X132575350Y-82737438D01*
X132575350Y-82737438D02*
X132622969Y-82785057D01*
X132622969Y-82785057D02*
X132670588Y-82880295D01*
X132670588Y-82880295D02*
X132670588Y-82975533D01*
X132670588Y-82975533D02*
X132622969Y-83070771D01*
X132622969Y-83070771D02*
X132575350Y-83118390D01*
X132575350Y-83118390D02*
X132480112Y-83166009D01*
X132480112Y-83166009D02*
X132146779Y-83166009D01*
X133575350Y-82689819D02*
X133384874Y-82689819D01*
X133384874Y-82689819D02*
X133289636Y-82737438D01*
X133289636Y-82737438D02*
X133242017Y-82785057D01*
X133242017Y-82785057D02*
X133146779Y-82927914D01*
X133146779Y-82927914D02*
X133099160Y-83118390D01*
X133099160Y-83118390D02*
X133099160Y-83499342D01*
X133099160Y-83499342D02*
X133146779Y-83594580D01*
X133146779Y-83594580D02*
X133194398Y-83642200D01*
X133194398Y-83642200D02*
X133289636Y-83689819D01*
X133289636Y-83689819D02*
X133480112Y-83689819D01*
X133480112Y-83689819D02*
X133575350Y-83642200D01*
X133575350Y-83642200D02*
X133622969Y-83594580D01*
X133622969Y-83594580D02*
X133670588Y-83499342D01*
X133670588Y-83499342D02*
X133670588Y-83261247D01*
X133670588Y-83261247D02*
X133622969Y-83166009D01*
X133622969Y-83166009D02*
X133575350Y-83118390D01*
X133575350Y-83118390D02*
X133480112Y-83070771D01*
X133480112Y-83070771D02*
X133289636Y-83070771D01*
X133289636Y-83070771D02*
X133194398Y-83118390D01*
X133194398Y-83118390D02*
X133146779Y-83166009D01*
X133146779Y-83166009D02*
X133099160Y-83261247D01*
X131146779Y-91309819D02*
X131146779Y-90309819D01*
X131146779Y-90309819D02*
X131527731Y-90309819D01*
X131527731Y-90309819D02*
X131622969Y-90357438D01*
X131622969Y-90357438D02*
X131670588Y-90405057D01*
X131670588Y-90405057D02*
X131718207Y-90500295D01*
X131718207Y-90500295D02*
X131718207Y-90643152D01*
X131718207Y-90643152D02*
X131670588Y-90738390D01*
X131670588Y-90738390D02*
X131622969Y-90786009D01*
X131622969Y-90786009D02*
X131527731Y-90833628D01*
X131527731Y-90833628D02*
X131146779Y-90833628D01*
X132480112Y-90786009D02*
X132622969Y-90833628D01*
X132622969Y-90833628D02*
X132670588Y-90881247D01*
X132670588Y-90881247D02*
X132718207Y-90976485D01*
X132718207Y-90976485D02*
X132718207Y-91119342D01*
X132718207Y-91119342D02*
X132670588Y-91214580D01*
X132670588Y-91214580D02*
X132622969Y-91262200D01*
X132622969Y-91262200D02*
X132527731Y-91309819D01*
X132527731Y-91309819D02*
X132146779Y-91309819D01*
X132146779Y-91309819D02*
X132146779Y-90309819D01*
X132146779Y-90309819D02*
X132480112Y-90309819D01*
X132480112Y-90309819D02*
X132575350Y-90357438D01*
X132575350Y-90357438D02*
X132622969Y-90405057D01*
X132622969Y-90405057D02*
X132670588Y-90500295D01*
X132670588Y-90500295D02*
X132670588Y-90595533D01*
X132670588Y-90595533D02*
X132622969Y-90690771D01*
X132622969Y-90690771D02*
X132575350Y-90738390D01*
X132575350Y-90738390D02*
X132480112Y-90786009D01*
X132480112Y-90786009D02*
X132146779Y-90786009D01*
X133194398Y-91309819D02*
X133384874Y-91309819D01*
X133384874Y-91309819D02*
X133480112Y-91262200D01*
X133480112Y-91262200D02*
X133527731Y-91214580D01*
X133527731Y-91214580D02*
X133622969Y-91071723D01*
X133622969Y-91071723D02*
X133670588Y-90881247D01*
X133670588Y-90881247D02*
X133670588Y-90500295D01*
X133670588Y-90500295D02*
X133622969Y-90405057D01*
X133622969Y-90405057D02*
X133575350Y-90357438D01*
X133575350Y-90357438D02*
X133480112Y-90309819D01*
X133480112Y-90309819D02*
X133289636Y-90309819D01*
X133289636Y-90309819D02*
X133194398Y-90357438D01*
X133194398Y-90357438D02*
X133146779Y-90405057D01*
X133146779Y-90405057D02*
X133099160Y-90500295D01*
X133099160Y-90500295D02*
X133099160Y-90738390D01*
X133099160Y-90738390D02*
X133146779Y-90833628D01*
X133146779Y-90833628D02*
X133194398Y-90881247D01*
X133194398Y-90881247D02*
X133289636Y-90928866D01*
X133289636Y-90928866D02*
X133480112Y-90928866D01*
X133480112Y-90928866D02*
X133575350Y-90881247D01*
X133575350Y-90881247D02*
X133622969Y-90833628D01*
X133622969Y-90833628D02*
X133670588Y-90738390D01*
X131003922Y-80149819D02*
X131337255Y-81149819D01*
X131337255Y-81149819D02*
X131670588Y-80149819D01*
X132337255Y-80626009D02*
X132480112Y-80673628D01*
X132480112Y-80673628D02*
X132527731Y-80721247D01*
X132527731Y-80721247D02*
X132575350Y-80816485D01*
X132575350Y-80816485D02*
X132575350Y-80959342D01*
X132575350Y-80959342D02*
X132527731Y-81054580D01*
X132527731Y-81054580D02*
X132480112Y-81102200D01*
X132480112Y-81102200D02*
X132384874Y-81149819D01*
X132384874Y-81149819D02*
X132003922Y-81149819D01*
X132003922Y-81149819D02*
X132003922Y-80149819D01*
X132003922Y-80149819D02*
X132337255Y-80149819D01*
X132337255Y-80149819D02*
X132432493Y-80197438D01*
X132432493Y-80197438D02*
X132480112Y-80245057D01*
X132480112Y-80245057D02*
X132527731Y-80340295D01*
X132527731Y-80340295D02*
X132527731Y-80435533D01*
X132527731Y-80435533D02*
X132480112Y-80530771D01*
X132480112Y-80530771D02*
X132432493Y-80578390D01*
X132432493Y-80578390D02*
X132337255Y-80626009D01*
X132337255Y-80626009D02*
X132003922Y-80626009D01*
X132956303Y-80864104D02*
X133432493Y-80864104D01*
X132861065Y-81149819D02*
X133194398Y-80149819D01*
X133194398Y-80149819D02*
X133527731Y-81149819D01*
X133718208Y-80149819D02*
X134289636Y-80149819D01*
X134003922Y-81149819D02*
X134003922Y-80149819D01*
X155911779Y-101469819D02*
X155911779Y-100469819D01*
X155911779Y-100469819D02*
X156292731Y-100469819D01*
X156292731Y-100469819D02*
X156387969Y-100517438D01*
X156387969Y-100517438D02*
X156435588Y-100565057D01*
X156435588Y-100565057D02*
X156483207Y-100660295D01*
X156483207Y-100660295D02*
X156483207Y-100803152D01*
X156483207Y-100803152D02*
X156435588Y-100898390D01*
X156435588Y-100898390D02*
X156387969Y-100946009D01*
X156387969Y-100946009D02*
X156292731Y-100993628D01*
X156292731Y-100993628D02*
X155911779Y-100993628D01*
X156864160Y-101184104D02*
X157340350Y-101184104D01*
X156768922Y-101469819D02*
X157102255Y-100469819D01*
X157102255Y-100469819D02*
X157435588Y-101469819D01*
X157911779Y-100898390D02*
X157816541Y-100850771D01*
X157816541Y-100850771D02*
X157768922Y-100803152D01*
X157768922Y-100803152D02*
X157721303Y-100707914D01*
X157721303Y-100707914D02*
X157721303Y-100660295D01*
X157721303Y-100660295D02*
X157768922Y-100565057D01*
X157768922Y-100565057D02*
X157816541Y-100517438D01*
X157816541Y-100517438D02*
X157911779Y-100469819D01*
X157911779Y-100469819D02*
X158102255Y-100469819D01*
X158102255Y-100469819D02*
X158197493Y-100517438D01*
X158197493Y-100517438D02*
X158245112Y-100565057D01*
X158245112Y-100565057D02*
X158292731Y-100660295D01*
X158292731Y-100660295D02*
X158292731Y-100707914D01*
X158292731Y-100707914D02*
X158245112Y-100803152D01*
X158245112Y-100803152D02*
X158197493Y-100850771D01*
X158197493Y-100850771D02*
X158102255Y-100898390D01*
X158102255Y-100898390D02*
X157911779Y-100898390D01*
X157911779Y-100898390D02*
X157816541Y-100946009D01*
X157816541Y-100946009D02*
X157768922Y-100993628D01*
X157768922Y-100993628D02*
X157721303Y-101088866D01*
X157721303Y-101088866D02*
X157721303Y-101279342D01*
X157721303Y-101279342D02*
X157768922Y-101374580D01*
X157768922Y-101374580D02*
X157816541Y-101422200D01*
X157816541Y-101422200D02*
X157911779Y-101469819D01*
X157911779Y-101469819D02*
X158102255Y-101469819D01*
X158102255Y-101469819D02*
X158197493Y-101422200D01*
X158197493Y-101422200D02*
X158245112Y-101374580D01*
X158245112Y-101374580D02*
X158292731Y-101279342D01*
X158292731Y-101279342D02*
X158292731Y-101088866D01*
X158292731Y-101088866D02*
X158245112Y-100993628D01*
X158245112Y-100993628D02*
X158197493Y-100946009D01*
X158197493Y-100946009D02*
X158102255Y-100898390D01*
X131146779Y-93849819D02*
X131146779Y-92849819D01*
X131146779Y-92849819D02*
X131527731Y-92849819D01*
X131527731Y-92849819D02*
X131622969Y-92897438D01*
X131622969Y-92897438D02*
X131670588Y-92945057D01*
X131670588Y-92945057D02*
X131718207Y-93040295D01*
X131718207Y-93040295D02*
X131718207Y-93183152D01*
X131718207Y-93183152D02*
X131670588Y-93278390D01*
X131670588Y-93278390D02*
X131622969Y-93326009D01*
X131622969Y-93326009D02*
X131527731Y-93373628D01*
X131527731Y-93373628D02*
X131146779Y-93373628D01*
X132718207Y-93754580D02*
X132670588Y-93802200D01*
X132670588Y-93802200D02*
X132527731Y-93849819D01*
X132527731Y-93849819D02*
X132432493Y-93849819D01*
X132432493Y-93849819D02*
X132289636Y-93802200D01*
X132289636Y-93802200D02*
X132194398Y-93706961D01*
X132194398Y-93706961D02*
X132146779Y-93611723D01*
X132146779Y-93611723D02*
X132099160Y-93421247D01*
X132099160Y-93421247D02*
X132099160Y-93278390D01*
X132099160Y-93278390D02*
X132146779Y-93087914D01*
X132146779Y-93087914D02*
X132194398Y-92992676D01*
X132194398Y-92992676D02*
X132289636Y-92897438D01*
X132289636Y-92897438D02*
X132432493Y-92849819D01*
X132432493Y-92849819D02*
X132527731Y-92849819D01*
X132527731Y-92849819D02*
X132670588Y-92897438D01*
X132670588Y-92897438D02*
X132718207Y-92945057D01*
X133670588Y-93849819D02*
X133099160Y-93849819D01*
X133384874Y-93849819D02*
X133384874Y-92849819D01*
X133384874Y-92849819D02*
X133289636Y-92992676D01*
X133289636Y-92992676D02*
X133194398Y-93087914D01*
X133194398Y-93087914D02*
X133099160Y-93135533D01*
X134003922Y-92849819D02*
X134622969Y-92849819D01*
X134622969Y-92849819D02*
X134289636Y-93230771D01*
X134289636Y-93230771D02*
X134432493Y-93230771D01*
X134432493Y-93230771D02*
X134527731Y-93278390D01*
X134527731Y-93278390D02*
X134575350Y-93326009D01*
X134575350Y-93326009D02*
X134622969Y-93421247D01*
X134622969Y-93421247D02*
X134622969Y-93659342D01*
X134622969Y-93659342D02*
X134575350Y-93754580D01*
X134575350Y-93754580D02*
X134527731Y-93802200D01*
X134527731Y-93802200D02*
X134432493Y-93849819D01*
X134432493Y-93849819D02*
X134146779Y-93849819D01*
X134146779Y-93849819D02*
X134051541Y-93802200D01*
X134051541Y-93802200D02*
X134003922Y-93754580D01*
X155911779Y-98929819D02*
X155911779Y-97929819D01*
X155911779Y-97929819D02*
X156292731Y-97929819D01*
X156292731Y-97929819D02*
X156387969Y-97977438D01*
X156387969Y-97977438D02*
X156435588Y-98025057D01*
X156435588Y-98025057D02*
X156483207Y-98120295D01*
X156483207Y-98120295D02*
X156483207Y-98263152D01*
X156483207Y-98263152D02*
X156435588Y-98358390D01*
X156435588Y-98358390D02*
X156387969Y-98406009D01*
X156387969Y-98406009D02*
X156292731Y-98453628D01*
X156292731Y-98453628D02*
X155911779Y-98453628D01*
X156864160Y-98644104D02*
X157340350Y-98644104D01*
X156768922Y-98929819D02*
X157102255Y-97929819D01*
X157102255Y-97929819D02*
X157435588Y-98929819D01*
X157816541Y-98929819D02*
X158007017Y-98929819D01*
X158007017Y-98929819D02*
X158102255Y-98882200D01*
X158102255Y-98882200D02*
X158149874Y-98834580D01*
X158149874Y-98834580D02*
X158245112Y-98691723D01*
X158245112Y-98691723D02*
X158292731Y-98501247D01*
X158292731Y-98501247D02*
X158292731Y-98120295D01*
X158292731Y-98120295D02*
X158245112Y-98025057D01*
X158245112Y-98025057D02*
X158197493Y-97977438D01*
X158197493Y-97977438D02*
X158102255Y-97929819D01*
X158102255Y-97929819D02*
X157911779Y-97929819D01*
X157911779Y-97929819D02*
X157816541Y-97977438D01*
X157816541Y-97977438D02*
X157768922Y-98025057D01*
X157768922Y-98025057D02*
X157721303Y-98120295D01*
X157721303Y-98120295D02*
X157721303Y-98358390D01*
X157721303Y-98358390D02*
X157768922Y-98453628D01*
X157768922Y-98453628D02*
X157816541Y-98501247D01*
X157816541Y-98501247D02*
X157911779Y-98548866D01*
X157911779Y-98548866D02*
X158102255Y-98548866D01*
X158102255Y-98548866D02*
X158197493Y-98501247D01*
X158197493Y-98501247D02*
X158245112Y-98453628D01*
X158245112Y-98453628D02*
X158292731Y-98358390D01*
X140036779Y-107724580D02*
X140084398Y-107772200D01*
X140084398Y-107772200D02*
X140036779Y-107819819D01*
X140036779Y-107819819D02*
X139989160Y-107772200D01*
X139989160Y-107772200D02*
X140036779Y-107724580D01*
X140036779Y-107724580D02*
X140036779Y-107819819D01*
X132988207Y-140839819D02*
X132654874Y-140363628D01*
X132416779Y-140839819D02*
X132416779Y-139839819D01*
X132416779Y-139839819D02*
X132797731Y-139839819D01*
X132797731Y-139839819D02*
X132892969Y-139887438D01*
X132892969Y-139887438D02*
X132940588Y-139935057D01*
X132940588Y-139935057D02*
X132988207Y-140030295D01*
X132988207Y-140030295D02*
X132988207Y-140173152D01*
X132988207Y-140173152D02*
X132940588Y-140268390D01*
X132940588Y-140268390D02*
X132892969Y-140316009D01*
X132892969Y-140316009D02*
X132797731Y-140363628D01*
X132797731Y-140363628D02*
X132416779Y-140363628D01*
X133416779Y-140316009D02*
X133750112Y-140316009D01*
X133892969Y-140839819D02*
X133416779Y-140839819D01*
X133416779Y-140839819D02*
X133416779Y-139839819D01*
X133416779Y-139839819D02*
X133892969Y-139839819D01*
X134273922Y-140792200D02*
X134416779Y-140839819D01*
X134416779Y-140839819D02*
X134654874Y-140839819D01*
X134654874Y-140839819D02*
X134750112Y-140792200D01*
X134750112Y-140792200D02*
X134797731Y-140744580D01*
X134797731Y-140744580D02*
X134845350Y-140649342D01*
X134845350Y-140649342D02*
X134845350Y-140554104D01*
X134845350Y-140554104D02*
X134797731Y-140458866D01*
X134797731Y-140458866D02*
X134750112Y-140411247D01*
X134750112Y-140411247D02*
X134654874Y-140363628D01*
X134654874Y-140363628D02*
X134464398Y-140316009D01*
X134464398Y-140316009D02*
X134369160Y-140268390D01*
X134369160Y-140268390D02*
X134321541Y-140220771D01*
X134321541Y-140220771D02*
X134273922Y-140125533D01*
X134273922Y-140125533D02*
X134273922Y-140030295D01*
X134273922Y-140030295D02*
X134321541Y-139935057D01*
X134321541Y-139935057D02*
X134369160Y-139887438D01*
X134369160Y-139887438D02*
X134464398Y-139839819D01*
X134464398Y-139839819D02*
X134702493Y-139839819D01*
X134702493Y-139839819D02*
X134845350Y-139887438D01*
X135273922Y-140316009D02*
X135607255Y-140316009D01*
X135750112Y-140839819D02*
X135273922Y-140839819D01*
X135273922Y-140839819D02*
X135273922Y-139839819D01*
X135273922Y-139839819D02*
X135750112Y-139839819D01*
X136035827Y-139839819D02*
X136607255Y-139839819D01*
X136321541Y-140839819D02*
X136321541Y-139839819D01*
X131146779Y-86229819D02*
X131146779Y-85229819D01*
X131146779Y-85229819D02*
X131527731Y-85229819D01*
X131527731Y-85229819D02*
X131622969Y-85277438D01*
X131622969Y-85277438D02*
X131670588Y-85325057D01*
X131670588Y-85325057D02*
X131718207Y-85420295D01*
X131718207Y-85420295D02*
X131718207Y-85563152D01*
X131718207Y-85563152D02*
X131670588Y-85658390D01*
X131670588Y-85658390D02*
X131622969Y-85706009D01*
X131622969Y-85706009D02*
X131527731Y-85753628D01*
X131527731Y-85753628D02*
X131146779Y-85753628D01*
X132480112Y-85706009D02*
X132622969Y-85753628D01*
X132622969Y-85753628D02*
X132670588Y-85801247D01*
X132670588Y-85801247D02*
X132718207Y-85896485D01*
X132718207Y-85896485D02*
X132718207Y-86039342D01*
X132718207Y-86039342D02*
X132670588Y-86134580D01*
X132670588Y-86134580D02*
X132622969Y-86182200D01*
X132622969Y-86182200D02*
X132527731Y-86229819D01*
X132527731Y-86229819D02*
X132146779Y-86229819D01*
X132146779Y-86229819D02*
X132146779Y-85229819D01*
X132146779Y-85229819D02*
X132480112Y-85229819D01*
X132480112Y-85229819D02*
X132575350Y-85277438D01*
X132575350Y-85277438D02*
X132622969Y-85325057D01*
X132622969Y-85325057D02*
X132670588Y-85420295D01*
X132670588Y-85420295D02*
X132670588Y-85515533D01*
X132670588Y-85515533D02*
X132622969Y-85610771D01*
X132622969Y-85610771D02*
X132575350Y-85658390D01*
X132575350Y-85658390D02*
X132480112Y-85706009D01*
X132480112Y-85706009D02*
X132146779Y-85706009D01*
X133051541Y-85229819D02*
X133718207Y-85229819D01*
X133718207Y-85229819D02*
X133289636Y-86229819D01*
X155911779Y-121789819D02*
X155911779Y-120789819D01*
X155911779Y-120789819D02*
X156292731Y-120789819D01*
X156292731Y-120789819D02*
X156387969Y-120837438D01*
X156387969Y-120837438D02*
X156435588Y-120885057D01*
X156435588Y-120885057D02*
X156483207Y-120980295D01*
X156483207Y-120980295D02*
X156483207Y-121123152D01*
X156483207Y-121123152D02*
X156435588Y-121218390D01*
X156435588Y-121218390D02*
X156387969Y-121266009D01*
X156387969Y-121266009D02*
X156292731Y-121313628D01*
X156292731Y-121313628D02*
X155911779Y-121313628D01*
X157245112Y-121266009D02*
X157387969Y-121313628D01*
X157387969Y-121313628D02*
X157435588Y-121361247D01*
X157435588Y-121361247D02*
X157483207Y-121456485D01*
X157483207Y-121456485D02*
X157483207Y-121599342D01*
X157483207Y-121599342D02*
X157435588Y-121694580D01*
X157435588Y-121694580D02*
X157387969Y-121742200D01*
X157387969Y-121742200D02*
X157292731Y-121789819D01*
X157292731Y-121789819D02*
X156911779Y-121789819D01*
X156911779Y-121789819D02*
X156911779Y-120789819D01*
X156911779Y-120789819D02*
X157245112Y-120789819D01*
X157245112Y-120789819D02*
X157340350Y-120837438D01*
X157340350Y-120837438D02*
X157387969Y-120885057D01*
X157387969Y-120885057D02*
X157435588Y-120980295D01*
X157435588Y-120980295D02*
X157435588Y-121075533D01*
X157435588Y-121075533D02*
X157387969Y-121170771D01*
X157387969Y-121170771D02*
X157340350Y-121218390D01*
X157340350Y-121218390D02*
X157245112Y-121266009D01*
X157245112Y-121266009D02*
X156911779Y-121266009D01*
X158435588Y-121789819D02*
X157864160Y-121789819D01*
X158149874Y-121789819D02*
X158149874Y-120789819D01*
X158149874Y-120789819D02*
X158054636Y-120932676D01*
X158054636Y-120932676D02*
X157959398Y-121027914D01*
X157959398Y-121027914D02*
X157864160Y-121075533D01*
X158816541Y-120885057D02*
X158864160Y-120837438D01*
X158864160Y-120837438D02*
X158959398Y-120789819D01*
X158959398Y-120789819D02*
X159197493Y-120789819D01*
X159197493Y-120789819D02*
X159292731Y-120837438D01*
X159292731Y-120837438D02*
X159340350Y-120885057D01*
X159340350Y-120885057D02*
X159387969Y-120980295D01*
X159387969Y-120980295D02*
X159387969Y-121075533D01*
X159387969Y-121075533D02*
X159340350Y-121218390D01*
X159340350Y-121218390D02*
X158768922Y-121789819D01*
X158768922Y-121789819D02*
X159387969Y-121789819D01*
X155911779Y-88769819D02*
X155911779Y-87769819D01*
X155911779Y-87769819D02*
X156292731Y-87769819D01*
X156292731Y-87769819D02*
X156387969Y-87817438D01*
X156387969Y-87817438D02*
X156435588Y-87865057D01*
X156435588Y-87865057D02*
X156483207Y-87960295D01*
X156483207Y-87960295D02*
X156483207Y-88103152D01*
X156483207Y-88103152D02*
X156435588Y-88198390D01*
X156435588Y-88198390D02*
X156387969Y-88246009D01*
X156387969Y-88246009D02*
X156292731Y-88293628D01*
X156292731Y-88293628D02*
X155911779Y-88293628D01*
X157483207Y-88674580D02*
X157435588Y-88722200D01*
X157435588Y-88722200D02*
X157292731Y-88769819D01*
X157292731Y-88769819D02*
X157197493Y-88769819D01*
X157197493Y-88769819D02*
X157054636Y-88722200D01*
X157054636Y-88722200D02*
X156959398Y-88626961D01*
X156959398Y-88626961D02*
X156911779Y-88531723D01*
X156911779Y-88531723D02*
X156864160Y-88341247D01*
X156864160Y-88341247D02*
X156864160Y-88198390D01*
X156864160Y-88198390D02*
X156911779Y-88007914D01*
X156911779Y-88007914D02*
X156959398Y-87912676D01*
X156959398Y-87912676D02*
X157054636Y-87817438D01*
X157054636Y-87817438D02*
X157197493Y-87769819D01*
X157197493Y-87769819D02*
X157292731Y-87769819D01*
X157292731Y-87769819D02*
X157435588Y-87817438D01*
X157435588Y-87817438D02*
X157483207Y-87865057D01*
X158435588Y-88769819D02*
X157864160Y-88769819D01*
X158149874Y-88769819D02*
X158149874Y-87769819D01*
X158149874Y-87769819D02*
X158054636Y-87912676D01*
X158054636Y-87912676D02*
X157959398Y-88007914D01*
X157959398Y-88007914D02*
X157864160Y-88055533D01*
X158816541Y-87865057D02*
X158864160Y-87817438D01*
X158864160Y-87817438D02*
X158959398Y-87769819D01*
X158959398Y-87769819D02*
X159197493Y-87769819D01*
X159197493Y-87769819D02*
X159292731Y-87817438D01*
X159292731Y-87817438D02*
X159340350Y-87865057D01*
X159340350Y-87865057D02*
X159387969Y-87960295D01*
X159387969Y-87960295D02*
X159387969Y-88055533D01*
X159387969Y-88055533D02*
X159340350Y-88198390D01*
X159340350Y-88198390D02*
X158768922Y-88769819D01*
X158768922Y-88769819D02*
X159387969Y-88769819D01*
X155911779Y-124329819D02*
X155911779Y-123329819D01*
X155911779Y-123329819D02*
X156292731Y-123329819D01*
X156292731Y-123329819D02*
X156387969Y-123377438D01*
X156387969Y-123377438D02*
X156435588Y-123425057D01*
X156435588Y-123425057D02*
X156483207Y-123520295D01*
X156483207Y-123520295D02*
X156483207Y-123663152D01*
X156483207Y-123663152D02*
X156435588Y-123758390D01*
X156435588Y-123758390D02*
X156387969Y-123806009D01*
X156387969Y-123806009D02*
X156292731Y-123853628D01*
X156292731Y-123853628D02*
X155911779Y-123853628D01*
X157245112Y-123806009D02*
X157387969Y-123853628D01*
X157387969Y-123853628D02*
X157435588Y-123901247D01*
X157435588Y-123901247D02*
X157483207Y-123996485D01*
X157483207Y-123996485D02*
X157483207Y-124139342D01*
X157483207Y-124139342D02*
X157435588Y-124234580D01*
X157435588Y-124234580D02*
X157387969Y-124282200D01*
X157387969Y-124282200D02*
X157292731Y-124329819D01*
X157292731Y-124329819D02*
X156911779Y-124329819D01*
X156911779Y-124329819D02*
X156911779Y-123329819D01*
X156911779Y-123329819D02*
X157245112Y-123329819D01*
X157245112Y-123329819D02*
X157340350Y-123377438D01*
X157340350Y-123377438D02*
X157387969Y-123425057D01*
X157387969Y-123425057D02*
X157435588Y-123520295D01*
X157435588Y-123520295D02*
X157435588Y-123615533D01*
X157435588Y-123615533D02*
X157387969Y-123710771D01*
X157387969Y-123710771D02*
X157340350Y-123758390D01*
X157340350Y-123758390D02*
X157245112Y-123806009D01*
X157245112Y-123806009D02*
X156911779Y-123806009D01*
X158435588Y-124329819D02*
X157864160Y-124329819D01*
X158149874Y-124329819D02*
X158149874Y-123329819D01*
X158149874Y-123329819D02*
X158054636Y-123472676D01*
X158054636Y-123472676D02*
X157959398Y-123567914D01*
X157959398Y-123567914D02*
X157864160Y-123615533D01*
X159387969Y-124329819D02*
X158816541Y-124329819D01*
X159102255Y-124329819D02*
X159102255Y-123329819D01*
X159102255Y-123329819D02*
X159007017Y-123472676D01*
X159007017Y-123472676D02*
X158911779Y-123567914D01*
X158911779Y-123567914D02*
X158816541Y-123615533D01*
X142862493Y-74379819D02*
X142862493Y-75094104D01*
X142862493Y-75094104D02*
X142814874Y-75236961D01*
X142814874Y-75236961D02*
X142719636Y-75332200D01*
X142719636Y-75332200D02*
X142576779Y-75379819D01*
X142576779Y-75379819D02*
X142481541Y-75379819D01*
X143195827Y-74379819D02*
X143767255Y-74379819D01*
X143481541Y-75379819D02*
X143481541Y-74379819D01*
X144052970Y-75094104D02*
X144529160Y-75094104D01*
X143957732Y-75379819D02*
X144291065Y-74379819D01*
X144291065Y-74379819D02*
X144624398Y-75379819D01*
X145481541Y-74427438D02*
X145386303Y-74379819D01*
X145386303Y-74379819D02*
X145243446Y-74379819D01*
X145243446Y-74379819D02*
X145100589Y-74427438D01*
X145100589Y-74427438D02*
X145005351Y-74522676D01*
X145005351Y-74522676D02*
X144957732Y-74617914D01*
X144957732Y-74617914D02*
X144910113Y-74808390D01*
X144910113Y-74808390D02*
X144910113Y-74951247D01*
X144910113Y-74951247D02*
X144957732Y-75141723D01*
X144957732Y-75141723D02*
X145005351Y-75236961D01*
X145005351Y-75236961D02*
X145100589Y-75332200D01*
X145100589Y-75332200D02*
X145243446Y-75379819D01*
X145243446Y-75379819D02*
X145338684Y-75379819D01*
X145338684Y-75379819D02*
X145481541Y-75332200D01*
X145481541Y-75332200D02*
X145529160Y-75284580D01*
X145529160Y-75284580D02*
X145529160Y-74951247D01*
X145529160Y-74951247D02*
X145338684Y-74951247D01*
X146672017Y-74332200D02*
X145814875Y-75617914D01*
X146957732Y-75332200D02*
X147100589Y-75379819D01*
X147100589Y-75379819D02*
X147338684Y-75379819D01*
X147338684Y-75379819D02*
X147433922Y-75332200D01*
X147433922Y-75332200D02*
X147481541Y-75284580D01*
X147481541Y-75284580D02*
X147529160Y-75189342D01*
X147529160Y-75189342D02*
X147529160Y-75094104D01*
X147529160Y-75094104D02*
X147481541Y-74998866D01*
X147481541Y-74998866D02*
X147433922Y-74951247D01*
X147433922Y-74951247D02*
X147338684Y-74903628D01*
X147338684Y-74903628D02*
X147148208Y-74856009D01*
X147148208Y-74856009D02*
X147052970Y-74808390D01*
X147052970Y-74808390D02*
X147005351Y-74760771D01*
X147005351Y-74760771D02*
X146957732Y-74665533D01*
X146957732Y-74665533D02*
X146957732Y-74570295D01*
X146957732Y-74570295D02*
X147005351Y-74475057D01*
X147005351Y-74475057D02*
X147052970Y-74427438D01*
X147052970Y-74427438D02*
X147148208Y-74379819D01*
X147148208Y-74379819D02*
X147386303Y-74379819D01*
X147386303Y-74379819D02*
X147529160Y-74427438D01*
X147862494Y-74379819D02*
X148100589Y-75379819D01*
X148100589Y-75379819D02*
X148291065Y-74665533D01*
X148291065Y-74665533D02*
X148481541Y-75379819D01*
X148481541Y-75379819D02*
X148719637Y-74379819D01*
X149100589Y-75379819D02*
X149100589Y-74379819D01*
X149100589Y-74379819D02*
X149338684Y-74379819D01*
X149338684Y-74379819D02*
X149481541Y-74427438D01*
X149481541Y-74427438D02*
X149576779Y-74522676D01*
X149576779Y-74522676D02*
X149624398Y-74617914D01*
X149624398Y-74617914D02*
X149672017Y-74808390D01*
X149672017Y-74808390D02*
X149672017Y-74951247D01*
X149672017Y-74951247D02*
X149624398Y-75141723D01*
X149624398Y-75141723D02*
X149576779Y-75236961D01*
X149576779Y-75236961D02*
X149481541Y-75332200D01*
X149481541Y-75332200D02*
X149338684Y-75379819D01*
X149338684Y-75379819D02*
X149100589Y-75379819D01*
X131146779Y-101469819D02*
X131146779Y-100469819D01*
X131146779Y-100469819D02*
X131527731Y-100469819D01*
X131527731Y-100469819D02*
X131622969Y-100517438D01*
X131622969Y-100517438D02*
X131670588Y-100565057D01*
X131670588Y-100565057D02*
X131718207Y-100660295D01*
X131718207Y-100660295D02*
X131718207Y-100803152D01*
X131718207Y-100803152D02*
X131670588Y-100898390D01*
X131670588Y-100898390D02*
X131622969Y-100946009D01*
X131622969Y-100946009D02*
X131527731Y-100993628D01*
X131527731Y-100993628D02*
X131146779Y-100993628D01*
X132718207Y-101374580D02*
X132670588Y-101422200D01*
X132670588Y-101422200D02*
X132527731Y-101469819D01*
X132527731Y-101469819D02*
X132432493Y-101469819D01*
X132432493Y-101469819D02*
X132289636Y-101422200D01*
X132289636Y-101422200D02*
X132194398Y-101326961D01*
X132194398Y-101326961D02*
X132146779Y-101231723D01*
X132146779Y-101231723D02*
X132099160Y-101041247D01*
X132099160Y-101041247D02*
X132099160Y-100898390D01*
X132099160Y-100898390D02*
X132146779Y-100707914D01*
X132146779Y-100707914D02*
X132194398Y-100612676D01*
X132194398Y-100612676D02*
X132289636Y-100517438D01*
X132289636Y-100517438D02*
X132432493Y-100469819D01*
X132432493Y-100469819D02*
X132527731Y-100469819D01*
X132527731Y-100469819D02*
X132670588Y-100517438D01*
X132670588Y-100517438D02*
X132718207Y-100565057D01*
X133337255Y-100469819D02*
X133432493Y-100469819D01*
X133432493Y-100469819D02*
X133527731Y-100517438D01*
X133527731Y-100517438D02*
X133575350Y-100565057D01*
X133575350Y-100565057D02*
X133622969Y-100660295D01*
X133622969Y-100660295D02*
X133670588Y-100850771D01*
X133670588Y-100850771D02*
X133670588Y-101088866D01*
X133670588Y-101088866D02*
X133622969Y-101279342D01*
X133622969Y-101279342D02*
X133575350Y-101374580D01*
X133575350Y-101374580D02*
X133527731Y-101422200D01*
X133527731Y-101422200D02*
X133432493Y-101469819D01*
X133432493Y-101469819D02*
X133337255Y-101469819D01*
X133337255Y-101469819D02*
X133242017Y-101422200D01*
X133242017Y-101422200D02*
X133194398Y-101374580D01*
X133194398Y-101374580D02*
X133146779Y-101279342D01*
X133146779Y-101279342D02*
X133099160Y-101088866D01*
X133099160Y-101088866D02*
X133099160Y-100850771D01*
X133099160Y-100850771D02*
X133146779Y-100660295D01*
X133146779Y-100660295D02*
X133194398Y-100565057D01*
X133194398Y-100565057D02*
X133242017Y-100517438D01*
X133242017Y-100517438D02*
X133337255Y-100469819D01*
X131670588Y-125917438D02*
X131575350Y-125869819D01*
X131575350Y-125869819D02*
X131432493Y-125869819D01*
X131432493Y-125869819D02*
X131289636Y-125917438D01*
X131289636Y-125917438D02*
X131194398Y-126012676D01*
X131194398Y-126012676D02*
X131146779Y-126107914D01*
X131146779Y-126107914D02*
X131099160Y-126298390D01*
X131099160Y-126298390D02*
X131099160Y-126441247D01*
X131099160Y-126441247D02*
X131146779Y-126631723D01*
X131146779Y-126631723D02*
X131194398Y-126726961D01*
X131194398Y-126726961D02*
X131289636Y-126822200D01*
X131289636Y-126822200D02*
X131432493Y-126869819D01*
X131432493Y-126869819D02*
X131527731Y-126869819D01*
X131527731Y-126869819D02*
X131670588Y-126822200D01*
X131670588Y-126822200D02*
X131718207Y-126774580D01*
X131718207Y-126774580D02*
X131718207Y-126441247D01*
X131718207Y-126441247D02*
X131527731Y-126441247D01*
X132146779Y-126869819D02*
X132146779Y-125869819D01*
X132146779Y-125869819D02*
X132718207Y-126869819D01*
X132718207Y-126869819D02*
X132718207Y-125869819D01*
X133194398Y-126869819D02*
X133194398Y-125869819D01*
X133194398Y-125869819D02*
X133432493Y-125869819D01*
X133432493Y-125869819D02*
X133575350Y-125917438D01*
X133575350Y-125917438D02*
X133670588Y-126012676D01*
X133670588Y-126012676D02*
X133718207Y-126107914D01*
X133718207Y-126107914D02*
X133765826Y-126298390D01*
X133765826Y-126298390D02*
X133765826Y-126441247D01*
X133765826Y-126441247D02*
X133718207Y-126631723D01*
X133718207Y-126631723D02*
X133670588Y-126726961D01*
X133670588Y-126726961D02*
X133575350Y-126822200D01*
X133575350Y-126822200D02*
X133432493Y-126869819D01*
X133432493Y-126869819D02*
X133194398Y-126869819D01*
X131146779Y-98929819D02*
X131146779Y-97929819D01*
X131146779Y-97929819D02*
X131527731Y-97929819D01*
X131527731Y-97929819D02*
X131622969Y-97977438D01*
X131622969Y-97977438D02*
X131670588Y-98025057D01*
X131670588Y-98025057D02*
X131718207Y-98120295D01*
X131718207Y-98120295D02*
X131718207Y-98263152D01*
X131718207Y-98263152D02*
X131670588Y-98358390D01*
X131670588Y-98358390D02*
X131622969Y-98406009D01*
X131622969Y-98406009D02*
X131527731Y-98453628D01*
X131527731Y-98453628D02*
X131146779Y-98453628D01*
X132099160Y-98644104D02*
X132575350Y-98644104D01*
X132003922Y-98929819D02*
X132337255Y-97929819D01*
X132337255Y-97929819D02*
X132670588Y-98929819D01*
X133432493Y-97929819D02*
X133242017Y-97929819D01*
X133242017Y-97929819D02*
X133146779Y-97977438D01*
X133146779Y-97977438D02*
X133099160Y-98025057D01*
X133099160Y-98025057D02*
X133003922Y-98167914D01*
X133003922Y-98167914D02*
X132956303Y-98358390D01*
X132956303Y-98358390D02*
X132956303Y-98739342D01*
X132956303Y-98739342D02*
X133003922Y-98834580D01*
X133003922Y-98834580D02*
X133051541Y-98882200D01*
X133051541Y-98882200D02*
X133146779Y-98929819D01*
X133146779Y-98929819D02*
X133337255Y-98929819D01*
X133337255Y-98929819D02*
X133432493Y-98882200D01*
X133432493Y-98882200D02*
X133480112Y-98834580D01*
X133480112Y-98834580D02*
X133527731Y-98739342D01*
X133527731Y-98739342D02*
X133527731Y-98501247D01*
X133527731Y-98501247D02*
X133480112Y-98406009D01*
X133480112Y-98406009D02*
X133432493Y-98358390D01*
X133432493Y-98358390D02*
X133337255Y-98310771D01*
X133337255Y-98310771D02*
X133146779Y-98310771D01*
X133146779Y-98310771D02*
X133051541Y-98358390D01*
X133051541Y-98358390D02*
X133003922Y-98406009D01*
X133003922Y-98406009D02*
X132956303Y-98501247D01*
X131146779Y-111629819D02*
X131146779Y-110629819D01*
X131146779Y-110629819D02*
X131527731Y-110629819D01*
X131527731Y-110629819D02*
X131622969Y-110677438D01*
X131622969Y-110677438D02*
X131670588Y-110725057D01*
X131670588Y-110725057D02*
X131718207Y-110820295D01*
X131718207Y-110820295D02*
X131718207Y-110963152D01*
X131718207Y-110963152D02*
X131670588Y-111058390D01*
X131670588Y-111058390D02*
X131622969Y-111106009D01*
X131622969Y-111106009D02*
X131527731Y-111153628D01*
X131527731Y-111153628D02*
X131146779Y-111153628D01*
X132099160Y-111344104D02*
X132575350Y-111344104D01*
X132003922Y-111629819D02*
X132337255Y-110629819D01*
X132337255Y-110629819D02*
X132670588Y-111629819D01*
X133194398Y-110629819D02*
X133289636Y-110629819D01*
X133289636Y-110629819D02*
X133384874Y-110677438D01*
X133384874Y-110677438D02*
X133432493Y-110725057D01*
X133432493Y-110725057D02*
X133480112Y-110820295D01*
X133480112Y-110820295D02*
X133527731Y-111010771D01*
X133527731Y-111010771D02*
X133527731Y-111248866D01*
X133527731Y-111248866D02*
X133480112Y-111439342D01*
X133480112Y-111439342D02*
X133432493Y-111534580D01*
X133432493Y-111534580D02*
X133384874Y-111582200D01*
X133384874Y-111582200D02*
X133289636Y-111629819D01*
X133289636Y-111629819D02*
X133194398Y-111629819D01*
X133194398Y-111629819D02*
X133099160Y-111582200D01*
X133099160Y-111582200D02*
X133051541Y-111534580D01*
X133051541Y-111534580D02*
X133003922Y-111439342D01*
X133003922Y-111439342D02*
X132956303Y-111248866D01*
X132956303Y-111248866D02*
X132956303Y-111010771D01*
X132956303Y-111010771D02*
X133003922Y-110820295D01*
X133003922Y-110820295D02*
X133051541Y-110725057D01*
X133051541Y-110725057D02*
X133099160Y-110677438D01*
X133099160Y-110677438D02*
X133194398Y-110629819D01*
X155911779Y-126869819D02*
X155911779Y-125869819D01*
X155911779Y-125869819D02*
X156292731Y-125869819D01*
X156292731Y-125869819D02*
X156387969Y-125917438D01*
X156387969Y-125917438D02*
X156435588Y-125965057D01*
X156435588Y-125965057D02*
X156483207Y-126060295D01*
X156483207Y-126060295D02*
X156483207Y-126203152D01*
X156483207Y-126203152D02*
X156435588Y-126298390D01*
X156435588Y-126298390D02*
X156387969Y-126346009D01*
X156387969Y-126346009D02*
X156292731Y-126393628D01*
X156292731Y-126393628D02*
X155911779Y-126393628D01*
X157245112Y-126346009D02*
X157387969Y-126393628D01*
X157387969Y-126393628D02*
X157435588Y-126441247D01*
X157435588Y-126441247D02*
X157483207Y-126536485D01*
X157483207Y-126536485D02*
X157483207Y-126679342D01*
X157483207Y-126679342D02*
X157435588Y-126774580D01*
X157435588Y-126774580D02*
X157387969Y-126822200D01*
X157387969Y-126822200D02*
X157292731Y-126869819D01*
X157292731Y-126869819D02*
X156911779Y-126869819D01*
X156911779Y-126869819D02*
X156911779Y-125869819D01*
X156911779Y-125869819D02*
X157245112Y-125869819D01*
X157245112Y-125869819D02*
X157340350Y-125917438D01*
X157340350Y-125917438D02*
X157387969Y-125965057D01*
X157387969Y-125965057D02*
X157435588Y-126060295D01*
X157435588Y-126060295D02*
X157435588Y-126155533D01*
X157435588Y-126155533D02*
X157387969Y-126250771D01*
X157387969Y-126250771D02*
X157340350Y-126298390D01*
X157340350Y-126298390D02*
X157245112Y-126346009D01*
X157245112Y-126346009D02*
X156911779Y-126346009D01*
X158435588Y-126869819D02*
X157864160Y-126869819D01*
X158149874Y-126869819D02*
X158149874Y-125869819D01*
X158149874Y-125869819D02*
X158054636Y-126012676D01*
X158054636Y-126012676D02*
X157959398Y-126107914D01*
X157959398Y-126107914D02*
X157864160Y-126155533D01*
X159054636Y-125869819D02*
X159149874Y-125869819D01*
X159149874Y-125869819D02*
X159245112Y-125917438D01*
X159245112Y-125917438D02*
X159292731Y-125965057D01*
X159292731Y-125965057D02*
X159340350Y-126060295D01*
X159340350Y-126060295D02*
X159387969Y-126250771D01*
X159387969Y-126250771D02*
X159387969Y-126488866D01*
X159387969Y-126488866D02*
X159340350Y-126679342D01*
X159340350Y-126679342D02*
X159292731Y-126774580D01*
X159292731Y-126774580D02*
X159245112Y-126822200D01*
X159245112Y-126822200D02*
X159149874Y-126869819D01*
X159149874Y-126869819D02*
X159054636Y-126869819D01*
X159054636Y-126869819D02*
X158959398Y-126822200D01*
X158959398Y-126822200D02*
X158911779Y-126774580D01*
X158911779Y-126774580D02*
X158864160Y-126679342D01*
X158864160Y-126679342D02*
X158816541Y-126488866D01*
X158816541Y-126488866D02*
X158816541Y-126250771D01*
X158816541Y-126250771D02*
X158864160Y-126060295D01*
X158864160Y-126060295D02*
X158911779Y-125965057D01*
X158911779Y-125965057D02*
X158959398Y-125917438D01*
X158959398Y-125917438D02*
X159054636Y-125869819D01*
X156435588Y-82737438D02*
X156340350Y-82689819D01*
X156340350Y-82689819D02*
X156197493Y-82689819D01*
X156197493Y-82689819D02*
X156054636Y-82737438D01*
X156054636Y-82737438D02*
X155959398Y-82832676D01*
X155959398Y-82832676D02*
X155911779Y-82927914D01*
X155911779Y-82927914D02*
X155864160Y-83118390D01*
X155864160Y-83118390D02*
X155864160Y-83261247D01*
X155864160Y-83261247D02*
X155911779Y-83451723D01*
X155911779Y-83451723D02*
X155959398Y-83546961D01*
X155959398Y-83546961D02*
X156054636Y-83642200D01*
X156054636Y-83642200D02*
X156197493Y-83689819D01*
X156197493Y-83689819D02*
X156292731Y-83689819D01*
X156292731Y-83689819D02*
X156435588Y-83642200D01*
X156435588Y-83642200D02*
X156483207Y-83594580D01*
X156483207Y-83594580D02*
X156483207Y-83261247D01*
X156483207Y-83261247D02*
X156292731Y-83261247D01*
X156911779Y-83689819D02*
X156911779Y-82689819D01*
X156911779Y-82689819D02*
X157483207Y-83689819D01*
X157483207Y-83689819D02*
X157483207Y-82689819D01*
X157959398Y-83689819D02*
X157959398Y-82689819D01*
X157959398Y-82689819D02*
X158197493Y-82689819D01*
X158197493Y-82689819D02*
X158340350Y-82737438D01*
X158340350Y-82737438D02*
X158435588Y-82832676D01*
X158435588Y-82832676D02*
X158483207Y-82927914D01*
X158483207Y-82927914D02*
X158530826Y-83118390D01*
X158530826Y-83118390D02*
X158530826Y-83261247D01*
X158530826Y-83261247D02*
X158483207Y-83451723D01*
X158483207Y-83451723D02*
X158435588Y-83546961D01*
X158435588Y-83546961D02*
X158340350Y-83642200D01*
X158340350Y-83642200D02*
X158197493Y-83689819D01*
X158197493Y-83689819D02*
X157959398Y-83689819D01*
X131146779Y-106549819D02*
X131146779Y-105549819D01*
X131146779Y-105549819D02*
X131527731Y-105549819D01*
X131527731Y-105549819D02*
X131622969Y-105597438D01*
X131622969Y-105597438D02*
X131670588Y-105645057D01*
X131670588Y-105645057D02*
X131718207Y-105740295D01*
X131718207Y-105740295D02*
X131718207Y-105883152D01*
X131718207Y-105883152D02*
X131670588Y-105978390D01*
X131670588Y-105978390D02*
X131622969Y-106026009D01*
X131622969Y-106026009D02*
X131527731Y-106073628D01*
X131527731Y-106073628D02*
X131146779Y-106073628D01*
X132718207Y-106454580D02*
X132670588Y-106502200D01*
X132670588Y-106502200D02*
X132527731Y-106549819D01*
X132527731Y-106549819D02*
X132432493Y-106549819D01*
X132432493Y-106549819D02*
X132289636Y-106502200D01*
X132289636Y-106502200D02*
X132194398Y-106406961D01*
X132194398Y-106406961D02*
X132146779Y-106311723D01*
X132146779Y-106311723D02*
X132099160Y-106121247D01*
X132099160Y-106121247D02*
X132099160Y-105978390D01*
X132099160Y-105978390D02*
X132146779Y-105787914D01*
X132146779Y-105787914D02*
X132194398Y-105692676D01*
X132194398Y-105692676D02*
X132289636Y-105597438D01*
X132289636Y-105597438D02*
X132432493Y-105549819D01*
X132432493Y-105549819D02*
X132527731Y-105549819D01*
X132527731Y-105549819D02*
X132670588Y-105597438D01*
X132670588Y-105597438D02*
X132718207Y-105645057D01*
X133099160Y-105645057D02*
X133146779Y-105597438D01*
X133146779Y-105597438D02*
X133242017Y-105549819D01*
X133242017Y-105549819D02*
X133480112Y-105549819D01*
X133480112Y-105549819D02*
X133575350Y-105597438D01*
X133575350Y-105597438D02*
X133622969Y-105645057D01*
X133622969Y-105645057D02*
X133670588Y-105740295D01*
X133670588Y-105740295D02*
X133670588Y-105835533D01*
X133670588Y-105835533D02*
X133622969Y-105978390D01*
X133622969Y-105978390D02*
X133051541Y-106549819D01*
X133051541Y-106549819D02*
X133670588Y-106549819D01*
X131146779Y-114169819D02*
X131146779Y-113169819D01*
X131146779Y-113169819D02*
X131527731Y-113169819D01*
X131527731Y-113169819D02*
X131622969Y-113217438D01*
X131622969Y-113217438D02*
X131670588Y-113265057D01*
X131670588Y-113265057D02*
X131718207Y-113360295D01*
X131718207Y-113360295D02*
X131718207Y-113503152D01*
X131718207Y-113503152D02*
X131670588Y-113598390D01*
X131670588Y-113598390D02*
X131622969Y-113646009D01*
X131622969Y-113646009D02*
X131527731Y-113693628D01*
X131527731Y-113693628D02*
X131146779Y-113693628D01*
X132099160Y-113884104D02*
X132575350Y-113884104D01*
X132003922Y-114169819D02*
X132337255Y-113169819D01*
X132337255Y-113169819D02*
X132670588Y-114169819D01*
X133527731Y-114169819D02*
X132956303Y-114169819D01*
X133242017Y-114169819D02*
X133242017Y-113169819D01*
X133242017Y-113169819D02*
X133146779Y-113312676D01*
X133146779Y-113312676D02*
X133051541Y-113407914D01*
X133051541Y-113407914D02*
X132956303Y-113455533D01*
X131146779Y-116709819D02*
X131146779Y-115709819D01*
X131146779Y-115709819D02*
X131527731Y-115709819D01*
X131527731Y-115709819D02*
X131622969Y-115757438D01*
X131622969Y-115757438D02*
X131670588Y-115805057D01*
X131670588Y-115805057D02*
X131718207Y-115900295D01*
X131718207Y-115900295D02*
X131718207Y-116043152D01*
X131718207Y-116043152D02*
X131670588Y-116138390D01*
X131670588Y-116138390D02*
X131622969Y-116186009D01*
X131622969Y-116186009D02*
X131527731Y-116233628D01*
X131527731Y-116233628D02*
X131146779Y-116233628D01*
X132099160Y-116424104D02*
X132575350Y-116424104D01*
X132003922Y-116709819D02*
X132337255Y-115709819D01*
X132337255Y-115709819D02*
X132670588Y-116709819D01*
X132956303Y-115805057D02*
X133003922Y-115757438D01*
X133003922Y-115757438D02*
X133099160Y-115709819D01*
X133099160Y-115709819D02*
X133337255Y-115709819D01*
X133337255Y-115709819D02*
X133432493Y-115757438D01*
X133432493Y-115757438D02*
X133480112Y-115805057D01*
X133480112Y-115805057D02*
X133527731Y-115900295D01*
X133527731Y-115900295D02*
X133527731Y-115995533D01*
X133527731Y-115995533D02*
X133480112Y-116138390D01*
X133480112Y-116138390D02*
X132908684Y-116709819D01*
X132908684Y-116709819D02*
X133527731Y-116709819D01*
X131146779Y-88769819D02*
X131146779Y-87769819D01*
X131146779Y-87769819D02*
X131527731Y-87769819D01*
X131527731Y-87769819D02*
X131622969Y-87817438D01*
X131622969Y-87817438D02*
X131670588Y-87865057D01*
X131670588Y-87865057D02*
X131718207Y-87960295D01*
X131718207Y-87960295D02*
X131718207Y-88103152D01*
X131718207Y-88103152D02*
X131670588Y-88198390D01*
X131670588Y-88198390D02*
X131622969Y-88246009D01*
X131622969Y-88246009D02*
X131527731Y-88293628D01*
X131527731Y-88293628D02*
X131146779Y-88293628D01*
X132480112Y-88246009D02*
X132622969Y-88293628D01*
X132622969Y-88293628D02*
X132670588Y-88341247D01*
X132670588Y-88341247D02*
X132718207Y-88436485D01*
X132718207Y-88436485D02*
X132718207Y-88579342D01*
X132718207Y-88579342D02*
X132670588Y-88674580D01*
X132670588Y-88674580D02*
X132622969Y-88722200D01*
X132622969Y-88722200D02*
X132527731Y-88769819D01*
X132527731Y-88769819D02*
X132146779Y-88769819D01*
X132146779Y-88769819D02*
X132146779Y-87769819D01*
X132146779Y-87769819D02*
X132480112Y-87769819D01*
X132480112Y-87769819D02*
X132575350Y-87817438D01*
X132575350Y-87817438D02*
X132622969Y-87865057D01*
X132622969Y-87865057D02*
X132670588Y-87960295D01*
X132670588Y-87960295D02*
X132670588Y-88055533D01*
X132670588Y-88055533D02*
X132622969Y-88150771D01*
X132622969Y-88150771D02*
X132575350Y-88198390D01*
X132575350Y-88198390D02*
X132480112Y-88246009D01*
X132480112Y-88246009D02*
X132146779Y-88246009D01*
X133289636Y-88198390D02*
X133194398Y-88150771D01*
X133194398Y-88150771D02*
X133146779Y-88103152D01*
X133146779Y-88103152D02*
X133099160Y-88007914D01*
X133099160Y-88007914D02*
X133099160Y-87960295D01*
X133099160Y-87960295D02*
X133146779Y-87865057D01*
X133146779Y-87865057D02*
X133194398Y-87817438D01*
X133194398Y-87817438D02*
X133289636Y-87769819D01*
X133289636Y-87769819D02*
X133480112Y-87769819D01*
X133480112Y-87769819D02*
X133575350Y-87817438D01*
X133575350Y-87817438D02*
X133622969Y-87865057D01*
X133622969Y-87865057D02*
X133670588Y-87960295D01*
X133670588Y-87960295D02*
X133670588Y-88007914D01*
X133670588Y-88007914D02*
X133622969Y-88103152D01*
X133622969Y-88103152D02*
X133575350Y-88150771D01*
X133575350Y-88150771D02*
X133480112Y-88198390D01*
X133480112Y-88198390D02*
X133289636Y-88198390D01*
X133289636Y-88198390D02*
X133194398Y-88246009D01*
X133194398Y-88246009D02*
X133146779Y-88293628D01*
X133146779Y-88293628D02*
X133099160Y-88388866D01*
X133099160Y-88388866D02*
X133099160Y-88579342D01*
X133099160Y-88579342D02*
X133146779Y-88674580D01*
X133146779Y-88674580D02*
X133194398Y-88722200D01*
X133194398Y-88722200D02*
X133289636Y-88769819D01*
X133289636Y-88769819D02*
X133480112Y-88769819D01*
X133480112Y-88769819D02*
X133575350Y-88722200D01*
X133575350Y-88722200D02*
X133622969Y-88674580D01*
X133622969Y-88674580D02*
X133670588Y-88579342D01*
X133670588Y-88579342D02*
X133670588Y-88388866D01*
X133670588Y-88388866D02*
X133622969Y-88293628D01*
X133622969Y-88293628D02*
X133575350Y-88246009D01*
X133575350Y-88246009D02*
X133480112Y-88198390D01*
X155911779Y-109089819D02*
X155911779Y-108089819D01*
X155911779Y-108089819D02*
X156292731Y-108089819D01*
X156292731Y-108089819D02*
X156387969Y-108137438D01*
X156387969Y-108137438D02*
X156435588Y-108185057D01*
X156435588Y-108185057D02*
X156483207Y-108280295D01*
X156483207Y-108280295D02*
X156483207Y-108423152D01*
X156483207Y-108423152D02*
X156435588Y-108518390D01*
X156435588Y-108518390D02*
X156387969Y-108566009D01*
X156387969Y-108566009D02*
X156292731Y-108613628D01*
X156292731Y-108613628D02*
X155911779Y-108613628D01*
X157483207Y-108994580D02*
X157435588Y-109042200D01*
X157435588Y-109042200D02*
X157292731Y-109089819D01*
X157292731Y-109089819D02*
X157197493Y-109089819D01*
X157197493Y-109089819D02*
X157054636Y-109042200D01*
X157054636Y-109042200D02*
X156959398Y-108946961D01*
X156959398Y-108946961D02*
X156911779Y-108851723D01*
X156911779Y-108851723D02*
X156864160Y-108661247D01*
X156864160Y-108661247D02*
X156864160Y-108518390D01*
X156864160Y-108518390D02*
X156911779Y-108327914D01*
X156911779Y-108327914D02*
X156959398Y-108232676D01*
X156959398Y-108232676D02*
X157054636Y-108137438D01*
X157054636Y-108137438D02*
X157197493Y-108089819D01*
X157197493Y-108089819D02*
X157292731Y-108089819D01*
X157292731Y-108089819D02*
X157435588Y-108137438D01*
X157435588Y-108137438D02*
X157483207Y-108185057D01*
X157816541Y-108089819D02*
X158483207Y-108089819D01*
X158483207Y-108089819D02*
X158054636Y-109089819D01*
X155911779Y-104009819D02*
X155911779Y-103009819D01*
X155911779Y-103009819D02*
X156292731Y-103009819D01*
X156292731Y-103009819D02*
X156387969Y-103057438D01*
X156387969Y-103057438D02*
X156435588Y-103105057D01*
X156435588Y-103105057D02*
X156483207Y-103200295D01*
X156483207Y-103200295D02*
X156483207Y-103343152D01*
X156483207Y-103343152D02*
X156435588Y-103438390D01*
X156435588Y-103438390D02*
X156387969Y-103486009D01*
X156387969Y-103486009D02*
X156292731Y-103533628D01*
X156292731Y-103533628D02*
X155911779Y-103533628D01*
X157483207Y-103914580D02*
X157435588Y-103962200D01*
X157435588Y-103962200D02*
X157292731Y-104009819D01*
X157292731Y-104009819D02*
X157197493Y-104009819D01*
X157197493Y-104009819D02*
X157054636Y-103962200D01*
X157054636Y-103962200D02*
X156959398Y-103866961D01*
X156959398Y-103866961D02*
X156911779Y-103771723D01*
X156911779Y-103771723D02*
X156864160Y-103581247D01*
X156864160Y-103581247D02*
X156864160Y-103438390D01*
X156864160Y-103438390D02*
X156911779Y-103247914D01*
X156911779Y-103247914D02*
X156959398Y-103152676D01*
X156959398Y-103152676D02*
X157054636Y-103057438D01*
X157054636Y-103057438D02*
X157197493Y-103009819D01*
X157197493Y-103009819D02*
X157292731Y-103009819D01*
X157292731Y-103009819D02*
X157435588Y-103057438D01*
X157435588Y-103057438D02*
X157483207Y-103105057D01*
X157959398Y-104009819D02*
X158149874Y-104009819D01*
X158149874Y-104009819D02*
X158245112Y-103962200D01*
X158245112Y-103962200D02*
X158292731Y-103914580D01*
X158292731Y-103914580D02*
X158387969Y-103771723D01*
X158387969Y-103771723D02*
X158435588Y-103581247D01*
X158435588Y-103581247D02*
X158435588Y-103200295D01*
X158435588Y-103200295D02*
X158387969Y-103105057D01*
X158387969Y-103105057D02*
X158340350Y-103057438D01*
X158340350Y-103057438D02*
X158245112Y-103009819D01*
X158245112Y-103009819D02*
X158054636Y-103009819D01*
X158054636Y-103009819D02*
X157959398Y-103057438D01*
X157959398Y-103057438D02*
X157911779Y-103105057D01*
X157911779Y-103105057D02*
X157864160Y-103200295D01*
X157864160Y-103200295D02*
X157864160Y-103438390D01*
X157864160Y-103438390D02*
X157911779Y-103533628D01*
X157911779Y-103533628D02*
X157959398Y-103581247D01*
X157959398Y-103581247D02*
X158054636Y-103628866D01*
X158054636Y-103628866D02*
X158245112Y-103628866D01*
X158245112Y-103628866D02*
X158340350Y-103581247D01*
X158340350Y-103581247D02*
X158387969Y-103533628D01*
X158387969Y-103533628D02*
X158435588Y-103438390D01*
X155911779Y-111629819D02*
X155911779Y-110629819D01*
X155911779Y-110629819D02*
X156292731Y-110629819D01*
X156292731Y-110629819D02*
X156387969Y-110677438D01*
X156387969Y-110677438D02*
X156435588Y-110725057D01*
X156435588Y-110725057D02*
X156483207Y-110820295D01*
X156483207Y-110820295D02*
X156483207Y-110963152D01*
X156483207Y-110963152D02*
X156435588Y-111058390D01*
X156435588Y-111058390D02*
X156387969Y-111106009D01*
X156387969Y-111106009D02*
X156292731Y-111153628D01*
X156292731Y-111153628D02*
X155911779Y-111153628D01*
X157483207Y-111534580D02*
X157435588Y-111582200D01*
X157435588Y-111582200D02*
X157292731Y-111629819D01*
X157292731Y-111629819D02*
X157197493Y-111629819D01*
X157197493Y-111629819D02*
X157054636Y-111582200D01*
X157054636Y-111582200D02*
X156959398Y-111486961D01*
X156959398Y-111486961D02*
X156911779Y-111391723D01*
X156911779Y-111391723D02*
X156864160Y-111201247D01*
X156864160Y-111201247D02*
X156864160Y-111058390D01*
X156864160Y-111058390D02*
X156911779Y-110867914D01*
X156911779Y-110867914D02*
X156959398Y-110772676D01*
X156959398Y-110772676D02*
X157054636Y-110677438D01*
X157054636Y-110677438D02*
X157197493Y-110629819D01*
X157197493Y-110629819D02*
X157292731Y-110629819D01*
X157292731Y-110629819D02*
X157435588Y-110677438D01*
X157435588Y-110677438D02*
X157483207Y-110725057D01*
X158340350Y-110629819D02*
X158149874Y-110629819D01*
X158149874Y-110629819D02*
X158054636Y-110677438D01*
X158054636Y-110677438D02*
X158007017Y-110725057D01*
X158007017Y-110725057D02*
X157911779Y-110867914D01*
X157911779Y-110867914D02*
X157864160Y-111058390D01*
X157864160Y-111058390D02*
X157864160Y-111439342D01*
X157864160Y-111439342D02*
X157911779Y-111534580D01*
X157911779Y-111534580D02*
X157959398Y-111582200D01*
X157959398Y-111582200D02*
X158054636Y-111629819D01*
X158054636Y-111629819D02*
X158245112Y-111629819D01*
X158245112Y-111629819D02*
X158340350Y-111582200D01*
X158340350Y-111582200D02*
X158387969Y-111534580D01*
X158387969Y-111534580D02*
X158435588Y-111439342D01*
X158435588Y-111439342D02*
X158435588Y-111201247D01*
X158435588Y-111201247D02*
X158387969Y-111106009D01*
X158387969Y-111106009D02*
X158340350Y-111058390D01*
X158340350Y-111058390D02*
X158245112Y-111010771D01*
X158245112Y-111010771D02*
X158054636Y-111010771D01*
X158054636Y-111010771D02*
X157959398Y-111058390D01*
X157959398Y-111058390D02*
X157911779Y-111106009D01*
X157911779Y-111106009D02*
X157864160Y-111201247D01*
X156387969Y-85229819D02*
X155911779Y-85229819D01*
X155911779Y-85229819D02*
X155864160Y-85706009D01*
X155864160Y-85706009D02*
X155911779Y-85658390D01*
X155911779Y-85658390D02*
X156007017Y-85610771D01*
X156007017Y-85610771D02*
X156245112Y-85610771D01*
X156245112Y-85610771D02*
X156340350Y-85658390D01*
X156340350Y-85658390D02*
X156387969Y-85706009D01*
X156387969Y-85706009D02*
X156435588Y-85801247D01*
X156435588Y-85801247D02*
X156435588Y-86039342D01*
X156435588Y-86039342D02*
X156387969Y-86134580D01*
X156387969Y-86134580D02*
X156340350Y-86182200D01*
X156340350Y-86182200D02*
X156245112Y-86229819D01*
X156245112Y-86229819D02*
X156007017Y-86229819D01*
X156007017Y-86229819D02*
X155911779Y-86182200D01*
X155911779Y-86182200D02*
X155864160Y-86134580D01*
X156721303Y-85229819D02*
X157054636Y-86229819D01*
X157054636Y-86229819D02*
X157387969Y-85229819D01*
X131670588Y-128457438D02*
X131575350Y-128409819D01*
X131575350Y-128409819D02*
X131432493Y-128409819D01*
X131432493Y-128409819D02*
X131289636Y-128457438D01*
X131289636Y-128457438D02*
X131194398Y-128552676D01*
X131194398Y-128552676D02*
X131146779Y-128647914D01*
X131146779Y-128647914D02*
X131099160Y-128838390D01*
X131099160Y-128838390D02*
X131099160Y-128981247D01*
X131099160Y-128981247D02*
X131146779Y-129171723D01*
X131146779Y-129171723D02*
X131194398Y-129266961D01*
X131194398Y-129266961D02*
X131289636Y-129362200D01*
X131289636Y-129362200D02*
X131432493Y-129409819D01*
X131432493Y-129409819D02*
X131527731Y-129409819D01*
X131527731Y-129409819D02*
X131670588Y-129362200D01*
X131670588Y-129362200D02*
X131718207Y-129314580D01*
X131718207Y-129314580D02*
X131718207Y-128981247D01*
X131718207Y-128981247D02*
X131527731Y-128981247D01*
X132146779Y-129409819D02*
X132146779Y-128409819D01*
X132146779Y-128409819D02*
X132718207Y-129409819D01*
X132718207Y-129409819D02*
X132718207Y-128409819D01*
X133194398Y-129409819D02*
X133194398Y-128409819D01*
X133194398Y-128409819D02*
X133432493Y-128409819D01*
X133432493Y-128409819D02*
X133575350Y-128457438D01*
X133575350Y-128457438D02*
X133670588Y-128552676D01*
X133670588Y-128552676D02*
X133718207Y-128647914D01*
X133718207Y-128647914D02*
X133765826Y-128838390D01*
X133765826Y-128838390D02*
X133765826Y-128981247D01*
X133765826Y-128981247D02*
X133718207Y-129171723D01*
X133718207Y-129171723D02*
X133670588Y-129266961D01*
X133670588Y-129266961D02*
X133575350Y-129362200D01*
X133575350Y-129362200D02*
X133432493Y-129409819D01*
X133432493Y-129409819D02*
X133194398Y-129409819D01*
X133639160Y-59752200D02*
X133782017Y-59799819D01*
X133782017Y-59799819D02*
X134020112Y-59799819D01*
X134020112Y-59799819D02*
X134115350Y-59752200D01*
X134115350Y-59752200D02*
X134162969Y-59704580D01*
X134162969Y-59704580D02*
X134210588Y-59609342D01*
X134210588Y-59609342D02*
X134210588Y-59514104D01*
X134210588Y-59514104D02*
X134162969Y-59418866D01*
X134162969Y-59418866D02*
X134115350Y-59371247D01*
X134115350Y-59371247D02*
X134020112Y-59323628D01*
X134020112Y-59323628D02*
X133829636Y-59276009D01*
X133829636Y-59276009D02*
X133734398Y-59228390D01*
X133734398Y-59228390D02*
X133686779Y-59180771D01*
X133686779Y-59180771D02*
X133639160Y-59085533D01*
X133639160Y-59085533D02*
X133639160Y-58990295D01*
X133639160Y-58990295D02*
X133686779Y-58895057D01*
X133686779Y-58895057D02*
X133734398Y-58847438D01*
X133734398Y-58847438D02*
X133829636Y-58799819D01*
X133829636Y-58799819D02*
X134067731Y-58799819D01*
X134067731Y-58799819D02*
X134210588Y-58847438D01*
X134496303Y-58799819D02*
X135067731Y-58799819D01*
X134782017Y-59799819D02*
X134782017Y-58799819D01*
X135401065Y-59799819D02*
X135401065Y-58799819D01*
X135401065Y-58799819D02*
X135734398Y-59514104D01*
X135734398Y-59514104D02*
X136067731Y-58799819D01*
X136067731Y-58799819D02*
X136067731Y-59799819D01*
X136448684Y-58799819D02*
X137067731Y-58799819D01*
X137067731Y-58799819D02*
X136734398Y-59180771D01*
X136734398Y-59180771D02*
X136877255Y-59180771D01*
X136877255Y-59180771D02*
X136972493Y-59228390D01*
X136972493Y-59228390D02*
X137020112Y-59276009D01*
X137020112Y-59276009D02*
X137067731Y-59371247D01*
X137067731Y-59371247D02*
X137067731Y-59609342D01*
X137067731Y-59609342D02*
X137020112Y-59704580D01*
X137020112Y-59704580D02*
X136972493Y-59752200D01*
X136972493Y-59752200D02*
X136877255Y-59799819D01*
X136877255Y-59799819D02*
X136591541Y-59799819D01*
X136591541Y-59799819D02*
X136496303Y-59752200D01*
X136496303Y-59752200D02*
X136448684Y-59704580D01*
X137448684Y-58895057D02*
X137496303Y-58847438D01*
X137496303Y-58847438D02*
X137591541Y-58799819D01*
X137591541Y-58799819D02*
X137829636Y-58799819D01*
X137829636Y-58799819D02*
X137924874Y-58847438D01*
X137924874Y-58847438D02*
X137972493Y-58895057D01*
X137972493Y-58895057D02*
X138020112Y-58990295D01*
X138020112Y-58990295D02*
X138020112Y-59085533D01*
X138020112Y-59085533D02*
X137972493Y-59228390D01*
X137972493Y-59228390D02*
X137401065Y-59799819D01*
X137401065Y-59799819D02*
X138020112Y-59799819D01*
X138782017Y-59276009D02*
X138448684Y-59276009D01*
X138448684Y-59799819D02*
X138448684Y-58799819D01*
X138448684Y-58799819D02*
X138924874Y-58799819D01*
X139829636Y-59799819D02*
X139258208Y-59799819D01*
X139543922Y-59799819D02*
X139543922Y-58799819D01*
X139543922Y-58799819D02*
X139448684Y-58942676D01*
X139448684Y-58942676D02*
X139353446Y-59037914D01*
X139353446Y-59037914D02*
X139258208Y-59085533D01*
X140448684Y-58799819D02*
X140543922Y-58799819D01*
X140543922Y-58799819D02*
X140639160Y-58847438D01*
X140639160Y-58847438D02*
X140686779Y-58895057D01*
X140686779Y-58895057D02*
X140734398Y-58990295D01*
X140734398Y-58990295D02*
X140782017Y-59180771D01*
X140782017Y-59180771D02*
X140782017Y-59418866D01*
X140782017Y-59418866D02*
X140734398Y-59609342D01*
X140734398Y-59609342D02*
X140686779Y-59704580D01*
X140686779Y-59704580D02*
X140639160Y-59752200D01*
X140639160Y-59752200D02*
X140543922Y-59799819D01*
X140543922Y-59799819D02*
X140448684Y-59799819D01*
X140448684Y-59799819D02*
X140353446Y-59752200D01*
X140353446Y-59752200D02*
X140305827Y-59704580D01*
X140305827Y-59704580D02*
X140258208Y-59609342D01*
X140258208Y-59609342D02*
X140210589Y-59418866D01*
X140210589Y-59418866D02*
X140210589Y-59180771D01*
X140210589Y-59180771D02*
X140258208Y-58990295D01*
X140258208Y-58990295D02*
X140305827Y-58895057D01*
X140305827Y-58895057D02*
X140353446Y-58847438D01*
X140353446Y-58847438D02*
X140448684Y-58799819D01*
X141115351Y-58799819D02*
X141734398Y-58799819D01*
X141734398Y-58799819D02*
X141401065Y-59180771D01*
X141401065Y-59180771D02*
X141543922Y-59180771D01*
X141543922Y-59180771D02*
X141639160Y-59228390D01*
X141639160Y-59228390D02*
X141686779Y-59276009D01*
X141686779Y-59276009D02*
X141734398Y-59371247D01*
X141734398Y-59371247D02*
X141734398Y-59609342D01*
X141734398Y-59609342D02*
X141686779Y-59704580D01*
X141686779Y-59704580D02*
X141639160Y-59752200D01*
X141639160Y-59752200D02*
X141543922Y-59799819D01*
X141543922Y-59799819D02*
X141258208Y-59799819D01*
X141258208Y-59799819D02*
X141162970Y-59752200D01*
X141162970Y-59752200D02*
X141115351Y-59704580D01*
X142924875Y-59799819D02*
X142924875Y-58799819D01*
X142924875Y-58799819D02*
X143162970Y-58799819D01*
X143162970Y-58799819D02*
X143305827Y-58847438D01*
X143305827Y-58847438D02*
X143401065Y-58942676D01*
X143401065Y-58942676D02*
X143448684Y-59037914D01*
X143448684Y-59037914D02*
X143496303Y-59228390D01*
X143496303Y-59228390D02*
X143496303Y-59371247D01*
X143496303Y-59371247D02*
X143448684Y-59561723D01*
X143448684Y-59561723D02*
X143401065Y-59656961D01*
X143401065Y-59656961D02*
X143305827Y-59752200D01*
X143305827Y-59752200D02*
X143162970Y-59799819D01*
X143162970Y-59799819D02*
X142924875Y-59799819D01*
X144305827Y-59752200D02*
X144210589Y-59799819D01*
X144210589Y-59799819D02*
X144020113Y-59799819D01*
X144020113Y-59799819D02*
X143924875Y-59752200D01*
X143924875Y-59752200D02*
X143877256Y-59656961D01*
X143877256Y-59656961D02*
X143877256Y-59276009D01*
X143877256Y-59276009D02*
X143924875Y-59180771D01*
X143924875Y-59180771D02*
X144020113Y-59133152D01*
X144020113Y-59133152D02*
X144210589Y-59133152D01*
X144210589Y-59133152D02*
X144305827Y-59180771D01*
X144305827Y-59180771D02*
X144353446Y-59276009D01*
X144353446Y-59276009D02*
X144353446Y-59371247D01*
X144353446Y-59371247D02*
X143877256Y-59466485D01*
X144686780Y-59133152D02*
X144924875Y-59799819D01*
X144924875Y-59799819D02*
X145162970Y-59133152D01*
X145924875Y-59752200D02*
X145829637Y-59799819D01*
X145829637Y-59799819D02*
X145639161Y-59799819D01*
X145639161Y-59799819D02*
X145543923Y-59752200D01*
X145543923Y-59752200D02*
X145496304Y-59656961D01*
X145496304Y-59656961D02*
X145496304Y-59276009D01*
X145496304Y-59276009D02*
X145543923Y-59180771D01*
X145543923Y-59180771D02*
X145639161Y-59133152D01*
X145639161Y-59133152D02*
X145829637Y-59133152D01*
X145829637Y-59133152D02*
X145924875Y-59180771D01*
X145924875Y-59180771D02*
X145972494Y-59276009D01*
X145972494Y-59276009D02*
X145972494Y-59371247D01*
X145972494Y-59371247D02*
X145496304Y-59466485D01*
X146543923Y-59799819D02*
X146448685Y-59752200D01*
X146448685Y-59752200D02*
X146401066Y-59656961D01*
X146401066Y-59656961D02*
X146401066Y-58799819D01*
X147067733Y-59799819D02*
X146972495Y-59752200D01*
X146972495Y-59752200D02*
X146924876Y-59704580D01*
X146924876Y-59704580D02*
X146877257Y-59609342D01*
X146877257Y-59609342D02*
X146877257Y-59323628D01*
X146877257Y-59323628D02*
X146924876Y-59228390D01*
X146924876Y-59228390D02*
X146972495Y-59180771D01*
X146972495Y-59180771D02*
X147067733Y-59133152D01*
X147067733Y-59133152D02*
X147210590Y-59133152D01*
X147210590Y-59133152D02*
X147305828Y-59180771D01*
X147305828Y-59180771D02*
X147353447Y-59228390D01*
X147353447Y-59228390D02*
X147401066Y-59323628D01*
X147401066Y-59323628D02*
X147401066Y-59609342D01*
X147401066Y-59609342D02*
X147353447Y-59704580D01*
X147353447Y-59704580D02*
X147305828Y-59752200D01*
X147305828Y-59752200D02*
X147210590Y-59799819D01*
X147210590Y-59799819D02*
X147067733Y-59799819D01*
X147829638Y-59133152D02*
X147829638Y-60133152D01*
X147829638Y-59180771D02*
X147924876Y-59133152D01*
X147924876Y-59133152D02*
X148115352Y-59133152D01*
X148115352Y-59133152D02*
X148210590Y-59180771D01*
X148210590Y-59180771D02*
X148258209Y-59228390D01*
X148258209Y-59228390D02*
X148305828Y-59323628D01*
X148305828Y-59323628D02*
X148305828Y-59609342D01*
X148305828Y-59609342D02*
X148258209Y-59704580D01*
X148258209Y-59704580D02*
X148210590Y-59752200D01*
X148210590Y-59752200D02*
X148115352Y-59799819D01*
X148115352Y-59799819D02*
X147924876Y-59799819D01*
X147924876Y-59799819D02*
X147829638Y-59752200D01*
X148734400Y-59799819D02*
X148734400Y-59133152D01*
X148734400Y-59228390D02*
X148782019Y-59180771D01*
X148782019Y-59180771D02*
X148877257Y-59133152D01*
X148877257Y-59133152D02*
X149020114Y-59133152D01*
X149020114Y-59133152D02*
X149115352Y-59180771D01*
X149115352Y-59180771D02*
X149162971Y-59276009D01*
X149162971Y-59276009D02*
X149162971Y-59799819D01*
X149162971Y-59276009D02*
X149210590Y-59180771D01*
X149210590Y-59180771D02*
X149305828Y-59133152D01*
X149305828Y-59133152D02*
X149448685Y-59133152D01*
X149448685Y-59133152D02*
X149543924Y-59180771D01*
X149543924Y-59180771D02*
X149591543Y-59276009D01*
X149591543Y-59276009D02*
X149591543Y-59799819D01*
X150448685Y-59752200D02*
X150353447Y-59799819D01*
X150353447Y-59799819D02*
X150162971Y-59799819D01*
X150162971Y-59799819D02*
X150067733Y-59752200D01*
X150067733Y-59752200D02*
X150020114Y-59656961D01*
X150020114Y-59656961D02*
X150020114Y-59276009D01*
X150020114Y-59276009D02*
X150067733Y-59180771D01*
X150067733Y-59180771D02*
X150162971Y-59133152D01*
X150162971Y-59133152D02*
X150353447Y-59133152D01*
X150353447Y-59133152D02*
X150448685Y-59180771D01*
X150448685Y-59180771D02*
X150496304Y-59276009D01*
X150496304Y-59276009D02*
X150496304Y-59371247D01*
X150496304Y-59371247D02*
X150020114Y-59466485D01*
X150924876Y-59133152D02*
X150924876Y-59799819D01*
X150924876Y-59228390D02*
X150972495Y-59180771D01*
X150972495Y-59180771D02*
X151067733Y-59133152D01*
X151067733Y-59133152D02*
X151210590Y-59133152D01*
X151210590Y-59133152D02*
X151305828Y-59180771D01*
X151305828Y-59180771D02*
X151353447Y-59276009D01*
X151353447Y-59276009D02*
X151353447Y-59799819D01*
X151686781Y-59133152D02*
X152067733Y-59133152D01*
X151829638Y-58799819D02*
X151829638Y-59656961D01*
X151829638Y-59656961D02*
X151877257Y-59752200D01*
X151877257Y-59752200D02*
X151972495Y-59799819D01*
X151972495Y-59799819D02*
X152067733Y-59799819D01*
X153496305Y-59276009D02*
X153639162Y-59323628D01*
X153639162Y-59323628D02*
X153686781Y-59371247D01*
X153686781Y-59371247D02*
X153734400Y-59466485D01*
X153734400Y-59466485D02*
X153734400Y-59609342D01*
X153734400Y-59609342D02*
X153686781Y-59704580D01*
X153686781Y-59704580D02*
X153639162Y-59752200D01*
X153639162Y-59752200D02*
X153543924Y-59799819D01*
X153543924Y-59799819D02*
X153162972Y-59799819D01*
X153162972Y-59799819D02*
X153162972Y-58799819D01*
X153162972Y-58799819D02*
X153496305Y-58799819D01*
X153496305Y-58799819D02*
X153591543Y-58847438D01*
X153591543Y-58847438D02*
X153639162Y-58895057D01*
X153639162Y-58895057D02*
X153686781Y-58990295D01*
X153686781Y-58990295D02*
X153686781Y-59085533D01*
X153686781Y-59085533D02*
X153639162Y-59180771D01*
X153639162Y-59180771D02*
X153591543Y-59228390D01*
X153591543Y-59228390D02*
X153496305Y-59276009D01*
X153496305Y-59276009D02*
X153162972Y-59276009D01*
X154305829Y-59799819D02*
X154210591Y-59752200D01*
X154210591Y-59752200D02*
X154162972Y-59704580D01*
X154162972Y-59704580D02*
X154115353Y-59609342D01*
X154115353Y-59609342D02*
X154115353Y-59323628D01*
X154115353Y-59323628D02*
X154162972Y-59228390D01*
X154162972Y-59228390D02*
X154210591Y-59180771D01*
X154210591Y-59180771D02*
X154305829Y-59133152D01*
X154305829Y-59133152D02*
X154448686Y-59133152D01*
X154448686Y-59133152D02*
X154543924Y-59180771D01*
X154543924Y-59180771D02*
X154591543Y-59228390D01*
X154591543Y-59228390D02*
X154639162Y-59323628D01*
X154639162Y-59323628D02*
X154639162Y-59609342D01*
X154639162Y-59609342D02*
X154591543Y-59704580D01*
X154591543Y-59704580D02*
X154543924Y-59752200D01*
X154543924Y-59752200D02*
X154448686Y-59799819D01*
X154448686Y-59799819D02*
X154305829Y-59799819D01*
X155496305Y-59799819D02*
X155496305Y-59276009D01*
X155496305Y-59276009D02*
X155448686Y-59180771D01*
X155448686Y-59180771D02*
X155353448Y-59133152D01*
X155353448Y-59133152D02*
X155162972Y-59133152D01*
X155162972Y-59133152D02*
X155067734Y-59180771D01*
X155496305Y-59752200D02*
X155401067Y-59799819D01*
X155401067Y-59799819D02*
X155162972Y-59799819D01*
X155162972Y-59799819D02*
X155067734Y-59752200D01*
X155067734Y-59752200D02*
X155020115Y-59656961D01*
X155020115Y-59656961D02*
X155020115Y-59561723D01*
X155020115Y-59561723D02*
X155067734Y-59466485D01*
X155067734Y-59466485D02*
X155162972Y-59418866D01*
X155162972Y-59418866D02*
X155401067Y-59418866D01*
X155401067Y-59418866D02*
X155496305Y-59371247D01*
X155972496Y-59799819D02*
X155972496Y-59133152D01*
X155972496Y-59323628D02*
X156020115Y-59228390D01*
X156020115Y-59228390D02*
X156067734Y-59180771D01*
X156067734Y-59180771D02*
X156162972Y-59133152D01*
X156162972Y-59133152D02*
X156258210Y-59133152D01*
X157020115Y-59799819D02*
X157020115Y-58799819D01*
X157020115Y-59752200D02*
X156924877Y-59799819D01*
X156924877Y-59799819D02*
X156734401Y-59799819D01*
X156734401Y-59799819D02*
X156639163Y-59752200D01*
X156639163Y-59752200D02*
X156591544Y-59704580D01*
X156591544Y-59704580D02*
X156543925Y-59609342D01*
X156543925Y-59609342D02*
X156543925Y-59323628D01*
X156543925Y-59323628D02*
X156591544Y-59228390D01*
X156591544Y-59228390D02*
X156639163Y-59180771D01*
X156639163Y-59180771D02*
X156734401Y-59133152D01*
X156734401Y-59133152D02*
X156924877Y-59133152D01*
X156924877Y-59133152D02*
X157020115Y-59180771D01*
X133686779Y-61409819D02*
X133686779Y-60409819D01*
X133686779Y-60409819D02*
X134020112Y-61124104D01*
X134020112Y-61124104D02*
X134353445Y-60409819D01*
X134353445Y-60409819D02*
X134353445Y-61409819D01*
X135258207Y-61409819D02*
X135258207Y-60886009D01*
X135258207Y-60886009D02*
X135210588Y-60790771D01*
X135210588Y-60790771D02*
X135115350Y-60743152D01*
X135115350Y-60743152D02*
X134924874Y-60743152D01*
X134924874Y-60743152D02*
X134829636Y-60790771D01*
X135258207Y-61362200D02*
X135162969Y-61409819D01*
X135162969Y-61409819D02*
X134924874Y-61409819D01*
X134924874Y-61409819D02*
X134829636Y-61362200D01*
X134829636Y-61362200D02*
X134782017Y-61266961D01*
X134782017Y-61266961D02*
X134782017Y-61171723D01*
X134782017Y-61171723D02*
X134829636Y-61076485D01*
X134829636Y-61076485D02*
X134924874Y-61028866D01*
X134924874Y-61028866D02*
X135162969Y-61028866D01*
X135162969Y-61028866D02*
X135258207Y-60981247D01*
X136162969Y-61409819D02*
X136162969Y-60409819D01*
X136162969Y-61362200D02*
X136067731Y-61409819D01*
X136067731Y-61409819D02*
X135877255Y-61409819D01*
X135877255Y-61409819D02*
X135782017Y-61362200D01*
X135782017Y-61362200D02*
X135734398Y-61314580D01*
X135734398Y-61314580D02*
X135686779Y-61219342D01*
X135686779Y-61219342D02*
X135686779Y-60933628D01*
X135686779Y-60933628D02*
X135734398Y-60838390D01*
X135734398Y-60838390D02*
X135782017Y-60790771D01*
X135782017Y-60790771D02*
X135877255Y-60743152D01*
X135877255Y-60743152D02*
X136067731Y-60743152D01*
X136067731Y-60743152D02*
X136162969Y-60790771D01*
X137020112Y-61362200D02*
X136924874Y-61409819D01*
X136924874Y-61409819D02*
X136734398Y-61409819D01*
X136734398Y-61409819D02*
X136639160Y-61362200D01*
X136639160Y-61362200D02*
X136591541Y-61266961D01*
X136591541Y-61266961D02*
X136591541Y-60886009D01*
X136591541Y-60886009D02*
X136639160Y-60790771D01*
X136639160Y-60790771D02*
X136734398Y-60743152D01*
X136734398Y-60743152D02*
X136924874Y-60743152D01*
X136924874Y-60743152D02*
X137020112Y-60790771D01*
X137020112Y-60790771D02*
X137067731Y-60886009D01*
X137067731Y-60886009D02*
X137067731Y-60981247D01*
X137067731Y-60981247D02*
X136591541Y-61076485D01*
X138258208Y-61409819D02*
X138258208Y-60409819D01*
X138258208Y-60790771D02*
X138353446Y-60743152D01*
X138353446Y-60743152D02*
X138543922Y-60743152D01*
X138543922Y-60743152D02*
X138639160Y-60790771D01*
X138639160Y-60790771D02*
X138686779Y-60838390D01*
X138686779Y-60838390D02*
X138734398Y-60933628D01*
X138734398Y-60933628D02*
X138734398Y-61219342D01*
X138734398Y-61219342D02*
X138686779Y-61314580D01*
X138686779Y-61314580D02*
X138639160Y-61362200D01*
X138639160Y-61362200D02*
X138543922Y-61409819D01*
X138543922Y-61409819D02*
X138353446Y-61409819D01*
X138353446Y-61409819D02*
X138258208Y-61362200D01*
X139067732Y-60743152D02*
X139305827Y-61409819D01*
X139543922Y-60743152D02*
X139305827Y-61409819D01*
X139305827Y-61409819D02*
X139210589Y-61647914D01*
X139210589Y-61647914D02*
X139162970Y-61695533D01*
X139162970Y-61695533D02*
X139067732Y-61743152D01*
X140972494Y-60409819D02*
X140972494Y-61124104D01*
X140972494Y-61124104D02*
X140924875Y-61266961D01*
X140924875Y-61266961D02*
X140829637Y-61362200D01*
X140829637Y-61362200D02*
X140686780Y-61409819D01*
X140686780Y-61409819D02*
X140591542Y-61409819D01*
X141591542Y-61409819D02*
X141496304Y-61362200D01*
X141496304Y-61362200D02*
X141448685Y-61314580D01*
X141448685Y-61314580D02*
X141401066Y-61219342D01*
X141401066Y-61219342D02*
X141401066Y-60933628D01*
X141401066Y-60933628D02*
X141448685Y-60838390D01*
X141448685Y-60838390D02*
X141496304Y-60790771D01*
X141496304Y-60790771D02*
X141591542Y-60743152D01*
X141591542Y-60743152D02*
X141734399Y-60743152D01*
X141734399Y-60743152D02*
X141829637Y-60790771D01*
X141829637Y-60790771D02*
X141877256Y-60838390D01*
X141877256Y-60838390D02*
X141924875Y-60933628D01*
X141924875Y-60933628D02*
X141924875Y-61219342D01*
X141924875Y-61219342D02*
X141877256Y-61314580D01*
X141877256Y-61314580D02*
X141829637Y-61362200D01*
X141829637Y-61362200D02*
X141734399Y-61409819D01*
X141734399Y-61409819D02*
X141591542Y-61409819D01*
X142353447Y-60743152D02*
X142353447Y-61409819D01*
X142353447Y-60838390D02*
X142401066Y-60790771D01*
X142401066Y-60790771D02*
X142496304Y-60743152D01*
X142496304Y-60743152D02*
X142639161Y-60743152D01*
X142639161Y-60743152D02*
X142734399Y-60790771D01*
X142734399Y-60790771D02*
X142782018Y-60886009D01*
X142782018Y-60886009D02*
X142782018Y-61409819D01*
X143686780Y-60743152D02*
X143686780Y-61552676D01*
X143686780Y-61552676D02*
X143639161Y-61647914D01*
X143639161Y-61647914D02*
X143591542Y-61695533D01*
X143591542Y-61695533D02*
X143496304Y-61743152D01*
X143496304Y-61743152D02*
X143353447Y-61743152D01*
X143353447Y-61743152D02*
X143258209Y-61695533D01*
X143686780Y-61362200D02*
X143591542Y-61409819D01*
X143591542Y-61409819D02*
X143401066Y-61409819D01*
X143401066Y-61409819D02*
X143305828Y-61362200D01*
X143305828Y-61362200D02*
X143258209Y-61314580D01*
X143258209Y-61314580D02*
X143210590Y-61219342D01*
X143210590Y-61219342D02*
X143210590Y-60933628D01*
X143210590Y-60933628D02*
X143258209Y-60838390D01*
X143258209Y-60838390D02*
X143305828Y-60790771D01*
X143305828Y-60790771D02*
X143401066Y-60743152D01*
X143401066Y-60743152D02*
X143591542Y-60743152D01*
X143591542Y-60743152D02*
X143686780Y-60790771D01*
X144162971Y-61409819D02*
X144162971Y-60409819D01*
X144591542Y-61409819D02*
X144591542Y-60886009D01*
X144591542Y-60886009D02*
X144543923Y-60790771D01*
X144543923Y-60790771D02*
X144448685Y-60743152D01*
X144448685Y-60743152D02*
X144305828Y-60743152D01*
X144305828Y-60743152D02*
X144210590Y-60790771D01*
X144210590Y-60790771D02*
X144162971Y-60838390D01*
X145448685Y-61362200D02*
X145353447Y-61409819D01*
X145353447Y-61409819D02*
X145162971Y-61409819D01*
X145162971Y-61409819D02*
X145067733Y-61362200D01*
X145067733Y-61362200D02*
X145020114Y-61266961D01*
X145020114Y-61266961D02*
X145020114Y-60886009D01*
X145020114Y-60886009D02*
X145067733Y-60790771D01*
X145067733Y-60790771D02*
X145162971Y-60743152D01*
X145162971Y-60743152D02*
X145353447Y-60743152D01*
X145353447Y-60743152D02*
X145448685Y-60790771D01*
X145448685Y-60790771D02*
X145496304Y-60886009D01*
X145496304Y-60886009D02*
X145496304Y-60981247D01*
X145496304Y-60981247D02*
X145020114Y-61076485D01*
X146305828Y-61362200D02*
X146210590Y-61409819D01*
X146210590Y-61409819D02*
X146020114Y-61409819D01*
X146020114Y-61409819D02*
X145924876Y-61362200D01*
X145924876Y-61362200D02*
X145877257Y-61266961D01*
X145877257Y-61266961D02*
X145877257Y-60886009D01*
X145877257Y-60886009D02*
X145924876Y-60790771D01*
X145924876Y-60790771D02*
X146020114Y-60743152D01*
X146020114Y-60743152D02*
X146210590Y-60743152D01*
X146210590Y-60743152D02*
X146305828Y-60790771D01*
X146305828Y-60790771D02*
X146353447Y-60886009D01*
X146353447Y-60886009D02*
X146353447Y-60981247D01*
X146353447Y-60981247D02*
X145877257Y-61076485D01*
X147496305Y-61362200D02*
X147639162Y-61409819D01*
X147639162Y-61409819D02*
X147877257Y-61409819D01*
X147877257Y-61409819D02*
X147972495Y-61362200D01*
X147972495Y-61362200D02*
X148020114Y-61314580D01*
X148020114Y-61314580D02*
X148067733Y-61219342D01*
X148067733Y-61219342D02*
X148067733Y-61124104D01*
X148067733Y-61124104D02*
X148020114Y-61028866D01*
X148020114Y-61028866D02*
X147972495Y-60981247D01*
X147972495Y-60981247D02*
X147877257Y-60933628D01*
X147877257Y-60933628D02*
X147686781Y-60886009D01*
X147686781Y-60886009D02*
X147591543Y-60838390D01*
X147591543Y-60838390D02*
X147543924Y-60790771D01*
X147543924Y-60790771D02*
X147496305Y-60695533D01*
X147496305Y-60695533D02*
X147496305Y-60600295D01*
X147496305Y-60600295D02*
X147543924Y-60505057D01*
X147543924Y-60505057D02*
X147591543Y-60457438D01*
X147591543Y-60457438D02*
X147686781Y-60409819D01*
X147686781Y-60409819D02*
X147924876Y-60409819D01*
X147924876Y-60409819D02*
X148067733Y-60457438D01*
X148639162Y-61409819D02*
X148543924Y-61362200D01*
X148543924Y-61362200D02*
X148496305Y-61314580D01*
X148496305Y-61314580D02*
X148448686Y-61219342D01*
X148448686Y-61219342D02*
X148448686Y-60933628D01*
X148448686Y-60933628D02*
X148496305Y-60838390D01*
X148496305Y-60838390D02*
X148543924Y-60790771D01*
X148543924Y-60790771D02*
X148639162Y-60743152D01*
X148639162Y-60743152D02*
X148782019Y-60743152D01*
X148782019Y-60743152D02*
X148877257Y-60790771D01*
X148877257Y-60790771D02*
X148924876Y-60838390D01*
X148924876Y-60838390D02*
X148972495Y-60933628D01*
X148972495Y-60933628D02*
X148972495Y-61219342D01*
X148972495Y-61219342D02*
X148924876Y-61314580D01*
X148924876Y-61314580D02*
X148877257Y-61362200D01*
X148877257Y-61362200D02*
X148782019Y-61409819D01*
X148782019Y-61409819D02*
X148639162Y-61409819D01*
X149401067Y-60743152D02*
X149401067Y-61409819D01*
X149401067Y-60838390D02*
X149448686Y-60790771D01*
X149448686Y-60790771D02*
X149543924Y-60743152D01*
X149543924Y-60743152D02*
X149686781Y-60743152D01*
X149686781Y-60743152D02*
X149782019Y-60790771D01*
X149782019Y-60790771D02*
X149829638Y-60886009D01*
X149829638Y-60886009D02*
X149829638Y-61409819D01*
X155911779Y-91309819D02*
X155911779Y-90309819D01*
X155911779Y-90309819D02*
X156292731Y-90309819D01*
X156292731Y-90309819D02*
X156387969Y-90357438D01*
X156387969Y-90357438D02*
X156435588Y-90405057D01*
X156435588Y-90405057D02*
X156483207Y-90500295D01*
X156483207Y-90500295D02*
X156483207Y-90643152D01*
X156483207Y-90643152D02*
X156435588Y-90738390D01*
X156435588Y-90738390D02*
X156387969Y-90786009D01*
X156387969Y-90786009D02*
X156292731Y-90833628D01*
X156292731Y-90833628D02*
X155911779Y-90833628D01*
X157483207Y-91214580D02*
X157435588Y-91262200D01*
X157435588Y-91262200D02*
X157292731Y-91309819D01*
X157292731Y-91309819D02*
X157197493Y-91309819D01*
X157197493Y-91309819D02*
X157054636Y-91262200D01*
X157054636Y-91262200D02*
X156959398Y-91166961D01*
X156959398Y-91166961D02*
X156911779Y-91071723D01*
X156911779Y-91071723D02*
X156864160Y-90881247D01*
X156864160Y-90881247D02*
X156864160Y-90738390D01*
X156864160Y-90738390D02*
X156911779Y-90547914D01*
X156911779Y-90547914D02*
X156959398Y-90452676D01*
X156959398Y-90452676D02*
X157054636Y-90357438D01*
X157054636Y-90357438D02*
X157197493Y-90309819D01*
X157197493Y-90309819D02*
X157292731Y-90309819D01*
X157292731Y-90309819D02*
X157435588Y-90357438D01*
X157435588Y-90357438D02*
X157483207Y-90405057D01*
X158435588Y-91309819D02*
X157864160Y-91309819D01*
X158149874Y-91309819D02*
X158149874Y-90309819D01*
X158149874Y-90309819D02*
X158054636Y-90452676D01*
X158054636Y-90452676D02*
X157959398Y-90547914D01*
X157959398Y-90547914D02*
X157864160Y-90595533D01*
X159387969Y-91309819D02*
X158816541Y-91309819D01*
X159102255Y-91309819D02*
X159102255Y-90309819D01*
X159102255Y-90309819D02*
X159007017Y-90452676D01*
X159007017Y-90452676D02*
X158911779Y-90547914D01*
X158911779Y-90547914D02*
X158816541Y-90595533D01*
X131146779Y-96389819D02*
X131146779Y-95389819D01*
X131146779Y-95389819D02*
X131527731Y-95389819D01*
X131527731Y-95389819D02*
X131622969Y-95437438D01*
X131622969Y-95437438D02*
X131670588Y-95485057D01*
X131670588Y-95485057D02*
X131718207Y-95580295D01*
X131718207Y-95580295D02*
X131718207Y-95723152D01*
X131718207Y-95723152D02*
X131670588Y-95818390D01*
X131670588Y-95818390D02*
X131622969Y-95866009D01*
X131622969Y-95866009D02*
X131527731Y-95913628D01*
X131527731Y-95913628D02*
X131146779Y-95913628D01*
X132099160Y-96104104D02*
X132575350Y-96104104D01*
X132003922Y-96389819D02*
X132337255Y-95389819D01*
X132337255Y-95389819D02*
X132670588Y-96389819D01*
X133480112Y-95389819D02*
X133003922Y-95389819D01*
X133003922Y-95389819D02*
X132956303Y-95866009D01*
X132956303Y-95866009D02*
X133003922Y-95818390D01*
X133003922Y-95818390D02*
X133099160Y-95770771D01*
X133099160Y-95770771D02*
X133337255Y-95770771D01*
X133337255Y-95770771D02*
X133432493Y-95818390D01*
X133432493Y-95818390D02*
X133480112Y-95866009D01*
X133480112Y-95866009D02*
X133527731Y-95961247D01*
X133527731Y-95961247D02*
X133527731Y-96199342D01*
X133527731Y-96199342D02*
X133480112Y-96294580D01*
X133480112Y-96294580D02*
X133432493Y-96342200D01*
X133432493Y-96342200D02*
X133337255Y-96389819D01*
X133337255Y-96389819D02*
X133099160Y-96389819D01*
X133099160Y-96389819D02*
X133003922Y-96342200D01*
X133003922Y-96342200D02*
X132956303Y-96294580D01*
X155816541Y-80149819D02*
X156435588Y-80149819D01*
X156435588Y-80149819D02*
X156102255Y-80530771D01*
X156102255Y-80530771D02*
X156245112Y-80530771D01*
X156245112Y-80530771D02*
X156340350Y-80578390D01*
X156340350Y-80578390D02*
X156387969Y-80626009D01*
X156387969Y-80626009D02*
X156435588Y-80721247D01*
X156435588Y-80721247D02*
X156435588Y-80959342D01*
X156435588Y-80959342D02*
X156387969Y-81054580D01*
X156387969Y-81054580D02*
X156340350Y-81102200D01*
X156340350Y-81102200D02*
X156245112Y-81149819D01*
X156245112Y-81149819D02*
X155959398Y-81149819D01*
X155959398Y-81149819D02*
X155864160Y-81102200D01*
X155864160Y-81102200D02*
X155816541Y-81054580D01*
X156864160Y-81054580D02*
X156911779Y-81102200D01*
X156911779Y-81102200D02*
X156864160Y-81149819D01*
X156864160Y-81149819D02*
X156816541Y-81102200D01*
X156816541Y-81102200D02*
X156864160Y-81054580D01*
X156864160Y-81054580D02*
X156864160Y-81149819D01*
X157245112Y-80149819D02*
X157864159Y-80149819D01*
X157864159Y-80149819D02*
X157530826Y-80530771D01*
X157530826Y-80530771D02*
X157673683Y-80530771D01*
X157673683Y-80530771D02*
X157768921Y-80578390D01*
X157768921Y-80578390D02*
X157816540Y-80626009D01*
X157816540Y-80626009D02*
X157864159Y-80721247D01*
X157864159Y-80721247D02*
X157864159Y-80959342D01*
X157864159Y-80959342D02*
X157816540Y-81054580D01*
X157816540Y-81054580D02*
X157768921Y-81102200D01*
X157768921Y-81102200D02*
X157673683Y-81149819D01*
X157673683Y-81149819D02*
X157387969Y-81149819D01*
X157387969Y-81149819D02*
X157292731Y-81102200D01*
X157292731Y-81102200D02*
X157245112Y-81054580D01*
X158149874Y-80149819D02*
X158483207Y-81149819D01*
X158483207Y-81149819D02*
X158816540Y-80149819D01*
X155911779Y-106549819D02*
X155911779Y-105549819D01*
X155911779Y-105549819D02*
X156292731Y-105549819D01*
X156292731Y-105549819D02*
X156387969Y-105597438D01*
X156387969Y-105597438D02*
X156435588Y-105645057D01*
X156435588Y-105645057D02*
X156483207Y-105740295D01*
X156483207Y-105740295D02*
X156483207Y-105883152D01*
X156483207Y-105883152D02*
X156435588Y-105978390D01*
X156435588Y-105978390D02*
X156387969Y-106026009D01*
X156387969Y-106026009D02*
X156292731Y-106073628D01*
X156292731Y-106073628D02*
X155911779Y-106073628D01*
X157483207Y-106454580D02*
X157435588Y-106502200D01*
X157435588Y-106502200D02*
X157292731Y-106549819D01*
X157292731Y-106549819D02*
X157197493Y-106549819D01*
X157197493Y-106549819D02*
X157054636Y-106502200D01*
X157054636Y-106502200D02*
X156959398Y-106406961D01*
X156959398Y-106406961D02*
X156911779Y-106311723D01*
X156911779Y-106311723D02*
X156864160Y-106121247D01*
X156864160Y-106121247D02*
X156864160Y-105978390D01*
X156864160Y-105978390D02*
X156911779Y-105787914D01*
X156911779Y-105787914D02*
X156959398Y-105692676D01*
X156959398Y-105692676D02*
X157054636Y-105597438D01*
X157054636Y-105597438D02*
X157197493Y-105549819D01*
X157197493Y-105549819D02*
X157292731Y-105549819D01*
X157292731Y-105549819D02*
X157435588Y-105597438D01*
X157435588Y-105597438D02*
X157483207Y-105645057D01*
X158054636Y-105978390D02*
X157959398Y-105930771D01*
X157959398Y-105930771D02*
X157911779Y-105883152D01*
X157911779Y-105883152D02*
X157864160Y-105787914D01*
X157864160Y-105787914D02*
X157864160Y-105740295D01*
X157864160Y-105740295D02*
X157911779Y-105645057D01*
X157911779Y-105645057D02*
X157959398Y-105597438D01*
X157959398Y-105597438D02*
X158054636Y-105549819D01*
X158054636Y-105549819D02*
X158245112Y-105549819D01*
X158245112Y-105549819D02*
X158340350Y-105597438D01*
X158340350Y-105597438D02*
X158387969Y-105645057D01*
X158387969Y-105645057D02*
X158435588Y-105740295D01*
X158435588Y-105740295D02*
X158435588Y-105787914D01*
X158435588Y-105787914D02*
X158387969Y-105883152D01*
X158387969Y-105883152D02*
X158340350Y-105930771D01*
X158340350Y-105930771D02*
X158245112Y-105978390D01*
X158245112Y-105978390D02*
X158054636Y-105978390D01*
X158054636Y-105978390D02*
X157959398Y-106026009D01*
X157959398Y-106026009D02*
X157911779Y-106073628D01*
X157911779Y-106073628D02*
X157864160Y-106168866D01*
X157864160Y-106168866D02*
X157864160Y-106359342D01*
X157864160Y-106359342D02*
X157911779Y-106454580D01*
X157911779Y-106454580D02*
X157959398Y-106502200D01*
X157959398Y-106502200D02*
X158054636Y-106549819D01*
X158054636Y-106549819D02*
X158245112Y-106549819D01*
X158245112Y-106549819D02*
X158340350Y-106502200D01*
X158340350Y-106502200D02*
X158387969Y-106454580D01*
X158387969Y-106454580D02*
X158435588Y-106359342D01*
X158435588Y-106359342D02*
X158435588Y-106168866D01*
X158435588Y-106168866D02*
X158387969Y-106073628D01*
X158387969Y-106073628D02*
X158340350Y-106026009D01*
X158340350Y-106026009D02*
X158245112Y-105978390D01*
X155911779Y-96389819D02*
X155911779Y-95389819D01*
X155911779Y-95389819D02*
X156292731Y-95389819D01*
X156292731Y-95389819D02*
X156387969Y-95437438D01*
X156387969Y-95437438D02*
X156435588Y-95485057D01*
X156435588Y-95485057D02*
X156483207Y-95580295D01*
X156483207Y-95580295D02*
X156483207Y-95723152D01*
X156483207Y-95723152D02*
X156435588Y-95818390D01*
X156435588Y-95818390D02*
X156387969Y-95866009D01*
X156387969Y-95866009D02*
X156292731Y-95913628D01*
X156292731Y-95913628D02*
X155911779Y-95913628D01*
X156864160Y-96104104D02*
X157340350Y-96104104D01*
X156768922Y-96389819D02*
X157102255Y-95389819D01*
X157102255Y-95389819D02*
X157435588Y-96389819D01*
X158292731Y-96389819D02*
X157721303Y-96389819D01*
X158007017Y-96389819D02*
X158007017Y-95389819D01*
X158007017Y-95389819D02*
X157911779Y-95532676D01*
X157911779Y-95532676D02*
X157816541Y-95627914D01*
X157816541Y-95627914D02*
X157721303Y-95675533D01*
X158911779Y-95389819D02*
X159007017Y-95389819D01*
X159007017Y-95389819D02*
X159102255Y-95437438D01*
X159102255Y-95437438D02*
X159149874Y-95485057D01*
X159149874Y-95485057D02*
X159197493Y-95580295D01*
X159197493Y-95580295D02*
X159245112Y-95770771D01*
X159245112Y-95770771D02*
X159245112Y-96008866D01*
X159245112Y-96008866D02*
X159197493Y-96199342D01*
X159197493Y-96199342D02*
X159149874Y-96294580D01*
X159149874Y-96294580D02*
X159102255Y-96342200D01*
X159102255Y-96342200D02*
X159007017Y-96389819D01*
X159007017Y-96389819D02*
X158911779Y-96389819D01*
X158911779Y-96389819D02*
X158816541Y-96342200D01*
X158816541Y-96342200D02*
X158768922Y-96294580D01*
X158768922Y-96294580D02*
X158721303Y-96199342D01*
X158721303Y-96199342D02*
X158673684Y-96008866D01*
X158673684Y-96008866D02*
X158673684Y-95770771D01*
X158673684Y-95770771D02*
X158721303Y-95580295D01*
X158721303Y-95580295D02*
X158768922Y-95485057D01*
X158768922Y-95485057D02*
X158816541Y-95437438D01*
X158816541Y-95437438D02*
X158911779Y-95389819D01*
X131051541Y-123329819D02*
X131670588Y-123329819D01*
X131670588Y-123329819D02*
X131337255Y-123710771D01*
X131337255Y-123710771D02*
X131480112Y-123710771D01*
X131480112Y-123710771D02*
X131575350Y-123758390D01*
X131575350Y-123758390D02*
X131622969Y-123806009D01*
X131622969Y-123806009D02*
X131670588Y-123901247D01*
X131670588Y-123901247D02*
X131670588Y-124139342D01*
X131670588Y-124139342D02*
X131622969Y-124234580D01*
X131622969Y-124234580D02*
X131575350Y-124282200D01*
X131575350Y-124282200D02*
X131480112Y-124329819D01*
X131480112Y-124329819D02*
X131194398Y-124329819D01*
X131194398Y-124329819D02*
X131099160Y-124282200D01*
X131099160Y-124282200D02*
X131051541Y-124234580D01*
X132099160Y-124234580D02*
X132146779Y-124282200D01*
X132146779Y-124282200D02*
X132099160Y-124329819D01*
X132099160Y-124329819D02*
X132051541Y-124282200D01*
X132051541Y-124282200D02*
X132099160Y-124234580D01*
X132099160Y-124234580D02*
X132099160Y-124329819D01*
X132480112Y-123329819D02*
X133099159Y-123329819D01*
X133099159Y-123329819D02*
X132765826Y-123710771D01*
X132765826Y-123710771D02*
X132908683Y-123710771D01*
X132908683Y-123710771D02*
X133003921Y-123758390D01*
X133003921Y-123758390D02*
X133051540Y-123806009D01*
X133051540Y-123806009D02*
X133099159Y-123901247D01*
X133099159Y-123901247D02*
X133099159Y-124139342D01*
X133099159Y-124139342D02*
X133051540Y-124234580D01*
X133051540Y-124234580D02*
X133003921Y-124282200D01*
X133003921Y-124282200D02*
X132908683Y-124329819D01*
X132908683Y-124329819D02*
X132622969Y-124329819D01*
X132622969Y-124329819D02*
X132527731Y-124282200D01*
X132527731Y-124282200D02*
X132480112Y-124234580D01*
X133384874Y-123329819D02*
X133718207Y-124329819D01*
X133718207Y-124329819D02*
X134051540Y-123329819D01*
X152540619Y-114436904D02*
X153350142Y-114436904D01*
X153350142Y-114436904D02*
X153445380Y-114389285D01*
X153445380Y-114389285D02*
X153493000Y-114341666D01*
X153493000Y-114341666D02*
X153540619Y-114246428D01*
X153540619Y-114246428D02*
X153540619Y-114055952D01*
X153540619Y-114055952D02*
X153493000Y-113960714D01*
X153493000Y-113960714D02*
X153445380Y-113913095D01*
X153445380Y-113913095D02*
X153350142Y-113865476D01*
X153350142Y-113865476D02*
X152540619Y-113865476D01*
X153540619Y-112865476D02*
X153540619Y-113436904D01*
X153540619Y-113151190D02*
X152540619Y-113151190D01*
X152540619Y-113151190D02*
X152683476Y-113246428D01*
X152683476Y-113246428D02*
X152778714Y-113341666D01*
X152778714Y-113341666D02*
X152826333Y-113436904D01*
X153281142Y-119231580D02*
X153233523Y-119279200D01*
X153233523Y-119279200D02*
X153090666Y-119326819D01*
X153090666Y-119326819D02*
X152995428Y-119326819D01*
X152995428Y-119326819D02*
X152852571Y-119279200D01*
X152852571Y-119279200D02*
X152757333Y-119183961D01*
X152757333Y-119183961D02*
X152709714Y-119088723D01*
X152709714Y-119088723D02*
X152662095Y-118898247D01*
X152662095Y-118898247D02*
X152662095Y-118755390D01*
X152662095Y-118755390D02*
X152709714Y-118564914D01*
X152709714Y-118564914D02*
X152757333Y-118469676D01*
X152757333Y-118469676D02*
X152852571Y-118374438D01*
X152852571Y-118374438D02*
X152995428Y-118326819D01*
X152995428Y-118326819D02*
X153090666Y-118326819D01*
X153090666Y-118326819D02*
X153233523Y-118374438D01*
X153233523Y-118374438D02*
X153281142Y-118422057D01*
X154233523Y-119326819D02*
X153662095Y-119326819D01*
X153947809Y-119326819D02*
X153947809Y-118326819D01*
X153947809Y-118326819D02*
X153852571Y-118469676D01*
X153852571Y-118469676D02*
X153757333Y-118564914D01*
X153757333Y-118564914D02*
X153662095Y-118612533D01*
X154804952Y-118755390D02*
X154709714Y-118707771D01*
X154709714Y-118707771D02*
X154662095Y-118660152D01*
X154662095Y-118660152D02*
X154614476Y-118564914D01*
X154614476Y-118564914D02*
X154614476Y-118517295D01*
X154614476Y-118517295D02*
X154662095Y-118422057D01*
X154662095Y-118422057D02*
X154709714Y-118374438D01*
X154709714Y-118374438D02*
X154804952Y-118326819D01*
X154804952Y-118326819D02*
X154995428Y-118326819D01*
X154995428Y-118326819D02*
X155090666Y-118374438D01*
X155090666Y-118374438D02*
X155138285Y-118422057D01*
X155138285Y-118422057D02*
X155185904Y-118517295D01*
X155185904Y-118517295D02*
X155185904Y-118564914D01*
X155185904Y-118564914D02*
X155138285Y-118660152D01*
X155138285Y-118660152D02*
X155090666Y-118707771D01*
X155090666Y-118707771D02*
X154995428Y-118755390D01*
X154995428Y-118755390D02*
X154804952Y-118755390D01*
X154804952Y-118755390D02*
X154709714Y-118803009D01*
X154709714Y-118803009D02*
X154662095Y-118850628D01*
X154662095Y-118850628D02*
X154614476Y-118945866D01*
X154614476Y-118945866D02*
X154614476Y-119136342D01*
X154614476Y-119136342D02*
X154662095Y-119231580D01*
X154662095Y-119231580D02*
X154709714Y-119279200D01*
X154709714Y-119279200D02*
X154804952Y-119326819D01*
X154804952Y-119326819D02*
X154995428Y-119326819D01*
X154995428Y-119326819D02*
X155090666Y-119279200D01*
X155090666Y-119279200D02*
X155138285Y-119231580D01*
X155138285Y-119231580D02*
X155185904Y-119136342D01*
X155185904Y-119136342D02*
X155185904Y-118945866D01*
X155185904Y-118945866D02*
X155138285Y-118850628D01*
X155138285Y-118850628D02*
X155090666Y-118803009D01*
X155090666Y-118803009D02*
X154995428Y-118755390D01*
X134496980Y-115019057D02*
X134544600Y-115066676D01*
X134544600Y-115066676D02*
X134592219Y-115209533D01*
X134592219Y-115209533D02*
X134592219Y-115304771D01*
X134592219Y-115304771D02*
X134544600Y-115447628D01*
X134544600Y-115447628D02*
X134449361Y-115542866D01*
X134449361Y-115542866D02*
X134354123Y-115590485D01*
X134354123Y-115590485D02*
X134163647Y-115638104D01*
X134163647Y-115638104D02*
X134020790Y-115638104D01*
X134020790Y-115638104D02*
X133830314Y-115590485D01*
X133830314Y-115590485D02*
X133735076Y-115542866D01*
X133735076Y-115542866D02*
X133639838Y-115447628D01*
X133639838Y-115447628D02*
X133592219Y-115304771D01*
X133592219Y-115304771D02*
X133592219Y-115209533D01*
X133592219Y-115209533D02*
X133639838Y-115066676D01*
X133639838Y-115066676D02*
X133687457Y-115019057D01*
X134592219Y-114066676D02*
X134592219Y-114638104D01*
X134592219Y-114352390D02*
X133592219Y-114352390D01*
X133592219Y-114352390D02*
X133735076Y-114447628D01*
X133735076Y-114447628D02*
X133830314Y-114542866D01*
X133830314Y-114542866D02*
X133877933Y-114638104D01*
X133592219Y-113209533D02*
X133592219Y-113400009D01*
X133592219Y-113400009D02*
X133639838Y-113495247D01*
X133639838Y-113495247D02*
X133687457Y-113542866D01*
X133687457Y-113542866D02*
X133830314Y-113638104D01*
X133830314Y-113638104D02*
X134020790Y-113685723D01*
X134020790Y-113685723D02*
X134401742Y-113685723D01*
X134401742Y-113685723D02*
X134496980Y-113638104D01*
X134496980Y-113638104D02*
X134544600Y-113590485D01*
X134544600Y-113590485D02*
X134592219Y-113495247D01*
X134592219Y-113495247D02*
X134592219Y-113304771D01*
X134592219Y-113304771D02*
X134544600Y-113209533D01*
X134544600Y-113209533D02*
X134496980Y-113161914D01*
X134496980Y-113161914D02*
X134401742Y-113114295D01*
X134401742Y-113114295D02*
X134163647Y-113114295D01*
X134163647Y-113114295D02*
X134068409Y-113161914D01*
X134068409Y-113161914D02*
X134020790Y-113209533D01*
X134020790Y-113209533D02*
X133973171Y-113304771D01*
X133973171Y-113304771D02*
X133973171Y-113495247D01*
X133973171Y-113495247D02*
X134020790Y-113590485D01*
X134020790Y-113590485D02*
X134068409Y-113638104D01*
X134068409Y-113638104D02*
X134163647Y-113685723D01*
X153281142Y-108190180D02*
X153233523Y-108237800D01*
X153233523Y-108237800D02*
X153090666Y-108285419D01*
X153090666Y-108285419D02*
X152995428Y-108285419D01*
X152995428Y-108285419D02*
X152852571Y-108237800D01*
X152852571Y-108237800D02*
X152757333Y-108142561D01*
X152757333Y-108142561D02*
X152709714Y-108047323D01*
X152709714Y-108047323D02*
X152662095Y-107856847D01*
X152662095Y-107856847D02*
X152662095Y-107713990D01*
X152662095Y-107713990D02*
X152709714Y-107523514D01*
X152709714Y-107523514D02*
X152757333Y-107428276D01*
X152757333Y-107428276D02*
X152852571Y-107333038D01*
X152852571Y-107333038D02*
X152995428Y-107285419D01*
X152995428Y-107285419D02*
X153090666Y-107285419D01*
X153090666Y-107285419D02*
X153233523Y-107333038D01*
X153233523Y-107333038D02*
X153281142Y-107380657D01*
X154233523Y-108285419D02*
X153662095Y-108285419D01*
X153947809Y-108285419D02*
X153947809Y-107285419D01*
X153947809Y-107285419D02*
X153852571Y-107428276D01*
X153852571Y-107428276D02*
X153757333Y-107523514D01*
X153757333Y-107523514D02*
X153662095Y-107571133D01*
X155090666Y-107618752D02*
X155090666Y-108285419D01*
X154852571Y-107237800D02*
X154614476Y-107952085D01*
X154614476Y-107952085D02*
X155233523Y-107952085D01*
X136466342Y-118334980D02*
X136418723Y-118382600D01*
X136418723Y-118382600D02*
X136275866Y-118430219D01*
X136275866Y-118430219D02*
X136180628Y-118430219D01*
X136180628Y-118430219D02*
X136037771Y-118382600D01*
X136037771Y-118382600D02*
X135942533Y-118287361D01*
X135942533Y-118287361D02*
X135894914Y-118192123D01*
X135894914Y-118192123D02*
X135847295Y-118001647D01*
X135847295Y-118001647D02*
X135847295Y-117858790D01*
X135847295Y-117858790D02*
X135894914Y-117668314D01*
X135894914Y-117668314D02*
X135942533Y-117573076D01*
X135942533Y-117573076D02*
X136037771Y-117477838D01*
X136037771Y-117477838D02*
X136180628Y-117430219D01*
X136180628Y-117430219D02*
X136275866Y-117430219D01*
X136275866Y-117430219D02*
X136418723Y-117477838D01*
X136418723Y-117477838D02*
X136466342Y-117525457D01*
X137418723Y-118430219D02*
X136847295Y-118430219D01*
X137133009Y-118430219D02*
X137133009Y-117430219D01*
X137133009Y-117430219D02*
X137037771Y-117573076D01*
X137037771Y-117573076D02*
X136942533Y-117668314D01*
X136942533Y-117668314D02*
X136847295Y-117715933D01*
X137752057Y-117430219D02*
X138371104Y-117430219D01*
X138371104Y-117430219D02*
X138037771Y-117811171D01*
X138037771Y-117811171D02*
X138180628Y-117811171D01*
X138180628Y-117811171D02*
X138275866Y-117858790D01*
X138275866Y-117858790D02*
X138323485Y-117906409D01*
X138323485Y-117906409D02*
X138371104Y-118001647D01*
X138371104Y-118001647D02*
X138371104Y-118239742D01*
X138371104Y-118239742D02*
X138323485Y-118334980D01*
X138323485Y-118334980D02*
X138275866Y-118382600D01*
X138275866Y-118382600D02*
X138180628Y-118430219D01*
X138180628Y-118430219D02*
X137894914Y-118430219D01*
X137894914Y-118430219D02*
X137799676Y-118382600D01*
X137799676Y-118382600D02*
X137752057Y-118334980D01*
X153756233Y-109739580D02*
X153708614Y-109787200D01*
X153708614Y-109787200D02*
X153565757Y-109834819D01*
X153565757Y-109834819D02*
X153470519Y-109834819D01*
X153470519Y-109834819D02*
X153327662Y-109787200D01*
X153327662Y-109787200D02*
X153232424Y-109691961D01*
X153232424Y-109691961D02*
X153184805Y-109596723D01*
X153184805Y-109596723D02*
X153137186Y-109406247D01*
X153137186Y-109406247D02*
X153137186Y-109263390D01*
X153137186Y-109263390D02*
X153184805Y-109072914D01*
X153184805Y-109072914D02*
X153232424Y-108977676D01*
X153232424Y-108977676D02*
X153327662Y-108882438D01*
X153327662Y-108882438D02*
X153470519Y-108834819D01*
X153470519Y-108834819D02*
X153565757Y-108834819D01*
X153565757Y-108834819D02*
X153708614Y-108882438D01*
X153708614Y-108882438D02*
X153756233Y-108930057D01*
X154232424Y-109834819D02*
X154422900Y-109834819D01*
X154422900Y-109834819D02*
X154518138Y-109787200D01*
X154518138Y-109787200D02*
X154565757Y-109739580D01*
X154565757Y-109739580D02*
X154660995Y-109596723D01*
X154660995Y-109596723D02*
X154708614Y-109406247D01*
X154708614Y-109406247D02*
X154708614Y-109025295D01*
X154708614Y-109025295D02*
X154660995Y-108930057D01*
X154660995Y-108930057D02*
X154613376Y-108882438D01*
X154613376Y-108882438D02*
X154518138Y-108834819D01*
X154518138Y-108834819D02*
X154327662Y-108834819D01*
X154327662Y-108834819D02*
X154232424Y-108882438D01*
X154232424Y-108882438D02*
X154184805Y-108930057D01*
X154184805Y-108930057D02*
X154137186Y-109025295D01*
X154137186Y-109025295D02*
X154137186Y-109263390D01*
X154137186Y-109263390D02*
X154184805Y-109358628D01*
X154184805Y-109358628D02*
X154232424Y-109406247D01*
X154232424Y-109406247D02*
X154327662Y-109453866D01*
X154327662Y-109453866D02*
X154518138Y-109453866D01*
X154518138Y-109453866D02*
X154613376Y-109406247D01*
X154613376Y-109406247D02*
X154660995Y-109358628D01*
X154660995Y-109358628D02*
X154708614Y-109263390D01*
X136993333Y-104339580D02*
X136945714Y-104387200D01*
X136945714Y-104387200D02*
X136802857Y-104434819D01*
X136802857Y-104434819D02*
X136707619Y-104434819D01*
X136707619Y-104434819D02*
X136564762Y-104387200D01*
X136564762Y-104387200D02*
X136469524Y-104291961D01*
X136469524Y-104291961D02*
X136421905Y-104196723D01*
X136421905Y-104196723D02*
X136374286Y-104006247D01*
X136374286Y-104006247D02*
X136374286Y-103863390D01*
X136374286Y-103863390D02*
X136421905Y-103672914D01*
X136421905Y-103672914D02*
X136469524Y-103577676D01*
X136469524Y-103577676D02*
X136564762Y-103482438D01*
X136564762Y-103482438D02*
X136707619Y-103434819D01*
X136707619Y-103434819D02*
X136802857Y-103434819D01*
X136802857Y-103434819D02*
X136945714Y-103482438D01*
X136945714Y-103482438D02*
X136993333Y-103530057D01*
X137564762Y-103863390D02*
X137469524Y-103815771D01*
X137469524Y-103815771D02*
X137421905Y-103768152D01*
X137421905Y-103768152D02*
X137374286Y-103672914D01*
X137374286Y-103672914D02*
X137374286Y-103625295D01*
X137374286Y-103625295D02*
X137421905Y-103530057D01*
X137421905Y-103530057D02*
X137469524Y-103482438D01*
X137469524Y-103482438D02*
X137564762Y-103434819D01*
X137564762Y-103434819D02*
X137755238Y-103434819D01*
X137755238Y-103434819D02*
X137850476Y-103482438D01*
X137850476Y-103482438D02*
X137898095Y-103530057D01*
X137898095Y-103530057D02*
X137945714Y-103625295D01*
X137945714Y-103625295D02*
X137945714Y-103672914D01*
X137945714Y-103672914D02*
X137898095Y-103768152D01*
X137898095Y-103768152D02*
X137850476Y-103815771D01*
X137850476Y-103815771D02*
X137755238Y-103863390D01*
X137755238Y-103863390D02*
X137564762Y-103863390D01*
X137564762Y-103863390D02*
X137469524Y-103911009D01*
X137469524Y-103911009D02*
X137421905Y-103958628D01*
X137421905Y-103958628D02*
X137374286Y-104053866D01*
X137374286Y-104053866D02*
X137374286Y-104244342D01*
X137374286Y-104244342D02*
X137421905Y-104339580D01*
X137421905Y-104339580D02*
X137469524Y-104387200D01*
X137469524Y-104387200D02*
X137564762Y-104434819D01*
X137564762Y-104434819D02*
X137755238Y-104434819D01*
X137755238Y-104434819D02*
X137850476Y-104387200D01*
X137850476Y-104387200D02*
X137898095Y-104339580D01*
X137898095Y-104339580D02*
X137945714Y-104244342D01*
X137945714Y-104244342D02*
X137945714Y-104053866D01*
X137945714Y-104053866D02*
X137898095Y-103958628D01*
X137898095Y-103958628D02*
X137850476Y-103911009D01*
X137850476Y-103911009D02*
X137755238Y-103863390D01*
X152553333Y-131909580D02*
X152505714Y-131957200D01*
X152505714Y-131957200D02*
X152362857Y-132004819D01*
X152362857Y-132004819D02*
X152267619Y-132004819D01*
X152267619Y-132004819D02*
X152124762Y-131957200D01*
X152124762Y-131957200D02*
X152029524Y-131861961D01*
X152029524Y-131861961D02*
X151981905Y-131766723D01*
X151981905Y-131766723D02*
X151934286Y-131576247D01*
X151934286Y-131576247D02*
X151934286Y-131433390D01*
X151934286Y-131433390D02*
X151981905Y-131242914D01*
X151981905Y-131242914D02*
X152029524Y-131147676D01*
X152029524Y-131147676D02*
X152124762Y-131052438D01*
X152124762Y-131052438D02*
X152267619Y-131004819D01*
X152267619Y-131004819D02*
X152362857Y-131004819D01*
X152362857Y-131004819D02*
X152505714Y-131052438D01*
X152505714Y-131052438D02*
X152553333Y-131100057D01*
X153410476Y-131338152D02*
X153410476Y-132004819D01*
X153172381Y-130957200D02*
X152934286Y-131671485D01*
X152934286Y-131671485D02*
X153553333Y-131671485D01*
X152506819Y-123102666D02*
X152030628Y-123435999D01*
X152506819Y-123674094D02*
X151506819Y-123674094D01*
X151506819Y-123674094D02*
X151506819Y-123293142D01*
X151506819Y-123293142D02*
X151554438Y-123197904D01*
X151554438Y-123197904D02*
X151602057Y-123150285D01*
X151602057Y-123150285D02*
X151697295Y-123102666D01*
X151697295Y-123102666D02*
X151840152Y-123102666D01*
X151840152Y-123102666D02*
X151935390Y-123150285D01*
X151935390Y-123150285D02*
X151983009Y-123197904D01*
X151983009Y-123197904D02*
X152030628Y-123293142D01*
X152030628Y-123293142D02*
X152030628Y-123674094D01*
X151506819Y-122245523D02*
X151506819Y-122435999D01*
X151506819Y-122435999D02*
X151554438Y-122531237D01*
X151554438Y-122531237D02*
X151602057Y-122578856D01*
X151602057Y-122578856D02*
X151744914Y-122674094D01*
X151744914Y-122674094D02*
X151935390Y-122721713D01*
X151935390Y-122721713D02*
X152316342Y-122721713D01*
X152316342Y-122721713D02*
X152411580Y-122674094D01*
X152411580Y-122674094D02*
X152459200Y-122626475D01*
X152459200Y-122626475D02*
X152506819Y-122531237D01*
X152506819Y-122531237D02*
X152506819Y-122340761D01*
X152506819Y-122340761D02*
X152459200Y-122245523D01*
X152459200Y-122245523D02*
X152411580Y-122197904D01*
X152411580Y-122197904D02*
X152316342Y-122150285D01*
X152316342Y-122150285D02*
X152078247Y-122150285D01*
X152078247Y-122150285D02*
X151983009Y-122197904D01*
X151983009Y-122197904D02*
X151935390Y-122245523D01*
X151935390Y-122245523D02*
X151887771Y-122340761D01*
X151887771Y-122340761D02*
X151887771Y-122531237D01*
X151887771Y-122531237D02*
X151935390Y-122626475D01*
X151935390Y-122626475D02*
X151983009Y-122674094D01*
X151983009Y-122674094D02*
X152078247Y-122721713D01*
X142694819Y-128309666D02*
X142218628Y-128642999D01*
X142694819Y-128881094D02*
X141694819Y-128881094D01*
X141694819Y-128881094D02*
X141694819Y-128500142D01*
X141694819Y-128500142D02*
X141742438Y-128404904D01*
X141742438Y-128404904D02*
X141790057Y-128357285D01*
X141790057Y-128357285D02*
X141885295Y-128309666D01*
X141885295Y-128309666D02*
X142028152Y-128309666D01*
X142028152Y-128309666D02*
X142123390Y-128357285D01*
X142123390Y-128357285D02*
X142171009Y-128404904D01*
X142171009Y-128404904D02*
X142218628Y-128500142D01*
X142218628Y-128500142D02*
X142218628Y-128881094D01*
X141694819Y-127404904D02*
X141694819Y-127881094D01*
X141694819Y-127881094D02*
X142171009Y-127928713D01*
X142171009Y-127928713D02*
X142123390Y-127881094D01*
X142123390Y-127881094D02*
X142075771Y-127785856D01*
X142075771Y-127785856D02*
X142075771Y-127547761D01*
X142075771Y-127547761D02*
X142123390Y-127452523D01*
X142123390Y-127452523D02*
X142171009Y-127404904D01*
X142171009Y-127404904D02*
X142266247Y-127357285D01*
X142266247Y-127357285D02*
X142504342Y-127357285D01*
X142504342Y-127357285D02*
X142599580Y-127404904D01*
X142599580Y-127404904D02*
X142647200Y-127452523D01*
X142647200Y-127452523D02*
X142694819Y-127547761D01*
X142694819Y-127547761D02*
X142694819Y-127785856D01*
X142694819Y-127785856D02*
X142647200Y-127881094D01*
X142647200Y-127881094D02*
X142599580Y-127928713D01*
X137727200Y-137921904D02*
X137774819Y-137779047D01*
X137774819Y-137779047D02*
X137774819Y-137540952D01*
X137774819Y-137540952D02*
X137727200Y-137445714D01*
X137727200Y-137445714D02*
X137679580Y-137398095D01*
X137679580Y-137398095D02*
X137584342Y-137350476D01*
X137584342Y-137350476D02*
X137489104Y-137350476D01*
X137489104Y-137350476D02*
X137393866Y-137398095D01*
X137393866Y-137398095D02*
X137346247Y-137445714D01*
X137346247Y-137445714D02*
X137298628Y-137540952D01*
X137298628Y-137540952D02*
X137251009Y-137731428D01*
X137251009Y-137731428D02*
X137203390Y-137826666D01*
X137203390Y-137826666D02*
X137155771Y-137874285D01*
X137155771Y-137874285D02*
X137060533Y-137921904D01*
X137060533Y-137921904D02*
X136965295Y-137921904D01*
X136965295Y-137921904D02*
X136870057Y-137874285D01*
X136870057Y-137874285D02*
X136822438Y-137826666D01*
X136822438Y-137826666D02*
X136774819Y-137731428D01*
X136774819Y-137731428D02*
X136774819Y-137493333D01*
X136774819Y-137493333D02*
X136822438Y-137350476D01*
X137774819Y-136398095D02*
X137774819Y-136969523D01*
X137774819Y-136683809D02*
X136774819Y-136683809D01*
X136774819Y-136683809D02*
X136917676Y-136779047D01*
X136917676Y-136779047D02*
X137012914Y-136874285D01*
X137012914Y-136874285D02*
X137060533Y-136969523D01*
X144218819Y-131198857D02*
X143742628Y-131532190D01*
X144218819Y-131770285D02*
X143218819Y-131770285D01*
X143218819Y-131770285D02*
X143218819Y-131389333D01*
X143218819Y-131389333D02*
X143266438Y-131294095D01*
X143266438Y-131294095D02*
X143314057Y-131246476D01*
X143314057Y-131246476D02*
X143409295Y-131198857D01*
X143409295Y-131198857D02*
X143552152Y-131198857D01*
X143552152Y-131198857D02*
X143647390Y-131246476D01*
X143647390Y-131246476D02*
X143695009Y-131294095D01*
X143695009Y-131294095D02*
X143742628Y-131389333D01*
X143742628Y-131389333D02*
X143742628Y-131770285D01*
X144218819Y-130246476D02*
X144218819Y-130817904D01*
X144218819Y-130532190D02*
X143218819Y-130532190D01*
X143218819Y-130532190D02*
X143361676Y-130627428D01*
X143361676Y-130627428D02*
X143456914Y-130722666D01*
X143456914Y-130722666D02*
X143504533Y-130817904D01*
X143218819Y-129913142D02*
X143218819Y-129294095D01*
X143218819Y-129294095D02*
X143599771Y-129627428D01*
X143599771Y-129627428D02*
X143599771Y-129484571D01*
X143599771Y-129484571D02*
X143647390Y-129389333D01*
X143647390Y-129389333D02*
X143695009Y-129341714D01*
X143695009Y-129341714D02*
X143790247Y-129294095D01*
X143790247Y-129294095D02*
X144028342Y-129294095D01*
X144028342Y-129294095D02*
X144123580Y-129341714D01*
X144123580Y-129341714D02*
X144171200Y-129389333D01*
X144171200Y-129389333D02*
X144218819Y-129484571D01*
X144218819Y-129484571D02*
X144218819Y-129770285D01*
X144218819Y-129770285D02*
X144171200Y-129865523D01*
X144171200Y-129865523D02*
X144123580Y-129913142D01*
X151598333Y-87459580D02*
X151550714Y-87507200D01*
X151550714Y-87507200D02*
X151407857Y-87554819D01*
X151407857Y-87554819D02*
X151312619Y-87554819D01*
X151312619Y-87554819D02*
X151169762Y-87507200D01*
X151169762Y-87507200D02*
X151074524Y-87411961D01*
X151074524Y-87411961D02*
X151026905Y-87316723D01*
X151026905Y-87316723D02*
X150979286Y-87126247D01*
X150979286Y-87126247D02*
X150979286Y-86983390D01*
X150979286Y-86983390D02*
X151026905Y-86792914D01*
X151026905Y-86792914D02*
X151074524Y-86697676D01*
X151074524Y-86697676D02*
X151169762Y-86602438D01*
X151169762Y-86602438D02*
X151312619Y-86554819D01*
X151312619Y-86554819D02*
X151407857Y-86554819D01*
X151407857Y-86554819D02*
X151550714Y-86602438D01*
X151550714Y-86602438D02*
X151598333Y-86650057D01*
X151931667Y-86554819D02*
X152550714Y-86554819D01*
X152550714Y-86554819D02*
X152217381Y-86935771D01*
X152217381Y-86935771D02*
X152360238Y-86935771D01*
X152360238Y-86935771D02*
X152455476Y-86983390D01*
X152455476Y-86983390D02*
X152503095Y-87031009D01*
X152503095Y-87031009D02*
X152550714Y-87126247D01*
X152550714Y-87126247D02*
X152550714Y-87364342D01*
X152550714Y-87364342D02*
X152503095Y-87459580D01*
X152503095Y-87459580D02*
X152455476Y-87507200D01*
X152455476Y-87507200D02*
X152360238Y-87554819D01*
X152360238Y-87554819D02*
X152074524Y-87554819D01*
X152074524Y-87554819D02*
X151979286Y-87507200D01*
X151979286Y-87507200D02*
X151931667Y-87459580D01*
X148028819Y-122816857D02*
X147552628Y-123150190D01*
X148028819Y-123388285D02*
X147028819Y-123388285D01*
X147028819Y-123388285D02*
X147028819Y-123007333D01*
X147028819Y-123007333D02*
X147076438Y-122912095D01*
X147076438Y-122912095D02*
X147124057Y-122864476D01*
X147124057Y-122864476D02*
X147219295Y-122816857D01*
X147219295Y-122816857D02*
X147362152Y-122816857D01*
X147362152Y-122816857D02*
X147457390Y-122864476D01*
X147457390Y-122864476D02*
X147505009Y-122912095D01*
X147505009Y-122912095D02*
X147552628Y-123007333D01*
X147552628Y-123007333D02*
X147552628Y-123388285D01*
X148028819Y-121864476D02*
X148028819Y-122435904D01*
X148028819Y-122150190D02*
X147028819Y-122150190D01*
X147028819Y-122150190D02*
X147171676Y-122245428D01*
X147171676Y-122245428D02*
X147266914Y-122340666D01*
X147266914Y-122340666D02*
X147314533Y-122435904D01*
X147124057Y-121483523D02*
X147076438Y-121435904D01*
X147076438Y-121435904D02*
X147028819Y-121340666D01*
X147028819Y-121340666D02*
X147028819Y-121102571D01*
X147028819Y-121102571D02*
X147076438Y-121007333D01*
X147076438Y-121007333D02*
X147124057Y-120959714D01*
X147124057Y-120959714D02*
X147219295Y-120912095D01*
X147219295Y-120912095D02*
X147314533Y-120912095D01*
X147314533Y-120912095D02*
X147457390Y-120959714D01*
X147457390Y-120959714D02*
X148028819Y-121531142D01*
X148028819Y-121531142D02*
X148028819Y-120912095D01*
X148028819Y-125452094D02*
X147028819Y-125452094D01*
X147028819Y-125452094D02*
X147028819Y-125213999D01*
X147028819Y-125213999D02*
X147076438Y-125071142D01*
X147076438Y-125071142D02*
X147171676Y-124975904D01*
X147171676Y-124975904D02*
X147266914Y-124928285D01*
X147266914Y-124928285D02*
X147457390Y-124880666D01*
X147457390Y-124880666D02*
X147600247Y-124880666D01*
X147600247Y-124880666D02*
X147790723Y-124928285D01*
X147790723Y-124928285D02*
X147885961Y-124975904D01*
X147885961Y-124975904D02*
X147981200Y-125071142D01*
X147981200Y-125071142D02*
X148028819Y-125213999D01*
X148028819Y-125213999D02*
X148028819Y-125452094D01*
X148028819Y-123928285D02*
X148028819Y-124499713D01*
X148028819Y-124213999D02*
X147028819Y-124213999D01*
X147028819Y-124213999D02*
X147171676Y-124309237D01*
X147171676Y-124309237D02*
X147266914Y-124404475D01*
X147266914Y-124404475D02*
X147314533Y-124499713D01*
X132566580Y-135262857D02*
X132614200Y-135310476D01*
X132614200Y-135310476D02*
X132661819Y-135453333D01*
X132661819Y-135453333D02*
X132661819Y-135548571D01*
X132661819Y-135548571D02*
X132614200Y-135691428D01*
X132614200Y-135691428D02*
X132518961Y-135786666D01*
X132518961Y-135786666D02*
X132423723Y-135834285D01*
X132423723Y-135834285D02*
X132233247Y-135881904D01*
X132233247Y-135881904D02*
X132090390Y-135881904D01*
X132090390Y-135881904D02*
X131899914Y-135834285D01*
X131899914Y-135834285D02*
X131804676Y-135786666D01*
X131804676Y-135786666D02*
X131709438Y-135691428D01*
X131709438Y-135691428D02*
X131661819Y-135548571D01*
X131661819Y-135548571D02*
X131661819Y-135453333D01*
X131661819Y-135453333D02*
X131709438Y-135310476D01*
X131709438Y-135310476D02*
X131757057Y-135262857D01*
X132661819Y-134310476D02*
X132661819Y-134881904D01*
X132661819Y-134596190D02*
X131661819Y-134596190D01*
X131661819Y-134596190D02*
X131804676Y-134691428D01*
X131804676Y-134691428D02*
X131899914Y-134786666D01*
X131899914Y-134786666D02*
X131947533Y-134881904D01*
X131661819Y-133691428D02*
X131661819Y-133596190D01*
X131661819Y-133596190D02*
X131709438Y-133500952D01*
X131709438Y-133500952D02*
X131757057Y-133453333D01*
X131757057Y-133453333D02*
X131852295Y-133405714D01*
X131852295Y-133405714D02*
X132042771Y-133358095D01*
X132042771Y-133358095D02*
X132280866Y-133358095D01*
X132280866Y-133358095D02*
X132471342Y-133405714D01*
X132471342Y-133405714D02*
X132566580Y-133453333D01*
X132566580Y-133453333D02*
X132614200Y-133500952D01*
X132614200Y-133500952D02*
X132661819Y-133596190D01*
X132661819Y-133596190D02*
X132661819Y-133691428D01*
X132661819Y-133691428D02*
X132614200Y-133786666D01*
X132614200Y-133786666D02*
X132566580Y-133834285D01*
X132566580Y-133834285D02*
X132471342Y-133881904D01*
X132471342Y-133881904D02*
X132280866Y-133929523D01*
X132280866Y-133929523D02*
X132042771Y-133929523D01*
X132042771Y-133929523D02*
X131852295Y-133881904D01*
X131852295Y-133881904D02*
X131757057Y-133834285D01*
X131757057Y-133834285D02*
X131709438Y-133786666D01*
X131709438Y-133786666D02*
X131661819Y-133691428D01*
D11*
X145334667Y-136461318D02*
X145334667Y-137368461D01*
X145334667Y-137368461D02*
X145274190Y-137549889D01*
X145274190Y-137549889D02*
X145153238Y-137670842D01*
X145153238Y-137670842D02*
X144971809Y-137731318D01*
X144971809Y-137731318D02*
X144850857Y-137731318D01*
X146483714Y-136461318D02*
X146241809Y-136461318D01*
X146241809Y-136461318D02*
X146120857Y-136521794D01*
X146120857Y-136521794D02*
X146060381Y-136582270D01*
X146060381Y-136582270D02*
X145939428Y-136763699D01*
X145939428Y-136763699D02*
X145878952Y-137005603D01*
X145878952Y-137005603D02*
X145878952Y-137489413D01*
X145878952Y-137489413D02*
X145939428Y-137610365D01*
X145939428Y-137610365D02*
X145999905Y-137670842D01*
X145999905Y-137670842D02*
X146120857Y-137731318D01*
X146120857Y-137731318D02*
X146362762Y-137731318D01*
X146362762Y-137731318D02*
X146483714Y-137670842D01*
X146483714Y-137670842D02*
X146544190Y-137610365D01*
X146544190Y-137610365D02*
X146604667Y-137489413D01*
X146604667Y-137489413D02*
X146604667Y-137187032D01*
X146604667Y-137187032D02*
X146544190Y-137066080D01*
X146544190Y-137066080D02*
X146483714Y-137005603D01*
X146483714Y-137005603D02*
X146362762Y-136945127D01*
X146362762Y-136945127D02*
X146120857Y-136945127D01*
X146120857Y-136945127D02*
X145999905Y-137005603D01*
X145999905Y-137005603D02*
X145939428Y-137066080D01*
X145939428Y-137066080D02*
X145878952Y-137187032D01*
D10*
X154170142Y-132882819D02*
X153836809Y-132406628D01*
X153598714Y-132882819D02*
X153598714Y-131882819D01*
X153598714Y-131882819D02*
X153979666Y-131882819D01*
X153979666Y-131882819D02*
X154074904Y-131930438D01*
X154074904Y-131930438D02*
X154122523Y-131978057D01*
X154122523Y-131978057D02*
X154170142Y-132073295D01*
X154170142Y-132073295D02*
X154170142Y-132216152D01*
X154170142Y-132216152D02*
X154122523Y-132311390D01*
X154122523Y-132311390D02*
X154074904Y-132359009D01*
X154074904Y-132359009D02*
X153979666Y-132406628D01*
X153979666Y-132406628D02*
X153598714Y-132406628D01*
X155122523Y-132882819D02*
X154551095Y-132882819D01*
X154836809Y-132882819D02*
X154836809Y-131882819D01*
X154836809Y-131882819D02*
X154741571Y-132025676D01*
X154741571Y-132025676D02*
X154646333Y-132120914D01*
X154646333Y-132120914D02*
X154551095Y-132168533D01*
X155979666Y-132216152D02*
X155979666Y-132882819D01*
X155741571Y-131835200D02*
X155503476Y-132549485D01*
X155503476Y-132549485D02*
X156122523Y-132549485D01*
X149185333Y-131424819D02*
X148852000Y-130948628D01*
X148613905Y-131424819D02*
X148613905Y-130424819D01*
X148613905Y-130424819D02*
X148994857Y-130424819D01*
X148994857Y-130424819D02*
X149090095Y-130472438D01*
X149090095Y-130472438D02*
X149137714Y-130520057D01*
X149137714Y-130520057D02*
X149185333Y-130615295D01*
X149185333Y-130615295D02*
X149185333Y-130758152D01*
X149185333Y-130758152D02*
X149137714Y-130853390D01*
X149137714Y-130853390D02*
X149090095Y-130901009D01*
X149090095Y-130901009D02*
X148994857Y-130948628D01*
X148994857Y-130948628D02*
X148613905Y-130948628D01*
X150137714Y-131424819D02*
X149566286Y-131424819D01*
X149852000Y-131424819D02*
X149852000Y-130424819D01*
X149852000Y-130424819D02*
X149756762Y-130567676D01*
X149756762Y-130567676D02*
X149661524Y-130662914D01*
X149661524Y-130662914D02*
X149566286Y-130710533D01*
X146758819Y-125452094D02*
X145758819Y-125452094D01*
X145758819Y-125452094D02*
X145758819Y-125213999D01*
X145758819Y-125213999D02*
X145806438Y-125071142D01*
X145806438Y-125071142D02*
X145901676Y-124975904D01*
X145901676Y-124975904D02*
X145996914Y-124928285D01*
X145996914Y-124928285D02*
X146187390Y-124880666D01*
X146187390Y-124880666D02*
X146330247Y-124880666D01*
X146330247Y-124880666D02*
X146520723Y-124928285D01*
X146520723Y-124928285D02*
X146615961Y-124975904D01*
X146615961Y-124975904D02*
X146711200Y-125071142D01*
X146711200Y-125071142D02*
X146758819Y-125213999D01*
X146758819Y-125213999D02*
X146758819Y-125452094D01*
X145854057Y-124499713D02*
X145806438Y-124452094D01*
X145806438Y-124452094D02*
X145758819Y-124356856D01*
X145758819Y-124356856D02*
X145758819Y-124118761D01*
X145758819Y-124118761D02*
X145806438Y-124023523D01*
X145806438Y-124023523D02*
X145854057Y-123975904D01*
X145854057Y-123975904D02*
X145949295Y-123928285D01*
X145949295Y-123928285D02*
X146044533Y-123928285D01*
X146044533Y-123928285D02*
X146187390Y-123975904D01*
X146187390Y-123975904D02*
X146758819Y-124547332D01*
X146758819Y-124547332D02*
X146758819Y-123928285D01*
X134453333Y-128724819D02*
X134120000Y-128248628D01*
X133881905Y-128724819D02*
X133881905Y-127724819D01*
X133881905Y-127724819D02*
X134262857Y-127724819D01*
X134262857Y-127724819D02*
X134358095Y-127772438D01*
X134358095Y-127772438D02*
X134405714Y-127820057D01*
X134405714Y-127820057D02*
X134453333Y-127915295D01*
X134453333Y-127915295D02*
X134453333Y-128058152D01*
X134453333Y-128058152D02*
X134405714Y-128153390D01*
X134405714Y-128153390D02*
X134358095Y-128201009D01*
X134358095Y-128201009D02*
X134262857Y-128248628D01*
X134262857Y-128248628D02*
X133881905Y-128248628D01*
X135310476Y-128058152D02*
X135310476Y-128724819D01*
X135072381Y-127677200D02*
X134834286Y-128391485D01*
X134834286Y-128391485D02*
X135453333Y-128391485D01*
X162399819Y-68278333D02*
X163114104Y-68278333D01*
X163114104Y-68278333D02*
X163256961Y-68325952D01*
X163256961Y-68325952D02*
X163352200Y-68421190D01*
X163352200Y-68421190D02*
X163399819Y-68564047D01*
X163399819Y-68564047D02*
X163399819Y-68659285D01*
X163399819Y-67278333D02*
X163399819Y-67849761D01*
X163399819Y-67564047D02*
X162399819Y-67564047D01*
X162399819Y-67564047D02*
X162542676Y-67659285D01*
X162542676Y-67659285D02*
X162637914Y-67754523D01*
X162637914Y-67754523D02*
X162685533Y-67849761D01*
X147266819Y-130214666D02*
X146790628Y-130547999D01*
X147266819Y-130786094D02*
X146266819Y-130786094D01*
X146266819Y-130786094D02*
X146266819Y-130405142D01*
X146266819Y-130405142D02*
X146314438Y-130309904D01*
X146314438Y-130309904D02*
X146362057Y-130262285D01*
X146362057Y-130262285D02*
X146457295Y-130214666D01*
X146457295Y-130214666D02*
X146600152Y-130214666D01*
X146600152Y-130214666D02*
X146695390Y-130262285D01*
X146695390Y-130262285D02*
X146743009Y-130309904D01*
X146743009Y-130309904D02*
X146790628Y-130405142D01*
X146790628Y-130405142D02*
X146790628Y-130786094D01*
X146266819Y-129881332D02*
X146266819Y-129214666D01*
X146266819Y-129214666D02*
X147266819Y-129643237D01*
X153757333Y-123709580D02*
X153709714Y-123757200D01*
X153709714Y-123757200D02*
X153566857Y-123804819D01*
X153566857Y-123804819D02*
X153471619Y-123804819D01*
X153471619Y-123804819D02*
X153328762Y-123757200D01*
X153328762Y-123757200D02*
X153233524Y-123661961D01*
X153233524Y-123661961D02*
X153185905Y-123566723D01*
X153185905Y-123566723D02*
X153138286Y-123376247D01*
X153138286Y-123376247D02*
X153138286Y-123233390D01*
X153138286Y-123233390D02*
X153185905Y-123042914D01*
X153185905Y-123042914D02*
X153233524Y-122947676D01*
X153233524Y-122947676D02*
X153328762Y-122852438D01*
X153328762Y-122852438D02*
X153471619Y-122804819D01*
X153471619Y-122804819D02*
X153566857Y-122804819D01*
X153566857Y-122804819D02*
X153709714Y-122852438D01*
X153709714Y-122852438D02*
X153757333Y-122900057D01*
X154614476Y-122804819D02*
X154424000Y-122804819D01*
X154424000Y-122804819D02*
X154328762Y-122852438D01*
X154328762Y-122852438D02*
X154281143Y-122900057D01*
X154281143Y-122900057D02*
X154185905Y-123042914D01*
X154185905Y-123042914D02*
X154138286Y-123233390D01*
X154138286Y-123233390D02*
X154138286Y-123614342D01*
X154138286Y-123614342D02*
X154185905Y-123709580D01*
X154185905Y-123709580D02*
X154233524Y-123757200D01*
X154233524Y-123757200D02*
X154328762Y-123804819D01*
X154328762Y-123804819D02*
X154519238Y-123804819D01*
X154519238Y-123804819D02*
X154614476Y-123757200D01*
X154614476Y-123757200D02*
X154662095Y-123709580D01*
X154662095Y-123709580D02*
X154709714Y-123614342D01*
X154709714Y-123614342D02*
X154709714Y-123376247D01*
X154709714Y-123376247D02*
X154662095Y-123281009D01*
X154662095Y-123281009D02*
X154614476Y-123233390D01*
X154614476Y-123233390D02*
X154519238Y-123185771D01*
X154519238Y-123185771D02*
X154328762Y-123185771D01*
X154328762Y-123185771D02*
X154233524Y-123233390D01*
X154233524Y-123233390D02*
X154185905Y-123281009D01*
X154185905Y-123281009D02*
X154138286Y-123376247D01*
X145883333Y-84179580D02*
X145835714Y-84227200D01*
X145835714Y-84227200D02*
X145692857Y-84274819D01*
X145692857Y-84274819D02*
X145597619Y-84274819D01*
X145597619Y-84274819D02*
X145454762Y-84227200D01*
X145454762Y-84227200D02*
X145359524Y-84131961D01*
X145359524Y-84131961D02*
X145311905Y-84036723D01*
X145311905Y-84036723D02*
X145264286Y-83846247D01*
X145264286Y-83846247D02*
X145264286Y-83703390D01*
X145264286Y-83703390D02*
X145311905Y-83512914D01*
X145311905Y-83512914D02*
X145359524Y-83417676D01*
X145359524Y-83417676D02*
X145454762Y-83322438D01*
X145454762Y-83322438D02*
X145597619Y-83274819D01*
X145597619Y-83274819D02*
X145692857Y-83274819D01*
X145692857Y-83274819D02*
X145835714Y-83322438D01*
X145835714Y-83322438D02*
X145883333Y-83370057D01*
X146264286Y-83370057D02*
X146311905Y-83322438D01*
X146311905Y-83322438D02*
X146407143Y-83274819D01*
X146407143Y-83274819D02*
X146645238Y-83274819D01*
X146645238Y-83274819D02*
X146740476Y-83322438D01*
X146740476Y-83322438D02*
X146788095Y-83370057D01*
X146788095Y-83370057D02*
X146835714Y-83465295D01*
X146835714Y-83465295D02*
X146835714Y-83560533D01*
X146835714Y-83560533D02*
X146788095Y-83703390D01*
X146788095Y-83703390D02*
X146216667Y-84274819D01*
X146216667Y-84274819D02*
X146835714Y-84274819D01*
X149806819Y-79037857D02*
X149330628Y-79371190D01*
X149806819Y-79609285D02*
X148806819Y-79609285D01*
X148806819Y-79609285D02*
X148806819Y-79228333D01*
X148806819Y-79228333D02*
X148854438Y-79133095D01*
X148854438Y-79133095D02*
X148902057Y-79085476D01*
X148902057Y-79085476D02*
X148997295Y-79037857D01*
X148997295Y-79037857D02*
X149140152Y-79037857D01*
X149140152Y-79037857D02*
X149235390Y-79085476D01*
X149235390Y-79085476D02*
X149283009Y-79133095D01*
X149283009Y-79133095D02*
X149330628Y-79228333D01*
X149330628Y-79228333D02*
X149330628Y-79609285D01*
X149806819Y-78085476D02*
X149806819Y-78656904D01*
X149806819Y-78371190D02*
X148806819Y-78371190D01*
X148806819Y-78371190D02*
X148949676Y-78466428D01*
X148949676Y-78466428D02*
X149044914Y-78561666D01*
X149044914Y-78561666D02*
X149092533Y-78656904D01*
X148806819Y-77466428D02*
X148806819Y-77371190D01*
X148806819Y-77371190D02*
X148854438Y-77275952D01*
X148854438Y-77275952D02*
X148902057Y-77228333D01*
X148902057Y-77228333D02*
X148997295Y-77180714D01*
X148997295Y-77180714D02*
X149187771Y-77133095D01*
X149187771Y-77133095D02*
X149425866Y-77133095D01*
X149425866Y-77133095D02*
X149616342Y-77180714D01*
X149616342Y-77180714D02*
X149711580Y-77228333D01*
X149711580Y-77228333D02*
X149759200Y-77275952D01*
X149759200Y-77275952D02*
X149806819Y-77371190D01*
X149806819Y-77371190D02*
X149806819Y-77466428D01*
X149806819Y-77466428D02*
X149759200Y-77561666D01*
X149759200Y-77561666D02*
X149711580Y-77609285D01*
X149711580Y-77609285D02*
X149616342Y-77656904D01*
X149616342Y-77656904D02*
X149425866Y-77704523D01*
X149425866Y-77704523D02*
X149187771Y-77704523D01*
X149187771Y-77704523D02*
X148997295Y-77656904D01*
X148997295Y-77656904D02*
X148902057Y-77609285D01*
X148902057Y-77609285D02*
X148854438Y-77561666D01*
X148854438Y-77561666D02*
X148806819Y-77466428D01*
X160956666Y-77714819D02*
X160956666Y-78429104D01*
X160956666Y-78429104D02*
X160909047Y-78571961D01*
X160909047Y-78571961D02*
X160813809Y-78667200D01*
X160813809Y-78667200D02*
X160670952Y-78714819D01*
X160670952Y-78714819D02*
X160575714Y-78714819D01*
X161337619Y-77714819D02*
X161956666Y-77714819D01*
X161956666Y-77714819D02*
X161623333Y-78095771D01*
X161623333Y-78095771D02*
X161766190Y-78095771D01*
X161766190Y-78095771D02*
X161861428Y-78143390D01*
X161861428Y-78143390D02*
X161909047Y-78191009D01*
X161909047Y-78191009D02*
X161956666Y-78286247D01*
X161956666Y-78286247D02*
X161956666Y-78524342D01*
X161956666Y-78524342D02*
X161909047Y-78619580D01*
X161909047Y-78619580D02*
X161861428Y-78667200D01*
X161861428Y-78667200D02*
X161766190Y-78714819D01*
X161766190Y-78714819D02*
X161480476Y-78714819D01*
X161480476Y-78714819D02*
X161385238Y-78667200D01*
X161385238Y-78667200D02*
X161337619Y-78619580D01*
X158094819Y-78561666D02*
X157618628Y-78894999D01*
X158094819Y-79133094D02*
X157094819Y-79133094D01*
X157094819Y-79133094D02*
X157094819Y-78752142D01*
X157094819Y-78752142D02*
X157142438Y-78656904D01*
X157142438Y-78656904D02*
X157190057Y-78609285D01*
X157190057Y-78609285D02*
X157285295Y-78561666D01*
X157285295Y-78561666D02*
X157428152Y-78561666D01*
X157428152Y-78561666D02*
X157523390Y-78609285D01*
X157523390Y-78609285D02*
X157571009Y-78656904D01*
X157571009Y-78656904D02*
X157618628Y-78752142D01*
X157618628Y-78752142D02*
X157618628Y-79133094D01*
X158094819Y-78085475D02*
X158094819Y-77894999D01*
X158094819Y-77894999D02*
X158047200Y-77799761D01*
X158047200Y-77799761D02*
X157999580Y-77752142D01*
X157999580Y-77752142D02*
X157856723Y-77656904D01*
X157856723Y-77656904D02*
X157666247Y-77609285D01*
X157666247Y-77609285D02*
X157285295Y-77609285D01*
X157285295Y-77609285D02*
X157190057Y-77656904D01*
X157190057Y-77656904D02*
X157142438Y-77704523D01*
X157142438Y-77704523D02*
X157094819Y-77799761D01*
X157094819Y-77799761D02*
X157094819Y-77990237D01*
X157094819Y-77990237D02*
X157142438Y-78085475D01*
X157142438Y-78085475D02*
X157190057Y-78133094D01*
X157190057Y-78133094D02*
X157285295Y-78180713D01*
X157285295Y-78180713D02*
X157523390Y-78180713D01*
X157523390Y-78180713D02*
X157618628Y-78133094D01*
X157618628Y-78133094D02*
X157666247Y-78085475D01*
X157666247Y-78085475D02*
X157713866Y-77990237D01*
X157713866Y-77990237D02*
X157713866Y-77799761D01*
X157713866Y-77799761D02*
X157666247Y-77704523D01*
X157666247Y-77704523D02*
X157618628Y-77656904D01*
X157618628Y-77656904D02*
X157523390Y-77609285D01*
X154124819Y-82176857D02*
X153648628Y-82510190D01*
X154124819Y-82748285D02*
X153124819Y-82748285D01*
X153124819Y-82748285D02*
X153124819Y-82367333D01*
X153124819Y-82367333D02*
X153172438Y-82272095D01*
X153172438Y-82272095D02*
X153220057Y-82224476D01*
X153220057Y-82224476D02*
X153315295Y-82176857D01*
X153315295Y-82176857D02*
X153458152Y-82176857D01*
X153458152Y-82176857D02*
X153553390Y-82224476D01*
X153553390Y-82224476D02*
X153601009Y-82272095D01*
X153601009Y-82272095D02*
X153648628Y-82367333D01*
X153648628Y-82367333D02*
X153648628Y-82748285D01*
X154124819Y-81224476D02*
X154124819Y-81795904D01*
X154124819Y-81510190D02*
X153124819Y-81510190D01*
X153124819Y-81510190D02*
X153267676Y-81605428D01*
X153267676Y-81605428D02*
X153362914Y-81700666D01*
X153362914Y-81700666D02*
X153410533Y-81795904D01*
X154124819Y-80272095D02*
X154124819Y-80843523D01*
X154124819Y-80557809D02*
X153124819Y-80557809D01*
X153124819Y-80557809D02*
X153267676Y-80653047D01*
X153267676Y-80653047D02*
X153362914Y-80748285D01*
X153362914Y-80748285D02*
X153410533Y-80843523D01*
X145742819Y-130214666D02*
X145266628Y-130547999D01*
X145742819Y-130786094D02*
X144742819Y-130786094D01*
X144742819Y-130786094D02*
X144742819Y-130405142D01*
X144742819Y-130405142D02*
X144790438Y-130309904D01*
X144790438Y-130309904D02*
X144838057Y-130262285D01*
X144838057Y-130262285D02*
X144933295Y-130214666D01*
X144933295Y-130214666D02*
X145076152Y-130214666D01*
X145076152Y-130214666D02*
X145171390Y-130262285D01*
X145171390Y-130262285D02*
X145219009Y-130309904D01*
X145219009Y-130309904D02*
X145266628Y-130405142D01*
X145266628Y-130405142D02*
X145266628Y-130786094D01*
X144742819Y-129881332D02*
X144742819Y-129262285D01*
X144742819Y-129262285D02*
X145123771Y-129595618D01*
X145123771Y-129595618D02*
X145123771Y-129452761D01*
X145123771Y-129452761D02*
X145171390Y-129357523D01*
X145171390Y-129357523D02*
X145219009Y-129309904D01*
X145219009Y-129309904D02*
X145314247Y-129262285D01*
X145314247Y-129262285D02*
X145552342Y-129262285D01*
X145552342Y-129262285D02*
X145647580Y-129309904D01*
X145647580Y-129309904D02*
X145695200Y-129357523D01*
X145695200Y-129357523D02*
X145742819Y-129452761D01*
X145742819Y-129452761D02*
X145742819Y-129738475D01*
X145742819Y-129738475D02*
X145695200Y-129833713D01*
X145695200Y-129833713D02*
X145647580Y-129881332D01*
X145633809Y-92983628D02*
X145633809Y-93459819D01*
X145300476Y-92459819D02*
X145633809Y-92983628D01*
X145633809Y-92983628D02*
X145967142Y-92459819D01*
X146824285Y-93459819D02*
X146252857Y-93459819D01*
X146538571Y-93459819D02*
X146538571Y-92459819D01*
X146538571Y-92459819D02*
X146443333Y-92602676D01*
X146443333Y-92602676D02*
X146348095Y-92697914D01*
X146348095Y-92697914D02*
X146252857Y-92745533D01*
X151979333Y-129232819D02*
X151646000Y-128756628D01*
X151407905Y-129232819D02*
X151407905Y-128232819D01*
X151407905Y-128232819D02*
X151788857Y-128232819D01*
X151788857Y-128232819D02*
X151884095Y-128280438D01*
X151884095Y-128280438D02*
X151931714Y-128328057D01*
X151931714Y-128328057D02*
X151979333Y-128423295D01*
X151979333Y-128423295D02*
X151979333Y-128566152D01*
X151979333Y-128566152D02*
X151931714Y-128661390D01*
X151931714Y-128661390D02*
X151884095Y-128709009D01*
X151884095Y-128709009D02*
X151788857Y-128756628D01*
X151788857Y-128756628D02*
X151407905Y-128756628D01*
X152360286Y-128328057D02*
X152407905Y-128280438D01*
X152407905Y-128280438D02*
X152503143Y-128232819D01*
X152503143Y-128232819D02*
X152741238Y-128232819D01*
X152741238Y-128232819D02*
X152836476Y-128280438D01*
X152836476Y-128280438D02*
X152884095Y-128328057D01*
X152884095Y-128328057D02*
X152931714Y-128423295D01*
X152931714Y-128423295D02*
X152931714Y-128518533D01*
X152931714Y-128518533D02*
X152884095Y-128661390D01*
X152884095Y-128661390D02*
X152312667Y-129232819D01*
X152312667Y-129232819D02*
X152931714Y-129232819D01*
X129206666Y-77714819D02*
X129206666Y-78429104D01*
X129206666Y-78429104D02*
X129159047Y-78571961D01*
X129159047Y-78571961D02*
X129063809Y-78667200D01*
X129063809Y-78667200D02*
X128920952Y-78714819D01*
X128920952Y-78714819D02*
X128825714Y-78714819D01*
X129635238Y-77810057D02*
X129682857Y-77762438D01*
X129682857Y-77762438D02*
X129778095Y-77714819D01*
X129778095Y-77714819D02*
X130016190Y-77714819D01*
X130016190Y-77714819D02*
X130111428Y-77762438D01*
X130111428Y-77762438D02*
X130159047Y-77810057D01*
X130159047Y-77810057D02*
X130206666Y-77905295D01*
X130206666Y-77905295D02*
X130206666Y-78000533D01*
X130206666Y-78000533D02*
X130159047Y-78143390D01*
X130159047Y-78143390D02*
X129587619Y-78714819D01*
X129587619Y-78714819D02*
X130206666Y-78714819D01*
D12*
%TO.C,S3*%
X140950000Y-121365000D02*
X140950000Y-131365000D01*
X140950000Y-131365000D02*
X138450000Y-131365000D01*
X138450000Y-131365000D02*
X138450000Y-121365000D01*
X138450000Y-121365000D02*
X140950000Y-121365000D01*
X137800000Y-126365000D02*
X137800000Y-126365000D01*
X137900000Y-126365000D02*
X137900000Y-126365000D01*
X137800000Y-126365000D02*
X137800000Y-126365000D01*
X137800000Y-126365000D02*
G75*
G03*
X137900000Y-126365000I50000J0D01*
G01*
X137900000Y-126365000D02*
G75*
G03*
X137800000Y-126365000I-50000J0D01*
G01*
X137800000Y-126365000D02*
G75*
G03*
X137900000Y-126365000I50000J0D01*
G01*
%TO.C,S2*%
X138410000Y-121365000D02*
X138410000Y-131365000D01*
X138410000Y-131365000D02*
X135910000Y-131365000D01*
X135910000Y-131365000D02*
X135910000Y-121365000D01*
X135910000Y-121365000D02*
X138410000Y-121365000D01*
X135260000Y-126365000D02*
X135260000Y-126365000D01*
X135360000Y-126365000D02*
X135360000Y-126365000D01*
X135260000Y-126365000D02*
X135260000Y-126365000D01*
X135260000Y-126365000D02*
G75*
G03*
X135360000Y-126365000I50000J0D01*
G01*
X135360000Y-126365000D02*
G75*
G03*
X135260000Y-126365000I-50000J0D01*
G01*
X135260000Y-126365000D02*
G75*
G03*
X135360000Y-126365000I50000J0D01*
G01*
%TO.C,PS1*%
X151905000Y-126391000D02*
X151905000Y-125791000D01*
X151905000Y-125791000D02*
X154805000Y-125791000D01*
X154805000Y-125791000D02*
X154805000Y-126391000D01*
X154805000Y-126391000D02*
X151905000Y-126391000D01*
X151855000Y-127941000D02*
X151855000Y-126741000D01*
D13*
%TO.C,U1*%
X141265800Y-108565000D02*
X140965800Y-108565000D01*
X140965800Y-108565000D02*
X140365800Y-109165000D01*
X140365800Y-109165000D02*
X140365800Y-109665000D01*
X140365800Y-109665000D02*
X139365800Y-109665000D01*
X140365800Y-118765000D02*
X140365800Y-118265000D01*
X140365800Y-118765000D02*
X140865800Y-118765000D01*
X150565800Y-108565000D02*
X150065800Y-108565000D01*
X150565800Y-108565000D02*
X150565800Y-109065000D01*
X150565800Y-118765000D02*
X150065800Y-118765000D01*
X150565800Y-118765000D02*
X150565800Y-118265000D01*
D14*
%TO.C,C18*%
X154070267Y-120779000D02*
X153777733Y-120779000D01*
X154070267Y-119759000D02*
X153777733Y-119759000D01*
%TO.C,C16*%
X133627400Y-117824467D02*
X133627400Y-117531933D01*
X134647400Y-117824467D02*
X134647400Y-117531933D01*
%TO.C,C14*%
X154070267Y-106910600D02*
X153777733Y-106910600D01*
X154070267Y-105890600D02*
X153777733Y-105890600D01*
%TO.C,C13*%
X136962933Y-118895400D02*
X137255467Y-118895400D01*
X136962933Y-119915400D02*
X137255467Y-119915400D01*
%TO.C,C9*%
X154069167Y-108460000D02*
X153776633Y-108460000D01*
X154069167Y-107440000D02*
X153776633Y-107440000D01*
%TO.C,C8*%
X137013733Y-104900000D02*
X137306267Y-104900000D01*
X137013733Y-105920000D02*
X137306267Y-105920000D01*
%TO.C,C4*%
X152866267Y-130630000D02*
X152573733Y-130630000D01*
X152866267Y-129610000D02*
X152573733Y-129610000D01*
%TO.C,R6*%
X151144500Y-121919276D02*
X151144500Y-122428724D01*
X150099500Y-121919276D02*
X150099500Y-122428724D01*
%TO.C,R5*%
X142762500Y-125117776D02*
X142762500Y-125627224D01*
X141717500Y-125117776D02*
X141717500Y-125627224D01*
D13*
%TO.C,S1*%
X136220000Y-135560000D02*
X135720000Y-135560000D01*
X136220000Y-135560000D02*
X136220000Y-136060000D01*
X135720000Y-135560000D02*
X135720000Y-135160000D01*
X133020000Y-135560000D02*
X133520000Y-135560000D01*
X133020000Y-135560000D02*
X133020000Y-136060000D01*
X136220000Y-138760000D02*
X136220000Y-138260000D01*
X136220000Y-138760000D02*
X135720000Y-138760000D01*
X133020000Y-138760000D02*
X133020000Y-138360000D01*
X133020000Y-138760000D02*
X133520000Y-138760000D01*
D14*
%TO.C,R13*%
X143241500Y-127508724D02*
X143241500Y-126999276D01*
X144286500Y-127508724D02*
X144286500Y-126999276D01*
%TO.C,C3*%
X151596267Y-86180000D02*
X151303733Y-86180000D01*
X151596267Y-85160000D02*
X151303733Y-85160000D01*
%TO.C,R12*%
X149620500Y-121919276D02*
X149620500Y-122428724D01*
X148575500Y-121919276D02*
X148575500Y-122428724D01*
%TO.C,D1*%
X151357000Y-123816000D02*
X149887000Y-123816000D01*
X149887000Y-123816000D02*
X149887000Y-126276000D01*
X151357000Y-126276000D02*
X151357000Y-123816000D01*
%TO.C,C10*%
X130300000Y-134766267D02*
X130300000Y-134473733D01*
X131320000Y-134766267D02*
X131320000Y-134473733D01*
D12*
%TO.C,J6*%
X141023000Y-135332000D02*
X141023000Y-137082000D01*
X141023000Y-140082000D02*
X141023000Y-140457000D01*
X141023000Y-140457000D02*
X150493000Y-140457000D01*
X141023000Y-141207000D02*
X141023000Y-141207000D01*
X141023000Y-141207000D02*
X141023000Y-141207000D01*
X141023000Y-141207000D02*
X141023000Y-141457000D01*
X141023000Y-141457000D02*
X150493000Y-141457000D01*
X141220000Y-140957000D02*
X150296000Y-140957000D01*
X141220000Y-141082000D02*
X141220000Y-140457000D01*
D13*
X141558000Y-135757000D02*
X141558000Y-135757000D01*
X141758000Y-135757000D02*
X141758000Y-135757000D01*
D12*
X142158000Y-135544000D02*
X143958000Y-135544000D01*
X142158000Y-135557000D02*
X142358000Y-135557000D01*
X142158000Y-135957000D02*
X142158000Y-135557000D01*
X142358000Y-135557000D02*
X142358000Y-135957000D01*
D13*
X142408000Y-132357000D02*
X142408000Y-132357000D01*
X142408000Y-132457000D02*
X142408000Y-132457000D01*
D12*
X142601000Y-141457000D02*
X142601000Y-140457000D01*
X142708000Y-135544000D02*
X142708000Y-135957000D01*
X142958000Y-135557000D02*
X142958000Y-135957000D01*
X142958000Y-138957000D02*
X142958000Y-138957000D01*
X142958000Y-139357000D02*
X143958000Y-139357000D01*
X143358000Y-135557000D02*
X143358000Y-135957000D01*
X143958000Y-135544000D02*
X143958000Y-135957000D01*
X143958000Y-135957000D02*
X142158000Y-135957000D01*
X143958000Y-138957000D02*
X142958000Y-138957000D01*
X143958000Y-139357000D02*
X143958000Y-139357000D01*
X144772000Y-141207000D02*
X141023000Y-141207000D01*
X145758000Y-141457000D02*
X145758000Y-140457000D01*
X146758000Y-138957000D02*
X148358000Y-138957000D01*
X146758000Y-139357000D02*
X146758000Y-138957000D01*
X147158000Y-139357000D02*
X147158000Y-138957000D01*
X147558000Y-135557000D02*
X147558000Y-135557000D01*
X147558000Y-135957000D02*
X148558000Y-135957000D01*
X147558000Y-139357000D02*
X147558000Y-138957000D01*
X148008000Y-139357000D02*
X148008000Y-138957000D01*
X148158000Y-139357000D02*
X146758000Y-139357000D01*
X148358000Y-138957000D02*
X148358000Y-139357000D01*
X148358000Y-139357000D02*
X148158000Y-139357000D01*
X148558000Y-135557000D02*
X147558000Y-135557000D01*
X148558000Y-135957000D02*
X148558000Y-135957000D01*
D13*
X148558000Y-139157000D02*
X148558000Y-139157000D01*
X148758000Y-139157000D02*
X148758000Y-139157000D01*
D12*
X148915000Y-141457000D02*
X148915000Y-140457000D01*
X150296000Y-140457000D02*
X150296000Y-141082000D01*
X150296000Y-141082000D02*
X150296000Y-141082000D01*
X150493000Y-137082000D02*
X150493000Y-135332000D01*
X150493000Y-140457000D02*
X150493000Y-140082000D01*
X150493000Y-141207000D02*
X144772000Y-141207000D01*
X150493000Y-141457000D02*
X150493000Y-141207000D01*
X141023000Y-141207000D02*
G75*
G03*
X141219800Y-141082107I-2J217503D01*
G01*
D13*
X141758000Y-135757000D02*
G75*
G03*
X141558000Y-135757000I-100000J0D01*
G01*
X141558000Y-135757000D02*
G75*
G03*
X141758000Y-135757000I100000J0D01*
G01*
X142408000Y-132457000D02*
G75*
G03*
X142408000Y-132357000I0J50000D01*
G01*
X142408000Y-132357000D02*
G75*
G03*
X142408000Y-132457000I0J-50000D01*
G01*
D12*
X142958000Y-138957000D02*
G75*
G03*
X142958000Y-139357000I0J-200000D01*
G01*
X143958000Y-139357000D02*
G75*
G03*
X143958000Y-138957000I0J200000D01*
G01*
X147558000Y-135557000D02*
G75*
G03*
X147558000Y-135957000I0J-200000D01*
G01*
X148558000Y-135957000D02*
G75*
G03*
X148558000Y-135557000I0J200000D01*
G01*
D13*
X148758000Y-139157000D02*
G75*
G03*
X148558000Y-139157000I-100000J0D01*
G01*
X148558000Y-139157000D02*
G75*
G03*
X148758000Y-139157000I100000J0D01*
G01*
D12*
X150296000Y-141082000D02*
G75*
G03*
X150492758Y-141206866I138000J0D01*
G01*
D14*
%TO.C,R14*%
X154558276Y-133335500D02*
X155067724Y-133335500D01*
X154558276Y-134380500D02*
X155067724Y-134380500D01*
%TO.C,R1*%
X149606724Y-130062500D02*
X149097276Y-130062500D01*
X149606724Y-129017500D02*
X149097276Y-129017500D01*
%TO.C,D2*%
X149833000Y-123816000D02*
X148363000Y-123816000D01*
X148363000Y-123816000D02*
X148363000Y-126276000D01*
X149833000Y-126276000D02*
X149833000Y-123816000D01*
%TO.C,R4*%
X134097500Y-126262224D02*
X134097500Y-125752776D01*
X135142500Y-126262224D02*
X135142500Y-125752776D01*
%TO.C,J1*%
X157345000Y-61995000D02*
X156345000Y-61995000D01*
X156345000Y-61995000D02*
X156845000Y-62995000D01*
X156845000Y-62995000D02*
X157345000Y-61995000D01*
X162055000Y-63385000D02*
X162055000Y-72505000D01*
X147465000Y-63385000D02*
X147465000Y-64695000D01*
X128775000Y-63385000D02*
X162055000Y-63385000D01*
X160755000Y-64695000D02*
X160755000Y-71195000D01*
X147465000Y-64695000D02*
X160755000Y-64695000D01*
X143365000Y-64695000D02*
X143365000Y-63385000D01*
X143365000Y-64695000D02*
X143365000Y-64695000D01*
X130075000Y-64695000D02*
X143365000Y-64695000D01*
X160755000Y-71195000D02*
X130075000Y-71195000D01*
X130075000Y-71195000D02*
X130075000Y-64695000D01*
X162055000Y-72505000D02*
X128775000Y-72505000D01*
X128775000Y-72505000D02*
X128775000Y-63385000D01*
%TO.C,R7*%
X146289500Y-127508724D02*
X146289500Y-126999276D01*
X147334500Y-127508724D02*
X147334500Y-126999276D01*
%TO.C,C6*%
X154070267Y-122430000D02*
X153777733Y-122430000D01*
X154070267Y-121410000D02*
X153777733Y-121410000D01*
%TO.C,C2*%
X149686267Y-84330000D02*
X149393733Y-84330000D01*
X149686267Y-83310000D02*
X149393733Y-83310000D01*
%TO.C,R10*%
X151652500Y-78140276D02*
X151652500Y-78649724D01*
X150607500Y-78140276D02*
X150607500Y-78649724D01*
%TO.C,J3*%
X159960000Y-79260000D02*
X161290000Y-79260000D01*
X159960000Y-80590000D02*
X159960000Y-79260000D01*
X159960000Y-81860000D02*
X159960000Y-130180000D01*
X159960000Y-81860000D02*
X162620000Y-81860000D01*
X159960000Y-130180000D02*
X162620000Y-130180000D01*
X162620000Y-81860000D02*
X162620000Y-130180000D01*
%TO.C,R9*%
X156732500Y-78140276D02*
X156732500Y-78649724D01*
X155687500Y-78140276D02*
X155687500Y-78649724D01*
%TO.C,R11*%
X154192500Y-78140276D02*
X154192500Y-78649724D01*
X153147500Y-78140276D02*
X153147500Y-78649724D01*
%TO.C,R3*%
X144765500Y-127508724D02*
X144765500Y-126999276D01*
X145810500Y-127508724D02*
X145810500Y-126999276D01*
%TO.C,Y1*%
X149310000Y-92005000D02*
X142910000Y-92005000D01*
X149310000Y-86955000D02*
X142910000Y-86955000D01*
X149310000Y-92005000D02*
G75*
G03*
X149310000Y-86955000I0J2525000D01*
G01*
X142910000Y-86955000D02*
G75*
G03*
X142910000Y-92005000I0J-2525000D01*
G01*
%TO.C,R2*%
X149606724Y-128538500D02*
X149097276Y-128538500D01*
X149606724Y-127493500D02*
X149097276Y-127493500D01*
%TO.C,J2*%
X128210000Y-79260000D02*
X129540000Y-79260000D01*
X128210000Y-80590000D02*
X128210000Y-79260000D01*
X128210000Y-81860000D02*
X128210000Y-130180000D01*
X128210000Y-81860000D02*
X130870000Y-81860000D01*
X128210000Y-130180000D02*
X130870000Y-130180000D01*
X130870000Y-81860000D02*
X130870000Y-130180000D01*
%TD*%
M02*
