%TF.GenerationSoftware,KiCad,Pcbnew,7.0.9*%
%TF.CreationDate,2023-12-16T00:09:53+09:00*%
%TF.ProjectId,STM32F405_dev_board,53544d33-3246-4343-9035-5f6465765f62,1.0.0*%
%TF.SameCoordinates,Original*%
%TF.FileFunction,Drillmap*%
%TF.FilePolarity,Positive*%
%FSLAX45Y45*%
G04 Gerber Fmt 4.5, Leading zero omitted, Abs format (unit mm)*
G04 Created by KiCad (PCBNEW 7.0.9) date 2023-12-16 00:09:53*
%MOMM*%
%LPD*%
G01*
G04 APERTURE LIST*
%ADD10C,0.100000*%
%ADD11C,0.200000*%
G04 APERTURE END LIST*
D10*
X16510000Y-5973000D02*
G75*
G03*
X16310000Y-5773000I-200000J0D01*
G01*
X12773000Y-5773000D02*
G75*
G03*
X12573000Y-5973000I0J-200000D01*
G01*
X16310000Y-14155000D02*
X12773000Y-14155000D01*
X16510000Y-5973000D02*
X16510000Y-13955000D01*
X12573000Y-13955000D02*
G75*
G03*
X12773000Y-14155000I200000J0D01*
G01*
X16310000Y-14155000D02*
G75*
G03*
X16510000Y-13955000I0J200000D01*
G01*
X12573000Y-13955000D02*
X12573000Y-5973000D01*
X12773000Y-5773000D02*
X16310000Y-5773000D01*
D11*
D10*
X14205800Y-13421700D02*
X14285800Y-13501700D01*
X14285800Y-13421700D02*
X14205800Y-13501700D01*
X14865800Y-13421700D02*
X14945800Y-13501700D01*
X14945800Y-13421700D02*
X14865800Y-13501700D01*
D11*
X12828777Y-14471484D02*
X12828777Y-14271484D01*
X12828777Y-14271484D02*
X12876396Y-14271484D01*
X12876396Y-14271484D02*
X12904967Y-14281008D01*
X12904967Y-14281008D02*
X12924015Y-14300055D01*
X12924015Y-14300055D02*
X12933539Y-14319103D01*
X12933539Y-14319103D02*
X12943062Y-14357198D01*
X12943062Y-14357198D02*
X12943062Y-14385769D01*
X12943062Y-14385769D02*
X12933539Y-14423865D01*
X12933539Y-14423865D02*
X12924015Y-14442912D01*
X12924015Y-14442912D02*
X12904967Y-14461960D01*
X12904967Y-14461960D02*
X12876396Y-14471484D01*
X12876396Y-14471484D02*
X12828777Y-14471484D01*
X13028777Y-14471484D02*
X13028777Y-14338150D01*
X13028777Y-14376246D02*
X13038301Y-14357198D01*
X13038301Y-14357198D02*
X13047824Y-14347674D01*
X13047824Y-14347674D02*
X13066872Y-14338150D01*
X13066872Y-14338150D02*
X13085920Y-14338150D01*
X13152586Y-14471484D02*
X13152586Y-14338150D01*
X13152586Y-14271484D02*
X13143062Y-14281008D01*
X13143062Y-14281008D02*
X13152586Y-14290531D01*
X13152586Y-14290531D02*
X13162110Y-14281008D01*
X13162110Y-14281008D02*
X13152586Y-14271484D01*
X13152586Y-14271484D02*
X13152586Y-14290531D01*
X13276396Y-14471484D02*
X13257348Y-14461960D01*
X13257348Y-14461960D02*
X13247824Y-14442912D01*
X13247824Y-14442912D02*
X13247824Y-14271484D01*
X13381158Y-14471484D02*
X13362110Y-14461960D01*
X13362110Y-14461960D02*
X13352586Y-14442912D01*
X13352586Y-14442912D02*
X13352586Y-14271484D01*
X13609729Y-14471484D02*
X13609729Y-14271484D01*
X13609729Y-14271484D02*
X13676396Y-14414341D01*
X13676396Y-14414341D02*
X13743062Y-14271484D01*
X13743062Y-14271484D02*
X13743062Y-14471484D01*
X13924015Y-14471484D02*
X13924015Y-14366722D01*
X13924015Y-14366722D02*
X13914491Y-14347674D01*
X13914491Y-14347674D02*
X13895443Y-14338150D01*
X13895443Y-14338150D02*
X13857348Y-14338150D01*
X13857348Y-14338150D02*
X13838301Y-14347674D01*
X13924015Y-14461960D02*
X13904967Y-14471484D01*
X13904967Y-14471484D02*
X13857348Y-14471484D01*
X13857348Y-14471484D02*
X13838301Y-14461960D01*
X13838301Y-14461960D02*
X13828777Y-14442912D01*
X13828777Y-14442912D02*
X13828777Y-14423865D01*
X13828777Y-14423865D02*
X13838301Y-14404817D01*
X13838301Y-14404817D02*
X13857348Y-14395293D01*
X13857348Y-14395293D02*
X13904967Y-14395293D01*
X13904967Y-14395293D02*
X13924015Y-14385769D01*
X14019253Y-14338150D02*
X14019253Y-14538150D01*
X14019253Y-14347674D02*
X14038301Y-14338150D01*
X14038301Y-14338150D02*
X14076396Y-14338150D01*
X14076396Y-14338150D02*
X14095443Y-14347674D01*
X14095443Y-14347674D02*
X14104967Y-14357198D01*
X14104967Y-14357198D02*
X14114491Y-14376246D01*
X14114491Y-14376246D02*
X14114491Y-14433388D01*
X14114491Y-14433388D02*
X14104967Y-14452436D01*
X14104967Y-14452436D02*
X14095443Y-14461960D01*
X14095443Y-14461960D02*
X14076396Y-14471484D01*
X14076396Y-14471484D02*
X14038301Y-14471484D01*
X14038301Y-14471484D02*
X14019253Y-14461960D01*
X14200205Y-14452436D02*
X14209729Y-14461960D01*
X14209729Y-14461960D02*
X14200205Y-14471484D01*
X14200205Y-14471484D02*
X14190682Y-14461960D01*
X14190682Y-14461960D02*
X14200205Y-14452436D01*
X14200205Y-14452436D02*
X14200205Y-14471484D01*
X14200205Y-14347674D02*
X14209729Y-14357198D01*
X14209729Y-14357198D02*
X14200205Y-14366722D01*
X14200205Y-14366722D02*
X14190682Y-14357198D01*
X14190682Y-14357198D02*
X14200205Y-14347674D01*
X14200205Y-14347674D02*
X14200205Y-14366722D01*
D10*
X12488000Y-14760000D02*
X12568000Y-14840000D01*
X12568000Y-14760000D02*
X12488000Y-14840000D01*
D11*
X12866872Y-14691484D02*
X12885920Y-14691484D01*
X12885920Y-14691484D02*
X12904967Y-14701008D01*
X12904967Y-14701008D02*
X12914491Y-14710531D01*
X12914491Y-14710531D02*
X12924015Y-14729579D01*
X12924015Y-14729579D02*
X12933539Y-14767674D01*
X12933539Y-14767674D02*
X12933539Y-14815293D01*
X12933539Y-14815293D02*
X12924015Y-14853388D01*
X12924015Y-14853388D02*
X12914491Y-14872436D01*
X12914491Y-14872436D02*
X12904967Y-14881960D01*
X12904967Y-14881960D02*
X12885920Y-14891484D01*
X12885920Y-14891484D02*
X12866872Y-14891484D01*
X12866872Y-14891484D02*
X12847824Y-14881960D01*
X12847824Y-14881960D02*
X12838301Y-14872436D01*
X12838301Y-14872436D02*
X12828777Y-14853388D01*
X12828777Y-14853388D02*
X12819253Y-14815293D01*
X12819253Y-14815293D02*
X12819253Y-14767674D01*
X12819253Y-14767674D02*
X12828777Y-14729579D01*
X12828777Y-14729579D02*
X12838301Y-14710531D01*
X12838301Y-14710531D02*
X12847824Y-14701008D01*
X12847824Y-14701008D02*
X12866872Y-14691484D01*
X13019253Y-14872436D02*
X13028777Y-14881960D01*
X13028777Y-14881960D02*
X13019253Y-14891484D01*
X13019253Y-14891484D02*
X13009729Y-14881960D01*
X13009729Y-14881960D02*
X13019253Y-14872436D01*
X13019253Y-14872436D02*
X13019253Y-14891484D01*
X13143062Y-14777198D02*
X13124015Y-14767674D01*
X13124015Y-14767674D02*
X13114491Y-14758150D01*
X13114491Y-14758150D02*
X13104967Y-14739103D01*
X13104967Y-14739103D02*
X13104967Y-14729579D01*
X13104967Y-14729579D02*
X13114491Y-14710531D01*
X13114491Y-14710531D02*
X13124015Y-14701008D01*
X13124015Y-14701008D02*
X13143062Y-14691484D01*
X13143062Y-14691484D02*
X13181158Y-14691484D01*
X13181158Y-14691484D02*
X13200205Y-14701008D01*
X13200205Y-14701008D02*
X13209729Y-14710531D01*
X13209729Y-14710531D02*
X13219253Y-14729579D01*
X13219253Y-14729579D02*
X13219253Y-14739103D01*
X13219253Y-14739103D02*
X13209729Y-14758150D01*
X13209729Y-14758150D02*
X13200205Y-14767674D01*
X13200205Y-14767674D02*
X13181158Y-14777198D01*
X13181158Y-14777198D02*
X13143062Y-14777198D01*
X13143062Y-14777198D02*
X13124015Y-14786722D01*
X13124015Y-14786722D02*
X13114491Y-14796246D01*
X13114491Y-14796246D02*
X13104967Y-14815293D01*
X13104967Y-14815293D02*
X13104967Y-14853388D01*
X13104967Y-14853388D02*
X13114491Y-14872436D01*
X13114491Y-14872436D02*
X13124015Y-14881960D01*
X13124015Y-14881960D02*
X13143062Y-14891484D01*
X13143062Y-14891484D02*
X13181158Y-14891484D01*
X13181158Y-14891484D02*
X13200205Y-14881960D01*
X13200205Y-14881960D02*
X13209729Y-14872436D01*
X13209729Y-14872436D02*
X13219253Y-14853388D01*
X13219253Y-14853388D02*
X13219253Y-14815293D01*
X13219253Y-14815293D02*
X13209729Y-14796246D01*
X13209729Y-14796246D02*
X13200205Y-14786722D01*
X13200205Y-14786722D02*
X13181158Y-14777198D01*
X13343062Y-14691484D02*
X13362110Y-14691484D01*
X13362110Y-14691484D02*
X13381158Y-14701008D01*
X13381158Y-14701008D02*
X13390682Y-14710531D01*
X13390682Y-14710531D02*
X13400205Y-14729579D01*
X13400205Y-14729579D02*
X13409729Y-14767674D01*
X13409729Y-14767674D02*
X13409729Y-14815293D01*
X13409729Y-14815293D02*
X13400205Y-14853388D01*
X13400205Y-14853388D02*
X13390682Y-14872436D01*
X13390682Y-14872436D02*
X13381158Y-14881960D01*
X13381158Y-14881960D02*
X13362110Y-14891484D01*
X13362110Y-14891484D02*
X13343062Y-14891484D01*
X13343062Y-14891484D02*
X13324015Y-14881960D01*
X13324015Y-14881960D02*
X13314491Y-14872436D01*
X13314491Y-14872436D02*
X13304967Y-14853388D01*
X13304967Y-14853388D02*
X13295443Y-14815293D01*
X13295443Y-14815293D02*
X13295443Y-14767674D01*
X13295443Y-14767674D02*
X13304967Y-14729579D01*
X13304967Y-14729579D02*
X13314491Y-14710531D01*
X13314491Y-14710531D02*
X13324015Y-14701008D01*
X13324015Y-14701008D02*
X13343062Y-14691484D01*
X13533539Y-14691484D02*
X13552586Y-14691484D01*
X13552586Y-14691484D02*
X13571634Y-14701008D01*
X13571634Y-14701008D02*
X13581158Y-14710531D01*
X13581158Y-14710531D02*
X13590682Y-14729579D01*
X13590682Y-14729579D02*
X13600205Y-14767674D01*
X13600205Y-14767674D02*
X13600205Y-14815293D01*
X13600205Y-14815293D02*
X13590682Y-14853388D01*
X13590682Y-14853388D02*
X13581158Y-14872436D01*
X13581158Y-14872436D02*
X13571634Y-14881960D01*
X13571634Y-14881960D02*
X13552586Y-14891484D01*
X13552586Y-14891484D02*
X13533539Y-14891484D01*
X13533539Y-14891484D02*
X13514491Y-14881960D01*
X13514491Y-14881960D02*
X13504967Y-14872436D01*
X13504967Y-14872436D02*
X13495443Y-14853388D01*
X13495443Y-14853388D02*
X13485920Y-14815293D01*
X13485920Y-14815293D02*
X13485920Y-14767674D01*
X13485920Y-14767674D02*
X13495443Y-14729579D01*
X13495443Y-14729579D02*
X13504967Y-14710531D01*
X13504967Y-14710531D02*
X13514491Y-14701008D01*
X13514491Y-14701008D02*
X13533539Y-14691484D01*
X13685920Y-14891484D02*
X13685920Y-14758150D01*
X13685920Y-14777198D02*
X13695443Y-14767674D01*
X13695443Y-14767674D02*
X13714491Y-14758150D01*
X13714491Y-14758150D02*
X13743063Y-14758150D01*
X13743063Y-14758150D02*
X13762110Y-14767674D01*
X13762110Y-14767674D02*
X13771634Y-14786722D01*
X13771634Y-14786722D02*
X13771634Y-14891484D01*
X13771634Y-14786722D02*
X13781158Y-14767674D01*
X13781158Y-14767674D02*
X13800205Y-14758150D01*
X13800205Y-14758150D02*
X13828777Y-14758150D01*
X13828777Y-14758150D02*
X13847824Y-14767674D01*
X13847824Y-14767674D02*
X13857348Y-14786722D01*
X13857348Y-14786722D02*
X13857348Y-14891484D01*
X13952586Y-14891484D02*
X13952586Y-14758150D01*
X13952586Y-14777198D02*
X13962110Y-14767674D01*
X13962110Y-14767674D02*
X13981158Y-14758150D01*
X13981158Y-14758150D02*
X14009729Y-14758150D01*
X14009729Y-14758150D02*
X14028777Y-14767674D01*
X14028777Y-14767674D02*
X14038301Y-14786722D01*
X14038301Y-14786722D02*
X14038301Y-14891484D01*
X14038301Y-14786722D02*
X14047824Y-14767674D01*
X14047824Y-14767674D02*
X14066872Y-14758150D01*
X14066872Y-14758150D02*
X14095443Y-14758150D01*
X14095443Y-14758150D02*
X14114491Y-14767674D01*
X14114491Y-14767674D02*
X14124015Y-14786722D01*
X14124015Y-14786722D02*
X14124015Y-14891484D01*
X14514491Y-14681960D02*
X14343063Y-14939103D01*
X14771634Y-14691484D02*
X14790682Y-14691484D01*
X14790682Y-14691484D02*
X14809729Y-14701008D01*
X14809729Y-14701008D02*
X14819253Y-14710531D01*
X14819253Y-14710531D02*
X14828777Y-14729579D01*
X14828777Y-14729579D02*
X14838301Y-14767674D01*
X14838301Y-14767674D02*
X14838301Y-14815293D01*
X14838301Y-14815293D02*
X14828777Y-14853388D01*
X14828777Y-14853388D02*
X14819253Y-14872436D01*
X14819253Y-14872436D02*
X14809729Y-14881960D01*
X14809729Y-14881960D02*
X14790682Y-14891484D01*
X14790682Y-14891484D02*
X14771634Y-14891484D01*
X14771634Y-14891484D02*
X14752586Y-14881960D01*
X14752586Y-14881960D02*
X14743063Y-14872436D01*
X14743063Y-14872436D02*
X14733539Y-14853388D01*
X14733539Y-14853388D02*
X14724015Y-14815293D01*
X14724015Y-14815293D02*
X14724015Y-14767674D01*
X14724015Y-14767674D02*
X14733539Y-14729579D01*
X14733539Y-14729579D02*
X14743063Y-14710531D01*
X14743063Y-14710531D02*
X14752586Y-14701008D01*
X14752586Y-14701008D02*
X14771634Y-14691484D01*
X14924015Y-14872436D02*
X14933539Y-14881960D01*
X14933539Y-14881960D02*
X14924015Y-14891484D01*
X14924015Y-14891484D02*
X14914491Y-14881960D01*
X14914491Y-14881960D02*
X14924015Y-14872436D01*
X14924015Y-14872436D02*
X14924015Y-14891484D01*
X15057348Y-14691484D02*
X15076396Y-14691484D01*
X15076396Y-14691484D02*
X15095444Y-14701008D01*
X15095444Y-14701008D02*
X15104967Y-14710531D01*
X15104967Y-14710531D02*
X15114491Y-14729579D01*
X15114491Y-14729579D02*
X15124015Y-14767674D01*
X15124015Y-14767674D02*
X15124015Y-14815293D01*
X15124015Y-14815293D02*
X15114491Y-14853388D01*
X15114491Y-14853388D02*
X15104967Y-14872436D01*
X15104967Y-14872436D02*
X15095444Y-14881960D01*
X15095444Y-14881960D02*
X15076396Y-14891484D01*
X15076396Y-14891484D02*
X15057348Y-14891484D01*
X15057348Y-14891484D02*
X15038301Y-14881960D01*
X15038301Y-14881960D02*
X15028777Y-14872436D01*
X15028777Y-14872436D02*
X15019253Y-14853388D01*
X15019253Y-14853388D02*
X15009729Y-14815293D01*
X15009729Y-14815293D02*
X15009729Y-14767674D01*
X15009729Y-14767674D02*
X15019253Y-14729579D01*
X15019253Y-14729579D02*
X15028777Y-14710531D01*
X15028777Y-14710531D02*
X15038301Y-14701008D01*
X15038301Y-14701008D02*
X15057348Y-14691484D01*
X15190682Y-14691484D02*
X15314491Y-14691484D01*
X15314491Y-14691484D02*
X15247825Y-14767674D01*
X15247825Y-14767674D02*
X15276396Y-14767674D01*
X15276396Y-14767674D02*
X15295444Y-14777198D01*
X15295444Y-14777198D02*
X15304967Y-14786722D01*
X15304967Y-14786722D02*
X15314491Y-14805769D01*
X15314491Y-14805769D02*
X15314491Y-14853388D01*
X15314491Y-14853388D02*
X15304967Y-14872436D01*
X15304967Y-14872436D02*
X15295444Y-14881960D01*
X15295444Y-14881960D02*
X15276396Y-14891484D01*
X15276396Y-14891484D02*
X15219253Y-14891484D01*
X15219253Y-14891484D02*
X15200206Y-14881960D01*
X15200206Y-14881960D02*
X15190682Y-14872436D01*
X15504967Y-14891484D02*
X15390682Y-14891484D01*
X15447825Y-14891484D02*
X15447825Y-14691484D01*
X15447825Y-14691484D02*
X15428777Y-14720055D01*
X15428777Y-14720055D02*
X15409729Y-14739103D01*
X15409729Y-14739103D02*
X15390682Y-14748627D01*
X15685920Y-14691484D02*
X15590682Y-14691484D01*
X15590682Y-14691484D02*
X15581158Y-14786722D01*
X15581158Y-14786722D02*
X15590682Y-14777198D01*
X15590682Y-14777198D02*
X15609729Y-14767674D01*
X15609729Y-14767674D02*
X15657348Y-14767674D01*
X15657348Y-14767674D02*
X15676396Y-14777198D01*
X15676396Y-14777198D02*
X15685920Y-14786722D01*
X15685920Y-14786722D02*
X15695444Y-14805769D01*
X15695444Y-14805769D02*
X15695444Y-14853388D01*
X15695444Y-14853388D02*
X15685920Y-14872436D01*
X15685920Y-14872436D02*
X15676396Y-14881960D01*
X15676396Y-14881960D02*
X15657348Y-14891484D01*
X15657348Y-14891484D02*
X15609729Y-14891484D01*
X15609729Y-14891484D02*
X15590682Y-14881960D01*
X15590682Y-14881960D02*
X15581158Y-14872436D01*
X15771634Y-14691484D02*
X15771634Y-14729579D01*
X15847825Y-14691484D02*
X15847825Y-14729579D01*
X16143063Y-14967674D02*
X16133539Y-14958150D01*
X16133539Y-14958150D02*
X16114491Y-14929579D01*
X16114491Y-14929579D02*
X16104968Y-14910531D01*
X16104968Y-14910531D02*
X16095444Y-14881960D01*
X16095444Y-14881960D02*
X16085920Y-14834341D01*
X16085920Y-14834341D02*
X16085920Y-14796246D01*
X16085920Y-14796246D02*
X16095444Y-14748627D01*
X16095444Y-14748627D02*
X16104968Y-14720055D01*
X16104968Y-14720055D02*
X16114491Y-14701008D01*
X16114491Y-14701008D02*
X16133539Y-14672436D01*
X16133539Y-14672436D02*
X16143063Y-14662912D01*
X16209729Y-14710531D02*
X16219253Y-14701008D01*
X16219253Y-14701008D02*
X16238301Y-14691484D01*
X16238301Y-14691484D02*
X16285920Y-14691484D01*
X16285920Y-14691484D02*
X16304968Y-14701008D01*
X16304968Y-14701008D02*
X16314491Y-14710531D01*
X16314491Y-14710531D02*
X16324015Y-14729579D01*
X16324015Y-14729579D02*
X16324015Y-14748627D01*
X16324015Y-14748627D02*
X16314491Y-14777198D01*
X16314491Y-14777198D02*
X16200206Y-14891484D01*
X16200206Y-14891484D02*
X16324015Y-14891484D01*
X16562110Y-14891484D02*
X16562110Y-14691484D01*
X16647825Y-14891484D02*
X16647825Y-14786722D01*
X16647825Y-14786722D02*
X16638301Y-14767674D01*
X16638301Y-14767674D02*
X16619253Y-14758150D01*
X16619253Y-14758150D02*
X16590682Y-14758150D01*
X16590682Y-14758150D02*
X16571634Y-14767674D01*
X16571634Y-14767674D02*
X16562110Y-14777198D01*
X16771634Y-14891484D02*
X16752587Y-14881960D01*
X16752587Y-14881960D02*
X16743063Y-14872436D01*
X16743063Y-14872436D02*
X16733539Y-14853388D01*
X16733539Y-14853388D02*
X16733539Y-14796246D01*
X16733539Y-14796246D02*
X16743063Y-14777198D01*
X16743063Y-14777198D02*
X16752587Y-14767674D01*
X16752587Y-14767674D02*
X16771634Y-14758150D01*
X16771634Y-14758150D02*
X16800206Y-14758150D01*
X16800206Y-14758150D02*
X16819253Y-14767674D01*
X16819253Y-14767674D02*
X16828777Y-14777198D01*
X16828777Y-14777198D02*
X16838301Y-14796246D01*
X16838301Y-14796246D02*
X16838301Y-14853388D01*
X16838301Y-14853388D02*
X16828777Y-14872436D01*
X16828777Y-14872436D02*
X16819253Y-14881960D01*
X16819253Y-14881960D02*
X16800206Y-14891484D01*
X16800206Y-14891484D02*
X16771634Y-14891484D01*
X16952587Y-14891484D02*
X16933539Y-14881960D01*
X16933539Y-14881960D02*
X16924015Y-14862912D01*
X16924015Y-14862912D02*
X16924015Y-14691484D01*
X17104968Y-14881960D02*
X17085920Y-14891484D01*
X17085920Y-14891484D02*
X17047825Y-14891484D01*
X17047825Y-14891484D02*
X17028777Y-14881960D01*
X17028777Y-14881960D02*
X17019253Y-14862912D01*
X17019253Y-14862912D02*
X17019253Y-14786722D01*
X17019253Y-14786722D02*
X17028777Y-14767674D01*
X17028777Y-14767674D02*
X17047825Y-14758150D01*
X17047825Y-14758150D02*
X17085920Y-14758150D01*
X17085920Y-14758150D02*
X17104968Y-14767674D01*
X17104968Y-14767674D02*
X17114492Y-14786722D01*
X17114492Y-14786722D02*
X17114492Y-14805769D01*
X17114492Y-14805769D02*
X17019253Y-14824817D01*
X17190682Y-14881960D02*
X17209730Y-14891484D01*
X17209730Y-14891484D02*
X17247825Y-14891484D01*
X17247825Y-14891484D02*
X17266873Y-14881960D01*
X17266873Y-14881960D02*
X17276396Y-14862912D01*
X17276396Y-14862912D02*
X17276396Y-14853388D01*
X17276396Y-14853388D02*
X17266873Y-14834341D01*
X17266873Y-14834341D02*
X17247825Y-14824817D01*
X17247825Y-14824817D02*
X17219253Y-14824817D01*
X17219253Y-14824817D02*
X17200206Y-14815293D01*
X17200206Y-14815293D02*
X17190682Y-14796246D01*
X17190682Y-14796246D02*
X17190682Y-14786722D01*
X17190682Y-14786722D02*
X17200206Y-14767674D01*
X17200206Y-14767674D02*
X17219253Y-14758150D01*
X17219253Y-14758150D02*
X17247825Y-14758150D01*
X17247825Y-14758150D02*
X17266873Y-14767674D01*
X17343063Y-14967674D02*
X17352587Y-14958150D01*
X17352587Y-14958150D02*
X17371634Y-14929579D01*
X17371634Y-14929579D02*
X17381158Y-14910531D01*
X17381158Y-14910531D02*
X17390682Y-14881960D01*
X17390682Y-14881960D02*
X17400206Y-14834341D01*
X17400206Y-14834341D02*
X17400206Y-14796246D01*
X17400206Y-14796246D02*
X17390682Y-14748627D01*
X17390682Y-14748627D02*
X17381158Y-14720055D01*
X17381158Y-14720055D02*
X17371634Y-14701008D01*
X17371634Y-14701008D02*
X17352587Y-14672436D01*
X17352587Y-14672436D02*
X17343063Y-14662912D01*
X17704968Y-14967674D02*
X17695444Y-14958150D01*
X17695444Y-14958150D02*
X17676396Y-14929579D01*
X17676396Y-14929579D02*
X17666873Y-14910531D01*
X17666873Y-14910531D02*
X17657349Y-14881960D01*
X17657349Y-14881960D02*
X17647825Y-14834341D01*
X17647825Y-14834341D02*
X17647825Y-14796246D01*
X17647825Y-14796246D02*
X17657349Y-14748627D01*
X17657349Y-14748627D02*
X17666873Y-14720055D01*
X17666873Y-14720055D02*
X17676396Y-14701008D01*
X17676396Y-14701008D02*
X17695444Y-14672436D01*
X17695444Y-14672436D02*
X17704968Y-14662912D01*
X17781158Y-14758150D02*
X17781158Y-14891484D01*
X17781158Y-14777198D02*
X17790682Y-14767674D01*
X17790682Y-14767674D02*
X17809730Y-14758150D01*
X17809730Y-14758150D02*
X17838301Y-14758150D01*
X17838301Y-14758150D02*
X17857349Y-14767674D01*
X17857349Y-14767674D02*
X17866873Y-14786722D01*
X17866873Y-14786722D02*
X17866873Y-14891484D01*
X17990682Y-14891484D02*
X17971634Y-14881960D01*
X17971634Y-14881960D02*
X17962111Y-14872436D01*
X17962111Y-14872436D02*
X17952587Y-14853388D01*
X17952587Y-14853388D02*
X17952587Y-14796246D01*
X17952587Y-14796246D02*
X17962111Y-14777198D01*
X17962111Y-14777198D02*
X17971634Y-14767674D01*
X17971634Y-14767674D02*
X17990682Y-14758150D01*
X17990682Y-14758150D02*
X18019254Y-14758150D01*
X18019254Y-14758150D02*
X18038301Y-14767674D01*
X18038301Y-14767674D02*
X18047825Y-14777198D01*
X18047825Y-14777198D02*
X18057349Y-14796246D01*
X18057349Y-14796246D02*
X18057349Y-14853388D01*
X18057349Y-14853388D02*
X18047825Y-14872436D01*
X18047825Y-14872436D02*
X18038301Y-14881960D01*
X18038301Y-14881960D02*
X18019254Y-14891484D01*
X18019254Y-14891484D02*
X17990682Y-14891484D01*
X18114492Y-14758150D02*
X18190682Y-14758150D01*
X18143063Y-14691484D02*
X18143063Y-14862912D01*
X18143063Y-14862912D02*
X18152587Y-14881960D01*
X18152587Y-14881960D02*
X18171634Y-14891484D01*
X18171634Y-14891484D02*
X18190682Y-14891484D01*
X18409730Y-14758150D02*
X18409730Y-14958150D01*
X18409730Y-14767674D02*
X18428777Y-14758150D01*
X18428777Y-14758150D02*
X18466873Y-14758150D01*
X18466873Y-14758150D02*
X18485920Y-14767674D01*
X18485920Y-14767674D02*
X18495444Y-14777198D01*
X18495444Y-14777198D02*
X18504968Y-14796246D01*
X18504968Y-14796246D02*
X18504968Y-14853388D01*
X18504968Y-14853388D02*
X18495444Y-14872436D01*
X18495444Y-14872436D02*
X18485920Y-14881960D01*
X18485920Y-14881960D02*
X18466873Y-14891484D01*
X18466873Y-14891484D02*
X18428777Y-14891484D01*
X18428777Y-14891484D02*
X18409730Y-14881960D01*
X18619254Y-14891484D02*
X18600206Y-14881960D01*
X18600206Y-14881960D02*
X18590682Y-14862912D01*
X18590682Y-14862912D02*
X18590682Y-14691484D01*
X18781158Y-14891484D02*
X18781158Y-14786722D01*
X18781158Y-14786722D02*
X18771635Y-14767674D01*
X18771635Y-14767674D02*
X18752587Y-14758150D01*
X18752587Y-14758150D02*
X18714492Y-14758150D01*
X18714492Y-14758150D02*
X18695444Y-14767674D01*
X18781158Y-14881960D02*
X18762111Y-14891484D01*
X18762111Y-14891484D02*
X18714492Y-14891484D01*
X18714492Y-14891484D02*
X18695444Y-14881960D01*
X18695444Y-14881960D02*
X18685920Y-14862912D01*
X18685920Y-14862912D02*
X18685920Y-14843865D01*
X18685920Y-14843865D02*
X18695444Y-14824817D01*
X18695444Y-14824817D02*
X18714492Y-14815293D01*
X18714492Y-14815293D02*
X18762111Y-14815293D01*
X18762111Y-14815293D02*
X18781158Y-14805769D01*
X18847825Y-14758150D02*
X18924015Y-14758150D01*
X18876396Y-14691484D02*
X18876396Y-14862912D01*
X18876396Y-14862912D02*
X18885920Y-14881960D01*
X18885920Y-14881960D02*
X18904968Y-14891484D01*
X18904968Y-14891484D02*
X18924015Y-14891484D01*
X19066873Y-14881960D02*
X19047825Y-14891484D01*
X19047825Y-14891484D02*
X19009730Y-14891484D01*
X19009730Y-14891484D02*
X18990682Y-14881960D01*
X18990682Y-14881960D02*
X18981158Y-14862912D01*
X18981158Y-14862912D02*
X18981158Y-14786722D01*
X18981158Y-14786722D02*
X18990682Y-14767674D01*
X18990682Y-14767674D02*
X19009730Y-14758150D01*
X19009730Y-14758150D02*
X19047825Y-14758150D01*
X19047825Y-14758150D02*
X19066873Y-14767674D01*
X19066873Y-14767674D02*
X19076396Y-14786722D01*
X19076396Y-14786722D02*
X19076396Y-14805769D01*
X19076396Y-14805769D02*
X18981158Y-14824817D01*
X19247825Y-14891484D02*
X19247825Y-14691484D01*
X19247825Y-14881960D02*
X19228777Y-14891484D01*
X19228777Y-14891484D02*
X19190682Y-14891484D01*
X19190682Y-14891484D02*
X19171635Y-14881960D01*
X19171635Y-14881960D02*
X19162111Y-14872436D01*
X19162111Y-14872436D02*
X19152587Y-14853388D01*
X19152587Y-14853388D02*
X19152587Y-14796246D01*
X19152587Y-14796246D02*
X19162111Y-14777198D01*
X19162111Y-14777198D02*
X19171635Y-14767674D01*
X19171635Y-14767674D02*
X19190682Y-14758150D01*
X19190682Y-14758150D02*
X19228777Y-14758150D01*
X19228777Y-14758150D02*
X19247825Y-14767674D01*
X19324016Y-14967674D02*
X19333539Y-14958150D01*
X19333539Y-14958150D02*
X19352587Y-14929579D01*
X19352587Y-14929579D02*
X19362111Y-14910531D01*
X19362111Y-14910531D02*
X19371635Y-14881960D01*
X19371635Y-14881960D02*
X19381158Y-14834341D01*
X19381158Y-14834341D02*
X19381158Y-14796246D01*
X19381158Y-14796246D02*
X19371635Y-14748627D01*
X19371635Y-14748627D02*
X19362111Y-14720055D01*
X19362111Y-14720055D02*
X19352587Y-14701008D01*
X19352587Y-14701008D02*
X19333539Y-14672436D01*
X19333539Y-14672436D02*
X19324016Y-14662912D01*
M02*
