%TF.GenerationSoftware,KiCad,Pcbnew,7.0.9*%
%TF.CreationDate,2023-12-16T19:18:52+09:00*%
%TF.ProjectId,STM32F405_dev_board,53544d33-3246-4343-9035-5f6465765f62,1.0.0*%
%TF.SameCoordinates,Original*%
%TF.FileFunction,Copper,L4,Bot*%
%TF.FilePolarity,Positive*%
%FSLAX46Y46*%
G04 Gerber Fmt 4.6, Leading zero omitted, Abs format (unit mm)*
G04 Created by KiCad (PCBNEW 7.0.9) date 2023-12-16 19:18:52*
%MOMM*%
%LPD*%
G01*
G04 APERTURE LIST*
G04 Aperture macros list*
%AMRoundRect*
0 Rectangle with rounded corners*
0 $1 Rounding radius*
0 $2 $3 $4 $5 $6 $7 $8 $9 X,Y pos of 4 corners*
0 Add a 4 corners polygon primitive as box body*
4,1,4,$2,$3,$4,$5,$6,$7,$8,$9,$2,$3,0*
0 Add four circle primitives for the rounded corners*
1,1,$1+$1,$2,$3*
1,1,$1+$1,$4,$5*
1,1,$1+$1,$6,$7*
1,1,$1+$1,$8,$9*
0 Add four rect primitives between the rounded corners*
20,1,$1+$1,$2,$3,$4,$5,0*
20,1,$1+$1,$4,$5,$6,$7,0*
20,1,$1+$1,$6,$7,$8,$9,0*
20,1,$1+$1,$8,$9,$2,$3,0*%
G04 Aperture macros list end*
%TA.AperFunction,ComponentPad*%
%ADD10R,1.300000X1.300000*%
%TD*%
%TA.AperFunction,ComponentPad*%
%ADD11C,1.300000*%
%TD*%
%TA.AperFunction,ComponentPad*%
%ADD12C,3.500000*%
%TD*%
%TA.AperFunction,ComponentPad*%
%ADD13C,2.000000*%
%TD*%
%TA.AperFunction,ComponentPad*%
%ADD14C,2.565000*%
%TD*%
%TA.AperFunction,ComponentPad*%
%ADD15RoundRect,0.250000X-0.600000X0.600000X-0.600000X-0.600000X0.600000X-0.600000X0.600000X0.600000X0*%
%TD*%
%TA.AperFunction,ComponentPad*%
%ADD16C,1.700000*%
%TD*%
%TA.AperFunction,ComponentPad*%
%ADD17R,1.700000X1.700000*%
%TD*%
%TA.AperFunction,ComponentPad*%
%ADD18O,1.700000X1.700000*%
%TD*%
%TA.AperFunction,ComponentPad*%
%ADD19C,1.500000*%
%TD*%
%TA.AperFunction,SMDPad,CuDef*%
%ADD20R,0.450000X1.725000*%
%TD*%
%TA.AperFunction,SMDPad,CuDef*%
%ADD21RoundRect,0.237500X0.300000X0.237500X-0.300000X0.237500X-0.300000X-0.237500X0.300000X-0.237500X0*%
%TD*%
%TA.AperFunction,SMDPad,CuDef*%
%ADD22RoundRect,0.237500X-0.300000X-0.237500X0.300000X-0.237500X0.300000X0.237500X-0.300000X0.237500X0*%
%TD*%
%TA.AperFunction,SMDPad,CuDef*%
%ADD23R,1.430000X2.850000*%
%TD*%
%TA.AperFunction,ViaPad*%
%ADD24C,0.800000*%
%TD*%
%TA.AperFunction,Conductor*%
%ADD25C,0.250000*%
%TD*%
G04 APERTURE END LIST*
D10*
%TO.P,S2,1,COM*%
%TO.N,Net-(S2-COM)*%
X137160000Y-126365000D03*
D11*
%TO.P,S2,2,NO*%
%TO.N,GND*%
X137160000Y-128905000D03*
%TO.P,S2,3,NC*%
%TO.N,VCC3V3*%
X137160000Y-123825000D03*
%TD*%
D12*
%TO.P,REF\u002A\u002A,1*%
%TO.N,GND*%
X162560000Y-60270000D03*
%TD*%
D13*
%TO.P,J6,MH3,MH3*%
%TO.N,GND*%
X141148000Y-134057000D03*
%TO.P,J6,MH4,MH4*%
X150368000Y-134057000D03*
D14*
%TO.P,J6,MH5,MH5*%
X141148000Y-138557000D03*
%TO.P,J6,MH6,MH6*%
X150368000Y-138557000D03*
%TD*%
D12*
%TO.P,REF\u002A\u002A,1*%
%TO.N,GND*%
X128285913Y-139053348D03*
%TD*%
%TO.P,REF\u002A\u002A,1*%
%TO.N,GND*%
X128270000Y-60270000D03*
%TD*%
D15*
%TO.P,J1,1,VTREF*%
%TO.N,VCC3V3*%
X156845000Y-66675000D03*
D16*
%TO.P,J1,2,VCC/NC*%
X156845000Y-69215000D03*
%TO.P,J1,3,~{TRST}*%
%TO.N,JNTRST*%
X154305000Y-66675000D03*
%TO.P,J1,4,GND*%
%TO.N,GND*%
X154305000Y-69215000D03*
%TO.P,J1,5,TDI*%
%TO.N,JTDI*%
X151765000Y-66675000D03*
%TO.P,J1,6,GND*%
%TO.N,GND*%
X151765000Y-69215000D03*
%TO.P,J1,7,TMS/SWDIO*%
%TO.N,JTMS{slash}SWDIO*%
X149225000Y-66675000D03*
%TO.P,J1,8,GND*%
%TO.N,GND*%
X149225000Y-69215000D03*
%TO.P,J1,9,TCK/SWDCLK*%
%TO.N,JTCK{slash}SWCLK*%
X146685000Y-66675000D03*
%TO.P,J1,10,GND*%
%TO.N,GND*%
X146685000Y-69215000D03*
%TO.P,J1,11,RTCK*%
%TO.N,Net-(J1-RTCK)*%
X144145000Y-66675000D03*
%TO.P,J1,12,GND*%
%TO.N,GND*%
X144145000Y-69215000D03*
%TO.P,J1,13,TDO/SWO*%
%TO.N,JTDO*%
X141605000Y-66675000D03*
%TO.P,J1,14,GND*%
%TO.N,GND*%
X141605000Y-69215000D03*
%TO.P,J1,15,~{SRST}*%
%TO.N,RESET*%
X139065000Y-66675000D03*
%TO.P,J1,16,GND*%
%TO.N,GND*%
X139065000Y-69215000D03*
%TO.P,J1,17,DBGRQ/NC*%
%TO.N,Net-(J1-DBGRQ{slash}NC)*%
X136525000Y-66675000D03*
%TO.P,J1,18,GND*%
%TO.N,GND*%
X136525000Y-69215000D03*
%TO.P,J1,19,DBGACK/NC*%
%TO.N,Net-(J1-DBGACK{slash}NC)*%
X133985000Y-66675000D03*
%TO.P,J1,20,GND*%
%TO.N,GND*%
X133985000Y-69215000D03*
%TD*%
D17*
%TO.P,J3,1,Pin_1*%
%TO.N,VCC3V3*%
X161290000Y-80590000D03*
D18*
%TO.P,J3,2,Pin_2*%
%TO.N,GND*%
X161290000Y-83130000D03*
%TO.P,J3,3,Pin_3*%
%TO.N,5V*%
X161290000Y-85670000D03*
%TO.P,J3,4,Pin_4*%
%TO.N,PC12*%
X161290000Y-88210000D03*
%TO.P,J3,5,Pin_5*%
%TO.N,PC11*%
X161290000Y-90750000D03*
%TO.P,J3,6,Pin_6*%
%TO.N,PC10*%
X161290000Y-93290000D03*
%TO.P,J3,7,Pin_7*%
%TO.N,PA10{slash}USART1_RX*%
X161290000Y-95830000D03*
%TO.P,J3,8,Pin_8*%
%TO.N,PA9{slash}USART1_TX*%
X161290000Y-98370000D03*
%TO.P,J3,9,Pin_9*%
%TO.N,PA8*%
X161290000Y-100910000D03*
%TO.P,J3,10,Pin_10*%
%TO.N,PC9*%
X161290000Y-103450000D03*
%TO.P,J3,11,Pin_11*%
%TO.N,PC8*%
X161290000Y-105990000D03*
%TO.P,J3,12,Pin_12*%
%TO.N,PC7*%
X161290000Y-108530000D03*
%TO.P,J3,13,Pin_13*%
%TO.N,PC6*%
X161290000Y-111070000D03*
%TO.P,J3,14,Pin_14*%
%TO.N,PB15*%
X161290000Y-113610000D03*
%TO.P,J3,15,Pin_15*%
%TO.N,PB14*%
X161290000Y-116150000D03*
%TO.P,J3,16,Pin_16*%
%TO.N,PB13*%
X161290000Y-118690000D03*
%TO.P,J3,17,Pin_17*%
%TO.N,PB12*%
X161290000Y-121230000D03*
%TO.P,J3,18,Pin_18*%
%TO.N,PB11*%
X161290000Y-123770000D03*
%TO.P,J3,19,Pin_19*%
%TO.N,PB10*%
X161290000Y-126310000D03*
%TO.P,J3,20,Pin_20*%
%TO.N,PB1*%
X161290000Y-128850000D03*
%TD*%
D12*
%TO.P,REF\u002A\u002A,1*%
%TO.N,GND*%
X162560000Y-139010000D03*
%TD*%
D10*
%TO.P,S3,1,COM*%
%TO.N,Net-(S3-COM)*%
X139700000Y-126365000D03*
D11*
%TO.P,S3,2,NO*%
%TO.N,GND*%
X139700000Y-128905000D03*
%TO.P,S3,3,NC*%
%TO.N,VCC3V3*%
X139700000Y-123825000D03*
%TD*%
D19*
%TO.P,Y1,1,1*%
%TO.N,OSC_OUT*%
X148550000Y-89480000D03*
%TO.P,Y1,2,2*%
%TO.N,OSC_IN*%
X143670000Y-89480000D03*
%TD*%
D17*
%TO.P,J2,1,Pin_1*%
%TO.N,VBAT*%
X129540000Y-80590000D03*
D18*
%TO.P,J2,2,Pin_2*%
%TO.N,PB6*%
X129540000Y-83130000D03*
%TO.P,J2,3,Pin_3*%
%TO.N,PB7*%
X129540000Y-85670000D03*
%TO.P,J2,4,Pin_4*%
%TO.N,PB8*%
X129540000Y-88210000D03*
%TO.P,J2,5,Pin_5*%
%TO.N,PB9*%
X129540000Y-90750000D03*
%TO.P,J2,6,Pin_6*%
%TO.N,PC13*%
X129540000Y-93290000D03*
%TO.P,J2,7,Pin_7*%
%TO.N,PA5*%
X129540000Y-95830000D03*
%TO.P,J2,8,Pin_8*%
%TO.N,PA6*%
X129540000Y-98370000D03*
%TO.P,J2,9,Pin_9*%
%TO.N,PC0*%
X129540000Y-100910000D03*
%TO.P,J2,10,Pin_10*%
%TO.N,PC1*%
X129540000Y-103450000D03*
%TO.P,J2,11,Pin_11*%
%TO.N,PC2*%
X129540000Y-105990000D03*
%TO.P,J2,12,Pin_12*%
%TO.N,PC3*%
X129540000Y-108530000D03*
%TO.P,J2,13,Pin_13*%
%TO.N,PA0*%
X129540000Y-111070000D03*
%TO.P,J2,14,Pin_14*%
%TO.N,PA1*%
X129540000Y-113610000D03*
%TO.P,J2,15,Pin_15*%
%TO.N,PA2*%
X129540000Y-116150000D03*
%TO.P,J2,16,Pin_16*%
%TO.N,PA3*%
X129540000Y-118690000D03*
%TO.P,J2,17,Pin_17*%
%TO.N,RESET*%
X129540000Y-121230000D03*
%TO.P,J2,18,Pin_18*%
%TO.N,VCC3V3*%
X129540000Y-123770000D03*
%TO.P,J2,19,Pin_19*%
%TO.N,GND*%
X129540000Y-126310000D03*
%TO.P,J2,20,Pin_20*%
X129540000Y-128850000D03*
%TD*%
D20*
%TO.P,IC2,1,TXD*%
%TO.N,PA10{slash}USART1_RX*%
X149478250Y-120865000D03*
%TO.P,IC2,2,DTR#*%
%TO.N,unconnected-(IC2-DTR#-Pad2)*%
X150128250Y-120865000D03*
%TO.P,IC2,3,RTS#*%
%TO.N,PA12*%
X150778250Y-120865000D03*
%TO.P,IC2,4,VCCIO*%
%TO.N,VCC3V3*%
X151428250Y-120865000D03*
%TO.P,IC2,5,RXD*%
%TO.N,PA9{slash}USART1_TX*%
X152078250Y-120865000D03*
%TO.P,IC2,6,RI#*%
%TO.N,unconnected-(IC2-RI#-Pad6)*%
X152728250Y-120865000D03*
%TO.P,IC2,7,GND_1*%
%TO.N,GND*%
X153378250Y-120865000D03*
%TO.P,IC2,8,NC_1*%
%TO.N,unconnected-(IC2-NC_1-Pad8)*%
X154028250Y-120865000D03*
%TO.P,IC2,9,DSR#*%
%TO.N,unconnected-(IC2-DSR#-Pad9)*%
X154678250Y-120865000D03*
%TO.P,IC2,10,DCD#*%
%TO.N,unconnected-(IC2-DCD#-Pad10)*%
X155328250Y-120865000D03*
%TO.P,IC2,11,CTS#*%
%TO.N,PA11*%
X155978250Y-120865000D03*
%TO.P,IC2,12,CBUS4*%
%TO.N,unconnected-(IC2-CBUS4-Pad12)*%
X156628250Y-120865000D03*
%TO.P,IC2,13,CBUS2*%
%TO.N,unconnected-(IC2-CBUS2-Pad13)*%
X157278250Y-120865000D03*
%TO.P,IC2,14,CBUS3*%
%TO.N,unconnected-(IC2-CBUS3-Pad14)*%
X157928250Y-120865000D03*
%TO.P,IC2,15,USBDP*%
%TO.N,USBDP*%
X157928250Y-127889000D03*
%TO.P,IC2,16,USBDM*%
%TO.N,USBDM*%
X157278250Y-127889000D03*
%TO.P,IC2,17,3V3OUT*%
%TO.N,Net-(IC2-3V3OUT)*%
X156628250Y-127889000D03*
%TO.P,IC2,18,GND_2*%
%TO.N,GND*%
X155978250Y-127889000D03*
%TO.P,IC2,19,RESET#*%
%TO.N,5V*%
X155328250Y-127889000D03*
%TO.P,IC2,20,VCC*%
X154678250Y-127889000D03*
%TO.P,IC2,21,GND_3*%
%TO.N,GND*%
X154028250Y-127889000D03*
%TO.P,IC2,22,CBUS1*%
%TO.N,unconnected-(IC2-CBUS1-Pad22)*%
X153378250Y-127889000D03*
%TO.P,IC2,23,CBUS0*%
%TO.N,unconnected-(IC2-CBUS0-Pad23)*%
X152728250Y-127889000D03*
%TO.P,IC2,24,NC_2*%
%TO.N,unconnected-(IC2-NC_2-Pad24)*%
X152078250Y-127889000D03*
%TO.P,IC2,25,AGND*%
%TO.N,GND*%
X151428250Y-127889000D03*
%TO.P,IC2,26,TEST*%
%TO.N,unconnected-(IC2-TEST-Pad26)*%
X150778250Y-127889000D03*
%TO.P,IC2,27,OSCI*%
%TO.N,unconnected-(IC2-OSCI-Pad27)*%
X150128250Y-127889000D03*
%TO.P,IC2,28,OSCO*%
%TO.N,unconnected-(IC2-OSCO-Pad28)*%
X149478250Y-127889000D03*
%TD*%
D21*
%TO.P,C12,1*%
%TO.N,GND*%
X154532500Y-106680000D03*
%TO.P,C12,2*%
%TO.N,OSC32_OUT*%
X152807500Y-106680000D03*
%TD*%
D22*
%TO.P,C5,1*%
%TO.N,GND*%
X155347500Y-132080000D03*
%TO.P,C5,2*%
%TO.N,Net-(IC2-3V3OUT)*%
X157072500Y-132080000D03*
%TD*%
D21*
%TO.P,C1,1*%
%TO.N,GND*%
X154151500Y-116840000D03*
%TO.P,C1,2*%
%TO.N,5V*%
X152426500Y-116840000D03*
%TD*%
D23*
%TO.P,Y2,1,1*%
%TO.N,OSC32_IN*%
X148315000Y-99525000D03*
%TO.P,Y2,2,2*%
%TO.N,GND*%
X153945000Y-99525000D03*
%TO.P,Y2,3,3*%
X153945000Y-103675000D03*
%TO.P,Y2,4,4*%
%TO.N,OSC32_OUT*%
X148315000Y-103675000D03*
%TD*%
D21*
%TO.P,C11,1*%
%TO.N,GND*%
X154532500Y-96520000D03*
%TO.P,C11,2*%
%TO.N,OSC32_IN*%
X152807500Y-96520000D03*
%TD*%
D24*
%TO.N,OSC_IN*%
X139210270Y-106635353D03*
X140970000Y-100910000D03*
%TO.N,OSC_OUT*%
X142240000Y-102180000D03*
X142240000Y-111070000D03*
%TO.N,OSC32_IN*%
X147320000Y-95250000D03*
X142240000Y-82550000D03*
X139700000Y-83820000D03*
X152400000Y-92710000D03*
X134345500Y-102870000D03*
%TO.N,OSC32_OUT*%
X149860000Y-101600000D03*
X139700000Y-91440000D03*
X142240000Y-97790000D03*
X133350000Y-101600000D03*
X144780000Y-100330000D03*
%TO.N,PA4*%
X142240000Y-123190000D03*
X145805012Y-123181153D03*
%TO.N,PA12*%
X157480000Y-96520000D03*
%TO.N,PA11*%
X157480000Y-97790000D03*
%TO.N,JNTRST*%
X144780000Y-103450000D03*
%TO.N,JTDI*%
X139700000Y-76780000D03*
X149860000Y-105990000D03*
%TO.N,JTMS{slash}SWDIO*%
X148590000Y-93980000D03*
X152434073Y-104953220D03*
X151854500Y-93980000D03*
%TO.N,JTCK{slash}SWCLK*%
X151130000Y-105990000D03*
%TO.N,JTDO*%
X143510000Y-84400000D03*
X144546054Y-79865958D03*
X146050000Y-103450000D03*
X147320000Y-81860000D03*
%TO.N,PA5*%
X143510000Y-121920000D03*
%TO.N,PA6*%
X144780000Y-121920000D03*
%TO.N,PB11*%
X147042557Y-122132652D03*
%TO.N,PB10*%
X147197652Y-123312348D03*
%TO.N,PB1*%
X144929500Y-120920497D03*
%TO.N,BOOT0*%
X143510000Y-109800000D03*
X132080000Y-124509500D03*
%TO.N,RESET*%
X143510000Y-103450000D03*
X137160000Y-112340000D03*
X154940000Y-85670000D03*
X132842000Y-122555000D03*
%TO.N,GND*%
X142240000Y-131445000D03*
X142205000Y-117475000D03*
X142218369Y-113562009D03*
X154940000Y-118690000D03*
X150241000Y-132080000D03*
X153670000Y-132080000D03*
X154109124Y-109595109D03*
X133959600Y-119811800D03*
X150215600Y-119253000D03*
X135722701Y-97957299D03*
X138430000Y-83820000D03*
%TO.N,5V*%
X143510000Y-131953000D03*
X156210000Y-118690000D03*
X156210000Y-125040000D03*
X147320000Y-113030000D03*
X158025500Y-130048000D03*
X154935701Y-129789701D03*
X148590000Y-131699000D03*
%TO.N,VCC3V3*%
X144221200Y-115620800D03*
X143510000Y-117475000D03*
X137464800Y-103886000D03*
X150723600Y-107543600D03*
X151257000Y-118999000D03*
%TO.N,VBAT*%
X137160000Y-86940000D03*
X138430000Y-107260000D03*
%TO.N,USBDP*%
X157861000Y-133604000D03*
X144526000Y-123952000D03*
%TO.N,USBDM*%
X145288000Y-124968000D03*
%TO.N,PA10{slash}USART1_RX*%
X148590000Y-113030000D03*
%TO.N,PA9{slash}USART1_TX*%
X148590000Y-114300000D03*
%TD*%
D25*
%TO.N,OSC_IN*%
X139210270Y-106635353D02*
X139700000Y-106145623D01*
X139700000Y-106145623D02*
X139700000Y-102180000D01*
X139700000Y-102180000D02*
X140970000Y-100910000D01*
%TO.N,OSC_OUT*%
X140970000Y-103450000D02*
X140970000Y-109800000D01*
X140970000Y-109800000D02*
X142240000Y-111070000D01*
X142240000Y-102180000D02*
X140970000Y-103450000D01*
%TO.N,OSC32_IN*%
X146870000Y-85910000D02*
X143510000Y-82550000D01*
X147320000Y-95250000D02*
X148315000Y-96245000D01*
X138975000Y-83095000D02*
X137885000Y-83095000D01*
X152400000Y-92710000D02*
X152807500Y-93117500D01*
X143510000Y-82550000D02*
X142240000Y-82550000D01*
X148315000Y-96245000D02*
X148315000Y-99525000D01*
X137885000Y-83095000D02*
X134345500Y-86634500D01*
X152807500Y-93117500D02*
X152807500Y-96520000D01*
X147320000Y-95250000D02*
X146870000Y-94800000D01*
X134345500Y-86634500D02*
X134345500Y-102870000D01*
X139700000Y-83820000D02*
X138975000Y-83095000D01*
X146870000Y-94800000D02*
X146870000Y-85910000D01*
%TO.N,OSC32_OUT*%
X149860000Y-102130000D02*
X149860000Y-101600000D01*
X148625000Y-106715000D02*
X148315000Y-106405000D01*
X139455305Y-82550000D02*
X140520000Y-83614695D01*
X148315000Y-103675000D02*
X149860000Y-102130000D01*
X137793604Y-82550000D02*
X139455305Y-82550000D01*
X140520000Y-90620000D02*
X139700000Y-91440000D01*
X133350000Y-86993604D02*
X137793604Y-82550000D01*
X142240000Y-97790000D02*
X144780000Y-100330000D01*
X152807500Y-106680000D02*
X152772500Y-106715000D01*
X133350000Y-101600000D02*
X133350000Y-86993604D01*
X140520000Y-83614695D02*
X140520000Y-90620000D01*
X152772500Y-106715000D02*
X148625000Y-106715000D01*
X148315000Y-106405000D02*
X148315000Y-103675000D01*
%TO.N,PA4*%
X145805012Y-123181153D02*
X145796165Y-123190000D01*
X145796165Y-123190000D02*
X142240000Y-123190000D01*
%TO.N,PA12*%
X151600000Y-122740000D02*
X159200000Y-122740000D01*
X160020000Y-96520000D02*
X157480000Y-96520000D01*
X160020000Y-121920000D02*
X160020000Y-96520000D01*
X159200000Y-122740000D02*
X160020000Y-121920000D01*
X150745000Y-120885000D02*
X150745000Y-121885000D01*
X150745000Y-121885000D02*
X151600000Y-122740000D01*
%TO.N,PA11*%
X157480000Y-118445305D02*
X157480000Y-97790000D01*
X156175000Y-119415000D02*
X156510305Y-119415000D01*
X155945000Y-120885000D02*
X155945000Y-119645000D01*
X156510305Y-119415000D02*
X157480000Y-118445305D01*
X155945000Y-119645000D02*
X156175000Y-119415000D01*
%TO.N,JNTRST*%
X140970000Y-80590000D02*
X131445000Y-71065000D01*
X131445000Y-64135000D02*
X151765000Y-64135000D01*
X144780000Y-103450000D02*
X140970000Y-99640000D01*
X151765000Y-64135000D02*
X154305000Y-66675000D01*
X140970000Y-99640000D02*
X140970000Y-80590000D01*
X131445000Y-71065000D02*
X131445000Y-64135000D01*
%TO.N,JTDI*%
X150680000Y-87760000D02*
X150680000Y-105170000D01*
X139700000Y-76780000D02*
X150680000Y-87760000D01*
X150680000Y-105170000D02*
X149860000Y-105990000D01*
%TO.N,JTMS{slash}SWDIO*%
X137890000Y-66188299D02*
X139028299Y-65050000D01*
X151580000Y-94254500D02*
X151854500Y-93980000D01*
X147320000Y-85425305D02*
X137890000Y-75995305D01*
X139028299Y-65050000D02*
X147600000Y-65050000D01*
X152434073Y-104953220D02*
X151580000Y-104099147D01*
X147320000Y-92710000D02*
X147320000Y-85425305D01*
X137890000Y-75995305D02*
X137890000Y-66188299D01*
X147600000Y-65050000D02*
X149225000Y-66675000D01*
X148590000Y-93980000D02*
X147320000Y-92710000D01*
X151580000Y-104099147D02*
X151580000Y-94254500D01*
%TO.N,JTCK{slash}SWCLK*%
X145320000Y-77320000D02*
X145320000Y-68040000D01*
X151130000Y-83130000D02*
X145320000Y-77320000D01*
X145320000Y-68040000D02*
X146685000Y-66675000D01*
X151130000Y-83130000D02*
X151130000Y-105990000D01*
%TO.N,JTDO*%
X145325958Y-79865958D02*
X147320000Y-81860000D01*
X146050000Y-86940000D02*
X146050000Y-103450000D01*
X143510000Y-84400000D02*
X146050000Y-86940000D01*
X144546054Y-79865958D02*
X145325958Y-79865958D01*
%TO.N,PA5*%
X130810000Y-119323604D02*
X130810000Y-97100000D01*
X135117208Y-121920000D02*
X135117208Y-124934493D01*
X135117208Y-124934493D02*
X132566701Y-127485000D01*
X129053299Y-120055000D02*
X130078604Y-120055000D01*
X129053299Y-122405000D02*
X128365000Y-121716701D01*
X130078604Y-120055000D02*
X130810000Y-119323604D01*
X128365000Y-121716701D02*
X128365000Y-120743299D01*
X130715000Y-126606701D02*
X130715000Y-123093299D01*
X130715000Y-123093299D02*
X130026701Y-122405000D01*
X132566701Y-127485000D02*
X131593299Y-127485000D01*
X130810000Y-97100000D02*
X129540000Y-95830000D01*
X131593299Y-127485000D02*
X130715000Y-126606701D01*
X143510000Y-121920000D02*
X135117208Y-121920000D01*
X128365000Y-120743299D02*
X129053299Y-120055000D01*
X130026701Y-122405000D02*
X129053299Y-122405000D01*
%TO.N,PA6*%
X135567208Y-122370000D02*
X135567208Y-125120889D01*
X135567208Y-125120889D02*
X132753097Y-127935000D01*
X132753097Y-127935000D02*
X130476701Y-127935000D01*
X130476701Y-127935000D02*
X130026701Y-127485000D01*
X127915000Y-99995000D02*
X129540000Y-98370000D01*
X144055000Y-122645000D02*
X143209695Y-122645000D01*
X143209695Y-122645000D02*
X142934695Y-122370000D01*
X142934695Y-122370000D02*
X135567208Y-122370000D01*
X130026701Y-127485000D02*
X129053299Y-127485000D01*
X144780000Y-121920000D02*
X144055000Y-122645000D01*
X127915000Y-126346701D02*
X127915000Y-99995000D01*
X129053299Y-127485000D02*
X127915000Y-126346701D01*
%TO.N,PB11*%
X147532652Y-122132652D02*
X147574000Y-122174000D01*
X147042557Y-122132652D02*
X147532652Y-122132652D01*
X147574000Y-122174000D02*
X147574000Y-122174000D01*
X148679905Y-123770000D02*
X161290000Y-123770000D01*
X147042557Y-122132652D02*
X148679905Y-123770000D01*
%TO.N,PB10*%
X159295000Y-124315000D02*
X161290000Y-126310000D01*
X148200304Y-124315000D02*
X159295000Y-124315000D01*
X147197652Y-123312348D02*
X148200304Y-124315000D01*
%TO.N,PB1*%
X161776701Y-122595000D02*
X162465000Y-123283299D01*
X162465000Y-127675000D02*
X161290000Y-128850000D01*
X160208299Y-123190000D02*
X160803299Y-122595000D01*
X148928250Y-122052500D02*
X150065750Y-123190000D01*
X162465000Y-123283299D02*
X162465000Y-127675000D01*
X160803299Y-122595000D02*
X161776701Y-122595000D01*
X150065750Y-123190000D02*
X160208299Y-123190000D01*
X148928250Y-120979646D02*
X148928250Y-122052500D01*
X148869101Y-120920497D02*
X148928250Y-120979646D01*
X144929500Y-120920497D02*
X148869101Y-120920497D01*
%TO.N,BOOT0*%
X143360305Y-112245000D02*
X144235000Y-111370305D01*
X132080000Y-119960000D02*
X139795000Y-112245000D01*
X139795000Y-112245000D02*
X143360305Y-112245000D01*
X144235000Y-110525000D02*
X143510000Y-109800000D01*
X144235000Y-111370305D02*
X144235000Y-110525000D01*
X132080000Y-124509500D02*
X132080000Y-119960000D01*
%TO.N,Net-(IC2-3V3OUT)*%
X156628250Y-131635750D02*
X157072500Y-132080000D01*
X156628250Y-127889000D02*
X156628250Y-131635750D01*
%TO.N,RESET*%
X132805000Y-126610305D02*
X132380305Y-127035000D01*
X147860000Y-66188299D02*
X147171701Y-65500000D01*
X154940000Y-85670000D02*
X147860000Y-78590000D01*
X132380305Y-127035000D02*
X131779695Y-127035000D01*
X143510000Y-103450000D02*
X144780000Y-104720000D01*
X140240000Y-65500000D02*
X139065000Y-66675000D01*
X132805000Y-119871396D02*
X132805000Y-126610305D01*
X131355000Y-116091800D02*
X135106800Y-112340000D01*
X147860000Y-78590000D02*
X147860000Y-66188299D01*
X143845000Y-112695000D02*
X139981396Y-112695000D01*
X144780000Y-111760000D02*
X143845000Y-112695000D01*
X139981396Y-112695000D02*
X132805000Y-119871396D01*
X131779695Y-127035000D02*
X131355000Y-126610305D01*
X131355000Y-126610305D02*
X131355000Y-116091800D01*
X135106800Y-112340000D02*
X137160000Y-112340000D01*
X147171701Y-65500000D02*
X140240000Y-65500000D01*
X144780000Y-104720000D02*
X144780000Y-111760000D01*
%TO.N,GND*%
X155760000Y-116600000D02*
X154940000Y-117420000D01*
X151395000Y-129805000D02*
X153670000Y-132080000D01*
X153345000Y-120885000D02*
X153345000Y-119705000D01*
X136435000Y-97245000D02*
X136435000Y-85815000D01*
X155347500Y-132080000D02*
X153670000Y-132080000D01*
X155945000Y-129805000D02*
X153670000Y-132080000D01*
X154940000Y-117420000D02*
X154731500Y-117420000D01*
X154109124Y-107510876D02*
X154532500Y-107087500D01*
X153895000Y-129076500D02*
X153895000Y-131855000D01*
X151395000Y-128060000D02*
X151395000Y-129805000D01*
X153995000Y-128035000D02*
X153995000Y-128976500D01*
X150241000Y-132080000D02*
X148902000Y-130741000D01*
X154532500Y-107087500D02*
X154532500Y-106680000D01*
X161290000Y-83130000D02*
X155760000Y-88660000D01*
X153945000Y-97107500D02*
X153945000Y-99525000D01*
X153995000Y-128976500D02*
X153895000Y-129076500D01*
X155760000Y-88660000D02*
X155760000Y-116600000D01*
X148902000Y-130741000D02*
X142944000Y-130741000D01*
X136435000Y-85815000D02*
X138430000Y-83820000D01*
X153945000Y-103675000D02*
X153945000Y-99525000D01*
X154731500Y-117420000D02*
X154151500Y-116840000D01*
X142944000Y-130741000D02*
X142240000Y-131445000D01*
X153945000Y-106092500D02*
X154532500Y-106680000D01*
X154532500Y-96520000D02*
X153945000Y-97107500D01*
X154940000Y-117420000D02*
X154940000Y-118690000D01*
X135722701Y-97957299D02*
X136435000Y-97245000D01*
X155945000Y-128035000D02*
X155945000Y-129805000D01*
X142205000Y-117475000D02*
X142218369Y-117461631D01*
X154360000Y-118690000D02*
X154940000Y-118690000D01*
X153895000Y-131855000D02*
X153670000Y-132080000D01*
X154109124Y-109595109D02*
X154109124Y-107510876D01*
X153345000Y-119705000D02*
X154360000Y-118690000D01*
X153945000Y-103675000D02*
X153945000Y-106092500D01*
%TO.N,5V*%
X148082000Y-131191000D02*
X148590000Y-131699000D01*
X144272000Y-131191000D02*
X148082000Y-131191000D01*
X143510000Y-131953000D02*
X144272000Y-131191000D01*
X154645000Y-129499000D02*
X154645000Y-128060000D01*
X154935701Y-129789701D02*
X154645000Y-129499000D01*
X156210000Y-90750000D02*
X156210000Y-118690000D01*
X154645000Y-128060000D02*
X155295000Y-128060000D01*
X156790000Y-125040000D02*
X156210000Y-125040000D01*
X158025500Y-130048000D02*
X158025500Y-129529500D01*
X161290000Y-85670000D02*
X156210000Y-90750000D01*
X148890305Y-112305000D02*
X148045000Y-112305000D01*
X152426500Y-115841195D02*
X148890305Y-112305000D01*
X158025500Y-129529500D02*
X158750000Y-128805000D01*
X158750000Y-127000000D02*
X156790000Y-125040000D01*
X152426500Y-116840000D02*
X152426500Y-115841195D01*
X158750000Y-128805000D02*
X158750000Y-127000000D01*
X148045000Y-112305000D02*
X147320000Y-113030000D01*
%TO.N,VCC3V3*%
X151257000Y-118999000D02*
X151428250Y-119170250D01*
X151428250Y-119170250D02*
X151428250Y-120865000D01*
%TO.N,VBAT*%
X137160000Y-86940000D02*
X138430000Y-88210000D01*
X138430000Y-88210000D02*
X138430000Y-107260000D01*
%TO.N,USBDP*%
X157928250Y-128990354D02*
X157226000Y-129692604D01*
X146439695Y-123915000D02*
X148289695Y-125765000D01*
X156735000Y-125765000D02*
X157895000Y-126925000D01*
X145505000Y-123915000D02*
X146439695Y-123915000D01*
X157226000Y-130900505D02*
X158242000Y-131916505D01*
X148289695Y-125765000D02*
X156735000Y-125765000D01*
X157895000Y-126925000D02*
X157895000Y-128035000D01*
X157928250Y-127889000D02*
X157928250Y-128990354D01*
X158242000Y-133223000D02*
X157861000Y-133604000D01*
X157226000Y-129692604D02*
X157226000Y-130900505D01*
X144526000Y-123952000D02*
X145468000Y-123952000D01*
X145468000Y-123952000D02*
X145505000Y-123915000D01*
X158242000Y-131916505D02*
X158242000Y-133223000D01*
%TO.N,USBDM*%
X148103299Y-126215000D02*
X146798299Y-124910000D01*
X146798299Y-124910000D02*
X145346000Y-124910000D01*
X145346000Y-124910000D02*
X145288000Y-124968000D01*
X157278250Y-126944646D02*
X156548604Y-126215000D01*
X157278250Y-127889000D02*
X157278250Y-126944646D01*
X156548604Y-126215000D02*
X148103299Y-126215000D01*
%TO.N,PA10{slash}USART1_RX*%
X146595000Y-118010000D02*
X146595000Y-115025000D01*
X146595000Y-115025000D02*
X148590000Y-113030000D01*
X149445000Y-120860000D02*
X146595000Y-118010000D01*
%TO.N,PA9{slash}USART1_TX*%
X152078250Y-118794945D02*
X151564000Y-118280695D01*
X152078250Y-120865000D02*
X152078250Y-118794945D01*
X151564000Y-117274000D02*
X148590000Y-114300000D01*
X151564000Y-118280695D02*
X151564000Y-117274000D01*
%TD*%
%TA.AperFunction,Conductor*%
%TO.N,GND*%
G36*
X129733039Y-128130185D02*
G01*
X129778794Y-128182989D01*
X129790000Y-128234500D01*
X129790000Y-128414498D01*
X129682315Y-128365320D01*
X129575763Y-128350000D01*
X129504237Y-128350000D01*
X129397685Y-128365320D01*
X129290000Y-128414498D01*
X129290000Y-128234500D01*
X129309685Y-128167461D01*
X129362489Y-128121706D01*
X129414000Y-128110500D01*
X129666000Y-128110500D01*
X129733039Y-128130185D01*
G37*
%TD.AperFunction*%
%TA.AperFunction,Conductor*%
G36*
X129397685Y-126794680D02*
G01*
X129504237Y-126810000D01*
X129575763Y-126810000D01*
X129682315Y-126794680D01*
X129786608Y-126747050D01*
X129770315Y-126802539D01*
X129717511Y-126848294D01*
X129666000Y-126859500D01*
X129414000Y-126859500D01*
X129346961Y-126839815D01*
X129301206Y-126787011D01*
X129292415Y-126746604D01*
X129397685Y-126794680D01*
G37*
%TD.AperFunction*%
%TA.AperFunction,Conductor*%
G36*
X147052151Y-103798514D02*
G01*
X147092680Y-103855428D01*
X147099500Y-103895985D01*
X147099500Y-105147870D01*
X147099501Y-105147876D01*
X147105908Y-105207483D01*
X147156202Y-105342328D01*
X147156206Y-105342335D01*
X147242452Y-105457544D01*
X147242455Y-105457547D01*
X147357664Y-105543793D01*
X147357671Y-105543797D01*
X147402618Y-105560561D01*
X147492517Y-105594091D01*
X147552127Y-105600500D01*
X147565496Y-105600499D01*
X147632533Y-105620180D01*
X147678291Y-105672981D01*
X147689500Y-105724499D01*
X147689500Y-106322255D01*
X147687775Y-106337872D01*
X147688061Y-106337899D01*
X147687326Y-106345665D01*
X147689500Y-106414814D01*
X147689500Y-106444343D01*
X147689501Y-106444360D01*
X147690368Y-106451231D01*
X147690826Y-106457050D01*
X147692290Y-106503624D01*
X147692291Y-106503627D01*
X147697880Y-106522867D01*
X147701824Y-106541911D01*
X147704336Y-106561791D01*
X147721490Y-106605119D01*
X147723382Y-106610647D01*
X147736381Y-106655388D01*
X147746580Y-106672634D01*
X147755138Y-106690103D01*
X147762514Y-106708732D01*
X147789898Y-106746423D01*
X147793106Y-106751307D01*
X147816827Y-106791416D01*
X147816833Y-106791424D01*
X147830990Y-106805580D01*
X147843628Y-106820376D01*
X147855405Y-106836586D01*
X147855406Y-106836587D01*
X147891308Y-106866287D01*
X147895619Y-106870209D01*
X148029040Y-107003630D01*
X148124194Y-107098784D01*
X148134017Y-107111045D01*
X148134239Y-107110863D01*
X148139212Y-107116875D01*
X148189637Y-107164228D01*
X148210523Y-107185115D01*
X148210527Y-107185118D01*
X148210529Y-107185120D01*
X148216011Y-107189373D01*
X148220443Y-107193157D01*
X148254418Y-107225062D01*
X148271976Y-107234714D01*
X148288235Y-107245395D01*
X148304064Y-107257673D01*
X148346838Y-107276182D01*
X148352056Y-107278738D01*
X148392908Y-107301197D01*
X148412316Y-107306180D01*
X148430717Y-107312480D01*
X148449104Y-107320437D01*
X148492488Y-107327308D01*
X148495119Y-107327725D01*
X148500839Y-107328909D01*
X148545981Y-107340500D01*
X148566016Y-107340500D01*
X148585414Y-107342026D01*
X148605194Y-107345159D01*
X148605195Y-107345160D01*
X148605195Y-107345159D01*
X148605196Y-107345160D01*
X148651584Y-107340775D01*
X148657422Y-107340500D01*
X149701771Y-107340500D01*
X149768810Y-107360185D01*
X149814565Y-107412989D01*
X149825091Y-107477459D01*
X149818140Y-107543600D01*
X149837926Y-107731856D01*
X149837927Y-107731859D01*
X149896418Y-107911877D01*
X149896421Y-107911884D01*
X149991067Y-108075816D01*
X150031879Y-108121142D01*
X150117729Y-108216488D01*
X150270865Y-108327748D01*
X150270870Y-108327751D01*
X150443792Y-108404742D01*
X150443797Y-108404744D01*
X150628954Y-108444100D01*
X150628955Y-108444100D01*
X150818244Y-108444100D01*
X150818246Y-108444100D01*
X151003403Y-108404744D01*
X151176330Y-108327751D01*
X151329471Y-108216488D01*
X151456133Y-108075816D01*
X151550779Y-107911884D01*
X151609274Y-107731856D01*
X151629060Y-107543600D01*
X151622108Y-107477459D01*
X151634677Y-107408732D01*
X151682409Y-107357708D01*
X151745429Y-107340500D01*
X151835448Y-107340500D01*
X151902487Y-107360185D01*
X151923129Y-107376819D01*
X151924660Y-107378350D01*
X152046650Y-107500340D01*
X152193484Y-107590908D01*
X152357247Y-107645174D01*
X152458323Y-107655500D01*
X153156676Y-107655499D01*
X153156684Y-107655498D01*
X153156687Y-107655498D01*
X153212030Y-107649844D01*
X153257753Y-107645174D01*
X153421516Y-107590908D01*
X153568350Y-107500340D01*
X153582671Y-107486018D01*
X153643989Y-107452533D01*
X153713681Y-107457514D01*
X153758034Y-107486017D01*
X153771961Y-107499944D01*
X153771965Y-107499947D01*
X153918688Y-107590448D01*
X153918699Y-107590453D01*
X154082347Y-107644680D01*
X154183351Y-107654999D01*
X154282500Y-107654998D01*
X154282500Y-106554000D01*
X154302185Y-106486961D01*
X154354989Y-106441206D01*
X154406500Y-106430000D01*
X154658500Y-106430000D01*
X154725539Y-106449685D01*
X154771294Y-106502489D01*
X154782500Y-106554000D01*
X154782500Y-107654999D01*
X154881640Y-107654999D01*
X154881654Y-107654998D01*
X154982652Y-107644680D01*
X155146300Y-107590453D01*
X155146311Y-107590448D01*
X155293034Y-107499947D01*
X155293038Y-107499944D01*
X155372819Y-107420164D01*
X155434142Y-107386679D01*
X155503834Y-107391663D01*
X155559767Y-107433535D01*
X155584184Y-107498999D01*
X155584500Y-107507845D01*
X155584500Y-117991312D01*
X155564815Y-118058351D01*
X155552650Y-118074284D01*
X155477466Y-118157784D01*
X155382821Y-118321715D01*
X155382818Y-118321722D01*
X155324327Y-118501740D01*
X155324326Y-118501744D01*
X155304540Y-118690000D01*
X155324326Y-118878256D01*
X155324327Y-118878259D01*
X155382818Y-119058277D01*
X155382821Y-119058284D01*
X155435447Y-119149435D01*
X155451920Y-119217336D01*
X155436719Y-119271177D01*
X155425284Y-119291975D01*
X155414610Y-119308226D01*
X155402329Y-119324061D01*
X155402324Y-119324068D01*
X155383815Y-119366838D01*
X155381245Y-119372084D01*
X155358802Y-119412909D01*
X155355932Y-119420159D01*
X155353651Y-119419256D01*
X155324086Y-119468897D01*
X155261554Y-119500067D01*
X155239744Y-119502000D01*
X155055381Y-119502000D01*
X155055369Y-119502001D01*
X155016503Y-119506179D01*
X154989998Y-119506179D01*
X154951124Y-119502000D01*
X154405380Y-119502000D01*
X154405369Y-119502001D01*
X154366503Y-119506179D01*
X154339998Y-119506179D01*
X154301124Y-119502000D01*
X153755382Y-119502000D01*
X153755367Y-119502001D01*
X153714154Y-119506431D01*
X153687652Y-119506431D01*
X153651084Y-119502500D01*
X153603250Y-119502500D01*
X153587638Y-119518111D01*
X153583565Y-119531985D01*
X153553563Y-119564210D01*
X153505226Y-119600396D01*
X153452561Y-119639821D01*
X153387096Y-119664238D01*
X153318823Y-119649386D01*
X153303939Y-119639821D01*
X153251274Y-119600396D01*
X153202937Y-119564211D01*
X153167138Y-119516388D01*
X153153250Y-119502500D01*
X153105415Y-119502500D01*
X153068848Y-119506431D01*
X153042342Y-119506431D01*
X153001125Y-119502000D01*
X153001123Y-119502000D01*
X152827750Y-119502000D01*
X152760711Y-119482315D01*
X152714956Y-119429511D01*
X152703750Y-119378000D01*
X152703750Y-118877682D01*
X152705474Y-118862068D01*
X152705188Y-118862041D01*
X152705922Y-118854278D01*
X152703750Y-118785148D01*
X152703750Y-118755596D01*
X152703750Y-118755595D01*
X152702879Y-118748704D01*
X152702422Y-118742890D01*
X152701812Y-118723479D01*
X152700959Y-118696318D01*
X152695371Y-118677084D01*
X152691424Y-118658026D01*
X152691422Y-118658007D01*
X152688914Y-118638153D01*
X152671757Y-118594820D01*
X152669864Y-118589291D01*
X152656868Y-118544559D01*
X152656867Y-118544555D01*
X152646670Y-118527313D01*
X152638113Y-118509847D01*
X152630736Y-118491213D01*
X152603333Y-118453495D01*
X152600150Y-118448650D01*
X152576420Y-118408524D01*
X152576415Y-118408518D01*
X152562255Y-118394358D01*
X152549620Y-118379565D01*
X152537843Y-118363357D01*
X152501943Y-118333658D01*
X152497631Y-118329735D01*
X152225819Y-118057923D01*
X152192334Y-117996600D01*
X152189500Y-117970242D01*
X152189500Y-117939499D01*
X152209185Y-117872460D01*
X152261989Y-117826705D01*
X152313500Y-117815499D01*
X152775670Y-117815499D01*
X152775676Y-117815499D01*
X152876753Y-117805174D01*
X153040516Y-117750908D01*
X153187350Y-117660340D01*
X153201671Y-117646018D01*
X153262989Y-117612533D01*
X153332681Y-117617514D01*
X153377034Y-117646017D01*
X153390961Y-117659944D01*
X153390965Y-117659947D01*
X153537688Y-117750448D01*
X153537699Y-117750453D01*
X153701347Y-117804680D01*
X153802351Y-117814999D01*
X153901500Y-117814998D01*
X153901500Y-117090000D01*
X154401500Y-117090000D01*
X154401500Y-117814999D01*
X154500640Y-117814999D01*
X154500654Y-117814998D01*
X154601652Y-117804680D01*
X154765300Y-117750453D01*
X154765311Y-117750448D01*
X154912034Y-117659947D01*
X154912038Y-117659944D01*
X155033944Y-117538038D01*
X155033947Y-117538034D01*
X155124448Y-117391311D01*
X155124453Y-117391300D01*
X155178680Y-117227652D01*
X155188999Y-117126654D01*
X155189000Y-117126641D01*
X155189000Y-117090000D01*
X154401500Y-117090000D01*
X153901500Y-117090000D01*
X153901500Y-115865000D01*
X154401500Y-115865000D01*
X154401500Y-116590000D01*
X155188999Y-116590000D01*
X155188999Y-116553360D01*
X155188998Y-116553345D01*
X155178680Y-116452347D01*
X155124453Y-116288699D01*
X155124448Y-116288688D01*
X155033947Y-116141965D01*
X155033944Y-116141961D01*
X154912038Y-116020055D01*
X154912034Y-116020052D01*
X154765311Y-115929551D01*
X154765300Y-115929546D01*
X154601652Y-115875319D01*
X154500654Y-115865000D01*
X154401500Y-115865000D01*
X153901500Y-115865000D01*
X153901500Y-115864999D01*
X153802360Y-115865000D01*
X153802344Y-115865001D01*
X153701347Y-115875319D01*
X153537699Y-115929546D01*
X153537688Y-115929551D01*
X153390965Y-116020052D01*
X153377032Y-116033985D01*
X153315708Y-116067468D01*
X153246016Y-116062482D01*
X153201672Y-116033982D01*
X153187351Y-116019661D01*
X153187350Y-116019660D01*
X153112103Y-115973247D01*
X153065381Y-115921301D01*
X153053264Y-115871606D01*
X153052000Y-115831380D01*
X153052000Y-115801845D01*
X153051131Y-115794967D01*
X153050672Y-115789138D01*
X153049209Y-115742567D01*
X153043622Y-115723339D01*
X153039674Y-115704279D01*
X153037163Y-115684399D01*
X153020012Y-115641082D01*
X153018119Y-115635553D01*
X153005118Y-115590804D01*
X153005116Y-115590801D01*
X152994923Y-115573566D01*
X152986361Y-115556089D01*
X152978987Y-115537465D01*
X152978986Y-115537463D01*
X152951579Y-115499740D01*
X152948388Y-115494881D01*
X152924672Y-115454778D01*
X152924665Y-115454769D01*
X152910506Y-115440610D01*
X152897868Y-115425814D01*
X152886094Y-115409608D01*
X152850188Y-115379904D01*
X152845876Y-115375981D01*
X149391108Y-111921212D01*
X149381285Y-111908950D01*
X149381064Y-111909134D01*
X149376091Y-111903123D01*
X149361982Y-111889874D01*
X149325669Y-111855773D01*
X149311724Y-111841828D01*
X149304780Y-111834883D01*
X149299291Y-111830625D01*
X149294866Y-111826847D01*
X149260887Y-111794938D01*
X149260885Y-111794936D01*
X149260882Y-111794935D01*
X149243334Y-111785288D01*
X149227068Y-111774604D01*
X149211241Y-111762327D01*
X149211240Y-111762326D01*
X149211238Y-111762325D01*
X149168473Y-111743818D01*
X149163227Y-111741248D01*
X149122398Y-111718803D01*
X149122397Y-111718802D01*
X149102998Y-111713822D01*
X149084586Y-111707518D01*
X149066203Y-111699562D01*
X149066197Y-111699560D01*
X149020179Y-111692272D01*
X149014457Y-111691087D01*
X148969326Y-111679500D01*
X148969324Y-111679500D01*
X148949289Y-111679500D01*
X148929891Y-111677973D01*
X148921089Y-111676579D01*
X148910110Y-111674840D01*
X148910109Y-111674840D01*
X148863721Y-111679225D01*
X148857883Y-111679500D01*
X148127743Y-111679500D01*
X148112122Y-111677775D01*
X148112096Y-111678061D01*
X148104334Y-111677327D01*
X148104333Y-111677327D01*
X148035186Y-111679500D01*
X148005649Y-111679500D01*
X147998766Y-111680369D01*
X147992949Y-111680826D01*
X147946373Y-111682290D01*
X147927129Y-111687881D01*
X147908079Y-111691825D01*
X147888211Y-111694334D01*
X147844884Y-111711488D01*
X147839358Y-111713379D01*
X147794614Y-111726379D01*
X147794610Y-111726381D01*
X147777366Y-111736579D01*
X147759905Y-111745133D01*
X147741274Y-111752510D01*
X147741262Y-111752517D01*
X147703570Y-111779902D01*
X147698687Y-111783109D01*
X147658580Y-111806829D01*
X147644414Y-111820995D01*
X147629624Y-111833627D01*
X147613414Y-111845404D01*
X147613411Y-111845407D01*
X147583710Y-111881309D01*
X147579777Y-111885631D01*
X147372227Y-112093182D01*
X147310907Y-112126666D01*
X147284548Y-112129500D01*
X147225354Y-112129500D01*
X147202946Y-112134263D01*
X147040197Y-112168855D01*
X147040192Y-112168857D01*
X146867270Y-112245848D01*
X146867265Y-112245851D01*
X146714129Y-112357111D01*
X146587466Y-112497785D01*
X146492821Y-112661715D01*
X146492818Y-112661722D01*
X146434327Y-112841740D01*
X146434326Y-112841744D01*
X146414540Y-113030000D01*
X146434326Y-113218256D01*
X146434327Y-113218259D01*
X146492818Y-113398277D01*
X146492821Y-113398284D01*
X146587467Y-113562216D01*
X146714129Y-113702888D01*
X146781082Y-113751532D01*
X146823747Y-113806862D01*
X146829726Y-113876476D01*
X146797120Y-113938271D01*
X146795877Y-113939531D01*
X146211208Y-114524199D01*
X146198951Y-114534020D01*
X146199134Y-114534241D01*
X146193123Y-114539213D01*
X146145772Y-114589636D01*
X146124889Y-114610519D01*
X146124877Y-114610532D01*
X146120621Y-114616017D01*
X146116837Y-114620447D01*
X146084937Y-114654418D01*
X146084936Y-114654420D01*
X146075284Y-114671976D01*
X146064610Y-114688226D01*
X146052329Y-114704061D01*
X146052324Y-114704068D01*
X146033815Y-114746838D01*
X146031245Y-114752084D01*
X146008803Y-114792906D01*
X146003822Y-114812307D01*
X145997521Y-114830710D01*
X145989562Y-114849102D01*
X145989561Y-114849105D01*
X145982271Y-114895127D01*
X145981087Y-114900846D01*
X145969501Y-114945972D01*
X145969500Y-114945982D01*
X145969500Y-114966016D01*
X145967973Y-114985415D01*
X145964840Y-115005194D01*
X145964840Y-115005195D01*
X145969225Y-115051583D01*
X145969500Y-115057421D01*
X145969500Y-117927255D01*
X145967775Y-117942872D01*
X145968061Y-117942899D01*
X145967326Y-117950665D01*
X145969500Y-118019814D01*
X145969500Y-118049343D01*
X145969501Y-118049360D01*
X145970368Y-118056231D01*
X145970826Y-118062050D01*
X145972290Y-118108624D01*
X145972291Y-118108627D01*
X145977880Y-118127867D01*
X145981824Y-118146911D01*
X145984336Y-118166792D01*
X146001490Y-118210119D01*
X146003382Y-118215647D01*
X146016381Y-118260388D01*
X146026580Y-118277634D01*
X146035138Y-118295103D01*
X146042514Y-118313732D01*
X146069898Y-118351423D01*
X146073106Y-118356307D01*
X146096827Y-118396416D01*
X146096833Y-118396424D01*
X146110990Y-118410580D01*
X146123627Y-118425375D01*
X146135406Y-118441587D01*
X146149823Y-118453514D01*
X146171309Y-118471288D01*
X146175620Y-118475210D01*
X146992385Y-119291975D01*
X147783726Y-120083316D01*
X147817211Y-120144639D01*
X147812227Y-120214331D01*
X147770355Y-120270264D01*
X147704891Y-120294681D01*
X147696045Y-120294997D01*
X145633248Y-120294997D01*
X145566209Y-120275312D01*
X145541100Y-120253971D01*
X145535373Y-120247611D01*
X145535369Y-120247607D01*
X145382234Y-120136348D01*
X145382229Y-120136345D01*
X145209307Y-120059354D01*
X145209302Y-120059352D01*
X145063501Y-120028362D01*
X145024146Y-120019997D01*
X144834854Y-120019997D01*
X144802397Y-120026895D01*
X144649697Y-120059352D01*
X144649692Y-120059354D01*
X144476770Y-120136345D01*
X144476765Y-120136348D01*
X144323629Y-120247608D01*
X144196966Y-120388282D01*
X144102321Y-120552212D01*
X144102318Y-120552219D01*
X144043827Y-120732237D01*
X144043826Y-120732241D01*
X144040242Y-120766344D01*
X144024040Y-120920497D01*
X144028345Y-120961461D01*
X144015775Y-121030191D01*
X143968042Y-121081214D01*
X143900301Y-121098331D01*
X143854588Y-121087700D01*
X143789807Y-121058857D01*
X143789802Y-121058855D01*
X143644001Y-121027865D01*
X143604646Y-121019500D01*
X143415354Y-121019500D01*
X143382897Y-121026398D01*
X143230197Y-121058855D01*
X143230192Y-121058857D01*
X143057270Y-121135848D01*
X143057265Y-121135851D01*
X142904130Y-121247110D01*
X142904126Y-121247114D01*
X142898400Y-121253474D01*
X142838913Y-121290121D01*
X142806252Y-121294500D01*
X135188055Y-121294500D01*
X135164823Y-121292304D01*
X135156796Y-121290773D01*
X135156794Y-121290773D01*
X135147841Y-121291336D01*
X135099483Y-121294378D01*
X135095611Y-121294500D01*
X135077851Y-121294500D01*
X135060240Y-121296725D01*
X135056372Y-121297090D01*
X135024583Y-121299090D01*
X134999067Y-121300696D01*
X134991293Y-121303222D01*
X134968528Y-121308310D01*
X134960426Y-121309333D01*
X134960413Y-121309337D01*
X134907018Y-121330477D01*
X134903362Y-121331792D01*
X134848767Y-121349533D01*
X134848764Y-121349534D01*
X134841860Y-121353915D01*
X134821088Y-121364499D01*
X134813481Y-121367511D01*
X134813470Y-121367517D01*
X134767022Y-121401263D01*
X134763803Y-121403451D01*
X134715331Y-121434213D01*
X134715328Y-121434216D01*
X134709737Y-121440170D01*
X134692237Y-121455599D01*
X134685621Y-121460405D01*
X134685620Y-121460406D01*
X134649020Y-121504646D01*
X134646446Y-121507565D01*
X134607145Y-121549417D01*
X134607143Y-121549420D01*
X134603202Y-121556589D01*
X134590097Y-121575873D01*
X134584885Y-121582173D01*
X134584882Y-121582178D01*
X134560439Y-121634121D01*
X134558672Y-121637589D01*
X134531012Y-121687903D01*
X134531011Y-121687908D01*
X134528977Y-121695828D01*
X134521078Y-121717768D01*
X134517594Y-121725172D01*
X134517592Y-121725178D01*
X134506837Y-121781561D01*
X134505987Y-121785361D01*
X134491708Y-121840976D01*
X134491708Y-121849152D01*
X134489513Y-121872379D01*
X134487981Y-121880412D01*
X134491586Y-121937724D01*
X134491708Y-121941595D01*
X134491708Y-124624040D01*
X134472023Y-124691079D01*
X134455389Y-124711721D01*
X133642181Y-125524929D01*
X133580858Y-125558414D01*
X133511166Y-125553430D01*
X133455233Y-125511558D01*
X133430816Y-125446094D01*
X133430500Y-125437248D01*
X133430500Y-123294779D01*
X133450185Y-123227740D01*
X133462350Y-123211807D01*
X133475878Y-123196783D01*
X133574533Y-123087216D01*
X133669179Y-122923284D01*
X133727674Y-122743256D01*
X133747460Y-122555000D01*
X133727674Y-122366744D01*
X133669179Y-122186716D01*
X133574533Y-122022784D01*
X133481986Y-121920000D01*
X133462350Y-121898192D01*
X133432120Y-121835201D01*
X133430500Y-121815220D01*
X133430500Y-120181848D01*
X133450185Y-120114809D01*
X133466819Y-120094167D01*
X136085986Y-117475000D01*
X142604540Y-117475000D01*
X142624326Y-117663256D01*
X142624327Y-117663259D01*
X142682818Y-117843277D01*
X142682821Y-117843284D01*
X142777467Y-118007216D01*
X142868778Y-118108627D01*
X142904129Y-118147888D01*
X143057265Y-118259148D01*
X143057270Y-118259151D01*
X143230192Y-118336142D01*
X143230197Y-118336144D01*
X143415354Y-118375500D01*
X143415355Y-118375500D01*
X143604644Y-118375500D01*
X143604646Y-118375500D01*
X143789803Y-118336144D01*
X143962730Y-118259151D01*
X144115871Y-118147888D01*
X144242533Y-118007216D01*
X144337179Y-117843284D01*
X144395674Y-117663256D01*
X144415460Y-117475000D01*
X144395674Y-117286744D01*
X144337179Y-117106716D01*
X144242533Y-116942784D01*
X144115871Y-116802112D01*
X144036579Y-116744503D01*
X143993915Y-116689174D01*
X143987936Y-116619561D01*
X144020542Y-116557766D01*
X144081381Y-116523408D01*
X144122440Y-116520867D01*
X144126552Y-116521299D01*
X144126554Y-116521300D01*
X144126556Y-116521300D01*
X144315844Y-116521300D01*
X144315846Y-116521300D01*
X144501003Y-116481944D01*
X144673930Y-116404951D01*
X144827071Y-116293688D01*
X144953733Y-116153016D01*
X145048379Y-115989084D01*
X145106874Y-115809056D01*
X145126660Y-115620800D01*
X145106874Y-115432544D01*
X145048379Y-115252516D01*
X144953733Y-115088584D01*
X144827071Y-114947912D01*
X144824415Y-114945982D01*
X144673934Y-114836651D01*
X144673929Y-114836648D01*
X144501007Y-114759657D01*
X144501002Y-114759655D01*
X144355201Y-114728665D01*
X144315846Y-114720300D01*
X144126554Y-114720300D01*
X144094097Y-114727198D01*
X143941397Y-114759655D01*
X143941392Y-114759657D01*
X143768470Y-114836648D01*
X143768465Y-114836651D01*
X143615329Y-114947911D01*
X143488666Y-115088585D01*
X143394021Y-115252515D01*
X143394018Y-115252522D01*
X143335527Y-115432540D01*
X143335526Y-115432544D01*
X143315740Y-115620800D01*
X143335526Y-115809056D01*
X143335527Y-115809059D01*
X143394018Y-115989077D01*
X143394021Y-115989084D01*
X143488667Y-116153016D01*
X143605083Y-116282309D01*
X143615329Y-116293688D01*
X143694618Y-116351295D01*
X143737284Y-116406625D01*
X143743263Y-116476238D01*
X143710657Y-116538033D01*
X143649819Y-116572390D01*
X143608770Y-116574934D01*
X143604650Y-116574501D01*
X143604646Y-116574500D01*
X143415354Y-116574500D01*
X143382897Y-116581398D01*
X143230197Y-116613855D01*
X143230192Y-116613857D01*
X143057270Y-116690848D01*
X143057265Y-116690851D01*
X142904129Y-116802111D01*
X142777466Y-116942785D01*
X142682821Y-117106715D01*
X142682818Y-117106722D01*
X142624327Y-117286740D01*
X142624326Y-117286744D01*
X142604540Y-117475000D01*
X136085986Y-117475000D01*
X140204167Y-113356819D01*
X140265490Y-113323334D01*
X140291848Y-113320500D01*
X143762257Y-113320500D01*
X143777877Y-113322224D01*
X143777904Y-113321939D01*
X143785660Y-113322671D01*
X143785667Y-113322673D01*
X143854814Y-113320500D01*
X143884350Y-113320500D01*
X143891228Y-113319630D01*
X143897041Y-113319172D01*
X143943627Y-113317709D01*
X143962869Y-113312117D01*
X143981912Y-113308174D01*
X144001792Y-113305664D01*
X144045122Y-113288507D01*
X144050646Y-113286617D01*
X144054396Y-113285527D01*
X144095390Y-113273618D01*
X144112629Y-113263422D01*
X144130103Y-113254862D01*
X144148727Y-113247488D01*
X144148727Y-113247487D01*
X144148732Y-113247486D01*
X144186449Y-113220082D01*
X144191305Y-113216892D01*
X144231420Y-113193170D01*
X144245589Y-113178999D01*
X144260379Y-113166368D01*
X144276587Y-113154594D01*
X144306299Y-113118676D01*
X144310212Y-113114376D01*
X145163786Y-112260802D01*
X145176048Y-112250980D01*
X145175865Y-112250759D01*
X145181867Y-112245792D01*
X145181877Y-112245786D01*
X145229241Y-112195348D01*
X145250120Y-112174470D01*
X145254373Y-112168986D01*
X145258150Y-112164563D01*
X145290062Y-112130582D01*
X145299714Y-112113023D01*
X145310389Y-112096772D01*
X145322674Y-112080936D01*
X145341186Y-112038152D01*
X145343742Y-112032935D01*
X145366197Y-111992092D01*
X145371180Y-111972680D01*
X145377477Y-111954291D01*
X145385438Y-111935895D01*
X145392729Y-111889853D01*
X145393908Y-111884162D01*
X145405500Y-111839019D01*
X145405500Y-111818983D01*
X145407027Y-111799582D01*
X145410160Y-111779804D01*
X145405775Y-111733415D01*
X145405500Y-111727577D01*
X145405500Y-104802737D01*
X145407224Y-104787123D01*
X145406938Y-104787096D01*
X145407672Y-104779333D01*
X145405500Y-104710203D01*
X145405500Y-104680651D01*
X145405500Y-104680650D01*
X145404629Y-104673759D01*
X145404172Y-104667945D01*
X145402709Y-104621372D01*
X145397122Y-104602144D01*
X145393174Y-104583084D01*
X145390664Y-104563208D01*
X145373507Y-104519875D01*
X145371619Y-104514359D01*
X145358619Y-104469612D01*
X145348418Y-104452363D01*
X145339860Y-104434894D01*
X145332486Y-104416268D01*
X145332483Y-104416264D01*
X145332483Y-104416263D01*
X145305099Y-104378572D01*
X145301891Y-104373688D01*
X145288177Y-104350500D01*
X145280820Y-104338060D01*
X145263636Y-104270340D01*
X145285794Y-104204076D01*
X145314661Y-104174624D01*
X145342117Y-104154676D01*
X145407921Y-104131198D01*
X145475975Y-104147023D01*
X145487871Y-104154668D01*
X145597266Y-104234148D01*
X145597270Y-104234151D01*
X145770192Y-104311142D01*
X145770197Y-104311144D01*
X145955354Y-104350500D01*
X145955355Y-104350500D01*
X146144644Y-104350500D01*
X146144646Y-104350500D01*
X146329803Y-104311144D01*
X146502730Y-104234151D01*
X146655871Y-104122888D01*
X146782533Y-103982216D01*
X146868115Y-103833982D01*
X146918679Y-103785770D01*
X146987286Y-103772546D01*
X147052151Y-103798514D01*
G37*
%TD.AperFunction*%
%TA.AperFunction,Conductor*%
G36*
X147808387Y-114798714D02*
G01*
X147857204Y-114831924D01*
X147984129Y-114972888D01*
X148137265Y-115084148D01*
X148137270Y-115084151D01*
X148310192Y-115161142D01*
X148310197Y-115161144D01*
X148495354Y-115200500D01*
X148554548Y-115200500D01*
X148621587Y-115220185D01*
X148642229Y-115236819D01*
X150902181Y-117496771D01*
X150935666Y-117558094D01*
X150938500Y-117584452D01*
X150938500Y-118074559D01*
X150918815Y-118141598D01*
X150866011Y-118187353D01*
X150864936Y-118187838D01*
X150804269Y-118214848D01*
X150651129Y-118326111D01*
X150524466Y-118466785D01*
X150429821Y-118630715D01*
X150429818Y-118630722D01*
X150371327Y-118810740D01*
X150371326Y-118810744D01*
X150351540Y-118999000D01*
X150371326Y-119187256D01*
X150371327Y-119187259D01*
X150420852Y-119339682D01*
X150422847Y-119409523D01*
X150386767Y-119469356D01*
X150324066Y-119500184D01*
X150302921Y-119502000D01*
X149855380Y-119502000D01*
X149855369Y-119502001D01*
X149816503Y-119506179D01*
X149789998Y-119506179D01*
X149751124Y-119502000D01*
X149205379Y-119502000D01*
X149205373Y-119502001D01*
X149145768Y-119508408D01*
X149098237Y-119526136D01*
X149028546Y-119531119D01*
X148967225Y-119497634D01*
X147256819Y-117787228D01*
X147223334Y-117725905D01*
X147220500Y-117699547D01*
X147220500Y-115335451D01*
X147240185Y-115268412D01*
X147256815Y-115247774D01*
X147677375Y-114827213D01*
X147738696Y-114793730D01*
X147808387Y-114798714D01*
G37*
%TD.AperFunction*%
%TA.AperFunction,Conductor*%
G36*
X155503834Y-97231663D02*
G01*
X155559767Y-97273535D01*
X155584184Y-97338999D01*
X155584500Y-97347845D01*
X155584500Y-105852155D01*
X155564815Y-105919194D01*
X155512011Y-105964949D01*
X155442853Y-105974893D01*
X155379297Y-105945868D01*
X155372819Y-105939836D01*
X155293038Y-105860055D01*
X155293034Y-105860052D01*
X155146311Y-105769551D01*
X155146300Y-105769546D01*
X154992955Y-105718733D01*
X154935510Y-105678960D01*
X154908687Y-105614445D01*
X154921002Y-105545669D01*
X154957649Y-105501760D01*
X155017189Y-105457188D01*
X155017190Y-105457187D01*
X155103350Y-105342093D01*
X155103354Y-105342086D01*
X155153596Y-105207379D01*
X155153598Y-105207372D01*
X155159999Y-105147844D01*
X155160000Y-105147827D01*
X155160000Y-103925000D01*
X152730000Y-103925000D01*
X152730000Y-103942376D01*
X152710315Y-104009415D01*
X152657511Y-104055170D01*
X152588353Y-104065114D01*
X152580221Y-104063667D01*
X152528719Y-104052720D01*
X152528716Y-104052720D01*
X152469526Y-104052720D01*
X152402487Y-104033035D01*
X152381845Y-104016401D01*
X152241819Y-103876375D01*
X152208334Y-103815052D01*
X152205500Y-103788694D01*
X152205500Y-103425000D01*
X152730000Y-103425000D01*
X153695000Y-103425000D01*
X153695000Y-101750000D01*
X154195000Y-101750000D01*
X154195000Y-103425000D01*
X155160000Y-103425000D01*
X155160000Y-102202172D01*
X155159999Y-102202155D01*
X155153598Y-102142627D01*
X155153596Y-102142620D01*
X155103354Y-102007913D01*
X155103350Y-102007906D01*
X155017190Y-101892812D01*
X155017187Y-101892809D01*
X154902093Y-101806649D01*
X154902086Y-101806645D01*
X154767379Y-101756403D01*
X154767372Y-101756401D01*
X154707844Y-101750000D01*
X154195000Y-101750000D01*
X153695000Y-101750000D01*
X153182155Y-101750000D01*
X153122627Y-101756401D01*
X153122620Y-101756403D01*
X152987913Y-101806645D01*
X152987906Y-101806649D01*
X152872812Y-101892809D01*
X152872809Y-101892812D01*
X152786649Y-102007906D01*
X152786645Y-102007913D01*
X152736403Y-102142620D01*
X152736401Y-102142627D01*
X152730000Y-102202155D01*
X152730000Y-103425000D01*
X152205500Y-103425000D01*
X152205500Y-99775000D01*
X152730000Y-99775000D01*
X152730000Y-100997844D01*
X152736401Y-101057372D01*
X152736403Y-101057379D01*
X152786645Y-101192086D01*
X152786649Y-101192093D01*
X152872809Y-101307187D01*
X152872812Y-101307190D01*
X152987906Y-101393350D01*
X152987913Y-101393354D01*
X153122620Y-101443596D01*
X153122627Y-101443598D01*
X153182155Y-101449999D01*
X153182172Y-101450000D01*
X153695000Y-101450000D01*
X153695000Y-99775000D01*
X154195000Y-99775000D01*
X154195000Y-101450000D01*
X154707828Y-101450000D01*
X154707844Y-101449999D01*
X154767372Y-101443598D01*
X154767379Y-101443596D01*
X154902086Y-101393354D01*
X154902093Y-101393350D01*
X155017187Y-101307190D01*
X155017190Y-101307187D01*
X155103350Y-101192093D01*
X155103354Y-101192086D01*
X155153596Y-101057379D01*
X155153598Y-101057372D01*
X155159999Y-100997844D01*
X155160000Y-100997827D01*
X155160000Y-99775000D01*
X154195000Y-99775000D01*
X153695000Y-99775000D01*
X152730000Y-99775000D01*
X152205500Y-99775000D01*
X152205500Y-97606043D01*
X152225185Y-97539004D01*
X152277989Y-97493249D01*
X152347147Y-97483305D01*
X152355469Y-97484793D01*
X152357241Y-97485172D01*
X152357247Y-97485174D01*
X152458323Y-97495500D01*
X152830620Y-97495499D01*
X152897658Y-97515183D01*
X152943413Y-97567987D01*
X152953357Y-97637146D01*
X152924332Y-97700701D01*
X152904932Y-97718764D01*
X152872811Y-97742810D01*
X152872809Y-97742812D01*
X152786649Y-97857906D01*
X152786645Y-97857913D01*
X152736403Y-97992620D01*
X152736401Y-97992627D01*
X152730000Y-98052155D01*
X152730000Y-99275000D01*
X155160000Y-99275000D01*
X155160000Y-98052172D01*
X155159999Y-98052155D01*
X155153598Y-97992627D01*
X155153596Y-97992620D01*
X155103354Y-97857913D01*
X155103350Y-97857906D01*
X155017190Y-97742812D01*
X155017187Y-97742809D01*
X154957648Y-97698238D01*
X154915777Y-97642305D01*
X154910793Y-97572613D01*
X154944279Y-97511290D01*
X154992956Y-97481266D01*
X155146298Y-97430454D01*
X155146311Y-97430448D01*
X155293034Y-97339947D01*
X155293038Y-97339944D01*
X155372819Y-97260164D01*
X155434142Y-97226679D01*
X155503834Y-97231663D01*
G37*
%TD.AperFunction*%
%TA.AperFunction,Conductor*%
G36*
X153823378Y-105619685D02*
G01*
X153869133Y-105672489D01*
X153879077Y-105741647D01*
X153850052Y-105805203D01*
X153821437Y-105829538D01*
X153771963Y-105860053D01*
X153758032Y-105873985D01*
X153696708Y-105907468D01*
X153627016Y-105902482D01*
X153582672Y-105873982D01*
X153568351Y-105859661D01*
X153568350Y-105859660D01*
X153519513Y-105829537D01*
X153472791Y-105777591D01*
X153461568Y-105708629D01*
X153489412Y-105644546D01*
X153547480Y-105605690D01*
X153584612Y-105600000D01*
X153756339Y-105600000D01*
X153823378Y-105619685D01*
G37*
%TD.AperFunction*%
%TA.AperFunction,Conductor*%
G36*
X153713681Y-97297514D02*
G01*
X153758034Y-97326017D01*
X153771962Y-97339945D01*
X153821437Y-97370462D01*
X153868161Y-97422410D01*
X153879382Y-97491373D01*
X153851538Y-97555455D01*
X153793469Y-97594310D01*
X153756339Y-97600000D01*
X153584612Y-97600000D01*
X153517573Y-97580315D01*
X153471818Y-97527511D01*
X153461874Y-97458353D01*
X153490899Y-97394797D01*
X153519514Y-97370462D01*
X153568350Y-97340340D01*
X153582671Y-97326018D01*
X153643989Y-97292533D01*
X153713681Y-97297514D01*
G37*
%TD.AperFunction*%
%TA.AperFunction,Conductor*%
G36*
X143685507Y-69424844D02*
G01*
X143763239Y-69545798D01*
X143871900Y-69639952D01*
X144002685Y-69699680D01*
X144012464Y-69701086D01*
X143383625Y-70329925D01*
X143467421Y-70388599D01*
X143681507Y-70488429D01*
X143681516Y-70488433D01*
X143909673Y-70549567D01*
X143909684Y-70549569D01*
X144144998Y-70570157D01*
X144145002Y-70570157D01*
X144380315Y-70549569D01*
X144380325Y-70549567D01*
X144538407Y-70507210D01*
X144608256Y-70508873D01*
X144666119Y-70548035D01*
X144693623Y-70612264D01*
X144694500Y-70626985D01*
X144694500Y-77237255D01*
X144692775Y-77252872D01*
X144693061Y-77252899D01*
X144692326Y-77260665D01*
X144694500Y-77329814D01*
X144694500Y-77359343D01*
X144694501Y-77359360D01*
X144695368Y-77366231D01*
X144695826Y-77372050D01*
X144697290Y-77418624D01*
X144697291Y-77418627D01*
X144702880Y-77437867D01*
X144706824Y-77456911D01*
X144709336Y-77476791D01*
X144726490Y-77520119D01*
X144728382Y-77525647D01*
X144741381Y-77570388D01*
X144751580Y-77587634D01*
X144760138Y-77605103D01*
X144767514Y-77623732D01*
X144794898Y-77661423D01*
X144798106Y-77666307D01*
X144821827Y-77706416D01*
X144821833Y-77706424D01*
X144835990Y-77720580D01*
X144848628Y-77735376D01*
X144860405Y-77751586D01*
X144860406Y-77751587D01*
X144896309Y-77781288D01*
X144900620Y-77785210D01*
X147700973Y-80585563D01*
X150468181Y-83352771D01*
X150501666Y-83414094D01*
X150504500Y-83440452D01*
X150504500Y-86400547D01*
X150484815Y-86467586D01*
X150432011Y-86513341D01*
X150362853Y-86523285D01*
X150299297Y-86494260D01*
X150292819Y-86488228D01*
X144744747Y-80940156D01*
X144711262Y-80878833D01*
X144716246Y-80809141D01*
X144758118Y-80753208D01*
X144806645Y-80731185D01*
X144825857Y-80727102D01*
X144998784Y-80650109D01*
X145044428Y-80616946D01*
X145110230Y-80593466D01*
X145178284Y-80609290D01*
X145204993Y-80629583D01*
X146381038Y-81805629D01*
X146414523Y-81866952D01*
X146416678Y-81880348D01*
X146423970Y-81949725D01*
X146434326Y-82048256D01*
X146434327Y-82048259D01*
X146492818Y-82228277D01*
X146492821Y-82228284D01*
X146587467Y-82392216D01*
X146641677Y-82452422D01*
X146714129Y-82532888D01*
X146867265Y-82644148D01*
X146867270Y-82644151D01*
X147040192Y-82721142D01*
X147040197Y-82721144D01*
X147225354Y-82760500D01*
X147225355Y-82760500D01*
X147414644Y-82760500D01*
X147414646Y-82760500D01*
X147599803Y-82721144D01*
X147772730Y-82644151D01*
X147925871Y-82532888D01*
X148052533Y-82392216D01*
X148147179Y-82228284D01*
X148205674Y-82048256D01*
X148225460Y-81860000D01*
X148205674Y-81671744D01*
X148147179Y-81491716D01*
X148052533Y-81327784D01*
X147925871Y-81187112D01*
X147925870Y-81187111D01*
X147772734Y-81075851D01*
X147772729Y-81075848D01*
X147599807Y-80998857D01*
X147599802Y-80998855D01*
X147454001Y-80967865D01*
X147414646Y-80959500D01*
X147414645Y-80959500D01*
X147355453Y-80959500D01*
X147288414Y-80939815D01*
X147267772Y-80923181D01*
X145826761Y-79482170D01*
X145816938Y-79469908D01*
X145816717Y-79470092D01*
X145811744Y-79464081D01*
X145761322Y-79416731D01*
X145750877Y-79406286D01*
X145740433Y-79395841D01*
X145734944Y-79391583D01*
X145730519Y-79387805D01*
X145696540Y-79355896D01*
X145696538Y-79355894D01*
X145696535Y-79355893D01*
X145678987Y-79346246D01*
X145662721Y-79335562D01*
X145646891Y-79323283D01*
X145604126Y-79304776D01*
X145598880Y-79302206D01*
X145558051Y-79279761D01*
X145558050Y-79279760D01*
X145538651Y-79274780D01*
X145520239Y-79268476D01*
X145501856Y-79260520D01*
X145501850Y-79260518D01*
X145455832Y-79253230D01*
X145450110Y-79252045D01*
X145404979Y-79240458D01*
X145404977Y-79240458D01*
X145384942Y-79240458D01*
X145365544Y-79238931D01*
X145358120Y-79237755D01*
X145345763Y-79235798D01*
X145345762Y-79235798D01*
X145299374Y-79240183D01*
X145293536Y-79240458D01*
X145249802Y-79240458D01*
X145182763Y-79220773D01*
X145157654Y-79199432D01*
X145151927Y-79193072D01*
X145151923Y-79193068D01*
X144998788Y-79081809D01*
X144998783Y-79081806D01*
X144825861Y-79004815D01*
X144825856Y-79004813D01*
X144680055Y-78973823D01*
X144640700Y-78965458D01*
X144451408Y-78965458D01*
X144418951Y-78972356D01*
X144266251Y-79004813D01*
X144266246Y-79004815D01*
X144093324Y-79081806D01*
X144093319Y-79081809D01*
X143940183Y-79193069D01*
X143813520Y-79333743D01*
X143718875Y-79497673D01*
X143718873Y-79497677D01*
X143679235Y-79619671D01*
X143639797Y-79677346D01*
X143575438Y-79704544D01*
X143506592Y-79692629D01*
X143473623Y-79669033D01*
X142110495Y-78305905D01*
X140638960Y-76834369D01*
X140605475Y-76773046D01*
X140603323Y-76759668D01*
X140585674Y-76591744D01*
X140527179Y-76411716D01*
X140432533Y-76247784D01*
X140305871Y-76107112D01*
X140305870Y-76107111D01*
X140152734Y-75995851D01*
X140152729Y-75995848D01*
X139979807Y-75918857D01*
X139979802Y-75918855D01*
X139834001Y-75887865D01*
X139794646Y-75879500D01*
X139605354Y-75879500D01*
X139572897Y-75886398D01*
X139420197Y-75918855D01*
X139420192Y-75918857D01*
X139247270Y-75995848D01*
X139247265Y-75995851D01*
X139094131Y-76107110D01*
X139094128Y-76107112D01*
X139083140Y-76119316D01*
X139023653Y-76155964D01*
X138953796Y-76154633D01*
X138903310Y-76124024D01*
X138551819Y-75772533D01*
X138518334Y-75711210D01*
X138515500Y-75684852D01*
X138515500Y-70626985D01*
X138535185Y-70559946D01*
X138587989Y-70514191D01*
X138657147Y-70504247D01*
X138671593Y-70507210D01*
X138829674Y-70549567D01*
X138829684Y-70549569D01*
X139064998Y-70570157D01*
X139065002Y-70570157D01*
X139300315Y-70549569D01*
X139300326Y-70549567D01*
X139528483Y-70488433D01*
X139528492Y-70488429D01*
X139742578Y-70388600D01*
X139742582Y-70388598D01*
X139826373Y-70329926D01*
X139826373Y-70329925D01*
X139197534Y-69701086D01*
X139207315Y-69699680D01*
X139338100Y-69639952D01*
X139446761Y-69545798D01*
X139524493Y-69424844D01*
X139548076Y-69344524D01*
X140179925Y-69976373D01*
X140233425Y-69899968D01*
X140288002Y-69856344D01*
X140357501Y-69849151D01*
X140419855Y-69880673D01*
X140436576Y-69899969D01*
X140490073Y-69976372D01*
X141121922Y-69344523D01*
X141145507Y-69424844D01*
X141223239Y-69545798D01*
X141331900Y-69639952D01*
X141462685Y-69699680D01*
X141472466Y-69701086D01*
X140843625Y-70329925D01*
X140927421Y-70388599D01*
X141141507Y-70488429D01*
X141141516Y-70488433D01*
X141369673Y-70549567D01*
X141369684Y-70549569D01*
X141604998Y-70570157D01*
X141605002Y-70570157D01*
X141840315Y-70549569D01*
X141840326Y-70549567D01*
X142068483Y-70488433D01*
X142068492Y-70488429D01*
X142282578Y-70388600D01*
X142282582Y-70388598D01*
X142366373Y-70329926D01*
X142366373Y-70329925D01*
X141737533Y-69701086D01*
X141747315Y-69699680D01*
X141878100Y-69639952D01*
X141986761Y-69545798D01*
X142064493Y-69424844D01*
X142088076Y-69344524D01*
X142719925Y-69976373D01*
X142773425Y-69899968D01*
X142828002Y-69856344D01*
X142897501Y-69849151D01*
X142959855Y-69880673D01*
X142976576Y-69899969D01*
X143030073Y-69976372D01*
X143661922Y-69344523D01*
X143685507Y-69424844D01*
G37*
%TD.AperFunction*%
%TA.AperFunction,Conductor*%
G36*
X138200886Y-64780185D02*
G01*
X138246641Y-64832989D01*
X138256585Y-64902147D01*
X138227560Y-64965703D01*
X138221528Y-64972181D01*
X137564180Y-65629526D01*
X137502857Y-65663011D01*
X137433165Y-65658027D01*
X137401045Y-65639310D01*
X137400836Y-65639610D01*
X137397247Y-65637097D01*
X137396787Y-65636829D01*
X137396397Y-65636502D01*
X137202834Y-65500967D01*
X137202830Y-65500965D01*
X137162777Y-65482288D01*
X136988663Y-65401097D01*
X136988659Y-65401096D01*
X136988655Y-65401094D01*
X136760413Y-65339938D01*
X136760403Y-65339936D01*
X136525001Y-65319341D01*
X136524999Y-65319341D01*
X136289596Y-65339936D01*
X136289586Y-65339938D01*
X136061344Y-65401094D01*
X136061335Y-65401098D01*
X135847171Y-65500964D01*
X135847169Y-65500965D01*
X135653597Y-65636505D01*
X135486505Y-65803597D01*
X135356575Y-65989158D01*
X135301998Y-66032783D01*
X135232500Y-66039977D01*
X135170145Y-66008454D01*
X135153425Y-65989158D01*
X135023494Y-65803597D01*
X134856402Y-65636506D01*
X134856396Y-65636502D01*
X134813324Y-65606342D01*
X134662834Y-65500967D01*
X134662830Y-65500965D01*
X134622777Y-65482288D01*
X134448663Y-65401097D01*
X134448659Y-65401096D01*
X134448655Y-65401094D01*
X134220413Y-65339938D01*
X134220403Y-65339936D01*
X133985001Y-65319341D01*
X133984999Y-65319341D01*
X133749596Y-65339936D01*
X133749586Y-65339938D01*
X133521344Y-65401094D01*
X133521335Y-65401098D01*
X133307171Y-65500964D01*
X133307169Y-65500965D01*
X133113597Y-65636505D01*
X132946505Y-65803597D01*
X132810965Y-65997169D01*
X132810964Y-65997171D01*
X132711098Y-66211335D01*
X132711094Y-66211344D01*
X132649938Y-66439586D01*
X132649936Y-66439596D01*
X132629341Y-66674999D01*
X132629341Y-66675000D01*
X132649936Y-66910403D01*
X132649938Y-66910413D01*
X132711094Y-67138655D01*
X132711096Y-67138659D01*
X132711097Y-67138663D01*
X132715000Y-67147032D01*
X132810965Y-67352830D01*
X132810967Y-67352834D01*
X132917670Y-67505220D01*
X132946505Y-67546401D01*
X133113599Y-67713495D01*
X133245500Y-67805853D01*
X133299594Y-67843730D01*
X133343218Y-67898307D01*
X133350411Y-67967806D01*
X133318889Y-68030160D01*
X133299593Y-68046880D01*
X133223626Y-68100072D01*
X133223625Y-68100072D01*
X133852466Y-68728913D01*
X133842685Y-68730320D01*
X133711900Y-68790048D01*
X133603239Y-68884202D01*
X133525507Y-69005156D01*
X133501923Y-69085475D01*
X132870073Y-68453625D01*
X132870072Y-68453625D01*
X132811401Y-68537419D01*
X132711570Y-68751507D01*
X132711566Y-68751516D01*
X132650432Y-68979673D01*
X132650430Y-68979684D01*
X132629843Y-69214998D01*
X132629843Y-69215001D01*
X132650430Y-69450315D01*
X132650432Y-69450326D01*
X132711566Y-69678483D01*
X132711570Y-69678492D01*
X132811400Y-69892579D01*
X132811402Y-69892583D01*
X132870072Y-69976373D01*
X132870073Y-69976373D01*
X133501923Y-69344523D01*
X133525507Y-69424844D01*
X133603239Y-69545798D01*
X133711900Y-69639952D01*
X133842685Y-69699680D01*
X133852466Y-69701086D01*
X133223625Y-70329925D01*
X133307421Y-70388599D01*
X133521507Y-70488429D01*
X133521516Y-70488433D01*
X133749673Y-70549567D01*
X133749684Y-70549569D01*
X133984998Y-70570157D01*
X133985002Y-70570157D01*
X134220315Y-70549569D01*
X134220326Y-70549567D01*
X134448483Y-70488433D01*
X134448492Y-70488429D01*
X134662578Y-70388600D01*
X134662582Y-70388598D01*
X134746373Y-70329926D01*
X134746373Y-70329925D01*
X134117533Y-69701086D01*
X134127315Y-69699680D01*
X134258100Y-69639952D01*
X134366761Y-69545798D01*
X134444493Y-69424844D01*
X134468076Y-69344524D01*
X135099925Y-69976373D01*
X135153425Y-69899968D01*
X135208002Y-69856344D01*
X135277501Y-69849151D01*
X135339855Y-69880673D01*
X135356576Y-69899969D01*
X135410073Y-69976372D01*
X136041922Y-69344523D01*
X136065507Y-69424844D01*
X136143239Y-69545798D01*
X136251900Y-69639952D01*
X136382685Y-69699680D01*
X136392464Y-69701086D01*
X135763625Y-70329925D01*
X135847421Y-70388599D01*
X136061507Y-70488429D01*
X136061516Y-70488433D01*
X136289673Y-70549567D01*
X136289684Y-70549569D01*
X136524998Y-70570157D01*
X136525002Y-70570157D01*
X136760315Y-70549569D01*
X136760326Y-70549567D01*
X136988483Y-70488433D01*
X136988492Y-70488430D01*
X137088095Y-70441984D01*
X137157172Y-70431492D01*
X137220956Y-70460011D01*
X137259196Y-70518488D01*
X137264500Y-70554366D01*
X137264500Y-75700547D01*
X137244815Y-75767586D01*
X137192011Y-75813341D01*
X137122853Y-75823285D01*
X137059297Y-75794260D01*
X137052819Y-75788228D01*
X132106819Y-70842228D01*
X132073334Y-70780905D01*
X132070500Y-70754547D01*
X132070500Y-64884500D01*
X132090185Y-64817461D01*
X132142989Y-64771706D01*
X132194500Y-64760500D01*
X138133847Y-64760500D01*
X138200886Y-64780185D01*
G37*
%TD.AperFunction*%
%TA.AperFunction,Conductor*%
G36*
X135339855Y-67341546D02*
G01*
X135356575Y-67360842D01*
X135486500Y-67546395D01*
X135486505Y-67546401D01*
X135653599Y-67713495D01*
X135785500Y-67805853D01*
X135839594Y-67843730D01*
X135883218Y-67898307D01*
X135890411Y-67967806D01*
X135858889Y-68030160D01*
X135839593Y-68046880D01*
X135763626Y-68100072D01*
X135763625Y-68100072D01*
X136392466Y-68728913D01*
X136382685Y-68730320D01*
X136251900Y-68790048D01*
X136143239Y-68884202D01*
X136065507Y-69005156D01*
X136041923Y-69085476D01*
X135410072Y-68453625D01*
X135410072Y-68453626D01*
X135356574Y-68530030D01*
X135301998Y-68573655D01*
X135232499Y-68580849D01*
X135170144Y-68549326D01*
X135153424Y-68530030D01*
X135099925Y-68453626D01*
X135099925Y-68453625D01*
X134468076Y-69085475D01*
X134444493Y-69005156D01*
X134366761Y-68884202D01*
X134258100Y-68790048D01*
X134127315Y-68730320D01*
X134117533Y-68728913D01*
X134746373Y-68100073D01*
X134746373Y-68100072D01*
X134670405Y-68046880D01*
X134626780Y-67992304D01*
X134619586Y-67922805D01*
X134651108Y-67860451D01*
X134670399Y-67843734D01*
X134856401Y-67713495D01*
X135023495Y-67546401D01*
X135153425Y-67360842D01*
X135208002Y-67317217D01*
X135277500Y-67310023D01*
X135339855Y-67341546D01*
G37*
%TD.AperFunction*%
%TA.AperFunction,Conductor*%
G36*
X140419855Y-67341546D02*
G01*
X140436575Y-67360842D01*
X140566500Y-67546395D01*
X140566505Y-67546401D01*
X140733599Y-67713495D01*
X140865500Y-67805853D01*
X140919594Y-67843730D01*
X140963218Y-67898307D01*
X140970411Y-67967806D01*
X140938889Y-68030160D01*
X140919593Y-68046880D01*
X140843626Y-68100072D01*
X140843625Y-68100072D01*
X141472466Y-68728913D01*
X141462685Y-68730320D01*
X141331900Y-68790048D01*
X141223239Y-68884202D01*
X141145507Y-69005156D01*
X141121923Y-69085475D01*
X140490073Y-68453625D01*
X140490072Y-68453626D01*
X140436574Y-68530030D01*
X140381998Y-68573655D01*
X140312499Y-68580849D01*
X140250144Y-68549326D01*
X140233424Y-68530030D01*
X140179925Y-68453626D01*
X140179925Y-68453625D01*
X139548076Y-69085475D01*
X139524493Y-69005156D01*
X139446761Y-68884202D01*
X139338100Y-68790048D01*
X139207315Y-68730320D01*
X139197533Y-68728913D01*
X139826373Y-68100073D01*
X139826373Y-68100072D01*
X139750405Y-68046880D01*
X139706780Y-67992304D01*
X139699586Y-67922805D01*
X139731108Y-67860451D01*
X139750399Y-67843734D01*
X139936401Y-67713495D01*
X140103495Y-67546401D01*
X140233425Y-67360842D01*
X140288002Y-67317217D01*
X140357500Y-67310023D01*
X140419855Y-67341546D01*
G37*
%TD.AperFunction*%
%TA.AperFunction,Conductor*%
G36*
X142959855Y-67341546D02*
G01*
X142976575Y-67360842D01*
X143106500Y-67546395D01*
X143106505Y-67546401D01*
X143273599Y-67713495D01*
X143405500Y-67805853D01*
X143459594Y-67843730D01*
X143503218Y-67898307D01*
X143510411Y-67967806D01*
X143478889Y-68030160D01*
X143459593Y-68046880D01*
X143383626Y-68100072D01*
X143383625Y-68100072D01*
X144012466Y-68728913D01*
X144002685Y-68730320D01*
X143871900Y-68790048D01*
X143763239Y-68884202D01*
X143685507Y-69005156D01*
X143661923Y-69085475D01*
X143030073Y-68453625D01*
X143030072Y-68453626D01*
X142976574Y-68530030D01*
X142921998Y-68573655D01*
X142852499Y-68580849D01*
X142790144Y-68549326D01*
X142773424Y-68530030D01*
X142719925Y-68453626D01*
X142719925Y-68453625D01*
X142088076Y-69085475D01*
X142064493Y-69005156D01*
X141986761Y-68884202D01*
X141878100Y-68790048D01*
X141747315Y-68730320D01*
X141737533Y-68728913D01*
X142366373Y-68100073D01*
X142366373Y-68100072D01*
X142290405Y-68046880D01*
X142246780Y-67992304D01*
X142239586Y-67922805D01*
X142271108Y-67860451D01*
X142290399Y-67843734D01*
X142476401Y-67713495D01*
X142643495Y-67546401D01*
X142773425Y-67360842D01*
X142828002Y-67317217D01*
X142897500Y-67310023D01*
X142959855Y-67341546D01*
G37*
%TD.AperFunction*%
%TA.AperFunction,Conductor*%
G36*
X150579855Y-67341546D02*
G01*
X150596575Y-67360842D01*
X150726500Y-67546395D01*
X150726505Y-67546401D01*
X150893599Y-67713495D01*
X151025500Y-67805853D01*
X151079594Y-67843730D01*
X151123218Y-67898307D01*
X151130411Y-67967806D01*
X151098889Y-68030160D01*
X151079593Y-68046880D01*
X151003626Y-68100072D01*
X151003625Y-68100072D01*
X151632466Y-68728913D01*
X151622685Y-68730320D01*
X151491900Y-68790048D01*
X151383239Y-68884202D01*
X151305507Y-69005156D01*
X151281923Y-69085475D01*
X150650073Y-68453625D01*
X150650072Y-68453626D01*
X150596574Y-68530030D01*
X150541998Y-68573655D01*
X150472499Y-68580849D01*
X150410144Y-68549326D01*
X150393424Y-68530030D01*
X150339925Y-68453626D01*
X150339925Y-68453625D01*
X149708076Y-69085475D01*
X149684493Y-69005156D01*
X149606761Y-68884202D01*
X149498100Y-68790048D01*
X149367315Y-68730320D01*
X149357533Y-68728913D01*
X149986373Y-68100073D01*
X149986373Y-68100072D01*
X149910405Y-68046880D01*
X149866780Y-67992304D01*
X149859586Y-67922805D01*
X149891108Y-67860451D01*
X149910399Y-67843734D01*
X150096401Y-67713495D01*
X150263495Y-67546401D01*
X150393425Y-67360842D01*
X150448002Y-67317217D01*
X150517500Y-67310023D01*
X150579855Y-67341546D01*
G37*
%TD.AperFunction*%
%TA.AperFunction,Conductor*%
G36*
X153119855Y-67341546D02*
G01*
X153136575Y-67360842D01*
X153266500Y-67546395D01*
X153266505Y-67546401D01*
X153433599Y-67713495D01*
X153565500Y-67805853D01*
X153619594Y-67843730D01*
X153663218Y-67898307D01*
X153670411Y-67967806D01*
X153638889Y-68030160D01*
X153619593Y-68046880D01*
X153543626Y-68100072D01*
X153543625Y-68100072D01*
X154172466Y-68728913D01*
X154162685Y-68730320D01*
X154031900Y-68790048D01*
X153923239Y-68884202D01*
X153845507Y-69005156D01*
X153821923Y-69085475D01*
X153190073Y-68453625D01*
X153190072Y-68453626D01*
X153136574Y-68530030D01*
X153081998Y-68573655D01*
X153012499Y-68580849D01*
X152950144Y-68549326D01*
X152933424Y-68530030D01*
X152879925Y-68453626D01*
X152879925Y-68453625D01*
X152248076Y-69085475D01*
X152224493Y-69005156D01*
X152146761Y-68884202D01*
X152038100Y-68790048D01*
X151907315Y-68730320D01*
X151897533Y-68728913D01*
X152526373Y-68100073D01*
X152526373Y-68100072D01*
X152450405Y-68046880D01*
X152406780Y-67992304D01*
X152399586Y-67922805D01*
X152431108Y-67860451D01*
X152450399Y-67843734D01*
X152636401Y-67713495D01*
X152803495Y-67546401D01*
X152933425Y-67360842D01*
X152988002Y-67317217D01*
X153057500Y-67310023D01*
X153119855Y-67341546D01*
G37*
%TD.AperFunction*%
%TA.AperFunction,Conductor*%
G36*
X155532038Y-67542053D02*
G01*
X155557335Y-67585733D01*
X155560186Y-67594334D01*
X155652288Y-67743656D01*
X155776344Y-67867712D01*
X155925666Y-67959814D01*
X155934264Y-67962663D01*
X155991707Y-68002433D01*
X156018531Y-68066948D01*
X156006217Y-68135724D01*
X155977234Y-68172483D01*
X155977427Y-68172676D01*
X155975798Y-68174304D01*
X155974975Y-68175349D01*
X155973599Y-68176503D01*
X155806505Y-68343597D01*
X155676269Y-68529595D01*
X155621692Y-68573220D01*
X155552194Y-68580414D01*
X155489839Y-68548891D01*
X155473119Y-68529595D01*
X155419925Y-68453626D01*
X155419925Y-68453625D01*
X154788076Y-69085475D01*
X154764493Y-69005156D01*
X154686761Y-68884202D01*
X154578100Y-68790048D01*
X154447315Y-68730320D01*
X154437533Y-68728913D01*
X155066373Y-68100073D01*
X155066373Y-68100072D01*
X154990405Y-68046880D01*
X154946780Y-67992304D01*
X154939586Y-67922805D01*
X154971108Y-67860451D01*
X154990399Y-67843734D01*
X155176401Y-67713495D01*
X155343495Y-67546401D01*
X155343504Y-67546388D01*
X155344636Y-67545040D01*
X155345293Y-67544602D01*
X155347323Y-67542573D01*
X155347730Y-67542980D01*
X155402805Y-67506334D01*
X155472666Y-67505220D01*
X155532038Y-67542053D01*
G37*
%TD.AperFunction*%
%TA.AperFunction,Conductor*%
G36*
X163102019Y-57730633D02*
G01*
X163137198Y-57732938D01*
X163183708Y-57735986D01*
X163365459Y-57748985D01*
X163373100Y-57750015D01*
X163466738Y-57768641D01*
X163489420Y-57773153D01*
X163515023Y-57778722D01*
X163633666Y-57804531D01*
X163640383Y-57806395D01*
X163759437Y-57846809D01*
X163856671Y-57883076D01*
X163891741Y-57896157D01*
X163897499Y-57898643D01*
X164012952Y-57955578D01*
X164134906Y-58022170D01*
X164139634Y-58025032D01*
X164196571Y-58063076D01*
X164246649Y-58096537D01*
X164249358Y-58098454D01*
X164358652Y-58180271D01*
X164362345Y-58183265D01*
X164459502Y-58268469D01*
X164462448Y-58271228D01*
X164558769Y-58367549D01*
X164561526Y-58370492D01*
X164646729Y-58467648D01*
X164649732Y-58471353D01*
X164678968Y-58510406D01*
X164731543Y-58580639D01*
X164733461Y-58583349D01*
X164804962Y-58690357D01*
X164807828Y-58695091D01*
X164874421Y-58817047D01*
X164931355Y-58932499D01*
X164933841Y-58938257D01*
X164970212Y-59035768D01*
X164983196Y-59070578D01*
X164988289Y-59085581D01*
X165023597Y-59189596D01*
X165025472Y-59196352D01*
X165056846Y-59340579D01*
X165079980Y-59456880D01*
X165081015Y-59464560D01*
X165094017Y-59646350D01*
X165099367Y-59727966D01*
X165099500Y-59732023D01*
X165099500Y-139547975D01*
X165099367Y-139552032D01*
X165094017Y-139633648D01*
X165081015Y-139815438D01*
X165079980Y-139823118D01*
X165056846Y-139939420D01*
X165025472Y-140083646D01*
X165023597Y-140090401D01*
X165007310Y-140138383D01*
X164983208Y-140209388D01*
X164983195Y-140209425D01*
X164933841Y-140341741D01*
X164931355Y-140347499D01*
X164874421Y-140462952D01*
X164807828Y-140584907D01*
X164804961Y-140589641D01*
X164733461Y-140696649D01*
X164731543Y-140699359D01*
X164649744Y-140808631D01*
X164646723Y-140812357D01*
X164561529Y-140909502D01*
X164558755Y-140912464D01*
X164462464Y-141008755D01*
X164459502Y-141011529D01*
X164362357Y-141096723D01*
X164358631Y-141099744D01*
X164249359Y-141181543D01*
X164246649Y-141183461D01*
X164139641Y-141254961D01*
X164134907Y-141257828D01*
X164012952Y-141324421D01*
X163897499Y-141381355D01*
X163891741Y-141383841D01*
X163770956Y-141428893D01*
X163759418Y-141433197D01*
X163640401Y-141473597D01*
X163633646Y-141475472D01*
X163489420Y-141506846D01*
X163373118Y-141529980D01*
X163365438Y-141531015D01*
X163183648Y-141544017D01*
X163132582Y-141547364D01*
X163102025Y-141549367D01*
X163097976Y-141549500D01*
X128391830Y-141549500D01*
X128324791Y-141529815D01*
X128284187Y-141482956D01*
X128268198Y-141512658D01*
X128207075Y-141546507D01*
X128179996Y-141549500D01*
X127732024Y-141549500D01*
X127727974Y-141549367D01*
X127684336Y-141546507D01*
X127646350Y-141544017D01*
X127464560Y-141531015D01*
X127456880Y-141529980D01*
X127340579Y-141506846D01*
X127196352Y-141475472D01*
X127189596Y-141473597D01*
X127157881Y-141462831D01*
X127070578Y-141433196D01*
X127035768Y-141420212D01*
X126938257Y-141383841D01*
X126932499Y-141381355D01*
X126817047Y-141324421D01*
X126695091Y-141257828D01*
X126690357Y-141254962D01*
X126583349Y-141183461D01*
X126580639Y-141181543D01*
X126520515Y-141136535D01*
X126471353Y-141099732D01*
X126467648Y-141096729D01*
X126370492Y-141011526D01*
X126367549Y-141008769D01*
X126271228Y-140912448D01*
X126268469Y-140909502D01*
X126209467Y-140842223D01*
X126183265Y-140812345D01*
X126180271Y-140808652D01*
X126098454Y-140699358D01*
X126096537Y-140696649D01*
X126025036Y-140589641D01*
X126022170Y-140584906D01*
X125955578Y-140462952D01*
X125898643Y-140347499D01*
X125896157Y-140341741D01*
X125880469Y-140299681D01*
X125846805Y-140209425D01*
X125806395Y-140090383D01*
X125804531Y-140083666D01*
X125773153Y-139939420D01*
X125761053Y-139878592D01*
X125750015Y-139823100D01*
X125748985Y-139815459D01*
X125735986Y-139633708D01*
X125731414Y-139563942D01*
X125730633Y-139552019D01*
X125730500Y-139547964D01*
X125730500Y-139053348D01*
X126031085Y-139053348D01*
X126050375Y-139347660D01*
X126050377Y-139347672D01*
X126107914Y-139636932D01*
X126107918Y-139636947D01*
X126202725Y-139916236D01*
X126333171Y-140180754D01*
X126333178Y-140180767D01*
X126497035Y-140425996D01*
X126526319Y-140459387D01*
X127350123Y-139635583D01*
X127450807Y-139776972D01*
X127602845Y-139921940D01*
X127705135Y-139987677D01*
X126879872Y-140812940D01*
X126879872Y-140812941D01*
X126913257Y-140842220D01*
X126913261Y-140842223D01*
X127158493Y-141006082D01*
X127158506Y-141006089D01*
X127423024Y-141136535D01*
X127702313Y-141231342D01*
X127702328Y-141231346D01*
X127991588Y-141288883D01*
X127991600Y-141288885D01*
X128188106Y-141301765D01*
X128253714Y-141325792D01*
X128286695Y-141369307D01*
X128298117Y-141344297D01*
X128356895Y-141306523D01*
X128383720Y-141301765D01*
X128580225Y-141288885D01*
X128580237Y-141288883D01*
X128869497Y-141231346D01*
X128869512Y-141231342D01*
X129148801Y-141136535D01*
X129413319Y-141006089D01*
X129413332Y-141006082D01*
X129658563Y-140842225D01*
X129691952Y-140812941D01*
X129691953Y-140812940D01*
X128869219Y-139990207D01*
X128883323Y-139982937D01*
X129048453Y-139853077D01*
X129186023Y-139694313D01*
X129220578Y-139634461D01*
X130045505Y-140459388D01*
X130045506Y-140459387D01*
X130074790Y-140425998D01*
X130238647Y-140180767D01*
X130238654Y-140180754D01*
X130369100Y-139916236D01*
X130463907Y-139636947D01*
X130463911Y-139636932D01*
X130521448Y-139347672D01*
X130521450Y-139347660D01*
X130540740Y-139053348D01*
X130521450Y-138759035D01*
X130521448Y-138759023D01*
X130481264Y-138557004D01*
X139360502Y-138557004D01*
X139380465Y-138823403D01*
X139380466Y-138823408D01*
X139439912Y-139083860D01*
X139439918Y-139083879D01*
X139537520Y-139332566D01*
X139671099Y-139563931D01*
X139671106Y-139563942D01*
X139722747Y-139628697D01*
X139722748Y-139628697D01*
X140393068Y-138958377D01*
X140436153Y-139039644D01*
X140556550Y-139181387D01*
X140704602Y-139293933D01*
X140745635Y-139312917D01*
X140075442Y-139983109D01*
X140254250Y-140105018D01*
X140254258Y-140105023D01*
X140494951Y-140220933D01*
X140494949Y-140220933D01*
X140750242Y-140299681D01*
X140750248Y-140299683D01*
X141014412Y-140339499D01*
X141014421Y-140339500D01*
X141281579Y-140339500D01*
X141281587Y-140339499D01*
X141545751Y-140299683D01*
X141545757Y-140299681D01*
X141801049Y-140220933D01*
X142041741Y-140105023D01*
X142041742Y-140105022D01*
X142220556Y-139983109D01*
X141550252Y-139312805D01*
X141668475Y-139241673D01*
X141803491Y-139113779D01*
X141906461Y-138961908D01*
X142573250Y-139628697D01*
X142573251Y-139628696D01*
X142624902Y-139563929D01*
X142758479Y-139332566D01*
X142856081Y-139083879D01*
X142856087Y-139083860D01*
X142915533Y-138823408D01*
X142915534Y-138823403D01*
X142935498Y-138557004D01*
X148580502Y-138557004D01*
X148600465Y-138823403D01*
X148600466Y-138823408D01*
X148659912Y-139083860D01*
X148659918Y-139083879D01*
X148757520Y-139332566D01*
X148891099Y-139563931D01*
X148891106Y-139563942D01*
X148942747Y-139628697D01*
X148942748Y-139628697D01*
X149613068Y-138958377D01*
X149656153Y-139039644D01*
X149776550Y-139181387D01*
X149924602Y-139293933D01*
X149965635Y-139312917D01*
X149295442Y-139983109D01*
X149474250Y-140105018D01*
X149474258Y-140105023D01*
X149714951Y-140220933D01*
X149714949Y-140220933D01*
X149970242Y-140299681D01*
X149970248Y-140299683D01*
X150234412Y-140339499D01*
X150234421Y-140339500D01*
X150501579Y-140339500D01*
X150501587Y-140339499D01*
X150765751Y-140299683D01*
X150765757Y-140299681D01*
X151021049Y-140220933D01*
X151261741Y-140105023D01*
X151261742Y-140105022D01*
X151440556Y-139983109D01*
X150770252Y-139312805D01*
X150888475Y-139241673D01*
X151023491Y-139113779D01*
X151126461Y-138961908D01*
X151793250Y-139628697D01*
X151793251Y-139628696D01*
X151844902Y-139563929D01*
X151978479Y-139332566D01*
X152076081Y-139083879D01*
X152076087Y-139083860D01*
X152092945Y-139010000D01*
X160305172Y-139010000D01*
X160324462Y-139304312D01*
X160324464Y-139304324D01*
X160382001Y-139593584D01*
X160382005Y-139593599D01*
X160476812Y-139872888D01*
X160607258Y-140137406D01*
X160607265Y-140137419D01*
X160771122Y-140382648D01*
X160800406Y-140416039D01*
X161624210Y-139592235D01*
X161724894Y-139733624D01*
X161876932Y-139878592D01*
X161979222Y-139944329D01*
X161153959Y-140769592D01*
X161153959Y-140769593D01*
X161187344Y-140798872D01*
X161187348Y-140798875D01*
X161432580Y-140962734D01*
X161432593Y-140962741D01*
X161697111Y-141093187D01*
X161976400Y-141187994D01*
X161976415Y-141187998D01*
X162265675Y-141245535D01*
X162265687Y-141245537D01*
X162560000Y-141264827D01*
X162854312Y-141245537D01*
X162854324Y-141245535D01*
X163143584Y-141187998D01*
X163143599Y-141187994D01*
X163422888Y-141093187D01*
X163687406Y-140962741D01*
X163687419Y-140962734D01*
X163932650Y-140798877D01*
X163966039Y-140769593D01*
X163966040Y-140769592D01*
X163143306Y-139946859D01*
X163157410Y-139939589D01*
X163322540Y-139809729D01*
X163460110Y-139650965D01*
X163494665Y-139591112D01*
X164319592Y-140416040D01*
X164319593Y-140416039D01*
X164348877Y-140382650D01*
X164512734Y-140137419D01*
X164512741Y-140137406D01*
X164643187Y-139872888D01*
X164737994Y-139593599D01*
X164737998Y-139593584D01*
X164795535Y-139304324D01*
X164795537Y-139304312D01*
X164814827Y-139010000D01*
X164795537Y-138715687D01*
X164795535Y-138715675D01*
X164737998Y-138426415D01*
X164737994Y-138426400D01*
X164643187Y-138147111D01*
X164512741Y-137882593D01*
X164512734Y-137882580D01*
X164348875Y-137637348D01*
X164348872Y-137637344D01*
X164319593Y-137603959D01*
X164319592Y-137603959D01*
X163495788Y-138427763D01*
X163395106Y-138286376D01*
X163243068Y-138141408D01*
X163140777Y-138075669D01*
X163966039Y-137250406D01*
X163932648Y-137221122D01*
X163687419Y-137057265D01*
X163687406Y-137057258D01*
X163422888Y-136926812D01*
X163143599Y-136832005D01*
X163143584Y-136832001D01*
X162854324Y-136774464D01*
X162854312Y-136774462D01*
X162560000Y-136755172D01*
X162265687Y-136774462D01*
X162265675Y-136774464D01*
X161976415Y-136832001D01*
X161976400Y-136832005D01*
X161697111Y-136926812D01*
X161432593Y-137057258D01*
X161432580Y-137057265D01*
X161187350Y-137221123D01*
X161153958Y-137250406D01*
X161976693Y-138073140D01*
X161962590Y-138080411D01*
X161797460Y-138210271D01*
X161659890Y-138369035D01*
X161625334Y-138428886D01*
X160800406Y-137603958D01*
X160771123Y-137637350D01*
X160607265Y-137882580D01*
X160607258Y-137882593D01*
X160476812Y-138147111D01*
X160382005Y-138426400D01*
X160382001Y-138426415D01*
X160324464Y-138715675D01*
X160324462Y-138715687D01*
X160305172Y-139010000D01*
X152092945Y-139010000D01*
X152135533Y-138823408D01*
X152135534Y-138823403D01*
X152155498Y-138557004D01*
X152155498Y-138556995D01*
X152135534Y-138290596D01*
X152135533Y-138290591D01*
X152076087Y-138030139D01*
X152076081Y-138030120D01*
X151978479Y-137781433D01*
X151844900Y-137550068D01*
X151844893Y-137550057D01*
X151793251Y-137485302D01*
X151793250Y-137485301D01*
X151122930Y-138155620D01*
X151079847Y-138074356D01*
X150959450Y-137932613D01*
X150811398Y-137820067D01*
X150770363Y-137801082D01*
X151440556Y-137130889D01*
X151261749Y-137008981D01*
X151261741Y-137008976D01*
X151021048Y-136893066D01*
X151021050Y-136893066D01*
X150765757Y-136814318D01*
X150765751Y-136814316D01*
X150501587Y-136774500D01*
X150234412Y-136774500D01*
X149970248Y-136814316D01*
X149970242Y-136814318D01*
X149714950Y-136893066D01*
X149474256Y-137008978D01*
X149474243Y-137008985D01*
X149295442Y-137130889D01*
X149965747Y-137801194D01*
X149847525Y-137872327D01*
X149712509Y-138000221D01*
X149609537Y-138152091D01*
X148942747Y-137485301D01*
X148891102Y-137550063D01*
X148757520Y-137781433D01*
X148659918Y-138030120D01*
X148659912Y-138030139D01*
X148600466Y-138290591D01*
X148600465Y-138290596D01*
X148580502Y-138556995D01*
X148580502Y-138557004D01*
X142935498Y-138557004D01*
X142935498Y-138556995D01*
X142915534Y-138290596D01*
X142915533Y-138290591D01*
X142856087Y-138030139D01*
X142856081Y-138030120D01*
X142758479Y-137781433D01*
X142624900Y-137550068D01*
X142624893Y-137550057D01*
X142573251Y-137485302D01*
X142573250Y-137485301D01*
X141902930Y-138155620D01*
X141859847Y-138074356D01*
X141739450Y-137932613D01*
X141591398Y-137820067D01*
X141550363Y-137801082D01*
X142220556Y-137130889D01*
X142041749Y-137008981D01*
X142041741Y-137008976D01*
X141801048Y-136893066D01*
X141801050Y-136893066D01*
X141545757Y-136814318D01*
X141545751Y-136814316D01*
X141281587Y-136774500D01*
X141014412Y-136774500D01*
X140750248Y-136814316D01*
X140750242Y-136814318D01*
X140494950Y-136893066D01*
X140254256Y-137008978D01*
X140254243Y-137008985D01*
X140075442Y-137130889D01*
X140745747Y-137801194D01*
X140627525Y-137872327D01*
X140492509Y-138000221D01*
X140389537Y-138152091D01*
X139722747Y-137485301D01*
X139671102Y-137550063D01*
X139537520Y-137781433D01*
X139439918Y-138030120D01*
X139439912Y-138030139D01*
X139380466Y-138290591D01*
X139380465Y-138290596D01*
X139360502Y-138556995D01*
X139360502Y-138557004D01*
X130481264Y-138557004D01*
X130463911Y-138469763D01*
X130463907Y-138469748D01*
X130369100Y-138190459D01*
X130238654Y-137925941D01*
X130238647Y-137925928D01*
X130074788Y-137680696D01*
X130074785Y-137680692D01*
X130045506Y-137647307D01*
X130045505Y-137647307D01*
X129221701Y-138471111D01*
X129121019Y-138329724D01*
X128968981Y-138184756D01*
X128866690Y-138119017D01*
X129691952Y-137293754D01*
X129658561Y-137264470D01*
X129413332Y-137100613D01*
X129413319Y-137100606D01*
X129148801Y-136970160D01*
X128869512Y-136875353D01*
X128869497Y-136875349D01*
X128580237Y-136817812D01*
X128580225Y-136817810D01*
X128285913Y-136798520D01*
X127991600Y-136817810D01*
X127991588Y-136817812D01*
X127702328Y-136875349D01*
X127702313Y-136875353D01*
X127423024Y-136970160D01*
X127158506Y-137100606D01*
X127158493Y-137100613D01*
X126913263Y-137264471D01*
X126879871Y-137293754D01*
X127702606Y-138116488D01*
X127688503Y-138123759D01*
X127523373Y-138253619D01*
X127385803Y-138412383D01*
X127351247Y-138472234D01*
X126526319Y-137647306D01*
X126497036Y-137680698D01*
X126333178Y-137925928D01*
X126333171Y-137925941D01*
X126202725Y-138190459D01*
X126107918Y-138469748D01*
X126107914Y-138469763D01*
X126050377Y-138759023D01*
X126050375Y-138759035D01*
X126031085Y-139053348D01*
X125730500Y-139053348D01*
X125730500Y-134057005D01*
X139642859Y-134057005D01*
X139663385Y-134304729D01*
X139663387Y-134304738D01*
X139724412Y-134545717D01*
X139824266Y-134773364D01*
X139924564Y-134926882D01*
X140393068Y-134458378D01*
X140436153Y-134539644D01*
X140556550Y-134681387D01*
X140704602Y-134793933D01*
X140745635Y-134812917D01*
X140277942Y-135280609D01*
X140324768Y-135317055D01*
X140324770Y-135317056D01*
X140543385Y-135435364D01*
X140543396Y-135435369D01*
X140778506Y-135516083D01*
X141023707Y-135557000D01*
X141272293Y-135557000D01*
X141517493Y-135516083D01*
X141752603Y-135435369D01*
X141752614Y-135435364D01*
X141971228Y-135317057D01*
X141971231Y-135317055D01*
X142076508Y-135235114D01*
X142141502Y-135209471D01*
X142210042Y-135223037D01*
X142212410Y-135224306D01*
X142216632Y-135226627D01*
X142375823Y-135267500D01*
X142375827Y-135267500D01*
X142498923Y-135267500D01*
X142498925Y-135267500D01*
X142498930Y-135267499D01*
X142498934Y-135267499D01*
X142512174Y-135265826D01*
X142621058Y-135252071D01*
X142773871Y-135191568D01*
X142773878Y-135191563D01*
X142906835Y-135094965D01*
X142906835Y-135094963D01*
X142906837Y-135094963D01*
X143011600Y-134968326D01*
X143081579Y-134819613D01*
X143112376Y-134658170D01*
X143107196Y-134575833D01*
X148403624Y-134575833D01*
X148413944Y-134739860D01*
X148464732Y-134896171D01*
X148464734Y-134896175D01*
X148552798Y-135034940D01*
X148672603Y-135147445D01*
X148672611Y-135147451D01*
X148816628Y-135226625D01*
X148816632Y-135226627D01*
X148975823Y-135267500D01*
X148975827Y-135267500D01*
X149098923Y-135267500D01*
X149098925Y-135267500D01*
X149098930Y-135267499D01*
X149098934Y-135267499D01*
X149112174Y-135265826D01*
X149221058Y-135252071D01*
X149314396Y-135215115D01*
X149383971Y-135208739D01*
X149436204Y-135232555D01*
X149544768Y-135317055D01*
X149544771Y-135317057D01*
X149763385Y-135435364D01*
X149763396Y-135435369D01*
X149998506Y-135516083D01*
X150243707Y-135557000D01*
X150492293Y-135557000D01*
X150737493Y-135516083D01*
X150972603Y-135435369D01*
X150972614Y-135435364D01*
X151191228Y-135317057D01*
X151191231Y-135317055D01*
X151238056Y-135280609D01*
X150770252Y-134812805D01*
X150888475Y-134741673D01*
X151023491Y-134613779D01*
X151126461Y-134461909D01*
X151591434Y-134926882D01*
X151691731Y-134773369D01*
X151791587Y-134545717D01*
X151852612Y-134304738D01*
X151852614Y-134304729D01*
X151873141Y-134057005D01*
X151873141Y-134056994D01*
X151852614Y-133809270D01*
X151852612Y-133809261D01*
X151791587Y-133568282D01*
X151691731Y-133340630D01*
X151591434Y-133187116D01*
X151122930Y-133655620D01*
X151079847Y-133574356D01*
X150959450Y-133432613D01*
X150811398Y-133320067D01*
X150770364Y-133301082D01*
X151238057Y-132833390D01*
X151238056Y-132833389D01*
X151191229Y-132796943D01*
X150972614Y-132678635D01*
X150972603Y-132678630D01*
X150737493Y-132597916D01*
X150492293Y-132557000D01*
X150243707Y-132557000D01*
X149998506Y-132597916D01*
X149763396Y-132678630D01*
X149763390Y-132678632D01*
X149544761Y-132796949D01*
X149497942Y-132833388D01*
X149497942Y-132833390D01*
X149965747Y-133301194D01*
X149847525Y-133372327D01*
X149712509Y-133500221D01*
X149609538Y-133652090D01*
X149144564Y-133187116D01*
X149044267Y-133340632D01*
X148944412Y-133568282D01*
X148883387Y-133809261D01*
X148883385Y-133809270D01*
X148874558Y-133915801D01*
X148849405Y-133980986D01*
X148796631Y-134020853D01*
X148742128Y-134042432D01*
X148742121Y-134042436D01*
X148609164Y-134139034D01*
X148609162Y-134139037D01*
X148504400Y-134265673D01*
X148434420Y-134414387D01*
X148419207Y-134494139D01*
X148403624Y-134575830D01*
X148403624Y-134575832D01*
X148403624Y-134575833D01*
X143107196Y-134575833D01*
X143102056Y-134494140D01*
X143051268Y-134337829D01*
X142963202Y-134199060D01*
X142963201Y-134199059D01*
X142843396Y-134086554D01*
X142843388Y-134086548D01*
X142704967Y-134010451D01*
X142655703Y-133960905D01*
X142641127Y-133912028D01*
X142632612Y-133809259D01*
X142571587Y-133568282D01*
X142471731Y-133340630D01*
X142371434Y-133187116D01*
X141902930Y-133655620D01*
X141859847Y-133574356D01*
X141739450Y-133432613D01*
X141591398Y-133320067D01*
X141550364Y-133301082D01*
X142018057Y-132833390D01*
X142018056Y-132833389D01*
X141971229Y-132796943D01*
X141752614Y-132678635D01*
X141752603Y-132678630D01*
X141517493Y-132597916D01*
X141272293Y-132557000D01*
X141023707Y-132557000D01*
X140778506Y-132597916D01*
X140543396Y-132678630D01*
X140543390Y-132678632D01*
X140324761Y-132796949D01*
X140277942Y-132833388D01*
X140277942Y-132833390D01*
X140745747Y-133301194D01*
X140627525Y-133372327D01*
X140492509Y-133500221D01*
X140389538Y-133652090D01*
X139924564Y-133187116D01*
X139824267Y-133340632D01*
X139724412Y-133568282D01*
X139663387Y-133809261D01*
X139663385Y-133809270D01*
X139642859Y-134056994D01*
X139642859Y-134057005D01*
X125730500Y-134057005D01*
X125730500Y-131953000D01*
X142604540Y-131953000D01*
X142624326Y-132141256D01*
X142624327Y-132141259D01*
X142682818Y-132321277D01*
X142682821Y-132321284D01*
X142777467Y-132485216D01*
X142842102Y-132557000D01*
X142904129Y-132625888D01*
X143057265Y-132737148D01*
X143057270Y-132737151D01*
X143230192Y-132814142D01*
X143230197Y-132814144D01*
X143415354Y-132853500D01*
X143415355Y-132853500D01*
X143604644Y-132853500D01*
X143604646Y-132853500D01*
X143789803Y-132814144D01*
X143962730Y-132737151D01*
X144115871Y-132625888D01*
X144242533Y-132485216D01*
X144337179Y-132321284D01*
X144395674Y-132141256D01*
X144413321Y-131973344D01*
X144439904Y-131908734D01*
X144448962Y-131898627D01*
X144494774Y-131852817D01*
X144556098Y-131819333D01*
X144582453Y-131816500D01*
X147591245Y-131816500D01*
X147658284Y-131836185D01*
X147704039Y-131888989D01*
X147709176Y-131902182D01*
X147762818Y-132067278D01*
X147762821Y-132067284D01*
X147857467Y-132231216D01*
X147938559Y-132321277D01*
X147984129Y-132371888D01*
X148137265Y-132483148D01*
X148137270Y-132483151D01*
X148310192Y-132560142D01*
X148310197Y-132560144D01*
X148495354Y-132599500D01*
X148495355Y-132599500D01*
X148684644Y-132599500D01*
X148684646Y-132599500D01*
X148869803Y-132560144D01*
X149042730Y-132483151D01*
X149195871Y-132371888D01*
X149233587Y-132330000D01*
X154310001Y-132330000D01*
X154310001Y-132366654D01*
X154320319Y-132467652D01*
X154374546Y-132631300D01*
X154374551Y-132631311D01*
X154465052Y-132778034D01*
X154465055Y-132778038D01*
X154586961Y-132899944D01*
X154586965Y-132899947D01*
X154733688Y-132990448D01*
X154733699Y-132990453D01*
X154897347Y-133044680D01*
X154998351Y-133054999D01*
X155097500Y-133054998D01*
X155097500Y-132330000D01*
X154310001Y-132330000D01*
X149233587Y-132330000D01*
X149322533Y-132231216D01*
X149417179Y-132067284D01*
X149475674Y-131887256D01*
X149481692Y-131830000D01*
X154310000Y-131830000D01*
X155097500Y-131830000D01*
X155097500Y-131104999D01*
X154998360Y-131105000D01*
X154998344Y-131105001D01*
X154897347Y-131115319D01*
X154733699Y-131169546D01*
X154733688Y-131169551D01*
X154586965Y-131260052D01*
X154586961Y-131260055D01*
X154465055Y-131381961D01*
X154465052Y-131381965D01*
X154374551Y-131528688D01*
X154374546Y-131528699D01*
X154320319Y-131692347D01*
X154310000Y-131793345D01*
X154310000Y-131830000D01*
X149481692Y-131830000D01*
X149495460Y-131699000D01*
X149475674Y-131510744D01*
X149417179Y-131330716D01*
X149322533Y-131166784D01*
X149195871Y-131026112D01*
X149195870Y-131026111D01*
X149042734Y-130914851D01*
X149042729Y-130914848D01*
X148869807Y-130837857D01*
X148869802Y-130837855D01*
X148724001Y-130806865D01*
X148684646Y-130798500D01*
X148684645Y-130798500D01*
X148626867Y-130798500D01*
X148559828Y-130778815D01*
X148541984Y-130764893D01*
X148541798Y-130764718D01*
X148517364Y-130741773D01*
X148506919Y-130731328D01*
X148496475Y-130720883D01*
X148490986Y-130716625D01*
X148486561Y-130712847D01*
X148452582Y-130680938D01*
X148452580Y-130680936D01*
X148452577Y-130680935D01*
X148435029Y-130671288D01*
X148418763Y-130660604D01*
X148406182Y-130650845D01*
X148402936Y-130648327D01*
X148402935Y-130648326D01*
X148402933Y-130648325D01*
X148360168Y-130629818D01*
X148354922Y-130627248D01*
X148314093Y-130604803D01*
X148314092Y-130604802D01*
X148294693Y-130599822D01*
X148276281Y-130593518D01*
X148257898Y-130585562D01*
X148257892Y-130585560D01*
X148211874Y-130578272D01*
X148206152Y-130577087D01*
X148161021Y-130565500D01*
X148161019Y-130565500D01*
X148140984Y-130565500D01*
X148121586Y-130563973D01*
X148114162Y-130562797D01*
X148101805Y-130560840D01*
X148101804Y-130560840D01*
X148055416Y-130565225D01*
X148049578Y-130565500D01*
X144354743Y-130565500D01*
X144339122Y-130563775D01*
X144339095Y-130564061D01*
X144331333Y-130563326D01*
X144262172Y-130565500D01*
X144232649Y-130565500D01*
X144225778Y-130566367D01*
X144219959Y-130566825D01*
X144173374Y-130568289D01*
X144173368Y-130568290D01*
X144154126Y-130573880D01*
X144135087Y-130577823D01*
X144115217Y-130580334D01*
X144115203Y-130580337D01*
X144071883Y-130597488D01*
X144066358Y-130599380D01*
X144021613Y-130612380D01*
X144021610Y-130612381D01*
X144004366Y-130622579D01*
X143986905Y-130631133D01*
X143968274Y-130638510D01*
X143968262Y-130638517D01*
X143930570Y-130665902D01*
X143925687Y-130669109D01*
X143885580Y-130692829D01*
X143871414Y-130706995D01*
X143856624Y-130719627D01*
X143840414Y-130731404D01*
X143840411Y-130731407D01*
X143810710Y-130767309D01*
X143806777Y-130771631D01*
X143562227Y-131016182D01*
X143500907Y-131049666D01*
X143474548Y-131052500D01*
X143415354Y-131052500D01*
X143382897Y-131059398D01*
X143230197Y-131091855D01*
X143230192Y-131091857D01*
X143057270Y-131168848D01*
X143057265Y-131168851D01*
X142904129Y-131280111D01*
X142777466Y-131420785D01*
X142682821Y-131584715D01*
X142682818Y-131584722D01*
X142624898Y-131762983D01*
X142624326Y-131764744D01*
X142604540Y-131953000D01*
X125730500Y-131953000D01*
X125730500Y-99975195D01*
X127284840Y-99975195D01*
X127289225Y-100021583D01*
X127289500Y-100027421D01*
X127289500Y-126263956D01*
X127287775Y-126279573D01*
X127288061Y-126279600D01*
X127287326Y-126287366D01*
X127289500Y-126356515D01*
X127289500Y-126386044D01*
X127289501Y-126386061D01*
X127290368Y-126392932D01*
X127290826Y-126398751D01*
X127292290Y-126445325D01*
X127292291Y-126445328D01*
X127297880Y-126464568D01*
X127301824Y-126483612D01*
X127304336Y-126503493D01*
X127317858Y-126537646D01*
X127321490Y-126546820D01*
X127323382Y-126552348D01*
X127336382Y-126597091D01*
X127346133Y-126613580D01*
X127346580Y-126614335D01*
X127355138Y-126631804D01*
X127362514Y-126650433D01*
X127389898Y-126688124D01*
X127393106Y-126693008D01*
X127416827Y-126733117D01*
X127416833Y-126733125D01*
X127430990Y-126747281D01*
X127443628Y-126762077D01*
X127455405Y-126778287D01*
X127455406Y-126778288D01*
X127491309Y-126807989D01*
X127495620Y-126811911D01*
X128263708Y-127580000D01*
X128494883Y-127811175D01*
X128528368Y-127872498D01*
X128523384Y-127942190D01*
X128504690Y-127974274D01*
X128504995Y-127974487D01*
X128502445Y-127978127D01*
X128502198Y-127978553D01*
X128501895Y-127978913D01*
X128366400Y-128172420D01*
X128366399Y-128172422D01*
X128266570Y-128386507D01*
X128266567Y-128386513D01*
X128209364Y-128599999D01*
X128209364Y-128600000D01*
X129106314Y-128600000D01*
X129080507Y-128640156D01*
X129040000Y-128778111D01*
X129040000Y-128921889D01*
X129080507Y-129059844D01*
X129106314Y-129100000D01*
X128209364Y-129100000D01*
X128266567Y-129313486D01*
X128266570Y-129313492D01*
X128366399Y-129527578D01*
X128501894Y-129721082D01*
X128668917Y-129888105D01*
X128862421Y-130023600D01*
X129076507Y-130123429D01*
X129076516Y-130123433D01*
X129290000Y-130180634D01*
X129290000Y-129285501D01*
X129397685Y-129334680D01*
X129504237Y-129350000D01*
X129575763Y-129350000D01*
X129682315Y-129334680D01*
X129790000Y-129285501D01*
X129790000Y-130180633D01*
X130003483Y-130123433D01*
X130003492Y-130123429D01*
X130217578Y-130023600D01*
X130411082Y-129888105D01*
X130578105Y-129721082D01*
X130713600Y-129527578D01*
X130813429Y-129313492D01*
X130813432Y-129313486D01*
X130870636Y-129100000D01*
X129973686Y-129100000D01*
X129999493Y-129059844D01*
X130040000Y-128921889D01*
X130040000Y-128778111D01*
X129999493Y-128640156D01*
X129973686Y-128600000D01*
X130876064Y-128600000D01*
X130920149Y-128567810D01*
X130962096Y-128560500D01*
X132670354Y-128560500D01*
X132685974Y-128562224D01*
X132686001Y-128561939D01*
X132693757Y-128562671D01*
X132693764Y-128562673D01*
X132762911Y-128560500D01*
X132792447Y-128560500D01*
X132799325Y-128559630D01*
X132805138Y-128559172D01*
X132851724Y-128557709D01*
X132870966Y-128552117D01*
X132890009Y-128548174D01*
X132909889Y-128545664D01*
X132953219Y-128528507D01*
X132958743Y-128526617D01*
X132962493Y-128525527D01*
X133003487Y-128513618D01*
X133020726Y-128503422D01*
X133038200Y-128494862D01*
X133056824Y-128487488D01*
X133056824Y-128487487D01*
X133056829Y-128487486D01*
X133094546Y-128460082D01*
X133099402Y-128456892D01*
X133139517Y-128433170D01*
X133153686Y-128418999D01*
X133168476Y-128406368D01*
X133184684Y-128394594D01*
X133214396Y-128358676D01*
X133218309Y-128354376D01*
X135797821Y-125774865D01*
X135859142Y-125741382D01*
X135928834Y-125746366D01*
X135984767Y-125788238D01*
X136009184Y-125853702D01*
X136009500Y-125862548D01*
X136009500Y-127062870D01*
X136009501Y-127062876D01*
X136015908Y-127122483D01*
X136066202Y-127257328D01*
X136066206Y-127257335D01*
X136152452Y-127372544D01*
X136152455Y-127372547D01*
X136267664Y-127458793D01*
X136267671Y-127458797D01*
X136402517Y-127509091D01*
X136402516Y-127509091D01*
X136409444Y-127509835D01*
X136462127Y-127515500D01*
X136996480Y-127515499D01*
X137063517Y-127535183D01*
X137109272Y-127587987D01*
X137119216Y-127657146D01*
X137090191Y-127720702D01*
X137031413Y-127758476D01*
X137019264Y-127761388D01*
X136843940Y-127794162D01*
X136645208Y-127871151D01*
X136645205Y-127871152D01*
X136542991Y-127934438D01*
X137115600Y-128507046D01*
X137034852Y-128519835D01*
X136921955Y-128577359D01*
X136832359Y-128666955D01*
X136774835Y-128779852D01*
X136762046Y-128860600D01*
X136186835Y-128285389D01*
X136178056Y-128297015D01*
X136083066Y-128487783D01*
X136083058Y-128487803D01*
X136024738Y-128692780D01*
X136024737Y-128692783D01*
X136005073Y-128904999D01*
X136005073Y-128905000D01*
X136024737Y-129117216D01*
X136024738Y-129117219D01*
X136083058Y-129322196D01*
X136083066Y-129322216D01*
X136178060Y-129512990D01*
X136186834Y-129524609D01*
X136186835Y-129524609D01*
X136762046Y-128949399D01*
X136774835Y-129030148D01*
X136832359Y-129143045D01*
X136921955Y-129232641D01*
X137034852Y-129290165D01*
X137115599Y-129302953D01*
X136542991Y-129875560D01*
X136542992Y-129875561D01*
X136645201Y-129938845D01*
X136645210Y-129938850D01*
X136843936Y-130015836D01*
X136843941Y-130015837D01*
X137053439Y-130055000D01*
X137266561Y-130055000D01*
X137476058Y-130015837D01*
X137476063Y-130015836D01*
X137674789Y-129938850D01*
X137674793Y-129938848D01*
X137777007Y-129875560D01*
X137204401Y-129302953D01*
X137285148Y-129290165D01*
X137398045Y-129232641D01*
X137487641Y-129143045D01*
X137545165Y-129030148D01*
X137557953Y-128949400D01*
X138133163Y-129524610D01*
X138141935Y-129512996D01*
X138141938Y-129512991D01*
X138236935Y-129322211D01*
X138236941Y-129322196D01*
X138295261Y-129117219D01*
X138295262Y-129117216D01*
X138306529Y-128995628D01*
X138332315Y-128930690D01*
X138368466Y-128904794D01*
X138340497Y-128888751D01*
X138308307Y-128826738D01*
X138306529Y-128814371D01*
X138295262Y-128692783D01*
X138295261Y-128692780D01*
X138236941Y-128487803D01*
X138236933Y-128487783D01*
X138141940Y-128297010D01*
X138133163Y-128285388D01*
X137557953Y-128860598D01*
X137545165Y-128779852D01*
X137487641Y-128666955D01*
X137398045Y-128577359D01*
X137285148Y-128519835D01*
X137204400Y-128507046D01*
X137777007Y-127934438D01*
X137674789Y-127871149D01*
X137476063Y-127794163D01*
X137476058Y-127794162D01*
X137300735Y-127761388D01*
X137238454Y-127729720D01*
X137203181Y-127669407D01*
X137206115Y-127599599D01*
X137246324Y-127542459D01*
X137311042Y-127516128D01*
X137323512Y-127515499D01*
X137857872Y-127515499D01*
X137917483Y-127509091D01*
X138052331Y-127458796D01*
X138167546Y-127372546D01*
X138253796Y-127257331D01*
X138304091Y-127122483D01*
X138306710Y-127098115D01*
X138333445Y-127033568D01*
X138390837Y-126993719D01*
X138460662Y-126991223D01*
X138520752Y-127026874D01*
X138552028Y-127089352D01*
X138553288Y-127098116D01*
X138555907Y-127122480D01*
X138606202Y-127257328D01*
X138606206Y-127257335D01*
X138692452Y-127372544D01*
X138692455Y-127372547D01*
X138807664Y-127458793D01*
X138807671Y-127458797D01*
X138942517Y-127509091D01*
X138942516Y-127509091D01*
X138949444Y-127509835D01*
X139002127Y-127515500D01*
X139536480Y-127515499D01*
X139603517Y-127535183D01*
X139649272Y-127587987D01*
X139659216Y-127657146D01*
X139630191Y-127720702D01*
X139571413Y-127758476D01*
X139559264Y-127761388D01*
X139383940Y-127794162D01*
X139185208Y-127871151D01*
X139185205Y-127871152D01*
X139082991Y-127934438D01*
X139655600Y-128507046D01*
X139574852Y-128519835D01*
X139461955Y-128577359D01*
X139372359Y-128666955D01*
X139314835Y-128779852D01*
X139302046Y-128860600D01*
X138726835Y-128285389D01*
X138718056Y-128297015D01*
X138623066Y-128487783D01*
X138623058Y-128487803D01*
X138564738Y-128692780D01*
X138564737Y-128692783D01*
X138553471Y-128814371D01*
X138527685Y-128879309D01*
X138491533Y-128905204D01*
X138519503Y-128921248D01*
X138551693Y-128983261D01*
X138553471Y-128995628D01*
X138564737Y-129117216D01*
X138564738Y-129117219D01*
X138623058Y-129322196D01*
X138623066Y-129322216D01*
X138718060Y-129512990D01*
X138726834Y-129524609D01*
X138726835Y-129524609D01*
X139302046Y-128949399D01*
X139314835Y-129030148D01*
X139372359Y-129143045D01*
X139461955Y-129232641D01*
X139574852Y-129290165D01*
X139655599Y-129302953D01*
X139082991Y-129875560D01*
X139082992Y-129875561D01*
X139185201Y-129938845D01*
X139185210Y-129938850D01*
X139383936Y-130015836D01*
X139383941Y-130015837D01*
X139593439Y-130055000D01*
X139806561Y-130055000D01*
X140016058Y-130015837D01*
X140016063Y-130015836D01*
X140214789Y-129938850D01*
X140214793Y-129938848D01*
X140317007Y-129875560D01*
X139744401Y-129302953D01*
X139825148Y-129290165D01*
X139938045Y-129232641D01*
X140027641Y-129143045D01*
X140085165Y-129030148D01*
X140097953Y-128949400D01*
X140673163Y-129524610D01*
X140681935Y-129512996D01*
X140681938Y-129512991D01*
X140776935Y-129322211D01*
X140776941Y-129322196D01*
X140835261Y-129117219D01*
X140835262Y-129117216D01*
X140854927Y-128905000D01*
X140854927Y-128904999D01*
X140835262Y-128692783D01*
X140835261Y-128692780D01*
X140776941Y-128487803D01*
X140776933Y-128487783D01*
X140681940Y-128297010D01*
X140673163Y-128285388D01*
X140097953Y-128860598D01*
X140085165Y-128779852D01*
X140027641Y-128666955D01*
X139938045Y-128577359D01*
X139825148Y-128519835D01*
X139744400Y-128507046D01*
X140317007Y-127934438D01*
X140214789Y-127871149D01*
X140016063Y-127794163D01*
X140016058Y-127794162D01*
X139840735Y-127761388D01*
X139778454Y-127729720D01*
X139743181Y-127669407D01*
X139746115Y-127599599D01*
X139786324Y-127542459D01*
X139851042Y-127516128D01*
X139863512Y-127515499D01*
X140397872Y-127515499D01*
X140457483Y-127509091D01*
X140592331Y-127458796D01*
X140707546Y-127372546D01*
X140793796Y-127257331D01*
X140844091Y-127122483D01*
X140850500Y-127062873D01*
X140850499Y-125667128D01*
X140844091Y-125607517D01*
X140824572Y-125555185D01*
X140793797Y-125472671D01*
X140793793Y-125472664D01*
X140707547Y-125357455D01*
X140707544Y-125357452D01*
X140592335Y-125271206D01*
X140592328Y-125271202D01*
X140457482Y-125220908D01*
X140457483Y-125220908D01*
X140397883Y-125214501D01*
X140397881Y-125214500D01*
X140397873Y-125214500D01*
X140397865Y-125214500D01*
X139866243Y-125214500D01*
X139799204Y-125194815D01*
X139753449Y-125142011D01*
X139743505Y-125072853D01*
X139772530Y-125009297D01*
X139831308Y-124971523D01*
X139843441Y-124968614D01*
X140016198Y-124936321D01*
X140215019Y-124859298D01*
X140396302Y-124747052D01*
X140553872Y-124603407D01*
X140682366Y-124433255D01*
X140682367Y-124433253D01*
X140777403Y-124242394D01*
X140777403Y-124242393D01*
X140777405Y-124242389D01*
X140835756Y-124037310D01*
X140855429Y-123825000D01*
X140854954Y-123819879D01*
X140846529Y-123728951D01*
X140835756Y-123612690D01*
X140777405Y-123407611D01*
X140777403Y-123407606D01*
X140777403Y-123407605D01*
X140682367Y-123216746D01*
X140665361Y-123194227D01*
X140640669Y-123128866D01*
X140655234Y-123060532D01*
X140704431Y-123010919D01*
X140764315Y-122995500D01*
X141217267Y-122995500D01*
X141284306Y-123015185D01*
X141330061Y-123067989D01*
X141340587Y-123132459D01*
X141334540Y-123190000D01*
X141354326Y-123378256D01*
X141354327Y-123378259D01*
X141412818Y-123558277D01*
X141412821Y-123558284D01*
X141507467Y-123722216D01*
X141609185Y-123835185D01*
X141634129Y-123862888D01*
X141787265Y-123974148D01*
X141787270Y-123974151D01*
X141960192Y-124051142D01*
X141960197Y-124051144D01*
X142145354Y-124090500D01*
X142145355Y-124090500D01*
X142334644Y-124090500D01*
X142334646Y-124090500D01*
X142519803Y-124051144D01*
X142692730Y-123974151D01*
X142845871Y-123862888D01*
X142848788Y-123859647D01*
X142851600Y-123856526D01*
X142911087Y-123819879D01*
X142943748Y-123815500D01*
X143497171Y-123815500D01*
X143564210Y-123835185D01*
X143609965Y-123887989D01*
X143619354Y-123945502D01*
X143620540Y-123945502D01*
X143620540Y-123951997D01*
X143620540Y-123952000D01*
X143640326Y-124140256D01*
X143640327Y-124140259D01*
X143698818Y-124320277D01*
X143698821Y-124320284D01*
X143793467Y-124484216D01*
X143900787Y-124603407D01*
X143920129Y-124624888D01*
X144073265Y-124736148D01*
X144073270Y-124736151D01*
X144246191Y-124813142D01*
X144246193Y-124813142D01*
X144246197Y-124813144D01*
X144286271Y-124821661D01*
X144347750Y-124854852D01*
X144381528Y-124916014D01*
X144383810Y-124955907D01*
X144382540Y-124967995D01*
X144382540Y-124967997D01*
X144382540Y-124968000D01*
X144402326Y-125156256D01*
X144402327Y-125156259D01*
X144460818Y-125336277D01*
X144460821Y-125336284D01*
X144555467Y-125500216D01*
X144652081Y-125607516D01*
X144682129Y-125640888D01*
X144835265Y-125752148D01*
X144835270Y-125752151D01*
X145008192Y-125829142D01*
X145008197Y-125829144D01*
X145193354Y-125868500D01*
X145193355Y-125868500D01*
X145382644Y-125868500D01*
X145382646Y-125868500D01*
X145567803Y-125829144D01*
X145740730Y-125752151D01*
X145893871Y-125640888D01*
X145951821Y-125576527D01*
X146011308Y-125539879D01*
X146043971Y-125535500D01*
X146487847Y-125535500D01*
X146554886Y-125555185D01*
X146575528Y-125571819D01*
X147602493Y-126598784D01*
X147612318Y-126611048D01*
X147612539Y-126610866D01*
X147617509Y-126616873D01*
X147617512Y-126616876D01*
X147617513Y-126616877D01*
X147667950Y-126664241D01*
X147688829Y-126685120D01*
X147694303Y-126689366D01*
X147698741Y-126693156D01*
X147732717Y-126725062D01*
X147748855Y-126733934D01*
X147750272Y-126734713D01*
X147766530Y-126745392D01*
X147782363Y-126757674D01*
X147795811Y-126763493D01*
X147825136Y-126776183D01*
X147830380Y-126778752D01*
X147871207Y-126801197D01*
X147890611Y-126806179D01*
X147909009Y-126812478D01*
X147927404Y-126820438D01*
X147973428Y-126827726D01*
X147979131Y-126828907D01*
X148024280Y-126840500D01*
X148044315Y-126840500D01*
X148063712Y-126842026D01*
X148083495Y-126845160D01*
X148129883Y-126840775D01*
X148135721Y-126840500D01*
X148629555Y-126840500D01*
X148696594Y-126860185D01*
X148742349Y-126912989D01*
X148752442Y-126975292D01*
X148752686Y-126975306D01*
X148752750Y-126975306D01*
X148752750Y-126975309D01*
X148752928Y-126975319D01*
X148752808Y-126977550D01*
X148752843Y-126977765D01*
X148752750Y-126978623D01*
X148752750Y-128799370D01*
X148752751Y-128799376D01*
X148759158Y-128858983D01*
X148809452Y-128993828D01*
X148809456Y-128993835D01*
X148895702Y-129109044D01*
X148895705Y-129109047D01*
X149010914Y-129195293D01*
X149010921Y-129195297D01*
X149049139Y-129209551D01*
X149145767Y-129245591D01*
X149205377Y-129252000D01*
X149751122Y-129251999D01*
X149751123Y-129251998D01*
X149751135Y-129251998D01*
X149789994Y-129247820D01*
X149816502Y-129247820D01*
X149855377Y-129252000D01*
X150401122Y-129251999D01*
X150401123Y-129251998D01*
X150401135Y-129251998D01*
X150439994Y-129247820D01*
X150466502Y-129247820D01*
X150505377Y-129252000D01*
X151051122Y-129251999D01*
X151059961Y-129251048D01*
X151092344Y-129247568D01*
X151118856Y-129247568D01*
X151155416Y-129251499D01*
X151155432Y-129251500D01*
X151203250Y-129251500D01*
X151218861Y-129235888D01*
X151222935Y-129222015D01*
X151252939Y-129189788D01*
X151353939Y-129114179D01*
X151419403Y-129089761D01*
X151487676Y-129104612D01*
X151502561Y-129114179D01*
X151603561Y-129189788D01*
X151639360Y-129237610D01*
X151653250Y-129251500D01*
X151701069Y-129251500D01*
X151701083Y-129251499D01*
X151737645Y-129247568D01*
X151764155Y-129247568D01*
X151805377Y-129252000D01*
X152351122Y-129251999D01*
X152351123Y-129251998D01*
X152351135Y-129251998D01*
X152389994Y-129247820D01*
X152416502Y-129247820D01*
X152455377Y-129252000D01*
X153001122Y-129251999D01*
X153001123Y-129251998D01*
X153001135Y-129251998D01*
X153039994Y-129247820D01*
X153066502Y-129247820D01*
X153105377Y-129252000D01*
X153651122Y-129251999D01*
X153659961Y-129251048D01*
X153692344Y-129247568D01*
X153718856Y-129247568D01*
X153755416Y-129251499D01*
X153755432Y-129251500D01*
X153895500Y-129251500D01*
X153962539Y-129271185D01*
X154008294Y-129323989D01*
X154019500Y-129375500D01*
X154019500Y-129416255D01*
X154017775Y-129431872D01*
X154018061Y-129431899D01*
X154017326Y-129439665D01*
X154019500Y-129508814D01*
X154019500Y-129538343D01*
X154019501Y-129538360D01*
X154020368Y-129545231D01*
X154020826Y-129551050D01*
X154022290Y-129597624D01*
X154022291Y-129597627D01*
X154027880Y-129616867D01*
X154031824Y-129635911D01*
X154032887Y-129644327D01*
X154034336Y-129655798D01*
X154035868Y-129661762D01*
X154039084Y-129705556D01*
X154037419Y-129721401D01*
X154030241Y-129789701D01*
X154050027Y-129977957D01*
X154050028Y-129977960D01*
X154108519Y-130157978D01*
X154108522Y-130157985D01*
X154203168Y-130321917D01*
X154288137Y-130416284D01*
X154329830Y-130462589D01*
X154482966Y-130573849D01*
X154482971Y-130573852D01*
X154655893Y-130650843D01*
X154655898Y-130650845D01*
X154841055Y-130690201D01*
X154841056Y-130690201D01*
X155030345Y-130690201D01*
X155030347Y-130690201D01*
X155215504Y-130650845D01*
X155388431Y-130573852D01*
X155541572Y-130462589D01*
X155668234Y-130321917D01*
X155762880Y-130157985D01*
X155762882Y-130157976D01*
X155765473Y-130152161D01*
X155810726Y-130098927D01*
X155877576Y-130078609D01*
X155944799Y-130097658D01*
X155991052Y-130150026D01*
X156002750Y-130202603D01*
X156002750Y-131011561D01*
X155983065Y-131078600D01*
X155930261Y-131124355D01*
X155861103Y-131134299D01*
X155839747Y-131129267D01*
X155797653Y-131115319D01*
X155696654Y-131105000D01*
X155597500Y-131105000D01*
X155597500Y-133054999D01*
X155696640Y-133054999D01*
X155696654Y-133054998D01*
X155797652Y-133044680D01*
X155961300Y-132990453D01*
X155961311Y-132990448D01*
X156108035Y-132899947D01*
X156121960Y-132886021D01*
X156183282Y-132852533D01*
X156252973Y-132857514D01*
X156297327Y-132886017D01*
X156311650Y-132900340D01*
X156458484Y-132990908D01*
X156622247Y-133045174D01*
X156723323Y-133055500D01*
X156923115Y-133055499D01*
X156990154Y-133075183D01*
X157035909Y-133127987D01*
X157045853Y-133197145D01*
X157036395Y-133229933D01*
X157033821Y-133235713D01*
X156989433Y-133372327D01*
X156975326Y-133415744D01*
X156955540Y-133604000D01*
X156975326Y-133792256D01*
X156975327Y-133792259D01*
X157033818Y-133972277D01*
X157033821Y-133972284D01*
X157128467Y-134136216D01*
X157245031Y-134265673D01*
X157255129Y-134276888D01*
X157408265Y-134388148D01*
X157408270Y-134388151D01*
X157581192Y-134465142D01*
X157581197Y-134465144D01*
X157766354Y-134504500D01*
X157766355Y-134504500D01*
X157955644Y-134504500D01*
X157955646Y-134504500D01*
X158140803Y-134465144D01*
X158313730Y-134388151D01*
X158466871Y-134276888D01*
X158593533Y-134136216D01*
X158688179Y-133972284D01*
X158746674Y-133792256D01*
X158766460Y-133604000D01*
X158766459Y-133603998D01*
X158767139Y-133597536D01*
X158769435Y-133597777D01*
X158782139Y-133551342D01*
X158781574Y-133551098D01*
X158783294Y-133547122D01*
X158783729Y-133545533D01*
X158784671Y-133543939D01*
X158784671Y-133543938D01*
X158784673Y-133543936D01*
X158803185Y-133501153D01*
X158805738Y-133495941D01*
X158828197Y-133455092D01*
X158833180Y-133435680D01*
X158839481Y-133417280D01*
X158847437Y-133398896D01*
X158854729Y-133352852D01*
X158855906Y-133347171D01*
X158867500Y-133302019D01*
X158867500Y-133281983D01*
X158869027Y-133262582D01*
X158872160Y-133242804D01*
X158867775Y-133196415D01*
X158867500Y-133190577D01*
X158867500Y-131999247D01*
X158869224Y-131983627D01*
X158868939Y-131983601D01*
X158869671Y-131975845D01*
X158869673Y-131975838D01*
X158867500Y-131906690D01*
X158867500Y-131877155D01*
X158866631Y-131870277D01*
X158866172Y-131864448D01*
X158864709Y-131817877D01*
X158859122Y-131798649D01*
X158855174Y-131779589D01*
X158853299Y-131764744D01*
X158852664Y-131759713D01*
X158852663Y-131759711D01*
X158852663Y-131759709D01*
X158835512Y-131716392D01*
X158833619Y-131710863D01*
X158820618Y-131666114D01*
X158820616Y-131666111D01*
X158810423Y-131648876D01*
X158801861Y-131631399D01*
X158794487Y-131612775D01*
X158794486Y-131612773D01*
X158767079Y-131575050D01*
X158763888Y-131570191D01*
X158740172Y-131530088D01*
X158740165Y-131530079D01*
X158726006Y-131515920D01*
X158713368Y-131501124D01*
X158701594Y-131484918D01*
X158665688Y-131455214D01*
X158661376Y-131451291D01*
X158304128Y-131094042D01*
X158270644Y-131032721D01*
X158275628Y-130963029D01*
X158317500Y-130907096D01*
X158341374Y-130893084D01*
X158352604Y-130888083D01*
X158478230Y-130832151D01*
X158631371Y-130720888D01*
X158758033Y-130580216D01*
X158852679Y-130416284D01*
X158911174Y-130236256D01*
X158930960Y-130048000D01*
X158911174Y-129859744D01*
X158853399Y-129681934D01*
X158851405Y-129612097D01*
X158883648Y-129555940D01*
X159133786Y-129305802D01*
X159146048Y-129295980D01*
X159145865Y-129295759D01*
X159151867Y-129290792D01*
X159151877Y-129290786D01*
X159199241Y-129240348D01*
X159220120Y-129219470D01*
X159224373Y-129213986D01*
X159228150Y-129209563D01*
X159260062Y-129175582D01*
X159269714Y-129158023D01*
X159280389Y-129141772D01*
X159292674Y-129125936D01*
X159311186Y-129083152D01*
X159313742Y-129077935D01*
X159336197Y-129037092D01*
X159341180Y-129017680D01*
X159347477Y-128999291D01*
X159355438Y-128980895D01*
X159362729Y-128934853D01*
X159363908Y-128929162D01*
X159375500Y-128884019D01*
X159375500Y-128863983D01*
X159377027Y-128844582D01*
X159380160Y-128824804D01*
X159375775Y-128778415D01*
X159375500Y-128772577D01*
X159375500Y-127082742D01*
X159377224Y-127067122D01*
X159376939Y-127067095D01*
X159377673Y-127059333D01*
X159375500Y-126990172D01*
X159375500Y-126960656D01*
X159375500Y-126960650D01*
X159374631Y-126953779D01*
X159374173Y-126947952D01*
X159373264Y-126919017D01*
X159372710Y-126901373D01*
X159367119Y-126882130D01*
X159363173Y-126863078D01*
X159360664Y-126843208D01*
X159343504Y-126799867D01*
X159341624Y-126794379D01*
X159328618Y-126749610D01*
X159320273Y-126735500D01*
X159318423Y-126732371D01*
X159309861Y-126714894D01*
X159302487Y-126696270D01*
X159300117Y-126693008D01*
X159275079Y-126658545D01*
X159271888Y-126653686D01*
X159269964Y-126650433D01*
X159250120Y-126616877D01*
X159248172Y-126613583D01*
X159248165Y-126613574D01*
X159234006Y-126599415D01*
X159221368Y-126584619D01*
X159209594Y-126568413D01*
X159183492Y-126546820D01*
X159173688Y-126538709D01*
X159169376Y-126534786D01*
X157786772Y-125152181D01*
X157753287Y-125090858D01*
X157758271Y-125021166D01*
X157800143Y-124965233D01*
X157865607Y-124940816D01*
X157874453Y-124940500D01*
X158984548Y-124940500D01*
X159051587Y-124960185D01*
X159072229Y-124976819D01*
X159949762Y-125854352D01*
X159983247Y-125915675D01*
X159981856Y-125974126D01*
X159954938Y-126074586D01*
X159954936Y-126074596D01*
X159934341Y-126309999D01*
X159934341Y-126310000D01*
X159954936Y-126545403D01*
X159954938Y-126545413D01*
X160016094Y-126773655D01*
X160016096Y-126773659D01*
X160016097Y-126773663D01*
X160081066Y-126912989D01*
X160115965Y-126987830D01*
X160115967Y-126987834D01*
X160251501Y-127181395D01*
X160251506Y-127181402D01*
X160418597Y-127348493D01*
X160418603Y-127348498D01*
X160604158Y-127478425D01*
X160647783Y-127533002D01*
X160654977Y-127602500D01*
X160623454Y-127664855D01*
X160604158Y-127681575D01*
X160418597Y-127811505D01*
X160251505Y-127978597D01*
X160115965Y-128172169D01*
X160115964Y-128172171D01*
X160016098Y-128386335D01*
X160016094Y-128386344D01*
X159954938Y-128614586D01*
X159954936Y-128614596D01*
X159934341Y-128849999D01*
X159934341Y-128850000D01*
X159954936Y-129085403D01*
X159954938Y-129085413D01*
X160016094Y-129313655D01*
X160016096Y-129313659D01*
X160016097Y-129313663D01*
X160071219Y-129431872D01*
X160115965Y-129527830D01*
X160115967Y-129527834D01*
X160191649Y-129635918D01*
X160251505Y-129721401D01*
X160418599Y-129888495D01*
X160515384Y-129956265D01*
X160612165Y-130024032D01*
X160612167Y-130024033D01*
X160612170Y-130024035D01*
X160826337Y-130123903D01*
X161054592Y-130185063D01*
X161242918Y-130201539D01*
X161289999Y-130205659D01*
X161290000Y-130205659D01*
X161290001Y-130205659D01*
X161329234Y-130202226D01*
X161525408Y-130185063D01*
X161753663Y-130123903D01*
X161967830Y-130024035D01*
X162161401Y-129888495D01*
X162328495Y-129721401D01*
X162464035Y-129527830D01*
X162563903Y-129313663D01*
X162625063Y-129085408D01*
X162645659Y-128850000D01*
X162625063Y-128614592D01*
X162598143Y-128514123D01*
X162599806Y-128444277D01*
X162630235Y-128394354D01*
X162848788Y-128175801D01*
X162861042Y-128165986D01*
X162860859Y-128165764D01*
X162866866Y-128160792D01*
X162866877Y-128160786D01*
X162897775Y-128127882D01*
X162914227Y-128110364D01*
X162924671Y-128099918D01*
X162935120Y-128089471D01*
X162939379Y-128083978D01*
X162943152Y-128079561D01*
X162975062Y-128045582D01*
X162984715Y-128028020D01*
X162995389Y-128011770D01*
X163007673Y-127995936D01*
X163026180Y-127953167D01*
X163028749Y-127947924D01*
X163051196Y-127907093D01*
X163051197Y-127907092D01*
X163056177Y-127887691D01*
X163062478Y-127869288D01*
X163070438Y-127850896D01*
X163077730Y-127804849D01*
X163078911Y-127799152D01*
X163080192Y-127794163D01*
X163090500Y-127754019D01*
X163090500Y-127733983D01*
X163092027Y-127714582D01*
X163095160Y-127694804D01*
X163090775Y-127648415D01*
X163090500Y-127642577D01*
X163090500Y-123366041D01*
X163092224Y-123350421D01*
X163091939Y-123350395D01*
X163092671Y-123342639D01*
X163092673Y-123342632D01*
X163090500Y-123273484D01*
X163090500Y-123243949D01*
X163089631Y-123237071D01*
X163089172Y-123231242D01*
X163087709Y-123184671D01*
X163082122Y-123165443D01*
X163078174Y-123146383D01*
X163077936Y-123144500D01*
X163075664Y-123126507D01*
X163075663Y-123126505D01*
X163075663Y-123126503D01*
X163058512Y-123083186D01*
X163056619Y-123077657D01*
X163043618Y-123032908D01*
X163043616Y-123032905D01*
X163033423Y-123015670D01*
X163024861Y-122998193D01*
X163017487Y-122979569D01*
X163017486Y-122979567D01*
X162990079Y-122941844D01*
X162986888Y-122936985D01*
X162978781Y-122923277D01*
X162963170Y-122896879D01*
X162963168Y-122896877D01*
X162963165Y-122896873D01*
X162949006Y-122882714D01*
X162936368Y-122867918D01*
X162924594Y-122851712D01*
X162888688Y-122822008D01*
X162884376Y-122818085D01*
X162335473Y-122269181D01*
X162301988Y-122207858D01*
X162306972Y-122138166D01*
X162325688Y-122106045D01*
X162325389Y-122105836D01*
X162327904Y-122102242D01*
X162328170Y-122101788D01*
X162328486Y-122101409D01*
X162328495Y-122101401D01*
X162464035Y-121907830D01*
X162563903Y-121693663D01*
X162625063Y-121465408D01*
X162645659Y-121230000D01*
X162625063Y-120994592D01*
X162563903Y-120766337D01*
X162464035Y-120552171D01*
X162349280Y-120388282D01*
X162328494Y-120358597D01*
X162161402Y-120191506D01*
X162161396Y-120191501D01*
X161975842Y-120061575D01*
X161932217Y-120006998D01*
X161925023Y-119937500D01*
X161956546Y-119875145D01*
X161975842Y-119858425D01*
X162116163Y-119760171D01*
X162161401Y-119728495D01*
X162328495Y-119561401D01*
X162464035Y-119367830D01*
X162563903Y-119153663D01*
X162625063Y-118925408D01*
X162645659Y-118690000D01*
X162644556Y-118677398D01*
X162635360Y-118572286D01*
X162625063Y-118454592D01*
X162563903Y-118226337D01*
X162464035Y-118012171D01*
X162460566Y-118007216D01*
X162328494Y-117818597D01*
X162161402Y-117651506D01*
X162161396Y-117651501D01*
X161975842Y-117521575D01*
X161932217Y-117466998D01*
X161925023Y-117397500D01*
X161956546Y-117335145D01*
X161975842Y-117318425D01*
X162045054Y-117269962D01*
X162161401Y-117188495D01*
X162328495Y-117021401D01*
X162464035Y-116827830D01*
X162563903Y-116613663D01*
X162625063Y-116385408D01*
X162645659Y-116150000D01*
X162644928Y-116141650D01*
X162635509Y-116033985D01*
X162625063Y-115914592D01*
X162571305Y-115713961D01*
X162563905Y-115686344D01*
X162563904Y-115686343D01*
X162563903Y-115686337D01*
X162464035Y-115472171D01*
X162451857Y-115454778D01*
X162328494Y-115278597D01*
X162161402Y-115111506D01*
X162161396Y-115111501D01*
X161975842Y-114981575D01*
X161932217Y-114926998D01*
X161925023Y-114857500D01*
X161956546Y-114795145D01*
X161975842Y-114778425D01*
X162066606Y-114714871D01*
X162161401Y-114648495D01*
X162328495Y-114481401D01*
X162464035Y-114287830D01*
X162563903Y-114073663D01*
X162625063Y-113845408D01*
X162645659Y-113610000D01*
X162625063Y-113374592D01*
X162570807Y-113172105D01*
X162563905Y-113146344D01*
X162563904Y-113146343D01*
X162563903Y-113146337D01*
X162464035Y-112932171D01*
X162422055Y-112872216D01*
X162328494Y-112738597D01*
X162161402Y-112571506D01*
X162161396Y-112571501D01*
X161975842Y-112441575D01*
X161932217Y-112386998D01*
X161925023Y-112317500D01*
X161956546Y-112255145D01*
X161975842Y-112238425D01*
X162067179Y-112174470D01*
X162161401Y-112108495D01*
X162328495Y-111941401D01*
X162464035Y-111747830D01*
X162563903Y-111533663D01*
X162625063Y-111305408D01*
X162645659Y-111070000D01*
X162625063Y-110834592D01*
X162563903Y-110606337D01*
X162464035Y-110392171D01*
X162452827Y-110376163D01*
X162328494Y-110198597D01*
X162161402Y-110031506D01*
X162161396Y-110031501D01*
X161975842Y-109901575D01*
X161932217Y-109846998D01*
X161925023Y-109777500D01*
X161956546Y-109715145D01*
X161975842Y-109698425D01*
X162045054Y-109649962D01*
X162161401Y-109568495D01*
X162328495Y-109401401D01*
X162464035Y-109207830D01*
X162563903Y-108993663D01*
X162625063Y-108765408D01*
X162645659Y-108530000D01*
X162625063Y-108294592D01*
X162563903Y-108066337D01*
X162464035Y-107852171D01*
X162422055Y-107792216D01*
X162328494Y-107658597D01*
X162161402Y-107491506D01*
X162161396Y-107491501D01*
X161975842Y-107361575D01*
X161932217Y-107306998D01*
X161925023Y-107237500D01*
X161956546Y-107175145D01*
X161975842Y-107158425D01*
X161998026Y-107142891D01*
X162161401Y-107028495D01*
X162328495Y-106861401D01*
X162464035Y-106667830D01*
X162563903Y-106453663D01*
X162625063Y-106225408D01*
X162645659Y-105990000D01*
X162644928Y-105981650D01*
X162635509Y-105873985D01*
X162625063Y-105754592D01*
X162563903Y-105526337D01*
X162464035Y-105312171D01*
X162390660Y-105207379D01*
X162328494Y-105118597D01*
X162161402Y-104951506D01*
X162161396Y-104951501D01*
X161975842Y-104821575D01*
X161932217Y-104766998D01*
X161925023Y-104697500D01*
X161956546Y-104635145D01*
X161975842Y-104618425D01*
X162054700Y-104563208D01*
X162161401Y-104488495D01*
X162328495Y-104321401D01*
X162464035Y-104127830D01*
X162563903Y-103913663D01*
X162625063Y-103685408D01*
X162645659Y-103450000D01*
X162625063Y-103214592D01*
X162569105Y-103005751D01*
X162563905Y-102986344D01*
X162563904Y-102986343D01*
X162563903Y-102986337D01*
X162464035Y-102772171D01*
X162452827Y-102756163D01*
X162328494Y-102578597D01*
X162161402Y-102411506D01*
X162161396Y-102411501D01*
X161975842Y-102281575D01*
X161932217Y-102226998D01*
X161925023Y-102157500D01*
X161956546Y-102095145D01*
X161975842Y-102078425D01*
X162081983Y-102004104D01*
X162161401Y-101948495D01*
X162328495Y-101781401D01*
X162464035Y-101587830D01*
X162563903Y-101373663D01*
X162625063Y-101145408D01*
X162645659Y-100910000D01*
X162643878Y-100889649D01*
X162627135Y-100698277D01*
X162625063Y-100674592D01*
X162563903Y-100446337D01*
X162464035Y-100232171D01*
X162410648Y-100155925D01*
X162328494Y-100038597D01*
X162161402Y-99871506D01*
X162161396Y-99871501D01*
X161975842Y-99741575D01*
X161932217Y-99686998D01*
X161925023Y-99617500D01*
X161956546Y-99555145D01*
X161975842Y-99538425D01*
X162075195Y-99468857D01*
X162161401Y-99408495D01*
X162328495Y-99241401D01*
X162464035Y-99047830D01*
X162563903Y-98833663D01*
X162625063Y-98605408D01*
X162645659Y-98370000D01*
X162625063Y-98134592D01*
X162563903Y-97906337D01*
X162464035Y-97692171D01*
X162438853Y-97656206D01*
X162328494Y-97498597D01*
X162161402Y-97331506D01*
X162161396Y-97331501D01*
X161975842Y-97201575D01*
X161932217Y-97146998D01*
X161925023Y-97077500D01*
X161956546Y-97015145D01*
X161975842Y-96998425D01*
X162054700Y-96943208D01*
X162161401Y-96868495D01*
X162328495Y-96701401D01*
X162464035Y-96507830D01*
X162563903Y-96293663D01*
X162625063Y-96065408D01*
X162645659Y-95830000D01*
X162644928Y-95821650D01*
X162637422Y-95735849D01*
X162625063Y-95594592D01*
X162563903Y-95366337D01*
X162464035Y-95152171D01*
X162400717Y-95061742D01*
X162328494Y-94958597D01*
X162161402Y-94791506D01*
X162161396Y-94791501D01*
X161975842Y-94661575D01*
X161932217Y-94606998D01*
X161925023Y-94537500D01*
X161956546Y-94475145D01*
X161975842Y-94458425D01*
X161998026Y-94442891D01*
X162161401Y-94328495D01*
X162328495Y-94161401D01*
X162464035Y-93967830D01*
X162563903Y-93753663D01*
X162625063Y-93525408D01*
X162645659Y-93290000D01*
X162625063Y-93054592D01*
X162563903Y-92826337D01*
X162464035Y-92612171D01*
X162376550Y-92487228D01*
X162328494Y-92418597D01*
X162161402Y-92251506D01*
X162161396Y-92251501D01*
X161975842Y-92121575D01*
X161932217Y-92066998D01*
X161925023Y-91997500D01*
X161956546Y-91935145D01*
X161975842Y-91918425D01*
X162075195Y-91848857D01*
X162161401Y-91788495D01*
X162328495Y-91621401D01*
X162464035Y-91427830D01*
X162563903Y-91213663D01*
X162625063Y-90985408D01*
X162645659Y-90750000D01*
X162625063Y-90514592D01*
X162563903Y-90286337D01*
X162464035Y-90072171D01*
X162350008Y-89909322D01*
X162328494Y-89878597D01*
X162161402Y-89711506D01*
X162161396Y-89711501D01*
X161975842Y-89581575D01*
X161932217Y-89526998D01*
X161925023Y-89457500D01*
X161956546Y-89395145D01*
X161975842Y-89378425D01*
X161998026Y-89362891D01*
X162161401Y-89248495D01*
X162328495Y-89081401D01*
X162464035Y-88887830D01*
X162563903Y-88673663D01*
X162625063Y-88445408D01*
X162645659Y-88210000D01*
X162625063Y-87974592D01*
X162563903Y-87746337D01*
X162464035Y-87532171D01*
X162422055Y-87472216D01*
X162328494Y-87338597D01*
X162161402Y-87171506D01*
X162161396Y-87171501D01*
X161975842Y-87041575D01*
X161932217Y-86986998D01*
X161925023Y-86917500D01*
X161956546Y-86855145D01*
X161975842Y-86838425D01*
X162085685Y-86761512D01*
X162161401Y-86708495D01*
X162328495Y-86541401D01*
X162464035Y-86347830D01*
X162563903Y-86133663D01*
X162625063Y-85905408D01*
X162645659Y-85670000D01*
X162625063Y-85434592D01*
X162563903Y-85206337D01*
X162464035Y-84992171D01*
X162422055Y-84932216D01*
X162328494Y-84798597D01*
X162161402Y-84631506D01*
X162161401Y-84631505D01*
X161975405Y-84501269D01*
X161931781Y-84446692D01*
X161924588Y-84377193D01*
X161956110Y-84314839D01*
X161975405Y-84298119D01*
X162161082Y-84168105D01*
X162328105Y-84001082D01*
X162463600Y-83807578D01*
X162563429Y-83593492D01*
X162563432Y-83593486D01*
X162620636Y-83380000D01*
X161723686Y-83380000D01*
X161749493Y-83339844D01*
X161790000Y-83201889D01*
X161790000Y-83058111D01*
X161749493Y-82920156D01*
X161723686Y-82880000D01*
X162620636Y-82880000D01*
X162620635Y-82879999D01*
X162563432Y-82666513D01*
X162563429Y-82666507D01*
X162463600Y-82452422D01*
X162463599Y-82452420D01*
X162328113Y-82258926D01*
X162328108Y-82258920D01*
X162206053Y-82136865D01*
X162172568Y-82075542D01*
X162177552Y-82005850D01*
X162219424Y-81949917D01*
X162250400Y-81933002D01*
X162382331Y-81883796D01*
X162497546Y-81797546D01*
X162583796Y-81682331D01*
X162634091Y-81547483D01*
X162640500Y-81487873D01*
X162640499Y-79692128D01*
X162634091Y-79632517D01*
X162583797Y-79497673D01*
X162583797Y-79497671D01*
X162583793Y-79497664D01*
X162497547Y-79382455D01*
X162497544Y-79382452D01*
X162382335Y-79296206D01*
X162382328Y-79296202D01*
X162247482Y-79245908D01*
X162247483Y-79245908D01*
X162187883Y-79239501D01*
X162187881Y-79239500D01*
X162187873Y-79239500D01*
X162187864Y-79239500D01*
X160392129Y-79239500D01*
X160392123Y-79239501D01*
X160332516Y-79245908D01*
X160197671Y-79296202D01*
X160197664Y-79296206D01*
X160082455Y-79382452D01*
X160082452Y-79382455D01*
X159996206Y-79497664D01*
X159996202Y-79497671D01*
X159945908Y-79632517D01*
X159941089Y-79677346D01*
X159939501Y-79692123D01*
X159939500Y-79692135D01*
X159939500Y-81487870D01*
X159939501Y-81487876D01*
X159945908Y-81547483D01*
X159996202Y-81682328D01*
X159996206Y-81682335D01*
X160082452Y-81797544D01*
X160082455Y-81797547D01*
X160197664Y-81883793D01*
X160197671Y-81883797D01*
X160197674Y-81883798D01*
X160329598Y-81933002D01*
X160385531Y-81974873D01*
X160409949Y-82040337D01*
X160395098Y-82108610D01*
X160373947Y-82136865D01*
X160251886Y-82258926D01*
X160116400Y-82452420D01*
X160116399Y-82452422D01*
X160016570Y-82666507D01*
X160016567Y-82666513D01*
X159959364Y-82879999D01*
X159959364Y-82880000D01*
X160856314Y-82880000D01*
X160830507Y-82920156D01*
X160790000Y-83058111D01*
X160790000Y-83201889D01*
X160830507Y-83339844D01*
X160856314Y-83380000D01*
X159959364Y-83380000D01*
X160016567Y-83593486D01*
X160016570Y-83593492D01*
X160116399Y-83807578D01*
X160251894Y-84001082D01*
X160418917Y-84168105D01*
X160604595Y-84298119D01*
X160648219Y-84352696D01*
X160655412Y-84422195D01*
X160623890Y-84484549D01*
X160604595Y-84501269D01*
X160418594Y-84631508D01*
X160251505Y-84798597D01*
X160115965Y-84992169D01*
X160115964Y-84992171D01*
X160016098Y-85206335D01*
X160016094Y-85206344D01*
X159954938Y-85434586D01*
X159954936Y-85434596D01*
X159934341Y-85669999D01*
X159934341Y-85670000D01*
X159954936Y-85905403D01*
X159954938Y-85905413D01*
X159981856Y-86005872D01*
X159980193Y-86075722D01*
X159949762Y-86125646D01*
X155826208Y-90249199D01*
X155813951Y-90259020D01*
X155814134Y-90259241D01*
X155808123Y-90264213D01*
X155760772Y-90314636D01*
X155739889Y-90335519D01*
X155739877Y-90335532D01*
X155735621Y-90341017D01*
X155731837Y-90345447D01*
X155699937Y-90379418D01*
X155699936Y-90379420D01*
X155690284Y-90396976D01*
X155679610Y-90413226D01*
X155667329Y-90429061D01*
X155667324Y-90429068D01*
X155648815Y-90471838D01*
X155646245Y-90477084D01*
X155623803Y-90517906D01*
X155618822Y-90537307D01*
X155612521Y-90555710D01*
X155604562Y-90574102D01*
X155604561Y-90574105D01*
X155597271Y-90620127D01*
X155596087Y-90625846D01*
X155584501Y-90670972D01*
X155584500Y-90670982D01*
X155584500Y-90691016D01*
X155582973Y-90710415D01*
X155579840Y-90730194D01*
X155579840Y-90730195D01*
X155584225Y-90776583D01*
X155584500Y-90782421D01*
X155584500Y-95692155D01*
X155564815Y-95759194D01*
X155512011Y-95804949D01*
X155442853Y-95814893D01*
X155379297Y-95785868D01*
X155372819Y-95779836D01*
X155293038Y-95700055D01*
X155293034Y-95700052D01*
X155146311Y-95609551D01*
X155146300Y-95609546D01*
X154982652Y-95555319D01*
X154881654Y-95545000D01*
X154782500Y-95545000D01*
X154782500Y-96646000D01*
X154762815Y-96713039D01*
X154710011Y-96758794D01*
X154658500Y-96770000D01*
X154406500Y-96770000D01*
X154339461Y-96750315D01*
X154293706Y-96697511D01*
X154282500Y-96646000D01*
X154282500Y-95544999D01*
X154183360Y-95545000D01*
X154183344Y-95545001D01*
X154082347Y-95555319D01*
X153918699Y-95609546D01*
X153918688Y-95609551D01*
X153771965Y-95700052D01*
X153758032Y-95713985D01*
X153696708Y-95747468D01*
X153627016Y-95742482D01*
X153582672Y-95713982D01*
X153568350Y-95699660D01*
X153568346Y-95699657D01*
X153491903Y-95652506D01*
X153445178Y-95600558D01*
X153433000Y-95546968D01*
X153433000Y-93200242D01*
X153434724Y-93184622D01*
X153434439Y-93184596D01*
X153435171Y-93176840D01*
X153435173Y-93176833D01*
X153433000Y-93107685D01*
X153433000Y-93078150D01*
X153432131Y-93071272D01*
X153431672Y-93065443D01*
X153430209Y-93018872D01*
X153424622Y-92999644D01*
X153420674Y-92980584D01*
X153418163Y-92960704D01*
X153401012Y-92917387D01*
X153399119Y-92911858D01*
X153386118Y-92867109D01*
X153386116Y-92867106D01*
X153375923Y-92849871D01*
X153367361Y-92832394D01*
X153359987Y-92813769D01*
X153354846Y-92806694D01*
X153332585Y-92776055D01*
X153329395Y-92771198D01*
X153321869Y-92758471D01*
X153305283Y-92708319D01*
X153285674Y-92521744D01*
X153227179Y-92341716D01*
X153132533Y-92177784D01*
X153005871Y-92037112D01*
X153005870Y-92037111D01*
X152852734Y-91925851D01*
X152852729Y-91925848D01*
X152679807Y-91848857D01*
X152679802Y-91848855D01*
X152534001Y-91817865D01*
X152494646Y-91809500D01*
X152305354Y-91809500D01*
X152272897Y-91816398D01*
X152120197Y-91848855D01*
X152120192Y-91848857D01*
X151947270Y-91925848D01*
X151941637Y-91929101D01*
X151940145Y-91926517D01*
X151886483Y-91945617D01*
X151818441Y-91929739D01*
X151769785Y-91879595D01*
X151755500Y-91821814D01*
X151755500Y-83669452D01*
X151775185Y-83602413D01*
X151827989Y-83556658D01*
X151897147Y-83546714D01*
X151960703Y-83575739D01*
X151967179Y-83581769D01*
X152989557Y-84604148D01*
X154001038Y-85615629D01*
X154034523Y-85676952D01*
X154036678Y-85690348D01*
X154044968Y-85769227D01*
X154054326Y-85858256D01*
X154054327Y-85858259D01*
X154112818Y-86038277D01*
X154112821Y-86038284D01*
X154207467Y-86202216D01*
X154265899Y-86267111D01*
X154334129Y-86342888D01*
X154487265Y-86454148D01*
X154487270Y-86454151D01*
X154660192Y-86531142D01*
X154660197Y-86531144D01*
X154845354Y-86570500D01*
X154845355Y-86570500D01*
X155034644Y-86570500D01*
X155034646Y-86570500D01*
X155219803Y-86531144D01*
X155392730Y-86454151D01*
X155545871Y-86342888D01*
X155672533Y-86202216D01*
X155767179Y-86038284D01*
X155825674Y-85858256D01*
X155845460Y-85670000D01*
X155825674Y-85481744D01*
X155767179Y-85301716D01*
X155672533Y-85137784D01*
X155545871Y-84997112D01*
X155545870Y-84997111D01*
X155392734Y-84885851D01*
X155392729Y-84885848D01*
X155219807Y-84808857D01*
X155219802Y-84808855D01*
X155074001Y-84777865D01*
X155034646Y-84769500D01*
X155034645Y-84769500D01*
X154975452Y-84769500D01*
X154908413Y-84749815D01*
X154887771Y-84733181D01*
X148521819Y-78367228D01*
X148488334Y-78305905D01*
X148485500Y-78279547D01*
X148485500Y-70554366D01*
X148505185Y-70487327D01*
X148557989Y-70441572D01*
X148627147Y-70431628D01*
X148661905Y-70441984D01*
X148761507Y-70488430D01*
X148761516Y-70488433D01*
X148989673Y-70549567D01*
X148989684Y-70549569D01*
X149224998Y-70570157D01*
X149225002Y-70570157D01*
X149460315Y-70549569D01*
X149460326Y-70549567D01*
X149688483Y-70488433D01*
X149688492Y-70488429D01*
X149902578Y-70388600D01*
X149902582Y-70388598D01*
X149986373Y-70329926D01*
X149986373Y-70329925D01*
X149357534Y-69701086D01*
X149367315Y-69699680D01*
X149498100Y-69639952D01*
X149606761Y-69545798D01*
X149684493Y-69424844D01*
X149708076Y-69344524D01*
X150339925Y-69976373D01*
X150393425Y-69899968D01*
X150448002Y-69856344D01*
X150517501Y-69849151D01*
X150579855Y-69880673D01*
X150596576Y-69899969D01*
X150650073Y-69976372D01*
X151281922Y-69344523D01*
X151305507Y-69424844D01*
X151383239Y-69545798D01*
X151491900Y-69639952D01*
X151622685Y-69699680D01*
X151632466Y-69701086D01*
X151003625Y-70329925D01*
X151087421Y-70388599D01*
X151301507Y-70488429D01*
X151301516Y-70488433D01*
X151529673Y-70549567D01*
X151529684Y-70549569D01*
X151764998Y-70570157D01*
X151765002Y-70570157D01*
X152000315Y-70549569D01*
X152000326Y-70549567D01*
X152228483Y-70488433D01*
X152228492Y-70488429D01*
X152442578Y-70388600D01*
X152442582Y-70388598D01*
X152526373Y-70329926D01*
X152526373Y-70329925D01*
X151897533Y-69701086D01*
X151907315Y-69699680D01*
X152038100Y-69639952D01*
X152146761Y-69545798D01*
X152224493Y-69424844D01*
X152248076Y-69344524D01*
X152879925Y-69976373D01*
X152933425Y-69899968D01*
X152988002Y-69856344D01*
X153057501Y-69849151D01*
X153119855Y-69880673D01*
X153136576Y-69899969D01*
X153190073Y-69976372D01*
X153821922Y-69344523D01*
X153845507Y-69424844D01*
X153923239Y-69545798D01*
X154031900Y-69639952D01*
X154162685Y-69699680D01*
X154172466Y-69701086D01*
X153543625Y-70329925D01*
X153627421Y-70388599D01*
X153841507Y-70488429D01*
X153841516Y-70488433D01*
X154069673Y-70549567D01*
X154069684Y-70549569D01*
X154304998Y-70570157D01*
X154305002Y-70570157D01*
X154540315Y-70549569D01*
X154540326Y-70549567D01*
X154768483Y-70488433D01*
X154768492Y-70488429D01*
X154982578Y-70388600D01*
X154982582Y-70388598D01*
X155066373Y-70329926D01*
X155066373Y-70329925D01*
X154437533Y-69701086D01*
X154447315Y-69699680D01*
X154578100Y-69639952D01*
X154686761Y-69545798D01*
X154764493Y-69424844D01*
X154788076Y-69344524D01*
X155419925Y-69976373D01*
X155473119Y-69900405D01*
X155527696Y-69856781D01*
X155597195Y-69849588D01*
X155659549Y-69881110D01*
X155676269Y-69900405D01*
X155806505Y-70086401D01*
X155973599Y-70253495D01*
X156070384Y-70321265D01*
X156167165Y-70389032D01*
X156167167Y-70389033D01*
X156167170Y-70389035D01*
X156381337Y-70488903D01*
X156609592Y-70550063D01*
X156797918Y-70566539D01*
X156844999Y-70570659D01*
X156845000Y-70570659D01*
X156845001Y-70570659D01*
X156884234Y-70567226D01*
X157080408Y-70550063D01*
X157308663Y-70488903D01*
X157522830Y-70389035D01*
X157716401Y-70253495D01*
X157883495Y-70086401D01*
X158019035Y-69892830D01*
X158118903Y-69678663D01*
X158180063Y-69450408D01*
X158200659Y-69215000D01*
X158180063Y-68979592D01*
X158118903Y-68751337D01*
X158019035Y-68537171D01*
X158013731Y-68529595D01*
X157883494Y-68343597D01*
X157716398Y-68176501D01*
X157715030Y-68175354D01*
X157714592Y-68174696D01*
X157712573Y-68172677D01*
X157712978Y-68172271D01*
X157676330Y-68117182D01*
X157675224Y-68047321D01*
X157712063Y-67987952D01*
X157755737Y-67962662D01*
X157764334Y-67959814D01*
X157913656Y-67867712D01*
X158037712Y-67743656D01*
X158129814Y-67594334D01*
X158184999Y-67427797D01*
X158195500Y-67325009D01*
X158195499Y-66024992D01*
X158184999Y-65922203D01*
X158129814Y-65755666D01*
X158037712Y-65606344D01*
X157913656Y-65482288D01*
X157820888Y-65425069D01*
X157764336Y-65390187D01*
X157764331Y-65390185D01*
X157762862Y-65389698D01*
X157597797Y-65335001D01*
X157597795Y-65335000D01*
X157495010Y-65324500D01*
X156194998Y-65324500D01*
X156194981Y-65324501D01*
X156092203Y-65335000D01*
X156092200Y-65335001D01*
X155925668Y-65390185D01*
X155925663Y-65390187D01*
X155776342Y-65482289D01*
X155652289Y-65606342D01*
X155560187Y-65755663D01*
X155560183Y-65755673D01*
X155557335Y-65764268D01*
X155517560Y-65821711D01*
X155453044Y-65848531D01*
X155384268Y-65836214D01*
X155347517Y-65807233D01*
X155347324Y-65807427D01*
X155345682Y-65805785D01*
X155344642Y-65804965D01*
X155343494Y-65803597D01*
X155176402Y-65636506D01*
X155176396Y-65636502D01*
X155133324Y-65606342D01*
X154982834Y-65500967D01*
X154982830Y-65500965D01*
X154942777Y-65482288D01*
X154768663Y-65401097D01*
X154768659Y-65401096D01*
X154768655Y-65401094D01*
X154540413Y-65339938D01*
X154540403Y-65339936D01*
X154305001Y-65319341D01*
X154304999Y-65319341D01*
X154069590Y-65339937D01*
X154069589Y-65339937D01*
X153969124Y-65366855D01*
X153899274Y-65365191D01*
X153849352Y-65334761D01*
X152265803Y-63751212D01*
X152255980Y-63738950D01*
X152255759Y-63739134D01*
X152250786Y-63733123D01*
X152238029Y-63721143D01*
X152200364Y-63685773D01*
X152185190Y-63670599D01*
X152179475Y-63664883D01*
X152173986Y-63660625D01*
X152169561Y-63656847D01*
X152135582Y-63624938D01*
X152135580Y-63624936D01*
X152135577Y-63624935D01*
X152118029Y-63615288D01*
X152101763Y-63604604D01*
X152085933Y-63592325D01*
X152043168Y-63573818D01*
X152037922Y-63571248D01*
X151997093Y-63548803D01*
X151997092Y-63548802D01*
X151977693Y-63543822D01*
X151959281Y-63537518D01*
X151940898Y-63529562D01*
X151940892Y-63529560D01*
X151894874Y-63522272D01*
X151889152Y-63521087D01*
X151844021Y-63509500D01*
X151844019Y-63509500D01*
X151823984Y-63509500D01*
X151804586Y-63507973D01*
X151790695Y-63505773D01*
X151784805Y-63504840D01*
X151784804Y-63504840D01*
X151738416Y-63509225D01*
X151732578Y-63509500D01*
X131515847Y-63509500D01*
X131492615Y-63507304D01*
X131484588Y-63505773D01*
X131484586Y-63505773D01*
X131475633Y-63506336D01*
X131427275Y-63509378D01*
X131423403Y-63509500D01*
X131405643Y-63509500D01*
X131388032Y-63511725D01*
X131384164Y-63512090D01*
X131352375Y-63514090D01*
X131326859Y-63515696D01*
X131319085Y-63518222D01*
X131296320Y-63523310D01*
X131288218Y-63524333D01*
X131288205Y-63524337D01*
X131234810Y-63545477D01*
X131231154Y-63546792D01*
X131176559Y-63564533D01*
X131176556Y-63564534D01*
X131169652Y-63568915D01*
X131148880Y-63579499D01*
X131141273Y-63582511D01*
X131141262Y-63582517D01*
X131094814Y-63616263D01*
X131091595Y-63618451D01*
X131043123Y-63649213D01*
X131043120Y-63649216D01*
X131037529Y-63655170D01*
X131020029Y-63670599D01*
X131013413Y-63675405D01*
X131013412Y-63675406D01*
X130976812Y-63719646D01*
X130974238Y-63722565D01*
X130934937Y-63764417D01*
X130934935Y-63764420D01*
X130930994Y-63771589D01*
X130917889Y-63790873D01*
X130912677Y-63797173D01*
X130912674Y-63797178D01*
X130888231Y-63849121D01*
X130886464Y-63852589D01*
X130858804Y-63902903D01*
X130858803Y-63902908D01*
X130856769Y-63910828D01*
X130848870Y-63932768D01*
X130845386Y-63940172D01*
X130845384Y-63940178D01*
X130834629Y-63996561D01*
X130833779Y-64000361D01*
X130819500Y-64055976D01*
X130819500Y-64064152D01*
X130817305Y-64087379D01*
X130815773Y-64095412D01*
X130819378Y-64152724D01*
X130819500Y-64156595D01*
X130819500Y-70982255D01*
X130817775Y-70997872D01*
X130818061Y-70997899D01*
X130817326Y-71005665D01*
X130819500Y-71074814D01*
X130819500Y-71104343D01*
X130819501Y-71104360D01*
X130820368Y-71111231D01*
X130820826Y-71117050D01*
X130822290Y-71163624D01*
X130822291Y-71163627D01*
X130827880Y-71182867D01*
X130831824Y-71201911D01*
X130834336Y-71221791D01*
X130851490Y-71265119D01*
X130853382Y-71270647D01*
X130866381Y-71315388D01*
X130876580Y-71332634D01*
X130885138Y-71350103D01*
X130892514Y-71368732D01*
X130919898Y-71406423D01*
X130923106Y-71411307D01*
X130946827Y-71451416D01*
X130946833Y-71451424D01*
X130960990Y-71465580D01*
X130973628Y-71480376D01*
X130985405Y-71496586D01*
X130985406Y-71496587D01*
X131021309Y-71526288D01*
X131025620Y-71530210D01*
X135711830Y-76216420D01*
X140308181Y-80812771D01*
X140341666Y-80874094D01*
X140344500Y-80900452D01*
X140344500Y-82255242D01*
X140324815Y-82322281D01*
X140272011Y-82368036D01*
X140202853Y-82377980D01*
X140139297Y-82348955D01*
X140132819Y-82342923D01*
X139956108Y-82166212D01*
X139946285Y-82153950D01*
X139946064Y-82154134D01*
X139941091Y-82148123D01*
X139890669Y-82100773D01*
X139880224Y-82090328D01*
X139869780Y-82079883D01*
X139864291Y-82075625D01*
X139859866Y-82071847D01*
X139826312Y-82040337D01*
X139825885Y-82039936D01*
X139825882Y-82039935D01*
X139808334Y-82030288D01*
X139792068Y-82019604D01*
X139776238Y-82007325D01*
X139733473Y-81988818D01*
X139728227Y-81986248D01*
X139687398Y-81963803D01*
X139687397Y-81963802D01*
X139667998Y-81958822D01*
X139649586Y-81952518D01*
X139631203Y-81944562D01*
X139631197Y-81944560D01*
X139585179Y-81937272D01*
X139579457Y-81936087D01*
X139534326Y-81924500D01*
X139534324Y-81924500D01*
X139514289Y-81924500D01*
X139494891Y-81922973D01*
X139487467Y-81921797D01*
X139475110Y-81919840D01*
X139475109Y-81919840D01*
X139428721Y-81924225D01*
X139422883Y-81924500D01*
X137876342Y-81924500D01*
X137860725Y-81922776D01*
X137860698Y-81923062D01*
X137852936Y-81922327D01*
X137783808Y-81924500D01*
X137754254Y-81924500D01*
X137753533Y-81924590D01*
X137747361Y-81925369D01*
X137741549Y-81925826D01*
X137694977Y-81927290D01*
X137694976Y-81927290D01*
X137675733Y-81932881D01*
X137656683Y-81936825D01*
X137636815Y-81939334D01*
X137593488Y-81956488D01*
X137587962Y-81958379D01*
X137543218Y-81971379D01*
X137543214Y-81971381D01*
X137525970Y-81981579D01*
X137508509Y-81990133D01*
X137489878Y-81997510D01*
X137489866Y-81997517D01*
X137452174Y-82024902D01*
X137447291Y-82028109D01*
X137407184Y-82051829D01*
X137393018Y-82065995D01*
X137378228Y-82078627D01*
X137362018Y-82090404D01*
X137362015Y-82090407D01*
X137332314Y-82126309D01*
X137328381Y-82130631D01*
X132966208Y-86492803D01*
X132953951Y-86502624D01*
X132954134Y-86502845D01*
X132948123Y-86507817D01*
X132900772Y-86558240D01*
X132879889Y-86579123D01*
X132879877Y-86579136D01*
X132875621Y-86584621D01*
X132871837Y-86589051D01*
X132839937Y-86623022D01*
X132839936Y-86623024D01*
X132830284Y-86640580D01*
X132819610Y-86656830D01*
X132807329Y-86672665D01*
X132807324Y-86672672D01*
X132788815Y-86715442D01*
X132786245Y-86720688D01*
X132763803Y-86761510D01*
X132758822Y-86780911D01*
X132752521Y-86799314D01*
X132744562Y-86817706D01*
X132744561Y-86817709D01*
X132737271Y-86863731D01*
X132736087Y-86869450D01*
X132724501Y-86914576D01*
X132724500Y-86914586D01*
X132724500Y-86934620D01*
X132722973Y-86954019D01*
X132719840Y-86973798D01*
X132719840Y-86973799D01*
X132724225Y-87020187D01*
X132724500Y-87026025D01*
X132724500Y-100901312D01*
X132704815Y-100968351D01*
X132692650Y-100984284D01*
X132617466Y-101067784D01*
X132522821Y-101231715D01*
X132522818Y-101231722D01*
X132464327Y-101411740D01*
X132464326Y-101411744D01*
X132444540Y-101600000D01*
X132464326Y-101788256D01*
X132464327Y-101788259D01*
X132522818Y-101968277D01*
X132522821Y-101968284D01*
X132617467Y-102132216D01*
X132735225Y-102262999D01*
X132744129Y-102272888D01*
X132897265Y-102384148D01*
X132897270Y-102384151D01*
X133070192Y-102461142D01*
X133070197Y-102461144D01*
X133255354Y-102500500D01*
X133255355Y-102500500D01*
X133348044Y-102500500D01*
X133415083Y-102520185D01*
X133460838Y-102572989D01*
X133470782Y-102642147D01*
X133465976Y-102662816D01*
X133459826Y-102681741D01*
X133459826Y-102681744D01*
X133440040Y-102870000D01*
X133459826Y-103058256D01*
X133459827Y-103058259D01*
X133518318Y-103238277D01*
X133518321Y-103238284D01*
X133612967Y-103402216D01*
X133739629Y-103542888D01*
X133892765Y-103654148D01*
X133892770Y-103654151D01*
X134065692Y-103731142D01*
X134065697Y-103731144D01*
X134250854Y-103770500D01*
X134250855Y-103770500D01*
X134440144Y-103770500D01*
X134440146Y-103770500D01*
X134625303Y-103731144D01*
X134798230Y-103654151D01*
X134951371Y-103542888D01*
X135078033Y-103402216D01*
X135172679Y-103238284D01*
X135231174Y-103058256D01*
X135250960Y-102870000D01*
X135231174Y-102681744D01*
X135172679Y-102501716D01*
X135078033Y-102337784D01*
X135002850Y-102254284D01*
X134972620Y-102191292D01*
X134971000Y-102171312D01*
X134971000Y-86944952D01*
X134990685Y-86877913D01*
X135007319Y-86857271D01*
X138107772Y-83756819D01*
X138169095Y-83723334D01*
X138195453Y-83720500D01*
X138664547Y-83720500D01*
X138731586Y-83740185D01*
X138752228Y-83756819D01*
X138761039Y-83765630D01*
X138794524Y-83826953D01*
X138796678Y-83840343D01*
X138814326Y-84008256D01*
X138814327Y-84008259D01*
X138872818Y-84188277D01*
X138872821Y-84188284D01*
X138967467Y-84352216D01*
X139086621Y-84484549D01*
X139094129Y-84492888D01*
X139247265Y-84604148D01*
X139247270Y-84604151D01*
X139420192Y-84681142D01*
X139420197Y-84681144D01*
X139605354Y-84720500D01*
X139605355Y-84720500D01*
X139770500Y-84720500D01*
X139837539Y-84740185D01*
X139883294Y-84792989D01*
X139894500Y-84844500D01*
X139894500Y-90309547D01*
X139874815Y-90376586D01*
X139858181Y-90397228D01*
X139752228Y-90503181D01*
X139690905Y-90536666D01*
X139664547Y-90539500D01*
X139605354Y-90539500D01*
X139572897Y-90546398D01*
X139420197Y-90578855D01*
X139420192Y-90578857D01*
X139247270Y-90655848D01*
X139241637Y-90659101D01*
X139240145Y-90656517D01*
X139186483Y-90675617D01*
X139118441Y-90659739D01*
X139069785Y-90609595D01*
X139055500Y-90551814D01*
X139055500Y-88292737D01*
X139057224Y-88277123D01*
X139056938Y-88277096D01*
X139057672Y-88269333D01*
X139055500Y-88200203D01*
X139055500Y-88170651D01*
X139055500Y-88170650D01*
X139054629Y-88163759D01*
X139054172Y-88157945D01*
X139052709Y-88111372D01*
X139047122Y-88092144D01*
X139043174Y-88073084D01*
X139042842Y-88070452D01*
X139040664Y-88053208D01*
X139023507Y-88009875D01*
X139021619Y-88004359D01*
X139008619Y-87959612D01*
X138998418Y-87942363D01*
X138989860Y-87924894D01*
X138982486Y-87906268D01*
X138982483Y-87906264D01*
X138982483Y-87906263D01*
X138955098Y-87868571D01*
X138951890Y-87863687D01*
X138928172Y-87823582D01*
X138928163Y-87823571D01*
X138914005Y-87809413D01*
X138901370Y-87794620D01*
X138889593Y-87778412D01*
X138853693Y-87748713D01*
X138849381Y-87744790D01*
X138098960Y-86994369D01*
X138065475Y-86933046D01*
X138063323Y-86919668D01*
X138045674Y-86751744D01*
X137987179Y-86571716D01*
X137892533Y-86407784D01*
X137765871Y-86267112D01*
X137765870Y-86267111D01*
X137612734Y-86155851D01*
X137612729Y-86155848D01*
X137439807Y-86078857D01*
X137439802Y-86078855D01*
X137294001Y-86047865D01*
X137254646Y-86039500D01*
X137065354Y-86039500D01*
X137032897Y-86046398D01*
X136880197Y-86078855D01*
X136880192Y-86078857D01*
X136707270Y-86155848D01*
X136707265Y-86155851D01*
X136554129Y-86267111D01*
X136427466Y-86407785D01*
X136332821Y-86571715D01*
X136332818Y-86571722D01*
X136274327Y-86751740D01*
X136274326Y-86751744D01*
X136254540Y-86940000D01*
X136274326Y-87128256D01*
X136274327Y-87128259D01*
X136332818Y-87308277D01*
X136332821Y-87308284D01*
X136427467Y-87472216D01*
X136481451Y-87532171D01*
X136554129Y-87612888D01*
X136707265Y-87724148D01*
X136707270Y-87724151D01*
X136880192Y-87801142D01*
X136880197Y-87801144D01*
X137065354Y-87840500D01*
X137124548Y-87840500D01*
X137191587Y-87860185D01*
X137212229Y-87876819D01*
X137768181Y-88432771D01*
X137801666Y-88494094D01*
X137804500Y-88520452D01*
X137804500Y-102884460D01*
X137784815Y-102951499D01*
X137732011Y-102997254D01*
X137662853Y-103007198D01*
X137654720Y-103005751D01*
X137646548Y-103004014D01*
X137559446Y-102985500D01*
X137370154Y-102985500D01*
X137364123Y-102986782D01*
X137184997Y-103024855D01*
X137184992Y-103024857D01*
X137012070Y-103101848D01*
X137012065Y-103101851D01*
X136858929Y-103213111D01*
X136732266Y-103353785D01*
X136637621Y-103517715D01*
X136637618Y-103517722D01*
X136580533Y-103693413D01*
X136579126Y-103697744D01*
X136559340Y-103886000D01*
X136579126Y-104074256D01*
X136579127Y-104074259D01*
X136637618Y-104254277D01*
X136637621Y-104254284D01*
X136732267Y-104418216D01*
X136818835Y-104514359D01*
X136858929Y-104558888D01*
X137012065Y-104670148D01*
X137012070Y-104670151D01*
X137184992Y-104747142D01*
X137184997Y-104747144D01*
X137370154Y-104786500D01*
X137370155Y-104786500D01*
X137559444Y-104786500D01*
X137559446Y-104786500D01*
X137654719Y-104766249D01*
X137724386Y-104771565D01*
X137780120Y-104813702D01*
X137804225Y-104879282D01*
X137804500Y-104887539D01*
X137804500Y-106561312D01*
X137784815Y-106628351D01*
X137772650Y-106644284D01*
X137697466Y-106727784D01*
X137602821Y-106891715D01*
X137602818Y-106891722D01*
X137544327Y-107071740D01*
X137544326Y-107071744D01*
X137524540Y-107260000D01*
X137544326Y-107448256D01*
X137544327Y-107448259D01*
X137602818Y-107628277D01*
X137602819Y-107628279D01*
X137602821Y-107628284D01*
X137697467Y-107792216D01*
X137751451Y-107852171D01*
X137824129Y-107932888D01*
X137977265Y-108044148D01*
X137977270Y-108044151D01*
X138150192Y-108121142D01*
X138150197Y-108121144D01*
X138335354Y-108160500D01*
X138335355Y-108160500D01*
X138524644Y-108160500D01*
X138524646Y-108160500D01*
X138709803Y-108121144D01*
X138882730Y-108044151D01*
X139035871Y-107932888D01*
X139162533Y-107792216D01*
X139257179Y-107628284D01*
X139263775Y-107607983D01*
X139303210Y-107550309D01*
X139355920Y-107525011D01*
X139490073Y-107496497D01*
X139490077Y-107496495D01*
X139490078Y-107496495D01*
X139577629Y-107457514D01*
X139663000Y-107419504D01*
X139816141Y-107308241D01*
X139942803Y-107167569D01*
X140037449Y-107003637D01*
X140095944Y-106823609D01*
X140097180Y-106811848D01*
X140123763Y-106747236D01*
X140181060Y-106707251D01*
X140250879Y-106704591D01*
X140311053Y-106740100D01*
X140342477Y-106802504D01*
X140344500Y-106824812D01*
X140344500Y-109717255D01*
X140342775Y-109732872D01*
X140343061Y-109732899D01*
X140342326Y-109740665D01*
X140344500Y-109809814D01*
X140344500Y-109839343D01*
X140344501Y-109839360D01*
X140345368Y-109846231D01*
X140345826Y-109852050D01*
X140347290Y-109898624D01*
X140347291Y-109898627D01*
X140352880Y-109917867D01*
X140356824Y-109936911D01*
X140359336Y-109956792D01*
X140376490Y-110000119D01*
X140378382Y-110005647D01*
X140391381Y-110050388D01*
X140401580Y-110067634D01*
X140410138Y-110085103D01*
X140417514Y-110103732D01*
X140444898Y-110141423D01*
X140448106Y-110146307D01*
X140471827Y-110186416D01*
X140471833Y-110186424D01*
X140485990Y-110200580D01*
X140498628Y-110215376D01*
X140510405Y-110231586D01*
X140510406Y-110231587D01*
X140546309Y-110261288D01*
X140550620Y-110265210D01*
X141119995Y-110834586D01*
X141301038Y-111015629D01*
X141334523Y-111076952D01*
X141336678Y-111090348D01*
X141340519Y-111126891D01*
X141354326Y-111258256D01*
X141354327Y-111258259D01*
X141412818Y-111438277D01*
X141415462Y-111444214D01*
X141412937Y-111445338D01*
X141426530Y-111501431D01*
X141403661Y-111567453D01*
X141348729Y-111610629D01*
X141302672Y-111619500D01*
X139877743Y-111619500D01*
X139862122Y-111617775D01*
X139862095Y-111618061D01*
X139854333Y-111617326D01*
X139785172Y-111619500D01*
X139755649Y-111619500D01*
X139748778Y-111620367D01*
X139742959Y-111620825D01*
X139696374Y-111622289D01*
X139696368Y-111622290D01*
X139677126Y-111627880D01*
X139658087Y-111631823D01*
X139638217Y-111634334D01*
X139638203Y-111634337D01*
X139594883Y-111651488D01*
X139589358Y-111653380D01*
X139544613Y-111666380D01*
X139544610Y-111666381D01*
X139527366Y-111676579D01*
X139509905Y-111685133D01*
X139491274Y-111692510D01*
X139491262Y-111692517D01*
X139453570Y-111719902D01*
X139448687Y-111723109D01*
X139408580Y-111746829D01*
X139394414Y-111760995D01*
X139379624Y-111773627D01*
X139363414Y-111785404D01*
X139363411Y-111785407D01*
X139333710Y-111821309D01*
X139329777Y-111825631D01*
X132192181Y-118963228D01*
X132130858Y-118996713D01*
X132061166Y-118991729D01*
X132005233Y-118949857D01*
X131980816Y-118884393D01*
X131980500Y-118875547D01*
X131980500Y-116402252D01*
X132000185Y-116335213D01*
X132016819Y-116314571D01*
X135329572Y-113001819D01*
X135390895Y-112968334D01*
X135417253Y-112965500D01*
X136456252Y-112965500D01*
X136523291Y-112985185D01*
X136548400Y-113006526D01*
X136554126Y-113012885D01*
X136554130Y-113012889D01*
X136707265Y-113124148D01*
X136707270Y-113124151D01*
X136880192Y-113201142D01*
X136880197Y-113201144D01*
X137065354Y-113240500D01*
X137065355Y-113240500D01*
X137254644Y-113240500D01*
X137254646Y-113240500D01*
X137439803Y-113201144D01*
X137612730Y-113124151D01*
X137765871Y-113012888D01*
X137892533Y-112872216D01*
X137987179Y-112708284D01*
X138045674Y-112528256D01*
X138065460Y-112340000D01*
X138045674Y-112151744D01*
X137987179Y-111971716D01*
X137892533Y-111807784D01*
X137765871Y-111667112D01*
X137765870Y-111667111D01*
X137612734Y-111555851D01*
X137612729Y-111555848D01*
X137439807Y-111478857D01*
X137439802Y-111478855D01*
X137282112Y-111445338D01*
X137254646Y-111439500D01*
X137065354Y-111439500D01*
X137037888Y-111445338D01*
X136880197Y-111478855D01*
X136880192Y-111478857D01*
X136707270Y-111555848D01*
X136707265Y-111555851D01*
X136554130Y-111667110D01*
X136554126Y-111667114D01*
X136548400Y-111673474D01*
X136488913Y-111710121D01*
X136456252Y-111714500D01*
X135189537Y-111714500D01*
X135173920Y-111712776D01*
X135173893Y-111713062D01*
X135166131Y-111712327D01*
X135097003Y-111714500D01*
X135067450Y-111714500D01*
X135066729Y-111714590D01*
X135060557Y-111715369D01*
X135054745Y-111715826D01*
X135008172Y-111717290D01*
X135008169Y-111717291D01*
X134988926Y-111722881D01*
X134969883Y-111726825D01*
X134950004Y-111729336D01*
X134950003Y-111729337D01*
X134906678Y-111746490D01*
X134901152Y-111748382D01*
X134856408Y-111761383D01*
X134856404Y-111761385D01*
X134839165Y-111771580D01*
X134821698Y-111780137D01*
X134803069Y-111787512D01*
X134803067Y-111787513D01*
X134765364Y-111814906D01*
X134760482Y-111818112D01*
X134720380Y-111841828D01*
X134706208Y-111856000D01*
X134691423Y-111868628D01*
X134675212Y-111880407D01*
X134645509Y-111916310D01*
X134641577Y-111920631D01*
X131647181Y-114915027D01*
X131585858Y-114948512D01*
X131516166Y-114943528D01*
X131460233Y-114901656D01*
X131435816Y-114836192D01*
X131435500Y-114827346D01*
X131435500Y-97182737D01*
X131437224Y-97167123D01*
X131436938Y-97167096D01*
X131437672Y-97159333D01*
X131435500Y-97090203D01*
X131435500Y-97060651D01*
X131435500Y-97060650D01*
X131434629Y-97053759D01*
X131434172Y-97047945D01*
X131432709Y-97001372D01*
X131427122Y-96982144D01*
X131423174Y-96963084D01*
X131420664Y-96943208D01*
X131403507Y-96899875D01*
X131401619Y-96894359D01*
X131388619Y-96849612D01*
X131378418Y-96832363D01*
X131369860Y-96814894D01*
X131362486Y-96796268D01*
X131362483Y-96796264D01*
X131362483Y-96796263D01*
X131335098Y-96758571D01*
X131331890Y-96753687D01*
X131308172Y-96713582D01*
X131308163Y-96713571D01*
X131294005Y-96699413D01*
X131281370Y-96684620D01*
X131269593Y-96668412D01*
X131233693Y-96638713D01*
X131229381Y-96634790D01*
X130880237Y-96285646D01*
X130846752Y-96224323D01*
X130848142Y-96165876D01*
X130875063Y-96065408D01*
X130895659Y-95830000D01*
X130894928Y-95821650D01*
X130887422Y-95735849D01*
X130875063Y-95594592D01*
X130813903Y-95366337D01*
X130714035Y-95152171D01*
X130650717Y-95061742D01*
X130578494Y-94958597D01*
X130411402Y-94791506D01*
X130411396Y-94791501D01*
X130225842Y-94661575D01*
X130182217Y-94606998D01*
X130175023Y-94537500D01*
X130206546Y-94475145D01*
X130225842Y-94458425D01*
X130248026Y-94442891D01*
X130411401Y-94328495D01*
X130578495Y-94161401D01*
X130714035Y-93967830D01*
X130813903Y-93753663D01*
X130875063Y-93525408D01*
X130895659Y-93290000D01*
X130875063Y-93054592D01*
X130813903Y-92826337D01*
X130714035Y-92612171D01*
X130626550Y-92487228D01*
X130578494Y-92418597D01*
X130411402Y-92251506D01*
X130411396Y-92251501D01*
X130225842Y-92121575D01*
X130182217Y-92066998D01*
X130175023Y-91997500D01*
X130206546Y-91935145D01*
X130225842Y-91918425D01*
X130325195Y-91848857D01*
X130411401Y-91788495D01*
X130578495Y-91621401D01*
X130714035Y-91427830D01*
X130813903Y-91213663D01*
X130875063Y-90985408D01*
X130895659Y-90750000D01*
X130875063Y-90514592D01*
X130813903Y-90286337D01*
X130714035Y-90072171D01*
X130600008Y-89909322D01*
X130578494Y-89878597D01*
X130411402Y-89711506D01*
X130411396Y-89711501D01*
X130225842Y-89581575D01*
X130182217Y-89526998D01*
X130175023Y-89457500D01*
X130206546Y-89395145D01*
X130225842Y-89378425D01*
X130248026Y-89362891D01*
X130411401Y-89248495D01*
X130578495Y-89081401D01*
X130714035Y-88887830D01*
X130813903Y-88673663D01*
X130875063Y-88445408D01*
X130895659Y-88210000D01*
X130875063Y-87974592D01*
X130813903Y-87746337D01*
X130714035Y-87532171D01*
X130672055Y-87472216D01*
X130578494Y-87338597D01*
X130411402Y-87171506D01*
X130411396Y-87171501D01*
X130225842Y-87041575D01*
X130182217Y-86986998D01*
X130175023Y-86917500D01*
X130206546Y-86855145D01*
X130225842Y-86838425D01*
X130335685Y-86761512D01*
X130411401Y-86708495D01*
X130578495Y-86541401D01*
X130714035Y-86347830D01*
X130813903Y-86133663D01*
X130875063Y-85905408D01*
X130895659Y-85670000D01*
X130875063Y-85434592D01*
X130813903Y-85206337D01*
X130714035Y-84992171D01*
X130672055Y-84932216D01*
X130578494Y-84798597D01*
X130411402Y-84631506D01*
X130411396Y-84631501D01*
X130225842Y-84501575D01*
X130182217Y-84446998D01*
X130175023Y-84377500D01*
X130206546Y-84315145D01*
X130225842Y-84298425D01*
X130349635Y-84211744D01*
X130411401Y-84168495D01*
X130578495Y-84001401D01*
X130714035Y-83807830D01*
X130813903Y-83593663D01*
X130875063Y-83365408D01*
X130895659Y-83130000D01*
X130875063Y-82894592D01*
X130813903Y-82666337D01*
X130714035Y-82452171D01*
X130672054Y-82392216D01*
X130578496Y-82258600D01*
X130548173Y-82228277D01*
X130456567Y-82136671D01*
X130423084Y-82075351D01*
X130428068Y-82005659D01*
X130469939Y-81949725D01*
X130500915Y-81932810D01*
X130632331Y-81883796D01*
X130747546Y-81797546D01*
X130833796Y-81682331D01*
X130884091Y-81547483D01*
X130890500Y-81487873D01*
X130890499Y-79692128D01*
X130884091Y-79632517D01*
X130833797Y-79497673D01*
X130833797Y-79497671D01*
X130833793Y-79497664D01*
X130747547Y-79382455D01*
X130747544Y-79382452D01*
X130632335Y-79296206D01*
X130632328Y-79296202D01*
X130497482Y-79245908D01*
X130497483Y-79245908D01*
X130437883Y-79239501D01*
X130437881Y-79239500D01*
X130437873Y-79239500D01*
X130437864Y-79239500D01*
X128642129Y-79239500D01*
X128642123Y-79239501D01*
X128582516Y-79245908D01*
X128447671Y-79296202D01*
X128447664Y-79296206D01*
X128332455Y-79382452D01*
X128332452Y-79382455D01*
X128246206Y-79497664D01*
X128246202Y-79497671D01*
X128195908Y-79632517D01*
X128191089Y-79677346D01*
X128189501Y-79692123D01*
X128189500Y-79692135D01*
X128189500Y-81487870D01*
X128189501Y-81487876D01*
X128195908Y-81547483D01*
X128246202Y-81682328D01*
X128246206Y-81682335D01*
X128332452Y-81797544D01*
X128332455Y-81797547D01*
X128447664Y-81883793D01*
X128447671Y-81883797D01*
X128579081Y-81932810D01*
X128635015Y-81974681D01*
X128659432Y-82040145D01*
X128644580Y-82108418D01*
X128623430Y-82136673D01*
X128501503Y-82258600D01*
X128365965Y-82452169D01*
X128365964Y-82452171D01*
X128266098Y-82666335D01*
X128266094Y-82666344D01*
X128204938Y-82894586D01*
X128204936Y-82894596D01*
X128184341Y-83129999D01*
X128184341Y-83130000D01*
X128204936Y-83365403D01*
X128204938Y-83365413D01*
X128266094Y-83593655D01*
X128266096Y-83593659D01*
X128266097Y-83593663D01*
X128334422Y-83740185D01*
X128365965Y-83807830D01*
X128365967Y-83807834D01*
X128501501Y-84001395D01*
X128501506Y-84001402D01*
X128668597Y-84168493D01*
X128668603Y-84168498D01*
X128854158Y-84298425D01*
X128897783Y-84353002D01*
X128904977Y-84422500D01*
X128873454Y-84484855D01*
X128854158Y-84501575D01*
X128668597Y-84631505D01*
X128501505Y-84798597D01*
X128365965Y-84992169D01*
X128365964Y-84992171D01*
X128266098Y-85206335D01*
X128266094Y-85206344D01*
X128204938Y-85434586D01*
X128204936Y-85434596D01*
X128184341Y-85669999D01*
X128184341Y-85670000D01*
X128204936Y-85905403D01*
X128204938Y-85905413D01*
X128266094Y-86133655D01*
X128266096Y-86133659D01*
X128266097Y-86133663D01*
X128363661Y-86342888D01*
X128365965Y-86347830D01*
X128365967Y-86347834D01*
X128501501Y-86541395D01*
X128501506Y-86541402D01*
X128668597Y-86708493D01*
X128668603Y-86708498D01*
X128854158Y-86838425D01*
X128897783Y-86893002D01*
X128904977Y-86962500D01*
X128873454Y-87024855D01*
X128854158Y-87041575D01*
X128668597Y-87171505D01*
X128501505Y-87338597D01*
X128365965Y-87532169D01*
X128365964Y-87532171D01*
X128266098Y-87746335D01*
X128266094Y-87746344D01*
X128204938Y-87974586D01*
X128204936Y-87974596D01*
X128184341Y-88209999D01*
X128184341Y-88210000D01*
X128204936Y-88445403D01*
X128204938Y-88445413D01*
X128266094Y-88673655D01*
X128266096Y-88673659D01*
X128266097Y-88673663D01*
X128349426Y-88852362D01*
X128365965Y-88887830D01*
X128365967Y-88887834D01*
X128501501Y-89081395D01*
X128501506Y-89081402D01*
X128668597Y-89248493D01*
X128668603Y-89248498D01*
X128854158Y-89378425D01*
X128897783Y-89433002D01*
X128904977Y-89502500D01*
X128873454Y-89564855D01*
X128854158Y-89581575D01*
X128668597Y-89711505D01*
X128501505Y-89878597D01*
X128365965Y-90072169D01*
X128365964Y-90072171D01*
X128266098Y-90286335D01*
X128266094Y-90286344D01*
X128204938Y-90514586D01*
X128204936Y-90514596D01*
X128184341Y-90749999D01*
X128184341Y-90750000D01*
X128204936Y-90985403D01*
X128204938Y-90985413D01*
X128266094Y-91213655D01*
X128266096Y-91213659D01*
X128266097Y-91213663D01*
X128365965Y-91427830D01*
X128365967Y-91427834D01*
X128501501Y-91621395D01*
X128501506Y-91621402D01*
X128668597Y-91788493D01*
X128668603Y-91788498D01*
X128854158Y-91918425D01*
X128897783Y-91973002D01*
X128904977Y-92042500D01*
X128873454Y-92104855D01*
X128854158Y-92121575D01*
X128668597Y-92251505D01*
X128501505Y-92418597D01*
X128365965Y-92612169D01*
X128365964Y-92612171D01*
X128266098Y-92826335D01*
X128266094Y-92826344D01*
X128204938Y-93054586D01*
X128204936Y-93054596D01*
X128184341Y-93289999D01*
X128184341Y-93290000D01*
X128204936Y-93525403D01*
X128204938Y-93525413D01*
X128266094Y-93753655D01*
X128266096Y-93753659D01*
X128266097Y-93753663D01*
X128283853Y-93791740D01*
X128365965Y-93967830D01*
X128365967Y-93967834D01*
X128501501Y-94161395D01*
X128501506Y-94161402D01*
X128668597Y-94328493D01*
X128668603Y-94328498D01*
X128854158Y-94458425D01*
X128897783Y-94513002D01*
X128904977Y-94582500D01*
X128873454Y-94644855D01*
X128854158Y-94661575D01*
X128668597Y-94791505D01*
X128501505Y-94958597D01*
X128365965Y-95152169D01*
X128365964Y-95152171D01*
X128266098Y-95366335D01*
X128266094Y-95366344D01*
X128204938Y-95594586D01*
X128204936Y-95594596D01*
X128184341Y-95829999D01*
X128184341Y-95830000D01*
X128204936Y-96065403D01*
X128204938Y-96065413D01*
X128266094Y-96293655D01*
X128266096Y-96293659D01*
X128266097Y-96293663D01*
X128275603Y-96314048D01*
X128365965Y-96507830D01*
X128365967Y-96507834D01*
X128501501Y-96701395D01*
X128501506Y-96701402D01*
X128668597Y-96868493D01*
X128668603Y-96868498D01*
X128854158Y-96998425D01*
X128897783Y-97053002D01*
X128904977Y-97122500D01*
X128873454Y-97184855D01*
X128854158Y-97201575D01*
X128668597Y-97331505D01*
X128501505Y-97498597D01*
X128365965Y-97692169D01*
X128365964Y-97692171D01*
X128266098Y-97906335D01*
X128266094Y-97906344D01*
X128204938Y-98134586D01*
X128204936Y-98134596D01*
X128184341Y-98369999D01*
X128184341Y-98370000D01*
X128204936Y-98605403D01*
X128204938Y-98605413D01*
X128231856Y-98705872D01*
X128230193Y-98775722D01*
X128199762Y-98825646D01*
X127531208Y-99494199D01*
X127518951Y-99504020D01*
X127519134Y-99504241D01*
X127513123Y-99509213D01*
X127465772Y-99559636D01*
X127444889Y-99580519D01*
X127444877Y-99580532D01*
X127440621Y-99586017D01*
X127436837Y-99590447D01*
X127404937Y-99624418D01*
X127404936Y-99624420D01*
X127395284Y-99641976D01*
X127384610Y-99658226D01*
X127372329Y-99674061D01*
X127372324Y-99674068D01*
X127353815Y-99716838D01*
X127351245Y-99722084D01*
X127328803Y-99762906D01*
X127323822Y-99782307D01*
X127317521Y-99800710D01*
X127309562Y-99819102D01*
X127309560Y-99819108D01*
X127302273Y-99865121D01*
X127301088Y-99870843D01*
X127289500Y-99915978D01*
X127289500Y-99936016D01*
X127287973Y-99955415D01*
X127284840Y-99975194D01*
X127284840Y-99975195D01*
X125730500Y-99975195D01*
X125730500Y-60270000D01*
X126015172Y-60270000D01*
X126034462Y-60564312D01*
X126034464Y-60564324D01*
X126092001Y-60853584D01*
X126092005Y-60853599D01*
X126186812Y-61132888D01*
X126317258Y-61397406D01*
X126317265Y-61397419D01*
X126481122Y-61642648D01*
X126510406Y-61676039D01*
X127334210Y-60852235D01*
X127434894Y-60993624D01*
X127586932Y-61138592D01*
X127689222Y-61204329D01*
X126863959Y-62029592D01*
X126863959Y-62029593D01*
X126897344Y-62058872D01*
X126897348Y-62058875D01*
X127142580Y-62222734D01*
X127142593Y-62222741D01*
X127407111Y-62353187D01*
X127686400Y-62447994D01*
X127686415Y-62447998D01*
X127975675Y-62505535D01*
X127975687Y-62505537D01*
X128270000Y-62524827D01*
X128564312Y-62505537D01*
X128564324Y-62505535D01*
X128853584Y-62447998D01*
X128853599Y-62447994D01*
X129132888Y-62353187D01*
X129397406Y-62222741D01*
X129397419Y-62222734D01*
X129642650Y-62058877D01*
X129676039Y-62029593D01*
X129676040Y-62029592D01*
X128853306Y-61206859D01*
X128867410Y-61199589D01*
X129032540Y-61069729D01*
X129170110Y-60910965D01*
X129204665Y-60851113D01*
X130029592Y-61676040D01*
X130029593Y-61676039D01*
X130058877Y-61642650D01*
X130222734Y-61397419D01*
X130222741Y-61397406D01*
X130353187Y-61132888D01*
X130447994Y-60853599D01*
X130447998Y-60853584D01*
X130505535Y-60564324D01*
X130505537Y-60564312D01*
X130524827Y-60270000D01*
X160305172Y-60270000D01*
X160324462Y-60564312D01*
X160324464Y-60564324D01*
X160382001Y-60853584D01*
X160382005Y-60853599D01*
X160476812Y-61132888D01*
X160607258Y-61397406D01*
X160607265Y-61397419D01*
X160771122Y-61642648D01*
X160800406Y-61676039D01*
X161624210Y-60852235D01*
X161724894Y-60993624D01*
X161876932Y-61138592D01*
X161979222Y-61204329D01*
X161153959Y-62029592D01*
X161153959Y-62029593D01*
X161187344Y-62058872D01*
X161187348Y-62058875D01*
X161432580Y-62222734D01*
X161432593Y-62222741D01*
X161697111Y-62353187D01*
X161976400Y-62447994D01*
X161976415Y-62447998D01*
X162265675Y-62505535D01*
X162265687Y-62505537D01*
X162560000Y-62524827D01*
X162854312Y-62505537D01*
X162854324Y-62505535D01*
X163143584Y-62447998D01*
X163143599Y-62447994D01*
X163422888Y-62353187D01*
X163687406Y-62222741D01*
X163687419Y-62222734D01*
X163932650Y-62058877D01*
X163966039Y-62029593D01*
X163966040Y-62029592D01*
X163143306Y-61206859D01*
X163157410Y-61199589D01*
X163322540Y-61069729D01*
X163460110Y-60910965D01*
X163494665Y-60851112D01*
X164319592Y-61676040D01*
X164319593Y-61676039D01*
X164348877Y-61642650D01*
X164512734Y-61397419D01*
X164512741Y-61397406D01*
X164643187Y-61132888D01*
X164737994Y-60853599D01*
X164737998Y-60853584D01*
X164795535Y-60564324D01*
X164795537Y-60564312D01*
X164814827Y-60270000D01*
X164795537Y-59975687D01*
X164795535Y-59975675D01*
X164737998Y-59686415D01*
X164737994Y-59686400D01*
X164643187Y-59407111D01*
X164512741Y-59142593D01*
X164512734Y-59142580D01*
X164348875Y-58897348D01*
X164348872Y-58897344D01*
X164319593Y-58863959D01*
X164319592Y-58863959D01*
X163495788Y-59687763D01*
X163395106Y-59546376D01*
X163243068Y-59401408D01*
X163140777Y-59335669D01*
X163966039Y-58510406D01*
X163932648Y-58481122D01*
X163687419Y-58317265D01*
X163687406Y-58317258D01*
X163422888Y-58186812D01*
X163143599Y-58092005D01*
X163143584Y-58092001D01*
X162854324Y-58034464D01*
X162854312Y-58034462D01*
X162560000Y-58015172D01*
X162265687Y-58034462D01*
X162265675Y-58034464D01*
X161976415Y-58092001D01*
X161976400Y-58092005D01*
X161697111Y-58186812D01*
X161432593Y-58317258D01*
X161432580Y-58317265D01*
X161187350Y-58481123D01*
X161153958Y-58510406D01*
X161976693Y-59333140D01*
X161962590Y-59340411D01*
X161797460Y-59470271D01*
X161659890Y-59629035D01*
X161625334Y-59688886D01*
X160800406Y-58863958D01*
X160771123Y-58897350D01*
X160607265Y-59142580D01*
X160607258Y-59142593D01*
X160476812Y-59407111D01*
X160382005Y-59686400D01*
X160382001Y-59686415D01*
X160324464Y-59975675D01*
X160324462Y-59975687D01*
X160305172Y-60270000D01*
X130524827Y-60270000D01*
X130505537Y-59975687D01*
X130505535Y-59975675D01*
X130447998Y-59686415D01*
X130447994Y-59686400D01*
X130353187Y-59407111D01*
X130222741Y-59142593D01*
X130222734Y-59142580D01*
X130058875Y-58897348D01*
X130058872Y-58897344D01*
X130029593Y-58863959D01*
X130029592Y-58863959D01*
X129205788Y-59687763D01*
X129105106Y-59546376D01*
X128953068Y-59401408D01*
X128850777Y-59335669D01*
X129676039Y-58510406D01*
X129642648Y-58481122D01*
X129397419Y-58317265D01*
X129397406Y-58317258D01*
X129132888Y-58186812D01*
X128853599Y-58092005D01*
X128853584Y-58092001D01*
X128564324Y-58034464D01*
X128564312Y-58034462D01*
X128270000Y-58015172D01*
X127975687Y-58034462D01*
X127975675Y-58034464D01*
X127686415Y-58092001D01*
X127686400Y-58092005D01*
X127407111Y-58186812D01*
X127142593Y-58317258D01*
X127142580Y-58317265D01*
X126897350Y-58481123D01*
X126863958Y-58510406D01*
X127686693Y-59333140D01*
X127672590Y-59340411D01*
X127507460Y-59470271D01*
X127369890Y-59629035D01*
X127335334Y-59688886D01*
X126510406Y-58863958D01*
X126481123Y-58897350D01*
X126317265Y-59142580D01*
X126317258Y-59142593D01*
X126186812Y-59407111D01*
X126092005Y-59686400D01*
X126092001Y-59686415D01*
X126034464Y-59975675D01*
X126034462Y-59975687D01*
X126015172Y-60270000D01*
X125730500Y-60270000D01*
X125730500Y-59732035D01*
X125730633Y-59727980D01*
X125732393Y-59701103D01*
X125735989Y-59646244D01*
X125748986Y-59464536D01*
X125750014Y-59456903D01*
X125773153Y-59340579D01*
X125774118Y-59336141D01*
X125804533Y-59196323D01*
X125806392Y-59189625D01*
X125846815Y-59070543D01*
X125896159Y-58938251D01*
X125898633Y-58932520D01*
X125955583Y-58817036D01*
X126022179Y-58695076D01*
X126025019Y-58690384D01*
X126096563Y-58583311D01*
X126098428Y-58580676D01*
X126180291Y-58471321D01*
X126183244Y-58467678D01*
X126268503Y-58370459D01*
X126271198Y-58367581D01*
X126367581Y-58271198D01*
X126370459Y-58268503D01*
X126467678Y-58183244D01*
X126471321Y-58180291D01*
X126580676Y-58098428D01*
X126583311Y-58096563D01*
X126690384Y-58025019D01*
X126695076Y-58022179D01*
X126817036Y-57955583D01*
X126932520Y-57898633D01*
X126938251Y-57896159D01*
X127070543Y-57846815D01*
X127189625Y-57806392D01*
X127196323Y-57804533D01*
X127340579Y-57773153D01*
X127346728Y-57771929D01*
X127456903Y-57750014D01*
X127464536Y-57748986D01*
X127646244Y-57735989D01*
X127699211Y-57732517D01*
X127727981Y-57730633D01*
X127732036Y-57730500D01*
X163097964Y-57730500D01*
X163102019Y-57730633D01*
G37*
%TD.AperFunction*%
%TD*%
M02*
