%TF.GenerationSoftware,KiCad,Pcbnew,8.0.0*%
%TF.CreationDate,2024-03-15T17:45:11+09:00*%
%TF.ProjectId,STM32F405_dev_board,53544d33-3246-4343-9035-5f6465765f62,1.0.1*%
%TF.SameCoordinates,Original*%
%TF.FileFunction,Copper,L1,Top*%
%TF.FilePolarity,Positive*%
%FSLAX46Y46*%
G04 Gerber Fmt 4.6, Leading zero omitted, Abs format (unit mm)*
G04 Created by KiCad (PCBNEW 8.0.0) date 2024-03-15 17:45:11*
%MOMM*%
%LPD*%
G01*
G04 APERTURE LIST*
G04 Aperture macros list*
%AMRoundRect*
0 Rectangle with rounded corners*
0 $1 Rounding radius*
0 $2 $3 $4 $5 $6 $7 $8 $9 X,Y pos of 4 corners*
0 Add a 4 corners polygon primitive as box body*
4,1,4,$2,$3,$4,$5,$6,$7,$8,$9,$2,$3,0*
0 Add four circle primitives for the rounded corners*
1,1,$1+$1,$2,$3*
1,1,$1+$1,$4,$5*
1,1,$1+$1,$6,$7*
1,1,$1+$1,$8,$9*
0 Add four rect primitives between the rounded corners*
20,1,$1+$1,$2,$3,$4,$5,0*
20,1,$1+$1,$4,$5,$6,$7,0*
20,1,$1+$1,$6,$7,$8,$9,0*
20,1,$1+$1,$8,$9,$2,$3,0*%
G04 Aperture macros list end*
%TA.AperFunction,ComponentPad*%
%ADD10R,1.300000X1.300000*%
%TD*%
%TA.AperFunction,ComponentPad*%
%ADD11C,1.300000*%
%TD*%
%TA.AperFunction,SMDPad,CuDef*%
%ADD12R,0.600000X1.200000*%
%TD*%
%TA.AperFunction,SMDPad,CuDef*%
%ADD13RoundRect,0.237500X0.300000X0.237500X-0.300000X0.237500X-0.300000X-0.237500X0.300000X-0.237500X0*%
%TD*%
%TA.AperFunction,SMDPad,CuDef*%
%ADD14RoundRect,0.237500X-0.237500X0.250000X-0.237500X-0.250000X0.237500X-0.250000X0.237500X0.250000X0*%
%TD*%
%TA.AperFunction,SMDPad,CuDef*%
%ADD15R,1.700000X0.800000*%
%TD*%
%TA.AperFunction,SMDPad,CuDef*%
%ADD16RoundRect,0.237500X0.237500X-0.250000X0.237500X0.250000X-0.237500X0.250000X-0.237500X-0.250000X0*%
%TD*%
%TA.AperFunction,SMDPad,CuDef*%
%ADD17R,1.200000X0.300000*%
%TD*%
%TA.AperFunction,SMDPad,CuDef*%
%ADD18R,0.300000X1.200000*%
%TD*%
%TA.AperFunction,SMDPad,CuDef*%
%ADD19RoundRect,0.237500X-0.237500X0.287500X-0.237500X-0.287500X0.237500X-0.287500X0.237500X0.287500X0*%
%TD*%
%TA.AperFunction,ComponentPad*%
%ADD20C,3.500000*%
%TD*%
%TA.AperFunction,SMDPad,CuDef*%
%ADD21RoundRect,0.237500X0.237500X-0.300000X0.237500X0.300000X-0.237500X0.300000X-0.237500X-0.300000X0*%
%TD*%
%TA.AperFunction,SMDPad,CuDef*%
%ADD22R,0.600000X1.250000*%
%TD*%
%TA.AperFunction,SMDPad,CuDef*%
%ADD23R,0.300000X1.250000*%
%TD*%
%TA.AperFunction,ComponentPad*%
%ADD24C,2.000000*%
%TD*%
%TA.AperFunction,ComponentPad*%
%ADD25C,2.565000*%
%TD*%
%TA.AperFunction,SMDPad,CuDef*%
%ADD26RoundRect,0.237500X-0.250000X-0.237500X0.250000X-0.237500X0.250000X0.237500X-0.250000X0.237500X0*%
%TD*%
%TA.AperFunction,SMDPad,CuDef*%
%ADD27RoundRect,0.237500X0.250000X0.237500X-0.250000X0.237500X-0.250000X-0.237500X0.250000X-0.237500X0*%
%TD*%
%TA.AperFunction,ComponentPad*%
%ADD28RoundRect,0.250000X-0.600000X0.600000X-0.600000X-0.600000X0.600000X-0.600000X0.600000X0.600000X0*%
%TD*%
%TA.AperFunction,ComponentPad*%
%ADD29C,1.700000*%
%TD*%
%TA.AperFunction,ComponentPad*%
%ADD30R,1.700000X1.700000*%
%TD*%
%TA.AperFunction,ComponentPad*%
%ADD31O,1.700000X1.700000*%
%TD*%
%TA.AperFunction,SMDPad,CuDef*%
%ADD32RoundRect,0.237500X-0.300000X-0.237500X0.300000X-0.237500X0.300000X0.237500X-0.300000X0.237500X0*%
%TD*%
%TA.AperFunction,SMDPad,CuDef*%
%ADD33R,7.875000X2.000000*%
%TD*%
%TA.AperFunction,ViaPad*%
%ADD34C,0.800000*%
%TD*%
%TA.AperFunction,Conductor*%
%ADD35C,0.250000*%
%TD*%
%TA.AperFunction,Conductor*%
%ADD36C,0.000000*%
%TD*%
G04 APERTURE END LIST*
D10*
%TO.P,S3,1,COM*%
%TO.N,Net-(S3-COM)*%
X139700000Y-126365000D03*
D11*
%TO.P,S3,2,NO*%
%TO.N,GND*%
X139700000Y-128905000D03*
%TO.P,S3,3,NC*%
%TO.N,VCC3V3*%
X139700000Y-123825000D03*
%TD*%
D10*
%TO.P,S2,1,COM*%
%TO.N,Net-(S2-COM)*%
X137160000Y-126365000D03*
D11*
%TO.P,S2,2,NO*%
%TO.N,GND*%
X137160000Y-128905000D03*
%TO.P,S2,3,NC*%
%TO.N,VCC3V3*%
X137160000Y-123825000D03*
%TD*%
D12*
%TO.P,PS1,1,IN*%
%TO.N,5V*%
X152405000Y-127341000D03*
%TO.P,PS1,2,GND*%
%TO.N,GND*%
X153355000Y-127341000D03*
%TO.P,PS1,3,EN*%
%TO.N,5V*%
X154305000Y-127341000D03*
%TO.P,PS1,4,NC*%
%TO.N,unconnected-(PS1-NC-Pad4)*%
X154305000Y-124841000D03*
%TO.P,PS1,5,OUT*%
%TO.N,VCC3V3*%
X152405000Y-124841000D03*
%TD*%
D13*
%TO.P,C4,1*%
%TO.N,GND*%
X153582500Y-130120000D03*
%TO.P,C4,2*%
%TO.N,5V*%
X151857500Y-130120000D03*
%TD*%
D14*
%TO.P,R6,1*%
%TO.N,GND*%
X150622000Y-121261500D03*
%TO.P,R6,2*%
%TO.N,Net-(D1-K)*%
X150622000Y-123086500D03*
%TD*%
%TO.P,R5,1*%
%TO.N,BOOT1*%
X142240000Y-124460000D03*
%TO.P,R5,2*%
%TO.N,Net-(S3-COM)*%
X142240000Y-126285000D03*
%TD*%
D15*
%TO.P,S1,1*%
%TO.N,GND*%
X134620000Y-135460000D03*
%TO.P,S1,2*%
%TO.N,RESET*%
X134620000Y-138860000D03*
%TD*%
D16*
%TO.P,R13,1*%
%TO.N,Net-(J6-DN2)*%
X143764000Y-128166500D03*
%TO.P,R13,2*%
%TO.N,USBDM*%
X143764000Y-126341500D03*
%TD*%
D13*
%TO.P,C3,1*%
%TO.N,GND*%
X152312500Y-85670000D03*
%TO.P,C3,2*%
%TO.N,OSC_OUT*%
X150587500Y-85670000D03*
%TD*%
D17*
%TO.P,U1,1,VBAT*%
%TO.N,VBAT*%
X139715800Y-109915000D03*
%TO.P,U1,2,PC13*%
%TO.N,PC13*%
X139715800Y-110415000D03*
%TO.P,U1,3,PC14*%
%TO.N,OSC32_IN*%
X139715800Y-110915000D03*
%TO.P,U1,4,PC15*%
%TO.N,OSC32_OUT*%
X139715800Y-111415000D03*
%TO.P,U1,5,PH0*%
%TO.N,OSC_IN*%
X139715800Y-111915000D03*
%TO.P,U1,6,PH1*%
%TO.N,OSC_OUT*%
X139715800Y-112415000D03*
%TO.P,U1,7,NRST*%
%TO.N,RESET*%
X139715800Y-112915000D03*
%TO.P,U1,8,PC0*%
%TO.N,PC0*%
X139715800Y-113415000D03*
%TO.P,U1,9,PC1*%
%TO.N,PC1*%
X139715800Y-113915000D03*
%TO.P,U1,10,PC2*%
%TO.N,PC2*%
X139715800Y-114415000D03*
%TO.P,U1,11,PC3*%
%TO.N,PC3*%
X139715800Y-114915000D03*
%TO.P,U1,12,VSSA*%
%TO.N,GND*%
X139715800Y-115415000D03*
%TO.P,U1,13,VDDA*%
%TO.N,VCC3V3*%
X139715800Y-115915000D03*
%TO.P,U1,14,PA0*%
%TO.N,PA0*%
X139715800Y-116415000D03*
%TO.P,U1,15,PA1*%
%TO.N,PA1*%
X139715800Y-116915000D03*
%TO.P,U1,16,PA2*%
%TO.N,PA2*%
X139715800Y-117415000D03*
D18*
%TO.P,U1,17,PA3*%
%TO.N,PA3*%
X141715800Y-119415000D03*
%TO.P,U1,18,VSS*%
%TO.N,GND*%
X142215800Y-119415000D03*
%TO.P,U1,19,VDD*%
%TO.N,VCC3V3*%
X142715800Y-119415000D03*
%TO.P,U1,20,PA4*%
%TO.N,PA4*%
X143215800Y-119415000D03*
%TO.P,U1,21,PA5*%
%TO.N,PA5*%
X143715800Y-119415000D03*
%TO.P,U1,22,PA6*%
%TO.N,PA6*%
X144215800Y-119415000D03*
%TO.P,U1,23,PA7*%
%TO.N,PA7*%
X144715800Y-119415000D03*
%TO.P,U1,24,PC4*%
%TO.N,PC4*%
X145215800Y-119415000D03*
%TO.P,U1,25,PC5*%
%TO.N,PC5*%
X145715800Y-119415000D03*
%TO.P,U1,26,PB0*%
%TO.N,PB0*%
X146215800Y-119415000D03*
%TO.P,U1,27,PB1*%
%TO.N,PB1*%
X146715800Y-119415000D03*
%TO.P,U1,28,PB2*%
%TO.N,BOOT1*%
X147215800Y-119415000D03*
%TO.P,U1,29,PB10*%
%TO.N,PB10*%
X147715800Y-119415000D03*
%TO.P,U1,30,PB11*%
%TO.N,PB11*%
X148215800Y-119415000D03*
%TO.P,U1,31,VCAP_1*%
%TO.N,Net-(U1-VCAP_1)*%
X148715800Y-119415000D03*
%TO.P,U1,32,VDD*%
%TO.N,VCC3V3*%
X149215800Y-119415000D03*
D17*
%TO.P,U1,33,PB12*%
%TO.N,PB12*%
X151215800Y-117415000D03*
%TO.P,U1,34,PB13*%
%TO.N,PB13*%
X151215800Y-116915000D03*
%TO.P,U1,35,PB14*%
%TO.N,PB14*%
X151215800Y-116415000D03*
%TO.P,U1,36,PB15*%
%TO.N,PB15*%
X151215800Y-115915000D03*
%TO.P,U1,37,PC6*%
%TO.N,PC6*%
X151215800Y-115415000D03*
%TO.P,U1,38,PC7*%
%TO.N,PC7*%
X151215800Y-114915000D03*
%TO.P,U1,39,PC8*%
%TO.N,PC8*%
X151215800Y-114415000D03*
%TO.P,U1,40,PC9*%
%TO.N,PC9*%
X151215800Y-113915000D03*
%TO.P,U1,41,PA8*%
%TO.N,PA8*%
X151215800Y-113415000D03*
%TO.P,U1,42,PA9*%
%TO.N,PA9{slash}USART1_TX*%
X151215800Y-112915000D03*
%TO.P,U1,43,PA10*%
%TO.N,PA10{slash}USART1_RX*%
X151215800Y-112415000D03*
%TO.P,U1,44,PA11*%
%TO.N,PA11*%
X151215800Y-111915000D03*
%TO.P,U1,45,PA12*%
%TO.N,PA12*%
X151215800Y-111415000D03*
%TO.P,U1,46,PA13*%
%TO.N,JTMS{slash}SWDIO*%
X151215800Y-110915000D03*
%TO.P,U1,47,VCAP_2*%
%TO.N,Net-(U1-VCAP_2)*%
X151215800Y-110415000D03*
%TO.P,U1,48,VDD*%
%TO.N,VCC3V3*%
X151215800Y-109915000D03*
D18*
%TO.P,U1,49,PA14*%
%TO.N,JTCK{slash}SWCLK*%
X149215800Y-107915000D03*
%TO.P,U1,50,PA15*%
%TO.N,JTDI*%
X148715800Y-107915000D03*
%TO.P,U1,51,PC10*%
%TO.N,PC10*%
X148215800Y-107915000D03*
%TO.P,U1,52,PC11*%
%TO.N,PC11*%
X147715800Y-107915000D03*
%TO.P,U1,53,PC12*%
%TO.N,PC12*%
X147215800Y-107915000D03*
%TO.P,U1,54,PD2*%
%TO.N,PD2*%
X146715800Y-107915000D03*
%TO.P,U1,55,PB3*%
%TO.N,JTDO*%
X146215800Y-107915000D03*
%TO.P,U1,56,PB4*%
%TO.N,JNTRST*%
X145715800Y-107915000D03*
%TO.P,U1,57,PB5*%
%TO.N,PB5*%
X145215800Y-107915000D03*
%TO.P,U1,58,PB6*%
%TO.N,PB6*%
X144715800Y-107915000D03*
%TO.P,U1,59,PB7*%
%TO.N,PB7*%
X144215800Y-107915000D03*
%TO.P,U1,60,BOOT0*%
%TO.N,BOOT0*%
X143715800Y-107915000D03*
%TO.P,U1,61,PB8*%
%TO.N,PB8*%
X143215800Y-107915000D03*
%TO.P,U1,62,PB9*%
%TO.N,PB9*%
X142715800Y-107915000D03*
%TO.P,U1,63,VSS*%
%TO.N,GND*%
X142215800Y-107915000D03*
%TO.P,U1,64,VDD*%
%TO.N,VCC3V3*%
X141715800Y-107915000D03*
%TD*%
D14*
%TO.P,R12,1*%
%TO.N,GND*%
X149098000Y-121261500D03*
%TO.P,R12,2*%
%TO.N,Net-(D2-K)*%
X149098000Y-123086500D03*
%TD*%
D19*
%TO.P,D1,1,K*%
%TO.N,Net-(D1-K)*%
X150622000Y-124601000D03*
%TO.P,D1,2,A*%
%TO.N,VCC3V3*%
X150622000Y-126351000D03*
%TD*%
D20*
%TO.P,REF\u002A\u002A,1*%
%TO.N,GND*%
X162560000Y-60270000D03*
%TD*%
D21*
%TO.P,C16,1*%
%TO.N,GND*%
X134137400Y-118540700D03*
%TO.P,C16,2*%
%TO.N,VCC3V3*%
X134137400Y-116815700D03*
%TD*%
%TO.P,C10,1*%
%TO.N,RESET*%
X130810000Y-135482500D03*
%TO.P,C10,2*%
%TO.N,GND*%
X130810000Y-133757500D03*
%TD*%
D22*
%TO.P,J6,A1,GND_1*%
%TO.N,GND*%
X142558000Y-133482000D03*
%TO.P,J6,A4,VBUS_1*%
%TO.N,5V*%
X143358000Y-133482000D03*
D23*
%TO.P,J6,A5,CC1*%
%TO.N,Net-(J6-CC1)*%
X144508000Y-133482000D03*
%TO.P,J6,A6,DP1*%
%TO.N,Net-(J6-DP1)*%
X145508000Y-133482000D03*
%TO.P,J6,A7,DN1*%
%TO.N,Net-(J6-DN1)*%
X146008000Y-133482000D03*
%TO.P,J6,A8,SBU1*%
%TO.N,unconnected-(J6-SBU1-PadA8)*%
X147008000Y-133482000D03*
D22*
%TO.P,J6,A9,VBUS_2*%
%TO.N,5V*%
X148158000Y-133482000D03*
%TO.P,J6,A12,GND_2*%
%TO.N,GND*%
X148958000Y-133482000D03*
D23*
%TO.P,J6,B5,CC2*%
%TO.N,Net-(J6-CC2)*%
X147508000Y-133482000D03*
%TO.P,J6,B6,DP2*%
%TO.N,Net-(J6-DP2)*%
X146508000Y-133482000D03*
%TO.P,J6,B7,DN2*%
%TO.N,Net-(J6-DN2)*%
X145008000Y-133482000D03*
%TO.P,J6,B8,SBU2*%
%TO.N,unconnected-(J6-SBU2-PadB8)*%
X144008000Y-133482000D03*
D24*
%TO.P,J6,MH3,MH3*%
%TO.N,GND*%
X141148000Y-134057000D03*
%TO.P,J6,MH4,MH4*%
X150368000Y-134057000D03*
D25*
%TO.P,J6,MH5,MH5*%
X141148000Y-138557000D03*
%TO.P,J6,MH6,MH6*%
X150368000Y-138557000D03*
%TD*%
D20*
%TO.P,REF\u002A\u002A,1*%
%TO.N,GND*%
X128285913Y-139053348D03*
%TD*%
%TO.P,REF\u002A\u002A,1*%
%TO.N,GND*%
X128270000Y-60270000D03*
%TD*%
D26*
%TO.P,R14,1*%
%TO.N,Net-(J6-DP2)*%
X153900500Y-133858000D03*
%TO.P,R14,2*%
%TO.N,USBDP*%
X155725500Y-133858000D03*
%TD*%
D27*
%TO.P,R1,1*%
%TO.N,GND*%
X150264500Y-129540000D03*
%TO.P,R1,2*%
%TO.N,Net-(J6-CC2)*%
X148439500Y-129540000D03*
%TD*%
D19*
%TO.P,D2,1,K*%
%TO.N,Net-(D2-K)*%
X149098000Y-124601000D03*
%TO.P,D2,2,A*%
%TO.N,PA4*%
X149098000Y-126351000D03*
%TD*%
D16*
%TO.P,R4,1*%
%TO.N,Net-(S2-COM)*%
X134620000Y-126920000D03*
%TO.P,R4,2*%
%TO.N,BOOT0*%
X134620000Y-125095000D03*
%TD*%
D28*
%TO.P,J1,1,VTREF*%
%TO.N,VCC3V3*%
X156845000Y-66675000D03*
D29*
%TO.P,J1,2,VCC/NC*%
X156845000Y-69215000D03*
%TO.P,J1,3,~{TRST}*%
%TO.N,JNTRST*%
X154305000Y-66675000D03*
%TO.P,J1,4,GND*%
%TO.N,GND*%
X154305000Y-69215000D03*
%TO.P,J1,5,TDI*%
%TO.N,JTDI*%
X151765000Y-66675000D03*
%TO.P,J1,6,GND*%
%TO.N,GND*%
X151765000Y-69215000D03*
%TO.P,J1,7,TMS/SWDIO*%
%TO.N,JTMS{slash}SWDIO*%
X149225000Y-66675000D03*
%TO.P,J1,8,GND*%
%TO.N,GND*%
X149225000Y-69215000D03*
%TO.P,J1,9,TCK/SWDCLK*%
%TO.N,JTCK{slash}SWCLK*%
X146685000Y-66675000D03*
%TO.P,J1,10,GND*%
%TO.N,GND*%
X146685000Y-69215000D03*
%TO.P,J1,11,RTCK*%
%TO.N,Net-(J1-RTCK)*%
X144145000Y-66675000D03*
%TO.P,J1,12,GND*%
%TO.N,GND*%
X144145000Y-69215000D03*
%TO.P,J1,13,TDO/SWO*%
%TO.N,JTDO*%
X141605000Y-66675000D03*
%TO.P,J1,14,GND*%
%TO.N,GND*%
X141605000Y-69215000D03*
%TO.P,J1,15,~{SRST}*%
%TO.N,RESET*%
X139065000Y-66675000D03*
%TO.P,J1,16,GND*%
%TO.N,GND*%
X139065000Y-69215000D03*
%TO.P,J1,17,DBGRQ/NC*%
%TO.N,Net-(J1-DBGRQ{slash}NC)*%
X136525000Y-66675000D03*
%TO.P,J1,18,GND*%
%TO.N,GND*%
X136525000Y-69215000D03*
%TO.P,J1,19,DBGACK/NC*%
%TO.N,Net-(J1-DBGACK{slash}NC)*%
X133985000Y-66675000D03*
%TO.P,J1,20,GND*%
%TO.N,GND*%
X133985000Y-69215000D03*
%TD*%
D16*
%TO.P,R7,1*%
%TO.N,Net-(J6-DN1)*%
X146812000Y-128166500D03*
%TO.P,R7,2*%
%TO.N,USBDM*%
X146812000Y-126341500D03*
%TD*%
D13*
%TO.P,C14,1*%
%TO.N,GND*%
X154786500Y-106426000D03*
%TO.P,C14,2*%
%TO.N,VCC3V3*%
X153061500Y-106426000D03*
%TD*%
%TO.P,C6,1*%
%TO.N,GND*%
X154786500Y-121920000D03*
%TO.P,C6,2*%
%TO.N,VCC3V3*%
X153061500Y-121920000D03*
%TD*%
%TO.P,C2,1*%
%TO.N,GND*%
X150402500Y-83820000D03*
%TO.P,C2,2*%
%TO.N,OSC_IN*%
X148677500Y-83820000D03*
%TD*%
D14*
%TO.P,R10,1*%
%TO.N,Net-(J1-RTCK)*%
X151130000Y-77482500D03*
%TO.P,R10,2*%
%TO.N,GND*%
X151130000Y-79307500D03*
%TD*%
D30*
%TO.P,J3,1,Pin_1*%
%TO.N,VCC3V3*%
X161290000Y-80590000D03*
D31*
%TO.P,J3,2,Pin_2*%
%TO.N,GND*%
X161290000Y-83130000D03*
%TO.P,J3,3,Pin_3*%
%TO.N,5V*%
X161290000Y-85670000D03*
%TO.P,J3,4,Pin_4*%
%TO.N,PC12*%
X161290000Y-88210000D03*
%TO.P,J3,5,Pin_5*%
%TO.N,PC11*%
X161290000Y-90750000D03*
%TO.P,J3,6,Pin_6*%
%TO.N,PC10*%
X161290000Y-93290000D03*
%TO.P,J3,7,Pin_7*%
%TO.N,PA10{slash}USART1_RX*%
X161290000Y-95830000D03*
%TO.P,J3,8,Pin_8*%
%TO.N,PA9{slash}USART1_TX*%
X161290000Y-98370000D03*
%TO.P,J3,9,Pin_9*%
%TO.N,PA8*%
X161290000Y-100910000D03*
%TO.P,J3,10,Pin_10*%
%TO.N,PC9*%
X161290000Y-103450000D03*
%TO.P,J3,11,Pin_11*%
%TO.N,PC8*%
X161290000Y-105990000D03*
%TO.P,J3,12,Pin_12*%
%TO.N,PC7*%
X161290000Y-108530000D03*
%TO.P,J3,13,Pin_13*%
%TO.N,PC6*%
X161290000Y-111070000D03*
%TO.P,J3,14,Pin_14*%
%TO.N,PB15*%
X161290000Y-113610000D03*
%TO.P,J3,15,Pin_15*%
%TO.N,PB14*%
X161290000Y-116150000D03*
%TO.P,J3,16,Pin_16*%
%TO.N,PB13*%
X161290000Y-118690000D03*
%TO.P,J3,17,Pin_17*%
%TO.N,PB12*%
X161290000Y-121230000D03*
%TO.P,J3,18,Pin_18*%
%TO.N,PB11*%
X161290000Y-123770000D03*
%TO.P,J3,19,Pin_19*%
%TO.N,PB10*%
X161290000Y-126310000D03*
%TO.P,J3,20,Pin_20*%
%TO.N,PB1*%
X161290000Y-128850000D03*
%TD*%
D13*
%TO.P,C9,1*%
%TO.N,GND*%
X154785400Y-107950000D03*
%TO.P,C9,2*%
%TO.N,Net-(U1-VCAP_2)*%
X153060400Y-107950000D03*
%TD*%
D32*
%TO.P,C13,1*%
%TO.N,GND*%
X136246700Y-119405400D03*
%TO.P,C13,2*%
%TO.N,Net-(U1-VCAP_1)*%
X137971700Y-119405400D03*
%TD*%
D20*
%TO.P,REF\u002A\u002A,1*%
%TO.N,GND*%
X162560000Y-139010000D03*
%TD*%
D14*
%TO.P,R9,1*%
%TO.N,Net-(J1-DBGACK{slash}NC)*%
X156210000Y-77482500D03*
%TO.P,R9,2*%
%TO.N,GND*%
X156210000Y-79307500D03*
%TD*%
D33*
%TO.P,Y1,1,1*%
%TO.N,OSC_OUT*%
X151892000Y-89154000D03*
%TO.P,Y1,2,2*%
%TO.N,OSC_IN*%
X140017000Y-89154000D03*
%TD*%
D14*
%TO.P,R11,1*%
%TO.N,Net-(J1-DBGRQ{slash}NC)*%
X153670000Y-77482500D03*
%TO.P,R11,2*%
%TO.N,GND*%
X153670000Y-79307500D03*
%TD*%
D16*
%TO.P,R3,1*%
%TO.N,Net-(J6-DP1)*%
X145288000Y-128166500D03*
%TO.P,R3,2*%
%TO.N,USBDP*%
X145288000Y-126341500D03*
%TD*%
D32*
%TO.P,C8,1*%
%TO.N,GND*%
X136297500Y-105410000D03*
%TO.P,C8,2*%
%TO.N,VCC3V3*%
X138022500Y-105410000D03*
%TD*%
D13*
%TO.P,C18,1*%
%TO.N,GND*%
X154786500Y-120269000D03*
%TO.P,C18,2*%
%TO.N,VCC3V3*%
X153061500Y-120269000D03*
%TD*%
D27*
%TO.P,R2,1*%
%TO.N,GND*%
X150264500Y-128016000D03*
%TO.P,R2,2*%
%TO.N,Net-(J6-CC1)*%
X148439500Y-128016000D03*
%TD*%
D30*
%TO.P,J2,1,Pin_1*%
%TO.N,VBAT*%
X129540000Y-80590000D03*
D31*
%TO.P,J2,2,Pin_2*%
%TO.N,PB6*%
X129540000Y-83130000D03*
%TO.P,J2,3,Pin_3*%
%TO.N,PB7*%
X129540000Y-85670000D03*
%TO.P,J2,4,Pin_4*%
%TO.N,PB8*%
X129540000Y-88210000D03*
%TO.P,J2,5,Pin_5*%
%TO.N,PB9*%
X129540000Y-90750000D03*
%TO.P,J2,6,Pin_6*%
%TO.N,PC13*%
X129540000Y-93290000D03*
%TO.P,J2,7,Pin_7*%
%TO.N,PA5*%
X129540000Y-95830000D03*
%TO.P,J2,8,Pin_8*%
%TO.N,PA6*%
X129540000Y-98370000D03*
%TO.P,J2,9,Pin_9*%
%TO.N,PC0*%
X129540000Y-100910000D03*
%TO.P,J2,10,Pin_10*%
%TO.N,PC1*%
X129540000Y-103450000D03*
%TO.P,J2,11,Pin_11*%
%TO.N,PC2*%
X129540000Y-105990000D03*
%TO.P,J2,12,Pin_12*%
%TO.N,PC3*%
X129540000Y-108530000D03*
%TO.P,J2,13,Pin_13*%
%TO.N,PA0*%
X129540000Y-111070000D03*
%TO.P,J2,14,Pin_14*%
%TO.N,PA1*%
X129540000Y-113610000D03*
%TO.P,J2,15,Pin_15*%
%TO.N,PA2*%
X129540000Y-116150000D03*
%TO.P,J2,16,Pin_16*%
%TO.N,PA3*%
X129540000Y-118690000D03*
%TO.P,J2,17,Pin_17*%
%TO.N,RESET*%
X129540000Y-121230000D03*
%TO.P,J2,18,Pin_18*%
%TO.N,VCC3V3*%
X129540000Y-123770000D03*
%TO.P,J2,19,Pin_19*%
%TO.N,GND*%
X129540000Y-126310000D03*
%TO.P,J2,20,Pin_20*%
X129540000Y-128850000D03*
%TD*%
D34*
%TO.N,VCC3V3*%
X155575000Y-137160000D03*
%TO.N,RESET*%
X153670000Y-135890000D03*
%TO.N,OSC_IN*%
X139210270Y-106635353D03*
X140970000Y-100910000D03*
%TO.N,OSC_OUT*%
X142240000Y-102180000D03*
X142240000Y-111070000D03*
%TO.N,OSC32_IN*%
X147320000Y-95250000D03*
X142240000Y-82550000D03*
X139700000Y-83820000D03*
X152400000Y-92710000D03*
X134345500Y-102870000D03*
%TO.N,OSC32_OUT*%
X149860000Y-101600000D03*
X139700000Y-92964000D03*
X142240000Y-97790000D03*
X133350000Y-101600000D03*
X144780000Y-100330000D03*
%TO.N,PA4*%
X142240000Y-123190000D03*
X145805012Y-123181153D03*
%TO.N,PA12*%
X157480000Y-96520000D03*
%TO.N,PA11*%
X157480000Y-97790000D03*
%TO.N,JNTRST*%
X144780000Y-103450000D03*
%TO.N,JTDI*%
X139700000Y-76780000D03*
X149860000Y-105990000D03*
%TO.N,JTMS{slash}SWDIO*%
X148590000Y-93980000D03*
X152434073Y-104953220D03*
X151854500Y-93980000D03*
%TO.N,JTCK{slash}SWCLK*%
X151130000Y-105990000D03*
%TO.N,JTDO*%
X143510000Y-84400000D03*
X144546054Y-79865958D03*
X146050000Y-103450000D03*
X147320000Y-81860000D03*
%TO.N,PA5*%
X143510000Y-121920000D03*
%TO.N,PA6*%
X144780000Y-121920000D03*
%TO.N,PB11*%
X147042557Y-122132652D03*
%TO.N,PB10*%
X147197652Y-123312348D03*
%TO.N,PB1*%
X144929500Y-120920497D03*
%TO.N,BOOT0*%
X143510000Y-109800000D03*
X132080000Y-124509500D03*
%TO.N,RESET*%
X143510000Y-103450000D03*
X137160000Y-112340000D03*
X154940000Y-85670000D03*
X132842000Y-122555000D03*
%TO.N,GND*%
X142240000Y-131445000D03*
X142205000Y-117475000D03*
X142218369Y-113562009D03*
X149860000Y-96520000D03*
X154940000Y-118690000D03*
X150241000Y-132080000D03*
X153670000Y-132080000D03*
X154109124Y-109595109D03*
X133959600Y-119811800D03*
X150215600Y-119253000D03*
X135722701Y-97957299D03*
%TO.N,5V*%
X143510000Y-131953000D03*
X156210000Y-118690000D03*
X156210000Y-125040000D03*
X158025500Y-130048000D03*
X148590000Y-131699000D03*
%TO.N,VCC3V3*%
X144221200Y-115620800D03*
X143510000Y-117475000D03*
X137464800Y-103886000D03*
X150723600Y-107543600D03*
X151257000Y-118999000D03*
%TO.N,VBAT*%
X138430000Y-85852000D03*
X138430000Y-107260000D03*
%TO.N,USBDP*%
X157608396Y-133858000D03*
X144526000Y-123952000D03*
%TO.N,USBDM*%
X145288000Y-124968000D03*
%TO.N,PA10{slash}USART1_RX*%
X148590000Y-113030000D03*
%TO.N,PA9{slash}USART1_TX*%
X148590000Y-114300000D03*
%TD*%
D35*
%TO.N,RESET*%
X152610500Y-136949500D02*
X153670000Y-135890000D01*
X136530500Y-136949500D02*
X152610500Y-136949500D01*
X134620000Y-138860000D02*
X136530500Y-136949500D01*
%TO.N,GND*%
X153582500Y-131992500D02*
X153670000Y-132080000D01*
X153582500Y-130120000D02*
X153582500Y-131992500D01*
X158750000Y-132080000D02*
X158750000Y-128270000D01*
X153670000Y-132080000D02*
X158750000Y-132080000D01*
X158750000Y-128270000D02*
X156790000Y-126310000D01*
X156790000Y-126310000D02*
X153416000Y-126310000D01*
X150241000Y-132080000D02*
X153670000Y-132080000D01*
%TO.N,USBDP*%
X157608396Y-133858000D02*
X155725500Y-133858000D01*
%TO.N,OSC_IN*%
X140970000Y-109769315D02*
X140970000Y-111570685D01*
X139730685Y-107155768D02*
X139730685Y-108530000D01*
X139730685Y-108530000D02*
X140970000Y-109769315D01*
X148677500Y-83820000D02*
X143343500Y-89154000D01*
X139210270Y-106635353D02*
X139730685Y-107155768D01*
X140970000Y-111570685D02*
X140620685Y-111920000D01*
X140017000Y-89154000D02*
X143670000Y-92807000D01*
X143343500Y-89154000D02*
X140017000Y-89154000D01*
X143670000Y-92807000D02*
X143670000Y-98210000D01*
X140620685Y-111920000D02*
X139780000Y-111920000D01*
X143670000Y-98210000D02*
X140970000Y-100910000D01*
%TO.N,OSC_OUT*%
X150587500Y-87849500D02*
X151892000Y-89154000D01*
X140890000Y-112420000D02*
X139780000Y-112420000D01*
X142240000Y-102180000D02*
X142240000Y-100910000D01*
X144780000Y-93250000D02*
X148876000Y-89154000D01*
X144780000Y-98370000D02*
X144780000Y-93250000D01*
X148876000Y-89154000D02*
X151892000Y-89154000D01*
X142240000Y-100910000D02*
X144780000Y-98370000D01*
X150587500Y-85670000D02*
X150587500Y-87849500D01*
X142240000Y-111070000D02*
X140890000Y-112420000D01*
%TO.N,Net-(D1-K)*%
X150622000Y-124601000D02*
X150622000Y-123086500D01*
%TO.N,OSC32_IN*%
X134345500Y-106985500D02*
X138280000Y-110920000D01*
X152400000Y-92710000D02*
X148834695Y-92710000D01*
X140970000Y-83820000D02*
X139700000Y-83820000D01*
X134345500Y-102870000D02*
X134345500Y-106985500D01*
X138280000Y-110920000D02*
X139780000Y-110920000D01*
X148834695Y-92710000D02*
X147320000Y-94224695D01*
X147320000Y-94224695D02*
X147320000Y-95250000D01*
X142240000Y-82550000D02*
X140970000Y-83820000D01*
%TO.N,OSC32_OUT*%
X146050000Y-101600000D02*
X144780000Y-100330000D01*
X142240000Y-93980000D02*
X142240000Y-97790000D01*
X135890000Y-110490000D02*
X135890000Y-110430812D01*
X139780000Y-111420000D02*
X136820000Y-111420000D01*
X136820000Y-111420000D02*
X135890000Y-110490000D01*
X133800000Y-104533604D02*
X133350000Y-104083604D01*
X141224000Y-92964000D02*
X142240000Y-93980000D01*
X139700000Y-92964000D02*
X141224000Y-92964000D01*
X135890000Y-110430812D02*
X133800000Y-108340812D01*
X133800000Y-108340812D02*
X133800000Y-104533604D01*
X133350000Y-104083604D02*
X133350000Y-101600000D01*
X149860000Y-101600000D02*
X146050000Y-101600000D01*
%TO.N,PA4*%
X143205000Y-120955000D02*
X143205000Y-119345000D01*
X145805012Y-123181153D02*
X145928153Y-123181153D01*
X142240000Y-123190000D02*
X142240000Y-121920000D01*
X142240000Y-121920000D02*
X143205000Y-120955000D01*
X145928153Y-123181153D02*
X149098000Y-126351000D01*
%TO.N,PA12*%
X156210000Y-97790000D02*
X156210000Y-109155228D01*
X156210000Y-109155228D02*
X153945228Y-111420000D01*
X153945228Y-111420000D02*
X151130000Y-111420000D01*
X157480000Y-96520000D02*
X156210000Y-97790000D01*
%TO.N,Net-(J1-RTCK)*%
X142970000Y-67850000D02*
X144145000Y-66675000D01*
X145749695Y-80045000D02*
X142970000Y-77265305D01*
X148320305Y-78075000D02*
X146350305Y-80045000D01*
X150537500Y-78075000D02*
X151130000Y-77482500D01*
X146350305Y-80045000D02*
X145749695Y-80045000D01*
X142970000Y-77265305D02*
X142970000Y-67850000D01*
X148320305Y-78075000D02*
X150537500Y-78075000D01*
%TO.N,PA11*%
X157480000Y-108521624D02*
X154081624Y-111920000D01*
X154081624Y-111920000D02*
X151130000Y-111920000D01*
X157480000Y-97790000D02*
X157480000Y-108521624D01*
%TO.N,Net-(J1-DBGRQ{slash}NC)*%
X153130000Y-66378299D02*
X151521701Y-64770000D01*
X153130000Y-76942500D02*
X153130000Y-66378299D01*
X138430000Y-64770000D02*
X136525000Y-66675000D01*
X153670000Y-77482500D02*
X153130000Y-76942500D01*
X151521701Y-64770000D02*
X138430000Y-64770000D01*
%TO.N,Net-(J1-DBGACK{slash}NC)*%
X153611701Y-64320000D02*
X155575000Y-66283299D01*
X155575000Y-66283299D02*
X155575000Y-76847500D01*
X155575000Y-76847500D02*
X156210000Y-77482500D01*
X133985000Y-66675000D02*
X136340000Y-64320000D01*
X136340000Y-64320000D02*
X153611701Y-64320000D01*
%TO.N,JNTRST*%
X145705000Y-104375000D02*
X144780000Y-103450000D01*
X145705000Y-107995000D02*
X145705000Y-104375000D01*
%TO.N,JTDI*%
X144631701Y-65500000D02*
X138578299Y-65500000D01*
X145320000Y-66188299D02*
X144631701Y-65500000D01*
X138578299Y-65500000D02*
X137890000Y-66188299D01*
X148705000Y-107145000D02*
X148705000Y-107995000D01*
X146145000Y-67850000D02*
X145320000Y-67025000D01*
X137890000Y-74970000D02*
X139700000Y-76780000D01*
X150590000Y-67850000D02*
X146145000Y-67850000D01*
X149860000Y-105990000D02*
X148705000Y-107145000D01*
X137890000Y-66188299D02*
X137890000Y-74970000D01*
X145320000Y-67025000D02*
X145320000Y-66188299D01*
X151765000Y-66675000D02*
X150590000Y-67850000D01*
%TO.N,JTMS{slash}SWDIO*%
X153808832Y-110920000D02*
X151130000Y-110920000D01*
X155760000Y-105214000D02*
X155760000Y-108968832D01*
X155499220Y-104953220D02*
X155760000Y-105214000D01*
X155760000Y-108968832D02*
X153808832Y-110920000D01*
X148590000Y-93980000D02*
X151820000Y-93980000D01*
X152434073Y-104953220D02*
X155499220Y-104953220D01*
%TO.N,JTCK{slash}SWCLK*%
X149205000Y-107915000D02*
X151130000Y-105990000D01*
X149205000Y-107995000D02*
X149205000Y-107915000D01*
%TO.N,JTDO*%
X146050000Y-103450000D02*
X146205000Y-103605000D01*
X141605000Y-66675000D02*
X140430000Y-67850000D01*
X144780000Y-84400000D02*
X143510000Y-84400000D01*
X147320000Y-81860000D02*
X144780000Y-84400000D01*
X146205000Y-103605000D02*
X146205000Y-107995000D01*
X140430000Y-67850000D02*
X140430000Y-75749904D01*
X140430000Y-75749904D02*
X144546054Y-79865958D01*
%TO.N,PB6*%
X144705000Y-107995000D02*
X144705000Y-105335000D01*
X142858604Y-104175000D02*
X140150000Y-101466396D01*
X130715000Y-87086903D02*
X130715000Y-84305000D01*
X131165000Y-88493000D02*
X131165000Y-87536903D01*
X140150000Y-97478000D02*
X131165000Y-88493000D01*
X131165000Y-87536903D02*
X130715000Y-87086903D01*
X140150000Y-101466396D02*
X140150000Y-97478000D01*
X130715000Y-84305000D02*
X129540000Y-83130000D01*
X144705000Y-105335000D02*
X143545000Y-104175000D01*
X143545000Y-104175000D02*
X142858604Y-104175000D01*
%TO.N,PB7*%
X139700000Y-97733604D02*
X130715000Y-88748604D01*
X130715000Y-87723299D02*
X129540000Y-86548299D01*
X144205000Y-106105000D02*
X142725000Y-104625000D01*
X139700000Y-101652792D02*
X139700000Y-97733604D01*
X142672208Y-104625000D02*
X139700000Y-101652792D01*
X129540000Y-86548299D02*
X129540000Y-85670000D01*
X142725000Y-104625000D02*
X142672208Y-104625000D01*
X130715000Y-88748604D02*
X130715000Y-87723299D01*
X144205000Y-107995000D02*
X144205000Y-106105000D01*
%TO.N,PB8*%
X129540000Y-88210000D02*
X138430000Y-97100000D01*
X143205000Y-105794188D02*
X143205000Y-107995000D01*
X138430000Y-97100000D02*
X138430000Y-101019188D01*
X138430000Y-101019188D02*
X143205000Y-105794188D01*
%TO.N,PB9*%
X142705000Y-107017919D02*
X142705000Y-107995000D01*
X129540000Y-90750000D02*
X136447701Y-97657701D01*
X136447701Y-97657701D02*
X136447701Y-100760620D01*
X136447701Y-100760620D02*
X142705000Y-107017919D01*
%TO.N,PC13*%
X138416396Y-110420000D02*
X139780000Y-110420000D01*
X135070000Y-107073604D02*
X138416396Y-110420000D01*
X129540000Y-93290000D02*
X135070000Y-98820000D01*
X135070000Y-98820000D02*
X135070000Y-107073604D01*
%TO.N,PA5*%
X143705000Y-119345000D02*
X143705000Y-121725000D01*
X143705000Y-121725000D02*
X143510000Y-121920000D01*
%TO.N,PA6*%
X144205000Y-119345000D02*
X144205000Y-121345000D01*
X144205000Y-121345000D02*
X144780000Y-121920000D01*
%TO.N,PC0*%
X134250000Y-109427208D02*
X133350000Y-108527208D01*
X136339188Y-113420000D02*
X134250000Y-111330812D01*
X133350000Y-108527208D02*
X133350000Y-104720000D01*
X139780000Y-113420000D02*
X136339188Y-113420000D01*
X134250000Y-111330812D02*
X134250000Y-109427208D01*
X133350000Y-104720000D02*
X129540000Y-100910000D01*
%TO.N,PC1*%
X133800000Y-111517208D02*
X136227792Y-113945000D01*
X132080000Y-105995584D02*
X132080000Y-107893604D01*
X129540000Y-103450000D02*
X129540000Y-103455584D01*
X136227792Y-113945000D02*
X139755000Y-113945000D01*
X129540000Y-103455584D02*
X132080000Y-105995584D01*
X139755000Y-113945000D02*
X139780000Y-113920000D01*
X133800000Y-109613604D02*
X133800000Y-111517208D01*
X132080000Y-107893604D02*
X133800000Y-109613604D01*
%TO.N,PC2*%
X133350000Y-109800000D02*
X129540000Y-105990000D01*
X133350000Y-111703604D02*
X133350000Y-109800000D01*
X139780000Y-114420000D02*
X136066396Y-114420000D01*
X136066396Y-114420000D02*
X133350000Y-111703604D01*
%TO.N,PC3*%
X129540000Y-108530000D02*
X135930000Y-114920000D01*
X135930000Y-114920000D02*
X139780000Y-114920000D01*
%TO.N,PA0*%
X131443604Y-111070000D02*
X129540000Y-111070000D01*
X136793604Y-116420000D02*
X131443604Y-111070000D01*
X139715800Y-116415000D02*
X139710800Y-116420000D01*
X139710800Y-116420000D02*
X136793604Y-116420000D01*
%TO.N,PA1*%
X136657208Y-116920000D02*
X139780000Y-116920000D01*
X129540000Y-113610000D02*
X133347208Y-113610000D01*
X133347208Y-113610000D02*
X136657208Y-116920000D01*
%TO.N,PA2*%
X133324612Y-114223800D02*
X131466200Y-114223800D01*
X139780000Y-117420000D02*
X136520812Y-117420000D01*
X136520812Y-117420000D02*
X133324612Y-114223800D01*
X131466200Y-114223800D02*
X129540000Y-116150000D01*
%TO.N,PA3*%
X131500000Y-120650000D02*
X129540000Y-118690000D01*
X141705000Y-119345000D02*
X141705000Y-120650000D01*
X141705000Y-120650000D02*
X131500000Y-120650000D01*
%TO.N,PC12*%
X152875000Y-102235000D02*
X151660000Y-103450000D01*
X161290000Y-88210000D02*
X152875000Y-96625000D01*
X151660000Y-103450000D02*
X148590000Y-103450000D01*
X148590000Y-103450000D02*
X147205000Y-104835000D01*
X152875000Y-96625000D02*
X152875000Y-102235000D01*
X147205000Y-104835000D02*
X147205000Y-107995000D01*
%TO.N,PC11*%
X160020000Y-90750000D02*
X161290000Y-90750000D01*
X148776396Y-103900000D02*
X151846396Y-103900000D01*
X153670000Y-97100000D02*
X160020000Y-90750000D01*
X153670000Y-102076396D02*
X153670000Y-97100000D01*
X147705000Y-107995000D02*
X147705000Y-104971396D01*
X147705000Y-104971396D02*
X148776396Y-103900000D01*
X151846396Y-103900000D02*
X153670000Y-102076396D01*
%TO.N,PC10*%
X148205000Y-105107792D02*
X148205000Y-107995000D01*
X152032792Y-104350000D02*
X148962792Y-104350000D01*
X148962792Y-104350000D02*
X148205000Y-105107792D01*
X161290000Y-93290000D02*
X158750000Y-93290000D01*
X158750000Y-93290000D02*
X154120000Y-97920000D01*
X154120000Y-97920000D02*
X154120000Y-102262792D01*
X154120000Y-102262792D02*
X152032792Y-104350000D01*
%TO.N,PA8*%
X154490812Y-113420000D02*
X159215000Y-108695812D01*
X159215000Y-102985000D02*
X161290000Y-100910000D01*
X159215000Y-108695812D02*
X159215000Y-102985000D01*
X151130000Y-113420000D02*
X154490812Y-113420000D01*
%TO.N,PC9*%
X159665000Y-105075000D02*
X159665000Y-108882208D01*
X161290000Y-103450000D02*
X159665000Y-105075000D01*
X159665000Y-108882208D02*
X154627208Y-113920000D01*
X154627208Y-113920000D02*
X151130000Y-113920000D01*
%TO.N,PC8*%
X154763604Y-114420000D02*
X160115000Y-109068604D01*
X160115000Y-109068604D02*
X160115000Y-107165000D01*
X151130000Y-114420000D02*
X154763604Y-114420000D01*
X160115000Y-107165000D02*
X161290000Y-105990000D01*
%TO.N,PC7*%
X161290000Y-108530000D02*
X154900000Y-114920000D01*
X154900000Y-114920000D02*
X151130000Y-114920000D01*
%TO.N,PC6*%
X151130000Y-115420000D02*
X156940000Y-115420000D01*
X156940000Y-115420000D02*
X161290000Y-111070000D01*
%TO.N,PB15*%
X158980000Y-115920000D02*
X151130000Y-115920000D01*
X161290000Y-113610000D02*
X158980000Y-115920000D01*
%TO.N,PB14*%
X151130000Y-116420000D02*
X161020000Y-116420000D01*
X161020000Y-116420000D02*
X161290000Y-116150000D01*
%TO.N,Net-(S2-COM)*%
X134620000Y-126920000D02*
X136605000Y-126920000D01*
X136605000Y-126920000D02*
X137160000Y-126365000D01*
%TO.N,Net-(J6-CC1)*%
X144488000Y-133462000D02*
X144508000Y-133482000D01*
X147777500Y-127354000D02*
X144680000Y-127354000D01*
X142964000Y-130010000D02*
X144488000Y-131534000D01*
X143293505Y-127354000D02*
X142964000Y-127683505D01*
X142964000Y-127683505D02*
X142964000Y-130010000D01*
X144488000Y-131534000D02*
X144488000Y-133462000D01*
X144626000Y-127354000D02*
X143293505Y-127354000D01*
X148439500Y-128016000D02*
X147777500Y-127354000D01*
%TO.N,Net-(J6-DP1)*%
X145288000Y-128166500D02*
X145508000Y-128386500D01*
X145508000Y-128386500D02*
X145508000Y-133482000D01*
%TO.N,Net-(J6-DN1)*%
X146008000Y-129224500D02*
X146008000Y-133482000D01*
X146812000Y-128420500D02*
X146008000Y-129224500D01*
X146812000Y-128166500D02*
X146812000Y-128420500D01*
%TO.N,Net-(J6-CC2)*%
X148397000Y-129540000D02*
X147508000Y-130429000D01*
X148439500Y-129540000D02*
X148397000Y-129540000D01*
X147508000Y-130429000D02*
X147508000Y-133482000D01*
%TO.N,PB13*%
X161290000Y-118690000D02*
X159520000Y-116920000D01*
X159520000Y-116920000D02*
X151130000Y-116920000D01*
%TO.N,PB12*%
X157480000Y-117420000D02*
X161290000Y-121230000D01*
X151130000Y-117420000D02*
X157480000Y-117420000D01*
%TO.N,PB11*%
X147042557Y-121897431D02*
X148205000Y-120734988D01*
X147042557Y-122132652D02*
X147042557Y-121897431D01*
X148205000Y-120734988D02*
X148205000Y-119345000D01*
%TO.N,PB10*%
X146220305Y-121240000D02*
X147063592Y-121240000D01*
X146220305Y-122141396D02*
X146220305Y-121240000D01*
X147197652Y-123312348D02*
X146123503Y-122238198D01*
X147705000Y-120598592D02*
X147705000Y-119345000D01*
X147063592Y-121240000D02*
X147705000Y-120598592D01*
X146123503Y-122238198D02*
X146220305Y-122141396D01*
%TO.N,PB1*%
X145144503Y-120920497D02*
X145725000Y-120340000D01*
X146705000Y-120325800D02*
X146705000Y-119345000D01*
X144929500Y-120920497D02*
X145144503Y-120920497D01*
X145725000Y-120340000D02*
X146690800Y-120340000D01*
X146690800Y-120340000D02*
X146705000Y-120325800D01*
%TO.N,BOOT0*%
X134620000Y-125095000D02*
X132665500Y-125095000D01*
X143705000Y-109605000D02*
X143510000Y-109800000D01*
X132665500Y-125095000D02*
X132080000Y-124509500D01*
X143705000Y-107995000D02*
X143705000Y-109605000D01*
%TO.N,BOOT1*%
X142965000Y-123838500D02*
X142965000Y-123481000D01*
X145080305Y-122645000D02*
X145770305Y-121955000D01*
X142240000Y-124563500D02*
X142965000Y-123838500D01*
X142965000Y-123481000D02*
X143801000Y-122645000D01*
X145964503Y-120790000D02*
X146877196Y-120790000D01*
X146877196Y-120790000D02*
X147205000Y-120462196D01*
X145770305Y-121955000D02*
X145770305Y-120984198D01*
X143801000Y-122645000D02*
X145080305Y-122645000D01*
X145770305Y-120984198D02*
X145964503Y-120790000D01*
X147205000Y-120462196D02*
X147205000Y-119345000D01*
%TO.N,Net-(U1-VCAP_2)*%
X153061500Y-107950000D02*
X153061500Y-109469300D01*
X153061500Y-109469300D02*
X152115800Y-110415000D01*
X152115800Y-110415000D02*
X151215800Y-110415000D01*
%TO.N,Net-(D2-K)*%
X149098000Y-124601000D02*
X149098000Y-123086500D01*
%TO.N,RESET*%
X156464000Y-87194000D02*
X156464000Y-91766000D01*
X147900000Y-100330000D02*
X147175000Y-99605000D01*
X154940000Y-85670000D02*
X156464000Y-87194000D01*
X130810000Y-135890000D02*
X133780000Y-138860000D01*
X130810000Y-135482500D02*
X128958500Y-135482500D01*
X147175000Y-99605000D02*
X144235000Y-99605000D01*
X130810000Y-135482500D02*
X130810000Y-135890000D01*
X128958500Y-135482500D02*
X127915000Y-134439000D01*
X156464000Y-91766000D02*
X147900000Y-100330000D01*
X130865000Y-122555000D02*
X132842000Y-122555000D01*
X143510000Y-100330000D02*
X143510000Y-103450000D01*
X139780000Y-112920000D02*
X137740000Y-112920000D01*
X127915000Y-122855000D02*
X129540000Y-121230000D01*
X137740000Y-112920000D02*
X137160000Y-112340000D01*
X127915000Y-134439000D02*
X127915000Y-122855000D01*
X129540000Y-121230000D02*
X130865000Y-122555000D01*
X133780000Y-138860000D02*
X134620000Y-138860000D01*
X144235000Y-99605000D02*
X143510000Y-100330000D01*
%TO.N,GND*%
X151780000Y-126513495D02*
X150277495Y-128016000D01*
X130810000Y-133757500D02*
X132917500Y-133757500D01*
X162465000Y-81955000D02*
X162465000Y-79320000D01*
X142621000Y-133419000D02*
X142558000Y-133482000D01*
X142218369Y-113562009D02*
X142218369Y-114509930D01*
X136297500Y-101246815D02*
X136297500Y-105410000D01*
X142205000Y-107154315D02*
X142205000Y-107995000D01*
X153350000Y-123356500D02*
X153350000Y-126310000D01*
X135722701Y-100672016D02*
X136297500Y-101246815D01*
X150622000Y-121261500D02*
X150622000Y-119507000D01*
X151130000Y-79307500D02*
X153670000Y-79307500D01*
X156210000Y-79307500D02*
X153670000Y-79307500D01*
X142218369Y-114509930D02*
X141308299Y-115420000D01*
X148958000Y-132728000D02*
X148958000Y-133482000D01*
X153416000Y-126310000D02*
X153350000Y-126310000D01*
X134137400Y-119634000D02*
X133959600Y-119811800D01*
X153350000Y-126310000D02*
X153350000Y-127315000D01*
X150277495Y-128016000D02*
X150264500Y-128016000D01*
X142240000Y-131445000D02*
X142240000Y-131410000D01*
X151780000Y-126416000D02*
X151780000Y-126513495D01*
X153416000Y-126310000D02*
X151886000Y-126310000D01*
X161290000Y-83130000D02*
X162465000Y-81955000D01*
X151886000Y-126310000D02*
X151780000Y-126416000D01*
X142205000Y-117475000D02*
X142205000Y-118504315D01*
X129540000Y-128850000D02*
X129540000Y-126310000D01*
X154786500Y-108917733D02*
X154109124Y-109595109D01*
X154940000Y-120115500D02*
X154786500Y-120269000D01*
X162465000Y-79415000D02*
X162465000Y-79320000D01*
X154786500Y-107948900D02*
X154785400Y-107950000D01*
X154940000Y-118690000D02*
X154940000Y-120115500D01*
X150241000Y-132080000D02*
X149606000Y-132080000D01*
X152312500Y-85127500D02*
X152312500Y-85670000D01*
X154786500Y-106400600D02*
X154786500Y-107948900D01*
X142240000Y-131445000D02*
X142621000Y-131826000D01*
X132917500Y-133102500D02*
X137155000Y-128865000D01*
X150215600Y-119253000D02*
X150495000Y-119380000D01*
X154310000Y-83130000D02*
X152312500Y-85127500D01*
X154786500Y-121920000D02*
X153350000Y-123356500D01*
X142240000Y-131410000D02*
X139695000Y-128865000D01*
X154786500Y-120269000D02*
X154786500Y-121920000D01*
X151005000Y-83820000D02*
X152312500Y-85127500D01*
X137160000Y-128870000D02*
X137155000Y-128865000D01*
X149098000Y-121261500D02*
X150622000Y-121261500D01*
X156210000Y-79307500D02*
X162357500Y-79307500D01*
X132917500Y-133757500D02*
X134620000Y-135460000D01*
X139695000Y-128865000D02*
X137155000Y-128865000D01*
X135722701Y-100672016D02*
X142205000Y-107154315D01*
X142215800Y-118515115D02*
X142205000Y-118504315D01*
X161290000Y-83130000D02*
X154310000Y-83130000D01*
X135722701Y-97957299D02*
X135722701Y-100672016D01*
X150264500Y-128016000D02*
X150264500Y-129540000D01*
X142621000Y-131826000D02*
X142621000Y-133419000D01*
X150402500Y-83820000D02*
X151005000Y-83820000D01*
X141308299Y-115420000D02*
X139780000Y-115420000D01*
X135840300Y-119811800D02*
X136246700Y-119405400D01*
X149606000Y-132080000D02*
X148958000Y-132728000D01*
X154786500Y-107950000D02*
X154786500Y-108917733D01*
D36*
X128270000Y-60270000D02*
X129540000Y-60270000D01*
D35*
X137155000Y-128865000D02*
X129555000Y-128865000D01*
X150622000Y-119507000D02*
X150215600Y-119253000D01*
X150264500Y-129540000D02*
X150484500Y-129320000D01*
X142215800Y-119415000D02*
X142215800Y-118515115D01*
X132917500Y-133757500D02*
X132917500Y-133102500D01*
X134137400Y-118540700D02*
X134137400Y-119634000D01*
X142275000Y-131445000D02*
X142240000Y-131445000D01*
X133959600Y-119811800D02*
X135840300Y-119811800D01*
X129555000Y-128865000D02*
X129540000Y-128850000D01*
X162357500Y-79307500D02*
X162465000Y-79415000D01*
%TO.N,5V*%
X154305000Y-129159000D02*
X152818500Y-129159000D01*
X148158000Y-133482000D02*
X148158000Y-132131000D01*
X149949000Y-130340000D02*
X148590000Y-131699000D01*
X152818500Y-129159000D02*
X151857500Y-130120000D01*
X154305000Y-127341000D02*
X154305000Y-129159000D01*
X152405000Y-127341000D02*
X152405000Y-128745500D01*
X158025500Y-130048000D02*
X157988000Y-130048000D01*
X151857500Y-130120000D02*
X151637500Y-130340000D01*
X143358000Y-132105000D02*
X143358000Y-133482000D01*
X156210000Y-118690000D02*
X156210000Y-125040000D01*
X148158000Y-132131000D02*
X148590000Y-131699000D01*
X157988000Y-130048000D02*
X155255000Y-127315000D01*
X152405000Y-128745500D02*
X152818500Y-129159000D01*
X155255000Y-127315000D02*
X154300000Y-127315000D01*
X143510000Y-131953000D02*
X143358000Y-132105000D01*
X151637500Y-130340000D02*
X149949000Y-130340000D01*
%TO.N,VCC3V3*%
X151257000Y-119679500D02*
X151257000Y-118999000D01*
X137464800Y-103886000D02*
X137464800Y-104852300D01*
X153061500Y-106426000D02*
X151215800Y-108271700D01*
X150895000Y-126351000D02*
X152405000Y-124841000D01*
X153061500Y-121920000D02*
X152405000Y-122576500D01*
X139715800Y-115915000D02*
X140615800Y-115915000D01*
X143510000Y-117475000D02*
X143510000Y-117420000D01*
X151257000Y-118999000D02*
X150673000Y-118415000D01*
X140335000Y-118110000D02*
X135046276Y-118110000D01*
X129555000Y-123785000D02*
X129540000Y-123770000D01*
X150622000Y-126351000D02*
X150895000Y-126351000D01*
X144221200Y-115620800D02*
X143586200Y-115620800D01*
X153061500Y-120269000D02*
X151846500Y-120269000D01*
X143287000Y-115920000D02*
X139780000Y-115920000D01*
X149765800Y-118415000D02*
X149215800Y-118965000D01*
X135046276Y-118110000D02*
X134137400Y-117201124D01*
X134137400Y-117201124D02*
X134137400Y-116815700D01*
X152405000Y-122576500D02*
X152405000Y-124841000D01*
X143586200Y-115620800D02*
X143287000Y-115920000D01*
X137464800Y-104852300D02*
X138022500Y-105410000D01*
X142705000Y-120775000D02*
X139695000Y-123785000D01*
X142705000Y-118225000D02*
X143455000Y-117475000D01*
X140615800Y-115915000D02*
X140640800Y-115940000D01*
X140640800Y-115940000D02*
X140640800Y-117804200D01*
X139695000Y-123785000D02*
X137155000Y-123785000D01*
X143455000Y-117475000D02*
X143510000Y-117475000D01*
X151215800Y-108271700D02*
X151215800Y-109915000D01*
X142705000Y-119345000D02*
X142705000Y-120775000D01*
X150723600Y-107543600D02*
X151215800Y-108035800D01*
X151215800Y-108035800D02*
X151215800Y-108271700D01*
X143510000Y-117420000D02*
X143510000Y-117420000D01*
X153061500Y-120269000D02*
X153061500Y-121920000D01*
X141715800Y-107915000D02*
X139210800Y-105410000D01*
X139210800Y-105410000D02*
X138022500Y-105410000D01*
X140640800Y-117804200D02*
X140335000Y-118110000D01*
X150673000Y-118415000D02*
X149765800Y-118415000D01*
X137155000Y-123785000D02*
X129555000Y-123785000D01*
X149215800Y-118965000D02*
X149215800Y-119415000D01*
X142705000Y-119345000D02*
X142705000Y-118225000D01*
X151846500Y-120269000D02*
X151257000Y-119679500D01*
%TO.N,VBAT*%
X138430000Y-107260000D02*
X138430000Y-108570000D01*
X138430000Y-85852000D02*
X136072000Y-85852000D01*
X130810000Y-80590000D02*
X129540000Y-80590000D01*
X136072000Y-85852000D02*
X130810000Y-80590000D01*
X138430000Y-108570000D02*
X139780000Y-109920000D01*
%TO.N,USBDP*%
X144320000Y-125373500D02*
X145288000Y-126341500D01*
X144320000Y-124158000D02*
X144320000Y-125373500D01*
X144526000Y-123952000D02*
X144320000Y-124158000D01*
%TO.N,USBDM*%
X145288000Y-124968000D02*
X145438500Y-124968000D01*
X144225695Y-123227000D02*
X143764000Y-123688695D01*
X144826305Y-123227000D02*
X144225695Y-123227000D01*
X143764000Y-123688695D02*
X143764000Y-126341500D01*
X145288000Y-124968000D02*
X145288000Y-123688695D01*
X145438500Y-124968000D02*
X146812000Y-126341500D01*
X145288000Y-123688695D02*
X144826305Y-123227000D01*
%TO.N,PA10{slash}USART1_RX*%
X151130000Y-112420000D02*
X149200000Y-112420000D01*
X158300000Y-98820000D02*
X158300000Y-108338020D01*
X158300000Y-108338020D02*
X154243020Y-112395000D01*
X154243020Y-112395000D02*
X151130000Y-112395000D01*
X151130000Y-112395000D02*
X151130000Y-112420000D01*
X161290000Y-95830000D02*
X158300000Y-98820000D01*
X149200000Y-112420000D02*
X148590000Y-113030000D01*
%TO.N,PA9{slash}USART1_TX*%
X154354416Y-112920000D02*
X158750000Y-108524416D01*
X149970000Y-112920000D02*
X154354416Y-112920000D01*
X158750000Y-100910000D02*
X161290000Y-98370000D01*
X158750000Y-108524416D02*
X158750000Y-100910000D01*
X148590000Y-114300000D02*
X149970000Y-112920000D01*
%TO.N,Net-(J6-DP2)*%
X151868500Y-135890000D02*
X147955000Y-135890000D01*
X146508000Y-134443000D02*
X146508000Y-133482000D01*
X153900500Y-133858000D02*
X151868500Y-135890000D01*
X147955000Y-135890000D02*
X146508000Y-134443000D01*
%TO.N,Net-(J6-DN2)*%
X143764000Y-128166500D02*
X145008000Y-129410500D01*
X145008000Y-129410500D02*
X145008000Y-133482000D01*
%TO.N,Net-(S3-COM)*%
X142240000Y-126388500D02*
X142176500Y-126325000D01*
X139710000Y-126310000D02*
X139695000Y-126325000D01*
X142176500Y-126325000D02*
X139695000Y-126325000D01*
%TO.N,Net-(U1-VCAP_1)*%
X148690800Y-118490000D02*
X144780000Y-118490000D01*
X148715800Y-118515000D02*
X148690800Y-118490000D01*
X141090800Y-117990596D02*
X139675996Y-119405400D01*
X144235000Y-116930000D02*
X144055000Y-116750000D01*
X141090800Y-117354200D02*
X141090800Y-117990596D01*
X144780000Y-118490000D02*
X144235000Y-117945000D01*
X141695000Y-116750000D02*
X141090800Y-117354200D01*
X148715800Y-119415000D02*
X148715800Y-118515000D01*
X144235000Y-117945000D02*
X144235000Y-116930000D01*
X144055000Y-116750000D02*
X141695000Y-116750000D01*
X139675996Y-119405400D02*
X137971700Y-119405400D01*
%TD*%
%TA.AperFunction,Conductor*%
%TO.N,GND*%
G36*
X131119524Y-124430185D02*
G01*
X131165279Y-124482989D01*
X131175804Y-124521534D01*
X131194326Y-124697756D01*
X131194327Y-124697759D01*
X131252818Y-124877777D01*
X131252821Y-124877784D01*
X131347467Y-125041716D01*
X131463740Y-125170850D01*
X131474129Y-125182388D01*
X131627265Y-125293648D01*
X131627270Y-125293651D01*
X131800192Y-125370642D01*
X131800197Y-125370644D01*
X131985354Y-125410000D01*
X132044548Y-125410000D01*
X132111587Y-125429685D01*
X132132229Y-125446319D01*
X132176516Y-125490606D01*
X132176545Y-125490637D01*
X132266764Y-125580856D01*
X132266767Y-125580858D01*
X132306665Y-125607517D01*
X132369214Y-125649312D01*
X132449707Y-125682652D01*
X132483048Y-125696463D01*
X132543471Y-125708481D01*
X132603893Y-125720500D01*
X132603894Y-125720500D01*
X133677809Y-125720500D01*
X133744848Y-125740185D01*
X133783348Y-125779404D01*
X133799659Y-125805849D01*
X133913629Y-125919819D01*
X133947114Y-125981142D01*
X133942130Y-126050834D01*
X133913629Y-126095181D01*
X133799661Y-126209148D01*
X133709093Y-126355981D01*
X133709092Y-126355984D01*
X133654826Y-126519747D01*
X133654826Y-126519748D01*
X133654825Y-126519748D01*
X133644500Y-126620815D01*
X133644500Y-127219169D01*
X133644501Y-127219187D01*
X133654825Y-127320252D01*
X133677016Y-127387219D01*
X133707239Y-127478425D01*
X133709092Y-127484015D01*
X133709093Y-127484018D01*
X133739307Y-127533002D01*
X133799660Y-127630850D01*
X133921650Y-127752840D01*
X134068484Y-127843408D01*
X134232247Y-127897674D01*
X134333323Y-127908000D01*
X134906676Y-127907999D01*
X134906684Y-127907998D01*
X134906687Y-127907998D01*
X134962030Y-127902344D01*
X135007753Y-127897674D01*
X135171516Y-127843408D01*
X135318350Y-127752840D01*
X135440340Y-127630850D01*
X135456652Y-127604404D01*
X135508600Y-127557679D01*
X135562191Y-127545500D01*
X136666607Y-127545500D01*
X136727029Y-127533481D01*
X136787452Y-127521463D01*
X136787457Y-127521461D01*
X136789513Y-127520838D01*
X136825507Y-127515499D01*
X136996481Y-127515499D01*
X137063520Y-127535184D01*
X137109275Y-127587988D01*
X137119219Y-127657146D01*
X137090194Y-127720702D01*
X137031416Y-127758476D01*
X137019266Y-127761388D01*
X136843941Y-127794162D01*
X136843936Y-127794163D01*
X136645210Y-127871149D01*
X136645201Y-127871154D01*
X136542992Y-127934438D01*
X136542991Y-127934439D01*
X137113553Y-128505000D01*
X137107339Y-128505000D01*
X137005606Y-128532259D01*
X136914394Y-128584920D01*
X136839920Y-128659394D01*
X136787259Y-128750606D01*
X136760000Y-128852339D01*
X136760000Y-128858552D01*
X136186836Y-128285388D01*
X136178059Y-128297010D01*
X136083066Y-128487783D01*
X136083058Y-128487803D01*
X136024738Y-128692780D01*
X136024737Y-128692783D01*
X136005073Y-128904999D01*
X136005073Y-128905000D01*
X136024737Y-129117216D01*
X136024738Y-129117219D01*
X136083058Y-129322196D01*
X136083064Y-129322211D01*
X136178061Y-129512991D01*
X136178064Y-129512996D01*
X136186836Y-129524610D01*
X136760000Y-128951446D01*
X136760000Y-128957661D01*
X136787259Y-129059394D01*
X136839920Y-129150606D01*
X136914394Y-129225080D01*
X137005606Y-129277741D01*
X137107339Y-129305000D01*
X137113553Y-129305000D01*
X136542991Y-129875559D01*
X136645204Y-129938847D01*
X136645208Y-129938849D01*
X136843936Y-130015836D01*
X136843941Y-130015837D01*
X137053439Y-130055000D01*
X137266561Y-130055000D01*
X137476058Y-130015837D01*
X137476063Y-130015836D01*
X137674791Y-129938849D01*
X137674798Y-129938846D01*
X137777006Y-129875560D01*
X137777006Y-129875559D01*
X137206448Y-129305000D01*
X137212661Y-129305000D01*
X137314394Y-129277741D01*
X137405606Y-129225080D01*
X137480080Y-129150606D01*
X137532741Y-129059394D01*
X137560000Y-128957661D01*
X137560000Y-128951447D01*
X138133162Y-129524609D01*
X138133163Y-129524609D01*
X138141940Y-129512988D01*
X138141942Y-129512985D01*
X138236933Y-129322216D01*
X138236941Y-129322196D01*
X138295261Y-129117219D01*
X138295262Y-129117216D01*
X138306529Y-128995628D01*
X138332315Y-128930690D01*
X138368466Y-128904794D01*
X138340497Y-128888751D01*
X138308307Y-128826738D01*
X138306529Y-128814371D01*
X138295262Y-128692783D01*
X138295261Y-128692780D01*
X138236941Y-128487803D01*
X138236933Y-128487783D01*
X138141942Y-128297014D01*
X138141937Y-128297006D01*
X138133163Y-128285389D01*
X138133162Y-128285389D01*
X137560000Y-128858551D01*
X137560000Y-128852339D01*
X137532741Y-128750606D01*
X137480080Y-128659394D01*
X137405606Y-128584920D01*
X137314394Y-128532259D01*
X137212661Y-128505000D01*
X137206448Y-128505000D01*
X137777007Y-127934439D01*
X137674793Y-127871151D01*
X137674789Y-127871149D01*
X137476063Y-127794163D01*
X137476058Y-127794162D01*
X137300734Y-127761388D01*
X137238453Y-127729720D01*
X137203180Y-127669407D01*
X137206114Y-127599599D01*
X137246323Y-127542459D01*
X137311041Y-127516128D01*
X137323519Y-127515499D01*
X137857871Y-127515499D01*
X137857872Y-127515499D01*
X137917483Y-127509091D01*
X138052331Y-127458796D01*
X138167546Y-127372546D01*
X138253796Y-127257331D01*
X138304091Y-127122483D01*
X138306710Y-127098115D01*
X138333445Y-127033568D01*
X138390837Y-126993719D01*
X138460662Y-126991223D01*
X138520752Y-127026874D01*
X138552028Y-127089352D01*
X138553288Y-127098116D01*
X138555907Y-127122480D01*
X138606202Y-127257328D01*
X138606206Y-127257335D01*
X138692452Y-127372544D01*
X138692455Y-127372547D01*
X138807664Y-127458793D01*
X138807671Y-127458797D01*
X138942517Y-127509091D01*
X138942516Y-127509091D01*
X138949444Y-127509835D01*
X139002127Y-127515500D01*
X139536480Y-127515499D01*
X139603517Y-127535183D01*
X139649272Y-127587987D01*
X139659216Y-127657146D01*
X139630191Y-127720702D01*
X139571413Y-127758476D01*
X139559264Y-127761388D01*
X139383939Y-127794162D01*
X139383936Y-127794163D01*
X139185210Y-127871149D01*
X139185201Y-127871154D01*
X139082992Y-127934438D01*
X139082991Y-127934439D01*
X139653553Y-128505000D01*
X139647339Y-128505000D01*
X139545606Y-128532259D01*
X139454394Y-128584920D01*
X139379920Y-128659394D01*
X139327259Y-128750606D01*
X139300000Y-128852339D01*
X139300000Y-128858552D01*
X138726836Y-128285388D01*
X138718059Y-128297010D01*
X138623066Y-128487783D01*
X138623058Y-128487803D01*
X138564738Y-128692780D01*
X138564737Y-128692783D01*
X138553471Y-128814371D01*
X138527685Y-128879309D01*
X138491533Y-128905204D01*
X138519503Y-128921248D01*
X138551693Y-128983261D01*
X138553471Y-128995628D01*
X138564737Y-129117216D01*
X138564738Y-129117219D01*
X138623058Y-129322196D01*
X138623064Y-129322211D01*
X138718061Y-129512991D01*
X138718064Y-129512996D01*
X138726836Y-129524610D01*
X139300000Y-128951446D01*
X139300000Y-128957661D01*
X139327259Y-129059394D01*
X139379920Y-129150606D01*
X139454394Y-129225080D01*
X139545606Y-129277741D01*
X139647339Y-129305000D01*
X139653553Y-129305000D01*
X139082991Y-129875559D01*
X139185204Y-129938847D01*
X139185208Y-129938849D01*
X139383936Y-130015836D01*
X139383941Y-130015837D01*
X139593439Y-130055000D01*
X139806561Y-130055000D01*
X140016058Y-130015837D01*
X140016063Y-130015836D01*
X140214791Y-129938849D01*
X140214798Y-129938846D01*
X140317006Y-129875560D01*
X140317006Y-129875559D01*
X139746448Y-129305000D01*
X139752661Y-129305000D01*
X139854394Y-129277741D01*
X139945606Y-129225080D01*
X140020080Y-129150606D01*
X140072741Y-129059394D01*
X140100000Y-128957661D01*
X140100000Y-128951447D01*
X140673162Y-129524609D01*
X140673163Y-129524609D01*
X140681940Y-129512988D01*
X140681942Y-129512985D01*
X140776933Y-129322216D01*
X140776941Y-129322196D01*
X140835261Y-129117219D01*
X140835262Y-129117216D01*
X140854927Y-128905000D01*
X140854927Y-128904999D01*
X140835262Y-128692783D01*
X140835261Y-128692780D01*
X140776941Y-128487803D01*
X140776933Y-128487783D01*
X140681942Y-128297014D01*
X140681937Y-128297006D01*
X140673163Y-128285389D01*
X140100000Y-128858552D01*
X140100000Y-128852339D01*
X140072741Y-128750606D01*
X140020080Y-128659394D01*
X139945606Y-128584920D01*
X139854394Y-128532259D01*
X139752661Y-128505000D01*
X139746448Y-128505000D01*
X140317007Y-127934439D01*
X140214793Y-127871151D01*
X140214789Y-127871149D01*
X140016063Y-127794163D01*
X140016058Y-127794162D01*
X139840735Y-127761388D01*
X139778454Y-127729720D01*
X139743181Y-127669407D01*
X139746115Y-127599599D01*
X139786324Y-127542459D01*
X139851042Y-127516128D01*
X139863512Y-127515499D01*
X140397872Y-127515499D01*
X140457483Y-127509091D01*
X140592331Y-127458796D01*
X140707546Y-127372546D01*
X140793796Y-127257331D01*
X140844091Y-127122483D01*
X140850500Y-127062873D01*
X140850500Y-127062863D01*
X140850674Y-127061245D01*
X140877412Y-126996694D01*
X140934805Y-126956846D01*
X140973964Y-126950500D01*
X141323769Y-126950500D01*
X141390808Y-126970185D01*
X141414045Y-126991250D01*
X141414553Y-126990743D01*
X141419660Y-126995850D01*
X141541650Y-127117840D01*
X141688484Y-127208408D01*
X141852247Y-127262674D01*
X141953323Y-127273000D01*
X142271421Y-127272999D01*
X142338459Y-127292683D01*
X142384214Y-127345487D01*
X142394158Y-127414646D01*
X142385983Y-127444447D01*
X142380041Y-127458793D01*
X142376347Y-127467712D01*
X142362537Y-127501053D01*
X142358477Y-127521463D01*
X142339422Y-127617266D01*
X142339421Y-127617272D01*
X142338500Y-127621896D01*
X142338500Y-130071611D01*
X142362535Y-130192444D01*
X142362540Y-130192461D01*
X142409685Y-130306281D01*
X142409687Y-130306284D01*
X142435080Y-130344286D01*
X142435081Y-130344288D01*
X142478140Y-130408731D01*
X142478141Y-130408732D01*
X142478142Y-130408733D01*
X142565267Y-130495858D01*
X142565268Y-130495858D01*
X142572335Y-130502925D01*
X142572334Y-130502925D01*
X142572338Y-130502928D01*
X143059435Y-130990025D01*
X143092920Y-131051348D01*
X143087936Y-131121040D01*
X143046064Y-131176973D01*
X143044640Y-131178024D01*
X142904127Y-131280113D01*
X142777466Y-131420785D01*
X142682821Y-131584715D01*
X142682818Y-131584722D01*
X142639076Y-131719347D01*
X142624326Y-131764744D01*
X142604540Y-131953000D01*
X142624326Y-132141256D01*
X142624327Y-132141259D01*
X142682818Y-132321277D01*
X142682821Y-132321284D01*
X142707679Y-132364339D01*
X142724152Y-132432239D01*
X142701299Y-132498266D01*
X142699559Y-132500650D01*
X142614203Y-132614669D01*
X142614202Y-132614671D01*
X142563908Y-132749517D01*
X142557501Y-132809116D01*
X142557500Y-132809135D01*
X142557500Y-133608000D01*
X142537815Y-133675039D01*
X142485011Y-133720794D01*
X142433500Y-133732000D01*
X142432000Y-133732000D01*
X142364961Y-133712315D01*
X142319206Y-133659511D01*
X142308000Y-133608000D01*
X142308000Y-132357000D01*
X142210155Y-132357000D01*
X142150627Y-132363401D01*
X142150620Y-132363403D01*
X142015913Y-132413645D01*
X142015906Y-132413649D01*
X141900812Y-132499809D01*
X141818131Y-132610256D01*
X141762197Y-132652126D01*
X141692505Y-132657110D01*
X141678602Y-132653225D01*
X141517493Y-132597916D01*
X141272293Y-132557000D01*
X141023707Y-132557000D01*
X140778506Y-132597916D01*
X140543396Y-132678630D01*
X140543390Y-132678632D01*
X140324761Y-132796949D01*
X140277942Y-132833388D01*
X140277942Y-132833390D01*
X140743610Y-133299058D01*
X140743006Y-133299309D01*
X140602969Y-133392878D01*
X140483878Y-133511969D01*
X140390309Y-133652006D01*
X140390058Y-133652610D01*
X139924564Y-133187116D01*
X139824267Y-133340632D01*
X139724412Y-133568282D01*
X139663387Y-133809261D01*
X139663385Y-133809270D01*
X139642859Y-134056994D01*
X139642859Y-134057005D01*
X139663385Y-134304729D01*
X139663387Y-134304738D01*
X139724412Y-134545717D01*
X139824266Y-134773364D01*
X139924564Y-134926882D01*
X140390058Y-134461388D01*
X140390309Y-134461994D01*
X140483878Y-134602031D01*
X140602969Y-134721122D01*
X140743006Y-134814691D01*
X140743609Y-134814941D01*
X140277942Y-135280609D01*
X140324768Y-135317055D01*
X140324770Y-135317056D01*
X140543385Y-135435364D01*
X140543396Y-135435369D01*
X140778506Y-135516083D01*
X141023707Y-135557000D01*
X141272293Y-135557000D01*
X141517493Y-135516083D01*
X141752603Y-135435369D01*
X141752614Y-135435364D01*
X141971230Y-135317056D01*
X141971235Y-135317052D01*
X142079968Y-135232421D01*
X142144961Y-135206778D01*
X142203583Y-135215713D01*
X142268251Y-135242499D01*
X142268256Y-135242501D01*
X142268260Y-135242501D01*
X142268261Y-135242502D01*
X142393928Y-135267500D01*
X142393931Y-135267500D01*
X142522071Y-135267500D01*
X142606615Y-135250682D01*
X142647744Y-135242501D01*
X142766127Y-135193465D01*
X142872669Y-135122276D01*
X142963276Y-135031669D01*
X143034465Y-134925127D01*
X143083501Y-134806744D01*
X143103281Y-134707307D01*
X143135666Y-134645396D01*
X143196382Y-134610822D01*
X143224898Y-134607499D01*
X143705872Y-134607499D01*
X143705885Y-134607498D01*
X143744744Y-134603320D01*
X143771252Y-134603320D01*
X143810127Y-134607500D01*
X144205872Y-134607499D01*
X144205873Y-134607498D01*
X144205885Y-134607498D01*
X144244744Y-134603320D01*
X144271252Y-134603320D01*
X144310127Y-134607500D01*
X144705872Y-134607499D01*
X144705873Y-134607498D01*
X144705885Y-134607498D01*
X144744744Y-134603320D01*
X144771252Y-134603320D01*
X144810127Y-134607500D01*
X145205872Y-134607499D01*
X145205873Y-134607498D01*
X145205885Y-134607498D01*
X145244744Y-134603320D01*
X145271252Y-134603320D01*
X145310127Y-134607500D01*
X145705872Y-134607499D01*
X145705873Y-134607498D01*
X145705885Y-134607498D01*
X145744744Y-134603320D01*
X145771252Y-134603320D01*
X145810127Y-134607500D01*
X145816236Y-134607499D01*
X145883274Y-134627176D01*
X145929035Y-134679976D01*
X145930807Y-134684046D01*
X145953688Y-134739286D01*
X145985242Y-134786509D01*
X145987914Y-134790507D01*
X145987915Y-134790509D01*
X146022141Y-134841733D01*
X146113586Y-134933178D01*
X146113608Y-134933198D01*
X147292729Y-136112319D01*
X147326214Y-136173642D01*
X147321230Y-136243334D01*
X147279358Y-136299267D01*
X147213894Y-136323684D01*
X147205048Y-136324000D01*
X136468889Y-136324000D01*
X136408471Y-136336018D01*
X136365243Y-136344616D01*
X136348046Y-136348037D01*
X136324167Y-136357929D01*
X136324166Y-136357929D01*
X136234218Y-136395185D01*
X136234214Y-136395187D01*
X136203948Y-136415411D01*
X136193765Y-136422216D01*
X136131768Y-136463640D01*
X136108298Y-136487111D01*
X136044642Y-136550767D01*
X134672228Y-137923181D01*
X134610905Y-137956666D01*
X134584547Y-137959500D01*
X133815452Y-137959500D01*
X133748413Y-137939815D01*
X133727771Y-137923181D01*
X131813332Y-136008742D01*
X131779847Y-135947419D01*
X131777655Y-135908463D01*
X131785500Y-135831677D01*
X131785500Y-135710000D01*
X133270000Y-135710000D01*
X133270000Y-135907844D01*
X133276401Y-135967372D01*
X133276403Y-135967379D01*
X133326645Y-136102086D01*
X133326649Y-136102093D01*
X133412809Y-136217187D01*
X133412812Y-136217190D01*
X133527906Y-136303350D01*
X133527913Y-136303354D01*
X133662620Y-136353596D01*
X133662627Y-136353598D01*
X133722155Y-136359999D01*
X133722172Y-136360000D01*
X134370000Y-136360000D01*
X134370000Y-135710000D01*
X134870000Y-135710000D01*
X134870000Y-136360000D01*
X135517828Y-136360000D01*
X135517844Y-136359999D01*
X135577372Y-136353598D01*
X135577379Y-136353596D01*
X135712086Y-136303354D01*
X135712093Y-136303350D01*
X135827187Y-136217190D01*
X135827190Y-136217187D01*
X135913350Y-136102093D01*
X135913354Y-136102086D01*
X135963596Y-135967379D01*
X135963598Y-135967372D01*
X135969999Y-135907844D01*
X135970000Y-135907827D01*
X135970000Y-135710000D01*
X134870000Y-135710000D01*
X134370000Y-135710000D01*
X133270000Y-135710000D01*
X131785500Y-135710000D01*
X131785499Y-135210000D01*
X133270000Y-135210000D01*
X134370000Y-135210000D01*
X134370000Y-134560000D01*
X134870000Y-134560000D01*
X134870000Y-135210000D01*
X135970000Y-135210000D01*
X135970000Y-135012172D01*
X135969999Y-135012155D01*
X135963598Y-134952627D01*
X135963596Y-134952620D01*
X135913354Y-134817913D01*
X135913350Y-134817906D01*
X135827190Y-134702812D01*
X135827187Y-134702809D01*
X135712093Y-134616649D01*
X135712086Y-134616645D01*
X135577379Y-134566403D01*
X135577372Y-134566401D01*
X135517844Y-134560000D01*
X134870000Y-134560000D01*
X134370000Y-134560000D01*
X133722155Y-134560000D01*
X133662627Y-134566401D01*
X133662620Y-134566403D01*
X133527913Y-134616645D01*
X133527906Y-134616649D01*
X133412812Y-134702809D01*
X133412809Y-134702812D01*
X133326649Y-134817906D01*
X133326645Y-134817913D01*
X133276403Y-134952620D01*
X133276401Y-134952627D01*
X133270000Y-135012155D01*
X133270000Y-135210000D01*
X131785499Y-135210000D01*
X131785499Y-135133324D01*
X131784370Y-135122276D01*
X131775174Y-135032247D01*
X131773884Y-135028353D01*
X131720908Y-134868484D01*
X131630340Y-134721650D01*
X131616017Y-134707327D01*
X131582532Y-134646004D01*
X131587516Y-134576312D01*
X131616021Y-134531960D01*
X131629947Y-134518035D01*
X131720448Y-134371311D01*
X131720453Y-134371300D01*
X131774680Y-134207652D01*
X131784999Y-134106654D01*
X131785000Y-134106641D01*
X131785000Y-134007500D01*
X129835001Y-134007500D01*
X129835001Y-134106654D01*
X129845319Y-134207652D01*
X129899546Y-134371300D01*
X129899551Y-134371311D01*
X129990052Y-134518034D01*
X129990055Y-134518038D01*
X130003982Y-134531965D01*
X130037467Y-134593288D01*
X130032483Y-134662980D01*
X130003984Y-134707325D01*
X129989661Y-134721648D01*
X129989657Y-134721653D01*
X129942506Y-134798097D01*
X129890558Y-134844822D01*
X129836968Y-134857000D01*
X129268952Y-134857000D01*
X129201913Y-134837315D01*
X129181271Y-134820681D01*
X128576819Y-134216229D01*
X128543334Y-134154906D01*
X128540500Y-134128548D01*
X128540500Y-133507500D01*
X129835000Y-133507500D01*
X130560000Y-133507500D01*
X130560000Y-132720000D01*
X131060000Y-132720000D01*
X131060000Y-133507500D01*
X131784999Y-133507500D01*
X131784999Y-133408360D01*
X131784998Y-133408345D01*
X131774680Y-133307347D01*
X131720453Y-133143699D01*
X131720448Y-133143688D01*
X131629947Y-132996965D01*
X131629944Y-132996961D01*
X131508038Y-132875055D01*
X131508034Y-132875052D01*
X131361311Y-132784551D01*
X131361300Y-132784546D01*
X131197652Y-132730319D01*
X131096654Y-132720000D01*
X131060000Y-132720000D01*
X130560000Y-132720000D01*
X130523361Y-132720000D01*
X130523343Y-132720001D01*
X130422347Y-132730319D01*
X130258699Y-132784546D01*
X130258688Y-132784551D01*
X130111965Y-132875052D01*
X130111961Y-132875055D01*
X129990055Y-132996961D01*
X129990052Y-132996965D01*
X129899551Y-133143688D01*
X129899546Y-133143699D01*
X129845319Y-133307347D01*
X129835000Y-133408345D01*
X129835000Y-133507500D01*
X128540500Y-133507500D01*
X128540500Y-130036389D01*
X128560185Y-129969350D01*
X128612989Y-129923595D01*
X128682147Y-129913651D01*
X128735624Y-129934815D01*
X128862414Y-130023595D01*
X128862420Y-130023599D01*
X129076507Y-130123429D01*
X129076516Y-130123433D01*
X129290000Y-130180634D01*
X129290000Y-129283012D01*
X129347007Y-129315925D01*
X129474174Y-129350000D01*
X129605826Y-129350000D01*
X129732993Y-129315925D01*
X129790000Y-129283012D01*
X129790000Y-130180633D01*
X130003483Y-130123433D01*
X130003492Y-130123429D01*
X130217578Y-130023600D01*
X130411082Y-129888105D01*
X130578105Y-129721082D01*
X130713600Y-129527578D01*
X130813429Y-129313492D01*
X130813432Y-129313486D01*
X130870636Y-129100000D01*
X129973012Y-129100000D01*
X130005925Y-129042993D01*
X130040000Y-128915826D01*
X130040000Y-128784174D01*
X130005925Y-128657007D01*
X129973012Y-128600000D01*
X130870636Y-128600000D01*
X130870635Y-128599999D01*
X130813432Y-128386513D01*
X130813429Y-128386507D01*
X130713600Y-128172422D01*
X130713599Y-128172420D01*
X130578113Y-127978926D01*
X130578108Y-127978920D01*
X130411082Y-127811894D01*
X130224968Y-127681575D01*
X130181344Y-127626998D01*
X130174151Y-127557499D01*
X130205673Y-127495145D01*
X130224968Y-127478425D01*
X130411082Y-127348105D01*
X130578105Y-127181082D01*
X130713600Y-126987578D01*
X130813429Y-126773492D01*
X130813432Y-126773486D01*
X130870636Y-126560000D01*
X129973012Y-126560000D01*
X130005925Y-126502993D01*
X130040000Y-126375826D01*
X130040000Y-126244174D01*
X130005925Y-126117007D01*
X129973012Y-126060000D01*
X130870636Y-126060000D01*
X130870635Y-126059999D01*
X130813432Y-125846513D01*
X130813429Y-125846507D01*
X130713600Y-125632422D01*
X130713599Y-125632420D01*
X130578113Y-125438926D01*
X130578108Y-125438920D01*
X130411078Y-125271890D01*
X130225405Y-125141879D01*
X130181780Y-125087302D01*
X130174588Y-125017804D01*
X130206110Y-124955449D01*
X130225406Y-124938730D01*
X130225842Y-124938425D01*
X130411401Y-124808495D01*
X130578495Y-124641401D01*
X130689416Y-124482989D01*
X130703149Y-124463377D01*
X130757726Y-124419752D01*
X130804724Y-124410500D01*
X131052485Y-124410500D01*
X131119524Y-124430185D01*
G37*
%TD.AperFunction*%
%TA.AperFunction,Conductor*%
G36*
X151523833Y-127120369D02*
G01*
X151579767Y-127162240D01*
X151604184Y-127227704D01*
X151604500Y-127236551D01*
X151604500Y-127988870D01*
X151604501Y-127988876D01*
X151610908Y-128048483D01*
X151661202Y-128183328D01*
X151661203Y-128183329D01*
X151661204Y-128183331D01*
X151665645Y-128189263D01*
X151752769Y-128305646D01*
X151750370Y-128307441D01*
X151776666Y-128355597D01*
X151779500Y-128381955D01*
X151779500Y-128807106D01*
X151801125Y-128915826D01*
X151803538Y-128927955D01*
X151803538Y-128927956D01*
X151808861Y-128940804D01*
X151808862Y-128940813D01*
X151808864Y-128940813D01*
X151815843Y-128957661D01*
X151822217Y-128973049D01*
X151829684Y-129042518D01*
X151798409Y-129104997D01*
X151738319Y-129140649D01*
X151707656Y-129144500D01*
X151508331Y-129144500D01*
X151508312Y-129144501D01*
X151407247Y-129154825D01*
X151407242Y-129154826D01*
X151376504Y-129165012D01*
X151306676Y-129167412D01*
X151246635Y-129131679D01*
X151219797Y-129086308D01*
X151187454Y-128988701D01*
X151187450Y-128988692D01*
X151097645Y-128843098D01*
X151079204Y-128775705D01*
X151097645Y-128712902D01*
X151187450Y-128567307D01*
X151187453Y-128567300D01*
X151241680Y-128403652D01*
X151251999Y-128302654D01*
X151252000Y-128302641D01*
X151252000Y-128266000D01*
X150514500Y-128266000D01*
X150514500Y-129590500D01*
X150494815Y-129657539D01*
X150442011Y-129703294D01*
X150390500Y-129714500D01*
X150138500Y-129714500D01*
X150071461Y-129694815D01*
X150025706Y-129642011D01*
X150014500Y-129590500D01*
X150014500Y-127890000D01*
X150034185Y-127822961D01*
X150086989Y-127777206D01*
X150138500Y-127766000D01*
X151251999Y-127766000D01*
X151251999Y-127729360D01*
X151251998Y-127729345D01*
X151241680Y-127628347D01*
X151187453Y-127464699D01*
X151187452Y-127464697D01*
X151180440Y-127453329D01*
X151161999Y-127385937D01*
X151182920Y-127319273D01*
X151220877Y-127282694D01*
X151320350Y-127221340D01*
X151392822Y-127148867D01*
X151454141Y-127115385D01*
X151523833Y-127120369D01*
G37*
%TD.AperFunction*%
%TA.AperFunction,Conductor*%
G36*
X129790000Y-128416988D02*
G01*
X129732993Y-128384075D01*
X129605826Y-128350000D01*
X129474174Y-128350000D01*
X129347007Y-128384075D01*
X129290000Y-128416988D01*
X129290000Y-126743012D01*
X129347007Y-126775925D01*
X129474174Y-126810000D01*
X129605826Y-126810000D01*
X129732993Y-126775925D01*
X129790000Y-126743012D01*
X129790000Y-128416988D01*
G37*
%TD.AperFunction*%
%TA.AperFunction,Conductor*%
G36*
X150311291Y-119060185D02*
G01*
X150357046Y-119112989D01*
X150367571Y-119151533D01*
X150371326Y-119187256D01*
X150371327Y-119187259D01*
X150429818Y-119367277D01*
X150429821Y-119367284D01*
X150524467Y-119531216D01*
X150524633Y-119531400D01*
X150599650Y-119614715D01*
X150629880Y-119677706D01*
X150631500Y-119697687D01*
X150631500Y-119741107D01*
X150637543Y-119771488D01*
X150645764Y-119812819D01*
X150655537Y-119861953D01*
X150655538Y-119861956D01*
X150660668Y-119874339D01*
X150660669Y-119874341D01*
X150702688Y-119975786D01*
X150702689Y-119975788D01*
X150702690Y-119975789D01*
X150702690Y-119975790D01*
X150732230Y-120019998D01*
X150732231Y-120019999D01*
X150771141Y-120078232D01*
X150771144Y-120078236D01*
X150835681Y-120142773D01*
X150869166Y-120204096D01*
X150872000Y-120230454D01*
X150872000Y-121011500D01*
X151596999Y-121011500D01*
X151596999Y-121008219D01*
X151616684Y-120941180D01*
X151669488Y-120895425D01*
X151738646Y-120885481D01*
X151745157Y-120886595D01*
X151784893Y-120894500D01*
X151784894Y-120894500D01*
X152064519Y-120894500D01*
X152131558Y-120914185D01*
X152170058Y-120953404D01*
X152178659Y-120967348D01*
X152178660Y-120967350D01*
X152218129Y-121006819D01*
X152251614Y-121068142D01*
X152246630Y-121137834D01*
X152218129Y-121182181D01*
X152178661Y-121221648D01*
X152088093Y-121368481D01*
X152088091Y-121368486D01*
X152060719Y-121451088D01*
X152033826Y-121532247D01*
X152033826Y-121532248D01*
X152033825Y-121532248D01*
X152023500Y-121633315D01*
X152023500Y-122022046D01*
X152003815Y-122089085D01*
X151987181Y-122109727D01*
X151919144Y-122177763D01*
X151919143Y-122177764D01*
X151913158Y-122186722D01*
X151886199Y-122227070D01*
X151874362Y-122244784D01*
X151850688Y-122280212D01*
X151839281Y-122307753D01*
X151822315Y-122348714D01*
X151813853Y-122369143D01*
X151803536Y-122394050D01*
X151803535Y-122394052D01*
X151799501Y-122414338D01*
X151799501Y-122414341D01*
X151782279Y-122500929D01*
X151780821Y-122508257D01*
X151780819Y-122508265D01*
X151778311Y-122520870D01*
X151776588Y-122520527D01*
X151753539Y-122577598D01*
X151696502Y-122617952D01*
X151626702Y-122621064D01*
X151566299Y-122585945D01*
X151538598Y-122539656D01*
X151532908Y-122522484D01*
X151442340Y-122375650D01*
X151328017Y-122261327D01*
X151294532Y-122200004D01*
X151299516Y-122130312D01*
X151328017Y-122085964D01*
X151441948Y-121972033D01*
X151532448Y-121825311D01*
X151532453Y-121825300D01*
X151586680Y-121661652D01*
X151596999Y-121560654D01*
X151597000Y-121560641D01*
X151597000Y-121511500D01*
X148972000Y-121511500D01*
X148904961Y-121491815D01*
X148859206Y-121439011D01*
X148848000Y-121387500D01*
X148848000Y-121135500D01*
X148867685Y-121068461D01*
X148920489Y-121022706D01*
X148972000Y-121011500D01*
X150372000Y-121011500D01*
X150372000Y-120274000D01*
X150335361Y-120274000D01*
X150335343Y-120274001D01*
X150234347Y-120284319D01*
X150070699Y-120338546D01*
X150070690Y-120338550D01*
X149999797Y-120382278D01*
X149932405Y-120400718D01*
X149865741Y-120379795D01*
X149820972Y-120326153D01*
X149812311Y-120256822D01*
X149818517Y-120233412D01*
X149859891Y-120122483D01*
X149866300Y-120062873D01*
X149866299Y-119250453D01*
X149885983Y-119183415D01*
X149902618Y-119162772D01*
X149988573Y-119076818D01*
X150049897Y-119043334D01*
X150076254Y-119040500D01*
X150244252Y-119040500D01*
X150311291Y-119060185D01*
G37*
%TD.AperFunction*%
%TA.AperFunction,Conductor*%
G36*
X133081199Y-114868985D02*
G01*
X133101841Y-114885619D01*
X133798727Y-115582505D01*
X133832212Y-115643828D01*
X133827228Y-115713520D01*
X133785356Y-115769453D01*
X133750051Y-115787892D01*
X133585884Y-115842292D01*
X133585881Y-115842293D01*
X133439048Y-115932861D01*
X133317061Y-116054848D01*
X133226493Y-116201681D01*
X133226491Y-116201686D01*
X133199119Y-116284288D01*
X133172226Y-116365447D01*
X133172226Y-116365448D01*
X133172225Y-116365448D01*
X133161900Y-116466515D01*
X133161900Y-117164869D01*
X133161901Y-117164887D01*
X133172225Y-117265952D01*
X133195154Y-117335145D01*
X133223272Y-117420000D01*
X133226492Y-117429715D01*
X133226493Y-117429718D01*
X133317061Y-117576551D01*
X133331382Y-117590872D01*
X133364867Y-117652195D01*
X133359883Y-117721887D01*
X133331385Y-117766232D01*
X133317452Y-117780165D01*
X133226951Y-117926888D01*
X133226946Y-117926899D01*
X133172719Y-118090547D01*
X133162400Y-118191545D01*
X133162400Y-118290700D01*
X134263400Y-118290700D01*
X134330439Y-118310385D01*
X134376194Y-118363189D01*
X134387400Y-118414700D01*
X134387400Y-119578199D01*
X134424040Y-119578199D01*
X134424054Y-119578198D01*
X134525052Y-119567880D01*
X134688700Y-119513653D01*
X134688711Y-119513648D01*
X134835434Y-119423147D01*
X134835438Y-119423144D01*
X134957344Y-119301238D01*
X134957347Y-119301234D01*
X135026736Y-119188739D01*
X135078684Y-119142014D01*
X135147646Y-119130793D01*
X135204280Y-119155400D01*
X136372700Y-119155400D01*
X136439739Y-119175085D01*
X136485494Y-119227889D01*
X136496700Y-119279400D01*
X136496700Y-119531400D01*
X136477015Y-119598439D01*
X136424211Y-119644194D01*
X136372700Y-119655400D01*
X135209201Y-119655400D01*
X135209201Y-119692054D01*
X135219519Y-119793052D01*
X135242199Y-119861496D01*
X135244601Y-119931325D01*
X135208869Y-119991366D01*
X135146348Y-120022559D01*
X135124493Y-120024500D01*
X131810453Y-120024500D01*
X131743414Y-120004815D01*
X131722772Y-119988181D01*
X131302471Y-119567880D01*
X130880236Y-119145646D01*
X130846752Y-119084324D01*
X130848143Y-119025872D01*
X130850347Y-119017647D01*
X130875063Y-118925408D01*
X130886849Y-118790700D01*
X133162401Y-118790700D01*
X133162401Y-118889854D01*
X133172719Y-118990852D01*
X133226946Y-119154500D01*
X133226951Y-119154511D01*
X133317452Y-119301234D01*
X133317455Y-119301238D01*
X133439361Y-119423144D01*
X133439365Y-119423147D01*
X133586088Y-119513648D01*
X133586099Y-119513653D01*
X133749747Y-119567880D01*
X133850752Y-119578199D01*
X133887400Y-119578199D01*
X133887400Y-118790700D01*
X133162401Y-118790700D01*
X130886849Y-118790700D01*
X130895659Y-118690000D01*
X130875063Y-118454592D01*
X130815698Y-118233037D01*
X130813905Y-118226344D01*
X130813904Y-118226343D01*
X130813903Y-118226337D01*
X130714035Y-118012171D01*
X130696168Y-117986653D01*
X130578494Y-117818597D01*
X130411402Y-117651506D01*
X130411396Y-117651501D01*
X130225842Y-117521575D01*
X130182217Y-117466998D01*
X130175023Y-117397500D01*
X130206546Y-117335145D01*
X130225842Y-117318425D01*
X130283880Y-117277786D01*
X130411401Y-117188495D01*
X130578495Y-117021401D01*
X130714035Y-116827830D01*
X130813903Y-116613663D01*
X130875063Y-116385408D01*
X130895659Y-116150000D01*
X130875063Y-115914592D01*
X130848143Y-115814125D01*
X130849806Y-115744276D01*
X130880235Y-115694353D01*
X131688971Y-114885619D01*
X131750294Y-114852134D01*
X131776652Y-114849300D01*
X133014160Y-114849300D01*
X133081199Y-114868985D01*
G37*
%TD.AperFunction*%
%TA.AperFunction,Conductor*%
G36*
X142437586Y-117395185D02*
G01*
X142483341Y-117447989D01*
X142493285Y-117517147D01*
X142464260Y-117580703D01*
X142458228Y-117587181D01*
X142306270Y-117739139D01*
X142306267Y-117739142D01*
X142279177Y-117766232D01*
X142219140Y-117826268D01*
X142200812Y-117853700D01*
X142192723Y-117865806D01*
X142177536Y-117888535D01*
X142150687Y-117928714D01*
X142147799Y-117935688D01*
X142126690Y-117986651D01*
X142113818Y-118017727D01*
X142103538Y-118042545D01*
X142103535Y-118042554D01*
X142092407Y-118098497D01*
X142092408Y-118098498D01*
X142085191Y-118134786D01*
X142085190Y-118134792D01*
X142079500Y-118163394D01*
X142079500Y-118194281D01*
X142059815Y-118261320D01*
X142007011Y-118307075D01*
X141942249Y-118317571D01*
X141913682Y-118314500D01*
X141913673Y-118314500D01*
X141815221Y-118314500D01*
X141748182Y-118294815D01*
X141702427Y-118242011D01*
X141692483Y-118172853D01*
X141693604Y-118166309D01*
X141714931Y-118059090D01*
X141716299Y-118052208D01*
X141716300Y-118052203D01*
X141716300Y-117664652D01*
X141735985Y-117597613D01*
X141752619Y-117576971D01*
X141917771Y-117411819D01*
X141979094Y-117378334D01*
X142005452Y-117375500D01*
X142370547Y-117375500D01*
X142437586Y-117395185D01*
G37*
%TD.AperFunction*%
%TA.AperFunction,Conductor*%
G36*
X150071501Y-108166564D02*
G01*
X150082443Y-108177299D01*
X150096795Y-108193238D01*
X150117729Y-108216488D01*
X150270865Y-108327748D01*
X150270870Y-108327751D01*
X150443791Y-108404742D01*
X150443793Y-108404742D01*
X150443797Y-108404744D01*
X150492082Y-108415007D01*
X150553561Y-108448197D01*
X150587339Y-108509359D01*
X150590300Y-108536296D01*
X150590300Y-109154235D01*
X150570615Y-109221274D01*
X150517811Y-109267029D01*
X150509634Y-109270417D01*
X150373469Y-109321203D01*
X150373464Y-109321206D01*
X150258255Y-109407452D01*
X150258254Y-109407454D01*
X150172006Y-109522664D01*
X150172002Y-109522671D01*
X150123859Y-109651752D01*
X150121709Y-109657517D01*
X150115300Y-109717127D01*
X150115300Y-109717134D01*
X150115300Y-109717135D01*
X150115300Y-110112869D01*
X150115301Y-110112878D01*
X150119479Y-110151745D01*
X150119479Y-110178250D01*
X150115300Y-110217122D01*
X150115300Y-110612869D01*
X150115301Y-110612878D01*
X150119479Y-110651745D01*
X150119479Y-110678250D01*
X150115300Y-110717122D01*
X150115300Y-111112869D01*
X150115301Y-111112878D01*
X150119479Y-111151745D01*
X150119479Y-111178250D01*
X150115300Y-111217122D01*
X150115300Y-111612869D01*
X150115301Y-111612878D01*
X150119479Y-111651745D01*
X150119480Y-111678238D01*
X150118889Y-111683741D01*
X150092158Y-111748295D01*
X150034771Y-111788150D01*
X149995598Y-111794500D01*
X149138389Y-111794500D01*
X149077971Y-111806518D01*
X149034743Y-111815116D01*
X149017546Y-111818537D01*
X148903716Y-111865687D01*
X148903707Y-111865692D01*
X148801268Y-111934140D01*
X148779118Y-111956291D01*
X148714142Y-112021267D01*
X148642228Y-112093181D01*
X148580905Y-112126666D01*
X148554547Y-112129500D01*
X148495354Y-112129500D01*
X148462897Y-112136398D01*
X148310197Y-112168855D01*
X148310192Y-112168857D01*
X148137270Y-112245848D01*
X148137265Y-112245851D01*
X147984129Y-112357111D01*
X147857466Y-112497785D01*
X147762821Y-112661715D01*
X147762818Y-112661722D01*
X147706796Y-112834142D01*
X147704326Y-112841744D01*
X147684540Y-113030000D01*
X147704326Y-113218256D01*
X147704327Y-113218259D01*
X147762818Y-113398277D01*
X147762821Y-113398284D01*
X147857467Y-113562216D01*
X147867806Y-113573699D01*
X147875307Y-113582030D01*
X147905535Y-113645022D01*
X147896909Y-113714357D01*
X147875307Y-113747970D01*
X147857466Y-113767785D01*
X147762821Y-113931715D01*
X147762818Y-113931722D01*
X147716699Y-114073663D01*
X147704326Y-114111744D01*
X147684540Y-114300000D01*
X147704326Y-114488256D01*
X147704327Y-114488259D01*
X147762818Y-114668277D01*
X147762821Y-114668284D01*
X147857467Y-114832216D01*
X147961642Y-114947914D01*
X147984129Y-114972888D01*
X148137265Y-115084148D01*
X148137270Y-115084151D01*
X148310192Y-115161142D01*
X148310197Y-115161144D01*
X148495354Y-115200500D01*
X148495355Y-115200500D01*
X148684644Y-115200500D01*
X148684646Y-115200500D01*
X148869803Y-115161144D01*
X149042730Y-115084151D01*
X149195871Y-114972888D01*
X149322533Y-114832216D01*
X149417179Y-114668284D01*
X149475674Y-114488256D01*
X149493321Y-114320344D01*
X149519904Y-114255734D01*
X149528951Y-114245638D01*
X149903621Y-113870968D01*
X149964942Y-113837485D01*
X150034634Y-113842469D01*
X150090567Y-113884341D01*
X150114984Y-113949805D01*
X150115300Y-113958650D01*
X150115300Y-114112868D01*
X150115301Y-114112878D01*
X150119479Y-114151745D01*
X150119479Y-114178250D01*
X150115300Y-114217122D01*
X150115300Y-114612869D01*
X150115301Y-114612878D01*
X150119479Y-114651745D01*
X150119479Y-114678250D01*
X150115300Y-114717122D01*
X150115300Y-115112869D01*
X150115301Y-115112878D01*
X150119479Y-115151745D01*
X150119479Y-115178250D01*
X150115300Y-115217122D01*
X150115300Y-115612869D01*
X150115301Y-115612878D01*
X150119479Y-115651745D01*
X150119479Y-115678250D01*
X150115300Y-115717122D01*
X150115300Y-116112869D01*
X150115301Y-116112878D01*
X150119479Y-116151745D01*
X150119479Y-116178250D01*
X150115300Y-116217122D01*
X150115300Y-116612869D01*
X150115301Y-116612878D01*
X150119479Y-116651745D01*
X150119479Y-116678250D01*
X150115300Y-116717122D01*
X150115300Y-117112869D01*
X150115301Y-117112878D01*
X150119479Y-117151745D01*
X150119479Y-117178250D01*
X150115300Y-117217122D01*
X150115300Y-117612870D01*
X150115301Y-117612872D01*
X150119533Y-117652246D01*
X150107128Y-117721005D01*
X150059517Y-117772142D01*
X149996244Y-117789500D01*
X149704189Y-117789500D01*
X149610456Y-117808145D01*
X149583348Y-117813537D01*
X149583347Y-117813537D01*
X149469515Y-117860687D01*
X149369460Y-117927543D01*
X149367069Y-117929139D01*
X149278481Y-118017728D01*
X149217157Y-118051212D01*
X149147466Y-118046228D01*
X149103119Y-118017727D01*
X149089535Y-118004143D01*
X149063354Y-117986650D01*
X149024501Y-117960689D01*
X148987086Y-117935688D01*
X148987087Y-117935688D01*
X148987085Y-117935687D01*
X148946839Y-117919017D01*
X148906592Y-117902347D01*
X148873252Y-117888537D01*
X148873248Y-117888536D01*
X148873244Y-117888535D01*
X148798824Y-117873732D01*
X148798823Y-117873732D01*
X148752411Y-117864500D01*
X148752407Y-117864500D01*
X148752406Y-117864500D01*
X145090453Y-117864500D01*
X145023414Y-117844815D01*
X145002772Y-117828181D01*
X144896819Y-117722228D01*
X144863334Y-117660905D01*
X144860500Y-117634547D01*
X144860500Y-116868393D01*
X144860499Y-116868389D01*
X144852432Y-116827834D01*
X144836463Y-116747548D01*
X144789311Y-116633714D01*
X144789310Y-116633713D01*
X144789307Y-116633707D01*
X144717474Y-116526202D01*
X144718797Y-116525317D01*
X144694513Y-116468133D01*
X144706307Y-116399266D01*
X144744793Y-116353465D01*
X144827071Y-116293688D01*
X144953733Y-116153016D01*
X145048379Y-115989084D01*
X145106874Y-115809056D01*
X145126660Y-115620800D01*
X145106874Y-115432544D01*
X145048379Y-115252516D01*
X144953733Y-115088584D01*
X144827071Y-114947912D01*
X144827063Y-114947906D01*
X144673934Y-114836651D01*
X144673929Y-114836648D01*
X144501007Y-114759657D01*
X144501002Y-114759655D01*
X144355201Y-114728665D01*
X144315846Y-114720300D01*
X144126554Y-114720300D01*
X144094097Y-114727198D01*
X143941397Y-114759655D01*
X143941392Y-114759657D01*
X143768470Y-114836648D01*
X143768465Y-114836651D01*
X143615335Y-114947906D01*
X143615326Y-114947914D01*
X143609498Y-114954387D01*
X143550011Y-114991034D01*
X143529508Y-114994815D01*
X143524595Y-114995298D01*
X143444282Y-115011273D01*
X143423797Y-115015348D01*
X143423792Y-115015348D01*
X143403749Y-115019336D01*
X143403747Y-115019336D01*
X143356597Y-115038867D01*
X143289919Y-115066485D01*
X143289917Y-115066486D01*
X143187468Y-115134940D01*
X143149926Y-115172483D01*
X143064226Y-115258182D01*
X143002906Y-115291666D01*
X142976547Y-115294500D01*
X140935496Y-115294500D01*
X140868457Y-115274815D01*
X140822702Y-115222011D01*
X140812206Y-115183752D01*
X140811867Y-115180598D01*
X140811867Y-115154094D01*
X140816300Y-115112873D01*
X140816299Y-114717128D01*
X140816299Y-114717127D01*
X140816298Y-114717111D01*
X140812120Y-114678253D01*
X140812120Y-114651745D01*
X140816300Y-114612873D01*
X140816299Y-114217128D01*
X140816299Y-114217127D01*
X140816298Y-114217111D01*
X140812120Y-114178253D01*
X140812120Y-114151745D01*
X140816300Y-114112873D01*
X140816299Y-113717128D01*
X140816299Y-113717127D01*
X140816298Y-113717111D01*
X140812120Y-113678253D01*
X140812120Y-113651747D01*
X140816300Y-113612873D01*
X140816299Y-113217128D01*
X140812604Y-113182753D01*
X140825011Y-113113994D01*
X140872622Y-113062857D01*
X140935894Y-113045500D01*
X140951608Y-113045500D01*
X140951608Y-113045499D01*
X141029532Y-113030000D01*
X141029533Y-113030000D01*
X141051288Y-113025672D01*
X141072452Y-113021463D01*
X141124775Y-112999790D01*
X141186286Y-112974312D01*
X141249353Y-112932171D01*
X141249354Y-112932171D01*
X141275425Y-112914749D01*
X141288733Y-112905858D01*
X141375858Y-112818733D01*
X141375859Y-112818730D01*
X141382925Y-112811665D01*
X141382927Y-112811661D01*
X142187771Y-112006819D01*
X142249094Y-111973334D01*
X142275452Y-111970500D01*
X142334644Y-111970500D01*
X142334646Y-111970500D01*
X142519803Y-111931144D01*
X142692730Y-111854151D01*
X142845871Y-111742888D01*
X142972533Y-111602216D01*
X143067179Y-111438284D01*
X143125674Y-111258256D01*
X143145460Y-111070000D01*
X143125674Y-110881744D01*
X143107292Y-110825173D01*
X143105298Y-110755335D01*
X143141378Y-110695502D01*
X143204078Y-110664673D01*
X143251005Y-110665567D01*
X143310675Y-110678250D01*
X143415354Y-110700500D01*
X143415355Y-110700500D01*
X143604644Y-110700500D01*
X143604646Y-110700500D01*
X143789803Y-110661144D01*
X143962730Y-110584151D01*
X144115871Y-110472888D01*
X144242533Y-110332216D01*
X144337179Y-110168284D01*
X144395674Y-109988256D01*
X144415460Y-109800000D01*
X144395674Y-109611744D01*
X144337179Y-109431716D01*
X144336569Y-109429838D01*
X144330500Y-109391520D01*
X144330500Y-109135824D01*
X144350185Y-109068785D01*
X144402989Y-109023030D01*
X144441245Y-109012535D01*
X144452546Y-109011320D01*
X144479052Y-109011320D01*
X144517927Y-109015500D01*
X144913672Y-109015499D01*
X144913673Y-109015498D01*
X144913685Y-109015498D01*
X144952544Y-109011320D01*
X144979052Y-109011320D01*
X145017927Y-109015500D01*
X145413672Y-109015499D01*
X145413673Y-109015498D01*
X145413685Y-109015498D01*
X145452544Y-109011320D01*
X145479052Y-109011320D01*
X145517927Y-109015500D01*
X145913672Y-109015499D01*
X145913673Y-109015498D01*
X145913685Y-109015498D01*
X145952544Y-109011320D01*
X145979052Y-109011320D01*
X146017927Y-109015500D01*
X146413672Y-109015499D01*
X146413673Y-109015498D01*
X146413685Y-109015498D01*
X146452544Y-109011320D01*
X146479052Y-109011320D01*
X146517927Y-109015500D01*
X146913672Y-109015499D01*
X146913673Y-109015498D01*
X146913685Y-109015498D01*
X146952544Y-109011320D01*
X146979052Y-109011320D01*
X147017927Y-109015500D01*
X147413672Y-109015499D01*
X147413673Y-109015498D01*
X147413685Y-109015498D01*
X147452544Y-109011320D01*
X147479052Y-109011320D01*
X147517927Y-109015500D01*
X147913672Y-109015499D01*
X147913673Y-109015498D01*
X147913685Y-109015498D01*
X147952544Y-109011320D01*
X147979052Y-109011320D01*
X148017927Y-109015500D01*
X148413672Y-109015499D01*
X148413673Y-109015498D01*
X148413685Y-109015498D01*
X148452544Y-109011320D01*
X148479052Y-109011320D01*
X148517927Y-109015500D01*
X148913672Y-109015499D01*
X148913673Y-109015498D01*
X148913685Y-109015498D01*
X148952544Y-109011320D01*
X148979052Y-109011320D01*
X149017927Y-109015500D01*
X149413672Y-109015499D01*
X149473283Y-109009091D01*
X149608131Y-108958796D01*
X149723346Y-108872546D01*
X149809596Y-108757331D01*
X149859891Y-108622483D01*
X149866300Y-108562873D01*
X149866299Y-108260276D01*
X149885983Y-108193238D01*
X149938787Y-108147483D01*
X150007946Y-108137539D01*
X150071501Y-108166564D01*
G37*
%TD.AperFunction*%
%TA.AperFunction,Conductor*%
G36*
X153966581Y-108727514D02*
G01*
X154010934Y-108756017D01*
X154024861Y-108769944D01*
X154024865Y-108769947D01*
X154171588Y-108860448D01*
X154171599Y-108860453D01*
X154335247Y-108914680D01*
X154436251Y-108924999D01*
X154619878Y-108924999D01*
X154686918Y-108944683D01*
X154732673Y-108997487D01*
X154742617Y-109066645D01*
X154713592Y-109130201D01*
X154707560Y-109136680D01*
X153586061Y-110258181D01*
X153524738Y-110291666D01*
X153498380Y-110294500D01*
X153420251Y-110294500D01*
X153353212Y-110274815D01*
X153307457Y-110222011D01*
X153297513Y-110152853D01*
X153326538Y-110089297D01*
X153332550Y-110082838D01*
X153460229Y-109955160D01*
X153460233Y-109955158D01*
X153547358Y-109868033D01*
X153601200Y-109787453D01*
X153601201Y-109787452D01*
X153615809Y-109765589D01*
X153615812Y-109765585D01*
X153653246Y-109675210D01*
X153662963Y-109651752D01*
X153687000Y-109530906D01*
X153687000Y-108922353D01*
X153706685Y-108855314D01*
X153745901Y-108816814D01*
X153821250Y-108770340D01*
X153835571Y-108756018D01*
X153896889Y-108722533D01*
X153966581Y-108727514D01*
G37*
%TD.AperFunction*%
%TA.AperFunction,Conductor*%
G36*
X135900703Y-101075803D02*
G01*
X135922602Y-101100625D01*
X135961842Y-101159353D01*
X136053287Y-101250798D01*
X136053309Y-101250818D01*
X137576310Y-102773819D01*
X137609795Y-102835142D01*
X137604811Y-102904834D01*
X137562939Y-102960767D01*
X137497475Y-102985184D01*
X137488629Y-102985500D01*
X137370154Y-102985500D01*
X137337697Y-102992398D01*
X137184997Y-103024855D01*
X137184992Y-103024857D01*
X137012070Y-103101848D01*
X137012065Y-103101851D01*
X136858929Y-103213111D01*
X136732266Y-103353785D01*
X136637621Y-103517715D01*
X136637618Y-103517722D01*
X136579127Y-103697740D01*
X136579126Y-103697744D01*
X136559340Y-103886000D01*
X136579126Y-104074256D01*
X136579127Y-104074259D01*
X136637618Y-104254277D01*
X136640262Y-104260214D01*
X136637563Y-104261415D01*
X136651049Y-104316794D01*
X136628253Y-104382841D01*
X136573368Y-104426078D01*
X136552364Y-104430135D01*
X136547500Y-104435000D01*
X136547500Y-106384999D01*
X136646640Y-106384999D01*
X136646654Y-106384998D01*
X136747652Y-106374680D01*
X136911300Y-106320453D01*
X136911311Y-106320448D01*
X137058035Y-106229947D01*
X137071960Y-106216021D01*
X137133282Y-106182533D01*
X137202973Y-106187514D01*
X137247327Y-106216017D01*
X137261650Y-106230340D01*
X137408484Y-106320908D01*
X137572247Y-106375174D01*
X137673323Y-106385500D01*
X137727153Y-106385499D01*
X137794190Y-106405182D01*
X137839945Y-106457986D01*
X137849890Y-106527144D01*
X137820866Y-106590700D01*
X137819302Y-106592471D01*
X137697466Y-106727784D01*
X137602821Y-106891715D01*
X137602818Y-106891722D01*
X137544327Y-107071740D01*
X137544326Y-107071744D01*
X137524540Y-107260000D01*
X137544326Y-107448256D01*
X137544327Y-107448259D01*
X137602818Y-107628277D01*
X137602821Y-107628284D01*
X137697467Y-107792216D01*
X137740772Y-107840310D01*
X137772650Y-107875715D01*
X137802880Y-107938706D01*
X137804500Y-107958687D01*
X137804500Y-108624151D01*
X137784815Y-108691190D01*
X137732011Y-108736945D01*
X137662853Y-108746889D01*
X137599297Y-108717864D01*
X137592819Y-108711832D01*
X135731819Y-106850832D01*
X135698334Y-106789509D01*
X135695500Y-106763151D01*
X135695500Y-106495529D01*
X135715185Y-106428490D01*
X135767989Y-106382735D01*
X135837147Y-106372791D01*
X135845457Y-106374276D01*
X135847349Y-106374681D01*
X135948351Y-106384999D01*
X136047500Y-106384998D01*
X136047500Y-104434999D01*
X135948360Y-104435000D01*
X135948344Y-104435001D01*
X135847346Y-104445319D01*
X135845451Y-104445725D01*
X135844253Y-104445635D01*
X135840615Y-104446007D01*
X135840548Y-104445357D01*
X135775777Y-104440507D01*
X135719984Y-104398448D01*
X135695787Y-104332902D01*
X135695500Y-104324471D01*
X135695500Y-101169516D01*
X135715185Y-101102477D01*
X135767989Y-101056722D01*
X135837147Y-101046778D01*
X135900703Y-101075803D01*
G37*
%TD.AperFunction*%
%TA.AperFunction,Conductor*%
G36*
X154979539Y-106195685D02*
G01*
X155025294Y-106248489D01*
X155036500Y-106300000D01*
X155036500Y-107391538D01*
X155035400Y-107395284D01*
X155035400Y-108076000D01*
X155015715Y-108143039D01*
X154962911Y-108188794D01*
X154911400Y-108200000D01*
X154659400Y-108200000D01*
X154592361Y-108180315D01*
X154546606Y-108127511D01*
X154535400Y-108076000D01*
X154535400Y-106984462D01*
X154536500Y-106980715D01*
X154536500Y-106300000D01*
X154556185Y-106232961D01*
X154608989Y-106187206D01*
X154660500Y-106176000D01*
X154912500Y-106176000D01*
X154979539Y-106195685D01*
G37*
%TD.AperFunction*%
%TA.AperFunction,Conductor*%
G36*
X155781539Y-90674184D02*
G01*
X155827294Y-90726988D01*
X155838500Y-90778499D01*
X155838500Y-91455548D01*
X155818815Y-91522587D01*
X155802181Y-91543229D01*
X152895071Y-94450338D01*
X152833748Y-94483823D01*
X152764056Y-94478839D01*
X152708123Y-94436967D01*
X152683706Y-94371503D01*
X152689459Y-94324339D01*
X152740174Y-94168256D01*
X152759960Y-93980000D01*
X152740174Y-93791744D01*
X152704427Y-93681726D01*
X152702432Y-93611885D01*
X152738512Y-93552052D01*
X152771918Y-93530131D01*
X152852730Y-93494151D01*
X153005871Y-93382888D01*
X153132533Y-93242216D01*
X153227179Y-93078284D01*
X153285674Y-92898256D01*
X153305460Y-92710000D01*
X153285674Y-92521744D01*
X153227179Y-92341716D01*
X153132533Y-92177784D01*
X153005871Y-92037112D01*
X153005870Y-92037111D01*
X152852734Y-91925851D01*
X152852729Y-91925848D01*
X152679807Y-91848857D01*
X152679802Y-91848855D01*
X152534001Y-91817865D01*
X152494646Y-91809500D01*
X152305354Y-91809500D01*
X152272897Y-91816398D01*
X152120197Y-91848855D01*
X152120192Y-91848857D01*
X151947270Y-91925848D01*
X151947265Y-91925851D01*
X151794130Y-92037110D01*
X151794126Y-92037114D01*
X151788400Y-92043474D01*
X151728913Y-92080121D01*
X151696252Y-92084500D01*
X148773084Y-92084500D01*
X148712666Y-92096518D01*
X148669438Y-92105116D01*
X148652241Y-92108537D01*
X148538411Y-92155687D01*
X148538402Y-92155692D01*
X148435963Y-92224140D01*
X148408603Y-92251501D01*
X148348837Y-92311267D01*
X146834141Y-93825962D01*
X146834138Y-93825966D01*
X146821886Y-93844305D01*
X146821882Y-93844311D01*
X146765690Y-93928405D01*
X146765690Y-93928406D01*
X146765688Y-93928409D01*
X146749360Y-93967830D01*
X146718538Y-94042240D01*
X146718535Y-94042250D01*
X146694500Y-94163084D01*
X146694500Y-94551312D01*
X146674815Y-94618351D01*
X146662650Y-94634284D01*
X146587466Y-94717784D01*
X146492821Y-94881715D01*
X146492818Y-94881722D01*
X146434327Y-95061740D01*
X146434326Y-95061744D01*
X146414540Y-95250000D01*
X146434326Y-95438256D01*
X146434327Y-95438259D01*
X146492818Y-95618277D01*
X146492821Y-95618284D01*
X146587467Y-95782216D01*
X146645899Y-95847111D01*
X146714129Y-95922888D01*
X146867265Y-96034148D01*
X146867270Y-96034151D01*
X147040192Y-96111142D01*
X147040197Y-96111144D01*
X147225354Y-96150500D01*
X147225355Y-96150500D01*
X147414644Y-96150500D01*
X147414646Y-96150500D01*
X147599803Y-96111144D01*
X147772730Y-96034151D01*
X147925871Y-95922888D01*
X148052533Y-95782216D01*
X148147179Y-95618284D01*
X148205674Y-95438256D01*
X148225460Y-95250000D01*
X148205674Y-95061744D01*
X148187292Y-95005173D01*
X148185298Y-94935335D01*
X148221378Y-94875502D01*
X148284078Y-94844673D01*
X148331005Y-94845567D01*
X148401774Y-94860609D01*
X148495354Y-94880500D01*
X148495355Y-94880500D01*
X148684644Y-94880500D01*
X148684646Y-94880500D01*
X148869803Y-94841144D01*
X149042730Y-94764151D01*
X149195871Y-94652888D01*
X149198788Y-94649647D01*
X149201600Y-94646526D01*
X149261087Y-94609879D01*
X149293748Y-94605500D01*
X151150752Y-94605500D01*
X151217791Y-94625185D01*
X151242900Y-94646526D01*
X151248626Y-94652885D01*
X151248630Y-94652889D01*
X151401765Y-94764148D01*
X151401770Y-94764151D01*
X151574692Y-94841142D01*
X151574697Y-94841144D01*
X151759854Y-94880500D01*
X151759855Y-94880500D01*
X151949144Y-94880500D01*
X151949146Y-94880500D01*
X152134303Y-94841144D01*
X152189978Y-94816355D01*
X152259224Y-94807070D01*
X152322501Y-94836698D01*
X152359716Y-94895832D01*
X152359052Y-94965699D01*
X152328093Y-95017316D01*
X147987681Y-99357729D01*
X147926358Y-99391214D01*
X147856666Y-99386230D01*
X147812319Y-99357729D01*
X147665198Y-99210608D01*
X147665178Y-99210586D01*
X147573733Y-99119141D01*
X147522509Y-99084915D01*
X147513791Y-99079090D01*
X147471286Y-99050688D01*
X147471283Y-99050686D01*
X147471282Y-99050686D01*
X147471281Y-99050685D01*
X147367701Y-99007782D01*
X147367699Y-99007781D01*
X147357459Y-99003539D01*
X147357455Y-99003538D01*
X147357453Y-99003537D01*
X147357452Y-99003537D01*
X147297029Y-98991518D01*
X147236610Y-98979500D01*
X147236607Y-98979500D01*
X147236606Y-98979500D01*
X145354454Y-98979500D01*
X145287415Y-98959815D01*
X145241660Y-98907011D01*
X145231716Y-98837853D01*
X145260741Y-98774297D01*
X145265381Y-98769313D01*
X145265852Y-98768738D01*
X145265857Y-98768734D01*
X145268813Y-98764311D01*
X145334311Y-98666286D01*
X145381463Y-98552452D01*
X145390938Y-98504817D01*
X145397007Y-98474310D01*
X145405500Y-98431606D01*
X145405500Y-93560451D01*
X145425185Y-93493412D01*
X145441814Y-93472775D01*
X148223771Y-90690817D01*
X148285094Y-90657333D01*
X148311452Y-90654499D01*
X155714500Y-90654499D01*
X155781539Y-90674184D01*
G37*
%TD.AperFunction*%
%TA.AperFunction,Conductor*%
G36*
X131100862Y-93195898D02*
G01*
X131107326Y-93201917D01*
X133343666Y-95438256D01*
X135785882Y-97880472D01*
X135819367Y-97941795D01*
X135822201Y-97968153D01*
X135822201Y-98411104D01*
X135802516Y-98478143D01*
X135749712Y-98523898D01*
X135680554Y-98533842D01*
X135616998Y-98504817D01*
X135595103Y-98480001D01*
X135590087Y-98472495D01*
X135590084Y-98472490D01*
X135555858Y-98421267D01*
X135555856Y-98421264D01*
X135465637Y-98331045D01*
X135465606Y-98331016D01*
X130880237Y-93745647D01*
X130846752Y-93684324D01*
X130848143Y-93625872D01*
X130875063Y-93525408D01*
X130895659Y-93290000D01*
X130895659Y-93289999D01*
X130895659Y-93289611D01*
X130895707Y-93289445D01*
X130896131Y-93284606D01*
X130897103Y-93284691D01*
X130915344Y-93222572D01*
X130968148Y-93176817D01*
X131037306Y-93166873D01*
X131100862Y-93195898D01*
G37*
%TD.AperFunction*%
%TA.AperFunction,Conductor*%
G36*
X135339855Y-67341546D02*
G01*
X135356575Y-67360842D01*
X135486500Y-67546395D01*
X135486505Y-67546401D01*
X135653599Y-67713495D01*
X135785500Y-67805853D01*
X135839594Y-67843730D01*
X135883218Y-67898307D01*
X135890411Y-67967806D01*
X135858889Y-68030160D01*
X135839593Y-68046880D01*
X135763626Y-68100072D01*
X135763625Y-68100072D01*
X136395590Y-68732037D01*
X136332007Y-68749075D01*
X136217993Y-68814901D01*
X136124901Y-68907993D01*
X136059075Y-69022007D01*
X136042037Y-69085590D01*
X135410072Y-68453625D01*
X135410072Y-68453626D01*
X135356574Y-68530030D01*
X135301998Y-68573655D01*
X135232499Y-68580849D01*
X135170144Y-68549326D01*
X135153424Y-68530030D01*
X135099925Y-68453626D01*
X135099925Y-68453625D01*
X134467962Y-69085589D01*
X134450925Y-69022007D01*
X134385099Y-68907993D01*
X134292007Y-68814901D01*
X134177993Y-68749075D01*
X134114410Y-68732037D01*
X134746373Y-68100073D01*
X134746373Y-68100072D01*
X134670405Y-68046880D01*
X134626780Y-67992304D01*
X134619586Y-67922805D01*
X134651108Y-67860451D01*
X134670399Y-67843734D01*
X134856401Y-67713495D01*
X135023495Y-67546401D01*
X135153425Y-67360842D01*
X135208002Y-67317217D01*
X135277500Y-67310023D01*
X135339855Y-67341546D01*
G37*
%TD.AperFunction*%
%TA.AperFunction,Conductor*%
G36*
X145128373Y-67723583D02*
G01*
X145153204Y-67742794D01*
X145617565Y-68207155D01*
X145651050Y-68268478D01*
X145646066Y-68338170D01*
X145631459Y-68365960D01*
X145516574Y-68530032D01*
X145461997Y-68573656D01*
X145392498Y-68580849D01*
X145330144Y-68549327D01*
X145313423Y-68530031D01*
X145259924Y-68453626D01*
X144627962Y-69085589D01*
X144610925Y-69022007D01*
X144545099Y-68907993D01*
X144452007Y-68814901D01*
X144337993Y-68749075D01*
X144274409Y-68732037D01*
X144906373Y-68100073D01*
X144906373Y-68100072D01*
X144830405Y-68046880D01*
X144786780Y-67992304D01*
X144779586Y-67922805D01*
X144811108Y-67860451D01*
X144830399Y-67843734D01*
X144994400Y-67728899D01*
X145060606Y-67706573D01*
X145128373Y-67723583D01*
G37*
%TD.AperFunction*%
%TA.AperFunction,Conductor*%
G36*
X163101121Y-57730020D02*
G01*
X163235109Y-57732409D01*
X163250528Y-57733650D01*
X163516897Y-57771948D01*
X163534184Y-57775708D01*
X163791313Y-57851209D01*
X163807887Y-57857391D01*
X163917159Y-57907293D01*
X164051659Y-57968717D01*
X164067173Y-57977188D01*
X164292628Y-58122080D01*
X164306787Y-58132679D01*
X164509317Y-58308172D01*
X164521827Y-58320682D01*
X164686222Y-58510405D01*
X164697320Y-58523212D01*
X164707921Y-58537374D01*
X164852808Y-58762821D01*
X164861284Y-58778345D01*
X164972608Y-59022112D01*
X164978791Y-59038688D01*
X165054290Y-59295814D01*
X165058051Y-59313102D01*
X165096348Y-59579463D01*
X165097590Y-59594898D01*
X165099980Y-59728877D01*
X165100000Y-59731089D01*
X165100000Y-139548910D01*
X165099980Y-139551122D01*
X165097590Y-139685101D01*
X165096348Y-139700536D01*
X165058051Y-139966897D01*
X165054290Y-139984185D01*
X164978791Y-140241311D01*
X164972608Y-140257887D01*
X164861284Y-140501654D01*
X164852805Y-140517183D01*
X164707922Y-140742624D01*
X164697320Y-140756787D01*
X164521827Y-140959317D01*
X164509317Y-140971827D01*
X164306787Y-141147320D01*
X164292624Y-141157922D01*
X164067183Y-141302805D01*
X164051654Y-141311284D01*
X163807887Y-141422608D01*
X163791311Y-141428791D01*
X163534185Y-141504290D01*
X163516897Y-141508051D01*
X163250536Y-141546348D01*
X163235101Y-141547590D01*
X163104818Y-141549914D01*
X163101120Y-141549980D01*
X163098910Y-141550000D01*
X128384201Y-141550000D01*
X128317162Y-141530315D01*
X128285969Y-141494317D01*
X128275827Y-141513158D01*
X128214704Y-141547007D01*
X128187625Y-141550000D01*
X127731090Y-141550000D01*
X127728879Y-141549980D01*
X127725015Y-141549911D01*
X127594898Y-141547590D01*
X127579463Y-141546348D01*
X127313102Y-141508051D01*
X127295814Y-141504290D01*
X127038688Y-141428791D01*
X127022112Y-141422608D01*
X126778345Y-141311284D01*
X126762821Y-141302808D01*
X126537374Y-141157921D01*
X126523212Y-141147320D01*
X126510765Y-141136535D01*
X126421947Y-141059573D01*
X126320682Y-140971827D01*
X126308172Y-140959317D01*
X126260977Y-140904851D01*
X126132676Y-140756783D01*
X126122077Y-140742624D01*
X125977188Y-140517173D01*
X125968715Y-140501654D01*
X125949412Y-140459387D01*
X125876478Y-140299683D01*
X125857391Y-140257887D01*
X125851208Y-140241311D01*
X125845224Y-140220933D01*
X125775708Y-139984184D01*
X125771948Y-139966897D01*
X125758432Y-139872888D01*
X125733650Y-139700528D01*
X125732409Y-139685109D01*
X125730020Y-139551121D01*
X125730000Y-139548910D01*
X125730000Y-139053348D01*
X126031085Y-139053348D01*
X126050375Y-139347660D01*
X126050377Y-139347672D01*
X126107914Y-139636932D01*
X126107918Y-139636947D01*
X126202725Y-139916236D01*
X126333171Y-140180754D01*
X126333178Y-140180767D01*
X126497036Y-140425997D01*
X126526318Y-140459388D01*
X127349621Y-139636084D01*
X127446880Y-139769950D01*
X127569311Y-139892381D01*
X127703175Y-139989638D01*
X126879871Y-140812941D01*
X126913263Y-140842224D01*
X127158493Y-141006082D01*
X127158506Y-141006089D01*
X127423024Y-141136535D01*
X127702313Y-141231342D01*
X127702328Y-141231346D01*
X127991588Y-141288883D01*
X127991600Y-141288885D01*
X128195735Y-141302265D01*
X128261343Y-141326292D01*
X128284803Y-141357245D01*
X128290488Y-141344797D01*
X128349266Y-141307023D01*
X128376091Y-141302265D01*
X128580225Y-141288885D01*
X128580237Y-141288883D01*
X128869497Y-141231346D01*
X128869512Y-141231342D01*
X129148801Y-141136535D01*
X129413319Y-141006089D01*
X129413332Y-141006082D01*
X129658561Y-140842225D01*
X129691952Y-140812941D01*
X128868650Y-139989638D01*
X129002515Y-139892381D01*
X129124946Y-139769950D01*
X129222203Y-139636085D01*
X130045506Y-140459387D01*
X130074790Y-140425996D01*
X130238647Y-140180767D01*
X130238654Y-140180754D01*
X130369100Y-139916236D01*
X130463907Y-139636947D01*
X130463911Y-139636932D01*
X130521448Y-139347672D01*
X130521450Y-139347660D01*
X130540740Y-139053348D01*
X130521450Y-138759035D01*
X130521448Y-138759023D01*
X130463911Y-138469763D01*
X130463907Y-138469748D01*
X130369100Y-138190459D01*
X130238654Y-137925941D01*
X130238647Y-137925928D01*
X130074789Y-137680698D01*
X130045506Y-137647306D01*
X129222202Y-138470609D01*
X129124946Y-138336746D01*
X129002515Y-138214315D01*
X128868649Y-138117057D01*
X129691953Y-137293753D01*
X129658562Y-137264471D01*
X129413332Y-137100613D01*
X129413319Y-137100606D01*
X129148801Y-136970160D01*
X128869512Y-136875353D01*
X128869497Y-136875349D01*
X128580237Y-136817812D01*
X128580225Y-136817810D01*
X128285913Y-136798520D01*
X127991600Y-136817810D01*
X127991588Y-136817812D01*
X127702328Y-136875349D01*
X127702313Y-136875353D01*
X127423024Y-136970160D01*
X127158506Y-137100606D01*
X127158493Y-137100613D01*
X126913259Y-137264474D01*
X126913252Y-137264479D01*
X126879872Y-137293751D01*
X126879872Y-137293753D01*
X127703176Y-138117057D01*
X127569311Y-138214315D01*
X127446880Y-138336746D01*
X127349622Y-138470611D01*
X126526318Y-137647307D01*
X126526316Y-137647307D01*
X126497044Y-137680687D01*
X126497039Y-137680694D01*
X126333178Y-137925928D01*
X126333171Y-137925941D01*
X126202725Y-138190459D01*
X126107918Y-138469748D01*
X126107914Y-138469763D01*
X126050377Y-138759023D01*
X126050375Y-138759035D01*
X126031085Y-139053348D01*
X125730000Y-139053348D01*
X125730000Y-134500603D01*
X127289500Y-134500603D01*
X127289501Y-134500615D01*
X127290293Y-134504595D01*
X127290294Y-134504606D01*
X127290295Y-134504606D01*
X127313534Y-134621441D01*
X127313539Y-134621457D01*
X127315194Y-134625454D01*
X127315195Y-134625455D01*
X127360685Y-134735281D01*
X127360687Y-134735284D01*
X127360688Y-134735286D01*
X127383154Y-134768907D01*
X127394914Y-134786507D01*
X127394915Y-134786509D01*
X127429141Y-134837733D01*
X127520586Y-134929178D01*
X127520608Y-134929198D01*
X128469516Y-135878106D01*
X128469545Y-135878137D01*
X128559764Y-135968356D01*
X128559767Y-135968358D01*
X128636690Y-136019756D01*
X128662210Y-136036809D01*
X128662213Y-136036811D01*
X128662215Y-136036812D01*
X128715471Y-136058871D01*
X128715472Y-136058872D01*
X128748599Y-136072593D01*
X128776048Y-136083963D01*
X128836471Y-136095981D01*
X128896893Y-136108000D01*
X128896894Y-136108000D01*
X129836968Y-136108000D01*
X129904007Y-136127685D01*
X129942506Y-136166903D01*
X129989657Y-136243346D01*
X129989660Y-136243350D01*
X130111650Y-136365340D01*
X130258484Y-136455908D01*
X130422247Y-136510174D01*
X130515733Y-136519724D01*
X130580424Y-136546120D01*
X130590811Y-136555401D01*
X133233181Y-139197771D01*
X133266666Y-139259094D01*
X133269500Y-139285447D01*
X133269500Y-139307867D01*
X133269501Y-139307877D01*
X133275908Y-139367483D01*
X133326202Y-139502328D01*
X133326206Y-139502335D01*
X133412452Y-139617544D01*
X133412455Y-139617547D01*
X133527664Y-139703793D01*
X133527671Y-139703797D01*
X133662517Y-139754091D01*
X133662516Y-139754091D01*
X133669444Y-139754835D01*
X133722127Y-139760500D01*
X135517872Y-139760499D01*
X135577483Y-139754091D01*
X135712331Y-139703796D01*
X135827546Y-139617546D01*
X135913796Y-139502331D01*
X135964091Y-139367483D01*
X135970500Y-139307873D01*
X135970499Y-138445451D01*
X135990183Y-138378413D01*
X136006818Y-138357771D01*
X136753271Y-137611319D01*
X136814594Y-137577834D01*
X136840952Y-137575000D01*
X139441930Y-137575000D01*
X139508969Y-137594685D01*
X139554724Y-137647489D01*
X139564668Y-137716647D01*
X139549318Y-137760999D01*
X139537519Y-137781435D01*
X139439918Y-138030120D01*
X139439912Y-138030139D01*
X139380466Y-138290591D01*
X139380465Y-138290596D01*
X139360502Y-138556995D01*
X139360502Y-138557004D01*
X139380465Y-138823403D01*
X139380466Y-138823408D01*
X139439912Y-139083860D01*
X139439918Y-139083879D01*
X139537520Y-139332566D01*
X139671102Y-139563936D01*
X139722747Y-139628698D01*
X140390057Y-138961387D01*
X140390309Y-138961994D01*
X140483878Y-139102031D01*
X140602969Y-139221122D01*
X140743006Y-139314691D01*
X140743610Y-139314941D01*
X140075442Y-139983108D01*
X140254257Y-140105022D01*
X140254258Y-140105023D01*
X140494951Y-140220933D01*
X140494949Y-140220933D01*
X140750242Y-140299681D01*
X140750248Y-140299683D01*
X141014412Y-140339499D01*
X141014421Y-140339500D01*
X141281579Y-140339500D01*
X141281587Y-140339499D01*
X141545751Y-140299683D01*
X141545757Y-140299681D01*
X141801049Y-140220933D01*
X142041748Y-140105019D01*
X142041751Y-140105018D01*
X142220556Y-139983108D01*
X141552388Y-139314941D01*
X141552994Y-139314691D01*
X141693031Y-139221122D01*
X141812122Y-139102031D01*
X141905691Y-138961994D01*
X141905941Y-138961389D01*
X142573250Y-139628698D01*
X142573251Y-139628697D01*
X142624893Y-139563942D01*
X142624900Y-139563931D01*
X142758479Y-139332566D01*
X142856081Y-139083879D01*
X142856087Y-139083860D01*
X142915533Y-138823408D01*
X142915534Y-138823403D01*
X142935498Y-138557004D01*
X142935498Y-138556995D01*
X142915534Y-138290596D01*
X142915533Y-138290591D01*
X142856087Y-138030139D01*
X142856081Y-138030120D01*
X142758480Y-137781435D01*
X142746682Y-137760999D01*
X142730211Y-137693098D01*
X142753063Y-137627072D01*
X142807985Y-137583882D01*
X142854070Y-137575000D01*
X148661930Y-137575000D01*
X148728969Y-137594685D01*
X148774724Y-137647489D01*
X148784668Y-137716647D01*
X148769318Y-137760999D01*
X148757519Y-137781435D01*
X148659918Y-138030120D01*
X148659912Y-138030139D01*
X148600466Y-138290591D01*
X148600465Y-138290596D01*
X148580502Y-138556995D01*
X148580502Y-138557004D01*
X148600465Y-138823403D01*
X148600466Y-138823408D01*
X148659912Y-139083860D01*
X148659918Y-139083879D01*
X148757520Y-139332566D01*
X148891102Y-139563936D01*
X148942747Y-139628698D01*
X149610057Y-138961387D01*
X149610309Y-138961994D01*
X149703878Y-139102031D01*
X149822969Y-139221122D01*
X149963006Y-139314691D01*
X149963610Y-139314941D01*
X149295442Y-139983108D01*
X149474257Y-140105022D01*
X149474258Y-140105023D01*
X149714951Y-140220933D01*
X149714949Y-140220933D01*
X149970242Y-140299681D01*
X149970248Y-140299683D01*
X150234412Y-140339499D01*
X150234421Y-140339500D01*
X150501579Y-140339500D01*
X150501587Y-140339499D01*
X150765751Y-140299683D01*
X150765757Y-140299681D01*
X151021049Y-140220933D01*
X151261748Y-140105019D01*
X151261751Y-140105018D01*
X151440556Y-139983108D01*
X150772388Y-139314941D01*
X150772994Y-139314691D01*
X150913031Y-139221122D01*
X151032122Y-139102031D01*
X151125691Y-138961994D01*
X151125941Y-138961389D01*
X151793250Y-139628698D01*
X151793251Y-139628697D01*
X151844893Y-139563942D01*
X151844900Y-139563931D01*
X151978479Y-139332566D01*
X152076081Y-139083879D01*
X152076087Y-139083860D01*
X152092945Y-139010000D01*
X160305172Y-139010000D01*
X160324462Y-139304312D01*
X160324464Y-139304324D01*
X160382001Y-139593584D01*
X160382005Y-139593599D01*
X160476812Y-139872888D01*
X160607258Y-140137406D01*
X160607265Y-140137419D01*
X160771123Y-140382649D01*
X160800405Y-140416040D01*
X161623708Y-139592736D01*
X161720967Y-139726602D01*
X161843398Y-139849033D01*
X161977262Y-139946290D01*
X161153958Y-140769593D01*
X161187350Y-140798876D01*
X161432580Y-140962734D01*
X161432593Y-140962741D01*
X161697111Y-141093187D01*
X161976400Y-141187994D01*
X161976415Y-141187998D01*
X162265675Y-141245535D01*
X162265687Y-141245537D01*
X162560000Y-141264827D01*
X162854312Y-141245537D01*
X162854324Y-141245535D01*
X163143584Y-141187998D01*
X163143599Y-141187994D01*
X163422888Y-141093187D01*
X163687406Y-140962741D01*
X163687419Y-140962734D01*
X163932648Y-140798877D01*
X163966039Y-140769593D01*
X163142737Y-139946290D01*
X163276602Y-139849033D01*
X163399033Y-139726602D01*
X163496290Y-139592737D01*
X164319593Y-140416039D01*
X164348877Y-140382648D01*
X164512734Y-140137419D01*
X164512741Y-140137406D01*
X164643187Y-139872888D01*
X164737994Y-139593599D01*
X164737998Y-139593584D01*
X164795535Y-139304324D01*
X164795537Y-139304312D01*
X164814827Y-139010000D01*
X164795537Y-138715687D01*
X164795535Y-138715675D01*
X164737998Y-138426415D01*
X164737994Y-138426400D01*
X164643187Y-138147111D01*
X164512741Y-137882593D01*
X164512734Y-137882580D01*
X164348876Y-137637350D01*
X164319593Y-137603958D01*
X163496289Y-138427261D01*
X163399033Y-138293398D01*
X163276602Y-138170967D01*
X163142736Y-138073709D01*
X163966040Y-137250405D01*
X163932649Y-137221123D01*
X163687419Y-137057265D01*
X163687406Y-137057258D01*
X163422888Y-136926812D01*
X163143599Y-136832005D01*
X163143584Y-136832001D01*
X162854324Y-136774464D01*
X162854312Y-136774462D01*
X162560000Y-136755172D01*
X162265687Y-136774462D01*
X162265675Y-136774464D01*
X161976415Y-136832001D01*
X161976400Y-136832005D01*
X161697111Y-136926812D01*
X161432593Y-137057258D01*
X161432580Y-137057265D01*
X161187346Y-137221126D01*
X161187339Y-137221131D01*
X161153959Y-137250403D01*
X161153959Y-137250405D01*
X161977263Y-138073709D01*
X161843398Y-138170967D01*
X161720967Y-138293398D01*
X161623709Y-138427263D01*
X160800405Y-137603959D01*
X160800403Y-137603959D01*
X160771131Y-137637339D01*
X160771126Y-137637346D01*
X160607265Y-137882580D01*
X160607258Y-137882593D01*
X160476812Y-138147111D01*
X160382005Y-138426400D01*
X160382001Y-138426415D01*
X160324464Y-138715675D01*
X160324462Y-138715687D01*
X160305172Y-139010000D01*
X152092945Y-139010000D01*
X152135533Y-138823408D01*
X152135534Y-138823403D01*
X152155498Y-138557004D01*
X152155498Y-138556995D01*
X152135534Y-138290596D01*
X152135533Y-138290591D01*
X152076087Y-138030139D01*
X152076081Y-138030120D01*
X151978480Y-137781435D01*
X151966682Y-137760999D01*
X151950211Y-137693098D01*
X151973063Y-137627072D01*
X152027985Y-137583882D01*
X152074070Y-137575000D01*
X152672107Y-137575000D01*
X152732529Y-137562981D01*
X152792952Y-137550963D01*
X152792955Y-137550961D01*
X152792958Y-137550961D01*
X152826287Y-137537154D01*
X152826286Y-137537154D01*
X152826292Y-137537152D01*
X152906786Y-137503812D01*
X152958009Y-137469584D01*
X153009233Y-137435358D01*
X153096358Y-137348233D01*
X153096359Y-137348231D01*
X153103425Y-137341165D01*
X153103427Y-137341161D01*
X153284589Y-137160000D01*
X154669540Y-137160000D01*
X154689326Y-137348256D01*
X154689327Y-137348259D01*
X154747818Y-137528277D01*
X154747821Y-137528284D01*
X154842467Y-137692216D01*
X154938894Y-137799309D01*
X154969129Y-137832888D01*
X155122265Y-137944148D01*
X155122270Y-137944151D01*
X155295192Y-138021142D01*
X155295197Y-138021144D01*
X155480354Y-138060500D01*
X155480355Y-138060500D01*
X155669644Y-138060500D01*
X155669646Y-138060500D01*
X155854803Y-138021144D01*
X156027730Y-137944151D01*
X156180871Y-137832888D01*
X156307533Y-137692216D01*
X156402179Y-137528284D01*
X156460674Y-137348256D01*
X156480460Y-137160000D01*
X156460674Y-136971744D01*
X156402179Y-136791716D01*
X156307533Y-136627784D01*
X156180871Y-136487112D01*
X156180870Y-136487111D01*
X156027734Y-136375851D01*
X156027729Y-136375848D01*
X155854807Y-136298857D01*
X155854802Y-136298855D01*
X155709001Y-136267865D01*
X155669646Y-136259500D01*
X155480354Y-136259500D01*
X155447897Y-136266398D01*
X155295197Y-136298855D01*
X155295192Y-136298857D01*
X155122270Y-136375848D01*
X155122265Y-136375851D01*
X154969129Y-136487111D01*
X154842466Y-136627785D01*
X154747821Y-136791715D01*
X154747818Y-136791722D01*
X154689327Y-136971740D01*
X154689326Y-136971744D01*
X154669540Y-137160000D01*
X153284589Y-137160000D01*
X153617771Y-136826819D01*
X153679094Y-136793334D01*
X153705452Y-136790500D01*
X153764644Y-136790500D01*
X153764646Y-136790500D01*
X153949803Y-136751144D01*
X154122730Y-136674151D01*
X154275871Y-136562888D01*
X154402533Y-136422216D01*
X154497179Y-136258284D01*
X154555674Y-136078256D01*
X154575460Y-135890000D01*
X154555674Y-135701744D01*
X154497179Y-135521716D01*
X154402533Y-135357784D01*
X154275871Y-135217112D01*
X154275870Y-135217111D01*
X154122734Y-135105851D01*
X154122729Y-135105848D01*
X154043961Y-135070778D01*
X153990724Y-135025528D01*
X153970403Y-134958678D01*
X153989449Y-134891455D01*
X154041815Y-134845200D01*
X154094397Y-134833499D01*
X154199670Y-134833499D01*
X154199676Y-134833499D01*
X154300753Y-134823174D01*
X154464516Y-134768908D01*
X154611350Y-134678340D01*
X154725319Y-134564371D01*
X154786642Y-134530886D01*
X154856334Y-134535870D01*
X154900681Y-134564371D01*
X155014650Y-134678340D01*
X155161484Y-134768908D01*
X155325247Y-134823174D01*
X155426323Y-134833500D01*
X156024676Y-134833499D01*
X156024684Y-134833498D01*
X156024687Y-134833498D01*
X156080030Y-134827844D01*
X156125753Y-134823174D01*
X156289516Y-134768908D01*
X156436350Y-134678340D01*
X156558340Y-134556350D01*
X156566942Y-134542404D01*
X156618890Y-134495679D01*
X156672481Y-134483500D01*
X156904648Y-134483500D01*
X156971687Y-134503185D01*
X156996796Y-134524526D01*
X157002522Y-134530885D01*
X157002526Y-134530889D01*
X157155661Y-134642148D01*
X157155666Y-134642151D01*
X157328588Y-134719142D01*
X157328593Y-134719144D01*
X157513750Y-134758500D01*
X157513751Y-134758500D01*
X157703040Y-134758500D01*
X157703042Y-134758500D01*
X157888199Y-134719144D01*
X158061126Y-134642151D01*
X158214267Y-134530888D01*
X158340929Y-134390216D01*
X158435575Y-134226284D01*
X158494070Y-134046256D01*
X158513856Y-133858000D01*
X158494070Y-133669744D01*
X158435575Y-133489716D01*
X158340929Y-133325784D01*
X158214267Y-133185112D01*
X158214266Y-133185111D01*
X158061130Y-133073851D01*
X158061125Y-133073848D01*
X157888203Y-132996857D01*
X157888198Y-132996855D01*
X157742397Y-132965865D01*
X157703042Y-132957500D01*
X157513750Y-132957500D01*
X157481293Y-132964398D01*
X157328593Y-132996855D01*
X157328588Y-132996857D01*
X157155666Y-133073848D01*
X157155661Y-133073851D01*
X157002526Y-133185110D01*
X157002522Y-133185114D01*
X156996796Y-133191474D01*
X156937309Y-133228121D01*
X156904648Y-133232500D01*
X156672481Y-133232500D01*
X156605442Y-133212815D01*
X156566942Y-133173596D01*
X156565908Y-133171920D01*
X156558340Y-133159650D01*
X156436350Y-133037660D01*
X156289516Y-132947092D01*
X156125753Y-132892826D01*
X156125751Y-132892825D01*
X156024678Y-132882500D01*
X155426330Y-132882500D01*
X155426312Y-132882501D01*
X155325247Y-132892825D01*
X155161484Y-132947092D01*
X155161481Y-132947093D01*
X155014648Y-133037661D01*
X154900681Y-133151629D01*
X154839358Y-133185114D01*
X154769666Y-133180130D01*
X154725319Y-133151629D01*
X154611351Y-133037661D01*
X154611350Y-133037660D01*
X154464516Y-132947092D01*
X154300753Y-132892826D01*
X154300751Y-132892825D01*
X154199678Y-132882500D01*
X153601330Y-132882500D01*
X153601312Y-132882501D01*
X153500247Y-132892825D01*
X153336484Y-132947092D01*
X153336481Y-132947093D01*
X153189648Y-133037661D01*
X153067661Y-133159648D01*
X152977093Y-133306481D01*
X152977091Y-133306486D01*
X152970696Y-133325785D01*
X152922826Y-133470247D01*
X152922826Y-133470248D01*
X152922825Y-133470248D01*
X152912500Y-133571315D01*
X152912500Y-133910047D01*
X152892815Y-133977086D01*
X152876181Y-133997728D01*
X151766721Y-135107188D01*
X151705398Y-135140673D01*
X151635706Y-135135689D01*
X151579773Y-135093817D01*
X151555356Y-135028353D01*
X151570208Y-134960080D01*
X151575231Y-134951685D01*
X151691733Y-134773364D01*
X151791587Y-134545717D01*
X151852612Y-134304738D01*
X151852614Y-134304729D01*
X151873141Y-134057005D01*
X151873141Y-134056994D01*
X151852614Y-133809270D01*
X151852612Y-133809261D01*
X151791587Y-133568282D01*
X151691731Y-133340630D01*
X151591434Y-133187116D01*
X151125940Y-133652609D01*
X151125691Y-133652006D01*
X151032122Y-133511969D01*
X150913031Y-133392878D01*
X150772994Y-133299309D01*
X150772388Y-133299058D01*
X151238057Y-132833389D01*
X151191229Y-132796943D01*
X150972614Y-132678635D01*
X150972603Y-132678630D01*
X150737493Y-132597916D01*
X150492293Y-132557000D01*
X150243707Y-132557000D01*
X149998504Y-132597916D01*
X149837396Y-132653225D01*
X149767598Y-132656375D01*
X149707177Y-132621288D01*
X149697867Y-132610255D01*
X149615186Y-132499809D01*
X149500093Y-132413649D01*
X149500086Y-132413645D01*
X149404679Y-132378061D01*
X149348745Y-132336190D01*
X149324328Y-132270726D01*
X149339180Y-132202453D01*
X149340625Y-132199879D01*
X149417179Y-132067284D01*
X149475674Y-131887256D01*
X149493321Y-131719345D01*
X149519905Y-131654732D01*
X149528951Y-131644637D01*
X150171771Y-131001819D01*
X150233094Y-130968334D01*
X150259452Y-130965500D01*
X151102274Y-130965500D01*
X151167370Y-130983961D01*
X151243477Y-131030904D01*
X151243478Y-131030904D01*
X151243484Y-131030908D01*
X151407247Y-131085174D01*
X151508323Y-131095500D01*
X152206676Y-131095499D01*
X152206684Y-131095498D01*
X152206687Y-131095498D01*
X152262030Y-131089844D01*
X152307753Y-131085174D01*
X152471516Y-131030908D01*
X152618350Y-130940340D01*
X152632671Y-130926018D01*
X152693989Y-130892533D01*
X152763681Y-130897514D01*
X152808034Y-130926017D01*
X152821961Y-130939944D01*
X152821965Y-130939947D01*
X152968688Y-131030448D01*
X152968699Y-131030453D01*
X153132347Y-131084680D01*
X153233351Y-131094999D01*
X153332500Y-131094998D01*
X153332500Y-130370000D01*
X153832500Y-130370000D01*
X153832500Y-131094999D01*
X153931640Y-131094999D01*
X153931654Y-131094998D01*
X154032652Y-131084680D01*
X154196300Y-131030453D01*
X154196311Y-131030448D01*
X154343034Y-130939947D01*
X154343038Y-130939944D01*
X154464944Y-130818038D01*
X154464947Y-130818034D01*
X154555448Y-130671311D01*
X154555453Y-130671300D01*
X154609680Y-130507652D01*
X154619999Y-130406654D01*
X154620000Y-130406641D01*
X154620000Y-130370000D01*
X153832500Y-130370000D01*
X153332500Y-130370000D01*
X153332500Y-129994000D01*
X153352185Y-129926961D01*
X153404989Y-129881206D01*
X153456500Y-129870000D01*
X154619999Y-129870000D01*
X154619999Y-129833360D01*
X154619998Y-129833345D01*
X154614908Y-129783518D01*
X154627678Y-129714825D01*
X154669374Y-129667815D01*
X154703733Y-129644858D01*
X154790858Y-129557733D01*
X154859311Y-129455286D01*
X154906463Y-129341452D01*
X154930500Y-129220606D01*
X154930500Y-128381955D01*
X154950185Y-128314916D01*
X154957495Y-128305844D01*
X154957231Y-128305646D01*
X155044355Y-128189263D01*
X155100289Y-128147392D01*
X155169981Y-128142408D01*
X155231302Y-128175892D01*
X156166590Y-129111181D01*
X157090943Y-130035534D01*
X157124428Y-130096857D01*
X157126582Y-130110248D01*
X157139826Y-130236256D01*
X157139827Y-130236259D01*
X157198318Y-130416277D01*
X157198321Y-130416284D01*
X157292967Y-130580216D01*
X157419462Y-130720702D01*
X157419629Y-130720888D01*
X157572765Y-130832148D01*
X157572770Y-130832151D01*
X157745692Y-130909142D01*
X157745697Y-130909144D01*
X157930854Y-130948500D01*
X157930855Y-130948500D01*
X158120144Y-130948500D01*
X158120146Y-130948500D01*
X158305303Y-130909144D01*
X158478230Y-130832151D01*
X158631371Y-130720888D01*
X158758033Y-130580216D01*
X158852679Y-130416284D01*
X158911174Y-130236256D01*
X158930960Y-130048000D01*
X158911174Y-129859744D01*
X158852679Y-129679716D01*
X158758033Y-129515784D01*
X158631371Y-129375112D01*
X158631370Y-129375111D01*
X158478234Y-129263851D01*
X158478229Y-129263848D01*
X158305307Y-129186857D01*
X158305302Y-129186855D01*
X158142479Y-129152247D01*
X158120146Y-129147500D01*
X158120145Y-129147500D01*
X158023453Y-129147500D01*
X157956414Y-129127815D01*
X157935772Y-129111181D01*
X155747928Y-126923338D01*
X155747925Y-126923334D01*
X155747925Y-126923335D01*
X155740858Y-126916268D01*
X155740858Y-126916267D01*
X155653733Y-126829142D01*
X155653732Y-126829141D01*
X155653731Y-126829140D01*
X155593287Y-126788753D01*
X155593286Y-126788752D01*
X155551290Y-126760690D01*
X155551286Y-126760688D01*
X155543321Y-126757389D01*
X155462067Y-126723733D01*
X155437452Y-126713537D01*
X155437444Y-126713535D01*
X155334841Y-126693126D01*
X155334840Y-126693126D01*
X155316611Y-126689500D01*
X155316607Y-126689500D01*
X155316606Y-126689500D01*
X155206067Y-126689500D01*
X155139028Y-126669815D01*
X155093273Y-126617011D01*
X155089885Y-126608833D01*
X155048797Y-126498671D01*
X155048793Y-126498664D01*
X154962547Y-126383455D01*
X154962544Y-126383452D01*
X154847335Y-126297206D01*
X154847328Y-126297202D01*
X154712486Y-126246910D01*
X154712485Y-126246909D01*
X154712483Y-126246909D01*
X154652873Y-126240500D01*
X154652863Y-126240500D01*
X153957129Y-126240500D01*
X153957123Y-126240501D01*
X153897516Y-126246908D01*
X153872615Y-126256196D01*
X153802923Y-126261178D01*
X153785952Y-126256195D01*
X153762379Y-126247403D01*
X153762372Y-126247401D01*
X153702844Y-126241000D01*
X153605000Y-126241000D01*
X153605000Y-126398893D01*
X153585315Y-126465932D01*
X153580267Y-126473204D01*
X153561204Y-126498668D01*
X153561202Y-126498671D01*
X153510908Y-126633517D01*
X153507006Y-126669815D01*
X153504500Y-126693127D01*
X153504500Y-127329499D01*
X153504501Y-127467000D01*
X153484817Y-127534039D01*
X153432013Y-127579794D01*
X153380501Y-127591000D01*
X153329500Y-127591000D01*
X153262461Y-127571315D01*
X153216706Y-127518511D01*
X153205500Y-127467000D01*
X153205499Y-126693126D01*
X153205498Y-126693123D01*
X153205497Y-126693116D01*
X153199091Y-126633517D01*
X153194356Y-126620823D01*
X153148797Y-126498671D01*
X153148795Y-126498668D01*
X153129733Y-126473204D01*
X153105316Y-126407739D01*
X153105000Y-126398893D01*
X153105000Y-126241000D01*
X153007155Y-126241000D01*
X152947624Y-126247401D01*
X152947623Y-126247402D01*
X152924044Y-126256196D01*
X152854353Y-126261178D01*
X152837381Y-126256195D01*
X152812486Y-126246910D01*
X152812485Y-126246909D01*
X152812483Y-126246909D01*
X152752873Y-126240500D01*
X152752864Y-126240500D01*
X152189450Y-126240500D01*
X152122411Y-126220815D01*
X152076656Y-126168011D01*
X152066712Y-126098853D01*
X152095737Y-126035297D01*
X152101756Y-126028832D01*
X152152772Y-125977817D01*
X152214095Y-125944333D01*
X152240452Y-125941499D01*
X152752871Y-125941499D01*
X152752872Y-125941499D01*
X152812483Y-125935091D01*
X152947331Y-125884796D01*
X153062546Y-125798546D01*
X153148796Y-125683331D01*
X153199091Y-125548483D01*
X153205500Y-125488873D01*
X153205499Y-124193128D01*
X153199091Y-124133517D01*
X153188367Y-124104765D01*
X153148797Y-123998671D01*
X153148793Y-123998664D01*
X153057232Y-123876355D01*
X153059625Y-123874563D01*
X153033327Y-123826373D01*
X153030500Y-123800045D01*
X153030500Y-123019499D01*
X153050185Y-122952460D01*
X153102989Y-122906705D01*
X153154500Y-122895499D01*
X153410670Y-122895499D01*
X153410676Y-122895499D01*
X153511753Y-122885174D01*
X153675516Y-122830908D01*
X153822350Y-122740340D01*
X153836671Y-122726018D01*
X153897989Y-122692533D01*
X153967681Y-122697514D01*
X154012034Y-122726017D01*
X154025961Y-122739944D01*
X154025965Y-122739947D01*
X154172688Y-122830448D01*
X154172699Y-122830453D01*
X154336347Y-122884680D01*
X154437351Y-122894999D01*
X154536500Y-122894998D01*
X154536500Y-119293999D01*
X154437360Y-119294000D01*
X154437344Y-119294001D01*
X154336347Y-119304319D01*
X154172699Y-119358546D01*
X154172688Y-119358551D01*
X154025965Y-119449052D01*
X154012032Y-119462985D01*
X153950708Y-119496468D01*
X153881016Y-119491482D01*
X153836672Y-119462982D01*
X153822351Y-119448661D01*
X153822350Y-119448660D01*
X153725118Y-119388687D01*
X153675518Y-119358093D01*
X153675513Y-119358091D01*
X153651386Y-119350096D01*
X153511753Y-119303826D01*
X153511751Y-119303825D01*
X153410678Y-119293500D01*
X152712330Y-119293500D01*
X152712312Y-119293501D01*
X152611247Y-119303825D01*
X152447484Y-119358092D01*
X152447481Y-119358093D01*
X152300648Y-119448661D01*
X152295245Y-119452934D01*
X152230450Y-119479074D01*
X152161808Y-119466033D01*
X152111113Y-119417952D01*
X152094460Y-119350096D01*
X152100404Y-119317349D01*
X152107990Y-119294001D01*
X152142674Y-119187256D01*
X152162460Y-118999000D01*
X152142674Y-118810744D01*
X152084179Y-118630716D01*
X151989533Y-118466784D01*
X151862871Y-118326112D01*
X151810918Y-118288366D01*
X151768254Y-118233037D01*
X151762275Y-118163423D01*
X151794881Y-118101629D01*
X151855720Y-118067271D01*
X151870547Y-118064759D01*
X151923283Y-118059091D01*
X151927868Y-118057380D01*
X151938760Y-118053319D01*
X151982094Y-118045500D01*
X155327520Y-118045500D01*
X155394559Y-118065185D01*
X155440314Y-118117989D01*
X155450258Y-118187147D01*
X155434907Y-118231500D01*
X155382821Y-118321715D01*
X155382818Y-118321722D01*
X155324327Y-118501740D01*
X155324326Y-118501744D01*
X155304540Y-118690000D01*
X155324326Y-118878256D01*
X155324327Y-118878259D01*
X155382818Y-119058277D01*
X155382821Y-119058284D01*
X155421764Y-119125736D01*
X155430123Y-119140213D01*
X155446596Y-119208113D01*
X155423743Y-119274140D01*
X155368822Y-119317331D01*
X155299269Y-119323972D01*
X155283734Y-119319919D01*
X155236657Y-119304320D01*
X155236653Y-119304319D01*
X155135654Y-119294000D01*
X155036500Y-119294000D01*
X155036500Y-122894999D01*
X155135640Y-122894999D01*
X155135654Y-122894998D01*
X155236652Y-122884680D01*
X155400300Y-122830453D01*
X155406851Y-122827399D01*
X155408072Y-122830018D01*
X155462735Y-122815033D01*
X155529409Y-122835923D01*
X155574204Y-122889543D01*
X155584500Y-122939013D01*
X155584500Y-124341312D01*
X155564815Y-124408351D01*
X155552650Y-124424284D01*
X155477466Y-124507784D01*
X155382821Y-124671715D01*
X155382819Y-124671719D01*
X155347430Y-124780636D01*
X155307992Y-124838311D01*
X155243633Y-124865509D01*
X155174787Y-124853594D01*
X155123311Y-124806350D01*
X155105499Y-124742317D01*
X155105499Y-124193129D01*
X155105498Y-124193123D01*
X155105497Y-124193116D01*
X155099091Y-124133517D01*
X155088367Y-124104765D01*
X155048797Y-123998671D01*
X155048793Y-123998664D01*
X154962547Y-123883455D01*
X154962544Y-123883452D01*
X154847335Y-123797206D01*
X154847328Y-123797202D01*
X154712486Y-123746910D01*
X154712485Y-123746909D01*
X154712483Y-123746909D01*
X154652873Y-123740500D01*
X154652863Y-123740500D01*
X153957129Y-123740500D01*
X153957123Y-123740501D01*
X153897516Y-123746908D01*
X153762671Y-123797202D01*
X153762664Y-123797206D01*
X153647455Y-123883452D01*
X153647452Y-123883455D01*
X153561206Y-123998664D01*
X153561202Y-123998671D01*
X153510908Y-124133517D01*
X153507712Y-124163248D01*
X153504501Y-124193123D01*
X153504500Y-124193135D01*
X153504500Y-125488870D01*
X153504501Y-125488876D01*
X153510908Y-125548483D01*
X153561202Y-125683328D01*
X153561206Y-125683335D01*
X153647452Y-125798544D01*
X153647455Y-125798547D01*
X153762664Y-125884793D01*
X153762671Y-125884797D01*
X153806495Y-125901142D01*
X153897517Y-125935091D01*
X153957127Y-125941500D01*
X154652872Y-125941499D01*
X154712483Y-125935091D01*
X154847331Y-125884796D01*
X154962546Y-125798546D01*
X155048796Y-125683331D01*
X155099091Y-125548483D01*
X155105500Y-125488873D01*
X155105499Y-125337680D01*
X155125183Y-125270644D01*
X155177987Y-125224889D01*
X155247145Y-125214945D01*
X155310701Y-125243970D01*
X155347430Y-125299364D01*
X155382819Y-125408280D01*
X155382821Y-125408284D01*
X155477467Y-125572216D01*
X155576904Y-125682652D01*
X155604129Y-125712888D01*
X155757265Y-125824148D01*
X155757270Y-125824151D01*
X155930192Y-125901142D01*
X155930197Y-125901144D01*
X156115354Y-125940500D01*
X156115355Y-125940500D01*
X156304644Y-125940500D01*
X156304646Y-125940500D01*
X156489803Y-125901144D01*
X156662730Y-125824151D01*
X156815871Y-125712888D01*
X156942533Y-125572216D01*
X157037179Y-125408284D01*
X157095674Y-125228256D01*
X157115460Y-125040000D01*
X157095674Y-124851744D01*
X157037179Y-124671716D01*
X156942533Y-124507784D01*
X156927339Y-124490909D01*
X156867350Y-124424284D01*
X156837120Y-124361292D01*
X156835500Y-124341312D01*
X156835500Y-119388687D01*
X156855185Y-119321648D01*
X156867350Y-119305715D01*
X156895780Y-119274140D01*
X156942533Y-119222216D01*
X157037179Y-119058284D01*
X157095674Y-118878256D01*
X157115460Y-118690000D01*
X157095674Y-118501744D01*
X157037179Y-118321716D01*
X156991161Y-118242011D01*
X156985093Y-118231500D01*
X156968620Y-118163599D01*
X156991473Y-118097573D01*
X157046394Y-118054382D01*
X157092480Y-118045500D01*
X157169548Y-118045500D01*
X157236587Y-118065185D01*
X157257229Y-118081819D01*
X159949761Y-120774352D01*
X159983246Y-120835675D01*
X159981855Y-120894124D01*
X159954937Y-120994589D01*
X159954937Y-120994590D01*
X159934341Y-121229999D01*
X159934341Y-121230000D01*
X159954936Y-121465403D01*
X159954938Y-121465413D01*
X160016094Y-121693655D01*
X160016096Y-121693659D01*
X160016097Y-121693663D01*
X160103973Y-121882114D01*
X160115965Y-121907830D01*
X160115967Y-121907834D01*
X160195940Y-122022046D01*
X160249474Y-122098501D01*
X160251501Y-122101395D01*
X160251506Y-122101402D01*
X160418597Y-122268493D01*
X160418603Y-122268498D01*
X160604158Y-122398425D01*
X160647783Y-122453002D01*
X160654977Y-122522500D01*
X160623454Y-122584855D01*
X160604158Y-122601575D01*
X160418597Y-122731505D01*
X160251505Y-122898597D01*
X160115965Y-123092169D01*
X160115964Y-123092171D01*
X160016098Y-123306335D01*
X160016094Y-123306344D01*
X159954938Y-123534586D01*
X159954936Y-123534596D01*
X159934341Y-123769999D01*
X159934341Y-123770000D01*
X159954936Y-124005403D01*
X159954938Y-124005413D01*
X160016094Y-124233655D01*
X160016096Y-124233659D01*
X160016097Y-124233663D01*
X160040217Y-124285388D01*
X160115965Y-124447830D01*
X160115967Y-124447834D01*
X160171132Y-124526617D01*
X160251501Y-124641396D01*
X160251506Y-124641402D01*
X160418597Y-124808493D01*
X160418603Y-124808498D01*
X160604158Y-124938425D01*
X160647783Y-124993002D01*
X160654977Y-125062500D01*
X160623454Y-125124855D01*
X160604158Y-125141575D01*
X160418597Y-125271505D01*
X160251505Y-125438597D01*
X160115965Y-125632169D01*
X160115964Y-125632171D01*
X160016098Y-125846335D01*
X160016094Y-125846344D01*
X159954938Y-126074586D01*
X159954936Y-126074596D01*
X159934341Y-126309999D01*
X159934341Y-126310000D01*
X159954936Y-126545403D01*
X159954938Y-126545413D01*
X160016094Y-126773655D01*
X160016096Y-126773659D01*
X160016097Y-126773663D01*
X160085892Y-126923338D01*
X160115965Y-126987830D01*
X160115967Y-126987834D01*
X160251501Y-127181395D01*
X160251506Y-127181402D01*
X160418597Y-127348493D01*
X160418603Y-127348498D01*
X160604158Y-127478425D01*
X160647783Y-127533002D01*
X160654977Y-127602500D01*
X160623454Y-127664855D01*
X160604158Y-127681575D01*
X160418597Y-127811505D01*
X160251505Y-127978597D01*
X160115965Y-128172169D01*
X160115964Y-128172171D01*
X160016098Y-128386335D01*
X160016094Y-128386344D01*
X159954938Y-128614586D01*
X159954936Y-128614596D01*
X159934341Y-128849999D01*
X159934341Y-128850000D01*
X159954936Y-129085403D01*
X159954938Y-129085413D01*
X160016094Y-129313655D01*
X160016096Y-129313659D01*
X160016097Y-129313663D01*
X160109043Y-129512985D01*
X160115965Y-129527830D01*
X160115967Y-129527834D01*
X160222316Y-129679715D01*
X160251505Y-129721401D01*
X160418599Y-129888495D01*
X160496639Y-129943139D01*
X160612165Y-130024032D01*
X160612167Y-130024033D01*
X160612170Y-130024035D01*
X160826337Y-130123903D01*
X160826343Y-130123904D01*
X160826344Y-130123905D01*
X160859220Y-130132714D01*
X161054592Y-130185063D01*
X161242918Y-130201539D01*
X161289999Y-130205659D01*
X161290000Y-130205659D01*
X161290001Y-130205659D01*
X161329234Y-130202226D01*
X161525408Y-130185063D01*
X161753663Y-130123903D01*
X161967830Y-130024035D01*
X162161401Y-129888495D01*
X162328495Y-129721401D01*
X162464035Y-129527830D01*
X162563903Y-129313663D01*
X162625063Y-129085408D01*
X162645659Y-128850000D01*
X162644928Y-128841650D01*
X162631904Y-128692780D01*
X162625063Y-128614592D01*
X162568570Y-128403753D01*
X162563905Y-128386344D01*
X162563904Y-128386343D01*
X162563903Y-128386337D01*
X162464035Y-128172171D01*
X162335689Y-127988872D01*
X162328494Y-127978597D01*
X162161402Y-127811506D01*
X162161396Y-127811501D01*
X161975842Y-127681575D01*
X161932217Y-127626998D01*
X161925023Y-127557500D01*
X161956546Y-127495145D01*
X161975842Y-127478425D01*
X162024367Y-127444447D01*
X162161401Y-127348495D01*
X162328495Y-127181401D01*
X162464035Y-126987830D01*
X162563903Y-126773663D01*
X162625063Y-126545408D01*
X162645659Y-126310000D01*
X162644539Y-126297204D01*
X162637856Y-126220815D01*
X162625063Y-126074592D01*
X162563903Y-125846337D01*
X162464035Y-125632171D01*
X162463834Y-125631883D01*
X162328494Y-125438597D01*
X162161402Y-125271506D01*
X162161396Y-125271501D01*
X161975842Y-125141575D01*
X161932217Y-125086998D01*
X161925023Y-125017500D01*
X161956546Y-124955145D01*
X161975842Y-124938425D01*
X162062456Y-124877777D01*
X162161401Y-124808495D01*
X162328495Y-124641401D01*
X162464035Y-124447830D01*
X162563903Y-124233663D01*
X162625063Y-124005408D01*
X162645659Y-123770000D01*
X162625063Y-123534592D01*
X162563903Y-123306337D01*
X162464035Y-123092171D01*
X162460566Y-123087216D01*
X162328494Y-122898597D01*
X162161402Y-122731506D01*
X162161396Y-122731501D01*
X161975842Y-122601575D01*
X161932217Y-122546998D01*
X161925023Y-122477500D01*
X161956546Y-122415145D01*
X161975842Y-122398425D01*
X161998026Y-122382891D01*
X162161401Y-122268495D01*
X162328495Y-122101401D01*
X162464035Y-121907830D01*
X162563903Y-121693663D01*
X162625063Y-121465408D01*
X162645659Y-121230000D01*
X162644928Y-121221650D01*
X162633804Y-121094500D01*
X162625063Y-120994592D01*
X162563903Y-120766337D01*
X162464035Y-120552171D01*
X162434434Y-120509895D01*
X162328494Y-120358597D01*
X162161402Y-120191506D01*
X162161396Y-120191501D01*
X161975842Y-120061575D01*
X161932217Y-120006998D01*
X161925023Y-119937500D01*
X161956546Y-119875145D01*
X161975842Y-119858425D01*
X162053379Y-119804133D01*
X162161401Y-119728495D01*
X162328495Y-119561401D01*
X162464035Y-119367830D01*
X162563903Y-119153663D01*
X162625063Y-118925408D01*
X162645659Y-118690000D01*
X162625063Y-118454592D01*
X162565698Y-118233037D01*
X162563905Y-118226344D01*
X162563904Y-118226343D01*
X162563903Y-118226337D01*
X162464035Y-118012171D01*
X162446168Y-117986653D01*
X162328494Y-117818597D01*
X162161402Y-117651506D01*
X162161396Y-117651501D01*
X161975842Y-117521575D01*
X161932217Y-117466998D01*
X161925023Y-117397500D01*
X161956546Y-117335145D01*
X161975842Y-117318425D01*
X162033880Y-117277786D01*
X162161401Y-117188495D01*
X162328495Y-117021401D01*
X162464035Y-116827830D01*
X162563903Y-116613663D01*
X162625063Y-116385408D01*
X162645659Y-116150000D01*
X162625063Y-115914592D01*
X162563903Y-115686337D01*
X162464035Y-115472171D01*
X162436286Y-115432540D01*
X162328494Y-115278597D01*
X162161402Y-115111506D01*
X162161396Y-115111501D01*
X161975842Y-114981575D01*
X161932217Y-114926998D01*
X161925023Y-114857500D01*
X161956546Y-114795145D01*
X161975842Y-114778425D01*
X162063384Y-114717127D01*
X162161401Y-114648495D01*
X162328495Y-114481401D01*
X162464035Y-114287830D01*
X162563903Y-114073663D01*
X162625063Y-113845408D01*
X162645659Y-113610000D01*
X162625063Y-113374592D01*
X162563903Y-113146337D01*
X162464035Y-112932171D01*
X162463652Y-112931623D01*
X162328494Y-112738597D01*
X162161402Y-112571506D01*
X162161396Y-112571501D01*
X161975842Y-112441575D01*
X161932217Y-112386998D01*
X161925023Y-112317500D01*
X161956546Y-112255145D01*
X161975842Y-112238425D01*
X161998026Y-112222891D01*
X162161401Y-112108495D01*
X162328495Y-111941401D01*
X162464035Y-111747830D01*
X162563903Y-111533663D01*
X162625063Y-111305408D01*
X162645659Y-111070000D01*
X162625063Y-110834592D01*
X162563903Y-110606337D01*
X162464035Y-110392171D01*
X162452827Y-110376163D01*
X162328494Y-110198597D01*
X162161402Y-110031506D01*
X162161396Y-110031501D01*
X161975842Y-109901575D01*
X161932217Y-109846998D01*
X161925023Y-109777500D01*
X161956546Y-109715145D01*
X161975842Y-109698425D01*
X162009011Y-109675200D01*
X162161401Y-109568495D01*
X162328495Y-109401401D01*
X162464035Y-109207830D01*
X162563903Y-108993663D01*
X162625063Y-108765408D01*
X162645659Y-108530000D01*
X162645610Y-108529445D01*
X162637425Y-108435883D01*
X162625063Y-108294592D01*
X162563903Y-108066337D01*
X162464035Y-107852171D01*
X162422055Y-107792216D01*
X162328494Y-107658597D01*
X162161402Y-107491506D01*
X162161396Y-107491501D01*
X161975842Y-107361575D01*
X161932217Y-107306998D01*
X161925023Y-107237500D01*
X161956546Y-107175145D01*
X161975842Y-107158425D01*
X162099635Y-107071744D01*
X162161401Y-107028495D01*
X162328495Y-106861401D01*
X162464035Y-106667830D01*
X162563903Y-106453663D01*
X162625063Y-106225408D01*
X162645659Y-105990000D01*
X162625063Y-105754592D01*
X162563903Y-105526337D01*
X162464035Y-105312171D01*
X162386490Y-105201424D01*
X162328494Y-105118597D01*
X162161402Y-104951506D01*
X162161396Y-104951501D01*
X161975842Y-104821575D01*
X161932217Y-104766998D01*
X161925023Y-104697500D01*
X161956546Y-104635145D01*
X161975842Y-104618425D01*
X162016921Y-104589661D01*
X162161401Y-104488495D01*
X162328495Y-104321401D01*
X162464035Y-104127830D01*
X162563903Y-103913663D01*
X162625063Y-103685408D01*
X162645659Y-103450000D01*
X162645610Y-103449445D01*
X162637241Y-103353784D01*
X162625063Y-103214592D01*
X162563903Y-102986337D01*
X162464035Y-102772171D01*
X162461676Y-102768801D01*
X162328494Y-102578597D01*
X162161402Y-102411506D01*
X162161396Y-102411501D01*
X161975842Y-102281575D01*
X161932217Y-102226998D01*
X161925023Y-102157500D01*
X161956546Y-102095145D01*
X161975842Y-102078425D01*
X162070381Y-102012228D01*
X162161401Y-101948495D01*
X162328495Y-101781401D01*
X162464035Y-101587830D01*
X162563903Y-101373663D01*
X162625063Y-101145408D01*
X162645659Y-100910000D01*
X162625063Y-100674592D01*
X162563903Y-100446337D01*
X162464035Y-100232171D01*
X162463087Y-100230816D01*
X162328494Y-100038597D01*
X162161402Y-99871506D01*
X162161396Y-99871501D01*
X161975842Y-99741575D01*
X161932217Y-99686998D01*
X161925023Y-99617500D01*
X161956546Y-99555145D01*
X161975842Y-99538425D01*
X161998026Y-99522891D01*
X162161401Y-99408495D01*
X162328495Y-99241401D01*
X162464035Y-99047830D01*
X162563903Y-98833663D01*
X162625063Y-98605408D01*
X162645659Y-98370000D01*
X162642521Y-98334139D01*
X162640269Y-98308394D01*
X162625063Y-98134592D01*
X162563903Y-97906337D01*
X162464035Y-97692171D01*
X162462354Y-97689769D01*
X162328494Y-97498597D01*
X162161402Y-97331506D01*
X162161396Y-97331501D01*
X161975842Y-97201575D01*
X161932217Y-97146998D01*
X161925023Y-97077500D01*
X161956546Y-97015145D01*
X161975842Y-96998425D01*
X162133149Y-96888277D01*
X162161401Y-96868495D01*
X162328495Y-96701401D01*
X162464035Y-96507830D01*
X162563903Y-96293663D01*
X162625063Y-96065408D01*
X162645659Y-95830000D01*
X162645610Y-95829445D01*
X162637422Y-95735849D01*
X162625063Y-95594592D01*
X162563903Y-95366337D01*
X162464035Y-95152171D01*
X162400717Y-95061742D01*
X162328494Y-94958597D01*
X162161402Y-94791506D01*
X162161396Y-94791501D01*
X161975842Y-94661575D01*
X161932217Y-94606998D01*
X161925023Y-94537500D01*
X161956546Y-94475145D01*
X161975842Y-94458425D01*
X162133139Y-94348284D01*
X162161401Y-94328495D01*
X162328495Y-94161401D01*
X162464035Y-93967830D01*
X162563903Y-93753663D01*
X162625063Y-93525408D01*
X162645659Y-93290000D01*
X162645610Y-93289445D01*
X162637426Y-93195898D01*
X162625063Y-93054592D01*
X162563903Y-92826337D01*
X162464035Y-92612171D01*
X162463652Y-92611623D01*
X162328494Y-92418597D01*
X162161402Y-92251506D01*
X162161396Y-92251501D01*
X161975842Y-92121575D01*
X161932217Y-92066998D01*
X161925023Y-91997500D01*
X161956546Y-91935145D01*
X161975842Y-91918425D01*
X162075195Y-91848857D01*
X162161401Y-91788495D01*
X162328495Y-91621401D01*
X162464035Y-91427830D01*
X162563903Y-91213663D01*
X162625063Y-90985408D01*
X162645659Y-90750000D01*
X162645610Y-90749445D01*
X162637954Y-90661930D01*
X162625063Y-90514592D01*
X162563903Y-90286337D01*
X162464035Y-90072171D01*
X162328495Y-89878599D01*
X162328494Y-89878597D01*
X162161402Y-89711506D01*
X162161396Y-89711501D01*
X161975842Y-89581575D01*
X161932217Y-89526998D01*
X161925023Y-89457500D01*
X161956546Y-89395145D01*
X161975842Y-89378425D01*
X161998026Y-89362891D01*
X162161401Y-89248495D01*
X162328495Y-89081401D01*
X162464035Y-88887830D01*
X162563903Y-88673663D01*
X162625063Y-88445408D01*
X162645659Y-88210000D01*
X162625063Y-87974592D01*
X162563903Y-87746337D01*
X162464035Y-87532171D01*
X162408663Y-87453090D01*
X162328494Y-87338597D01*
X162161402Y-87171506D01*
X162161396Y-87171501D01*
X161975842Y-87041575D01*
X161932217Y-86986998D01*
X161925023Y-86917500D01*
X161956546Y-86855145D01*
X161975842Y-86838425D01*
X162098555Y-86752500D01*
X162161401Y-86708495D01*
X162328495Y-86541401D01*
X162464035Y-86347830D01*
X162563903Y-86133663D01*
X162625063Y-85905408D01*
X162645659Y-85670000D01*
X162643878Y-85649649D01*
X162625063Y-85434596D01*
X162625063Y-85434592D01*
X162563903Y-85206337D01*
X162464035Y-84992171D01*
X162463115Y-84990856D01*
X162328494Y-84798597D01*
X162161402Y-84631506D01*
X162161401Y-84631505D01*
X161975405Y-84501269D01*
X161931781Y-84446692D01*
X161924588Y-84377193D01*
X161956110Y-84314839D01*
X161975405Y-84298119D01*
X162161082Y-84168105D01*
X162328105Y-84001082D01*
X162463600Y-83807578D01*
X162563429Y-83593492D01*
X162563432Y-83593486D01*
X162620636Y-83380000D01*
X161723012Y-83380000D01*
X161755925Y-83322993D01*
X161790000Y-83195826D01*
X161790000Y-83064174D01*
X161755925Y-82937007D01*
X161723012Y-82880000D01*
X162620636Y-82880000D01*
X162620635Y-82879999D01*
X162563432Y-82666513D01*
X162563429Y-82666507D01*
X162463600Y-82452422D01*
X162463599Y-82452420D01*
X162328113Y-82258926D01*
X162328108Y-82258920D01*
X162206053Y-82136865D01*
X162172568Y-82075542D01*
X162177552Y-82005850D01*
X162219424Y-81949917D01*
X162250400Y-81933002D01*
X162382331Y-81883796D01*
X162497546Y-81797546D01*
X162583796Y-81682331D01*
X162634091Y-81547483D01*
X162640500Y-81487873D01*
X162640499Y-79692128D01*
X162634091Y-79632517D01*
X162606111Y-79557500D01*
X162583797Y-79497671D01*
X162583793Y-79497664D01*
X162497547Y-79382455D01*
X162497544Y-79382452D01*
X162382335Y-79296206D01*
X162382328Y-79296202D01*
X162247482Y-79245908D01*
X162247483Y-79245908D01*
X162187883Y-79239501D01*
X162187881Y-79239500D01*
X162187873Y-79239500D01*
X162187864Y-79239500D01*
X160392129Y-79239500D01*
X160392123Y-79239501D01*
X160332516Y-79245908D01*
X160197671Y-79296202D01*
X160197664Y-79296206D01*
X160082455Y-79382452D01*
X160082452Y-79382455D01*
X159996206Y-79497664D01*
X159996202Y-79497671D01*
X159945908Y-79632517D01*
X159939501Y-79692116D01*
X159939501Y-79692123D01*
X159939500Y-79692135D01*
X159939500Y-81487870D01*
X159939501Y-81487876D01*
X159945908Y-81547483D01*
X159996202Y-81682328D01*
X159996206Y-81682335D01*
X160082452Y-81797544D01*
X160082455Y-81797547D01*
X160197664Y-81883793D01*
X160197671Y-81883797D01*
X160197674Y-81883798D01*
X160329598Y-81933002D01*
X160385531Y-81974873D01*
X160409949Y-82040337D01*
X160395098Y-82108610D01*
X160373947Y-82136865D01*
X160251886Y-82258926D01*
X160116400Y-82452420D01*
X160116399Y-82452422D01*
X160016570Y-82666507D01*
X160016567Y-82666513D01*
X159959364Y-82879999D01*
X159959364Y-82880000D01*
X160856988Y-82880000D01*
X160824075Y-82937007D01*
X160790000Y-83064174D01*
X160790000Y-83195826D01*
X160824075Y-83322993D01*
X160856988Y-83380000D01*
X159959364Y-83380000D01*
X160016567Y-83593486D01*
X160016570Y-83593492D01*
X160116399Y-83807578D01*
X160251894Y-84001082D01*
X160418917Y-84168105D01*
X160604595Y-84298119D01*
X160648219Y-84352696D01*
X160655412Y-84422195D01*
X160623890Y-84484549D01*
X160604595Y-84501269D01*
X160418594Y-84631508D01*
X160251505Y-84798597D01*
X160115965Y-84992169D01*
X160115964Y-84992171D01*
X160016098Y-85206335D01*
X160016094Y-85206344D01*
X159954938Y-85434586D01*
X159954936Y-85434596D01*
X159934341Y-85669999D01*
X159934341Y-85670000D01*
X159954936Y-85905403D01*
X159954938Y-85905413D01*
X160016094Y-86133655D01*
X160016096Y-86133659D01*
X160016097Y-86133663D01*
X160048063Y-86202214D01*
X160115965Y-86347830D01*
X160115967Y-86347834D01*
X160205725Y-86476021D01*
X160239942Y-86524888D01*
X160251501Y-86541395D01*
X160251506Y-86541402D01*
X160418597Y-86708493D01*
X160418603Y-86708498D01*
X160604158Y-86838425D01*
X160647783Y-86893002D01*
X160654977Y-86962500D01*
X160623454Y-87024855D01*
X160604158Y-87041575D01*
X160418597Y-87171505D01*
X160251505Y-87338597D01*
X160115965Y-87532169D01*
X160115964Y-87532171D01*
X160016098Y-87746335D01*
X160016094Y-87746344D01*
X159954938Y-87974586D01*
X159954936Y-87974596D01*
X159934341Y-88209999D01*
X159934341Y-88210000D01*
X159954936Y-88445403D01*
X159954938Y-88445413D01*
X159981856Y-88545872D01*
X159980193Y-88615722D01*
X159949762Y-88665646D01*
X157301181Y-91314228D01*
X157239858Y-91347713D01*
X157170166Y-91342729D01*
X157114233Y-91300857D01*
X157089816Y-91235393D01*
X157089500Y-91226547D01*
X157089500Y-87132393D01*
X157089499Y-87132389D01*
X157073319Y-87051045D01*
X157065463Y-87011548D01*
X157018311Y-86897714D01*
X157018310Y-86897713D01*
X157018307Y-86897707D01*
X156949859Y-86795268D01*
X156907091Y-86752500D01*
X156862733Y-86708142D01*
X156862732Y-86708141D01*
X155878960Y-85724369D01*
X155845475Y-85663046D01*
X155843323Y-85649668D01*
X155825674Y-85481744D01*
X155767179Y-85301716D01*
X155672533Y-85137784D01*
X155545871Y-84997112D01*
X155545870Y-84997111D01*
X155392734Y-84885851D01*
X155392729Y-84885848D01*
X155219807Y-84808857D01*
X155219802Y-84808855D01*
X155074001Y-84777865D01*
X155034646Y-84769500D01*
X154845354Y-84769500D01*
X154812897Y-84776398D01*
X154660197Y-84808855D01*
X154660192Y-84808857D01*
X154487270Y-84885848D01*
X154487265Y-84885851D01*
X154334129Y-84997111D01*
X154207466Y-85137785D01*
X154112821Y-85301715D01*
X154112818Y-85301722D01*
X154069645Y-85434596D01*
X154054326Y-85481744D01*
X154034540Y-85670000D01*
X154054326Y-85858256D01*
X154054327Y-85858259D01*
X154112818Y-86038277D01*
X154112821Y-86038284D01*
X154207467Y-86202216D01*
X154329597Y-86337855D01*
X154334129Y-86342888D01*
X154487265Y-86454148D01*
X154487270Y-86454151D01*
X154660192Y-86531142D01*
X154660197Y-86531144D01*
X154845354Y-86570500D01*
X154904548Y-86570500D01*
X154971587Y-86590185D01*
X154992229Y-86606819D01*
X155802181Y-87416771D01*
X155835666Y-87478094D01*
X155838500Y-87504452D01*
X155838500Y-87529500D01*
X155818815Y-87596539D01*
X155766011Y-87642294D01*
X155714500Y-87653500D01*
X151337000Y-87653500D01*
X151269961Y-87633815D01*
X151224206Y-87581011D01*
X151213000Y-87529500D01*
X151213000Y-86643030D01*
X151232685Y-86575991D01*
X151271904Y-86537491D01*
X151348350Y-86490340D01*
X151362671Y-86476018D01*
X151423989Y-86442533D01*
X151493681Y-86447514D01*
X151538034Y-86476017D01*
X151551961Y-86489944D01*
X151551965Y-86489947D01*
X151698688Y-86580448D01*
X151698699Y-86580453D01*
X151862347Y-86634680D01*
X151963351Y-86644999D01*
X152062500Y-86644998D01*
X152062500Y-85920000D01*
X152562500Y-85920000D01*
X152562500Y-86644999D01*
X152661640Y-86644999D01*
X152661654Y-86644998D01*
X152762652Y-86634680D01*
X152926300Y-86580453D01*
X152926311Y-86580448D01*
X153073034Y-86489947D01*
X153073038Y-86489944D01*
X153194944Y-86368038D01*
X153194947Y-86368034D01*
X153285448Y-86221311D01*
X153285453Y-86221300D01*
X153339680Y-86057652D01*
X153349999Y-85956654D01*
X153350000Y-85956641D01*
X153350000Y-85920000D01*
X152562500Y-85920000D01*
X152062500Y-85920000D01*
X152062500Y-84695000D01*
X152562500Y-84695000D01*
X152562500Y-85420000D01*
X153349999Y-85420000D01*
X153349999Y-85383360D01*
X153349998Y-85383345D01*
X153339680Y-85282347D01*
X153285453Y-85118699D01*
X153285448Y-85118688D01*
X153194947Y-84971965D01*
X153194944Y-84971961D01*
X153073038Y-84850055D01*
X153073034Y-84850052D01*
X152926311Y-84759551D01*
X152926300Y-84759546D01*
X152762652Y-84705319D01*
X152661654Y-84695000D01*
X152562500Y-84695000D01*
X152062500Y-84695000D01*
X152062500Y-84694999D01*
X151963360Y-84695000D01*
X151963344Y-84695001D01*
X151862347Y-84705319D01*
X151698699Y-84759546D01*
X151698688Y-84759551D01*
X151551965Y-84850052D01*
X151538032Y-84863985D01*
X151476708Y-84897468D01*
X151407016Y-84892482D01*
X151362672Y-84863982D01*
X151348351Y-84849661D01*
X151348350Y-84849660D01*
X151237498Y-84781285D01*
X151190775Y-84729339D01*
X151179552Y-84660376D01*
X151207396Y-84596294D01*
X151214915Y-84588066D01*
X151284948Y-84518033D01*
X151375448Y-84371311D01*
X151375453Y-84371300D01*
X151429680Y-84207652D01*
X151439999Y-84106654D01*
X151440000Y-84106641D01*
X151440000Y-84070000D01*
X150276500Y-84070000D01*
X150209461Y-84050315D01*
X150163706Y-83997511D01*
X150152500Y-83946000D01*
X150152500Y-82845000D01*
X150652500Y-82845000D01*
X150652500Y-83570000D01*
X151439999Y-83570000D01*
X151439999Y-83533360D01*
X151439998Y-83533345D01*
X151429680Y-83432347D01*
X151375453Y-83268699D01*
X151375448Y-83268688D01*
X151284947Y-83121965D01*
X151284944Y-83121961D01*
X151163038Y-83000055D01*
X151163034Y-83000052D01*
X151016311Y-82909551D01*
X151016300Y-82909546D01*
X150852652Y-82855319D01*
X150751654Y-82845000D01*
X150652500Y-82845000D01*
X150152500Y-82845000D01*
X150152500Y-82844999D01*
X150053360Y-82845000D01*
X150053344Y-82845001D01*
X149952347Y-82855319D01*
X149788699Y-82909546D01*
X149788688Y-82909551D01*
X149641965Y-83000052D01*
X149628032Y-83013985D01*
X149566708Y-83047468D01*
X149497016Y-83042482D01*
X149452672Y-83013982D01*
X149438351Y-82999661D01*
X149438350Y-82999660D01*
X149306419Y-82918284D01*
X149291518Y-82909093D01*
X149291513Y-82909091D01*
X149247740Y-82894586D01*
X149127753Y-82854826D01*
X149127751Y-82854825D01*
X149026678Y-82844500D01*
X148328330Y-82844500D01*
X148328312Y-82844501D01*
X148227247Y-82854825D01*
X148063484Y-82909092D01*
X148063481Y-82909093D01*
X147916648Y-82999661D01*
X147794661Y-83121648D01*
X147704093Y-83268481D01*
X147704091Y-83268486D01*
X147697696Y-83287785D01*
X147649826Y-83432247D01*
X147649826Y-83432248D01*
X147649825Y-83432248D01*
X147639500Y-83533315D01*
X147639500Y-83922047D01*
X147619815Y-83989086D01*
X147603181Y-84009728D01*
X143995727Y-87617181D01*
X143934404Y-87650666D01*
X143908046Y-87653500D01*
X136031629Y-87653500D01*
X136031623Y-87653501D01*
X135972016Y-87659908D01*
X135837171Y-87710202D01*
X135837164Y-87710206D01*
X135721955Y-87796452D01*
X135721952Y-87796455D01*
X135635706Y-87911664D01*
X135635702Y-87911671D01*
X135585408Y-88046517D01*
X135579001Y-88106116D01*
X135579000Y-88106135D01*
X135579000Y-90201870D01*
X135579001Y-90201876D01*
X135585408Y-90261483D01*
X135635702Y-90396328D01*
X135635706Y-90396335D01*
X135721952Y-90511544D01*
X135721955Y-90511547D01*
X135837164Y-90597793D01*
X135837171Y-90597797D01*
X135972017Y-90648091D01*
X135972016Y-90648091D01*
X135978944Y-90648835D01*
X136031627Y-90654500D01*
X140581547Y-90654499D01*
X140648586Y-90674184D01*
X140669228Y-90690818D01*
X143008181Y-93029771D01*
X143041666Y-93091094D01*
X143044500Y-93117452D01*
X143044500Y-93664331D01*
X143024815Y-93731370D01*
X142972011Y-93777125D01*
X142902853Y-93787069D01*
X142839297Y-93758044D01*
X142805939Y-93711783D01*
X142794314Y-93683718D01*
X142794312Y-93683715D01*
X142794312Y-93683714D01*
X142746203Y-93611716D01*
X142725858Y-93581267D01*
X142725856Y-93581264D01*
X142635637Y-93491045D01*
X142635606Y-93491016D01*
X141714198Y-92569608D01*
X141714178Y-92569586D01*
X141622733Y-92478141D01*
X141571509Y-92443915D01*
X141520286Y-92409688D01*
X141516848Y-92408264D01*
X141418344Y-92367463D01*
X141415645Y-92366345D01*
X141406455Y-92362538D01*
X141406453Y-92362537D01*
X141406452Y-92362537D01*
X141346029Y-92350518D01*
X141285610Y-92338500D01*
X141285607Y-92338500D01*
X141285606Y-92338500D01*
X140403748Y-92338500D01*
X140336709Y-92318815D01*
X140311600Y-92297474D01*
X140305873Y-92291114D01*
X140305869Y-92291110D01*
X140152734Y-92179851D01*
X140152729Y-92179848D01*
X139979807Y-92102857D01*
X139979802Y-92102855D01*
X139834001Y-92071865D01*
X139794646Y-92063500D01*
X139605354Y-92063500D01*
X139572897Y-92070398D01*
X139420197Y-92102855D01*
X139420192Y-92102857D01*
X139247270Y-92179848D01*
X139247265Y-92179851D01*
X139094129Y-92291111D01*
X138967466Y-92431785D01*
X138872821Y-92595715D01*
X138872818Y-92595722D01*
X138814327Y-92775740D01*
X138814326Y-92775744D01*
X138794540Y-92964000D01*
X138814326Y-93152256D01*
X138814327Y-93152259D01*
X138872818Y-93332277D01*
X138872821Y-93332284D01*
X138967467Y-93496216D01*
X139069185Y-93609185D01*
X139094129Y-93636888D01*
X139247265Y-93748148D01*
X139247270Y-93748151D01*
X139420192Y-93825142D01*
X139420197Y-93825144D01*
X139605354Y-93864500D01*
X139605355Y-93864500D01*
X139794644Y-93864500D01*
X139794646Y-93864500D01*
X139979803Y-93825144D01*
X140152730Y-93748151D01*
X140305871Y-93636888D01*
X140308788Y-93633647D01*
X140311600Y-93630526D01*
X140371087Y-93593879D01*
X140403748Y-93589500D01*
X140913548Y-93589500D01*
X140980587Y-93609185D01*
X141001229Y-93625819D01*
X141578181Y-94202771D01*
X141611666Y-94264094D01*
X141614500Y-94290452D01*
X141614500Y-97091312D01*
X141594815Y-97158351D01*
X141582650Y-97174284D01*
X141507466Y-97257784D01*
X141412821Y-97421715D01*
X141412818Y-97421722D01*
X141359929Y-97584499D01*
X141354326Y-97601744D01*
X141334540Y-97790000D01*
X141354326Y-97978256D01*
X141354327Y-97978259D01*
X141412818Y-98158277D01*
X141412821Y-98158284D01*
X141507467Y-98322216D01*
X141614499Y-98441087D01*
X141634129Y-98462888D01*
X141787265Y-98574148D01*
X141787270Y-98574151D01*
X141960191Y-98651142D01*
X141960193Y-98651142D01*
X141960197Y-98651144D01*
X142053554Y-98670987D01*
X142115032Y-98704177D01*
X142148809Y-98765340D01*
X142144157Y-98835055D01*
X142115451Y-98879957D01*
X141022229Y-99973181D01*
X140960906Y-100006666D01*
X140934548Y-100009500D01*
X140899500Y-100009500D01*
X140832461Y-99989815D01*
X140786706Y-99937011D01*
X140775500Y-99885500D01*
X140775500Y-97416394D01*
X140771500Y-97396288D01*
X140771499Y-97396282D01*
X140758615Y-97331504D01*
X140758615Y-97331503D01*
X140751464Y-97295554D01*
X140751463Y-97295548D01*
X140710214Y-97195965D01*
X140704312Y-97181715D01*
X140699812Y-97174981D01*
X140661145Y-97117112D01*
X140635856Y-97079264D01*
X140545637Y-96989045D01*
X140545606Y-96989016D01*
X131826819Y-88270229D01*
X131793334Y-88208906D01*
X131790500Y-88182548D01*
X131790500Y-87475299D01*
X131790500Y-87475297D01*
X131766463Y-87354451D01*
X131752652Y-87321110D01*
X131719312Y-87240617D01*
X131685084Y-87189393D01*
X131650858Y-87138170D01*
X131650856Y-87138167D01*
X131560637Y-87047948D01*
X131560606Y-87047919D01*
X131376819Y-86864132D01*
X131343334Y-86802809D01*
X131340500Y-86776451D01*
X131340500Y-84243393D01*
X131340499Y-84243389D01*
X131329537Y-84188277D01*
X131316463Y-84122548D01*
X131272591Y-84016632D01*
X131269312Y-84008715D01*
X131252256Y-83983190D01*
X131200858Y-83906267D01*
X131200856Y-83906264D01*
X131110637Y-83816045D01*
X131110606Y-83816016D01*
X130880237Y-83585647D01*
X130846752Y-83524324D01*
X130848143Y-83465872D01*
X130851503Y-83453334D01*
X130875063Y-83365408D01*
X130895659Y-83130000D01*
X130894928Y-83121650D01*
X130887422Y-83035849D01*
X130875063Y-82894592D01*
X130813903Y-82666337D01*
X130714035Y-82452171D01*
X130672054Y-82392216D01*
X130578496Y-82258600D01*
X130548173Y-82228277D01*
X130456567Y-82136671D01*
X130423084Y-82075351D01*
X130428068Y-82005659D01*
X130469939Y-81949725D01*
X130500915Y-81932810D01*
X130632331Y-81883796D01*
X130747546Y-81797546D01*
X130826787Y-81691692D01*
X130882720Y-81649823D01*
X130952412Y-81644839D01*
X131013734Y-81678324D01*
X135583016Y-86247606D01*
X135583045Y-86247637D01*
X135673263Y-86337855D01*
X135673267Y-86337858D01*
X135742647Y-86384216D01*
X135775715Y-86406312D01*
X135839504Y-86432734D01*
X135889548Y-86453463D01*
X135949971Y-86465481D01*
X136010393Y-86477500D01*
X136010394Y-86477500D01*
X137726252Y-86477500D01*
X137793291Y-86497185D01*
X137818400Y-86518526D01*
X137824126Y-86524885D01*
X137824130Y-86524889D01*
X137977265Y-86636148D01*
X137977270Y-86636151D01*
X138150192Y-86713142D01*
X138150197Y-86713144D01*
X138335354Y-86752500D01*
X138335355Y-86752500D01*
X138524644Y-86752500D01*
X138524646Y-86752500D01*
X138709803Y-86713144D01*
X138882730Y-86636151D01*
X139035871Y-86524888D01*
X139162533Y-86384216D01*
X139257179Y-86220284D01*
X139315674Y-86040256D01*
X139335460Y-85852000D01*
X139315674Y-85663744D01*
X139257179Y-85483716D01*
X139162533Y-85319784D01*
X139035871Y-85179112D01*
X139035870Y-85179111D01*
X138882734Y-85067851D01*
X138882729Y-85067848D01*
X138709807Y-84990857D01*
X138709802Y-84990855D01*
X138537880Y-84954313D01*
X138524646Y-84951500D01*
X138335354Y-84951500D01*
X138322120Y-84954313D01*
X138150197Y-84990855D01*
X138150192Y-84990857D01*
X137977270Y-85067848D01*
X137977265Y-85067851D01*
X137824130Y-85179110D01*
X137824126Y-85179114D01*
X137818400Y-85185474D01*
X137758913Y-85222121D01*
X137726252Y-85226500D01*
X136382452Y-85226500D01*
X136315413Y-85206815D01*
X136294771Y-85190181D01*
X134924590Y-83820000D01*
X138794540Y-83820000D01*
X138814326Y-84008256D01*
X138814475Y-84008715D01*
X138872818Y-84188277D01*
X138872821Y-84188284D01*
X138967467Y-84352216D01*
X139086621Y-84484549D01*
X139094129Y-84492888D01*
X139247265Y-84604148D01*
X139247270Y-84604151D01*
X139420192Y-84681142D01*
X139420197Y-84681144D01*
X139605354Y-84720500D01*
X139605355Y-84720500D01*
X139794644Y-84720500D01*
X139794646Y-84720500D01*
X139979803Y-84681144D01*
X140152730Y-84604151D01*
X140305871Y-84492888D01*
X140308788Y-84489647D01*
X140311600Y-84486526D01*
X140371087Y-84449879D01*
X140403748Y-84445500D01*
X141031607Y-84445500D01*
X141092029Y-84433481D01*
X141152452Y-84421463D01*
X141204268Y-84400000D01*
X142604540Y-84400000D01*
X142624326Y-84588256D01*
X142624327Y-84588259D01*
X142682818Y-84768277D01*
X142682821Y-84768284D01*
X142777467Y-84932216D01*
X142898401Y-85066526D01*
X142904129Y-85072888D01*
X143057265Y-85184148D01*
X143057270Y-85184151D01*
X143230192Y-85261142D01*
X143230197Y-85261144D01*
X143415354Y-85300500D01*
X143415355Y-85300500D01*
X143604644Y-85300500D01*
X143604646Y-85300500D01*
X143789803Y-85261144D01*
X143962730Y-85184151D01*
X144115871Y-85072888D01*
X144118788Y-85069647D01*
X144121600Y-85066526D01*
X144181087Y-85029879D01*
X144213748Y-85025500D01*
X144841608Y-85025500D01*
X144841608Y-85025499D01*
X144918476Y-85010210D01*
X144918477Y-85010210D01*
X144940768Y-85005775D01*
X144962452Y-85001463D01*
X145012496Y-84980734D01*
X145076286Y-84954312D01*
X145147895Y-84906463D01*
X145178733Y-84885858D01*
X145265858Y-84798733D01*
X145265858Y-84798731D01*
X145276066Y-84788524D01*
X145276067Y-84788521D01*
X147267772Y-82796819D01*
X147329095Y-82763334D01*
X147355453Y-82760500D01*
X147414644Y-82760500D01*
X147414646Y-82760500D01*
X147599803Y-82721144D01*
X147772730Y-82644151D01*
X147925871Y-82532888D01*
X148052533Y-82392216D01*
X148147179Y-82228284D01*
X148205674Y-82048256D01*
X148225460Y-81860000D01*
X148205674Y-81671744D01*
X148147179Y-81491716D01*
X148052533Y-81327784D01*
X147925871Y-81187112D01*
X147925870Y-81187111D01*
X147772734Y-81075851D01*
X147772729Y-81075848D01*
X147599807Y-80998857D01*
X147599802Y-80998855D01*
X147454001Y-80967865D01*
X147414646Y-80959500D01*
X147225354Y-80959500D01*
X147192897Y-80966398D01*
X147040197Y-80998855D01*
X147040192Y-80998857D01*
X146867270Y-81075848D01*
X146867265Y-81075851D01*
X146714129Y-81187111D01*
X146587466Y-81327785D01*
X146492821Y-81491715D01*
X146492818Y-81491722D01*
X146434327Y-81671740D01*
X146434326Y-81671744D01*
X146421104Y-81797544D01*
X146416679Y-81839649D01*
X146390094Y-81904263D01*
X146381039Y-81914368D01*
X144557229Y-83738181D01*
X144495906Y-83771666D01*
X144469548Y-83774500D01*
X144213748Y-83774500D01*
X144146709Y-83754815D01*
X144121600Y-83733474D01*
X144115873Y-83727114D01*
X144115869Y-83727110D01*
X143962734Y-83615851D01*
X143962729Y-83615848D01*
X143789807Y-83538857D01*
X143789802Y-83538855D01*
X143644001Y-83507865D01*
X143604646Y-83499500D01*
X143415354Y-83499500D01*
X143382897Y-83506398D01*
X143230197Y-83538855D01*
X143230192Y-83538857D01*
X143057270Y-83615848D01*
X143057265Y-83615851D01*
X142904129Y-83727111D01*
X142777466Y-83867785D01*
X142682821Y-84031715D01*
X142682818Y-84031722D01*
X142624327Y-84211740D01*
X142624326Y-84211744D01*
X142604540Y-84400000D01*
X141204268Y-84400000D01*
X141204269Y-84399999D01*
X141204271Y-84399999D01*
X141266281Y-84374314D01*
X141266280Y-84374314D01*
X141266286Y-84374312D01*
X141317509Y-84340084D01*
X141368733Y-84305858D01*
X141455858Y-84218733D01*
X141455859Y-84218731D01*
X141462925Y-84211665D01*
X141462927Y-84211661D01*
X142187771Y-83486819D01*
X142249094Y-83453334D01*
X142275452Y-83450500D01*
X142334644Y-83450500D01*
X142334646Y-83450500D01*
X142519803Y-83411144D01*
X142692730Y-83334151D01*
X142845871Y-83222888D01*
X142972533Y-83082216D01*
X143067179Y-82918284D01*
X143125674Y-82738256D01*
X143145460Y-82550000D01*
X143125674Y-82361744D01*
X143067179Y-82181716D01*
X142972533Y-82017784D01*
X142845871Y-81877112D01*
X142845870Y-81877111D01*
X142692734Y-81765851D01*
X142692729Y-81765848D01*
X142519807Y-81688857D01*
X142519802Y-81688855D01*
X142374001Y-81657865D01*
X142334646Y-81649500D01*
X142145354Y-81649500D01*
X142112897Y-81656398D01*
X141960197Y-81688855D01*
X141960192Y-81688857D01*
X141787270Y-81765848D01*
X141787265Y-81765851D01*
X141634129Y-81877111D01*
X141507466Y-82017785D01*
X141412821Y-82181715D01*
X141412818Y-82181722D01*
X141354327Y-82361740D01*
X141354326Y-82361744D01*
X141346405Y-82437105D01*
X141336678Y-82529651D01*
X141310093Y-82594266D01*
X141301038Y-82604370D01*
X140747229Y-83158181D01*
X140685906Y-83191666D01*
X140659548Y-83194500D01*
X140403748Y-83194500D01*
X140336709Y-83174815D01*
X140311600Y-83153474D01*
X140305873Y-83147114D01*
X140305869Y-83147110D01*
X140152734Y-83035851D01*
X140152729Y-83035848D01*
X139979807Y-82958857D01*
X139979802Y-82958855D01*
X139834001Y-82927865D01*
X139794646Y-82919500D01*
X139605354Y-82919500D01*
X139572897Y-82926398D01*
X139420197Y-82958855D01*
X139420192Y-82958857D01*
X139247270Y-83035848D01*
X139247265Y-83035851D01*
X139094129Y-83147111D01*
X138967466Y-83287785D01*
X138872821Y-83451715D01*
X138872818Y-83451722D01*
X138814327Y-83631740D01*
X138814326Y-83631744D01*
X138794540Y-83820000D01*
X134924590Y-83820000D01*
X131300198Y-80195608D01*
X131300178Y-80195586D01*
X131208736Y-80104144D01*
X131208728Y-80104138D01*
X131134013Y-80054215D01*
X131134012Y-80054214D01*
X131106290Y-80035690D01*
X131106286Y-80035688D01*
X131025792Y-80002347D01*
X130992452Y-79988537D01*
X130992446Y-79988535D01*
X130990307Y-79988110D01*
X130989289Y-79987577D01*
X130986620Y-79986768D01*
X130986773Y-79986261D01*
X130928396Y-79955725D01*
X130893822Y-79895009D01*
X130890499Y-79866493D01*
X130890499Y-79692129D01*
X130890498Y-79692123D01*
X130890497Y-79692116D01*
X130884091Y-79632517D01*
X130856111Y-79557500D01*
X130833797Y-79497671D01*
X130833793Y-79497664D01*
X130747547Y-79382455D01*
X130747544Y-79382452D01*
X130632335Y-79296206D01*
X130632328Y-79296202D01*
X130497482Y-79245908D01*
X130497483Y-79245908D01*
X130437883Y-79239501D01*
X130437881Y-79239500D01*
X130437873Y-79239500D01*
X130437864Y-79239500D01*
X128642129Y-79239500D01*
X128642123Y-79239501D01*
X128582516Y-79245908D01*
X128447671Y-79296202D01*
X128447664Y-79296206D01*
X128332455Y-79382452D01*
X128332452Y-79382455D01*
X128246206Y-79497664D01*
X128246202Y-79497671D01*
X128195908Y-79632517D01*
X128189501Y-79692116D01*
X128189501Y-79692123D01*
X128189500Y-79692135D01*
X128189500Y-81487870D01*
X128189501Y-81487876D01*
X128195908Y-81547483D01*
X128246202Y-81682328D01*
X128246206Y-81682335D01*
X128332452Y-81797544D01*
X128332455Y-81797547D01*
X128447664Y-81883793D01*
X128447671Y-81883797D01*
X128579081Y-81932810D01*
X128635015Y-81974681D01*
X128659432Y-82040145D01*
X128644580Y-82108418D01*
X128623430Y-82136673D01*
X128501503Y-82258600D01*
X128365965Y-82452169D01*
X128365964Y-82452171D01*
X128266098Y-82666335D01*
X128266094Y-82666344D01*
X128204938Y-82894586D01*
X128204936Y-82894596D01*
X128184341Y-83129999D01*
X128184341Y-83130000D01*
X128204936Y-83365403D01*
X128204938Y-83365413D01*
X128266094Y-83593655D01*
X128266096Y-83593659D01*
X128266097Y-83593663D01*
X128331292Y-83733474D01*
X128365965Y-83807830D01*
X128365967Y-83807834D01*
X128462713Y-83946000D01*
X128488751Y-83983187D01*
X128501501Y-84001395D01*
X128501506Y-84001402D01*
X128668597Y-84168493D01*
X128668603Y-84168498D01*
X128854158Y-84298425D01*
X128897783Y-84353002D01*
X128904977Y-84422500D01*
X128873454Y-84484855D01*
X128854158Y-84501575D01*
X128668597Y-84631505D01*
X128501505Y-84798597D01*
X128365965Y-84992169D01*
X128365964Y-84992171D01*
X128266098Y-85206335D01*
X128266094Y-85206344D01*
X128204938Y-85434586D01*
X128204936Y-85434596D01*
X128184341Y-85669999D01*
X128184341Y-85670000D01*
X128204936Y-85905403D01*
X128204938Y-85905413D01*
X128266094Y-86133655D01*
X128266096Y-86133659D01*
X128266097Y-86133663D01*
X128298063Y-86202214D01*
X128365965Y-86347830D01*
X128365967Y-86347834D01*
X128455725Y-86476021D01*
X128489942Y-86524888D01*
X128501501Y-86541395D01*
X128501506Y-86541402D01*
X128668597Y-86708493D01*
X128668603Y-86708498D01*
X128854158Y-86838425D01*
X128897783Y-86893002D01*
X128904977Y-86962500D01*
X128873454Y-87024855D01*
X128854158Y-87041575D01*
X128668597Y-87171505D01*
X128501505Y-87338597D01*
X128365965Y-87532169D01*
X128365964Y-87532171D01*
X128266098Y-87746335D01*
X128266094Y-87746344D01*
X128204938Y-87974586D01*
X128204936Y-87974596D01*
X128184341Y-88209999D01*
X128184341Y-88210000D01*
X128204936Y-88445403D01*
X128204938Y-88445413D01*
X128266094Y-88673655D01*
X128266096Y-88673659D01*
X128266097Y-88673663D01*
X128365965Y-88887830D01*
X128365967Y-88887834D01*
X128501501Y-89081395D01*
X128501506Y-89081402D01*
X128668597Y-89248493D01*
X128668603Y-89248498D01*
X128854158Y-89378425D01*
X128897783Y-89433002D01*
X128904977Y-89502500D01*
X128873454Y-89564855D01*
X128854158Y-89581575D01*
X128668597Y-89711505D01*
X128501505Y-89878597D01*
X128365965Y-90072169D01*
X128365964Y-90072171D01*
X128266098Y-90286335D01*
X128266094Y-90286344D01*
X128204938Y-90514586D01*
X128204936Y-90514596D01*
X128184341Y-90749999D01*
X128184341Y-90750000D01*
X128204936Y-90985403D01*
X128204938Y-90985413D01*
X128266094Y-91213655D01*
X128266096Y-91213659D01*
X128266097Y-91213663D01*
X128326282Y-91342729D01*
X128365965Y-91427830D01*
X128365967Y-91427834D01*
X128434641Y-91525910D01*
X128496356Y-91614048D01*
X128501501Y-91621395D01*
X128501506Y-91621402D01*
X128668597Y-91788493D01*
X128668603Y-91788498D01*
X128854158Y-91918425D01*
X128897783Y-91973002D01*
X128904977Y-92042500D01*
X128873454Y-92104855D01*
X128854158Y-92121575D01*
X128668597Y-92251505D01*
X128501505Y-92418597D01*
X128365965Y-92612169D01*
X128365964Y-92612171D01*
X128266098Y-92826335D01*
X128266094Y-92826344D01*
X128204938Y-93054586D01*
X128204936Y-93054596D01*
X128184341Y-93289999D01*
X128184341Y-93290000D01*
X128204936Y-93525403D01*
X128204938Y-93525413D01*
X128266094Y-93753655D01*
X128266096Y-93753659D01*
X128266097Y-93753663D01*
X128365965Y-93967830D01*
X128501501Y-94161396D01*
X128501506Y-94161402D01*
X128668597Y-94328493D01*
X128668603Y-94328498D01*
X128854158Y-94458425D01*
X128897783Y-94513002D01*
X128904977Y-94582500D01*
X128873454Y-94644855D01*
X128854158Y-94661575D01*
X128668597Y-94791505D01*
X128501505Y-94958597D01*
X128365965Y-95152169D01*
X128365964Y-95152171D01*
X128266098Y-95366335D01*
X128266094Y-95366344D01*
X128204938Y-95594586D01*
X128204936Y-95594596D01*
X128184341Y-95829999D01*
X128184341Y-95830000D01*
X128204936Y-96065403D01*
X128204938Y-96065413D01*
X128266094Y-96293655D01*
X128266096Y-96293659D01*
X128266097Y-96293663D01*
X128282832Y-96329551D01*
X128365965Y-96507830D01*
X128365967Y-96507834D01*
X128501501Y-96701395D01*
X128501506Y-96701402D01*
X128668597Y-96868493D01*
X128668603Y-96868498D01*
X128854158Y-96998425D01*
X128897783Y-97053002D01*
X128904977Y-97122500D01*
X128873454Y-97184855D01*
X128854158Y-97201575D01*
X128668597Y-97331505D01*
X128501505Y-97498597D01*
X128365965Y-97692169D01*
X128365964Y-97692171D01*
X128266098Y-97906335D01*
X128266094Y-97906344D01*
X128204938Y-98134586D01*
X128204936Y-98134596D01*
X128184341Y-98369999D01*
X128184341Y-98370000D01*
X128204936Y-98605403D01*
X128204938Y-98605413D01*
X128266094Y-98833655D01*
X128266096Y-98833659D01*
X128266097Y-98833663D01*
X128300300Y-98907011D01*
X128365965Y-99047830D01*
X128365967Y-99047834D01*
X128474281Y-99202521D01*
X128479943Y-99210608D01*
X128501501Y-99241395D01*
X128501506Y-99241402D01*
X128668597Y-99408493D01*
X128668603Y-99408498D01*
X128854158Y-99538425D01*
X128897783Y-99593002D01*
X128904977Y-99662500D01*
X128873454Y-99724855D01*
X128854158Y-99741575D01*
X128668597Y-99871505D01*
X128501505Y-100038597D01*
X128365965Y-100232169D01*
X128365964Y-100232171D01*
X128266098Y-100446335D01*
X128266094Y-100446344D01*
X128204938Y-100674586D01*
X128204936Y-100674596D01*
X128184341Y-100909999D01*
X128184341Y-100910000D01*
X128204936Y-101145403D01*
X128204938Y-101145413D01*
X128266094Y-101373655D01*
X128266096Y-101373659D01*
X128266097Y-101373663D01*
X128283853Y-101411740D01*
X128365965Y-101587830D01*
X128365967Y-101587834D01*
X128440412Y-101694151D01*
X128484229Y-101756729D01*
X128501501Y-101781395D01*
X128501506Y-101781402D01*
X128668597Y-101948493D01*
X128668603Y-101948498D01*
X128854158Y-102078425D01*
X128897783Y-102133002D01*
X128904977Y-102202500D01*
X128873454Y-102264855D01*
X128854158Y-102281575D01*
X128668597Y-102411505D01*
X128501505Y-102578597D01*
X128365965Y-102772169D01*
X128365964Y-102772171D01*
X128266098Y-102986335D01*
X128266094Y-102986344D01*
X128204938Y-103214586D01*
X128204936Y-103214596D01*
X128184341Y-103449999D01*
X128184341Y-103450000D01*
X128204936Y-103685403D01*
X128204938Y-103685413D01*
X128266094Y-103913655D01*
X128266096Y-103913659D01*
X128266097Y-103913663D01*
X128340983Y-104074256D01*
X128365965Y-104127830D01*
X128365967Y-104127834D01*
X128501501Y-104321395D01*
X128501506Y-104321402D01*
X128668597Y-104488493D01*
X128668603Y-104488498D01*
X128854158Y-104618425D01*
X128897783Y-104673002D01*
X128904977Y-104742500D01*
X128873454Y-104804855D01*
X128854158Y-104821575D01*
X128668597Y-104951505D01*
X128501505Y-105118597D01*
X128365965Y-105312169D01*
X128365964Y-105312171D01*
X128266098Y-105526335D01*
X128266094Y-105526344D01*
X128204938Y-105754586D01*
X128204936Y-105754596D01*
X128184341Y-105989999D01*
X128184341Y-105990000D01*
X128204936Y-106225403D01*
X128204938Y-106225413D01*
X128266094Y-106453655D01*
X128266096Y-106453659D01*
X128266097Y-106453663D01*
X128363661Y-106662888D01*
X128365965Y-106667830D01*
X128365967Y-106667834D01*
X128468665Y-106814501D01*
X128494104Y-106850832D01*
X128501501Y-106861395D01*
X128501506Y-106861402D01*
X128668597Y-107028493D01*
X128668603Y-107028498D01*
X128854158Y-107158425D01*
X128897783Y-107213002D01*
X128904977Y-107282500D01*
X128873454Y-107344855D01*
X128854158Y-107361575D01*
X128668597Y-107491505D01*
X128501505Y-107658597D01*
X128365965Y-107852169D01*
X128365964Y-107852171D01*
X128266098Y-108066335D01*
X128266094Y-108066344D01*
X128204938Y-108294586D01*
X128204936Y-108294596D01*
X128184341Y-108529999D01*
X128184341Y-108530000D01*
X128204936Y-108765403D01*
X128204938Y-108765413D01*
X128266094Y-108993655D01*
X128266096Y-108993659D01*
X128266097Y-108993663D01*
X128329766Y-109130201D01*
X128365965Y-109207830D01*
X128365967Y-109207834D01*
X128445350Y-109321204D01*
X128495597Y-109392964D01*
X128501501Y-109401395D01*
X128501506Y-109401402D01*
X128668597Y-109568493D01*
X128668603Y-109568498D01*
X128854158Y-109698425D01*
X128897783Y-109753002D01*
X128904977Y-109822500D01*
X128873454Y-109884855D01*
X128854158Y-109901575D01*
X128668597Y-110031505D01*
X128501505Y-110198597D01*
X128365965Y-110392169D01*
X128365964Y-110392171D01*
X128266098Y-110606335D01*
X128266094Y-110606344D01*
X128204938Y-110834586D01*
X128204936Y-110834596D01*
X128184341Y-111069999D01*
X128184341Y-111070000D01*
X128204936Y-111305403D01*
X128204938Y-111305413D01*
X128266094Y-111533655D01*
X128266096Y-111533659D01*
X128266097Y-111533663D01*
X128303033Y-111612872D01*
X128365965Y-111747830D01*
X128365967Y-111747834D01*
X128440412Y-111854151D01*
X128501501Y-111941396D01*
X128501506Y-111941402D01*
X128668597Y-112108493D01*
X128668603Y-112108498D01*
X128854158Y-112238425D01*
X128897783Y-112293002D01*
X128904977Y-112362500D01*
X128873454Y-112424855D01*
X128854158Y-112441575D01*
X128668597Y-112571505D01*
X128501505Y-112738597D01*
X128365965Y-112932169D01*
X128365964Y-112932171D01*
X128266098Y-113146335D01*
X128266094Y-113146344D01*
X128204938Y-113374586D01*
X128204936Y-113374596D01*
X128184341Y-113609999D01*
X128184341Y-113610000D01*
X128204936Y-113845403D01*
X128204938Y-113845413D01*
X128266094Y-114073655D01*
X128266096Y-114073659D01*
X128266097Y-114073663D01*
X128332988Y-114217111D01*
X128365965Y-114287830D01*
X128365967Y-114287834D01*
X128501501Y-114481395D01*
X128501506Y-114481402D01*
X128668597Y-114648493D01*
X128668603Y-114648498D01*
X128854158Y-114778425D01*
X128897783Y-114833002D01*
X128904977Y-114902500D01*
X128873454Y-114964855D01*
X128854158Y-114981575D01*
X128668597Y-115111505D01*
X128501505Y-115278597D01*
X128365965Y-115472169D01*
X128365964Y-115472171D01*
X128266098Y-115686335D01*
X128266094Y-115686344D01*
X128204938Y-115914586D01*
X128204936Y-115914596D01*
X128184341Y-116149999D01*
X128184341Y-116150000D01*
X128204936Y-116385403D01*
X128204938Y-116385413D01*
X128266094Y-116613655D01*
X128266096Y-116613659D01*
X128266097Y-116613663D01*
X128328529Y-116747548D01*
X128365965Y-116827830D01*
X128365967Y-116827834D01*
X128501501Y-117021395D01*
X128501506Y-117021402D01*
X128668597Y-117188493D01*
X128668603Y-117188498D01*
X128854158Y-117318425D01*
X128897783Y-117373002D01*
X128904977Y-117442500D01*
X128873454Y-117504855D01*
X128854158Y-117521575D01*
X128668597Y-117651505D01*
X128501505Y-117818597D01*
X128365965Y-118012169D01*
X128365964Y-118012171D01*
X128266098Y-118226335D01*
X128266094Y-118226344D01*
X128204938Y-118454586D01*
X128204936Y-118454596D01*
X128184341Y-118689999D01*
X128184341Y-118690000D01*
X128204936Y-118925403D01*
X128204938Y-118925413D01*
X128266094Y-119153655D01*
X128266096Y-119153659D01*
X128266097Y-119153663D01*
X128361424Y-119358091D01*
X128365965Y-119367830D01*
X128365967Y-119367834D01*
X128501501Y-119561395D01*
X128501506Y-119561402D01*
X128668597Y-119728493D01*
X128668603Y-119728498D01*
X128854158Y-119858425D01*
X128897783Y-119913002D01*
X128904977Y-119982500D01*
X128873454Y-120044855D01*
X128854158Y-120061575D01*
X128668597Y-120191505D01*
X128501505Y-120358597D01*
X128365965Y-120552169D01*
X128365964Y-120552171D01*
X128266098Y-120766335D01*
X128266094Y-120766344D01*
X128204938Y-120994586D01*
X128204936Y-120994596D01*
X128184341Y-121229999D01*
X128184341Y-121230000D01*
X128204936Y-121465403D01*
X128204938Y-121465413D01*
X128231856Y-121565872D01*
X128230193Y-121635722D01*
X128199762Y-121685646D01*
X127812000Y-122073409D01*
X127516270Y-122369139D01*
X127516267Y-122369142D01*
X127491361Y-122394048D01*
X127429142Y-122456266D01*
X127400661Y-122498892D01*
X127400660Y-122498893D01*
X127360690Y-122558709D01*
X127360685Y-122558718D01*
X127328290Y-122636930D01*
X127313538Y-122672543D01*
X127313535Y-122672553D01*
X127305445Y-122713222D01*
X127305446Y-122713223D01*
X127290137Y-122790195D01*
X127290133Y-122790212D01*
X127289500Y-122793389D01*
X127289500Y-134500603D01*
X125730000Y-134500603D01*
X125730000Y-66675000D01*
X132629341Y-66675000D01*
X132649936Y-66910403D01*
X132649938Y-66910413D01*
X132711094Y-67138655D01*
X132711096Y-67138659D01*
X132711097Y-67138663D01*
X132715000Y-67147032D01*
X132810965Y-67352830D01*
X132810967Y-67352834D01*
X132919281Y-67507521D01*
X132946505Y-67546401D01*
X133113599Y-67713495D01*
X133245500Y-67805853D01*
X133299594Y-67843730D01*
X133343218Y-67898307D01*
X133350411Y-67967806D01*
X133318889Y-68030160D01*
X133299593Y-68046880D01*
X133223626Y-68100072D01*
X133223625Y-68100072D01*
X133855590Y-68732037D01*
X133792007Y-68749075D01*
X133677993Y-68814901D01*
X133584901Y-68907993D01*
X133519075Y-69022007D01*
X133502037Y-69085589D01*
X132870073Y-68453625D01*
X132870072Y-68453625D01*
X132811401Y-68537419D01*
X132711570Y-68751507D01*
X132711566Y-68751516D01*
X132650432Y-68979673D01*
X132650430Y-68979684D01*
X132629843Y-69214998D01*
X132629843Y-69215001D01*
X132650430Y-69450315D01*
X132650432Y-69450326D01*
X132711566Y-69678483D01*
X132711570Y-69678492D01*
X132811400Y-69892579D01*
X132811402Y-69892583D01*
X132870072Y-69976373D01*
X132870073Y-69976373D01*
X133502037Y-69344409D01*
X133519075Y-69407993D01*
X133584901Y-69522007D01*
X133677993Y-69615099D01*
X133792007Y-69680925D01*
X133855590Y-69697962D01*
X133223625Y-70329925D01*
X133307421Y-70388599D01*
X133521507Y-70488429D01*
X133521516Y-70488433D01*
X133749673Y-70549567D01*
X133749684Y-70549569D01*
X133984998Y-70570157D01*
X133985002Y-70570157D01*
X134220315Y-70549569D01*
X134220326Y-70549567D01*
X134448483Y-70488433D01*
X134448492Y-70488429D01*
X134662578Y-70388600D01*
X134662582Y-70388598D01*
X134746373Y-70329926D01*
X134746373Y-70329925D01*
X134114409Y-69697962D01*
X134177993Y-69680925D01*
X134292007Y-69615099D01*
X134385099Y-69522007D01*
X134450925Y-69407993D01*
X134467962Y-69344410D01*
X135099925Y-69976373D01*
X135153425Y-69899968D01*
X135208002Y-69856344D01*
X135277501Y-69849151D01*
X135339855Y-69880673D01*
X135356576Y-69899969D01*
X135410073Y-69976372D01*
X136042037Y-69344409D01*
X136059075Y-69407993D01*
X136124901Y-69522007D01*
X136217993Y-69615099D01*
X136332007Y-69680925D01*
X136395588Y-69697961D01*
X135763625Y-70329925D01*
X135847421Y-70388599D01*
X136061507Y-70488429D01*
X136061516Y-70488433D01*
X136289673Y-70549567D01*
X136289684Y-70549569D01*
X136524998Y-70570157D01*
X136525002Y-70570157D01*
X136760315Y-70549569D01*
X136760326Y-70549567D01*
X136988483Y-70488433D01*
X136988492Y-70488430D01*
X137088095Y-70441984D01*
X137157172Y-70431492D01*
X137220956Y-70460011D01*
X137259196Y-70518488D01*
X137264500Y-70554366D01*
X137264500Y-75031611D01*
X137288535Y-75152444D01*
X137288540Y-75152461D01*
X137335685Y-75266280D01*
X137335690Y-75266289D01*
X137369914Y-75317507D01*
X137369915Y-75317509D01*
X137404140Y-75368731D01*
X137404141Y-75368732D01*
X137404142Y-75368733D01*
X137491267Y-75455858D01*
X137491268Y-75455858D01*
X137498335Y-75462925D01*
X137498334Y-75462925D01*
X137498338Y-75462928D01*
X138761038Y-76725629D01*
X138794523Y-76786952D01*
X138796678Y-76800348D01*
X138804968Y-76879227D01*
X138814326Y-76968256D01*
X138814327Y-76968259D01*
X138872818Y-77148277D01*
X138872819Y-77148278D01*
X138872821Y-77148284D01*
X138967467Y-77312216D01*
X139091078Y-77449500D01*
X139094129Y-77452888D01*
X139247265Y-77564148D01*
X139247270Y-77564151D01*
X139420192Y-77641142D01*
X139420197Y-77641144D01*
X139605354Y-77680500D01*
X139605355Y-77680500D01*
X139794644Y-77680500D01*
X139794646Y-77680500D01*
X139979803Y-77641144D01*
X140152730Y-77564151D01*
X140305871Y-77452888D01*
X140432533Y-77312216D01*
X140527179Y-77148284D01*
X140528641Y-77143786D01*
X140534760Y-77124952D01*
X140566818Y-77026285D01*
X140606255Y-76968612D01*
X140670614Y-76941413D01*
X140739460Y-76953327D01*
X140772429Y-76976923D01*
X142201413Y-78405908D01*
X143607092Y-79811587D01*
X143640577Y-79872910D01*
X143642732Y-79886306D01*
X143643647Y-79895009D01*
X143660380Y-80054214D01*
X143660381Y-80054217D01*
X143718872Y-80234235D01*
X143718875Y-80234242D01*
X143813521Y-80398174D01*
X143854540Y-80443730D01*
X143940183Y-80538846D01*
X144093319Y-80650106D01*
X144093324Y-80650109D01*
X144266246Y-80727100D01*
X144266251Y-80727102D01*
X144451408Y-80766458D01*
X144451409Y-80766458D01*
X144640698Y-80766458D01*
X144640700Y-80766458D01*
X144825857Y-80727102D01*
X144998784Y-80650109D01*
X145151925Y-80538846D01*
X145162575Y-80527017D01*
X145222057Y-80490367D01*
X145291914Y-80491694D01*
X145342408Y-80522305D01*
X145350958Y-80530855D01*
X145350962Y-80530858D01*
X145453402Y-80599307D01*
X145453406Y-80599309D01*
X145453409Y-80599311D01*
X145567243Y-80646463D01*
X145627666Y-80658481D01*
X145688088Y-80670500D01*
X146411912Y-80670500D01*
X146472334Y-80658481D01*
X146532757Y-80646463D01*
X146532760Y-80646461D01*
X146532763Y-80646461D01*
X146566092Y-80632654D01*
X146566091Y-80632654D01*
X146566097Y-80632652D01*
X146646591Y-80599312D01*
X146697814Y-80565084D01*
X146749038Y-80530858D01*
X146836163Y-80443733D01*
X146836163Y-80443731D01*
X146846371Y-80433524D01*
X146846372Y-80433521D01*
X147722395Y-79557500D01*
X150155001Y-79557500D01*
X150155001Y-79606654D01*
X150165319Y-79707652D01*
X150219546Y-79871300D01*
X150219551Y-79871311D01*
X150310052Y-80018034D01*
X150310055Y-80018038D01*
X150431961Y-80139944D01*
X150431965Y-80139947D01*
X150578688Y-80230448D01*
X150578699Y-80230453D01*
X150742347Y-80284680D01*
X150843352Y-80294999D01*
X150880000Y-80294999D01*
X150880000Y-79557500D01*
X151380000Y-79557500D01*
X151380000Y-80294999D01*
X151416640Y-80294999D01*
X151416654Y-80294998D01*
X151517652Y-80284680D01*
X151681300Y-80230453D01*
X151681311Y-80230448D01*
X151828034Y-80139947D01*
X151828038Y-80139944D01*
X151949944Y-80018038D01*
X151949947Y-80018034D01*
X152040448Y-79871311D01*
X152040453Y-79871300D01*
X152094680Y-79707652D01*
X152104999Y-79606654D01*
X152105000Y-79606641D01*
X152105000Y-79557500D01*
X152695001Y-79557500D01*
X152695001Y-79606654D01*
X152705319Y-79707652D01*
X152759546Y-79871300D01*
X152759551Y-79871311D01*
X152850052Y-80018034D01*
X152850055Y-80018038D01*
X152971961Y-80139944D01*
X152971965Y-80139947D01*
X153118688Y-80230448D01*
X153118699Y-80230453D01*
X153282347Y-80284680D01*
X153383352Y-80294999D01*
X153420000Y-80294999D01*
X153420000Y-79557500D01*
X153920000Y-79557500D01*
X153920000Y-80294999D01*
X153956640Y-80294999D01*
X153956654Y-80294998D01*
X154057652Y-80284680D01*
X154221300Y-80230453D01*
X154221311Y-80230448D01*
X154368034Y-80139947D01*
X154368038Y-80139944D01*
X154489944Y-80018038D01*
X154489947Y-80018034D01*
X154580448Y-79871311D01*
X154580453Y-79871300D01*
X154634680Y-79707652D01*
X154644999Y-79606654D01*
X154645000Y-79606641D01*
X154645000Y-79557500D01*
X155235001Y-79557500D01*
X155235001Y-79606654D01*
X155245319Y-79707652D01*
X155299546Y-79871300D01*
X155299551Y-79871311D01*
X155390052Y-80018034D01*
X155390055Y-80018038D01*
X155511961Y-80139944D01*
X155511965Y-80139947D01*
X155658688Y-80230448D01*
X155658699Y-80230453D01*
X155822347Y-80284680D01*
X155923352Y-80294999D01*
X155960000Y-80294999D01*
X155960000Y-79557500D01*
X156460000Y-79557500D01*
X156460000Y-80294999D01*
X156496640Y-80294999D01*
X156496654Y-80294998D01*
X156597652Y-80284680D01*
X156761300Y-80230453D01*
X156761311Y-80230448D01*
X156908034Y-80139947D01*
X156908038Y-80139944D01*
X157029944Y-80018038D01*
X157029947Y-80018034D01*
X157120448Y-79871311D01*
X157120453Y-79871300D01*
X157174680Y-79707652D01*
X157184999Y-79606654D01*
X157185000Y-79606641D01*
X157185000Y-79557500D01*
X156460000Y-79557500D01*
X155960000Y-79557500D01*
X155235001Y-79557500D01*
X154645000Y-79557500D01*
X153920000Y-79557500D01*
X153420000Y-79557500D01*
X152695001Y-79557500D01*
X152105000Y-79557500D01*
X151380000Y-79557500D01*
X150880000Y-79557500D01*
X150155001Y-79557500D01*
X147722395Y-79557500D01*
X148543077Y-78736819D01*
X148604400Y-78703334D01*
X148630758Y-78700500D01*
X150062141Y-78700500D01*
X150129180Y-78720185D01*
X150174935Y-78772989D01*
X150184879Y-78842147D01*
X150179847Y-78863503D01*
X150165319Y-78907345D01*
X150165319Y-78907346D01*
X150155000Y-79008345D01*
X150155000Y-79057500D01*
X152104999Y-79057500D01*
X152104999Y-79008360D01*
X152104998Y-79008345D01*
X152094680Y-78907347D01*
X152040453Y-78743699D01*
X152040448Y-78743688D01*
X151949947Y-78596965D01*
X151949944Y-78596961D01*
X151836017Y-78483034D01*
X151802532Y-78421711D01*
X151807516Y-78352019D01*
X151836013Y-78307676D01*
X151950340Y-78193350D01*
X152040908Y-78046516D01*
X152095174Y-77882753D01*
X152105500Y-77781677D01*
X152105499Y-77183324D01*
X152099536Y-77124953D01*
X152095174Y-77082247D01*
X152082014Y-77042533D01*
X152040908Y-76918484D01*
X151950340Y-76771650D01*
X151828350Y-76649660D01*
X151681516Y-76559092D01*
X151517753Y-76504826D01*
X151517751Y-76504825D01*
X151416678Y-76494500D01*
X150843330Y-76494500D01*
X150843312Y-76494501D01*
X150742247Y-76504825D01*
X150578484Y-76559092D01*
X150578481Y-76559093D01*
X150431648Y-76649661D01*
X150309661Y-76771648D01*
X150219093Y-76918481D01*
X150219091Y-76918486D01*
X150193193Y-76996642D01*
X150164826Y-77082247D01*
X150164826Y-77082248D01*
X150164825Y-77082248D01*
X150154500Y-77183315D01*
X150154500Y-77325500D01*
X150134815Y-77392539D01*
X150082011Y-77438294D01*
X150030500Y-77449500D01*
X148258694Y-77449500D01*
X148137858Y-77473535D01*
X148137846Y-77473539D01*
X148105567Y-77486909D01*
X148090702Y-77493067D01*
X148024024Y-77520685D01*
X148024022Y-77520686D01*
X147921571Y-77589141D01*
X147921568Y-77589144D01*
X146137681Y-79373033D01*
X146076358Y-79406518D01*
X146006666Y-79401534D01*
X145962319Y-79373033D01*
X143631819Y-77042533D01*
X143598334Y-76981210D01*
X143595500Y-76954852D01*
X143595500Y-70626985D01*
X143615185Y-70559946D01*
X143667989Y-70514191D01*
X143737147Y-70504247D01*
X143751593Y-70507210D01*
X143909674Y-70549567D01*
X143909684Y-70549569D01*
X144144998Y-70570157D01*
X144145002Y-70570157D01*
X144380315Y-70549569D01*
X144380326Y-70549567D01*
X144608483Y-70488433D01*
X144608492Y-70488429D01*
X144822578Y-70388600D01*
X144822582Y-70388598D01*
X144906373Y-70329926D01*
X144906373Y-70329925D01*
X144274410Y-69697962D01*
X144337993Y-69680925D01*
X144452007Y-69615099D01*
X144545099Y-69522007D01*
X144610925Y-69407993D01*
X144627962Y-69344410D01*
X145259925Y-69976373D01*
X145313425Y-69899968D01*
X145368002Y-69856344D01*
X145437501Y-69849151D01*
X145499855Y-69880673D01*
X145516576Y-69899969D01*
X145570073Y-69976372D01*
X146202037Y-69344408D01*
X146219075Y-69407993D01*
X146284901Y-69522007D01*
X146377993Y-69615099D01*
X146492007Y-69680925D01*
X146555590Y-69697962D01*
X145923625Y-70329925D01*
X146007421Y-70388599D01*
X146221507Y-70488429D01*
X146221516Y-70488433D01*
X146449673Y-70549567D01*
X146449684Y-70549569D01*
X146684998Y-70570157D01*
X146685002Y-70570157D01*
X146920315Y-70549569D01*
X146920326Y-70549567D01*
X147148483Y-70488433D01*
X147148492Y-70488429D01*
X147362578Y-70388600D01*
X147362582Y-70388598D01*
X147446373Y-70329926D01*
X147446373Y-70329925D01*
X146814409Y-69697962D01*
X146877993Y-69680925D01*
X146992007Y-69615099D01*
X147085099Y-69522007D01*
X147150925Y-69407993D01*
X147167962Y-69344410D01*
X147799925Y-69976373D01*
X147853425Y-69899968D01*
X147908002Y-69856344D01*
X147977501Y-69849151D01*
X148039855Y-69880673D01*
X148056576Y-69899969D01*
X148110073Y-69976372D01*
X148742037Y-69344408D01*
X148759075Y-69407993D01*
X148824901Y-69522007D01*
X148917993Y-69615099D01*
X149032007Y-69680925D01*
X149095590Y-69697962D01*
X148463625Y-70329925D01*
X148547421Y-70388599D01*
X148761507Y-70488429D01*
X148761516Y-70488433D01*
X148989673Y-70549567D01*
X148989684Y-70549569D01*
X149224998Y-70570157D01*
X149225002Y-70570157D01*
X149460315Y-70549569D01*
X149460326Y-70549567D01*
X149688483Y-70488433D01*
X149688492Y-70488429D01*
X149902578Y-70388600D01*
X149902582Y-70388598D01*
X149986373Y-70329926D01*
X149986373Y-70329925D01*
X149354409Y-69697962D01*
X149417993Y-69680925D01*
X149532007Y-69615099D01*
X149625099Y-69522007D01*
X149690925Y-69407993D01*
X149707962Y-69344410D01*
X150339925Y-69976373D01*
X150393425Y-69899968D01*
X150448002Y-69856344D01*
X150517501Y-69849151D01*
X150579855Y-69880673D01*
X150596576Y-69899969D01*
X150650073Y-69976372D01*
X151282037Y-69344408D01*
X151299075Y-69407993D01*
X151364901Y-69522007D01*
X151457993Y-69615099D01*
X151572007Y-69680925D01*
X151635588Y-69697961D01*
X151003625Y-70329925D01*
X151087421Y-70388599D01*
X151301507Y-70488429D01*
X151301516Y-70488433D01*
X151529673Y-70549567D01*
X151529684Y-70549569D01*
X151764998Y-70570157D01*
X151765002Y-70570157D01*
X152000315Y-70549569D01*
X152000326Y-70549567D01*
X152228483Y-70488433D01*
X152228492Y-70488430D01*
X152328095Y-70441984D01*
X152397172Y-70431492D01*
X152460956Y-70460011D01*
X152499196Y-70518488D01*
X152504500Y-70554366D01*
X152504500Y-77004106D01*
X152528537Y-77124952D01*
X152538199Y-77148277D01*
X152538200Y-77148278D01*
X152538201Y-77148283D01*
X152575685Y-77238780D01*
X152575690Y-77238789D01*
X152609914Y-77290007D01*
X152609915Y-77290009D01*
X152644140Y-77341231D01*
X152644141Y-77341232D01*
X152644142Y-77341233D01*
X152658180Y-77355271D01*
X152691665Y-77416592D01*
X152694500Y-77442953D01*
X152694500Y-77781668D01*
X152694501Y-77781687D01*
X152704825Y-77882752D01*
X152759092Y-78046515D01*
X152759093Y-78046518D01*
X152849661Y-78193351D01*
X152963982Y-78307672D01*
X152997467Y-78368995D01*
X152992483Y-78438687D01*
X152963983Y-78483034D01*
X152850052Y-78596965D01*
X152759551Y-78743688D01*
X152759546Y-78743699D01*
X152705319Y-78907347D01*
X152695000Y-79008345D01*
X152695000Y-79057500D01*
X154644999Y-79057500D01*
X154644999Y-79008360D01*
X154644998Y-79008345D01*
X154634680Y-78907347D01*
X154580453Y-78743699D01*
X154580448Y-78743688D01*
X154489947Y-78596965D01*
X154489944Y-78596961D01*
X154376017Y-78483034D01*
X154342532Y-78421711D01*
X154347516Y-78352019D01*
X154376013Y-78307676D01*
X154490340Y-78193350D01*
X154580908Y-78046516D01*
X154635174Y-77882753D01*
X154645500Y-77781677D01*
X154645499Y-77183324D01*
X154639536Y-77124953D01*
X154635174Y-77082247D01*
X154622014Y-77042533D01*
X154580908Y-76918484D01*
X154490340Y-76771650D01*
X154368350Y-76649660D01*
X154221516Y-76559092D01*
X154057753Y-76504826D01*
X154057751Y-76504825D01*
X153956684Y-76494500D01*
X153956677Y-76494500D01*
X153879500Y-76494500D01*
X153812461Y-76474815D01*
X153766706Y-76422011D01*
X153755500Y-76370500D01*
X153755500Y-70626985D01*
X153775185Y-70559946D01*
X153827989Y-70514191D01*
X153897147Y-70504247D01*
X153911593Y-70507210D01*
X154069674Y-70549567D01*
X154069684Y-70549569D01*
X154304998Y-70570157D01*
X154305002Y-70570157D01*
X154540315Y-70549569D01*
X154540326Y-70549567D01*
X154768483Y-70488433D01*
X154768486Y-70488432D01*
X154773086Y-70486287D01*
X154842163Y-70475790D01*
X154905949Y-70504304D01*
X154944193Y-70562778D01*
X154949500Y-70598665D01*
X154949500Y-76909108D01*
X154957409Y-76948867D01*
X154957409Y-76948871D01*
X154957410Y-76948871D01*
X154957410Y-76948872D01*
X154966911Y-76996642D01*
X154971318Y-77018796D01*
X154973536Y-77029948D01*
X155020688Y-77143786D01*
X155020688Y-77143787D01*
X155034813Y-77164926D01*
X155049037Y-77186212D01*
X155049038Y-77186215D01*
X155049039Y-77186215D01*
X155089140Y-77246231D01*
X155089141Y-77246232D01*
X155089142Y-77246233D01*
X155176267Y-77333358D01*
X155176268Y-77333358D01*
X155183335Y-77340425D01*
X155183334Y-77340425D01*
X155183338Y-77340428D01*
X155198181Y-77355271D01*
X155231666Y-77416594D01*
X155234500Y-77442952D01*
X155234500Y-77781668D01*
X155234501Y-77781687D01*
X155244825Y-77882752D01*
X155299092Y-78046515D01*
X155299093Y-78046518D01*
X155389661Y-78193351D01*
X155503982Y-78307672D01*
X155537467Y-78368995D01*
X155532483Y-78438687D01*
X155503983Y-78483034D01*
X155390052Y-78596965D01*
X155299551Y-78743688D01*
X155299546Y-78743699D01*
X155245319Y-78907347D01*
X155235000Y-79008345D01*
X155235000Y-79057500D01*
X157184999Y-79057500D01*
X157184999Y-79008360D01*
X157184998Y-79008345D01*
X157174680Y-78907347D01*
X157120453Y-78743699D01*
X157120448Y-78743688D01*
X157029947Y-78596965D01*
X157029944Y-78596961D01*
X156916017Y-78483034D01*
X156882532Y-78421711D01*
X156887516Y-78352019D01*
X156916013Y-78307676D01*
X157030340Y-78193350D01*
X157120908Y-78046516D01*
X157175174Y-77882753D01*
X157185500Y-77781677D01*
X157185499Y-77183324D01*
X157179536Y-77124953D01*
X157175174Y-77082247D01*
X157162014Y-77042533D01*
X157120908Y-76918484D01*
X157030340Y-76771650D01*
X156908350Y-76649660D01*
X156761516Y-76559092D01*
X156597753Y-76504826D01*
X156597751Y-76504825D01*
X156496684Y-76494500D01*
X156496677Y-76494500D01*
X156324500Y-76494500D01*
X156257461Y-76474815D01*
X156211706Y-76422011D01*
X156200500Y-76370500D01*
X156200500Y-70599218D01*
X156220185Y-70532179D01*
X156272989Y-70486424D01*
X156342147Y-70476480D01*
X156376906Y-70486837D01*
X156381330Y-70488900D01*
X156381332Y-70488900D01*
X156381337Y-70488903D01*
X156609592Y-70550063D01*
X156797918Y-70566539D01*
X156844999Y-70570659D01*
X156845000Y-70570659D01*
X156845001Y-70570659D01*
X156884234Y-70567226D01*
X157080408Y-70550063D01*
X157308663Y-70488903D01*
X157522830Y-70389035D01*
X157716401Y-70253495D01*
X157883495Y-70086401D01*
X158019035Y-69892830D01*
X158118903Y-69678663D01*
X158180063Y-69450408D01*
X158200659Y-69215000D01*
X158180063Y-68979592D01*
X158118903Y-68751337D01*
X158019035Y-68537171D01*
X158014037Y-68530032D01*
X157883494Y-68343597D01*
X157716398Y-68176501D01*
X157715030Y-68175354D01*
X157714592Y-68174696D01*
X157712573Y-68172677D01*
X157712978Y-68172271D01*
X157676330Y-68117182D01*
X157675224Y-68047321D01*
X157712063Y-67987952D01*
X157755737Y-67962662D01*
X157764334Y-67959814D01*
X157913656Y-67867712D01*
X158037712Y-67743656D01*
X158129814Y-67594334D01*
X158184999Y-67427797D01*
X158195500Y-67325009D01*
X158195499Y-66024992D01*
X158184999Y-65922203D01*
X158129814Y-65755666D01*
X158037712Y-65606344D01*
X157913656Y-65482288D01*
X157799104Y-65411632D01*
X157764336Y-65390187D01*
X157764331Y-65390185D01*
X157762862Y-65389698D01*
X157597797Y-65335001D01*
X157597795Y-65335000D01*
X157495010Y-65324500D01*
X156194998Y-65324500D01*
X156194981Y-65324501D01*
X156092203Y-65335000D01*
X156092200Y-65335001D01*
X155925668Y-65390185D01*
X155925663Y-65390187D01*
X155857429Y-65432274D01*
X155786952Y-65475744D01*
X155719562Y-65494184D01*
X155652899Y-65473261D01*
X155634177Y-65457886D01*
X154101899Y-63925608D01*
X154101879Y-63925586D01*
X154010434Y-63834141D01*
X153959210Y-63799915D01*
X153907988Y-63765689D01*
X153907987Y-63765688D01*
X153907984Y-63765686D01*
X153907981Y-63765685D01*
X153827493Y-63732347D01*
X153794154Y-63718537D01*
X153784128Y-63716543D01*
X153733730Y-63706518D01*
X153673311Y-63694500D01*
X153673308Y-63694500D01*
X153673307Y-63694500D01*
X136401607Y-63694500D01*
X136278393Y-63694500D01*
X136278389Y-63694500D01*
X136217971Y-63706518D01*
X136157548Y-63718537D01*
X136157543Y-63718538D01*
X136124207Y-63732347D01*
X136110397Y-63738067D01*
X136088169Y-63747274D01*
X136043713Y-63765688D01*
X136033557Y-63772475D01*
X136033449Y-63772547D01*
X135941268Y-63834140D01*
X135897705Y-63877703D01*
X135854142Y-63921267D01*
X135854139Y-63921270D01*
X134440646Y-65334762D01*
X134379323Y-65368247D01*
X134320872Y-65366856D01*
X134220413Y-65339938D01*
X134220403Y-65339936D01*
X133985001Y-65319341D01*
X133984999Y-65319341D01*
X133749596Y-65339936D01*
X133749586Y-65339938D01*
X133521344Y-65401094D01*
X133521335Y-65401098D01*
X133307171Y-65500964D01*
X133307169Y-65500965D01*
X133113597Y-65636505D01*
X132946505Y-65803597D01*
X132810965Y-65997169D01*
X132810964Y-65997171D01*
X132711098Y-66211335D01*
X132711094Y-66211344D01*
X132649938Y-66439586D01*
X132649936Y-66439596D01*
X132629341Y-66674999D01*
X132629341Y-66675000D01*
X125730000Y-66675000D01*
X125730000Y-60270000D01*
X126015172Y-60270000D01*
X126034462Y-60564312D01*
X126034464Y-60564324D01*
X126092001Y-60853584D01*
X126092005Y-60853599D01*
X126186812Y-61132888D01*
X126317258Y-61397406D01*
X126317265Y-61397419D01*
X126481123Y-61642649D01*
X126510405Y-61676040D01*
X127333708Y-60852736D01*
X127430967Y-60986602D01*
X127553398Y-61109033D01*
X127687262Y-61206290D01*
X126863958Y-62029593D01*
X126897350Y-62058876D01*
X127142580Y-62222734D01*
X127142593Y-62222741D01*
X127407111Y-62353187D01*
X127686400Y-62447994D01*
X127686415Y-62447998D01*
X127975675Y-62505535D01*
X127975687Y-62505537D01*
X128270000Y-62524827D01*
X128564312Y-62505537D01*
X128564324Y-62505535D01*
X128853584Y-62447998D01*
X128853599Y-62447994D01*
X129132888Y-62353187D01*
X129397406Y-62222741D01*
X129397419Y-62222734D01*
X129642648Y-62058877D01*
X129676039Y-62029593D01*
X128852737Y-61206290D01*
X128986602Y-61109033D01*
X129109033Y-60986602D01*
X129206290Y-60852737D01*
X130029593Y-61676039D01*
X130058877Y-61642648D01*
X130222734Y-61397419D01*
X130222741Y-61397406D01*
X130353187Y-61132888D01*
X130447994Y-60853599D01*
X130447998Y-60853584D01*
X130505535Y-60564324D01*
X130505537Y-60564312D01*
X130524827Y-60270000D01*
X160305172Y-60270000D01*
X160324462Y-60564312D01*
X160324464Y-60564324D01*
X160382001Y-60853584D01*
X160382005Y-60853599D01*
X160476812Y-61132888D01*
X160607258Y-61397406D01*
X160607265Y-61397419D01*
X160771123Y-61642649D01*
X160800405Y-61676040D01*
X161623708Y-60852736D01*
X161720967Y-60986602D01*
X161843398Y-61109033D01*
X161977262Y-61206290D01*
X161153958Y-62029593D01*
X161187350Y-62058876D01*
X161432580Y-62222734D01*
X161432593Y-62222741D01*
X161697111Y-62353187D01*
X161976400Y-62447994D01*
X161976415Y-62447998D01*
X162265675Y-62505535D01*
X162265687Y-62505537D01*
X162560000Y-62524827D01*
X162854312Y-62505537D01*
X162854324Y-62505535D01*
X163143584Y-62447998D01*
X163143599Y-62447994D01*
X163422888Y-62353187D01*
X163687406Y-62222741D01*
X163687419Y-62222734D01*
X163932648Y-62058877D01*
X163966039Y-62029593D01*
X163142737Y-61206290D01*
X163276602Y-61109033D01*
X163399033Y-60986602D01*
X163496290Y-60852737D01*
X164319593Y-61676039D01*
X164348877Y-61642648D01*
X164512734Y-61397419D01*
X164512741Y-61397406D01*
X164643187Y-61132888D01*
X164737994Y-60853599D01*
X164737998Y-60853584D01*
X164795535Y-60564324D01*
X164795537Y-60564312D01*
X164814827Y-60270000D01*
X164795537Y-59975687D01*
X164795535Y-59975675D01*
X164737998Y-59686415D01*
X164737994Y-59686400D01*
X164643187Y-59407111D01*
X164512741Y-59142593D01*
X164512734Y-59142580D01*
X164348876Y-58897350D01*
X164319593Y-58863958D01*
X163496289Y-59687261D01*
X163399033Y-59553398D01*
X163276602Y-59430967D01*
X163142736Y-59333709D01*
X163966040Y-58510405D01*
X163932649Y-58481123D01*
X163687419Y-58317265D01*
X163687406Y-58317258D01*
X163422888Y-58186812D01*
X163143599Y-58092005D01*
X163143584Y-58092001D01*
X162854324Y-58034464D01*
X162854312Y-58034462D01*
X162560000Y-58015172D01*
X162265687Y-58034462D01*
X162265675Y-58034464D01*
X161976415Y-58092001D01*
X161976400Y-58092005D01*
X161697111Y-58186812D01*
X161432593Y-58317258D01*
X161432580Y-58317265D01*
X161187346Y-58481126D01*
X161187339Y-58481131D01*
X161153959Y-58510403D01*
X161153959Y-58510405D01*
X161977263Y-59333709D01*
X161843398Y-59430967D01*
X161720967Y-59553398D01*
X161623709Y-59687263D01*
X160800405Y-58863959D01*
X160800403Y-58863959D01*
X160771131Y-58897339D01*
X160771126Y-58897346D01*
X160607265Y-59142580D01*
X160607258Y-59142593D01*
X160476812Y-59407111D01*
X160382005Y-59686400D01*
X160382001Y-59686415D01*
X160324464Y-59975675D01*
X160324462Y-59975687D01*
X160305172Y-60270000D01*
X130524827Y-60270000D01*
X130505537Y-59975687D01*
X130505535Y-59975675D01*
X130447998Y-59686415D01*
X130447994Y-59686400D01*
X130353187Y-59407111D01*
X130222741Y-59142593D01*
X130222734Y-59142580D01*
X130058876Y-58897350D01*
X130029593Y-58863958D01*
X129206289Y-59687261D01*
X129109033Y-59553398D01*
X128986602Y-59430967D01*
X128852736Y-59333709D01*
X129676040Y-58510405D01*
X129642649Y-58481123D01*
X129397419Y-58317265D01*
X129397406Y-58317258D01*
X129132888Y-58186812D01*
X128853599Y-58092005D01*
X128853584Y-58092001D01*
X128564324Y-58034464D01*
X128564312Y-58034462D01*
X128270000Y-58015172D01*
X127975687Y-58034462D01*
X127975675Y-58034464D01*
X127686415Y-58092001D01*
X127686400Y-58092005D01*
X127407111Y-58186812D01*
X127142593Y-58317258D01*
X127142580Y-58317265D01*
X126897346Y-58481126D01*
X126897339Y-58481131D01*
X126863959Y-58510403D01*
X126863959Y-58510405D01*
X127687263Y-59333709D01*
X127553398Y-59430967D01*
X127430967Y-59553398D01*
X127333709Y-59687262D01*
X126510405Y-58863959D01*
X126510403Y-58863959D01*
X126481131Y-58897339D01*
X126481126Y-58897346D01*
X126317265Y-59142580D01*
X126317258Y-59142593D01*
X126186812Y-59407111D01*
X126092005Y-59686400D01*
X126092001Y-59686415D01*
X126034464Y-59975675D01*
X126034462Y-59975687D01*
X126015172Y-60270000D01*
X125730000Y-60270000D01*
X125730000Y-59731089D01*
X125730020Y-59728878D01*
X125730777Y-59686415D01*
X125732409Y-59594889D01*
X125733650Y-59579472D01*
X125771948Y-59313099D01*
X125775709Y-59295814D01*
X125820703Y-59142580D01*
X125851210Y-59038681D01*
X125857391Y-59022112D01*
X125914368Y-58897350D01*
X125968720Y-58778334D01*
X125977185Y-58762832D01*
X126122084Y-58537364D01*
X126132670Y-58523222D01*
X126308177Y-58320676D01*
X126320676Y-58308177D01*
X126523222Y-58132670D01*
X126537364Y-58122084D01*
X126762832Y-57977185D01*
X126778334Y-57968720D01*
X127022112Y-57857390D01*
X127038681Y-57851210D01*
X127295818Y-57775707D01*
X127313099Y-57771948D01*
X127579472Y-57733650D01*
X127594889Y-57732409D01*
X127728879Y-57730020D01*
X127731090Y-57730000D01*
X163098910Y-57730000D01*
X163101121Y-57730020D01*
G37*
%TD.AperFunction*%
%TD*%
M02*
