%TF.GenerationSoftware,KiCad,Pcbnew,8.0.0*%
%TF.CreationDate,2024-03-15T17:45:11+09:00*%
%TF.ProjectId,STM32F405_dev_board,53544d33-3246-4343-9035-5f6465765f62,1.0.1*%
%TF.SameCoordinates,Original*%
%TF.FileFunction,Copper,L4,Bot*%
%TF.FilePolarity,Positive*%
%FSLAX46Y46*%
G04 Gerber Fmt 4.6, Leading zero omitted, Abs format (unit mm)*
G04 Created by KiCad (PCBNEW 8.0.0) date 2024-03-15 17:45:11*
%MOMM*%
%LPD*%
G01*
G04 APERTURE LIST*
G04 Aperture macros list*
%AMRoundRect*
0 Rectangle with rounded corners*
0 $1 Rounding radius*
0 $2 $3 $4 $5 $6 $7 $8 $9 X,Y pos of 4 corners*
0 Add a 4 corners polygon primitive as box body*
4,1,4,$2,$3,$4,$5,$6,$7,$8,$9,$2,$3,0*
0 Add four circle primitives for the rounded corners*
1,1,$1+$1,$2,$3*
1,1,$1+$1,$4,$5*
1,1,$1+$1,$6,$7*
1,1,$1+$1,$8,$9*
0 Add four rect primitives between the rounded corners*
20,1,$1+$1,$2,$3,$4,$5,0*
20,1,$1+$1,$4,$5,$6,$7,0*
20,1,$1+$1,$6,$7,$8,$9,0*
20,1,$1+$1,$8,$9,$2,$3,0*%
G04 Aperture macros list end*
%TA.AperFunction,ComponentPad*%
%ADD10R,1.300000X1.300000*%
%TD*%
%TA.AperFunction,ComponentPad*%
%ADD11C,1.300000*%
%TD*%
%TA.AperFunction,SMDPad,CuDef*%
%ADD12R,0.450000X1.800000*%
%TD*%
%TA.AperFunction,ComponentPad*%
%ADD13C,3.500000*%
%TD*%
%TA.AperFunction,ComponentPad*%
%ADD14C,2.000000*%
%TD*%
%TA.AperFunction,ComponentPad*%
%ADD15C,2.565000*%
%TD*%
%TA.AperFunction,ComponentPad*%
%ADD16RoundRect,0.250000X-0.600000X0.600000X-0.600000X-0.600000X0.600000X-0.600000X0.600000X0.600000X0*%
%TD*%
%TA.AperFunction,ComponentPad*%
%ADD17C,1.700000*%
%TD*%
%TA.AperFunction,ComponentPad*%
%ADD18R,1.700000X1.700000*%
%TD*%
%TA.AperFunction,ComponentPad*%
%ADD19O,1.700000X1.700000*%
%TD*%
%TA.AperFunction,SMDPad,CuDef*%
%ADD20RoundRect,0.237500X0.300000X0.237500X-0.300000X0.237500X-0.300000X-0.237500X0.300000X-0.237500X0*%
%TD*%
%TA.AperFunction,SMDPad,CuDef*%
%ADD21RoundRect,0.237500X-0.300000X-0.237500X0.300000X-0.237500X0.300000X0.237500X-0.300000X0.237500X0*%
%TD*%
%TA.AperFunction,SMDPad,CuDef*%
%ADD22R,1.430000X2.850000*%
%TD*%
%TA.AperFunction,ViaPad*%
%ADD23C,0.800000*%
%TD*%
%TA.AperFunction,Conductor*%
%ADD24C,0.250000*%
%TD*%
G04 APERTURE END LIST*
D10*
%TO.P,S3,1,COM*%
%TO.N,Net-(S3-COM)*%
X139700000Y-126365000D03*
D11*
%TO.P,S3,2,NO*%
%TO.N,GND*%
X139700000Y-128905000D03*
%TO.P,S3,3,NC*%
%TO.N,VCC3V3*%
X139700000Y-123825000D03*
%TD*%
D10*
%TO.P,S2,1,COM*%
%TO.N,Net-(S2-COM)*%
X137160000Y-126365000D03*
D11*
%TO.P,S2,2,NO*%
%TO.N,GND*%
X137160000Y-128905000D03*
%TO.P,S2,3,NC*%
%TO.N,VCC3V3*%
X137160000Y-123825000D03*
%TD*%
D12*
%TO.P,IC2,1,TXD*%
%TO.N,PA10{slash}USART1_RX*%
X149478250Y-120827000D03*
%TO.P,IC2,2,DTR#*%
%TO.N,unconnected-(IC2-DTR#-Pad2)*%
X150128250Y-120827000D03*
%TO.P,IC2,3,RTS#*%
%TO.N,PA12*%
X150778250Y-120827000D03*
%TO.P,IC2,4,VCCIO*%
%TO.N,VCC3V3*%
X151428250Y-120827000D03*
%TO.P,IC2,5,RXD*%
%TO.N,PA9{slash}USART1_TX*%
X152078250Y-120827000D03*
%TO.P,IC2,6,RI#*%
%TO.N,unconnected-(IC2-RI#-Pad6)*%
X152728250Y-120827000D03*
%TO.P,IC2,7,GND_1*%
%TO.N,GND*%
X153378250Y-120827000D03*
%TO.P,IC2,8,NC_1*%
%TO.N,unconnected-(IC2-NC_1-Pad8)*%
X154028250Y-120827000D03*
%TO.P,IC2,9,DSR#*%
%TO.N,unconnected-(IC2-DSR#-Pad9)*%
X154678250Y-120827000D03*
%TO.P,IC2,10,DCD#*%
%TO.N,unconnected-(IC2-DCD#-Pad10)*%
X155328250Y-120827000D03*
%TO.P,IC2,11,CTS#*%
%TO.N,PA11*%
X155978250Y-120827000D03*
%TO.P,IC2,12,CBUS4*%
%TO.N,unconnected-(IC2-CBUS4-Pad12)*%
X156628250Y-120827000D03*
%TO.P,IC2,13,CBUS2*%
%TO.N,unconnected-(IC2-CBUS2-Pad13)*%
X157278250Y-120827000D03*
%TO.P,IC2,14,CBUS3*%
%TO.N,unconnected-(IC2-CBUS3-Pad14)*%
X157928250Y-120827000D03*
%TO.P,IC2,15,USBDP*%
%TO.N,USBDP*%
X157928250Y-127927000D03*
%TO.P,IC2,16,USBDM*%
%TO.N,USBDM*%
X157278250Y-127927000D03*
%TO.P,IC2,17,3V3OUT*%
%TO.N,Net-(IC2-3V3OUT)*%
X156628250Y-127927000D03*
%TO.P,IC2,18,GND_2*%
%TO.N,GND*%
X155978250Y-127927000D03*
%TO.P,IC2,19,RESET#*%
%TO.N,RESET*%
X155328250Y-127927000D03*
%TO.P,IC2,20,VCC*%
%TO.N,VCC3V3*%
X154678250Y-127927000D03*
%TO.P,IC2,21,GND_3*%
%TO.N,GND*%
X154028250Y-127927000D03*
%TO.P,IC2,22,CBUS1*%
%TO.N,unconnected-(IC2-CBUS1-Pad22)*%
X153378250Y-127927000D03*
%TO.P,IC2,23,CBUS0*%
%TO.N,unconnected-(IC2-CBUS0-Pad23)*%
X152728250Y-127927000D03*
%TO.P,IC2,24,NC_2*%
%TO.N,unconnected-(IC2-NC_2-Pad24)*%
X152078250Y-127927000D03*
%TO.P,IC2,25,AGND*%
%TO.N,GND*%
X151428250Y-127927000D03*
%TO.P,IC2,26,TEST*%
X150778250Y-127927000D03*
%TO.P,IC2,27,OSCI*%
%TO.N,unconnected-(IC2-OSCI-Pad27)*%
X150128250Y-127927000D03*
%TO.P,IC2,28,OSCO*%
%TO.N,unconnected-(IC2-OSCO-Pad28)*%
X149478250Y-127927000D03*
%TD*%
D13*
%TO.P,REF\u002A\u002A,1*%
%TO.N,GND*%
X162560000Y-60270000D03*
%TD*%
D14*
%TO.P,J6,MH3,MH3*%
%TO.N,GND*%
X141148000Y-134057000D03*
%TO.P,J6,MH4,MH4*%
X150368000Y-134057000D03*
D15*
%TO.P,J6,MH5,MH5*%
X141148000Y-138557000D03*
%TO.P,J6,MH6,MH6*%
X150368000Y-138557000D03*
%TD*%
D13*
%TO.P,REF\u002A\u002A,1*%
%TO.N,GND*%
X128285913Y-139053348D03*
%TD*%
%TO.P,REF\u002A\u002A,1*%
%TO.N,GND*%
X128270000Y-60270000D03*
%TD*%
D16*
%TO.P,J1,1,VTREF*%
%TO.N,VCC3V3*%
X156845000Y-66675000D03*
D17*
%TO.P,J1,2,VCC/NC*%
X156845000Y-69215000D03*
%TO.P,J1,3,~{TRST}*%
%TO.N,JNTRST*%
X154305000Y-66675000D03*
%TO.P,J1,4,GND*%
%TO.N,GND*%
X154305000Y-69215000D03*
%TO.P,J1,5,TDI*%
%TO.N,JTDI*%
X151765000Y-66675000D03*
%TO.P,J1,6,GND*%
%TO.N,GND*%
X151765000Y-69215000D03*
%TO.P,J1,7,TMS/SWDIO*%
%TO.N,JTMS{slash}SWDIO*%
X149225000Y-66675000D03*
%TO.P,J1,8,GND*%
%TO.N,GND*%
X149225000Y-69215000D03*
%TO.P,J1,9,TCK/SWDCLK*%
%TO.N,JTCK{slash}SWCLK*%
X146685000Y-66675000D03*
%TO.P,J1,10,GND*%
%TO.N,GND*%
X146685000Y-69215000D03*
%TO.P,J1,11,RTCK*%
%TO.N,Net-(J1-RTCK)*%
X144145000Y-66675000D03*
%TO.P,J1,12,GND*%
%TO.N,GND*%
X144145000Y-69215000D03*
%TO.P,J1,13,TDO/SWO*%
%TO.N,JTDO*%
X141605000Y-66675000D03*
%TO.P,J1,14,GND*%
%TO.N,GND*%
X141605000Y-69215000D03*
%TO.P,J1,15,~{SRST}*%
%TO.N,RESET*%
X139065000Y-66675000D03*
%TO.P,J1,16,GND*%
%TO.N,GND*%
X139065000Y-69215000D03*
%TO.P,J1,17,DBGRQ/NC*%
%TO.N,Net-(J1-DBGRQ{slash}NC)*%
X136525000Y-66675000D03*
%TO.P,J1,18,GND*%
%TO.N,GND*%
X136525000Y-69215000D03*
%TO.P,J1,19,DBGACK/NC*%
%TO.N,Net-(J1-DBGACK{slash}NC)*%
X133985000Y-66675000D03*
%TO.P,J1,20,GND*%
%TO.N,GND*%
X133985000Y-69215000D03*
%TD*%
D18*
%TO.P,J3,1,Pin_1*%
%TO.N,VCC3V3*%
X161290000Y-80590000D03*
D19*
%TO.P,J3,2,Pin_2*%
%TO.N,GND*%
X161290000Y-83130000D03*
%TO.P,J3,3,Pin_3*%
%TO.N,5V*%
X161290000Y-85670000D03*
%TO.P,J3,4,Pin_4*%
%TO.N,PC12*%
X161290000Y-88210000D03*
%TO.P,J3,5,Pin_5*%
%TO.N,PC11*%
X161290000Y-90750000D03*
%TO.P,J3,6,Pin_6*%
%TO.N,PC10*%
X161290000Y-93290000D03*
%TO.P,J3,7,Pin_7*%
%TO.N,PA10{slash}USART1_RX*%
X161290000Y-95830000D03*
%TO.P,J3,8,Pin_8*%
%TO.N,PA9{slash}USART1_TX*%
X161290000Y-98370000D03*
%TO.P,J3,9,Pin_9*%
%TO.N,PA8*%
X161290000Y-100910000D03*
%TO.P,J3,10,Pin_10*%
%TO.N,PC9*%
X161290000Y-103450000D03*
%TO.P,J3,11,Pin_11*%
%TO.N,PC8*%
X161290000Y-105990000D03*
%TO.P,J3,12,Pin_12*%
%TO.N,PC7*%
X161290000Y-108530000D03*
%TO.P,J3,13,Pin_13*%
%TO.N,PC6*%
X161290000Y-111070000D03*
%TO.P,J3,14,Pin_14*%
%TO.N,PB15*%
X161290000Y-113610000D03*
%TO.P,J3,15,Pin_15*%
%TO.N,PB14*%
X161290000Y-116150000D03*
%TO.P,J3,16,Pin_16*%
%TO.N,PB13*%
X161290000Y-118690000D03*
%TO.P,J3,17,Pin_17*%
%TO.N,PB12*%
X161290000Y-121230000D03*
%TO.P,J3,18,Pin_18*%
%TO.N,PB11*%
X161290000Y-123770000D03*
%TO.P,J3,19,Pin_19*%
%TO.N,PB10*%
X161290000Y-126310000D03*
%TO.P,J3,20,Pin_20*%
%TO.N,PB1*%
X161290000Y-128850000D03*
%TD*%
D13*
%TO.P,REF\u002A\u002A,1*%
%TO.N,GND*%
X162560000Y-139010000D03*
%TD*%
D18*
%TO.P,J2,1,Pin_1*%
%TO.N,VBAT*%
X129540000Y-80590000D03*
D19*
%TO.P,J2,2,Pin_2*%
%TO.N,PB6*%
X129540000Y-83130000D03*
%TO.P,J2,3,Pin_3*%
%TO.N,PB7*%
X129540000Y-85670000D03*
%TO.P,J2,4,Pin_4*%
%TO.N,PB8*%
X129540000Y-88210000D03*
%TO.P,J2,5,Pin_5*%
%TO.N,PB9*%
X129540000Y-90750000D03*
%TO.P,J2,6,Pin_6*%
%TO.N,PC13*%
X129540000Y-93290000D03*
%TO.P,J2,7,Pin_7*%
%TO.N,PA5*%
X129540000Y-95830000D03*
%TO.P,J2,8,Pin_8*%
%TO.N,PA6*%
X129540000Y-98370000D03*
%TO.P,J2,9,Pin_9*%
%TO.N,PC0*%
X129540000Y-100910000D03*
%TO.P,J2,10,Pin_10*%
%TO.N,PC1*%
X129540000Y-103450000D03*
%TO.P,J2,11,Pin_11*%
%TO.N,PC2*%
X129540000Y-105990000D03*
%TO.P,J2,12,Pin_12*%
%TO.N,PC3*%
X129540000Y-108530000D03*
%TO.P,J2,13,Pin_13*%
%TO.N,PA0*%
X129540000Y-111070000D03*
%TO.P,J2,14,Pin_14*%
%TO.N,PA1*%
X129540000Y-113610000D03*
%TO.P,J2,15,Pin_15*%
%TO.N,PA2*%
X129540000Y-116150000D03*
%TO.P,J2,16,Pin_16*%
%TO.N,PA3*%
X129540000Y-118690000D03*
%TO.P,J2,17,Pin_17*%
%TO.N,RESET*%
X129540000Y-121230000D03*
%TO.P,J2,18,Pin_18*%
%TO.N,VCC3V3*%
X129540000Y-123770000D03*
%TO.P,J2,19,Pin_19*%
%TO.N,GND*%
X129540000Y-126310000D03*
%TO.P,J2,20,Pin_20*%
X129540000Y-128850000D03*
%TD*%
D20*
%TO.P,C12,1*%
%TO.N,GND*%
X154532500Y-106680000D03*
%TO.P,C12,2*%
%TO.N,OSC32_OUT*%
X152807500Y-106680000D03*
%TD*%
D21*
%TO.P,C5,1*%
%TO.N,GND*%
X155347500Y-132080000D03*
%TO.P,C5,2*%
%TO.N,Net-(IC2-3V3OUT)*%
X157072500Y-132080000D03*
%TD*%
D20*
%TO.P,C1,1*%
%TO.N,GND*%
X157072500Y-135255000D03*
%TO.P,C1,2*%
%TO.N,VCC3V3*%
X155347500Y-135255000D03*
%TD*%
D22*
%TO.P,Y2,1,1*%
%TO.N,OSC32_IN*%
X148315000Y-99525000D03*
%TO.P,Y2,2,2*%
%TO.N,GND*%
X153945000Y-99525000D03*
%TO.P,Y2,3,3*%
X153945000Y-103675000D03*
%TO.P,Y2,4,4*%
%TO.N,OSC32_OUT*%
X148315000Y-103675000D03*
%TD*%
D20*
%TO.P,C11,1*%
%TO.N,GND*%
X154532500Y-96520000D03*
%TO.P,C11,2*%
%TO.N,OSC32_IN*%
X152807500Y-96520000D03*
%TD*%
D23*
%TO.N,VCC3V3*%
X155575000Y-137160000D03*
%TO.N,RESET*%
X153670000Y-135890000D03*
%TO.N,OSC_IN*%
X139210270Y-106635353D03*
X140970000Y-100910000D03*
%TO.N,OSC_OUT*%
X142240000Y-102180000D03*
X142240000Y-111070000D03*
%TO.N,OSC32_IN*%
X147320000Y-95250000D03*
X142240000Y-82550000D03*
X139700000Y-83820000D03*
X152400000Y-92710000D03*
X134345500Y-102870000D03*
%TO.N,OSC32_OUT*%
X149860000Y-101600000D03*
X139700000Y-92964000D03*
X142240000Y-97790000D03*
X133350000Y-101600000D03*
X144780000Y-100330000D03*
%TO.N,PA4*%
X142240000Y-123190000D03*
X145805012Y-123181153D03*
%TO.N,PA12*%
X157480000Y-96520000D03*
%TO.N,PA11*%
X157480000Y-97790000D03*
%TO.N,JNTRST*%
X144780000Y-103450000D03*
%TO.N,JTDI*%
X139700000Y-76780000D03*
X149860000Y-105990000D03*
%TO.N,JTMS{slash}SWDIO*%
X148590000Y-93980000D03*
X152434073Y-104953220D03*
X151854500Y-93980000D03*
%TO.N,JTCK{slash}SWCLK*%
X151130000Y-105990000D03*
%TO.N,JTDO*%
X143510000Y-84400000D03*
X144546054Y-79865958D03*
X146050000Y-103450000D03*
X147320000Y-81860000D03*
%TO.N,PA5*%
X143510000Y-121920000D03*
%TO.N,PA6*%
X144780000Y-121920000D03*
%TO.N,PB11*%
X147042557Y-122132652D03*
%TO.N,PB10*%
X147197652Y-123312348D03*
%TO.N,PB1*%
X144929500Y-120920497D03*
%TO.N,BOOT0*%
X143510000Y-109800000D03*
X132080000Y-124509500D03*
%TO.N,RESET*%
X143510000Y-103450000D03*
X137160000Y-112340000D03*
X154940000Y-85670000D03*
X132842000Y-122555000D03*
%TO.N,GND*%
X142240000Y-131445000D03*
X142205000Y-117475000D03*
X142218369Y-113562009D03*
X149860000Y-96520000D03*
X154940000Y-118690000D03*
X150241000Y-132080000D03*
X153670000Y-132080000D03*
X154109124Y-109595109D03*
X133959600Y-119811800D03*
X150215600Y-119253000D03*
X135722701Y-97957299D03*
%TO.N,5V*%
X143510000Y-131953000D03*
X156210000Y-118690000D03*
X156210000Y-125040000D03*
X158025500Y-130048000D03*
X148590000Y-131699000D03*
%TO.N,VCC3V3*%
X144221200Y-115620800D03*
X143510000Y-117475000D03*
X137464800Y-103886000D03*
X150723600Y-107543600D03*
X151257000Y-118999000D03*
%TO.N,VBAT*%
X138430000Y-85852000D03*
X138430000Y-107260000D03*
%TO.N,USBDP*%
X157608396Y-133858000D03*
X144526000Y-123952000D03*
%TO.N,USBDM*%
X145288000Y-124968000D03*
%TO.N,PA10{slash}USART1_RX*%
X148590000Y-113030000D03*
%TO.N,PA9{slash}USART1_TX*%
X148590000Y-114300000D03*
%TD*%
D24*
%TO.N,VCC3V3*%
X155347500Y-136932500D02*
X155575000Y-137160000D01*
X155347500Y-135255000D02*
X155347500Y-136932500D01*
%TO.N,RESET*%
X155328250Y-129396445D02*
X155328250Y-127927000D01*
X152945000Y-131779695D02*
X155328250Y-129396445D01*
X152945000Y-135165000D02*
X152945000Y-131779695D01*
X153670000Y-135890000D02*
X152945000Y-135165000D01*
%TO.N,VCC3V3*%
X152400000Y-135645305D02*
X152400000Y-131355250D01*
X153369695Y-136615000D02*
X152400000Y-135645305D01*
X153987500Y-136615000D02*
X153369695Y-136615000D01*
X152400000Y-131355250D02*
X154678250Y-129077000D01*
X155347500Y-135255000D02*
X153987500Y-136615000D01*
X154678250Y-129077000D02*
X154678250Y-127927000D01*
%TO.N,GND*%
X155347500Y-132080000D02*
X153670000Y-132080000D01*
X155945000Y-129805000D02*
X153670000Y-132080000D01*
X155945000Y-128035000D02*
X155945000Y-129805000D01*
X153895000Y-131855000D02*
X153670000Y-132080000D01*
X151428250Y-129077000D02*
X151428250Y-127927000D01*
X153565250Y-129540000D02*
X151891250Y-129540000D01*
X151891250Y-129540000D02*
X151428250Y-129077000D01*
X154028250Y-129077000D02*
X153565250Y-129540000D01*
X154028250Y-127927000D02*
X154028250Y-129077000D01*
%TO.N,USBDP*%
X157226000Y-129692604D02*
X157928250Y-128990354D01*
X157608396Y-133858000D02*
X157935000Y-133531396D01*
X157226000Y-130893924D02*
X157226000Y-129692604D01*
X157935000Y-131602924D02*
X157226000Y-130893924D01*
X157935000Y-133531396D02*
X157935000Y-131602924D01*
X157928250Y-128990354D02*
X157928250Y-127889000D01*
%TO.N,GND*%
X150778250Y-127927000D02*
X151428250Y-127927000D01*
%TO.N,OSC_IN*%
X139210270Y-106635353D02*
X139700000Y-106145623D01*
X139700000Y-106145623D02*
X139700000Y-102180000D01*
X139700000Y-102180000D02*
X140970000Y-100910000D01*
%TO.N,OSC_OUT*%
X140970000Y-103450000D02*
X140970000Y-109800000D01*
X140970000Y-109800000D02*
X142240000Y-111070000D01*
X142240000Y-102180000D02*
X140970000Y-103450000D01*
%TO.N,OSC32_IN*%
X146870000Y-85910000D02*
X143510000Y-82550000D01*
X147320000Y-95250000D02*
X148315000Y-96245000D01*
X138975000Y-83095000D02*
X137885000Y-83095000D01*
X152400000Y-92710000D02*
X152807500Y-93117500D01*
X143510000Y-82550000D02*
X142240000Y-82550000D01*
X148315000Y-96245000D02*
X148315000Y-99525000D01*
X137885000Y-83095000D02*
X134345500Y-86634500D01*
X152807500Y-93117500D02*
X152807500Y-96520000D01*
X147320000Y-95250000D02*
X146870000Y-94800000D01*
X134345500Y-86634500D02*
X134345500Y-102870000D01*
X139700000Y-83820000D02*
X138975000Y-83095000D01*
X146870000Y-94800000D02*
X146870000Y-85910000D01*
%TO.N,OSC32_OUT*%
X133350000Y-86993604D02*
X133350000Y-101600000D01*
X149860000Y-102130000D02*
X149860000Y-101600000D01*
X137793604Y-82550000D02*
X133350000Y-86993604D01*
X148625000Y-106715000D02*
X148315000Y-106405000D01*
X139455305Y-82550000D02*
X137793604Y-82550000D01*
X148315000Y-103675000D02*
X149860000Y-102130000D01*
X142240000Y-97790000D02*
X144780000Y-100330000D01*
X140520000Y-92144000D02*
X140520000Y-83614695D01*
X152807500Y-106680000D02*
X152772500Y-106715000D01*
X140520000Y-83614695D02*
X139455305Y-82550000D01*
X139700000Y-92964000D02*
X140520000Y-92144000D01*
X152772500Y-106715000D02*
X148625000Y-106715000D01*
X148315000Y-106405000D02*
X148315000Y-103675000D01*
%TO.N,PA4*%
X145805012Y-123181153D02*
X145796165Y-123190000D01*
X145796165Y-123190000D02*
X142240000Y-123190000D01*
%TO.N,PA12*%
X151600000Y-122740000D02*
X159200000Y-122740000D01*
X160020000Y-96520000D02*
X157480000Y-96520000D01*
X160020000Y-121920000D02*
X160020000Y-96520000D01*
X159200000Y-122740000D02*
X160020000Y-121920000D01*
X150745000Y-120885000D02*
X150745000Y-121885000D01*
X150745000Y-121885000D02*
X151600000Y-122740000D01*
%TO.N,PA11*%
X157480000Y-118445305D02*
X157480000Y-97790000D01*
X156175000Y-119415000D02*
X156510305Y-119415000D01*
X155945000Y-120885000D02*
X155945000Y-119645000D01*
X156510305Y-119415000D02*
X157480000Y-118445305D01*
X155945000Y-119645000D02*
X156175000Y-119415000D01*
%TO.N,JNTRST*%
X140970000Y-80590000D02*
X131445000Y-71065000D01*
X131445000Y-64135000D02*
X151765000Y-64135000D01*
X144780000Y-103450000D02*
X140970000Y-99640000D01*
X151765000Y-64135000D02*
X154305000Y-66675000D01*
X140970000Y-99640000D02*
X140970000Y-80590000D01*
X131445000Y-71065000D02*
X131445000Y-64135000D01*
%TO.N,JTDI*%
X150680000Y-87760000D02*
X150680000Y-105170000D01*
X139700000Y-76780000D02*
X150680000Y-87760000D01*
X150680000Y-105170000D02*
X149860000Y-105990000D01*
%TO.N,JTMS{slash}SWDIO*%
X137890000Y-66188299D02*
X139028299Y-65050000D01*
X151580000Y-94254500D02*
X151854500Y-93980000D01*
X147320000Y-85425305D02*
X137890000Y-75995305D01*
X139028299Y-65050000D02*
X147600000Y-65050000D01*
X152434073Y-104953220D02*
X151580000Y-104099147D01*
X147320000Y-92710000D02*
X147320000Y-85425305D01*
X137890000Y-75995305D02*
X137890000Y-66188299D01*
X147600000Y-65050000D02*
X149225000Y-66675000D01*
X148590000Y-93980000D02*
X147320000Y-92710000D01*
X151580000Y-104099147D02*
X151580000Y-94254500D01*
%TO.N,JTCK{slash}SWCLK*%
X145320000Y-77320000D02*
X145320000Y-68040000D01*
X151130000Y-83130000D02*
X145320000Y-77320000D01*
X145320000Y-68040000D02*
X146685000Y-66675000D01*
X151130000Y-83130000D02*
X151130000Y-105990000D01*
%TO.N,JTDO*%
X145325958Y-79865958D02*
X147320000Y-81860000D01*
X146050000Y-86940000D02*
X146050000Y-103450000D01*
X143510000Y-84400000D02*
X146050000Y-86940000D01*
X144546054Y-79865958D02*
X145325958Y-79865958D01*
%TO.N,PA5*%
X130810000Y-119323604D02*
X130810000Y-97100000D01*
X135117208Y-121920000D02*
X135117208Y-124934493D01*
X135117208Y-124934493D02*
X132566701Y-127485000D01*
X129053299Y-120055000D02*
X130078604Y-120055000D01*
X129053299Y-122405000D02*
X128365000Y-121716701D01*
X130078604Y-120055000D02*
X130810000Y-119323604D01*
X128365000Y-121716701D02*
X128365000Y-120743299D01*
X130715000Y-126606701D02*
X130715000Y-123093299D01*
X130715000Y-123093299D02*
X130026701Y-122405000D01*
X132566701Y-127485000D02*
X131593299Y-127485000D01*
X130810000Y-97100000D02*
X129540000Y-95830000D01*
X131593299Y-127485000D02*
X130715000Y-126606701D01*
X143510000Y-121920000D02*
X135117208Y-121920000D01*
X128365000Y-120743299D02*
X129053299Y-120055000D01*
X130026701Y-122405000D02*
X129053299Y-122405000D01*
%TO.N,PA6*%
X135567208Y-122370000D02*
X135567208Y-125120889D01*
X135567208Y-125120889D02*
X132753097Y-127935000D01*
X132753097Y-127935000D02*
X130476701Y-127935000D01*
X130476701Y-127935000D02*
X130026701Y-127485000D01*
X127915000Y-99995000D02*
X129540000Y-98370000D01*
X144055000Y-122645000D02*
X143209695Y-122645000D01*
X143209695Y-122645000D02*
X142934695Y-122370000D01*
X142934695Y-122370000D02*
X135567208Y-122370000D01*
X130026701Y-127485000D02*
X129053299Y-127485000D01*
X144780000Y-121920000D02*
X144055000Y-122645000D01*
X127915000Y-126346701D02*
X127915000Y-99995000D01*
X129053299Y-127485000D02*
X127915000Y-126346701D01*
%TO.N,PB11*%
X147532652Y-122132652D02*
X147574000Y-122174000D01*
X147042557Y-122132652D02*
X147532652Y-122132652D01*
X147574000Y-122174000D02*
X147574000Y-122174000D01*
X148679905Y-123770000D02*
X161290000Y-123770000D01*
X147042557Y-122132652D02*
X148679905Y-123770000D01*
%TO.N,PB10*%
X159295000Y-124315000D02*
X161290000Y-126310000D01*
X148200304Y-124315000D02*
X159295000Y-124315000D01*
X147197652Y-123312348D02*
X148200304Y-124315000D01*
%TO.N,PB1*%
X161776701Y-122595000D02*
X162465000Y-123283299D01*
X162465000Y-127675000D02*
X161290000Y-128850000D01*
X160208299Y-123190000D02*
X160803299Y-122595000D01*
X148928250Y-122052500D02*
X150065750Y-123190000D01*
X162465000Y-123283299D02*
X162465000Y-127675000D01*
X160803299Y-122595000D02*
X161776701Y-122595000D01*
X150065750Y-123190000D02*
X160208299Y-123190000D01*
X148928250Y-120979646D02*
X148928250Y-122052500D01*
X148869101Y-120920497D02*
X148928250Y-120979646D01*
X144929500Y-120920497D02*
X148869101Y-120920497D01*
%TO.N,BOOT0*%
X143360305Y-112245000D02*
X144235000Y-111370305D01*
X132080000Y-119960000D02*
X139795000Y-112245000D01*
X139795000Y-112245000D02*
X143360305Y-112245000D01*
X144235000Y-110525000D02*
X143510000Y-109800000D01*
X144235000Y-111370305D02*
X144235000Y-110525000D01*
X132080000Y-124509500D02*
X132080000Y-119960000D01*
%TO.N,Net-(IC2-3V3OUT)*%
X156628250Y-131635750D02*
X157072500Y-132080000D01*
X156628250Y-127889000D02*
X156628250Y-131635750D01*
%TO.N,RESET*%
X132805000Y-126610305D02*
X132380305Y-127035000D01*
X147860000Y-66188299D02*
X147171701Y-65500000D01*
X154940000Y-85670000D02*
X147860000Y-78590000D01*
X132380305Y-127035000D02*
X131779695Y-127035000D01*
X143510000Y-103450000D02*
X144780000Y-104720000D01*
X140240000Y-65500000D02*
X139065000Y-66675000D01*
X132805000Y-119871396D02*
X132805000Y-126610305D01*
X131355000Y-116091800D02*
X135106800Y-112340000D01*
X147860000Y-78590000D02*
X147860000Y-66188299D01*
X143845000Y-112695000D02*
X139981396Y-112695000D01*
X144780000Y-111760000D02*
X143845000Y-112695000D01*
X139981396Y-112695000D02*
X132805000Y-119871396D01*
X131779695Y-127035000D02*
X131355000Y-126610305D01*
X131355000Y-126610305D02*
X131355000Y-116091800D01*
X135106800Y-112340000D02*
X137160000Y-112340000D01*
X147171701Y-65500000D02*
X140240000Y-65500000D01*
X144780000Y-104720000D02*
X144780000Y-111760000D01*
%TO.N,GND*%
X155760000Y-116600000D02*
X154940000Y-117420000D01*
X153345000Y-120885000D02*
X153345000Y-119705000D01*
X154109124Y-107510876D02*
X154532500Y-107087500D01*
X150241000Y-132080000D02*
X148902000Y-130741000D01*
X154532500Y-107087500D02*
X154532500Y-106680000D01*
X161290000Y-83130000D02*
X155760000Y-88660000D01*
X153945000Y-97107500D02*
X153945000Y-99525000D01*
X155760000Y-88660000D02*
X155760000Y-116600000D01*
X148902000Y-130741000D02*
X142944000Y-130741000D01*
X153945000Y-103675000D02*
X153945000Y-99525000D01*
X142944000Y-130741000D02*
X142240000Y-131445000D01*
X153945000Y-106092500D02*
X154532500Y-106680000D01*
X154532500Y-96520000D02*
X153945000Y-97107500D01*
X154940000Y-117420000D02*
X154940000Y-118690000D01*
X142205000Y-117475000D02*
X142218369Y-117461631D01*
X154360000Y-118690000D02*
X154940000Y-118690000D01*
X154109124Y-109595109D02*
X154109124Y-107510876D01*
X153345000Y-119705000D02*
X154360000Y-118690000D01*
X153945000Y-103675000D02*
X153945000Y-106092500D01*
%TO.N,5V*%
X148082000Y-131191000D02*
X148590000Y-131699000D01*
X144272000Y-131191000D02*
X148082000Y-131191000D01*
X143510000Y-131953000D02*
X144272000Y-131191000D01*
X156210000Y-90750000D02*
X156210000Y-118690000D01*
X156790000Y-125040000D02*
X156210000Y-125040000D01*
X158025500Y-130048000D02*
X158025500Y-129529500D01*
X161290000Y-85670000D02*
X156210000Y-90750000D01*
X158025500Y-129529500D02*
X158750000Y-128805000D01*
X158750000Y-127000000D02*
X156790000Y-125040000D01*
X158750000Y-128805000D02*
X158750000Y-127000000D01*
%TO.N,VCC3V3*%
X151257000Y-118999000D02*
X151428250Y-119170250D01*
X151428250Y-119170250D02*
X151428250Y-120865000D01*
%TO.N,VBAT*%
X138430000Y-85852000D02*
X138430000Y-107260000D01*
%TO.N,USBDP*%
X146439695Y-123915000D02*
X148289695Y-125765000D01*
X156735000Y-125765000D02*
X157895000Y-126925000D01*
X145505000Y-123915000D02*
X146439695Y-123915000D01*
X148289695Y-125765000D02*
X156735000Y-125765000D01*
X157895000Y-126925000D02*
X157895000Y-128035000D01*
X144526000Y-123952000D02*
X145468000Y-123952000D01*
X145468000Y-123952000D02*
X145505000Y-123915000D01*
%TO.N,USBDM*%
X148103299Y-126215000D02*
X146798299Y-124910000D01*
X146798299Y-124910000D02*
X145346000Y-124910000D01*
X145346000Y-124910000D02*
X145288000Y-124968000D01*
X157278250Y-126944646D02*
X156548604Y-126215000D01*
X157278250Y-127889000D02*
X157278250Y-126944646D01*
X156548604Y-126215000D02*
X148103299Y-126215000D01*
%TO.N,PA10{slash}USART1_RX*%
X146595000Y-118010000D02*
X146595000Y-115025000D01*
X146595000Y-115025000D02*
X148590000Y-113030000D01*
X149445000Y-120860000D02*
X146595000Y-118010000D01*
%TO.N,PA9{slash}USART1_TX*%
X152078250Y-118794945D02*
X151564000Y-118280695D01*
X152078250Y-120865000D02*
X152078250Y-118794945D01*
X151564000Y-117274000D02*
X148590000Y-114300000D01*
X151564000Y-118280695D02*
X151564000Y-117274000D01*
%TD*%
%TA.AperFunction,Conductor*%
%TO.N,GND*%
G36*
X155922084Y-129789716D02*
G01*
X155978017Y-129831588D01*
X156002434Y-129897052D01*
X156002750Y-129905898D01*
X156002750Y-131011561D01*
X155983065Y-131078600D01*
X155930261Y-131124355D01*
X155861103Y-131134299D01*
X155839747Y-131129267D01*
X155797653Y-131115319D01*
X155696654Y-131105000D01*
X155597500Y-131105000D01*
X155597500Y-133054999D01*
X155696640Y-133054999D01*
X155696654Y-133054998D01*
X155797652Y-133044680D01*
X155961300Y-132990453D01*
X155961311Y-132990448D01*
X156108035Y-132899947D01*
X156121960Y-132886021D01*
X156183282Y-132852533D01*
X156252973Y-132857514D01*
X156297327Y-132886017D01*
X156311650Y-132900340D01*
X156458484Y-132990908D01*
X156622247Y-133045174D01*
X156723323Y-133055500D01*
X156840720Y-133055499D01*
X156907758Y-133075183D01*
X156953513Y-133127987D01*
X156963457Y-133197145D01*
X156934433Y-133260701D01*
X156932870Y-133262470D01*
X156875862Y-133325785D01*
X156781217Y-133489715D01*
X156781214Y-133489722D01*
X156747657Y-133593002D01*
X156722722Y-133669744D01*
X156702936Y-133858000D01*
X156722722Y-134046256D01*
X156722723Y-134046259D01*
X156748790Y-134126486D01*
X156750785Y-134196327D01*
X156714704Y-134256160D01*
X156652003Y-134286988D01*
X156643462Y-134288162D01*
X156622347Y-134290319D01*
X156458699Y-134344546D01*
X156458688Y-134344551D01*
X156311965Y-134435052D01*
X156298032Y-134448985D01*
X156236708Y-134482468D01*
X156167016Y-134477482D01*
X156122672Y-134448982D01*
X156108351Y-134434661D01*
X156108350Y-134434660D01*
X156017129Y-134378395D01*
X155961518Y-134344093D01*
X155961513Y-134344091D01*
X155960069Y-134343612D01*
X155797753Y-134289826D01*
X155797751Y-134289825D01*
X155696678Y-134279500D01*
X154998330Y-134279500D01*
X154998312Y-134279501D01*
X154897247Y-134289825D01*
X154733484Y-134344092D01*
X154733481Y-134344093D01*
X154586648Y-134434661D01*
X154464661Y-134556648D01*
X154374093Y-134703481D01*
X154374091Y-134703486D01*
X154368247Y-134721122D01*
X154319826Y-134867247D01*
X154319826Y-134867248D01*
X154319825Y-134867248D01*
X154309500Y-134968315D01*
X154309500Y-134998906D01*
X154289815Y-135065945D01*
X154237011Y-135111700D01*
X154167853Y-135121644D01*
X154128823Y-135108138D01*
X154128666Y-135108492D01*
X154124551Y-135106659D01*
X154123511Y-135106300D01*
X154122729Y-135105848D01*
X153949807Y-135028857D01*
X153949802Y-135028855D01*
X153804001Y-134997865D01*
X153764646Y-134989500D01*
X153764645Y-134989500D01*
X153705452Y-134989500D01*
X153638413Y-134969815D01*
X153617771Y-134953181D01*
X153606819Y-134942229D01*
X153573334Y-134880906D01*
X153570500Y-134854548D01*
X153570500Y-132330000D01*
X154310001Y-132330000D01*
X154310001Y-132366654D01*
X154320319Y-132467652D01*
X154374546Y-132631300D01*
X154374551Y-132631311D01*
X154465052Y-132778034D01*
X154465055Y-132778038D01*
X154586961Y-132899944D01*
X154586965Y-132899947D01*
X154733688Y-132990448D01*
X154733699Y-132990453D01*
X154897347Y-133044680D01*
X154998351Y-133054999D01*
X155097500Y-133054998D01*
X155097500Y-132330000D01*
X154310001Y-132330000D01*
X153570500Y-132330000D01*
X153570500Y-132090147D01*
X153590185Y-132023108D01*
X153606819Y-132002466D01*
X154150272Y-131459013D01*
X154211595Y-131425528D01*
X154281287Y-131430512D01*
X154337220Y-131472384D01*
X154361637Y-131537848D01*
X154355659Y-131585698D01*
X154320319Y-131692347D01*
X154310000Y-131793345D01*
X154310000Y-131830000D01*
X155097500Y-131830000D01*
X155097500Y-131104999D01*
X154998360Y-131105000D01*
X154998344Y-131105001D01*
X154897346Y-131115319D01*
X154790698Y-131150658D01*
X154720870Y-131153059D01*
X154660828Y-131117327D01*
X154629636Y-131054807D01*
X154637197Y-130985347D01*
X154664014Y-130945271D01*
X154694435Y-130914851D01*
X155791069Y-129818217D01*
X155852392Y-129784732D01*
X155922084Y-129789716D01*
G37*
%TD.AperFunction*%
%TA.AperFunction,Conductor*%
G36*
X129733039Y-128130185D02*
G01*
X129778794Y-128182989D01*
X129790000Y-128234500D01*
X129790000Y-128416988D01*
X129732993Y-128384075D01*
X129605826Y-128350000D01*
X129474174Y-128350000D01*
X129347007Y-128384075D01*
X129290000Y-128416988D01*
X129290000Y-128234500D01*
X129309685Y-128167461D01*
X129362489Y-128121706D01*
X129414000Y-128110500D01*
X129666000Y-128110500D01*
X129733039Y-128130185D01*
G37*
%TD.AperFunction*%
%TA.AperFunction,Conductor*%
G36*
X151295789Y-127721685D02*
G01*
X151341544Y-127774489D01*
X151352750Y-127826000D01*
X151352750Y-128028000D01*
X151333065Y-128095039D01*
X151280261Y-128140794D01*
X151228750Y-128152000D01*
X150977749Y-128152000D01*
X150910710Y-128132315D01*
X150864955Y-128079511D01*
X150853749Y-128028002D01*
X150853749Y-127825998D01*
X150873434Y-127758961D01*
X150926238Y-127713206D01*
X150977749Y-127702000D01*
X151228750Y-127702000D01*
X151295789Y-127721685D01*
G37*
%TD.AperFunction*%
%TA.AperFunction,Conductor*%
G36*
X129347007Y-126775925D02*
G01*
X129474174Y-126810000D01*
X129605826Y-126810000D01*
X129732993Y-126775925D01*
X129787343Y-126744545D01*
X129770315Y-126802539D01*
X129717511Y-126848294D01*
X129666000Y-126859500D01*
X129414000Y-126859500D01*
X129346961Y-126839815D01*
X129301206Y-126787011D01*
X129291868Y-126744091D01*
X129347007Y-126775925D01*
G37*
%TD.AperFunction*%
%TA.AperFunction,Conductor*%
G36*
X147052151Y-103798514D02*
G01*
X147092680Y-103855428D01*
X147099500Y-103895985D01*
X147099500Y-105147870D01*
X147099501Y-105147876D01*
X147105908Y-105207483D01*
X147156202Y-105342328D01*
X147156206Y-105342335D01*
X147242452Y-105457544D01*
X147242455Y-105457547D01*
X147357664Y-105543793D01*
X147357671Y-105543797D01*
X147402618Y-105560561D01*
X147492517Y-105594091D01*
X147552127Y-105600500D01*
X147565496Y-105600499D01*
X147632533Y-105620180D01*
X147678291Y-105672981D01*
X147689500Y-105724499D01*
X147689500Y-106466606D01*
X147708338Y-106561312D01*
X147713537Y-106587450D01*
X147713539Y-106587458D01*
X147718821Y-106600210D01*
X147718823Y-106600212D01*
X147725556Y-106616468D01*
X147760687Y-106701285D01*
X147760688Y-106701286D01*
X147791292Y-106747086D01*
X147816412Y-106784682D01*
X147829143Y-106803735D01*
X147920586Y-106895178D01*
X147920608Y-106895198D01*
X148136016Y-107110606D01*
X148136045Y-107110637D01*
X148226263Y-107200855D01*
X148226267Y-107200858D01*
X148328707Y-107269307D01*
X148328713Y-107269310D01*
X148328714Y-107269311D01*
X148442548Y-107316463D01*
X148502971Y-107328481D01*
X148563393Y-107340500D01*
X148563394Y-107340500D01*
X149701771Y-107340500D01*
X149768810Y-107360185D01*
X149814565Y-107412989D01*
X149825091Y-107477459D01*
X149818140Y-107543600D01*
X149837926Y-107731856D01*
X149837927Y-107731859D01*
X149896418Y-107911877D01*
X149896421Y-107911884D01*
X149991067Y-108075816D01*
X150031879Y-108121142D01*
X150117729Y-108216488D01*
X150270865Y-108327748D01*
X150270870Y-108327751D01*
X150443792Y-108404742D01*
X150443797Y-108404744D01*
X150628954Y-108444100D01*
X150628955Y-108444100D01*
X150818244Y-108444100D01*
X150818246Y-108444100D01*
X151003403Y-108404744D01*
X151176330Y-108327751D01*
X151329471Y-108216488D01*
X151456133Y-108075816D01*
X151550779Y-107911884D01*
X151609274Y-107731856D01*
X151629060Y-107543600D01*
X151622108Y-107477459D01*
X151634677Y-107408732D01*
X151682409Y-107357708D01*
X151745429Y-107340500D01*
X151835448Y-107340500D01*
X151902487Y-107360185D01*
X151923129Y-107376819D01*
X151924660Y-107378350D01*
X152046650Y-107500340D01*
X152193484Y-107590908D01*
X152357247Y-107645174D01*
X152458323Y-107655500D01*
X153156676Y-107655499D01*
X153156684Y-107655498D01*
X153156687Y-107655498D01*
X153212030Y-107649844D01*
X153257753Y-107645174D01*
X153421516Y-107590908D01*
X153568350Y-107500340D01*
X153582671Y-107486018D01*
X153643989Y-107452533D01*
X153713681Y-107457514D01*
X153758034Y-107486017D01*
X153771961Y-107499944D01*
X153771965Y-107499947D01*
X153918688Y-107590448D01*
X153918699Y-107590453D01*
X154082347Y-107644680D01*
X154183351Y-107654999D01*
X154282500Y-107654998D01*
X154282500Y-106554000D01*
X154302185Y-106486961D01*
X154354989Y-106441206D01*
X154406500Y-106430000D01*
X154658500Y-106430000D01*
X154725539Y-106449685D01*
X154771294Y-106502489D01*
X154782500Y-106554000D01*
X154782500Y-107654999D01*
X154881640Y-107654999D01*
X154881654Y-107654998D01*
X154982652Y-107644680D01*
X155146300Y-107590453D01*
X155146311Y-107590448D01*
X155293034Y-107499947D01*
X155293038Y-107499944D01*
X155372819Y-107420164D01*
X155434142Y-107386679D01*
X155503834Y-107391663D01*
X155559767Y-107433535D01*
X155584184Y-107498999D01*
X155584500Y-107507845D01*
X155584500Y-117991312D01*
X155564815Y-118058351D01*
X155552650Y-118074284D01*
X155477466Y-118157784D01*
X155382821Y-118321715D01*
X155382818Y-118321722D01*
X155324327Y-118501740D01*
X155324326Y-118501744D01*
X155304540Y-118690000D01*
X155324326Y-118878256D01*
X155324327Y-118878259D01*
X155382818Y-119058277D01*
X155382820Y-119058281D01*
X155382821Y-119058284D01*
X155419917Y-119122537D01*
X155437868Y-119153629D01*
X155454339Y-119221529D01*
X155433590Y-119284507D01*
X155428952Y-119291450D01*
X155428943Y-119291463D01*
X155390690Y-119348710D01*
X155390682Y-119348725D01*
X155390168Y-119349967D01*
X155389725Y-119350516D01*
X155387816Y-119354088D01*
X155387138Y-119353725D01*
X155346320Y-119404365D01*
X155280023Y-119426422D01*
X155275614Y-119426500D01*
X155055381Y-119426500D01*
X155055369Y-119426501D01*
X155016503Y-119430679D01*
X154989998Y-119430679D01*
X154951124Y-119426500D01*
X154405380Y-119426500D01*
X154405369Y-119426501D01*
X154366503Y-119430679D01*
X154339998Y-119430679D01*
X154301124Y-119426500D01*
X153755382Y-119426500D01*
X153755367Y-119426501D01*
X153714154Y-119430931D01*
X153687652Y-119430931D01*
X153651084Y-119427000D01*
X153603250Y-119427000D01*
X153587638Y-119442611D01*
X153583565Y-119456485D01*
X153553563Y-119488710D01*
X153456460Y-119561402D01*
X153452561Y-119564321D01*
X153387096Y-119588738D01*
X153318823Y-119573886D01*
X153303939Y-119564321D01*
X153300040Y-119561402D01*
X153202937Y-119488711D01*
X153167138Y-119440888D01*
X153153250Y-119427000D01*
X153105415Y-119427000D01*
X153068848Y-119430931D01*
X153042342Y-119430931D01*
X153001125Y-119426500D01*
X153001123Y-119426500D01*
X152827750Y-119426500D01*
X152760711Y-119406815D01*
X152714956Y-119354011D01*
X152703750Y-119302500D01*
X152703750Y-118733338D01*
X152703749Y-118733334D01*
X152679713Y-118612493D01*
X152632561Y-118498659D01*
X152632560Y-118498658D01*
X152632557Y-118498652D01*
X152564109Y-118396213D01*
X152543396Y-118375500D01*
X152476983Y-118309087D01*
X152476982Y-118309086D01*
X152225819Y-118057923D01*
X152192334Y-117996600D01*
X152189500Y-117970242D01*
X152189500Y-117212393D01*
X152189499Y-117212389D01*
X152168480Y-117106716D01*
X152165463Y-117091548D01*
X152136407Y-117021401D01*
X152118312Y-116977714D01*
X152084084Y-116926490D01*
X152049858Y-116875267D01*
X152049856Y-116875264D01*
X151959637Y-116785045D01*
X151959606Y-116785016D01*
X149528960Y-114354370D01*
X149495475Y-114293047D01*
X149493323Y-114279671D01*
X149475674Y-114111744D01*
X149417179Y-113931716D01*
X149322533Y-113767784D01*
X149304693Y-113747971D01*
X149274464Y-113684981D01*
X149283089Y-113615646D01*
X149304694Y-113582028D01*
X149322533Y-113562216D01*
X149417179Y-113398284D01*
X149475674Y-113218256D01*
X149495460Y-113030000D01*
X149475674Y-112841744D01*
X149417179Y-112661716D01*
X149322533Y-112497784D01*
X149195871Y-112357112D01*
X149195870Y-112357111D01*
X149042734Y-112245851D01*
X149042729Y-112245848D01*
X148869807Y-112168857D01*
X148869802Y-112168855D01*
X148724001Y-112137865D01*
X148684646Y-112129500D01*
X148495354Y-112129500D01*
X148462897Y-112136398D01*
X148310197Y-112168855D01*
X148310192Y-112168857D01*
X148137270Y-112245848D01*
X148137265Y-112245851D01*
X147984129Y-112357111D01*
X147857466Y-112497785D01*
X147762821Y-112661715D01*
X147762818Y-112661722D01*
X147704327Y-112841740D01*
X147704326Y-112841744D01*
X147696405Y-112917105D01*
X147686678Y-113009651D01*
X147660093Y-113074266D01*
X147651038Y-113084370D01*
X146890006Y-113845403D01*
X146196270Y-114539139D01*
X146196267Y-114539142D01*
X146152705Y-114582703D01*
X146109144Y-114626264D01*
X146109142Y-114626267D01*
X146094290Y-114648495D01*
X146094289Y-114648497D01*
X146094288Y-114648496D01*
X146040689Y-114728712D01*
X146040685Y-114728719D01*
X146027872Y-114759655D01*
X146027872Y-114759656D01*
X145993538Y-114842545D01*
X145993535Y-114842555D01*
X145969500Y-114963389D01*
X145969500Y-118071611D01*
X145993535Y-118192444D01*
X145993540Y-118192461D01*
X146040685Y-118306281D01*
X146040690Y-118306290D01*
X146062688Y-118339211D01*
X146062689Y-118339212D01*
X146109140Y-118408731D01*
X146109141Y-118408732D01*
X146109142Y-118408733D01*
X146196267Y-118495858D01*
X146196268Y-118495858D01*
X146203335Y-118502925D01*
X146203334Y-118502925D01*
X146203338Y-118502928D01*
X147783725Y-120083316D01*
X147817210Y-120144639D01*
X147812226Y-120214331D01*
X147770354Y-120270264D01*
X147704890Y-120294681D01*
X147696044Y-120294997D01*
X145633248Y-120294997D01*
X145566209Y-120275312D01*
X145541100Y-120253971D01*
X145535373Y-120247611D01*
X145535369Y-120247607D01*
X145382234Y-120136348D01*
X145382229Y-120136345D01*
X145209307Y-120059354D01*
X145209302Y-120059352D01*
X145063501Y-120028362D01*
X145024146Y-120019997D01*
X144834854Y-120019997D01*
X144802397Y-120026895D01*
X144649697Y-120059352D01*
X144649692Y-120059354D01*
X144476770Y-120136345D01*
X144476765Y-120136348D01*
X144323629Y-120247608D01*
X144196966Y-120388282D01*
X144102321Y-120552212D01*
X144102318Y-120552219D01*
X144043827Y-120732237D01*
X144043826Y-120732241D01*
X144040242Y-120766344D01*
X144024040Y-120920497D01*
X144028345Y-120961461D01*
X144015775Y-121030191D01*
X143968042Y-121081214D01*
X143900301Y-121098331D01*
X143854588Y-121087700D01*
X143789807Y-121058857D01*
X143789802Y-121058855D01*
X143644001Y-121027865D01*
X143604646Y-121019500D01*
X143415354Y-121019500D01*
X143382897Y-121026398D01*
X143230197Y-121058855D01*
X143230192Y-121058857D01*
X143057270Y-121135848D01*
X143057265Y-121135851D01*
X142904130Y-121247110D01*
X142904126Y-121247114D01*
X142898400Y-121253474D01*
X142838913Y-121290121D01*
X142806252Y-121294500D01*
X135055597Y-121294500D01*
X134934763Y-121318535D01*
X134934753Y-121318538D01*
X134820924Y-121365687D01*
X134820915Y-121365692D01*
X134718475Y-121434141D01*
X134718471Y-121434144D01*
X134631352Y-121521263D01*
X134631349Y-121521267D01*
X134562900Y-121623707D01*
X134562895Y-121623716D01*
X134515746Y-121737545D01*
X134515743Y-121737555D01*
X134491708Y-121858389D01*
X134491708Y-124624040D01*
X134472023Y-124691079D01*
X134455389Y-124711721D01*
X133642181Y-125524929D01*
X133580858Y-125558414D01*
X133511166Y-125553430D01*
X133455233Y-125511558D01*
X133430816Y-125446094D01*
X133430500Y-125437248D01*
X133430500Y-123294779D01*
X133450185Y-123227740D01*
X133462350Y-123211807D01*
X133475878Y-123196783D01*
X133574533Y-123087216D01*
X133669179Y-122923284D01*
X133727674Y-122743256D01*
X133747460Y-122555000D01*
X133727674Y-122366744D01*
X133669179Y-122186716D01*
X133574533Y-122022784D01*
X133481986Y-121920000D01*
X133462350Y-121898192D01*
X133432120Y-121835201D01*
X133430500Y-121815220D01*
X133430500Y-120181848D01*
X133450185Y-120114809D01*
X133466819Y-120094167D01*
X136085986Y-117475000D01*
X142604540Y-117475000D01*
X142624326Y-117663256D01*
X142624327Y-117663259D01*
X142682818Y-117843277D01*
X142682821Y-117843284D01*
X142777467Y-118007216D01*
X142898465Y-118141598D01*
X142904129Y-118147888D01*
X143057265Y-118259148D01*
X143057270Y-118259151D01*
X143230192Y-118336142D01*
X143230197Y-118336144D01*
X143415354Y-118375500D01*
X143415355Y-118375500D01*
X143604644Y-118375500D01*
X143604646Y-118375500D01*
X143789803Y-118336144D01*
X143962730Y-118259151D01*
X144115871Y-118147888D01*
X144242533Y-118007216D01*
X144337179Y-117843284D01*
X144395674Y-117663256D01*
X144415460Y-117475000D01*
X144395674Y-117286744D01*
X144337179Y-117106716D01*
X144242533Y-116942784D01*
X144115871Y-116802112D01*
X144036579Y-116744503D01*
X143993915Y-116689174D01*
X143987936Y-116619561D01*
X144020542Y-116557766D01*
X144081381Y-116523408D01*
X144122440Y-116520867D01*
X144126552Y-116521299D01*
X144126554Y-116521300D01*
X144126556Y-116521300D01*
X144315844Y-116521300D01*
X144315846Y-116521300D01*
X144501003Y-116481944D01*
X144673930Y-116404951D01*
X144827071Y-116293688D01*
X144953733Y-116153016D01*
X145048379Y-115989084D01*
X145106874Y-115809056D01*
X145126660Y-115620800D01*
X145106874Y-115432544D01*
X145048379Y-115252516D01*
X144953733Y-115088584D01*
X144827071Y-114947912D01*
X144821037Y-114943528D01*
X144673934Y-114836651D01*
X144673929Y-114836648D01*
X144501007Y-114759657D01*
X144501002Y-114759655D01*
X144355201Y-114728665D01*
X144315846Y-114720300D01*
X144126554Y-114720300D01*
X144094097Y-114727198D01*
X143941397Y-114759655D01*
X143941392Y-114759657D01*
X143768470Y-114836648D01*
X143768465Y-114836651D01*
X143615329Y-114947911D01*
X143488666Y-115088585D01*
X143394021Y-115252515D01*
X143394018Y-115252522D01*
X143335527Y-115432540D01*
X143335526Y-115432544D01*
X143315740Y-115620800D01*
X143335526Y-115809056D01*
X143335527Y-115809059D01*
X143394018Y-115989077D01*
X143394021Y-115989084D01*
X143488667Y-116153016D01*
X143615329Y-116293688D01*
X143694618Y-116351295D01*
X143737284Y-116406625D01*
X143743263Y-116476238D01*
X143710657Y-116538033D01*
X143649819Y-116572390D01*
X143608770Y-116574934D01*
X143604650Y-116574501D01*
X143604646Y-116574500D01*
X143415354Y-116574500D01*
X143382897Y-116581398D01*
X143230197Y-116613855D01*
X143230192Y-116613857D01*
X143057270Y-116690848D01*
X143057265Y-116690851D01*
X142904129Y-116802111D01*
X142777466Y-116942785D01*
X142682821Y-117106715D01*
X142682818Y-117106722D01*
X142624327Y-117286740D01*
X142624326Y-117286744D01*
X142604540Y-117475000D01*
X136085986Y-117475000D01*
X140204168Y-113356819D01*
X140265491Y-113323334D01*
X140291849Y-113320500D01*
X143906607Y-113320500D01*
X143967029Y-113308481D01*
X144027452Y-113296463D01*
X144027455Y-113296461D01*
X144027458Y-113296461D01*
X144060787Y-113282654D01*
X144060786Y-113282654D01*
X144060792Y-113282652D01*
X144141286Y-113249312D01*
X144196451Y-113212451D01*
X144243733Y-113180858D01*
X144330858Y-113093733D01*
X144330858Y-113093731D01*
X144341066Y-113083524D01*
X144341067Y-113083521D01*
X145265858Y-112158733D01*
X145334312Y-112056285D01*
X145381463Y-111942451D01*
X145399028Y-111854147D01*
X145405501Y-111821608D01*
X145405501Y-111693283D01*
X145405500Y-111693257D01*
X145405500Y-104658394D01*
X145404812Y-104654937D01*
X145381463Y-104537549D01*
X145352130Y-104466734D01*
X145334311Y-104423714D01*
X145282083Y-104345549D01*
X145261205Y-104278871D01*
X145279690Y-104211491D01*
X145312296Y-104176342D01*
X145342117Y-104154676D01*
X145407921Y-104131198D01*
X145475975Y-104147023D01*
X145487871Y-104154668D01*
X145597266Y-104234148D01*
X145597270Y-104234151D01*
X145770192Y-104311142D01*
X145770197Y-104311144D01*
X145955354Y-104350500D01*
X145955355Y-104350500D01*
X146144644Y-104350500D01*
X146144646Y-104350500D01*
X146329803Y-104311144D01*
X146502730Y-104234151D01*
X146655871Y-104122888D01*
X146782533Y-103982216D01*
X146868115Y-103833982D01*
X146918679Y-103785770D01*
X146987286Y-103772546D01*
X147052151Y-103798514D01*
G37*
%TD.AperFunction*%
%TA.AperFunction,Conductor*%
G36*
X147808387Y-114798714D02*
G01*
X147857204Y-114831924D01*
X147984129Y-114972888D01*
X148137265Y-115084148D01*
X148137270Y-115084151D01*
X148310192Y-115161142D01*
X148310197Y-115161144D01*
X148495354Y-115200500D01*
X148554548Y-115200500D01*
X148621587Y-115220185D01*
X148642229Y-115236819D01*
X150902181Y-117496771D01*
X150935666Y-117558094D01*
X150938500Y-117584452D01*
X150938500Y-118074559D01*
X150918815Y-118141598D01*
X150866011Y-118187353D01*
X150864936Y-118187838D01*
X150804269Y-118214848D01*
X150651129Y-118326111D01*
X150524466Y-118466785D01*
X150429821Y-118630715D01*
X150429818Y-118630722D01*
X150393795Y-118741591D01*
X150371326Y-118810744D01*
X150351540Y-118999000D01*
X150371326Y-119187256D01*
X150371326Y-119187258D01*
X150371327Y-119187260D01*
X150396320Y-119264183D01*
X150398315Y-119334024D01*
X150362234Y-119393857D01*
X150299533Y-119424684D01*
X150278389Y-119426500D01*
X149855380Y-119426500D01*
X149855369Y-119426501D01*
X149816503Y-119430679D01*
X149789998Y-119430679D01*
X149751124Y-119426500D01*
X149205379Y-119426500D01*
X149205373Y-119426501D01*
X149145766Y-119432908D01*
X149043249Y-119471145D01*
X148973557Y-119476129D01*
X148912235Y-119442644D01*
X147256819Y-117787228D01*
X147223334Y-117725905D01*
X147220500Y-117699547D01*
X147220500Y-115335451D01*
X147240185Y-115268412D01*
X147256815Y-115247774D01*
X147677375Y-114827213D01*
X147738696Y-114793730D01*
X147808387Y-114798714D01*
G37*
%TD.AperFunction*%
%TA.AperFunction,Conductor*%
G36*
X155503834Y-97231663D02*
G01*
X155559767Y-97273535D01*
X155584184Y-97338999D01*
X155584500Y-97347845D01*
X155584500Y-105852155D01*
X155564815Y-105919194D01*
X155512011Y-105964949D01*
X155442853Y-105974893D01*
X155379297Y-105945868D01*
X155372819Y-105939836D01*
X155293038Y-105860055D01*
X155293034Y-105860052D01*
X155146311Y-105769551D01*
X155146300Y-105769546D01*
X154992955Y-105718733D01*
X154935510Y-105678960D01*
X154908687Y-105614445D01*
X154921002Y-105545669D01*
X154957649Y-105501760D01*
X155017189Y-105457188D01*
X155017190Y-105457187D01*
X155103350Y-105342093D01*
X155103354Y-105342086D01*
X155153596Y-105207379D01*
X155153598Y-105207372D01*
X155159999Y-105147844D01*
X155160000Y-105147827D01*
X155160000Y-103925000D01*
X152730000Y-103925000D01*
X152730000Y-103942376D01*
X152710315Y-104009415D01*
X152657511Y-104055170D01*
X152588353Y-104065114D01*
X152580221Y-104063667D01*
X152528719Y-104052720D01*
X152528716Y-104052720D01*
X152469525Y-104052720D01*
X152402486Y-104033035D01*
X152381849Y-104016405D01*
X152241817Y-103876373D01*
X152208334Y-103815052D01*
X152205500Y-103788694D01*
X152205500Y-103425000D01*
X152730000Y-103425000D01*
X153695000Y-103425000D01*
X153695000Y-101750000D01*
X154195000Y-101750000D01*
X154195000Y-103425000D01*
X155160000Y-103425000D01*
X155160000Y-102202172D01*
X155159999Y-102202155D01*
X155153598Y-102142627D01*
X155153596Y-102142620D01*
X155103354Y-102007913D01*
X155103350Y-102007906D01*
X155017190Y-101892812D01*
X155017187Y-101892809D01*
X154902093Y-101806649D01*
X154902086Y-101806645D01*
X154767379Y-101756403D01*
X154767372Y-101756401D01*
X154707844Y-101750000D01*
X154195000Y-101750000D01*
X153695000Y-101750000D01*
X153182155Y-101750000D01*
X153122627Y-101756401D01*
X153122620Y-101756403D01*
X152987913Y-101806645D01*
X152987906Y-101806649D01*
X152872812Y-101892809D01*
X152872809Y-101892812D01*
X152786649Y-102007906D01*
X152786645Y-102007913D01*
X152736403Y-102142620D01*
X152736401Y-102142627D01*
X152730000Y-102202155D01*
X152730000Y-103425000D01*
X152205500Y-103425000D01*
X152205500Y-99775000D01*
X152730000Y-99775000D01*
X152730000Y-100997844D01*
X152736401Y-101057372D01*
X152736403Y-101057379D01*
X152786645Y-101192086D01*
X152786649Y-101192093D01*
X152872809Y-101307187D01*
X152872812Y-101307190D01*
X152987906Y-101393350D01*
X152987913Y-101393354D01*
X153122620Y-101443596D01*
X153122627Y-101443598D01*
X153182155Y-101449999D01*
X153182172Y-101450000D01*
X153695000Y-101450000D01*
X153695000Y-99775000D01*
X154195000Y-99775000D01*
X154195000Y-101450000D01*
X154707828Y-101450000D01*
X154707844Y-101449999D01*
X154767372Y-101443598D01*
X154767379Y-101443596D01*
X154902086Y-101393354D01*
X154902093Y-101393350D01*
X155017187Y-101307190D01*
X155017190Y-101307187D01*
X155103350Y-101192093D01*
X155103354Y-101192086D01*
X155153596Y-101057379D01*
X155153598Y-101057372D01*
X155159999Y-100997844D01*
X155160000Y-100997827D01*
X155160000Y-99775000D01*
X154195000Y-99775000D01*
X153695000Y-99775000D01*
X152730000Y-99775000D01*
X152205500Y-99775000D01*
X152205500Y-97606043D01*
X152225185Y-97539004D01*
X152277989Y-97493249D01*
X152347147Y-97483305D01*
X152355469Y-97484793D01*
X152357241Y-97485172D01*
X152357247Y-97485174D01*
X152458323Y-97495500D01*
X152830620Y-97495499D01*
X152897658Y-97515183D01*
X152943413Y-97567987D01*
X152953357Y-97637146D01*
X152924332Y-97700701D01*
X152904932Y-97718764D01*
X152872811Y-97742810D01*
X152872809Y-97742812D01*
X152786649Y-97857906D01*
X152786645Y-97857913D01*
X152736403Y-97992620D01*
X152736401Y-97992627D01*
X152730000Y-98052155D01*
X152730000Y-99275000D01*
X155160000Y-99275000D01*
X155160000Y-98052172D01*
X155159999Y-98052155D01*
X155153598Y-97992627D01*
X155153596Y-97992620D01*
X155103354Y-97857913D01*
X155103350Y-97857906D01*
X155017190Y-97742812D01*
X155017187Y-97742809D01*
X154957648Y-97698238D01*
X154915777Y-97642305D01*
X154910793Y-97572613D01*
X154944279Y-97511290D01*
X154992956Y-97481266D01*
X155146298Y-97430454D01*
X155146311Y-97430448D01*
X155293034Y-97339947D01*
X155293038Y-97339944D01*
X155372819Y-97260164D01*
X155434142Y-97226679D01*
X155503834Y-97231663D01*
G37*
%TD.AperFunction*%
%TA.AperFunction,Conductor*%
G36*
X148150703Y-86115739D02*
G01*
X148157181Y-86121771D01*
X150018181Y-87982771D01*
X150051666Y-88044094D01*
X150054500Y-88070452D01*
X150054500Y-100575500D01*
X150034815Y-100642539D01*
X149982011Y-100688294D01*
X149930500Y-100699500D01*
X149765354Y-100699500D01*
X149707986Y-100711693D01*
X149680278Y-100717583D01*
X149610611Y-100712266D01*
X149554878Y-100670128D01*
X149530774Y-100604548D01*
X149530499Y-100596292D01*
X149530499Y-98052129D01*
X149530498Y-98052123D01*
X149530497Y-98052116D01*
X149524091Y-97992517D01*
X149491947Y-97906335D01*
X149473797Y-97857671D01*
X149473793Y-97857664D01*
X149387547Y-97742455D01*
X149387544Y-97742452D01*
X149272335Y-97656206D01*
X149272328Y-97656202D01*
X149137482Y-97605908D01*
X149137483Y-97605908D01*
X149077883Y-97599501D01*
X149077881Y-97599500D01*
X149077873Y-97599500D01*
X149077865Y-97599500D01*
X149064500Y-97599500D01*
X148997461Y-97579815D01*
X148951706Y-97527011D01*
X148940500Y-97475500D01*
X148940500Y-96183393D01*
X148940499Y-96183389D01*
X148931508Y-96138185D01*
X148916463Y-96062548D01*
X148869311Y-95948714D01*
X148869310Y-95948713D01*
X148869307Y-95948707D01*
X148800859Y-95846268D01*
X148759540Y-95804949D01*
X148713733Y-95759142D01*
X148713732Y-95759141D01*
X148258960Y-95304369D01*
X148225475Y-95243046D01*
X148223323Y-95229668D01*
X148205674Y-95061744D01*
X148187292Y-95005173D01*
X148185298Y-94935335D01*
X148221378Y-94875502D01*
X148284078Y-94844673D01*
X148331005Y-94845567D01*
X148401774Y-94860609D01*
X148495354Y-94880500D01*
X148495355Y-94880500D01*
X148684644Y-94880500D01*
X148684646Y-94880500D01*
X148869803Y-94841144D01*
X149042730Y-94764151D01*
X149195871Y-94652888D01*
X149322533Y-94512216D01*
X149417179Y-94348284D01*
X149475674Y-94168256D01*
X149495460Y-93980000D01*
X149475674Y-93791744D01*
X149417179Y-93611716D01*
X149322533Y-93447784D01*
X149195871Y-93307112D01*
X149195870Y-93307111D01*
X149042734Y-93195851D01*
X149042729Y-93195848D01*
X148869807Y-93118857D01*
X148869802Y-93118855D01*
X148724001Y-93087865D01*
X148684646Y-93079500D01*
X148684645Y-93079500D01*
X148625452Y-93079500D01*
X148558413Y-93059815D01*
X148537771Y-93043181D01*
X147981819Y-92487229D01*
X147948334Y-92425906D01*
X147945500Y-92399548D01*
X147945500Y-86209452D01*
X147965185Y-86142413D01*
X148017989Y-86096658D01*
X148087147Y-86086714D01*
X148150703Y-86115739D01*
G37*
%TD.AperFunction*%
%TA.AperFunction,Conductor*%
G36*
X143679075Y-69407993D02*
G01*
X143744901Y-69522007D01*
X143837993Y-69615099D01*
X143952007Y-69680925D01*
X144015588Y-69697961D01*
X143383625Y-70329925D01*
X143467421Y-70388599D01*
X143681507Y-70488429D01*
X143681516Y-70488433D01*
X143909673Y-70549567D01*
X143909684Y-70549569D01*
X144144998Y-70570157D01*
X144145002Y-70570157D01*
X144380315Y-70549569D01*
X144380325Y-70549567D01*
X144538407Y-70507210D01*
X144608256Y-70508873D01*
X144666119Y-70548035D01*
X144693623Y-70612264D01*
X144694500Y-70626985D01*
X144694500Y-77381611D01*
X144718535Y-77502444D01*
X144718540Y-77502461D01*
X144765685Y-77616280D01*
X144765690Y-77616289D01*
X144799914Y-77667507D01*
X144799915Y-77667509D01*
X144834141Y-77718733D01*
X144925586Y-77810178D01*
X144925608Y-77810198D01*
X150468181Y-83352771D01*
X150501666Y-83414094D01*
X150504500Y-83440452D01*
X150504500Y-86400548D01*
X150484815Y-86467587D01*
X150432011Y-86513342D01*
X150362853Y-86523286D01*
X150299297Y-86494261D01*
X150292819Y-86488229D01*
X144744746Y-80940156D01*
X144711261Y-80878833D01*
X144716245Y-80809141D01*
X144758117Y-80753208D01*
X144806645Y-80731185D01*
X144825857Y-80727102D01*
X144998784Y-80650109D01*
X145044428Y-80616946D01*
X145110230Y-80593466D01*
X145178284Y-80609290D01*
X145204993Y-80629583D01*
X146381038Y-81805628D01*
X146414523Y-81866951D01*
X146416678Y-81880347D01*
X146423001Y-81940500D01*
X146434326Y-82048256D01*
X146434327Y-82048259D01*
X146492818Y-82228277D01*
X146492821Y-82228284D01*
X146587467Y-82392216D01*
X146641677Y-82452422D01*
X146714129Y-82532888D01*
X146867265Y-82644148D01*
X146867270Y-82644151D01*
X147040192Y-82721142D01*
X147040197Y-82721144D01*
X147225354Y-82760500D01*
X147225355Y-82760500D01*
X147414644Y-82760500D01*
X147414646Y-82760500D01*
X147599803Y-82721144D01*
X147772730Y-82644151D01*
X147925871Y-82532888D01*
X148052533Y-82392216D01*
X148147179Y-82228284D01*
X148205674Y-82048256D01*
X148225460Y-81860000D01*
X148205674Y-81671744D01*
X148147179Y-81491716D01*
X148052533Y-81327784D01*
X147925871Y-81187112D01*
X147925870Y-81187111D01*
X147772734Y-81075851D01*
X147772729Y-81075848D01*
X147599807Y-80998857D01*
X147599802Y-80998855D01*
X147454001Y-80967865D01*
X147414646Y-80959500D01*
X147414645Y-80959500D01*
X147355452Y-80959500D01*
X147288413Y-80939815D01*
X147267771Y-80923181D01*
X145816156Y-79471566D01*
X145816136Y-79471544D01*
X145724691Y-79380099D01*
X145673467Y-79345873D01*
X145622244Y-79311646D01*
X145622241Y-79311644D01*
X145622238Y-79311643D01*
X145541750Y-79278305D01*
X145508412Y-79264496D01*
X145508413Y-79264496D01*
X145508410Y-79264495D01*
X145508406Y-79264494D01*
X145508402Y-79264493D01*
X145414969Y-79245908D01*
X145414966Y-79245908D01*
X145387567Y-79240458D01*
X145387565Y-79240458D01*
X145387564Y-79240458D01*
X145249802Y-79240458D01*
X145182763Y-79220773D01*
X145157654Y-79199432D01*
X145151927Y-79193072D01*
X145151923Y-79193068D01*
X144998788Y-79081809D01*
X144998783Y-79081806D01*
X144825861Y-79004815D01*
X144825856Y-79004813D01*
X144680055Y-78973823D01*
X144640700Y-78965458D01*
X144451408Y-78965458D01*
X144418951Y-78972356D01*
X144266251Y-79004813D01*
X144266246Y-79004815D01*
X144093324Y-79081806D01*
X144093319Y-79081809D01*
X143940183Y-79193069D01*
X143813520Y-79333743D01*
X143718875Y-79497673D01*
X143718873Y-79497677D01*
X143679235Y-79619671D01*
X143639797Y-79677346D01*
X143575438Y-79704544D01*
X143506592Y-79692629D01*
X143473623Y-79669033D01*
X140638960Y-76834370D01*
X140605475Y-76773047D01*
X140603323Y-76759671D01*
X140585674Y-76591744D01*
X140527179Y-76411716D01*
X140432533Y-76247784D01*
X140305871Y-76107112D01*
X140305863Y-76107106D01*
X140152734Y-75995851D01*
X140152729Y-75995848D01*
X139979807Y-75918857D01*
X139979802Y-75918855D01*
X139834001Y-75887865D01*
X139794646Y-75879500D01*
X139605354Y-75879500D01*
X139572897Y-75886398D01*
X139420197Y-75918855D01*
X139420192Y-75918857D01*
X139247270Y-75995848D01*
X139247265Y-75995851D01*
X139094135Y-76107106D01*
X139094125Y-76107115D01*
X139083136Y-76119319D01*
X139023648Y-76155965D01*
X138953791Y-76154632D01*
X138903309Y-76124024D01*
X138551819Y-75772534D01*
X138518334Y-75711211D01*
X138515500Y-75684853D01*
X138515500Y-70626985D01*
X138535185Y-70559946D01*
X138587989Y-70514191D01*
X138657147Y-70504247D01*
X138671593Y-70507210D01*
X138829674Y-70549567D01*
X138829684Y-70549569D01*
X139064998Y-70570157D01*
X139065002Y-70570157D01*
X139300315Y-70549569D01*
X139300326Y-70549567D01*
X139528483Y-70488433D01*
X139528492Y-70488429D01*
X139742578Y-70388600D01*
X139742582Y-70388598D01*
X139826373Y-70329926D01*
X139826373Y-70329925D01*
X139194410Y-69697962D01*
X139257993Y-69680925D01*
X139372007Y-69615099D01*
X139465099Y-69522007D01*
X139530925Y-69407993D01*
X139547962Y-69344410D01*
X140179925Y-69976373D01*
X140233425Y-69899968D01*
X140288002Y-69856344D01*
X140357501Y-69849151D01*
X140419855Y-69880673D01*
X140436576Y-69899969D01*
X140490073Y-69976372D01*
X141122037Y-69344409D01*
X141139075Y-69407993D01*
X141204901Y-69522007D01*
X141297993Y-69615099D01*
X141412007Y-69680925D01*
X141475590Y-69697962D01*
X140843625Y-70329925D01*
X140927421Y-70388599D01*
X141141507Y-70488429D01*
X141141516Y-70488433D01*
X141369673Y-70549567D01*
X141369684Y-70549569D01*
X141604998Y-70570157D01*
X141605002Y-70570157D01*
X141840315Y-70549569D01*
X141840326Y-70549567D01*
X142068483Y-70488433D01*
X142068492Y-70488429D01*
X142282578Y-70388600D01*
X142282582Y-70388598D01*
X142366373Y-70329926D01*
X142366373Y-70329925D01*
X141734409Y-69697962D01*
X141797993Y-69680925D01*
X141912007Y-69615099D01*
X142005099Y-69522007D01*
X142070925Y-69407993D01*
X142087962Y-69344410D01*
X142719925Y-69976373D01*
X142773425Y-69899968D01*
X142828002Y-69856344D01*
X142897501Y-69849151D01*
X142959855Y-69880673D01*
X142976576Y-69899969D01*
X143030073Y-69976372D01*
X143662037Y-69344409D01*
X143679075Y-69407993D01*
G37*
%TD.AperFunction*%
%TA.AperFunction,Conductor*%
G36*
X138200886Y-64780185D02*
G01*
X138246641Y-64832989D01*
X138256585Y-64902147D01*
X138227560Y-64965703D01*
X138221528Y-64972181D01*
X137564181Y-65629526D01*
X137502858Y-65663011D01*
X137433166Y-65658027D01*
X137401044Y-65639311D01*
X137400836Y-65639610D01*
X137397264Y-65637109D01*
X137396799Y-65636838D01*
X137396404Y-65636507D01*
X137202834Y-65500967D01*
X137202830Y-65500965D01*
X137162777Y-65482288D01*
X136988663Y-65401097D01*
X136988659Y-65401096D01*
X136988655Y-65401094D01*
X136760413Y-65339938D01*
X136760403Y-65339936D01*
X136525001Y-65319341D01*
X136524999Y-65319341D01*
X136289596Y-65339936D01*
X136289586Y-65339938D01*
X136061344Y-65401094D01*
X136061335Y-65401098D01*
X135847171Y-65500964D01*
X135847169Y-65500965D01*
X135653597Y-65636505D01*
X135486505Y-65803597D01*
X135356575Y-65989158D01*
X135301998Y-66032783D01*
X135232500Y-66039977D01*
X135170145Y-66008454D01*
X135153425Y-65989158D01*
X135023494Y-65803597D01*
X134856402Y-65636506D01*
X134856395Y-65636501D01*
X134662834Y-65500967D01*
X134662830Y-65500965D01*
X134622777Y-65482288D01*
X134448663Y-65401097D01*
X134448659Y-65401096D01*
X134448655Y-65401094D01*
X134220413Y-65339938D01*
X134220403Y-65339936D01*
X133985001Y-65319341D01*
X133984999Y-65319341D01*
X133749596Y-65339936D01*
X133749586Y-65339938D01*
X133521344Y-65401094D01*
X133521335Y-65401098D01*
X133307171Y-65500964D01*
X133307169Y-65500965D01*
X133113597Y-65636505D01*
X132946505Y-65803597D01*
X132810965Y-65997169D01*
X132810964Y-65997171D01*
X132711098Y-66211335D01*
X132711094Y-66211344D01*
X132649938Y-66439586D01*
X132649936Y-66439596D01*
X132629341Y-66674999D01*
X132629341Y-66675000D01*
X132649936Y-66910403D01*
X132649938Y-66910413D01*
X132711094Y-67138655D01*
X132711096Y-67138659D01*
X132711097Y-67138663D01*
X132715000Y-67147032D01*
X132810965Y-67352830D01*
X132810967Y-67352834D01*
X132917670Y-67505220D01*
X132946505Y-67546401D01*
X133113599Y-67713495D01*
X133245500Y-67805853D01*
X133299594Y-67843730D01*
X133343218Y-67898307D01*
X133350411Y-67967806D01*
X133318889Y-68030160D01*
X133299593Y-68046880D01*
X133223626Y-68100072D01*
X133223625Y-68100072D01*
X133855590Y-68732037D01*
X133792007Y-68749075D01*
X133677993Y-68814901D01*
X133584901Y-68907993D01*
X133519075Y-69022007D01*
X133502037Y-69085589D01*
X132870073Y-68453625D01*
X132870072Y-68453625D01*
X132811401Y-68537419D01*
X132711570Y-68751507D01*
X132711566Y-68751516D01*
X132650432Y-68979673D01*
X132650430Y-68979684D01*
X132629843Y-69214998D01*
X132629843Y-69215001D01*
X132650430Y-69450315D01*
X132650432Y-69450326D01*
X132711566Y-69678483D01*
X132711570Y-69678492D01*
X132811400Y-69892579D01*
X132811402Y-69892583D01*
X132870072Y-69976373D01*
X132870073Y-69976373D01*
X133502037Y-69344409D01*
X133519075Y-69407993D01*
X133584901Y-69522007D01*
X133677993Y-69615099D01*
X133792007Y-69680925D01*
X133855590Y-69697962D01*
X133223625Y-70329925D01*
X133307421Y-70388599D01*
X133521507Y-70488429D01*
X133521516Y-70488433D01*
X133749673Y-70549567D01*
X133749684Y-70549569D01*
X133984998Y-70570157D01*
X133985002Y-70570157D01*
X134220315Y-70549569D01*
X134220326Y-70549567D01*
X134448483Y-70488433D01*
X134448492Y-70488429D01*
X134662578Y-70388600D01*
X134662582Y-70388598D01*
X134746373Y-70329926D01*
X134746373Y-70329925D01*
X134114409Y-69697962D01*
X134177993Y-69680925D01*
X134292007Y-69615099D01*
X134385099Y-69522007D01*
X134450925Y-69407993D01*
X134467962Y-69344410D01*
X135099925Y-69976373D01*
X135153425Y-69899968D01*
X135208002Y-69856344D01*
X135277501Y-69849151D01*
X135339855Y-69880673D01*
X135356576Y-69899969D01*
X135410073Y-69976372D01*
X136042037Y-69344409D01*
X136059075Y-69407993D01*
X136124901Y-69522007D01*
X136217993Y-69615099D01*
X136332007Y-69680925D01*
X136395588Y-69697961D01*
X135763625Y-70329925D01*
X135847421Y-70388599D01*
X136061507Y-70488429D01*
X136061516Y-70488433D01*
X136289673Y-70549567D01*
X136289684Y-70549569D01*
X136524998Y-70570157D01*
X136525002Y-70570157D01*
X136760315Y-70549569D01*
X136760326Y-70549567D01*
X136988483Y-70488433D01*
X136988492Y-70488430D01*
X137088095Y-70441984D01*
X137157172Y-70431492D01*
X137220956Y-70460011D01*
X137259196Y-70518488D01*
X137264500Y-70554366D01*
X137264500Y-75700548D01*
X137244815Y-75767587D01*
X137192011Y-75813342D01*
X137122853Y-75823286D01*
X137059297Y-75794261D01*
X137052819Y-75788229D01*
X132106819Y-70842229D01*
X132073334Y-70780906D01*
X132070500Y-70754548D01*
X132070500Y-64884500D01*
X132090185Y-64817461D01*
X132142989Y-64771706D01*
X132194500Y-64760500D01*
X138133847Y-64760500D01*
X138200886Y-64780185D01*
G37*
%TD.AperFunction*%
%TA.AperFunction,Conductor*%
G36*
X135339855Y-67341546D02*
G01*
X135356575Y-67360842D01*
X135486500Y-67546395D01*
X135486505Y-67546401D01*
X135653599Y-67713495D01*
X135785500Y-67805853D01*
X135839594Y-67843730D01*
X135883218Y-67898307D01*
X135890411Y-67967806D01*
X135858889Y-68030160D01*
X135839593Y-68046880D01*
X135763626Y-68100072D01*
X135763625Y-68100072D01*
X136395590Y-68732037D01*
X136332007Y-68749075D01*
X136217993Y-68814901D01*
X136124901Y-68907993D01*
X136059075Y-69022007D01*
X136042037Y-69085590D01*
X135410072Y-68453625D01*
X135410072Y-68453626D01*
X135356574Y-68530030D01*
X135301998Y-68573655D01*
X135232499Y-68580849D01*
X135170144Y-68549326D01*
X135153424Y-68530030D01*
X135099925Y-68453626D01*
X135099925Y-68453625D01*
X134467962Y-69085589D01*
X134450925Y-69022007D01*
X134385099Y-68907993D01*
X134292007Y-68814901D01*
X134177993Y-68749075D01*
X134114410Y-68732037D01*
X134746373Y-68100073D01*
X134746373Y-68100072D01*
X134670405Y-68046880D01*
X134626780Y-67992304D01*
X134619586Y-67922805D01*
X134651108Y-67860451D01*
X134670399Y-67843734D01*
X134856401Y-67713495D01*
X135023495Y-67546401D01*
X135153425Y-67360842D01*
X135208002Y-67317217D01*
X135277500Y-67310023D01*
X135339855Y-67341546D01*
G37*
%TD.AperFunction*%
%TA.AperFunction,Conductor*%
G36*
X140419855Y-67341546D02*
G01*
X140436575Y-67360842D01*
X140566500Y-67546395D01*
X140566505Y-67546401D01*
X140733599Y-67713495D01*
X140865500Y-67805853D01*
X140919594Y-67843730D01*
X140963218Y-67898307D01*
X140970411Y-67967806D01*
X140938889Y-68030160D01*
X140919593Y-68046880D01*
X140843626Y-68100072D01*
X140843625Y-68100072D01*
X141475590Y-68732037D01*
X141412007Y-68749075D01*
X141297993Y-68814901D01*
X141204901Y-68907993D01*
X141139075Y-69022007D01*
X141122037Y-69085589D01*
X140490073Y-68453625D01*
X140490072Y-68453626D01*
X140436574Y-68530030D01*
X140381998Y-68573655D01*
X140312499Y-68580849D01*
X140250144Y-68549326D01*
X140233424Y-68530030D01*
X140179925Y-68453626D01*
X140179925Y-68453625D01*
X139547962Y-69085589D01*
X139530925Y-69022007D01*
X139465099Y-68907993D01*
X139372007Y-68814901D01*
X139257993Y-68749075D01*
X139194409Y-68732037D01*
X139826373Y-68100073D01*
X139826373Y-68100072D01*
X139750405Y-68046880D01*
X139706780Y-67992304D01*
X139699586Y-67922805D01*
X139731108Y-67860451D01*
X139750399Y-67843734D01*
X139936401Y-67713495D01*
X140103495Y-67546401D01*
X140233425Y-67360842D01*
X140288002Y-67317217D01*
X140357500Y-67310023D01*
X140419855Y-67341546D01*
G37*
%TD.AperFunction*%
%TA.AperFunction,Conductor*%
G36*
X142959855Y-67341546D02*
G01*
X142976575Y-67360842D01*
X143106500Y-67546395D01*
X143106505Y-67546401D01*
X143273599Y-67713495D01*
X143405500Y-67805853D01*
X143459594Y-67843730D01*
X143503218Y-67898307D01*
X143510411Y-67967806D01*
X143478889Y-68030160D01*
X143459593Y-68046880D01*
X143383626Y-68100072D01*
X143383625Y-68100072D01*
X144015590Y-68732037D01*
X143952007Y-68749075D01*
X143837993Y-68814901D01*
X143744901Y-68907993D01*
X143679075Y-69022007D01*
X143662037Y-69085589D01*
X143030073Y-68453625D01*
X143030072Y-68453626D01*
X142976574Y-68530030D01*
X142921998Y-68573655D01*
X142852499Y-68580849D01*
X142790144Y-68549326D01*
X142773424Y-68530030D01*
X142719925Y-68453626D01*
X142719925Y-68453625D01*
X142087962Y-69085589D01*
X142070925Y-69022007D01*
X142005099Y-68907993D01*
X141912007Y-68814901D01*
X141797993Y-68749075D01*
X141734410Y-68732037D01*
X142366373Y-68100073D01*
X142366373Y-68100072D01*
X142290405Y-68046880D01*
X142246780Y-67992304D01*
X142239586Y-67922805D01*
X142271108Y-67860451D01*
X142290399Y-67843734D01*
X142476401Y-67713495D01*
X142643495Y-67546401D01*
X142773425Y-67360842D01*
X142828002Y-67317217D01*
X142897500Y-67310023D01*
X142959855Y-67341546D01*
G37*
%TD.AperFunction*%
%TA.AperFunction,Conductor*%
G36*
X150579855Y-67341546D02*
G01*
X150596575Y-67360842D01*
X150726500Y-67546395D01*
X150726505Y-67546401D01*
X150893599Y-67713495D01*
X151025500Y-67805853D01*
X151079594Y-67843730D01*
X151123218Y-67898307D01*
X151130411Y-67967806D01*
X151098889Y-68030160D01*
X151079593Y-68046880D01*
X151003626Y-68100072D01*
X151003625Y-68100072D01*
X151635590Y-68732037D01*
X151572007Y-68749075D01*
X151457993Y-68814901D01*
X151364901Y-68907993D01*
X151299075Y-69022007D01*
X151282037Y-69085589D01*
X150650073Y-68453625D01*
X150650072Y-68453626D01*
X150596574Y-68530030D01*
X150541998Y-68573655D01*
X150472499Y-68580849D01*
X150410144Y-68549326D01*
X150393424Y-68530030D01*
X150339925Y-68453626D01*
X150339925Y-68453625D01*
X149707962Y-69085589D01*
X149690925Y-69022007D01*
X149625099Y-68907993D01*
X149532007Y-68814901D01*
X149417993Y-68749075D01*
X149354409Y-68732037D01*
X149986373Y-68100073D01*
X149986373Y-68100072D01*
X149910405Y-68046880D01*
X149866780Y-67992304D01*
X149859586Y-67922805D01*
X149891108Y-67860451D01*
X149910399Y-67843734D01*
X150096401Y-67713495D01*
X150263495Y-67546401D01*
X150393425Y-67360842D01*
X150448002Y-67317217D01*
X150517500Y-67310023D01*
X150579855Y-67341546D01*
G37*
%TD.AperFunction*%
%TA.AperFunction,Conductor*%
G36*
X153119855Y-67341546D02*
G01*
X153136575Y-67360842D01*
X153266500Y-67546395D01*
X153266505Y-67546401D01*
X153433599Y-67713495D01*
X153565500Y-67805853D01*
X153619594Y-67843730D01*
X153663218Y-67898307D01*
X153670411Y-67967806D01*
X153638889Y-68030160D01*
X153619593Y-68046880D01*
X153543626Y-68100072D01*
X153543625Y-68100072D01*
X154175590Y-68732037D01*
X154112007Y-68749075D01*
X153997993Y-68814901D01*
X153904901Y-68907993D01*
X153839075Y-69022007D01*
X153822037Y-69085589D01*
X153190073Y-68453625D01*
X153190072Y-68453626D01*
X153136574Y-68530030D01*
X153081998Y-68573655D01*
X153012499Y-68580849D01*
X152950144Y-68549326D01*
X152933424Y-68530030D01*
X152879925Y-68453626D01*
X152879925Y-68453625D01*
X152247962Y-69085589D01*
X152230925Y-69022007D01*
X152165099Y-68907993D01*
X152072007Y-68814901D01*
X151957993Y-68749075D01*
X151894410Y-68732037D01*
X152526373Y-68100073D01*
X152526373Y-68100072D01*
X152450405Y-68046880D01*
X152406780Y-67992304D01*
X152399586Y-67922805D01*
X152431108Y-67860451D01*
X152450399Y-67843734D01*
X152636401Y-67713495D01*
X152803495Y-67546401D01*
X152933425Y-67360842D01*
X152988002Y-67317217D01*
X153057500Y-67310023D01*
X153119855Y-67341546D01*
G37*
%TD.AperFunction*%
%TA.AperFunction,Conductor*%
G36*
X155532038Y-67542053D02*
G01*
X155557335Y-67585733D01*
X155560186Y-67594334D01*
X155652288Y-67743656D01*
X155776344Y-67867712D01*
X155925666Y-67959814D01*
X155934264Y-67962663D01*
X155991707Y-68002433D01*
X156018531Y-68066948D01*
X156006217Y-68135724D01*
X155977234Y-68172483D01*
X155977427Y-68172676D01*
X155975798Y-68174304D01*
X155974975Y-68175349D01*
X155973599Y-68176503D01*
X155806505Y-68343597D01*
X155676269Y-68529595D01*
X155621692Y-68573220D01*
X155552194Y-68580414D01*
X155489839Y-68548891D01*
X155473119Y-68529595D01*
X155419925Y-68453626D01*
X155419925Y-68453625D01*
X154787962Y-69085589D01*
X154770925Y-69022007D01*
X154705099Y-68907993D01*
X154612007Y-68814901D01*
X154497993Y-68749075D01*
X154434410Y-68732037D01*
X155066373Y-68100073D01*
X155066373Y-68100072D01*
X154990405Y-68046880D01*
X154946780Y-67992304D01*
X154939586Y-67922805D01*
X154971108Y-67860451D01*
X154990399Y-67843734D01*
X155176401Y-67713495D01*
X155343495Y-67546401D01*
X155343504Y-67546388D01*
X155344636Y-67545040D01*
X155345293Y-67544602D01*
X155347323Y-67542573D01*
X155347730Y-67542980D01*
X155402805Y-67506334D01*
X155472666Y-67505220D01*
X155532038Y-67542053D01*
G37*
%TD.AperFunction*%
%TA.AperFunction,Conductor*%
G36*
X163101121Y-57730020D02*
G01*
X163235109Y-57732409D01*
X163250528Y-57733650D01*
X163516897Y-57771948D01*
X163534184Y-57775708D01*
X163791313Y-57851209D01*
X163807887Y-57857391D01*
X163917159Y-57907293D01*
X164051659Y-57968717D01*
X164067173Y-57977188D01*
X164292628Y-58122080D01*
X164306787Y-58132679D01*
X164509317Y-58308172D01*
X164521827Y-58320682D01*
X164686222Y-58510405D01*
X164697320Y-58523212D01*
X164707921Y-58537374D01*
X164852808Y-58762821D01*
X164861284Y-58778345D01*
X164972608Y-59022112D01*
X164978791Y-59038688D01*
X165054290Y-59295814D01*
X165058051Y-59313102D01*
X165096348Y-59579463D01*
X165097590Y-59594898D01*
X165099980Y-59728877D01*
X165100000Y-59731089D01*
X165100000Y-139548910D01*
X165099980Y-139551122D01*
X165097590Y-139685101D01*
X165096348Y-139700536D01*
X165058051Y-139966897D01*
X165054290Y-139984185D01*
X164978791Y-140241311D01*
X164972608Y-140257887D01*
X164861284Y-140501654D01*
X164852805Y-140517183D01*
X164707922Y-140742624D01*
X164697320Y-140756787D01*
X164521827Y-140959317D01*
X164509317Y-140971827D01*
X164306787Y-141147320D01*
X164292624Y-141157922D01*
X164067183Y-141302805D01*
X164051654Y-141311284D01*
X163807887Y-141422608D01*
X163791311Y-141428791D01*
X163534185Y-141504290D01*
X163516897Y-141508051D01*
X163250536Y-141546348D01*
X163235101Y-141547590D01*
X163104818Y-141549914D01*
X163101120Y-141549980D01*
X163098910Y-141550000D01*
X128384201Y-141550000D01*
X128317162Y-141530315D01*
X128285969Y-141494317D01*
X128275827Y-141513158D01*
X128214704Y-141547007D01*
X128187625Y-141550000D01*
X127731090Y-141550000D01*
X127728879Y-141549980D01*
X127725015Y-141549911D01*
X127594898Y-141547590D01*
X127579463Y-141546348D01*
X127313102Y-141508051D01*
X127295814Y-141504290D01*
X127038688Y-141428791D01*
X127022112Y-141422608D01*
X126778345Y-141311284D01*
X126762821Y-141302808D01*
X126537374Y-141157921D01*
X126523212Y-141147320D01*
X126510765Y-141136535D01*
X126421947Y-141059573D01*
X126320682Y-140971827D01*
X126308172Y-140959317D01*
X126260977Y-140904851D01*
X126132676Y-140756783D01*
X126122077Y-140742624D01*
X125977188Y-140517173D01*
X125968715Y-140501654D01*
X125949412Y-140459387D01*
X125876478Y-140299683D01*
X125857391Y-140257887D01*
X125851208Y-140241311D01*
X125845224Y-140220933D01*
X125775708Y-139984184D01*
X125771948Y-139966897D01*
X125733651Y-139700536D01*
X125732409Y-139685109D01*
X125730020Y-139551121D01*
X125730000Y-139548910D01*
X125730000Y-139053348D01*
X126031085Y-139053348D01*
X126050375Y-139347660D01*
X126050377Y-139347672D01*
X126107914Y-139636932D01*
X126107918Y-139636947D01*
X126202725Y-139916236D01*
X126333171Y-140180754D01*
X126333178Y-140180767D01*
X126497036Y-140425997D01*
X126526318Y-140459388D01*
X127349621Y-139636084D01*
X127446880Y-139769950D01*
X127569311Y-139892381D01*
X127703175Y-139989638D01*
X126879871Y-140812941D01*
X126913263Y-140842224D01*
X127158493Y-141006082D01*
X127158506Y-141006089D01*
X127423024Y-141136535D01*
X127702313Y-141231342D01*
X127702328Y-141231346D01*
X127991588Y-141288883D01*
X127991600Y-141288885D01*
X128195735Y-141302265D01*
X128261343Y-141326292D01*
X128284803Y-141357245D01*
X128290488Y-141344797D01*
X128349266Y-141307023D01*
X128376091Y-141302265D01*
X128580225Y-141288885D01*
X128580237Y-141288883D01*
X128869497Y-141231346D01*
X128869512Y-141231342D01*
X129148801Y-141136535D01*
X129413319Y-141006089D01*
X129413332Y-141006082D01*
X129658561Y-140842225D01*
X129691952Y-140812941D01*
X128868650Y-139989638D01*
X129002515Y-139892381D01*
X129124946Y-139769950D01*
X129222203Y-139636085D01*
X130045506Y-140459387D01*
X130074790Y-140425996D01*
X130238647Y-140180767D01*
X130238654Y-140180754D01*
X130369100Y-139916236D01*
X130463907Y-139636947D01*
X130463911Y-139636932D01*
X130521448Y-139347672D01*
X130521450Y-139347660D01*
X130540740Y-139053348D01*
X130521450Y-138759035D01*
X130521448Y-138759023D01*
X130481264Y-138557004D01*
X139360502Y-138557004D01*
X139380465Y-138823403D01*
X139380466Y-138823408D01*
X139439912Y-139083860D01*
X139439918Y-139083879D01*
X139537520Y-139332566D01*
X139671102Y-139563936D01*
X139722747Y-139628698D01*
X139722748Y-139628698D01*
X140390058Y-138961388D01*
X140390309Y-138961994D01*
X140483878Y-139102031D01*
X140602969Y-139221122D01*
X140743006Y-139314691D01*
X140743610Y-139314941D01*
X140075442Y-139983108D01*
X140254257Y-140105022D01*
X140254258Y-140105023D01*
X140494951Y-140220933D01*
X140494949Y-140220933D01*
X140750242Y-140299681D01*
X140750248Y-140299683D01*
X141014412Y-140339499D01*
X141014421Y-140339500D01*
X141281579Y-140339500D01*
X141281587Y-140339499D01*
X141545751Y-140299683D01*
X141545757Y-140299681D01*
X141801049Y-140220933D01*
X142041748Y-140105019D01*
X142041751Y-140105018D01*
X142220556Y-139983108D01*
X141552388Y-139314941D01*
X141552994Y-139314691D01*
X141693031Y-139221122D01*
X141812122Y-139102031D01*
X141905691Y-138961994D01*
X141905941Y-138961388D01*
X142573250Y-139628698D01*
X142573251Y-139628697D01*
X142624893Y-139563942D01*
X142624900Y-139563931D01*
X142758479Y-139332566D01*
X142856081Y-139083879D01*
X142856087Y-139083860D01*
X142915533Y-138823408D01*
X142915534Y-138823403D01*
X142935498Y-138557004D01*
X148580502Y-138557004D01*
X148600465Y-138823403D01*
X148600466Y-138823408D01*
X148659912Y-139083860D01*
X148659918Y-139083879D01*
X148757520Y-139332566D01*
X148891102Y-139563936D01*
X148942747Y-139628698D01*
X148942748Y-139628698D01*
X149610058Y-138961388D01*
X149610309Y-138961994D01*
X149703878Y-139102031D01*
X149822969Y-139221122D01*
X149963006Y-139314691D01*
X149963610Y-139314941D01*
X149295442Y-139983108D01*
X149474257Y-140105022D01*
X149474258Y-140105023D01*
X149714951Y-140220933D01*
X149714949Y-140220933D01*
X149970242Y-140299681D01*
X149970248Y-140299683D01*
X150234412Y-140339499D01*
X150234421Y-140339500D01*
X150501579Y-140339500D01*
X150501587Y-140339499D01*
X150765751Y-140299683D01*
X150765757Y-140299681D01*
X151021049Y-140220933D01*
X151261748Y-140105019D01*
X151261751Y-140105018D01*
X151440556Y-139983108D01*
X150772388Y-139314941D01*
X150772994Y-139314691D01*
X150913031Y-139221122D01*
X151032122Y-139102031D01*
X151125691Y-138961994D01*
X151125941Y-138961388D01*
X151793250Y-139628698D01*
X151793251Y-139628697D01*
X151844893Y-139563942D01*
X151844900Y-139563931D01*
X151978479Y-139332566D01*
X152076081Y-139083879D01*
X152076087Y-139083860D01*
X152092945Y-139010000D01*
X160305172Y-139010000D01*
X160324462Y-139304312D01*
X160324464Y-139304324D01*
X160382001Y-139593584D01*
X160382005Y-139593599D01*
X160476812Y-139872888D01*
X160607258Y-140137406D01*
X160607265Y-140137419D01*
X160771123Y-140382649D01*
X160800405Y-140416040D01*
X161623708Y-139592736D01*
X161720967Y-139726602D01*
X161843398Y-139849033D01*
X161977262Y-139946290D01*
X161153958Y-140769593D01*
X161187350Y-140798876D01*
X161432580Y-140962734D01*
X161432593Y-140962741D01*
X161697111Y-141093187D01*
X161976400Y-141187994D01*
X161976415Y-141187998D01*
X162265675Y-141245535D01*
X162265687Y-141245537D01*
X162560000Y-141264827D01*
X162854312Y-141245537D01*
X162854324Y-141245535D01*
X163143584Y-141187998D01*
X163143599Y-141187994D01*
X163422888Y-141093187D01*
X163687406Y-140962741D01*
X163687419Y-140962734D01*
X163932648Y-140798877D01*
X163966039Y-140769593D01*
X163142737Y-139946290D01*
X163276602Y-139849033D01*
X163399033Y-139726602D01*
X163496290Y-139592737D01*
X164319593Y-140416039D01*
X164348877Y-140382648D01*
X164512734Y-140137419D01*
X164512741Y-140137406D01*
X164643187Y-139872888D01*
X164737994Y-139593599D01*
X164737998Y-139593584D01*
X164795535Y-139304324D01*
X164795537Y-139304312D01*
X164814827Y-139010000D01*
X164795537Y-138715687D01*
X164795535Y-138715675D01*
X164737998Y-138426415D01*
X164737994Y-138426400D01*
X164643187Y-138147111D01*
X164512741Y-137882593D01*
X164512734Y-137882580D01*
X164348876Y-137637350D01*
X164319593Y-137603958D01*
X163496289Y-138427261D01*
X163399033Y-138293398D01*
X163276602Y-138170967D01*
X163142736Y-138073709D01*
X163966040Y-137250405D01*
X163932649Y-137221123D01*
X163687419Y-137057265D01*
X163687406Y-137057258D01*
X163422888Y-136926812D01*
X163143599Y-136832005D01*
X163143584Y-136832001D01*
X162854324Y-136774464D01*
X162854312Y-136774462D01*
X162560000Y-136755172D01*
X162265687Y-136774462D01*
X162265675Y-136774464D01*
X161976415Y-136832001D01*
X161976400Y-136832005D01*
X161697111Y-136926812D01*
X161432593Y-137057258D01*
X161432580Y-137057265D01*
X161187346Y-137221126D01*
X161187339Y-137221131D01*
X161153959Y-137250403D01*
X161153959Y-137250405D01*
X161977263Y-138073709D01*
X161843398Y-138170967D01*
X161720967Y-138293398D01*
X161623709Y-138427263D01*
X160800405Y-137603959D01*
X160800403Y-137603959D01*
X160771131Y-137637339D01*
X160771126Y-137637346D01*
X160607265Y-137882580D01*
X160607258Y-137882593D01*
X160476812Y-138147111D01*
X160382005Y-138426400D01*
X160382001Y-138426415D01*
X160324464Y-138715675D01*
X160324462Y-138715687D01*
X160305172Y-139010000D01*
X152092945Y-139010000D01*
X152135533Y-138823408D01*
X152135534Y-138823403D01*
X152155498Y-138557004D01*
X152155498Y-138556995D01*
X152135534Y-138290596D01*
X152135533Y-138290591D01*
X152076087Y-138030139D01*
X152076081Y-138030120D01*
X151978479Y-137781433D01*
X151844897Y-137550063D01*
X151793251Y-137485300D01*
X151125941Y-138152610D01*
X151125691Y-138152006D01*
X151032122Y-138011969D01*
X150913031Y-137892878D01*
X150772994Y-137799309D01*
X150772388Y-137799058D01*
X151440556Y-137130890D01*
X151261742Y-137008977D01*
X151261741Y-137008976D01*
X151021048Y-136893066D01*
X151021050Y-136893066D01*
X150765757Y-136814318D01*
X150765751Y-136814316D01*
X150501587Y-136774500D01*
X150234412Y-136774500D01*
X149970248Y-136814316D01*
X149970242Y-136814318D01*
X149714950Y-136893066D01*
X149474258Y-137008976D01*
X149474250Y-137008981D01*
X149295442Y-137130890D01*
X149963611Y-137799058D01*
X149963006Y-137799309D01*
X149822969Y-137892878D01*
X149703878Y-138011969D01*
X149610309Y-138152006D01*
X149610058Y-138152611D01*
X148942748Y-137485301D01*
X148891100Y-137550066D01*
X148757520Y-137781433D01*
X148659918Y-138030120D01*
X148659912Y-138030139D01*
X148600466Y-138290591D01*
X148600465Y-138290596D01*
X148580502Y-138556995D01*
X148580502Y-138557004D01*
X142935498Y-138557004D01*
X142935498Y-138556995D01*
X142915534Y-138290596D01*
X142915533Y-138290591D01*
X142856087Y-138030139D01*
X142856081Y-138030120D01*
X142758479Y-137781433D01*
X142624897Y-137550063D01*
X142573251Y-137485300D01*
X141905941Y-138152610D01*
X141905691Y-138152006D01*
X141812122Y-138011969D01*
X141693031Y-137892878D01*
X141552994Y-137799309D01*
X141552388Y-137799058D01*
X142220556Y-137130890D01*
X142041742Y-137008977D01*
X142041741Y-137008976D01*
X141801048Y-136893066D01*
X141801050Y-136893066D01*
X141545757Y-136814318D01*
X141545751Y-136814316D01*
X141281587Y-136774500D01*
X141014412Y-136774500D01*
X140750248Y-136814316D01*
X140750242Y-136814318D01*
X140494950Y-136893066D01*
X140254258Y-137008976D01*
X140254250Y-137008981D01*
X140075442Y-137130890D01*
X140743611Y-137799058D01*
X140743006Y-137799309D01*
X140602969Y-137892878D01*
X140483878Y-138011969D01*
X140390309Y-138152006D01*
X140390058Y-138152611D01*
X139722748Y-137485301D01*
X139671100Y-137550066D01*
X139537520Y-137781433D01*
X139439918Y-138030120D01*
X139439912Y-138030139D01*
X139380466Y-138290591D01*
X139380465Y-138290596D01*
X139360502Y-138556995D01*
X139360502Y-138557004D01*
X130481264Y-138557004D01*
X130463911Y-138469763D01*
X130463907Y-138469748D01*
X130369100Y-138190459D01*
X130238654Y-137925941D01*
X130238647Y-137925928D01*
X130074789Y-137680698D01*
X130045506Y-137647306D01*
X129222202Y-138470609D01*
X129124946Y-138336746D01*
X129002515Y-138214315D01*
X128868649Y-138117057D01*
X129691953Y-137293753D01*
X129658562Y-137264471D01*
X129413332Y-137100613D01*
X129413319Y-137100606D01*
X129148801Y-136970160D01*
X128869512Y-136875353D01*
X128869497Y-136875349D01*
X128580237Y-136817812D01*
X128580225Y-136817810D01*
X128285913Y-136798520D01*
X127991600Y-136817810D01*
X127991588Y-136817812D01*
X127702328Y-136875349D01*
X127702313Y-136875353D01*
X127423024Y-136970160D01*
X127158506Y-137100606D01*
X127158493Y-137100613D01*
X126913259Y-137264474D01*
X126913252Y-137264479D01*
X126879872Y-137293751D01*
X126879872Y-137293753D01*
X127703176Y-138117057D01*
X127569311Y-138214315D01*
X127446880Y-138336746D01*
X127349622Y-138470611D01*
X126526318Y-137647307D01*
X126526316Y-137647307D01*
X126497044Y-137680687D01*
X126497039Y-137680694D01*
X126333178Y-137925928D01*
X126333171Y-137925941D01*
X126202725Y-138190459D01*
X126107918Y-138469748D01*
X126107914Y-138469763D01*
X126050377Y-138759023D01*
X126050375Y-138759035D01*
X126031085Y-139053348D01*
X125730000Y-139053348D01*
X125730000Y-134057005D01*
X139642859Y-134057005D01*
X139663385Y-134304729D01*
X139663387Y-134304738D01*
X139724412Y-134545717D01*
X139824266Y-134773364D01*
X139924564Y-134926882D01*
X140390058Y-134461388D01*
X140390309Y-134461994D01*
X140483878Y-134602031D01*
X140602969Y-134721122D01*
X140743006Y-134814691D01*
X140743610Y-134814941D01*
X140277942Y-135280609D01*
X140324768Y-135317055D01*
X140324770Y-135317056D01*
X140543385Y-135435364D01*
X140543396Y-135435369D01*
X140778506Y-135516083D01*
X141023707Y-135557000D01*
X141272293Y-135557000D01*
X141517493Y-135516083D01*
X141752603Y-135435369D01*
X141752614Y-135435364D01*
X141971230Y-135317056D01*
X141971235Y-135317052D01*
X142079968Y-135232421D01*
X142144961Y-135206778D01*
X142203583Y-135215713D01*
X142268251Y-135242499D01*
X142268256Y-135242501D01*
X142268260Y-135242501D01*
X142268261Y-135242502D01*
X142393928Y-135267500D01*
X142393931Y-135267500D01*
X142522071Y-135267500D01*
X142606615Y-135250682D01*
X142647744Y-135242501D01*
X142766127Y-135193465D01*
X142872669Y-135122276D01*
X142963276Y-135031669D01*
X143034465Y-134925127D01*
X143083501Y-134806744D01*
X143104041Y-134703486D01*
X143108500Y-134681071D01*
X143108500Y-134552928D01*
X143083502Y-134427261D01*
X143083501Y-134427260D01*
X143083501Y-134427256D01*
X143034465Y-134308873D01*
X143034464Y-134308872D01*
X143034461Y-134308866D01*
X142963276Y-134202331D01*
X142963273Y-134202327D01*
X142872672Y-134111726D01*
X142872668Y-134111723D01*
X142766133Y-134040538D01*
X142766120Y-134040531D01*
X142717590Y-134020430D01*
X142663186Y-133976589D01*
X142641465Y-133916108D01*
X142632612Y-133809259D01*
X142571588Y-133568283D01*
X142471731Y-133340630D01*
X142371434Y-133187116D01*
X141905941Y-133652609D01*
X141905691Y-133652006D01*
X141812122Y-133511969D01*
X141693031Y-133392878D01*
X141552994Y-133299309D01*
X141552389Y-133299058D01*
X142018057Y-132833390D01*
X142018056Y-132833389D01*
X141971229Y-132796943D01*
X141752614Y-132678635D01*
X141752603Y-132678630D01*
X141517493Y-132597916D01*
X141272293Y-132557000D01*
X141023707Y-132557000D01*
X140778506Y-132597916D01*
X140543396Y-132678630D01*
X140543390Y-132678632D01*
X140324761Y-132796949D01*
X140277942Y-132833388D01*
X140277942Y-132833390D01*
X140743610Y-133299058D01*
X140743006Y-133299309D01*
X140602969Y-133392878D01*
X140483878Y-133511969D01*
X140390309Y-133652006D01*
X140390058Y-133652610D01*
X139924564Y-133187116D01*
X139824267Y-133340632D01*
X139724412Y-133568282D01*
X139663387Y-133809261D01*
X139663385Y-133809270D01*
X139642859Y-134056994D01*
X139642859Y-134057005D01*
X125730000Y-134057005D01*
X125730000Y-131953000D01*
X142604540Y-131953000D01*
X142624326Y-132141256D01*
X142624327Y-132141259D01*
X142682818Y-132321277D01*
X142682821Y-132321284D01*
X142777467Y-132485216D01*
X142842102Y-132557000D01*
X142904129Y-132625888D01*
X143057265Y-132737148D01*
X143057270Y-132737151D01*
X143230192Y-132814142D01*
X143230197Y-132814144D01*
X143415354Y-132853500D01*
X143415355Y-132853500D01*
X143604644Y-132853500D01*
X143604646Y-132853500D01*
X143789803Y-132814144D01*
X143962730Y-132737151D01*
X144115871Y-132625888D01*
X144242533Y-132485216D01*
X144337179Y-132321284D01*
X144395674Y-132141256D01*
X144413321Y-131973344D01*
X144439904Y-131908734D01*
X144448962Y-131898627D01*
X144494774Y-131852817D01*
X144556098Y-131819333D01*
X144582453Y-131816500D01*
X147591245Y-131816500D01*
X147658284Y-131836185D01*
X147704039Y-131888989D01*
X147709176Y-131902182D01*
X147762818Y-132067278D01*
X147762821Y-132067284D01*
X147857467Y-132231216D01*
X147938559Y-132321277D01*
X147984129Y-132371888D01*
X148137265Y-132483148D01*
X148137270Y-132483151D01*
X148310192Y-132560142D01*
X148310197Y-132560144D01*
X148495354Y-132599500D01*
X148495355Y-132599500D01*
X148684644Y-132599500D01*
X148684646Y-132599500D01*
X148869803Y-132560144D01*
X149042730Y-132483151D01*
X149195871Y-132371888D01*
X149322533Y-132231216D01*
X149417179Y-132067284D01*
X149475674Y-131887256D01*
X149495460Y-131699000D01*
X149475674Y-131510744D01*
X149417179Y-131330716D01*
X149322533Y-131166784D01*
X149195871Y-131026112D01*
X149195870Y-131026111D01*
X149042734Y-130914851D01*
X149042729Y-130914848D01*
X148869807Y-130837857D01*
X148869802Y-130837855D01*
X148724001Y-130806865D01*
X148684646Y-130798500D01*
X148684645Y-130798500D01*
X148625453Y-130798500D01*
X148558414Y-130778815D01*
X148537776Y-130762185D01*
X148480733Y-130705142D01*
X148480732Y-130705141D01*
X148480731Y-130705140D01*
X148429509Y-130670915D01*
X148388374Y-130643429D01*
X148378286Y-130636688D01*
X148378283Y-130636686D01*
X148378280Y-130636685D01*
X148284010Y-130597638D01*
X148264455Y-130589538D01*
X148264453Y-130589537D01*
X148264452Y-130589537D01*
X148204029Y-130577518D01*
X148143610Y-130565500D01*
X148143607Y-130565500D01*
X148143606Y-130565500D01*
X144210394Y-130565500D01*
X144149971Y-130577518D01*
X144089546Y-130589537D01*
X144069988Y-130597639D01*
X144069987Y-130597638D01*
X143975715Y-130636686D01*
X143965627Y-130643428D01*
X143965626Y-130643429D01*
X143873268Y-130705140D01*
X143829705Y-130748703D01*
X143786142Y-130792267D01*
X143786139Y-130792270D01*
X143663559Y-130914851D01*
X143562229Y-131016181D01*
X143500906Y-131049666D01*
X143474548Y-131052500D01*
X143415354Y-131052500D01*
X143384943Y-131058964D01*
X143230197Y-131091855D01*
X143230192Y-131091857D01*
X143057270Y-131168848D01*
X143057265Y-131168851D01*
X142904129Y-131280111D01*
X142777466Y-131420785D01*
X142682821Y-131584715D01*
X142682818Y-131584722D01*
X142627822Y-131753983D01*
X142624326Y-131764744D01*
X142604540Y-131953000D01*
X125730000Y-131953000D01*
X125730000Y-126408312D01*
X127289500Y-126408312D01*
X127313535Y-126529145D01*
X127313540Y-126529162D01*
X127360685Y-126642982D01*
X127360688Y-126642987D01*
X127380013Y-126671908D01*
X127380014Y-126671911D01*
X127380015Y-126671911D01*
X127429141Y-126745433D01*
X127429144Y-126745437D01*
X127520586Y-126836879D01*
X127520608Y-126836899D01*
X128494884Y-127811175D01*
X128528369Y-127872498D01*
X128523385Y-127942190D01*
X128504690Y-127974273D01*
X128504995Y-127974487D01*
X128502437Y-127978139D01*
X128502189Y-127978566D01*
X128501886Y-127978926D01*
X128366400Y-128172420D01*
X128366399Y-128172422D01*
X128266570Y-128386507D01*
X128266567Y-128386513D01*
X128209364Y-128599999D01*
X128209364Y-128600000D01*
X129106988Y-128600000D01*
X129074075Y-128657007D01*
X129040000Y-128784174D01*
X129040000Y-128915826D01*
X129074075Y-129042993D01*
X129106988Y-129100000D01*
X128209364Y-129100000D01*
X128266567Y-129313486D01*
X128266570Y-129313492D01*
X128366399Y-129527578D01*
X128501894Y-129721082D01*
X128668917Y-129888105D01*
X128862421Y-130023600D01*
X129076507Y-130123429D01*
X129076516Y-130123433D01*
X129290000Y-130180634D01*
X129290000Y-129283012D01*
X129347007Y-129315925D01*
X129474174Y-129350000D01*
X129605826Y-129350000D01*
X129732993Y-129315925D01*
X129790000Y-129283012D01*
X129790000Y-130180633D01*
X130003483Y-130123433D01*
X130003492Y-130123429D01*
X130217578Y-130023600D01*
X130411082Y-129888105D01*
X130578105Y-129721082D01*
X130713600Y-129527578D01*
X130813429Y-129313492D01*
X130813432Y-129313486D01*
X130870636Y-129100000D01*
X129973012Y-129100000D01*
X130005925Y-129042993D01*
X130040000Y-128915826D01*
X130040000Y-128784174D01*
X130005925Y-128657007D01*
X129973012Y-128600000D01*
X130876064Y-128600000D01*
X130920149Y-128567810D01*
X130962096Y-128560500D01*
X132814704Y-128560500D01*
X132875126Y-128548481D01*
X132935549Y-128536463D01*
X132935552Y-128536461D01*
X132935555Y-128536461D01*
X132968884Y-128522654D01*
X132968883Y-128522654D01*
X132968889Y-128522652D01*
X133049383Y-128489312D01*
X133106320Y-128451267D01*
X133151830Y-128420858D01*
X133238955Y-128333733D01*
X133238956Y-128333731D01*
X133246022Y-128326665D01*
X133246025Y-128326661D01*
X135797821Y-125774864D01*
X135859142Y-125741381D01*
X135928834Y-125746365D01*
X135984767Y-125788237D01*
X136009184Y-125853701D01*
X136009500Y-125862547D01*
X136009500Y-127062870D01*
X136009501Y-127062876D01*
X136015908Y-127122483D01*
X136066202Y-127257328D01*
X136066206Y-127257335D01*
X136152452Y-127372544D01*
X136152455Y-127372547D01*
X136267664Y-127458793D01*
X136267671Y-127458797D01*
X136402517Y-127509091D01*
X136402516Y-127509091D01*
X136409444Y-127509835D01*
X136462127Y-127515500D01*
X136996480Y-127515499D01*
X137063517Y-127535183D01*
X137109272Y-127587987D01*
X137119216Y-127657146D01*
X137090191Y-127720702D01*
X137031413Y-127758476D01*
X137019264Y-127761388D01*
X136843939Y-127794162D01*
X136843936Y-127794163D01*
X136645210Y-127871149D01*
X136645201Y-127871154D01*
X136542992Y-127934438D01*
X136542991Y-127934439D01*
X137113553Y-128505000D01*
X137107339Y-128505000D01*
X137005606Y-128532259D01*
X136914394Y-128584920D01*
X136839920Y-128659394D01*
X136787259Y-128750606D01*
X136760000Y-128852339D01*
X136760000Y-128858552D01*
X136186836Y-128285388D01*
X136178059Y-128297010D01*
X136083066Y-128487783D01*
X136083058Y-128487803D01*
X136024738Y-128692780D01*
X136024737Y-128692783D01*
X136005073Y-128904999D01*
X136005073Y-128905000D01*
X136024737Y-129117216D01*
X136024738Y-129117219D01*
X136083058Y-129322196D01*
X136083064Y-129322211D01*
X136178061Y-129512991D01*
X136178064Y-129512996D01*
X136186836Y-129524610D01*
X136760000Y-128951446D01*
X136760000Y-128957661D01*
X136787259Y-129059394D01*
X136839920Y-129150606D01*
X136914394Y-129225080D01*
X137005606Y-129277741D01*
X137107339Y-129305000D01*
X137113553Y-129305000D01*
X136542991Y-129875559D01*
X136645204Y-129938847D01*
X136645208Y-129938849D01*
X136843936Y-130015836D01*
X136843941Y-130015837D01*
X137053439Y-130055000D01*
X137266561Y-130055000D01*
X137476058Y-130015837D01*
X137476063Y-130015836D01*
X137674791Y-129938849D01*
X137674798Y-129938846D01*
X137777006Y-129875560D01*
X137777006Y-129875559D01*
X137206448Y-129305000D01*
X137212661Y-129305000D01*
X137314394Y-129277741D01*
X137405606Y-129225080D01*
X137480080Y-129150606D01*
X137532741Y-129059394D01*
X137560000Y-128957661D01*
X137560000Y-128951447D01*
X138133162Y-129524609D01*
X138133163Y-129524609D01*
X138141940Y-129512988D01*
X138141942Y-129512985D01*
X138236933Y-129322216D01*
X138236941Y-129322196D01*
X138295261Y-129117219D01*
X138295262Y-129117216D01*
X138306529Y-128995628D01*
X138332315Y-128930690D01*
X138368466Y-128904794D01*
X138340497Y-128888751D01*
X138308307Y-128826738D01*
X138306529Y-128814371D01*
X138295262Y-128692783D01*
X138295261Y-128692780D01*
X138236941Y-128487803D01*
X138236933Y-128487783D01*
X138141942Y-128297014D01*
X138141937Y-128297006D01*
X138133163Y-128285389D01*
X138133162Y-128285389D01*
X137560000Y-128858551D01*
X137560000Y-128852339D01*
X137532741Y-128750606D01*
X137480080Y-128659394D01*
X137405606Y-128584920D01*
X137314394Y-128532259D01*
X137212661Y-128505000D01*
X137206448Y-128505000D01*
X137777007Y-127934439D01*
X137674793Y-127871151D01*
X137674789Y-127871149D01*
X137476063Y-127794163D01*
X137476058Y-127794162D01*
X137300735Y-127761388D01*
X137238454Y-127729720D01*
X137203181Y-127669407D01*
X137206115Y-127599599D01*
X137246324Y-127542459D01*
X137311042Y-127516128D01*
X137323512Y-127515499D01*
X137857872Y-127515499D01*
X137917483Y-127509091D01*
X138052331Y-127458796D01*
X138167546Y-127372546D01*
X138253796Y-127257331D01*
X138304091Y-127122483D01*
X138306710Y-127098115D01*
X138333445Y-127033568D01*
X138390837Y-126993719D01*
X138460662Y-126991223D01*
X138520752Y-127026874D01*
X138552028Y-127089352D01*
X138553288Y-127098116D01*
X138555907Y-127122480D01*
X138606202Y-127257328D01*
X138606206Y-127257335D01*
X138692452Y-127372544D01*
X138692455Y-127372547D01*
X138807664Y-127458793D01*
X138807671Y-127458797D01*
X138942517Y-127509091D01*
X138942516Y-127509091D01*
X138949444Y-127509835D01*
X139002127Y-127515500D01*
X139536480Y-127515499D01*
X139603517Y-127535183D01*
X139649272Y-127587987D01*
X139659216Y-127657146D01*
X139630191Y-127720702D01*
X139571413Y-127758476D01*
X139559264Y-127761388D01*
X139383939Y-127794162D01*
X139383936Y-127794163D01*
X139185210Y-127871149D01*
X139185201Y-127871154D01*
X139082992Y-127934438D01*
X139082991Y-127934439D01*
X139653553Y-128505000D01*
X139647339Y-128505000D01*
X139545606Y-128532259D01*
X139454394Y-128584920D01*
X139379920Y-128659394D01*
X139327259Y-128750606D01*
X139300000Y-128852339D01*
X139300000Y-128858552D01*
X138726836Y-128285388D01*
X138718059Y-128297010D01*
X138623066Y-128487783D01*
X138623058Y-128487803D01*
X138564738Y-128692780D01*
X138564737Y-128692783D01*
X138553471Y-128814371D01*
X138527685Y-128879309D01*
X138491533Y-128905204D01*
X138519503Y-128921248D01*
X138551693Y-128983261D01*
X138553471Y-128995628D01*
X138564737Y-129117216D01*
X138564738Y-129117219D01*
X138623058Y-129322196D01*
X138623064Y-129322211D01*
X138718061Y-129512991D01*
X138718064Y-129512996D01*
X138726836Y-129524610D01*
X139300000Y-128951446D01*
X139300000Y-128957661D01*
X139327259Y-129059394D01*
X139379920Y-129150606D01*
X139454394Y-129225080D01*
X139545606Y-129277741D01*
X139647339Y-129305000D01*
X139653553Y-129305000D01*
X139082991Y-129875559D01*
X139185204Y-129938847D01*
X139185208Y-129938849D01*
X139383936Y-130015836D01*
X139383941Y-130015837D01*
X139593439Y-130055000D01*
X139806561Y-130055000D01*
X140016058Y-130015837D01*
X140016063Y-130015836D01*
X140214791Y-129938849D01*
X140214798Y-129938846D01*
X140317006Y-129875560D01*
X140317006Y-129875559D01*
X139746448Y-129305000D01*
X139752661Y-129305000D01*
X139854394Y-129277741D01*
X139945606Y-129225080D01*
X140020080Y-129150606D01*
X140072741Y-129059394D01*
X140100000Y-128957661D01*
X140100000Y-128951447D01*
X140673162Y-129524609D01*
X140673163Y-129524609D01*
X140681940Y-129512988D01*
X140681942Y-129512985D01*
X140776933Y-129322216D01*
X140776941Y-129322196D01*
X140835261Y-129117219D01*
X140835262Y-129117216D01*
X140854927Y-128905000D01*
X140854927Y-128904999D01*
X140835262Y-128692783D01*
X140835261Y-128692780D01*
X140776941Y-128487803D01*
X140776933Y-128487783D01*
X140681942Y-128297014D01*
X140681937Y-128297006D01*
X140673163Y-128285389D01*
X140100000Y-128858552D01*
X140100000Y-128852339D01*
X140072741Y-128750606D01*
X140020080Y-128659394D01*
X139945606Y-128584920D01*
X139854394Y-128532259D01*
X139752661Y-128505000D01*
X139746448Y-128505000D01*
X140317007Y-127934439D01*
X140214793Y-127871151D01*
X140214789Y-127871149D01*
X140016063Y-127794163D01*
X140016058Y-127794162D01*
X139840735Y-127761388D01*
X139778454Y-127729720D01*
X139743181Y-127669407D01*
X139746115Y-127599599D01*
X139786324Y-127542459D01*
X139851042Y-127516128D01*
X139863512Y-127515499D01*
X140397872Y-127515499D01*
X140457483Y-127509091D01*
X140592331Y-127458796D01*
X140707546Y-127372546D01*
X140793796Y-127257331D01*
X140844091Y-127122483D01*
X140850500Y-127062873D01*
X140850499Y-125667128D01*
X140844091Y-125607517D01*
X140824572Y-125555185D01*
X140793797Y-125472671D01*
X140793793Y-125472664D01*
X140707547Y-125357455D01*
X140707544Y-125357452D01*
X140592335Y-125271206D01*
X140592328Y-125271202D01*
X140457482Y-125220908D01*
X140457483Y-125220908D01*
X140397883Y-125214501D01*
X140397881Y-125214500D01*
X140397873Y-125214500D01*
X140397865Y-125214500D01*
X139866243Y-125214500D01*
X139799204Y-125194815D01*
X139753449Y-125142011D01*
X139743505Y-125072853D01*
X139772530Y-125009297D01*
X139831308Y-124971523D01*
X139843441Y-124968614D01*
X140016198Y-124936321D01*
X140215019Y-124859298D01*
X140396302Y-124747052D01*
X140553872Y-124603407D01*
X140682366Y-124433255D01*
X140682367Y-124433253D01*
X140777403Y-124242394D01*
X140777403Y-124242393D01*
X140777405Y-124242389D01*
X140835756Y-124037310D01*
X140855429Y-123825000D01*
X140854954Y-123819879D01*
X140846529Y-123728951D01*
X140835756Y-123612690D01*
X140777405Y-123407611D01*
X140777403Y-123407606D01*
X140777403Y-123407605D01*
X140682367Y-123216746D01*
X140665361Y-123194227D01*
X140640669Y-123128866D01*
X140655234Y-123060532D01*
X140704431Y-123010919D01*
X140764315Y-122995500D01*
X141217267Y-122995500D01*
X141284306Y-123015185D01*
X141330061Y-123067989D01*
X141340587Y-123132459D01*
X141334540Y-123190000D01*
X141354326Y-123378256D01*
X141354327Y-123378259D01*
X141412818Y-123558277D01*
X141412821Y-123558284D01*
X141507467Y-123722216D01*
X141609185Y-123835185D01*
X141634129Y-123862888D01*
X141787265Y-123974148D01*
X141787270Y-123974151D01*
X141960192Y-124051142D01*
X141960197Y-124051144D01*
X142145354Y-124090500D01*
X142145355Y-124090500D01*
X142334644Y-124090500D01*
X142334646Y-124090500D01*
X142519803Y-124051144D01*
X142692730Y-123974151D01*
X142845871Y-123862888D01*
X142848788Y-123859647D01*
X142851600Y-123856526D01*
X142911087Y-123819879D01*
X142943748Y-123815500D01*
X143497171Y-123815500D01*
X143564210Y-123835185D01*
X143609965Y-123887989D01*
X143619354Y-123945502D01*
X143620540Y-123945502D01*
X143620540Y-123951997D01*
X143620540Y-123952000D01*
X143640326Y-124140256D01*
X143640327Y-124140259D01*
X143698818Y-124320277D01*
X143698821Y-124320284D01*
X143793467Y-124484216D01*
X143900787Y-124603407D01*
X143920129Y-124624888D01*
X144073265Y-124736148D01*
X144073270Y-124736151D01*
X144246191Y-124813142D01*
X144246193Y-124813142D01*
X144246197Y-124813144D01*
X144286271Y-124821661D01*
X144347750Y-124854852D01*
X144381528Y-124916014D01*
X144383810Y-124955907D01*
X144382540Y-124967995D01*
X144382540Y-124967997D01*
X144382540Y-124968000D01*
X144402326Y-125156256D01*
X144402327Y-125156259D01*
X144460818Y-125336277D01*
X144460821Y-125336284D01*
X144555467Y-125500216D01*
X144607869Y-125558414D01*
X144682129Y-125640888D01*
X144835265Y-125752148D01*
X144835270Y-125752151D01*
X145008192Y-125829142D01*
X145008197Y-125829144D01*
X145193354Y-125868500D01*
X145193355Y-125868500D01*
X145382644Y-125868500D01*
X145382646Y-125868500D01*
X145567803Y-125829144D01*
X145740730Y-125752151D01*
X145893871Y-125640888D01*
X145951821Y-125576527D01*
X146011308Y-125539879D01*
X146043971Y-125535500D01*
X146487847Y-125535500D01*
X146554886Y-125555185D01*
X146575528Y-125571819D01*
X147704562Y-126700855D01*
X147704566Y-126700858D01*
X147807011Y-126769310D01*
X147807010Y-126769310D01*
X147807012Y-126769311D01*
X147807014Y-126769312D01*
X147842265Y-126783913D01*
X147842266Y-126783914D01*
X147842267Y-126783914D01*
X147920847Y-126816463D01*
X147940896Y-126820451D01*
X147974495Y-126827134D01*
X148041691Y-126840501D01*
X148041693Y-126840501D01*
X148171020Y-126840501D01*
X148171040Y-126840500D01*
X148629608Y-126840500D01*
X148696647Y-126860185D01*
X148742402Y-126912989D01*
X148752583Y-126975800D01*
X148752686Y-126975806D01*
X148752750Y-126975806D01*
X148752750Y-126975809D01*
X148752928Y-126975819D01*
X148752843Y-126977400D01*
X148752899Y-126977745D01*
X148752750Y-126979128D01*
X148752750Y-128874870D01*
X148752751Y-128874876D01*
X148759158Y-128934483D01*
X148809452Y-129069328D01*
X148809456Y-129069335D01*
X148895702Y-129184544D01*
X148895705Y-129184547D01*
X149010914Y-129270793D01*
X149010921Y-129270797D01*
X149055868Y-129287561D01*
X149145767Y-129321091D01*
X149205377Y-129327500D01*
X149751122Y-129327499D01*
X149751123Y-129327498D01*
X149751135Y-129327498D01*
X149789994Y-129323320D01*
X149816502Y-129323320D01*
X149855377Y-129327500D01*
X150401122Y-129327499D01*
X150409961Y-129326548D01*
X150442344Y-129323068D01*
X150468856Y-129323068D01*
X150505416Y-129326999D01*
X150505432Y-129327000D01*
X150553250Y-129327000D01*
X150568861Y-129311388D01*
X150572935Y-129297515D01*
X150602936Y-129265289D01*
X150710796Y-129184546D01*
X150779985Y-129092121D01*
X150835917Y-129050252D01*
X150905609Y-129045268D01*
X150966932Y-129078753D01*
X151000416Y-129140077D01*
X151003250Y-129166434D01*
X151003250Y-129327000D01*
X151051071Y-129327000D01*
X151051081Y-129326999D01*
X151089992Y-129322815D01*
X151116508Y-129322815D01*
X151155418Y-129326999D01*
X151155429Y-129327000D01*
X151203250Y-129327000D01*
X151203250Y-129166434D01*
X151222935Y-129099395D01*
X151275739Y-129053640D01*
X151344897Y-129043696D01*
X151408453Y-129072721D01*
X151426512Y-129092118D01*
X151495704Y-129184546D01*
X151603562Y-129265288D01*
X151639361Y-129313111D01*
X151653250Y-129327000D01*
X151701069Y-129327000D01*
X151701083Y-129326999D01*
X151737645Y-129323068D01*
X151764155Y-129323068D01*
X151805377Y-129327500D01*
X152351122Y-129327499D01*
X152351123Y-129327498D01*
X152351135Y-129327498D01*
X152389994Y-129323320D01*
X152416502Y-129323320D01*
X152455377Y-129327500D01*
X153001122Y-129327499D01*
X153001123Y-129327498D01*
X153001135Y-129327498D01*
X153039994Y-129323320D01*
X153066502Y-129323320D01*
X153105377Y-129327500D01*
X153243798Y-129327499D01*
X153310836Y-129347183D01*
X153356591Y-129399987D01*
X153366535Y-129469145D01*
X153337511Y-129532701D01*
X153331478Y-129539180D01*
X152665000Y-130205659D01*
X152001270Y-130869389D01*
X152001267Y-130869392D01*
X151965591Y-130905068D01*
X151914140Y-130956518D01*
X151886092Y-130998497D01*
X151886090Y-130998500D01*
X151867640Y-131026112D01*
X151845687Y-131058965D01*
X151845685Y-131058968D01*
X151798540Y-131172788D01*
X151798535Y-131172804D01*
X151777192Y-131280109D01*
X151777191Y-131280114D01*
X151774500Y-131293639D01*
X151774500Y-133068577D01*
X151754815Y-133135616D01*
X151702011Y-133181371D01*
X151637709Y-133191916D01*
X151591434Y-133187117D01*
X151125941Y-133652610D01*
X151125691Y-133652006D01*
X151032122Y-133511969D01*
X150913031Y-133392878D01*
X150772994Y-133299309D01*
X150772389Y-133299058D01*
X151238057Y-132833390D01*
X151238056Y-132833389D01*
X151191229Y-132796943D01*
X150972614Y-132678635D01*
X150972603Y-132678630D01*
X150737493Y-132597916D01*
X150492293Y-132557000D01*
X150243707Y-132557000D01*
X149998506Y-132597916D01*
X149763396Y-132678630D01*
X149763390Y-132678632D01*
X149544761Y-132796949D01*
X149497942Y-132833388D01*
X149497942Y-132833390D01*
X149963610Y-133299058D01*
X149963006Y-133299309D01*
X149822969Y-133392878D01*
X149703878Y-133511969D01*
X149610309Y-133652006D01*
X149610058Y-133652610D01*
X149144564Y-133187116D01*
X149044267Y-133340632D01*
X148944412Y-133568282D01*
X148883387Y-133809261D01*
X148883385Y-133809269D01*
X148874533Y-133916109D01*
X148849380Y-133981294D01*
X148798410Y-134020430D01*
X148749876Y-134040533D01*
X148749866Y-134040538D01*
X148643331Y-134111723D01*
X148643327Y-134111726D01*
X148552726Y-134202327D01*
X148552723Y-134202331D01*
X148481538Y-134308866D01*
X148481533Y-134308875D01*
X148432499Y-134427255D01*
X148432497Y-134427261D01*
X148407500Y-134552928D01*
X148407500Y-134552931D01*
X148407500Y-134681069D01*
X148407500Y-134681071D01*
X148407499Y-134681071D01*
X148432497Y-134806738D01*
X148432499Y-134806744D01*
X148481533Y-134925124D01*
X148481538Y-134925133D01*
X148552723Y-135031668D01*
X148552726Y-135031672D01*
X148643327Y-135122273D01*
X148643331Y-135122276D01*
X148749866Y-135193461D01*
X148749872Y-135193464D01*
X148749873Y-135193465D01*
X148868256Y-135242501D01*
X148868260Y-135242501D01*
X148868261Y-135242502D01*
X148993928Y-135267500D01*
X148993931Y-135267500D01*
X149122071Y-135267500D01*
X149206615Y-135250682D01*
X149247744Y-135242501D01*
X149312416Y-135215712D01*
X149381883Y-135208244D01*
X149436029Y-135232420D01*
X149544769Y-135317056D01*
X149544771Y-135317057D01*
X149763385Y-135435364D01*
X149763396Y-135435369D01*
X149998506Y-135516083D01*
X150243707Y-135557000D01*
X150492293Y-135557000D01*
X150737493Y-135516083D01*
X150972603Y-135435369D01*
X150972614Y-135435364D01*
X151191228Y-135317057D01*
X151191231Y-135317055D01*
X151238056Y-135280609D01*
X150772388Y-134814941D01*
X150772994Y-134814691D01*
X150913031Y-134721122D01*
X151032122Y-134602031D01*
X151125691Y-134461994D01*
X151125941Y-134461389D01*
X151591434Y-134926882D01*
X151637708Y-134922083D01*
X151706420Y-134934746D01*
X151757379Y-134982548D01*
X151774500Y-135045421D01*
X151774500Y-135706915D01*
X151798535Y-135827749D01*
X151798538Y-135827759D01*
X151812347Y-135861097D01*
X151812347Y-135861098D01*
X151845685Y-135941586D01*
X151845690Y-135941595D01*
X151877701Y-135989501D01*
X151877702Y-135989502D01*
X151914141Y-136044038D01*
X152005586Y-136135483D01*
X152005608Y-136135503D01*
X152880711Y-137010606D01*
X152880740Y-137010637D01*
X152970959Y-137100856D01*
X152970962Y-137100858D01*
X153047885Y-137152256D01*
X153073405Y-137169309D01*
X153073407Y-137169310D01*
X153073410Y-137169312D01*
X153140091Y-137196931D01*
X153140093Y-137196933D01*
X153180335Y-137213601D01*
X153187243Y-137216463D01*
X153247666Y-137228481D01*
X153308088Y-137240500D01*
X154049107Y-137240500D01*
X154109529Y-137228481D01*
X154169952Y-137216463D01*
X154169955Y-137216461D01*
X154169958Y-137216461D01*
X154203287Y-137202654D01*
X154203286Y-137202654D01*
X154203292Y-137202652D01*
X154283786Y-137169312D01*
X154335009Y-137135084D01*
X154386233Y-137100858D01*
X154462157Y-137024933D01*
X154523477Y-136991449D01*
X154593169Y-136996433D01*
X154649103Y-137038303D01*
X154673521Y-137103767D01*
X154673158Y-137125575D01*
X154672158Y-137135087D01*
X154669540Y-137160000D01*
X154689326Y-137348256D01*
X154689327Y-137348259D01*
X154747818Y-137528277D01*
X154747821Y-137528284D01*
X154842467Y-137692216D01*
X154922799Y-137781433D01*
X154969129Y-137832888D01*
X155122265Y-137944148D01*
X155122270Y-137944151D01*
X155295192Y-138021142D01*
X155295197Y-138021144D01*
X155480354Y-138060500D01*
X155480355Y-138060500D01*
X155669644Y-138060500D01*
X155669646Y-138060500D01*
X155854803Y-138021144D01*
X156027730Y-137944151D01*
X156180871Y-137832888D01*
X156307533Y-137692216D01*
X156402179Y-137528284D01*
X156460674Y-137348256D01*
X156480460Y-137160000D01*
X156460674Y-136971744D01*
X156402179Y-136791716D01*
X156307533Y-136627784D01*
X156180871Y-136487112D01*
X156142123Y-136458960D01*
X156024114Y-136373221D01*
X155981449Y-136317891D01*
X155973000Y-136272903D01*
X155973000Y-136228030D01*
X155992685Y-136160991D01*
X156031904Y-136122491D01*
X156108350Y-136075340D01*
X156122671Y-136061018D01*
X156183989Y-136027533D01*
X156253681Y-136032514D01*
X156298034Y-136061017D01*
X156311961Y-136074944D01*
X156311965Y-136074947D01*
X156458688Y-136165448D01*
X156458699Y-136165453D01*
X156622347Y-136219680D01*
X156723351Y-136229999D01*
X156822500Y-136229998D01*
X156822500Y-135505000D01*
X157322500Y-135505000D01*
X157322500Y-136229999D01*
X157421640Y-136229999D01*
X157421654Y-136229998D01*
X157522652Y-136219680D01*
X157686300Y-136165453D01*
X157686311Y-136165448D01*
X157833034Y-136074947D01*
X157833038Y-136074944D01*
X157954944Y-135953038D01*
X157954947Y-135953034D01*
X158045448Y-135806311D01*
X158045453Y-135806300D01*
X158099680Y-135642652D01*
X158109999Y-135541654D01*
X158110000Y-135541641D01*
X158110000Y-135505000D01*
X157322500Y-135505000D01*
X156822500Y-135505000D01*
X156822500Y-135129000D01*
X156842185Y-135061961D01*
X156894989Y-135016206D01*
X156946500Y-135005000D01*
X158109999Y-135005000D01*
X158109999Y-134968360D01*
X158109998Y-134968345D01*
X158099680Y-134867347D01*
X158060568Y-134749314D01*
X158058166Y-134679486D01*
X158093898Y-134619444D01*
X158105389Y-134609992D01*
X158214267Y-134530888D01*
X158340929Y-134390216D01*
X158435575Y-134226284D01*
X158494070Y-134046256D01*
X158513856Y-133858000D01*
X158509638Y-133817873D01*
X158518398Y-133757458D01*
X158536463Y-133713847D01*
X158545236Y-133669744D01*
X158560500Y-133593002D01*
X158560500Y-131541318D01*
X158542992Y-131453299D01*
X158536463Y-131420472D01*
X158489311Y-131306638D01*
X158457921Y-131259660D01*
X158457921Y-131259659D01*
X158457919Y-131259658D01*
X158420858Y-131204191D01*
X158333733Y-131117066D01*
X158333732Y-131117065D01*
X158308683Y-131092016D01*
X158275198Y-131030693D01*
X158280182Y-130961001D01*
X158322054Y-130905068D01*
X158345925Y-130891057D01*
X158478230Y-130832151D01*
X158631371Y-130720888D01*
X158758033Y-130580216D01*
X158852679Y-130416284D01*
X158911174Y-130236256D01*
X158930960Y-130048000D01*
X158911174Y-129859744D01*
X158853401Y-129681938D01*
X158851406Y-129612097D01*
X158883651Y-129555939D01*
X159039604Y-129399987D01*
X159235858Y-129203733D01*
X159304312Y-129101285D01*
X159351463Y-128987451D01*
X159359203Y-128948541D01*
X159375500Y-128866606D01*
X159375500Y-127067741D01*
X159375501Y-127067720D01*
X159375501Y-126938391D01*
X159351463Y-126817549D01*
X159351462Y-126817545D01*
X159351009Y-126816452D01*
X159351007Y-126816448D01*
X159306390Y-126708733D01*
X159306388Y-126708729D01*
X159304312Y-126703715D01*
X159304309Y-126703710D01*
X159304308Y-126703708D01*
X159235858Y-126601267D01*
X159235855Y-126601263D01*
X157786771Y-125152181D01*
X157753286Y-125090858D01*
X157758270Y-125021167D01*
X157800142Y-124965233D01*
X157865606Y-124940816D01*
X157874452Y-124940500D01*
X158984548Y-124940500D01*
X159051587Y-124960185D01*
X159072229Y-124976819D01*
X159949762Y-125854352D01*
X159983247Y-125915675D01*
X159981856Y-125974126D01*
X159954938Y-126074586D01*
X159954936Y-126074596D01*
X159934341Y-126309999D01*
X159934341Y-126310000D01*
X159954936Y-126545403D01*
X159954938Y-126545413D01*
X160016094Y-126773655D01*
X160016096Y-126773659D01*
X160016097Y-126773663D01*
X160110364Y-126975819D01*
X160115965Y-126987830D01*
X160115967Y-126987834D01*
X160251501Y-127181395D01*
X160251506Y-127181402D01*
X160418597Y-127348493D01*
X160418603Y-127348498D01*
X160604158Y-127478425D01*
X160647783Y-127533002D01*
X160654977Y-127602500D01*
X160623454Y-127664855D01*
X160604158Y-127681575D01*
X160418597Y-127811505D01*
X160251505Y-127978597D01*
X160115965Y-128172169D01*
X160115964Y-128172171D01*
X160016098Y-128386335D01*
X160016094Y-128386344D01*
X159954938Y-128614586D01*
X159954936Y-128614596D01*
X159934341Y-128849999D01*
X159934341Y-128850000D01*
X159954936Y-129085403D01*
X159954938Y-129085413D01*
X160016094Y-129313655D01*
X160016096Y-129313659D01*
X160016097Y-129313663D01*
X160056351Y-129399987D01*
X160115965Y-129527830D01*
X160115967Y-129527834D01*
X160174969Y-129612097D01*
X160251505Y-129721401D01*
X160418599Y-129888495D01*
X160490508Y-129938846D01*
X160612165Y-130024032D01*
X160612167Y-130024033D01*
X160612170Y-130024035D01*
X160826337Y-130123903D01*
X161054592Y-130185063D01*
X161242918Y-130201539D01*
X161289999Y-130205659D01*
X161290000Y-130205659D01*
X161290001Y-130205659D01*
X161329234Y-130202226D01*
X161525408Y-130185063D01*
X161753663Y-130123903D01*
X161967830Y-130024035D01*
X162161401Y-129888495D01*
X162328495Y-129721401D01*
X162464035Y-129527830D01*
X162563903Y-129313663D01*
X162625063Y-129085408D01*
X162645659Y-128850000D01*
X162625063Y-128614592D01*
X162598143Y-128514125D01*
X162599806Y-128444276D01*
X162630235Y-128394353D01*
X162863729Y-128160860D01*
X162863733Y-128160858D01*
X162950858Y-128073733D01*
X163019311Y-127971286D01*
X163019312Y-127971285D01*
X163046932Y-127904603D01*
X163055579Y-127883729D01*
X163056697Y-127881027D01*
X163066463Y-127857452D01*
X163090500Y-127736606D01*
X163090500Y-123221693D01*
X163066463Y-123100847D01*
X163031344Y-123016062D01*
X163025413Y-123001744D01*
X163019314Y-122987018D01*
X163019313Y-122987016D01*
X162977541Y-122924500D01*
X162977540Y-122924499D01*
X162976723Y-122923277D01*
X162950858Y-122884566D01*
X162950856Y-122884563D01*
X162860637Y-122794344D01*
X162860606Y-122794315D01*
X162335472Y-122269181D01*
X162301987Y-122207858D01*
X162306971Y-122138166D01*
X162325690Y-122106046D01*
X162325390Y-122105836D01*
X162327910Y-122102235D01*
X162328180Y-122101774D01*
X162328475Y-122101420D01*
X162328495Y-122101401D01*
X162464035Y-121907830D01*
X162563903Y-121693663D01*
X162625063Y-121465408D01*
X162645659Y-121230000D01*
X162625063Y-120994592D01*
X162563903Y-120766337D01*
X162464035Y-120552171D01*
X162349280Y-120388282D01*
X162328494Y-120358597D01*
X162161402Y-120191506D01*
X162161396Y-120191501D01*
X161975842Y-120061575D01*
X161932217Y-120006998D01*
X161925023Y-119937500D01*
X161956546Y-119875145D01*
X161975842Y-119858425D01*
X162031410Y-119819516D01*
X162161401Y-119728495D01*
X162328495Y-119561401D01*
X162464035Y-119367830D01*
X162563903Y-119153663D01*
X162625063Y-118925408D01*
X162645659Y-118690000D01*
X162625063Y-118454592D01*
X162563903Y-118226337D01*
X162464035Y-118012171D01*
X162460566Y-118007216D01*
X162328494Y-117818597D01*
X162161402Y-117651506D01*
X162161396Y-117651501D01*
X161975842Y-117521575D01*
X161932217Y-117466998D01*
X161925023Y-117397500D01*
X161956546Y-117335145D01*
X161975842Y-117318425D01*
X162021093Y-117286740D01*
X162161401Y-117188495D01*
X162328495Y-117021401D01*
X162464035Y-116827830D01*
X162563903Y-116613663D01*
X162625063Y-116385408D01*
X162645659Y-116150000D01*
X162625063Y-115914592D01*
X162563903Y-115686337D01*
X162464035Y-115472171D01*
X162436286Y-115432540D01*
X162328494Y-115278597D01*
X162161402Y-115111506D01*
X162161396Y-115111501D01*
X161975842Y-114981575D01*
X161932217Y-114926998D01*
X161925023Y-114857500D01*
X161956546Y-114795145D01*
X161975842Y-114778425D01*
X162046829Y-114728719D01*
X162161401Y-114648495D01*
X162328495Y-114481401D01*
X162464035Y-114287830D01*
X162563903Y-114073663D01*
X162625063Y-113845408D01*
X162645659Y-113610000D01*
X162625063Y-113374592D01*
X162563903Y-113146337D01*
X162464035Y-112932171D01*
X162422055Y-112872216D01*
X162328494Y-112738597D01*
X162161402Y-112571506D01*
X162161396Y-112571501D01*
X161975842Y-112441575D01*
X161932217Y-112386998D01*
X161925023Y-112317500D01*
X161956546Y-112255145D01*
X161975842Y-112238425D01*
X162075195Y-112168857D01*
X162161401Y-112108495D01*
X162328495Y-111941401D01*
X162464035Y-111747830D01*
X162563903Y-111533663D01*
X162625063Y-111305408D01*
X162645659Y-111070000D01*
X162625063Y-110834592D01*
X162563903Y-110606337D01*
X162464035Y-110392171D01*
X162452827Y-110376163D01*
X162328494Y-110198597D01*
X162161402Y-110031506D01*
X162161396Y-110031501D01*
X161975842Y-109901575D01*
X161932217Y-109846998D01*
X161925023Y-109777500D01*
X161956546Y-109715145D01*
X161975842Y-109698425D01*
X162099635Y-109611744D01*
X162161401Y-109568495D01*
X162328495Y-109401401D01*
X162464035Y-109207830D01*
X162563903Y-108993663D01*
X162625063Y-108765408D01*
X162645659Y-108530000D01*
X162625063Y-108294592D01*
X162563903Y-108066337D01*
X162464035Y-107852171D01*
X162422055Y-107792216D01*
X162328494Y-107658597D01*
X162161402Y-107491506D01*
X162161396Y-107491501D01*
X161975842Y-107361575D01*
X161932217Y-107306998D01*
X161925023Y-107237500D01*
X161956546Y-107175145D01*
X161975842Y-107158425D01*
X161998026Y-107142891D01*
X162161401Y-107028495D01*
X162328495Y-106861401D01*
X162464035Y-106667830D01*
X162563903Y-106453663D01*
X162625063Y-106225408D01*
X162645659Y-105990000D01*
X162644928Y-105981650D01*
X162629188Y-105801744D01*
X162625063Y-105754592D01*
X162563903Y-105526337D01*
X162464035Y-105312171D01*
X162390660Y-105207379D01*
X162328494Y-105118597D01*
X162161402Y-104951506D01*
X162161396Y-104951501D01*
X161975842Y-104821575D01*
X161932217Y-104766998D01*
X161925023Y-104697500D01*
X161956546Y-104635145D01*
X161975842Y-104618425D01*
X162060869Y-104558888D01*
X162161401Y-104488495D01*
X162328495Y-104321401D01*
X162464035Y-104127830D01*
X162563903Y-103913663D01*
X162625063Y-103685408D01*
X162645659Y-103450000D01*
X162625063Y-103214592D01*
X162569105Y-103005751D01*
X162563905Y-102986344D01*
X162563904Y-102986343D01*
X162563903Y-102986337D01*
X162464035Y-102772171D01*
X162452827Y-102756163D01*
X162328494Y-102578597D01*
X162161402Y-102411506D01*
X162161396Y-102411501D01*
X161975842Y-102281575D01*
X161932217Y-102226998D01*
X161925023Y-102157500D01*
X161956546Y-102095145D01*
X161975842Y-102078425D01*
X162076899Y-102007664D01*
X162161401Y-101948495D01*
X162328495Y-101781401D01*
X162464035Y-101587830D01*
X162563903Y-101373663D01*
X162625063Y-101145408D01*
X162645659Y-100910000D01*
X162625063Y-100674592D01*
X162563903Y-100446337D01*
X162464035Y-100232171D01*
X162405455Y-100148509D01*
X162328494Y-100038597D01*
X162161402Y-99871506D01*
X162161396Y-99871501D01*
X161975842Y-99741575D01*
X161932217Y-99686998D01*
X161925023Y-99617500D01*
X161956546Y-99555145D01*
X161975842Y-99538425D01*
X162075195Y-99468857D01*
X162161401Y-99408495D01*
X162328495Y-99241401D01*
X162464035Y-99047830D01*
X162563903Y-98833663D01*
X162625063Y-98605408D01*
X162645659Y-98370000D01*
X162625063Y-98134592D01*
X162563903Y-97906337D01*
X162464035Y-97692171D01*
X162438853Y-97656206D01*
X162328494Y-97498597D01*
X162161402Y-97331506D01*
X162161396Y-97331501D01*
X161975842Y-97201575D01*
X161932217Y-97146998D01*
X161925023Y-97077500D01*
X161956546Y-97015145D01*
X161975842Y-96998425D01*
X162075195Y-96928857D01*
X162161401Y-96868495D01*
X162328495Y-96701401D01*
X162464035Y-96507830D01*
X162563903Y-96293663D01*
X162625063Y-96065408D01*
X162645659Y-95830000D01*
X162644928Y-95821650D01*
X162637422Y-95735849D01*
X162625063Y-95594592D01*
X162563903Y-95366337D01*
X162464035Y-95152171D01*
X162400717Y-95061742D01*
X162328494Y-94958597D01*
X162161402Y-94791506D01*
X162161396Y-94791501D01*
X161975842Y-94661575D01*
X161932217Y-94606998D01*
X161925023Y-94537500D01*
X161956546Y-94475145D01*
X161975842Y-94458425D01*
X161998026Y-94442891D01*
X162161401Y-94328495D01*
X162328495Y-94161401D01*
X162464035Y-93967830D01*
X162563903Y-93753663D01*
X162625063Y-93525408D01*
X162645659Y-93290000D01*
X162625063Y-93054592D01*
X162563903Y-92826337D01*
X162464035Y-92612171D01*
X162351120Y-92450910D01*
X162328494Y-92418597D01*
X162161402Y-92251506D01*
X162161396Y-92251501D01*
X161975842Y-92121575D01*
X161932217Y-92066998D01*
X161925023Y-91997500D01*
X161956546Y-91935145D01*
X161975842Y-91918425D01*
X162075195Y-91848857D01*
X162161401Y-91788495D01*
X162328495Y-91621401D01*
X162464035Y-91427830D01*
X162563903Y-91213663D01*
X162625063Y-90985408D01*
X162645659Y-90750000D01*
X162625063Y-90514592D01*
X162563903Y-90286337D01*
X162464035Y-90072171D01*
X162328495Y-89878599D01*
X162328494Y-89878597D01*
X162161402Y-89711506D01*
X162161396Y-89711501D01*
X161975842Y-89581575D01*
X161932217Y-89526998D01*
X161925023Y-89457500D01*
X161956546Y-89395145D01*
X161975842Y-89378425D01*
X161998026Y-89362891D01*
X162161401Y-89248495D01*
X162328495Y-89081401D01*
X162464035Y-88887830D01*
X162563903Y-88673663D01*
X162625063Y-88445408D01*
X162645659Y-88210000D01*
X162625063Y-87974592D01*
X162563903Y-87746337D01*
X162464035Y-87532171D01*
X162328495Y-87338599D01*
X162328494Y-87338597D01*
X162161402Y-87171506D01*
X162161396Y-87171501D01*
X161975842Y-87041575D01*
X161932217Y-86986998D01*
X161925023Y-86917500D01*
X161956546Y-86855145D01*
X161975842Y-86838425D01*
X162014796Y-86811149D01*
X162161401Y-86708495D01*
X162328495Y-86541401D01*
X162464035Y-86347830D01*
X162563903Y-86133663D01*
X162625063Y-85905408D01*
X162645659Y-85670000D01*
X162625063Y-85434592D01*
X162563903Y-85206337D01*
X162464035Y-84992171D01*
X162463115Y-84990856D01*
X162328494Y-84798597D01*
X162161402Y-84631506D01*
X162161401Y-84631505D01*
X161975405Y-84501269D01*
X161931781Y-84446692D01*
X161924588Y-84377193D01*
X161956110Y-84314839D01*
X161975405Y-84298119D01*
X162161082Y-84168105D01*
X162328105Y-84001082D01*
X162463600Y-83807578D01*
X162563429Y-83593492D01*
X162563432Y-83593486D01*
X162620636Y-83380000D01*
X161723012Y-83380000D01*
X161755925Y-83322993D01*
X161790000Y-83195826D01*
X161790000Y-83064174D01*
X161755925Y-82937007D01*
X161723012Y-82880000D01*
X162620636Y-82880000D01*
X162620635Y-82879999D01*
X162563432Y-82666513D01*
X162563429Y-82666507D01*
X162463600Y-82452422D01*
X162463599Y-82452420D01*
X162328113Y-82258926D01*
X162328108Y-82258920D01*
X162206053Y-82136865D01*
X162172568Y-82075542D01*
X162177552Y-82005850D01*
X162219424Y-81949917D01*
X162250400Y-81933002D01*
X162382331Y-81883796D01*
X162497546Y-81797546D01*
X162583796Y-81682331D01*
X162634091Y-81547483D01*
X162640500Y-81487873D01*
X162640499Y-79692128D01*
X162634091Y-79632517D01*
X162583797Y-79497673D01*
X162583797Y-79497671D01*
X162583793Y-79497664D01*
X162497547Y-79382455D01*
X162497544Y-79382452D01*
X162382335Y-79296206D01*
X162382328Y-79296202D01*
X162247482Y-79245908D01*
X162247483Y-79245908D01*
X162187883Y-79239501D01*
X162187881Y-79239500D01*
X162187873Y-79239500D01*
X162187864Y-79239500D01*
X160392129Y-79239500D01*
X160392123Y-79239501D01*
X160332516Y-79245908D01*
X160197671Y-79296202D01*
X160197664Y-79296206D01*
X160082455Y-79382452D01*
X160082452Y-79382455D01*
X159996206Y-79497664D01*
X159996202Y-79497671D01*
X159945908Y-79632517D01*
X159941089Y-79677346D01*
X159939501Y-79692123D01*
X159939500Y-79692135D01*
X159939500Y-81487870D01*
X159939501Y-81487876D01*
X159945908Y-81547483D01*
X159996202Y-81682328D01*
X159996206Y-81682335D01*
X160082452Y-81797544D01*
X160082455Y-81797547D01*
X160197664Y-81883793D01*
X160197671Y-81883797D01*
X160197674Y-81883798D01*
X160329598Y-81933002D01*
X160385531Y-81974873D01*
X160409949Y-82040337D01*
X160395098Y-82108610D01*
X160373947Y-82136865D01*
X160251886Y-82258926D01*
X160116400Y-82452420D01*
X160116399Y-82452422D01*
X160016570Y-82666507D01*
X160016567Y-82666513D01*
X159959364Y-82879999D01*
X159959364Y-82880000D01*
X160856988Y-82880000D01*
X160824075Y-82937007D01*
X160790000Y-83064174D01*
X160790000Y-83195826D01*
X160824075Y-83322993D01*
X160856988Y-83380000D01*
X159959364Y-83380000D01*
X160016567Y-83593486D01*
X160016570Y-83593492D01*
X160116399Y-83807578D01*
X160251894Y-84001082D01*
X160418917Y-84168105D01*
X160604595Y-84298119D01*
X160648219Y-84352696D01*
X160655412Y-84422195D01*
X160623890Y-84484549D01*
X160604595Y-84501269D01*
X160418594Y-84631508D01*
X160251505Y-84798597D01*
X160115965Y-84992169D01*
X160115964Y-84992171D01*
X160016098Y-85206335D01*
X160016094Y-85206344D01*
X159954938Y-85434586D01*
X159954936Y-85434596D01*
X159934341Y-85669999D01*
X159934341Y-85670000D01*
X159954936Y-85905403D01*
X159954938Y-85905413D01*
X159981856Y-86005872D01*
X159980193Y-86075722D01*
X159949762Y-86125646D01*
X155811270Y-90264139D01*
X155724144Y-90351264D01*
X155724138Y-90351272D01*
X155655690Y-90453708D01*
X155655688Y-90453713D01*
X155630472Y-90514590D01*
X155630472Y-90514592D01*
X155608537Y-90567548D01*
X155608536Y-90567552D01*
X155608536Y-90567553D01*
X155608535Y-90567556D01*
X155584500Y-90688389D01*
X155584500Y-95692155D01*
X155564815Y-95759194D01*
X155512011Y-95804949D01*
X155442853Y-95814893D01*
X155379297Y-95785868D01*
X155372819Y-95779836D01*
X155293038Y-95700055D01*
X155293034Y-95700052D01*
X155146311Y-95609551D01*
X155146300Y-95609546D01*
X154982652Y-95555319D01*
X154881654Y-95545000D01*
X154782500Y-95545000D01*
X154782500Y-96646000D01*
X154762815Y-96713039D01*
X154710011Y-96758794D01*
X154658500Y-96770000D01*
X154406500Y-96770000D01*
X154339461Y-96750315D01*
X154293706Y-96697511D01*
X154282500Y-96646000D01*
X154282500Y-95544999D01*
X154183360Y-95545000D01*
X154183344Y-95545001D01*
X154082347Y-95555319D01*
X153918699Y-95609546D01*
X153918688Y-95609551D01*
X153771965Y-95700052D01*
X153758032Y-95713985D01*
X153696708Y-95747468D01*
X153627016Y-95742482D01*
X153582672Y-95713982D01*
X153568350Y-95699660D01*
X153568346Y-95699657D01*
X153491903Y-95652506D01*
X153445178Y-95600558D01*
X153433000Y-95546968D01*
X153433000Y-93055893D01*
X153432999Y-93055889D01*
X153408964Y-92935055D01*
X153408963Y-92935048D01*
X153385694Y-92878872D01*
X153361812Y-92821214D01*
X153327257Y-92769500D01*
X153325824Y-92767355D01*
X153305610Y-92711433D01*
X153305459Y-92710002D01*
X153305460Y-92710000D01*
X153285674Y-92521744D01*
X153227179Y-92341716D01*
X153132533Y-92177784D01*
X153005871Y-92037112D01*
X153005870Y-92037111D01*
X152852734Y-91925851D01*
X152852729Y-91925848D01*
X152679807Y-91848857D01*
X152679802Y-91848855D01*
X152534001Y-91817865D01*
X152494646Y-91809500D01*
X152305354Y-91809500D01*
X152272897Y-91816398D01*
X152120197Y-91848855D01*
X152120192Y-91848857D01*
X151947270Y-91925848D01*
X151941637Y-91929101D01*
X151940145Y-91926517D01*
X151886483Y-91945617D01*
X151818441Y-91929739D01*
X151769785Y-91879595D01*
X151755500Y-91821814D01*
X151755500Y-83669452D01*
X151775185Y-83602413D01*
X151827989Y-83556658D01*
X151897147Y-83546714D01*
X151960703Y-83575739D01*
X151967181Y-83581771D01*
X154001038Y-85615628D01*
X154034523Y-85676951D01*
X154036678Y-85690347D01*
X154044139Y-85761338D01*
X154054326Y-85858256D01*
X154054327Y-85858259D01*
X154112818Y-86038277D01*
X154112821Y-86038284D01*
X154207467Y-86202216D01*
X154334129Y-86342888D01*
X154487265Y-86454148D01*
X154487270Y-86454151D01*
X154660192Y-86531142D01*
X154660197Y-86531144D01*
X154845354Y-86570500D01*
X154845355Y-86570500D01*
X155034644Y-86570500D01*
X155034646Y-86570500D01*
X155219803Y-86531144D01*
X155392730Y-86454151D01*
X155545871Y-86342888D01*
X155672533Y-86202216D01*
X155767179Y-86038284D01*
X155825674Y-85858256D01*
X155845460Y-85670000D01*
X155825674Y-85481744D01*
X155767179Y-85301716D01*
X155672533Y-85137784D01*
X155545871Y-84997112D01*
X155545870Y-84997111D01*
X155392734Y-84885851D01*
X155392729Y-84885848D01*
X155219807Y-84808857D01*
X155219802Y-84808855D01*
X155074001Y-84777865D01*
X155034646Y-84769500D01*
X155034645Y-84769500D01*
X154975452Y-84769500D01*
X154908413Y-84749815D01*
X154887771Y-84733181D01*
X148521819Y-78367229D01*
X148488334Y-78305906D01*
X148485500Y-78279548D01*
X148485500Y-70554366D01*
X148505185Y-70487327D01*
X148557989Y-70441572D01*
X148627147Y-70431628D01*
X148661905Y-70441984D01*
X148761507Y-70488430D01*
X148761516Y-70488433D01*
X148989673Y-70549567D01*
X148989684Y-70549569D01*
X149224998Y-70570157D01*
X149225002Y-70570157D01*
X149460315Y-70549569D01*
X149460326Y-70549567D01*
X149688483Y-70488433D01*
X149688492Y-70488429D01*
X149902578Y-70388600D01*
X149902582Y-70388598D01*
X149986373Y-70329926D01*
X149986373Y-70329925D01*
X149354410Y-69697962D01*
X149417993Y-69680925D01*
X149532007Y-69615099D01*
X149625099Y-69522007D01*
X149690925Y-69407993D01*
X149707962Y-69344410D01*
X150339925Y-69976373D01*
X150393425Y-69899968D01*
X150448002Y-69856344D01*
X150517501Y-69849151D01*
X150579855Y-69880673D01*
X150596576Y-69899969D01*
X150650073Y-69976372D01*
X151282037Y-69344409D01*
X151299075Y-69407993D01*
X151364901Y-69522007D01*
X151457993Y-69615099D01*
X151572007Y-69680925D01*
X151635590Y-69697962D01*
X151003625Y-70329925D01*
X151087421Y-70388599D01*
X151301507Y-70488429D01*
X151301516Y-70488433D01*
X151529673Y-70549567D01*
X151529684Y-70549569D01*
X151764998Y-70570157D01*
X151765002Y-70570157D01*
X152000315Y-70549569D01*
X152000326Y-70549567D01*
X152228483Y-70488433D01*
X152228492Y-70488429D01*
X152442578Y-70388600D01*
X152442582Y-70388598D01*
X152526373Y-70329926D01*
X152526373Y-70329925D01*
X151894409Y-69697962D01*
X151957993Y-69680925D01*
X152072007Y-69615099D01*
X152165099Y-69522007D01*
X152230925Y-69407993D01*
X152247962Y-69344410D01*
X152879925Y-69976373D01*
X152933425Y-69899968D01*
X152988002Y-69856344D01*
X153057501Y-69849151D01*
X153119855Y-69880673D01*
X153136576Y-69899969D01*
X153190073Y-69976372D01*
X153822037Y-69344409D01*
X153839075Y-69407993D01*
X153904901Y-69522007D01*
X153997993Y-69615099D01*
X154112007Y-69680925D01*
X154175590Y-69697962D01*
X153543625Y-70329925D01*
X153627421Y-70388599D01*
X153841507Y-70488429D01*
X153841516Y-70488433D01*
X154069673Y-70549567D01*
X154069684Y-70549569D01*
X154304998Y-70570157D01*
X154305002Y-70570157D01*
X154540315Y-70549569D01*
X154540326Y-70549567D01*
X154768483Y-70488433D01*
X154768492Y-70488429D01*
X154982578Y-70388600D01*
X154982582Y-70388598D01*
X155066373Y-70329926D01*
X155066373Y-70329925D01*
X154434409Y-69697962D01*
X154497993Y-69680925D01*
X154612007Y-69615099D01*
X154705099Y-69522007D01*
X154770925Y-69407993D01*
X154787962Y-69344410D01*
X155419925Y-69976373D01*
X155473119Y-69900405D01*
X155527696Y-69856781D01*
X155597195Y-69849588D01*
X155659549Y-69881110D01*
X155676269Y-69900405D01*
X155806505Y-70086401D01*
X155973599Y-70253495D01*
X156070384Y-70321265D01*
X156167165Y-70389032D01*
X156167167Y-70389033D01*
X156167170Y-70389035D01*
X156381337Y-70488903D01*
X156609592Y-70550063D01*
X156797918Y-70566539D01*
X156844999Y-70570659D01*
X156845000Y-70570659D01*
X156845001Y-70570659D01*
X156884234Y-70567226D01*
X157080408Y-70550063D01*
X157308663Y-70488903D01*
X157522830Y-70389035D01*
X157716401Y-70253495D01*
X157883495Y-70086401D01*
X158019035Y-69892830D01*
X158118903Y-69678663D01*
X158180063Y-69450408D01*
X158200659Y-69215000D01*
X158180063Y-68979592D01*
X158118903Y-68751337D01*
X158019035Y-68537171D01*
X158013731Y-68529595D01*
X157883494Y-68343597D01*
X157716398Y-68176501D01*
X157715030Y-68175354D01*
X157714592Y-68174696D01*
X157712573Y-68172677D01*
X157712978Y-68172271D01*
X157676330Y-68117182D01*
X157675224Y-68047321D01*
X157712063Y-67987952D01*
X157755737Y-67962662D01*
X157764334Y-67959814D01*
X157913656Y-67867712D01*
X158037712Y-67743656D01*
X158129814Y-67594334D01*
X158184999Y-67427797D01*
X158195500Y-67325009D01*
X158195499Y-66024992D01*
X158184999Y-65922203D01*
X158129814Y-65755666D01*
X158037712Y-65606344D01*
X157913656Y-65482288D01*
X157820888Y-65425069D01*
X157764336Y-65390187D01*
X157764331Y-65390185D01*
X157762862Y-65389698D01*
X157597797Y-65335001D01*
X157597795Y-65335000D01*
X157495010Y-65324500D01*
X156194998Y-65324500D01*
X156194981Y-65324501D01*
X156092203Y-65335000D01*
X156092200Y-65335001D01*
X155925668Y-65390185D01*
X155925663Y-65390187D01*
X155776342Y-65482289D01*
X155652289Y-65606342D01*
X155560187Y-65755663D01*
X155560183Y-65755673D01*
X155557335Y-65764268D01*
X155517560Y-65821711D01*
X155453044Y-65848531D01*
X155384268Y-65836214D01*
X155347517Y-65807233D01*
X155347324Y-65807427D01*
X155345682Y-65805785D01*
X155344642Y-65804965D01*
X155343494Y-65803597D01*
X155176402Y-65636506D01*
X155176395Y-65636501D01*
X154982834Y-65500967D01*
X154982830Y-65500965D01*
X154942777Y-65482288D01*
X154768663Y-65401097D01*
X154768659Y-65401096D01*
X154768655Y-65401094D01*
X154540413Y-65339938D01*
X154540403Y-65339936D01*
X154305001Y-65319341D01*
X154304999Y-65319341D01*
X154069596Y-65339936D01*
X154069586Y-65339938D01*
X153969126Y-65366856D01*
X153899276Y-65365193D01*
X153849352Y-65334762D01*
X152257928Y-63743338D01*
X152257925Y-63743334D01*
X152257925Y-63743335D01*
X152250858Y-63736268D01*
X152250858Y-63736267D01*
X152163733Y-63649142D01*
X152163732Y-63649141D01*
X152163731Y-63649140D01*
X152112509Y-63614915D01*
X152061286Y-63580688D01*
X152061283Y-63580686D01*
X152061280Y-63580685D01*
X151980792Y-63547347D01*
X151947453Y-63533537D01*
X151937427Y-63531543D01*
X151887029Y-63521518D01*
X151826610Y-63509500D01*
X151826607Y-63509500D01*
X151826606Y-63509500D01*
X131506606Y-63509500D01*
X131383394Y-63509500D01*
X131383389Y-63509500D01*
X131262555Y-63533535D01*
X131262545Y-63533538D01*
X131148716Y-63580687D01*
X131148707Y-63580692D01*
X131046267Y-63649141D01*
X131046263Y-63649144D01*
X130959144Y-63736263D01*
X130959141Y-63736267D01*
X130890692Y-63838707D01*
X130890687Y-63838716D01*
X130843538Y-63952545D01*
X130843535Y-63952555D01*
X130819500Y-64073389D01*
X130819500Y-71126611D01*
X130843535Y-71247444D01*
X130843540Y-71247461D01*
X130890685Y-71361280D01*
X130890690Y-71361289D01*
X130924914Y-71412507D01*
X130924915Y-71412509D01*
X130959141Y-71463733D01*
X131050586Y-71555178D01*
X131050608Y-71555198D01*
X140308181Y-80812771D01*
X140341666Y-80874094D01*
X140344500Y-80900452D01*
X140344500Y-82255243D01*
X140324815Y-82322282D01*
X140272011Y-82368037D01*
X140202853Y-82377981D01*
X140139297Y-82348956D01*
X140132819Y-82342924D01*
X139945503Y-82155608D01*
X139945483Y-82155586D01*
X139854038Y-82064141D01*
X139801253Y-82028872D01*
X139766513Y-82005659D01*
X139751591Y-81995688D01*
X139671097Y-81962347D01*
X139637757Y-81948537D01*
X139637755Y-81948536D01*
X139637751Y-81948535D01*
X139565137Y-81934091D01*
X139565130Y-81934091D01*
X139516912Y-81924500D01*
X139516911Y-81924500D01*
X137855211Y-81924500D01*
X137731997Y-81924500D01*
X137707888Y-81929295D01*
X137683778Y-81934091D01*
X137683777Y-81934090D01*
X137611156Y-81948536D01*
X137611149Y-81948537D01*
X137593219Y-81955965D01*
X137577811Y-81962347D01*
X137497322Y-81995685D01*
X137497313Y-81995690D01*
X137447657Y-82028871D01*
X137447656Y-82028872D01*
X137394872Y-82064140D01*
X137367508Y-82091505D01*
X137307746Y-82151267D01*
X137307743Y-82151270D01*
X132951270Y-86507743D01*
X132951267Y-86507746D01*
X132928307Y-86530706D01*
X132864140Y-86594872D01*
X132839299Y-86632050D01*
X132795686Y-86697320D01*
X132795685Y-86697322D01*
X132762347Y-86777811D01*
X132756823Y-86791147D01*
X132748537Y-86811149D01*
X132748535Y-86811157D01*
X132724500Y-86931993D01*
X132724500Y-100901312D01*
X132704815Y-100968351D01*
X132692650Y-100984284D01*
X132617466Y-101067784D01*
X132522821Y-101231715D01*
X132522818Y-101231722D01*
X132464327Y-101411740D01*
X132464326Y-101411744D01*
X132444540Y-101600000D01*
X132464326Y-101788256D01*
X132464327Y-101788259D01*
X132522818Y-101968277D01*
X132522821Y-101968284D01*
X132617467Y-102132216D01*
X132744129Y-102272888D01*
X132897265Y-102384148D01*
X132897270Y-102384151D01*
X133070192Y-102461142D01*
X133070197Y-102461144D01*
X133255354Y-102500500D01*
X133255355Y-102500500D01*
X133348044Y-102500500D01*
X133415083Y-102520185D01*
X133460838Y-102572989D01*
X133470782Y-102642147D01*
X133465976Y-102662816D01*
X133459826Y-102681741D01*
X133459826Y-102681744D01*
X133440040Y-102870000D01*
X133459826Y-103058256D01*
X133459827Y-103058259D01*
X133518318Y-103238277D01*
X133518321Y-103238284D01*
X133612967Y-103402216D01*
X133739629Y-103542888D01*
X133892765Y-103654148D01*
X133892770Y-103654151D01*
X134065692Y-103731142D01*
X134065697Y-103731144D01*
X134250854Y-103770500D01*
X134250855Y-103770500D01*
X134440144Y-103770500D01*
X134440146Y-103770500D01*
X134625303Y-103731144D01*
X134798230Y-103654151D01*
X134951371Y-103542888D01*
X135078033Y-103402216D01*
X135172679Y-103238284D01*
X135231174Y-103058256D01*
X135250960Y-102870000D01*
X135231174Y-102681744D01*
X135172679Y-102501716D01*
X135078033Y-102337784D01*
X135002850Y-102254284D01*
X134972620Y-102191292D01*
X134971000Y-102171312D01*
X134971000Y-86944952D01*
X134990685Y-86877913D01*
X135007319Y-86857271D01*
X138107771Y-83756819D01*
X138169094Y-83723334D01*
X138195452Y-83720500D01*
X138664548Y-83720500D01*
X138731587Y-83740185D01*
X138752229Y-83756819D01*
X138761038Y-83765628D01*
X138794523Y-83826951D01*
X138796678Y-83840347D01*
X138799562Y-83867784D01*
X138814326Y-84008256D01*
X138814327Y-84008259D01*
X138872818Y-84188277D01*
X138872821Y-84188284D01*
X138967467Y-84352216D01*
X139086621Y-84484549D01*
X139094129Y-84492888D01*
X139247265Y-84604148D01*
X139247270Y-84604151D01*
X139420192Y-84681142D01*
X139420197Y-84681144D01*
X139605354Y-84720500D01*
X139605355Y-84720500D01*
X139770500Y-84720500D01*
X139837539Y-84740185D01*
X139883294Y-84792989D01*
X139894500Y-84844500D01*
X139894500Y-91833548D01*
X139874815Y-91900587D01*
X139858181Y-91921229D01*
X139752229Y-92027181D01*
X139690906Y-92060666D01*
X139664548Y-92063500D01*
X139605354Y-92063500D01*
X139572897Y-92070398D01*
X139420197Y-92102855D01*
X139420192Y-92102857D01*
X139247270Y-92179848D01*
X139241637Y-92183101D01*
X139240145Y-92180517D01*
X139186483Y-92199617D01*
X139118441Y-92183739D01*
X139069785Y-92133595D01*
X139055500Y-92075814D01*
X139055500Y-86550687D01*
X139075185Y-86483648D01*
X139087350Y-86467715D01*
X139105891Y-86447122D01*
X139162533Y-86384216D01*
X139257179Y-86220284D01*
X139315674Y-86040256D01*
X139335460Y-85852000D01*
X139315674Y-85663744D01*
X139257179Y-85483716D01*
X139162533Y-85319784D01*
X139035871Y-85179112D01*
X139035870Y-85179111D01*
X138882734Y-85067851D01*
X138882729Y-85067848D01*
X138709807Y-84990857D01*
X138709802Y-84990855D01*
X138564001Y-84959865D01*
X138524646Y-84951500D01*
X138335354Y-84951500D01*
X138302897Y-84958398D01*
X138150197Y-84990855D01*
X138150192Y-84990857D01*
X137977270Y-85067848D01*
X137977265Y-85067851D01*
X137824129Y-85179111D01*
X137697466Y-85319785D01*
X137602821Y-85483715D01*
X137602818Y-85483722D01*
X137544327Y-85663740D01*
X137544326Y-85663744D01*
X137524540Y-85852000D01*
X137544326Y-86040256D01*
X137544327Y-86040259D01*
X137602818Y-86220277D01*
X137602821Y-86220284D01*
X137697467Y-86384216D01*
X137712173Y-86400548D01*
X137772650Y-86467715D01*
X137802880Y-86530706D01*
X137804500Y-86550687D01*
X137804500Y-102884460D01*
X137784815Y-102951499D01*
X137732011Y-102997254D01*
X137662853Y-103007198D01*
X137654720Y-103005751D01*
X137643043Y-103003269D01*
X137559446Y-102985500D01*
X137370154Y-102985500D01*
X137337697Y-102992398D01*
X137184997Y-103024855D01*
X137184992Y-103024857D01*
X137012070Y-103101848D01*
X137012065Y-103101851D01*
X136858929Y-103213111D01*
X136732266Y-103353785D01*
X136637621Y-103517715D01*
X136637618Y-103517722D01*
X136580533Y-103693413D01*
X136579126Y-103697744D01*
X136559340Y-103886000D01*
X136579126Y-104074256D01*
X136579127Y-104074259D01*
X136637618Y-104254277D01*
X136637621Y-104254284D01*
X136732267Y-104418216D01*
X136839715Y-104537549D01*
X136858929Y-104558888D01*
X137012065Y-104670148D01*
X137012070Y-104670151D01*
X137184992Y-104747142D01*
X137184997Y-104747144D01*
X137370154Y-104786500D01*
X137370155Y-104786500D01*
X137559444Y-104786500D01*
X137559446Y-104786500D01*
X137654719Y-104766249D01*
X137724386Y-104771565D01*
X137780120Y-104813702D01*
X137804225Y-104879282D01*
X137804500Y-104887539D01*
X137804500Y-106561312D01*
X137784815Y-106628351D01*
X137772650Y-106644284D01*
X137697466Y-106727784D01*
X137602821Y-106891715D01*
X137602818Y-106891722D01*
X137544327Y-107071740D01*
X137544326Y-107071744D01*
X137524540Y-107260000D01*
X137544326Y-107448256D01*
X137544327Y-107448259D01*
X137602818Y-107628277D01*
X137602819Y-107628279D01*
X137602821Y-107628284D01*
X137697467Y-107792216D01*
X137751451Y-107852171D01*
X137824129Y-107932888D01*
X137977265Y-108044148D01*
X137977270Y-108044151D01*
X138150192Y-108121142D01*
X138150197Y-108121144D01*
X138335354Y-108160500D01*
X138335355Y-108160500D01*
X138524644Y-108160500D01*
X138524646Y-108160500D01*
X138709803Y-108121144D01*
X138882730Y-108044151D01*
X139035871Y-107932888D01*
X139162533Y-107792216D01*
X139257179Y-107628284D01*
X139263775Y-107607983D01*
X139303210Y-107550309D01*
X139355920Y-107525011D01*
X139490073Y-107496497D01*
X139490077Y-107496495D01*
X139490078Y-107496495D01*
X139577629Y-107457514D01*
X139663000Y-107419504D01*
X139816141Y-107308241D01*
X139942803Y-107167569D01*
X140037449Y-107003637D01*
X140095944Y-106823609D01*
X140097180Y-106811848D01*
X140123763Y-106747236D01*
X140181060Y-106707251D01*
X140250879Y-106704591D01*
X140311053Y-106740100D01*
X140342477Y-106802504D01*
X140344500Y-106824812D01*
X140344500Y-109861611D01*
X140368535Y-109982444D01*
X140368540Y-109982461D01*
X140415685Y-110096280D01*
X140415690Y-110096289D01*
X140449914Y-110147507D01*
X140449915Y-110147509D01*
X140484141Y-110198733D01*
X140575586Y-110290178D01*
X140575608Y-110290198D01*
X141301038Y-111015628D01*
X141334523Y-111076951D01*
X141336678Y-111090347D01*
X141340519Y-111126891D01*
X141354326Y-111258256D01*
X141354327Y-111258259D01*
X141412818Y-111438277D01*
X141415462Y-111444214D01*
X141412937Y-111445338D01*
X141426530Y-111501431D01*
X141403661Y-111567453D01*
X141348729Y-111610629D01*
X141302672Y-111619500D01*
X139862741Y-111619500D01*
X139862721Y-111619499D01*
X139856607Y-111619499D01*
X139733394Y-111619499D01*
X139733391Y-111619499D01*
X139632846Y-111639498D01*
X139632847Y-111639499D01*
X139612551Y-111643536D01*
X139612541Y-111643539D01*
X139580262Y-111656909D01*
X139565397Y-111663067D01*
X139498719Y-111690685D01*
X139498717Y-111690686D01*
X139396266Y-111759141D01*
X139396263Y-111759144D01*
X132192181Y-118963227D01*
X132130858Y-118996712D01*
X132061166Y-118991728D01*
X132005233Y-118949856D01*
X131980816Y-118884392D01*
X131980500Y-118875546D01*
X131980500Y-116402252D01*
X132000185Y-116335213D01*
X132016819Y-116314571D01*
X135329572Y-113001819D01*
X135390895Y-112968334D01*
X135417253Y-112965500D01*
X136456252Y-112965500D01*
X136523291Y-112985185D01*
X136548400Y-113006526D01*
X136554126Y-113012885D01*
X136554130Y-113012889D01*
X136707265Y-113124148D01*
X136707270Y-113124151D01*
X136880192Y-113201142D01*
X136880197Y-113201144D01*
X137065354Y-113240500D01*
X137065355Y-113240500D01*
X137254644Y-113240500D01*
X137254646Y-113240500D01*
X137439803Y-113201144D01*
X137612730Y-113124151D01*
X137765871Y-113012888D01*
X137892533Y-112872216D01*
X137987179Y-112708284D01*
X138045674Y-112528256D01*
X138065460Y-112340000D01*
X138045674Y-112151744D01*
X137987179Y-111971716D01*
X137892533Y-111807784D01*
X137765871Y-111667112D01*
X137765870Y-111667111D01*
X137612734Y-111555851D01*
X137612729Y-111555848D01*
X137439807Y-111478857D01*
X137439802Y-111478855D01*
X137282112Y-111445338D01*
X137254646Y-111439500D01*
X137065354Y-111439500D01*
X137037888Y-111445338D01*
X136880197Y-111478855D01*
X136880192Y-111478857D01*
X136707270Y-111555848D01*
X136707265Y-111555851D01*
X136554130Y-111667110D01*
X136554126Y-111667114D01*
X136548400Y-111673474D01*
X136488913Y-111710121D01*
X136456252Y-111714500D01*
X135045188Y-111714500D01*
X134924355Y-111738535D01*
X134924347Y-111738537D01*
X134810516Y-111785687D01*
X134719857Y-111846263D01*
X134719858Y-111846264D01*
X134708062Y-111854145D01*
X134708060Y-111854147D01*
X131647181Y-114915027D01*
X131585858Y-114948512D01*
X131516166Y-114943528D01*
X131460233Y-114901656D01*
X131435816Y-114836192D01*
X131435500Y-114827346D01*
X131435500Y-97038394D01*
X131434812Y-97034937D01*
X131411463Y-96917549D01*
X131407405Y-96907753D01*
X131364311Y-96803714D01*
X131364309Y-96803711D01*
X131364307Y-96803707D01*
X131295858Y-96701267D01*
X131295855Y-96701263D01*
X131205637Y-96611045D01*
X131205606Y-96611016D01*
X130880237Y-96285647D01*
X130846752Y-96224324D01*
X130848143Y-96165872D01*
X130857153Y-96132247D01*
X130875063Y-96065408D01*
X130895659Y-95830000D01*
X130894928Y-95821650D01*
X130887422Y-95735849D01*
X130875063Y-95594592D01*
X130813903Y-95366337D01*
X130714035Y-95152171D01*
X130650717Y-95061742D01*
X130578494Y-94958597D01*
X130411402Y-94791506D01*
X130411396Y-94791501D01*
X130225842Y-94661575D01*
X130182217Y-94606998D01*
X130175023Y-94537500D01*
X130206546Y-94475145D01*
X130225842Y-94458425D01*
X130248026Y-94442891D01*
X130411401Y-94328495D01*
X130578495Y-94161401D01*
X130714035Y-93967830D01*
X130813903Y-93753663D01*
X130875063Y-93525408D01*
X130895659Y-93290000D01*
X130875063Y-93054592D01*
X130813903Y-92826337D01*
X130714035Y-92612171D01*
X130601120Y-92450910D01*
X130578494Y-92418597D01*
X130411402Y-92251506D01*
X130411396Y-92251501D01*
X130225842Y-92121575D01*
X130182217Y-92066998D01*
X130175023Y-91997500D01*
X130206546Y-91935145D01*
X130225842Y-91918425D01*
X130325195Y-91848857D01*
X130411401Y-91788495D01*
X130578495Y-91621401D01*
X130714035Y-91427830D01*
X130813903Y-91213663D01*
X130875063Y-90985408D01*
X130895659Y-90750000D01*
X130875063Y-90514592D01*
X130813903Y-90286337D01*
X130714035Y-90072171D01*
X130578495Y-89878599D01*
X130578494Y-89878597D01*
X130411402Y-89711506D01*
X130411396Y-89711501D01*
X130225842Y-89581575D01*
X130182217Y-89526998D01*
X130175023Y-89457500D01*
X130206546Y-89395145D01*
X130225842Y-89378425D01*
X130248026Y-89362891D01*
X130411401Y-89248495D01*
X130578495Y-89081401D01*
X130714035Y-88887830D01*
X130813903Y-88673663D01*
X130875063Y-88445408D01*
X130895659Y-88210000D01*
X130875063Y-87974592D01*
X130813903Y-87746337D01*
X130714035Y-87532171D01*
X130578495Y-87338599D01*
X130578494Y-87338597D01*
X130411402Y-87171506D01*
X130411396Y-87171501D01*
X130225842Y-87041575D01*
X130182217Y-86986998D01*
X130175023Y-86917500D01*
X130206546Y-86855145D01*
X130225842Y-86838425D01*
X130264796Y-86811149D01*
X130411401Y-86708495D01*
X130578495Y-86541401D01*
X130714035Y-86347830D01*
X130813903Y-86133663D01*
X130875063Y-85905408D01*
X130895659Y-85670000D01*
X130875063Y-85434592D01*
X130813903Y-85206337D01*
X130714035Y-84992171D01*
X130713115Y-84990856D01*
X130578494Y-84798597D01*
X130411402Y-84631506D01*
X130411396Y-84631501D01*
X130225842Y-84501575D01*
X130182217Y-84446998D01*
X130175023Y-84377500D01*
X130206546Y-84315145D01*
X130225842Y-84298425D01*
X130349635Y-84211744D01*
X130411401Y-84168495D01*
X130578495Y-84001401D01*
X130714035Y-83807830D01*
X130813903Y-83593663D01*
X130875063Y-83365408D01*
X130895659Y-83130000D01*
X130875063Y-82894592D01*
X130813903Y-82666337D01*
X130714035Y-82452171D01*
X130672054Y-82392216D01*
X130578496Y-82258600D01*
X130548173Y-82228277D01*
X130456567Y-82136671D01*
X130423084Y-82075351D01*
X130428068Y-82005659D01*
X130469939Y-81949725D01*
X130500915Y-81932810D01*
X130632331Y-81883796D01*
X130747546Y-81797546D01*
X130833796Y-81682331D01*
X130884091Y-81547483D01*
X130890500Y-81487873D01*
X130890499Y-79692128D01*
X130884091Y-79632517D01*
X130833797Y-79497673D01*
X130833797Y-79497671D01*
X130833793Y-79497664D01*
X130747547Y-79382455D01*
X130747544Y-79382452D01*
X130632335Y-79296206D01*
X130632328Y-79296202D01*
X130497482Y-79245908D01*
X130497483Y-79245908D01*
X130437883Y-79239501D01*
X130437881Y-79239500D01*
X130437873Y-79239500D01*
X130437864Y-79239500D01*
X128642129Y-79239500D01*
X128642123Y-79239501D01*
X128582516Y-79245908D01*
X128447671Y-79296202D01*
X128447664Y-79296206D01*
X128332455Y-79382452D01*
X128332452Y-79382455D01*
X128246206Y-79497664D01*
X128246202Y-79497671D01*
X128195908Y-79632517D01*
X128191089Y-79677346D01*
X128189501Y-79692123D01*
X128189500Y-79692135D01*
X128189500Y-81487870D01*
X128189501Y-81487876D01*
X128195908Y-81547483D01*
X128246202Y-81682328D01*
X128246206Y-81682335D01*
X128332452Y-81797544D01*
X128332455Y-81797547D01*
X128447664Y-81883793D01*
X128447671Y-81883797D01*
X128579081Y-81932810D01*
X128635015Y-81974681D01*
X128659432Y-82040145D01*
X128644580Y-82108418D01*
X128623430Y-82136673D01*
X128501503Y-82258600D01*
X128365965Y-82452169D01*
X128365964Y-82452171D01*
X128266098Y-82666335D01*
X128266094Y-82666344D01*
X128204938Y-82894586D01*
X128204936Y-82894596D01*
X128184341Y-83129999D01*
X128184341Y-83130000D01*
X128204936Y-83365403D01*
X128204938Y-83365413D01*
X128266094Y-83593655D01*
X128266096Y-83593659D01*
X128266097Y-83593663D01*
X128334422Y-83740185D01*
X128365965Y-83807830D01*
X128365967Y-83807834D01*
X128501501Y-84001395D01*
X128501506Y-84001402D01*
X128668597Y-84168493D01*
X128668603Y-84168498D01*
X128854158Y-84298425D01*
X128897783Y-84353002D01*
X128904977Y-84422500D01*
X128873454Y-84484855D01*
X128854158Y-84501575D01*
X128668597Y-84631505D01*
X128501505Y-84798597D01*
X128365965Y-84992169D01*
X128365964Y-84992171D01*
X128266098Y-85206335D01*
X128266094Y-85206344D01*
X128204938Y-85434586D01*
X128204936Y-85434596D01*
X128184341Y-85669999D01*
X128184341Y-85670000D01*
X128204936Y-85905403D01*
X128204938Y-85905413D01*
X128266094Y-86133655D01*
X128266096Y-86133659D01*
X128266097Y-86133663D01*
X128282617Y-86169090D01*
X128365965Y-86347830D01*
X128365967Y-86347834D01*
X128468497Y-86494261D01*
X128477939Y-86507746D01*
X128501501Y-86541395D01*
X128501506Y-86541402D01*
X128668597Y-86708493D01*
X128668603Y-86708498D01*
X128854158Y-86838425D01*
X128897783Y-86893002D01*
X128904977Y-86962500D01*
X128873454Y-87024855D01*
X128854158Y-87041575D01*
X128668597Y-87171505D01*
X128501505Y-87338597D01*
X128365965Y-87532169D01*
X128365964Y-87532171D01*
X128266098Y-87746335D01*
X128266094Y-87746344D01*
X128204938Y-87974586D01*
X128204936Y-87974596D01*
X128184341Y-88209999D01*
X128184341Y-88210000D01*
X128204936Y-88445403D01*
X128204938Y-88445413D01*
X128266094Y-88673655D01*
X128266096Y-88673659D01*
X128266097Y-88673663D01*
X128365965Y-88887830D01*
X128365967Y-88887834D01*
X128501501Y-89081395D01*
X128501506Y-89081402D01*
X128668597Y-89248493D01*
X128668603Y-89248498D01*
X128854158Y-89378425D01*
X128897783Y-89433002D01*
X128904977Y-89502500D01*
X128873454Y-89564855D01*
X128854158Y-89581575D01*
X128668597Y-89711505D01*
X128501505Y-89878597D01*
X128365965Y-90072169D01*
X128365964Y-90072171D01*
X128266098Y-90286335D01*
X128266094Y-90286344D01*
X128204938Y-90514586D01*
X128204936Y-90514596D01*
X128184341Y-90749999D01*
X128184341Y-90750000D01*
X128204936Y-90985403D01*
X128204938Y-90985413D01*
X128266094Y-91213655D01*
X128266096Y-91213659D01*
X128266097Y-91213663D01*
X128365965Y-91427830D01*
X128365967Y-91427834D01*
X128501501Y-91621395D01*
X128501506Y-91621402D01*
X128668597Y-91788493D01*
X128668603Y-91788498D01*
X128854158Y-91918425D01*
X128897783Y-91973002D01*
X128904977Y-92042500D01*
X128873454Y-92104855D01*
X128854158Y-92121575D01*
X128668597Y-92251505D01*
X128501505Y-92418597D01*
X128365965Y-92612169D01*
X128365964Y-92612171D01*
X128266098Y-92826335D01*
X128266094Y-92826344D01*
X128204938Y-93054586D01*
X128204936Y-93054596D01*
X128184341Y-93289999D01*
X128184341Y-93290000D01*
X128204936Y-93525403D01*
X128204938Y-93525413D01*
X128266094Y-93753655D01*
X128266096Y-93753659D01*
X128266097Y-93753663D01*
X128362833Y-93961114D01*
X128365965Y-93967830D01*
X128365967Y-93967834D01*
X128501501Y-94161395D01*
X128501506Y-94161402D01*
X128668597Y-94328493D01*
X128668603Y-94328498D01*
X128854158Y-94458425D01*
X128897783Y-94513002D01*
X128904977Y-94582500D01*
X128873454Y-94644855D01*
X128854158Y-94661575D01*
X128668597Y-94791505D01*
X128501505Y-94958597D01*
X128365965Y-95152169D01*
X128365964Y-95152171D01*
X128266098Y-95366335D01*
X128266094Y-95366344D01*
X128204938Y-95594586D01*
X128204936Y-95594596D01*
X128184341Y-95829999D01*
X128184341Y-95830000D01*
X128204936Y-96065403D01*
X128204938Y-96065413D01*
X128266094Y-96293655D01*
X128266096Y-96293659D01*
X128266097Y-96293663D01*
X128347285Y-96467771D01*
X128365965Y-96507830D01*
X128365967Y-96507834D01*
X128462713Y-96646000D01*
X128501408Y-96701263D01*
X128501501Y-96701395D01*
X128501506Y-96701402D01*
X128668597Y-96868493D01*
X128668603Y-96868498D01*
X128854158Y-96998425D01*
X128897783Y-97053002D01*
X128904977Y-97122500D01*
X128873454Y-97184855D01*
X128854158Y-97201575D01*
X128668597Y-97331505D01*
X128501505Y-97498597D01*
X128365965Y-97692169D01*
X128365964Y-97692171D01*
X128266098Y-97906335D01*
X128266094Y-97906344D01*
X128204938Y-98134586D01*
X128204936Y-98134596D01*
X128184341Y-98369999D01*
X128184341Y-98370000D01*
X128204936Y-98605403D01*
X128204938Y-98605413D01*
X128231856Y-98705872D01*
X128230193Y-98775722D01*
X128199762Y-98825646D01*
X127784014Y-99241395D01*
X127516270Y-99509139D01*
X127516267Y-99509142D01*
X127486984Y-99538425D01*
X127429142Y-99596266D01*
X127397314Y-99643901D01*
X127397313Y-99643902D01*
X127360690Y-99698709D01*
X127360685Y-99698718D01*
X127313540Y-99812538D01*
X127313535Y-99812554D01*
X127291422Y-99923725D01*
X127291423Y-99923726D01*
X127289500Y-99933394D01*
X127289500Y-126408312D01*
X125730000Y-126408312D01*
X125730000Y-60270000D01*
X126015172Y-60270000D01*
X126034462Y-60564312D01*
X126034464Y-60564324D01*
X126092001Y-60853584D01*
X126092005Y-60853599D01*
X126186812Y-61132888D01*
X126317258Y-61397406D01*
X126317265Y-61397419D01*
X126481123Y-61642649D01*
X126510405Y-61676040D01*
X127333708Y-60852736D01*
X127430967Y-60986602D01*
X127553398Y-61109033D01*
X127687262Y-61206290D01*
X126863958Y-62029593D01*
X126897350Y-62058876D01*
X127142580Y-62222734D01*
X127142593Y-62222741D01*
X127407111Y-62353187D01*
X127686400Y-62447994D01*
X127686415Y-62447998D01*
X127975675Y-62505535D01*
X127975687Y-62505537D01*
X128270000Y-62524827D01*
X128564312Y-62505537D01*
X128564324Y-62505535D01*
X128853584Y-62447998D01*
X128853599Y-62447994D01*
X129132888Y-62353187D01*
X129397406Y-62222741D01*
X129397419Y-62222734D01*
X129642648Y-62058877D01*
X129676039Y-62029593D01*
X128852737Y-61206290D01*
X128986602Y-61109033D01*
X129109033Y-60986602D01*
X129206290Y-60852737D01*
X130029593Y-61676039D01*
X130058877Y-61642648D01*
X130222734Y-61397419D01*
X130222741Y-61397406D01*
X130353187Y-61132888D01*
X130447994Y-60853599D01*
X130447998Y-60853584D01*
X130505535Y-60564324D01*
X130505537Y-60564312D01*
X130524827Y-60270000D01*
X160305172Y-60270000D01*
X160324462Y-60564312D01*
X160324464Y-60564324D01*
X160382001Y-60853584D01*
X160382005Y-60853599D01*
X160476812Y-61132888D01*
X160607258Y-61397406D01*
X160607265Y-61397419D01*
X160771123Y-61642649D01*
X160800405Y-61676040D01*
X161623708Y-60852736D01*
X161720967Y-60986602D01*
X161843398Y-61109033D01*
X161977262Y-61206290D01*
X161153958Y-62029593D01*
X161187350Y-62058876D01*
X161432580Y-62222734D01*
X161432593Y-62222741D01*
X161697111Y-62353187D01*
X161976400Y-62447994D01*
X161976415Y-62447998D01*
X162265675Y-62505535D01*
X162265687Y-62505537D01*
X162560000Y-62524827D01*
X162854312Y-62505537D01*
X162854324Y-62505535D01*
X163143584Y-62447998D01*
X163143599Y-62447994D01*
X163422888Y-62353187D01*
X163687406Y-62222741D01*
X163687419Y-62222734D01*
X163932648Y-62058877D01*
X163966039Y-62029593D01*
X163142737Y-61206290D01*
X163276602Y-61109033D01*
X163399033Y-60986602D01*
X163496290Y-60852737D01*
X164319593Y-61676039D01*
X164348877Y-61642648D01*
X164512734Y-61397419D01*
X164512741Y-61397406D01*
X164643187Y-61132888D01*
X164737994Y-60853599D01*
X164737998Y-60853584D01*
X164795535Y-60564324D01*
X164795537Y-60564312D01*
X164814827Y-60270000D01*
X164795537Y-59975687D01*
X164795535Y-59975675D01*
X164737998Y-59686415D01*
X164737994Y-59686400D01*
X164643187Y-59407111D01*
X164512741Y-59142593D01*
X164512734Y-59142580D01*
X164348876Y-58897350D01*
X164319593Y-58863958D01*
X163496289Y-59687261D01*
X163399033Y-59553398D01*
X163276602Y-59430967D01*
X163142736Y-59333709D01*
X163966040Y-58510405D01*
X163932649Y-58481123D01*
X163687419Y-58317265D01*
X163687406Y-58317258D01*
X163422888Y-58186812D01*
X163143599Y-58092005D01*
X163143584Y-58092001D01*
X162854324Y-58034464D01*
X162854312Y-58034462D01*
X162560000Y-58015172D01*
X162265687Y-58034462D01*
X162265675Y-58034464D01*
X161976415Y-58092001D01*
X161976400Y-58092005D01*
X161697111Y-58186812D01*
X161432593Y-58317258D01*
X161432580Y-58317265D01*
X161187346Y-58481126D01*
X161187339Y-58481131D01*
X161153959Y-58510403D01*
X161153959Y-58510405D01*
X161977263Y-59333709D01*
X161843398Y-59430967D01*
X161720967Y-59553398D01*
X161623709Y-59687263D01*
X160800405Y-58863959D01*
X160800403Y-58863959D01*
X160771131Y-58897339D01*
X160771126Y-58897346D01*
X160607265Y-59142580D01*
X160607258Y-59142593D01*
X160476812Y-59407111D01*
X160382005Y-59686400D01*
X160382001Y-59686415D01*
X160324464Y-59975675D01*
X160324462Y-59975687D01*
X160305172Y-60270000D01*
X130524827Y-60270000D01*
X130505537Y-59975687D01*
X130505535Y-59975675D01*
X130447998Y-59686415D01*
X130447994Y-59686400D01*
X130353187Y-59407111D01*
X130222741Y-59142593D01*
X130222734Y-59142580D01*
X130058876Y-58897350D01*
X130029593Y-58863958D01*
X129206289Y-59687261D01*
X129109033Y-59553398D01*
X128986602Y-59430967D01*
X128852736Y-59333709D01*
X129676040Y-58510405D01*
X129642649Y-58481123D01*
X129397419Y-58317265D01*
X129397406Y-58317258D01*
X129132888Y-58186812D01*
X128853599Y-58092005D01*
X128853584Y-58092001D01*
X128564324Y-58034464D01*
X128564312Y-58034462D01*
X128270000Y-58015172D01*
X127975687Y-58034462D01*
X127975675Y-58034464D01*
X127686415Y-58092001D01*
X127686400Y-58092005D01*
X127407111Y-58186812D01*
X127142593Y-58317258D01*
X127142580Y-58317265D01*
X126897346Y-58481126D01*
X126897339Y-58481131D01*
X126863959Y-58510403D01*
X126863959Y-58510405D01*
X127687263Y-59333709D01*
X127553398Y-59430967D01*
X127430967Y-59553398D01*
X127333709Y-59687262D01*
X126510405Y-58863959D01*
X126510403Y-58863959D01*
X126481131Y-58897339D01*
X126481126Y-58897346D01*
X126317265Y-59142580D01*
X126317258Y-59142593D01*
X126186812Y-59407111D01*
X126092005Y-59686400D01*
X126092001Y-59686415D01*
X126034464Y-59975675D01*
X126034462Y-59975687D01*
X126015172Y-60270000D01*
X125730000Y-60270000D01*
X125730000Y-59731089D01*
X125730020Y-59728878D01*
X125730777Y-59686415D01*
X125732409Y-59594889D01*
X125733650Y-59579472D01*
X125771948Y-59313099D01*
X125775709Y-59295814D01*
X125820703Y-59142580D01*
X125851210Y-59038681D01*
X125857391Y-59022112D01*
X125914368Y-58897350D01*
X125968720Y-58778334D01*
X125977185Y-58762832D01*
X126122084Y-58537364D01*
X126132670Y-58523222D01*
X126308177Y-58320676D01*
X126320676Y-58308177D01*
X126523222Y-58132670D01*
X126537364Y-58122084D01*
X126762832Y-57977185D01*
X126778334Y-57968720D01*
X127022112Y-57857390D01*
X127038681Y-57851210D01*
X127295818Y-57775707D01*
X127313099Y-57771948D01*
X127579472Y-57733650D01*
X127594889Y-57732409D01*
X127728879Y-57730020D01*
X127731090Y-57730000D01*
X163098910Y-57730000D01*
X163101121Y-57730020D01*
G37*
%TD.AperFunction*%
%TD*%
M02*
